M48
;GenerationSoftware,Autodesk,EAGLE,9.6.1*%
;CreationDate,2024-04-30T12:24:22Z*%
FMAT,2
ICI,OFF
METRIC,TZ,000.000
T4C0.250
T3C0.300
T2C0.350
T1C1.016
%
G90
M71
T1
X-9208Y16986
X10636Y14605
X-9208Y11906
X-9208Y14446
T2
X3969Y29369
X5398Y29369
X9366Y27146
X10160Y25559
X14129Y18733
X14922Y17304
X14922Y13017
X13970Y11271
X10160Y4286
X9208Y2857
X5398Y794
X3810Y794
X-4128Y1111
X-5715Y1111
X-9525Y3016
X-10319Y4604
X-15240Y13176
X-14446Y11430
X-15081Y17463
X-14129Y18891
X-10319Y25559
X-9208Y27146
X-5556Y29369
X-3810Y29369
X8414Y14922
X8096Y14129
X-1270Y22701
X-7461Y9843
X-1905Y23495
X4604Y18256
X4604Y16669
X6032Y24447
X-1111Y18415
X1746Y24447
X-3016Y24447
X5556Y26352
X6985Y25241
X-7461Y25559
X-5874Y26670
X-12224Y16034
X-12382Y14129
X-7461Y5715
X-6509Y3810
X11589Y16828
X10954Y11906
X7779Y8255
X3810Y1905
X5239Y1746
X-1746Y7937
X476Y7937
X-4128Y18256
X5239Y19368
T3
X1582Y27165
X-9673Y22644
X-1453Y3018
X-9754Y7994
X10063Y6153
X2789Y13178
X-7115Y20800
X2307Y27592
X3333Y12543
X11256Y19813
X-4149Y12611
X-2699Y16351
X835Y4168
X1905Y22860
X293Y3558
X4286Y19209
X-7182Y21552
X3676Y13334
X-4393Y19368
X4816Y6516
T4
X1769Y13017
X1764Y16016
X1429Y13652
X-1587Y15875
X-1587Y15165
X1746Y14446
X-6032Y23495
X-318Y15875
X-318Y15081
X-3016Y12972
X-2857Y19209
X-5398Y6605
X-318Y14287
X-4286Y5556
X3014Y3495
X7779Y21114
X7154Y22316
X2340Y3216
X-7144Y23086
X0Y13335
X-2327Y13390
X-4921Y6060
X-1111Y4128
X6032Y23177
X6667Y21749
X-2830Y3175
X-6985Y22384
X-2323Y21489
X-573Y3355
X318Y15081
X318Y15875
X318Y14287
X-3492Y5556
M30