G04 EAGLE Gerber RS-274X export*
G75*
%MOMM*%
%FSLAX34Y34*%
%LPD*%
%INCopper Layer 15*%
%IPPOS*%
%AMOC8*
5,1,8,0,0,1.08239X$1,22.5*%
G01*
%ADD10C,1.524000*%
%ADD11C,0.525000*%
%ADD12C,0.402400*%
%ADD13C,0.452400*%
%ADD14C,0.406400*%
%ADD15C,0.304800*%

G36*
X85072Y2824D02*
X85072Y2824D01*
X85140Y2825D01*
X85193Y2844D01*
X85248Y2853D01*
X85308Y2885D01*
X85372Y2907D01*
X85416Y2942D01*
X85465Y2968D01*
X85512Y3017D01*
X85565Y3059D01*
X85612Y3123D01*
X85635Y3146D01*
X85644Y3165D01*
X85665Y3194D01*
X170670Y150432D01*
X170694Y150495D01*
X170727Y150554D01*
X170737Y150609D01*
X170757Y150662D01*
X170759Y150729D01*
X170772Y150796D01*
X170764Y150852D01*
X170766Y150908D01*
X170747Y150973D01*
X170737Y151039D01*
X170706Y151112D01*
X170696Y151144D01*
X170684Y151161D01*
X170670Y151193D01*
X85665Y298431D01*
X85622Y298484D01*
X85587Y298541D01*
X85544Y298578D01*
X85509Y298621D01*
X85452Y298657D01*
X85400Y298701D01*
X85348Y298722D01*
X85300Y298752D01*
X85235Y298768D01*
X85172Y298793D01*
X85093Y298802D01*
X85061Y298810D01*
X85041Y298808D01*
X85005Y298812D01*
X-85005Y298812D01*
X-85072Y298801D01*
X-85140Y298800D01*
X-85193Y298781D01*
X-85248Y298772D01*
X-85308Y298740D01*
X-85372Y298718D01*
X-85416Y298683D01*
X-85465Y298657D01*
X-85512Y298608D01*
X-85565Y298566D01*
X-85612Y298502D01*
X-85635Y298479D01*
X-85644Y298460D01*
X-85665Y298431D01*
X-170670Y151193D01*
X-170694Y151130D01*
X-170727Y151071D01*
X-170737Y151016D01*
X-170757Y150963D01*
X-170759Y150896D01*
X-170772Y150829D01*
X-170764Y150773D01*
X-170766Y150717D01*
X-170747Y150652D01*
X-170737Y150586D01*
X-170706Y150513D01*
X-170696Y150481D01*
X-170684Y150464D01*
X-170670Y150432D01*
X-85665Y3194D01*
X-85622Y3141D01*
X-85587Y3084D01*
X-85544Y3047D01*
X-85509Y3004D01*
X-85452Y2968D01*
X-85400Y2924D01*
X-85348Y2903D01*
X-85300Y2873D01*
X-85235Y2857D01*
X-85172Y2832D01*
X-85093Y2823D01*
X-85061Y2815D01*
X-85041Y2817D01*
X-85005Y2813D01*
X85005Y2813D01*
X85072Y2824D01*
G37*
%LPC*%
G36*
X-7198Y30009D02*
X-7198Y30009D01*
X-9273Y32084D01*
X-9270Y32111D01*
X-9270Y35011D01*
X-7198Y37083D01*
X-4268Y37083D01*
X-3011Y35825D01*
X-2953Y35784D01*
X-2901Y35734D01*
X-2853Y35712D01*
X-2811Y35682D01*
X-2743Y35661D01*
X-2677Y35631D01*
X-2626Y35625D01*
X-2576Y35610D01*
X-2504Y35611D01*
X-2433Y35604D01*
X-2382Y35615D01*
X-2330Y35616D01*
X-2263Y35641D01*
X-2193Y35656D01*
X-2148Y35682D01*
X-2099Y35700D01*
X-2043Y35745D01*
X-1982Y35782D01*
X-1948Y35822D01*
X-1907Y35854D01*
X-1868Y35914D01*
X-1822Y35969D01*
X-1802Y36017D01*
X-1774Y36061D01*
X-1757Y36130D01*
X-1730Y36197D01*
X-1722Y36268D01*
X-1714Y36300D01*
X-1716Y36323D01*
X-1711Y36364D01*
X-1711Y48291D01*
X-1726Y48381D01*
X-1733Y48472D01*
X-1746Y48502D01*
X-1751Y48534D01*
X-1794Y48615D01*
X-1829Y48699D01*
X-1855Y48731D01*
X-1866Y48752D01*
X-1889Y48774D01*
X-1934Y48830D01*
X-12574Y59469D01*
X-12574Y76557D01*
X-12585Y76628D01*
X-12587Y76700D01*
X-12605Y76749D01*
X-12613Y76800D01*
X-12647Y76863D01*
X-12672Y76931D01*
X-12704Y76971D01*
X-12729Y77017D01*
X-12781Y77067D01*
X-12825Y77123D01*
X-12869Y77151D01*
X-12907Y77187D01*
X-12972Y77217D01*
X-13032Y77256D01*
X-13083Y77269D01*
X-13130Y77290D01*
X-13201Y77298D01*
X-13271Y77316D01*
X-13323Y77312D01*
X-13374Y77318D01*
X-13445Y77302D01*
X-13516Y77297D01*
X-13564Y77276D01*
X-13615Y77265D01*
X-13676Y77229D01*
X-13742Y77200D01*
X-13798Y77156D01*
X-13826Y77139D01*
X-13841Y77121D01*
X-13873Y77096D01*
X-15744Y75225D01*
X-19181Y75225D01*
X-21612Y77656D01*
X-21612Y81094D01*
X-19181Y83525D01*
X-15744Y83525D01*
X-13873Y81654D01*
X-13815Y81613D01*
X-13763Y81563D01*
X-13716Y81541D01*
X-13674Y81511D01*
X-13605Y81490D01*
X-13540Y81460D01*
X-13488Y81454D01*
X-13438Y81438D01*
X-13367Y81440D01*
X-13296Y81432D01*
X-13245Y81443D01*
X-13193Y81445D01*
X-13125Y81469D01*
X-13055Y81485D01*
X-13010Y81511D01*
X-12962Y81529D01*
X-12906Y81574D01*
X-12844Y81611D01*
X-12810Y81650D01*
X-12770Y81683D01*
X-12731Y81743D01*
X-12684Y81798D01*
X-12665Y81846D01*
X-12637Y81890D01*
X-12619Y81959D01*
X-12592Y82026D01*
X-12584Y82097D01*
X-12576Y82128D01*
X-12578Y82152D01*
X-12574Y82193D01*
X-12574Y148111D01*
X-12585Y148181D01*
X-12587Y148253D01*
X-12605Y148302D01*
X-12613Y148354D01*
X-12647Y148417D01*
X-12672Y148484D01*
X-12704Y148525D01*
X-12729Y148571D01*
X-12781Y148620D01*
X-12825Y148676D01*
X-12869Y148704D01*
X-12907Y148740D01*
X-12972Y148770D01*
X-13032Y148809D01*
X-13083Y148822D01*
X-13130Y148844D01*
X-13201Y148852D01*
X-13271Y148869D01*
X-13323Y148865D01*
X-13374Y148871D01*
X-13445Y148856D01*
X-13516Y148850D01*
X-13564Y148830D01*
X-13615Y148819D01*
X-13676Y148782D01*
X-13742Y148754D01*
X-13798Y148709D01*
X-13826Y148693D01*
X-13841Y148675D01*
X-13873Y148649D01*
X-14410Y148112D01*
X-17340Y148112D01*
X-19412Y150184D01*
X-19412Y153114D01*
X-17864Y154661D01*
X-17853Y154677D01*
X-17837Y154690D01*
X-17781Y154777D01*
X-17721Y154861D01*
X-17715Y154880D01*
X-17704Y154897D01*
X-17679Y154997D01*
X-17649Y155096D01*
X-17649Y155116D01*
X-17644Y155135D01*
X-17652Y155238D01*
X-17655Y155342D01*
X-17662Y155361D01*
X-17663Y155381D01*
X-17704Y155475D01*
X-17739Y155573D01*
X-17752Y155589D01*
X-17760Y155607D01*
X-17864Y155738D01*
X-19412Y157285D01*
X-19412Y160215D01*
X-17340Y162287D01*
X-14410Y162287D01*
X-13873Y161750D01*
X-13815Y161708D01*
X-13763Y161659D01*
X-13716Y161637D01*
X-13674Y161606D01*
X-13605Y161585D01*
X-13540Y161555D01*
X-13488Y161549D01*
X-13438Y161534D01*
X-13367Y161536D01*
X-13296Y161528D01*
X-13245Y161539D01*
X-13193Y161540D01*
X-13125Y161565D01*
X-13055Y161580D01*
X-13010Y161607D01*
X-12962Y161625D01*
X-12906Y161670D01*
X-12844Y161706D01*
X-12810Y161746D01*
X-12770Y161779D01*
X-12731Y161839D01*
X-12684Y161893D01*
X-12665Y161942D01*
X-12637Y161985D01*
X-12619Y162055D01*
X-12592Y162122D01*
X-12584Y162193D01*
X-12576Y162224D01*
X-12578Y162247D01*
X-12574Y162288D01*
X-12574Y163188D01*
X15778Y191540D01*
X15831Y191614D01*
X15891Y191683D01*
X15903Y191713D01*
X15922Y191740D01*
X15949Y191827D01*
X15983Y191911D01*
X15987Y191952D01*
X15994Y191975D01*
X15993Y192007D01*
X16001Y192078D01*
X16001Y225978D01*
X15987Y226068D01*
X15979Y226159D01*
X15967Y226189D01*
X15962Y226221D01*
X15919Y226302D01*
X15883Y226385D01*
X15857Y226418D01*
X15846Y226438D01*
X15823Y226460D01*
X15778Y226516D01*
X15263Y227031D01*
X15263Y230169D01*
X17481Y232387D01*
X20619Y232387D01*
X22837Y230169D01*
X22837Y227031D01*
X22322Y226516D01*
X22269Y226442D01*
X22209Y226373D01*
X22197Y226343D01*
X22178Y226317D01*
X22151Y226230D01*
X22117Y226145D01*
X22113Y226104D01*
X22106Y226082D01*
X22107Y226049D01*
X22099Y225978D01*
X22099Y189237D01*
X-3552Y163586D01*
X-3594Y163528D01*
X-3643Y163476D01*
X-3665Y163429D01*
X-3696Y163387D01*
X-3717Y163318D01*
X-3747Y163253D01*
X-3753Y163201D01*
X-3768Y163151D01*
X-3766Y163080D01*
X-3774Y163009D01*
X-3763Y162958D01*
X-3762Y162906D01*
X-3737Y162838D01*
X-3722Y162768D01*
X-3695Y162724D01*
X-3677Y162675D01*
X-3632Y162619D01*
X-3596Y162557D01*
X-3556Y162523D01*
X-3524Y162483D01*
X-3463Y162444D01*
X-3409Y162397D01*
X-3360Y162378D01*
X-3317Y162350D01*
X-3247Y162332D01*
X-3181Y162305D01*
X-3109Y162297D01*
X-3078Y162289D01*
X-3055Y162291D01*
X-3014Y162287D01*
X-1710Y162287D01*
X-538Y161115D01*
X-522Y161103D01*
X-510Y161088D01*
X-422Y161032D01*
X-339Y160971D01*
X-320Y160966D01*
X-303Y160955D01*
X-202Y160930D01*
X-103Y160899D01*
X-84Y160900D01*
X-64Y160895D01*
X39Y160903D01*
X142Y160905D01*
X161Y160912D01*
X181Y160914D01*
X276Y160954D01*
X373Y160990D01*
X389Y161002D01*
X407Y161010D01*
X538Y161115D01*
X1710Y162287D01*
X4640Y162287D01*
X6712Y160215D01*
X6712Y157285D01*
X4746Y155320D01*
X4735Y155303D01*
X4719Y155291D01*
X4663Y155204D01*
X4603Y155120D01*
X4597Y155101D01*
X4586Y155084D01*
X4561Y154984D01*
X4530Y154885D01*
X4531Y154865D01*
X4526Y154845D01*
X4534Y154743D01*
X4537Y154639D01*
X4544Y154620D01*
X4545Y154600D01*
X4585Y154505D01*
X4621Y154408D01*
X4634Y154392D01*
X4641Y154374D01*
X4746Y154243D01*
X6712Y152277D01*
X6712Y149348D01*
X4746Y147382D01*
X4735Y147366D01*
X4719Y147353D01*
X4663Y147266D01*
X4603Y147182D01*
X4597Y147163D01*
X4586Y147146D01*
X4561Y147046D01*
X4530Y146947D01*
X4531Y146927D01*
X4526Y146908D01*
X4534Y146805D01*
X4537Y146701D01*
X4544Y146683D01*
X4545Y146663D01*
X4585Y146568D01*
X4621Y146470D01*
X4634Y146455D01*
X4641Y146436D01*
X4746Y146305D01*
X6712Y144340D01*
X6712Y141410D01*
X4640Y139338D01*
X1710Y139338D01*
X538Y140510D01*
X522Y140522D01*
X510Y140537D01*
X422Y140593D01*
X339Y140654D01*
X320Y140659D01*
X303Y140670D01*
X202Y140695D01*
X103Y140726D01*
X84Y140725D01*
X64Y140730D01*
X-39Y140722D01*
X-142Y140720D01*
X-161Y140713D01*
X-181Y140711D01*
X-276Y140671D01*
X-373Y140635D01*
X-389Y140623D01*
X-407Y140615D01*
X-538Y140510D01*
X-1710Y139338D01*
X-4640Y139338D01*
X-5177Y139875D01*
X-5235Y139917D01*
X-5287Y139966D01*
X-5334Y139988D01*
X-5376Y140019D01*
X-5445Y140040D01*
X-5510Y140070D01*
X-5562Y140076D01*
X-5612Y140091D01*
X-5683Y140089D01*
X-5754Y140097D01*
X-5805Y140086D01*
X-5857Y140085D01*
X-5925Y140060D01*
X-5995Y140045D01*
X-6040Y140018D01*
X-6088Y140000D01*
X-6144Y139955D01*
X-6206Y139919D01*
X-6240Y139879D01*
X-6280Y139846D01*
X-6319Y139786D01*
X-6366Y139732D01*
X-6385Y139683D01*
X-6413Y139640D01*
X-6431Y139570D01*
X-6458Y139503D01*
X-6466Y139432D01*
X-6474Y139401D01*
X-6472Y139378D01*
X-6476Y139337D01*
X-6476Y62310D01*
X-6462Y62220D01*
X-6454Y62129D01*
X-6442Y62099D01*
X-6437Y62067D01*
X-6394Y61987D01*
X-6358Y61903D01*
X-6332Y61871D01*
X-6321Y61850D01*
X-6298Y61828D01*
X-6253Y61772D01*
X4386Y51132D01*
X4386Y44917D01*
X4398Y44846D01*
X4400Y44774D01*
X4418Y44725D01*
X4426Y44674D01*
X4460Y44611D01*
X4484Y44543D01*
X4517Y44503D01*
X4541Y44457D01*
X4593Y44407D01*
X4638Y44351D01*
X4682Y44323D01*
X4719Y44287D01*
X4784Y44257D01*
X4845Y44218D01*
X4895Y44206D01*
X4942Y44184D01*
X5014Y44176D01*
X5083Y44158D01*
X5135Y44162D01*
X5187Y44157D01*
X5257Y44172D01*
X5328Y44177D01*
X5376Y44198D01*
X5427Y44209D01*
X5489Y44246D01*
X5555Y44274D01*
X5611Y44319D01*
X5638Y44335D01*
X5654Y44353D01*
X5686Y44379D01*
X6777Y45469D01*
X7505Y45469D01*
X7595Y45484D01*
X7686Y45491D01*
X7716Y45504D01*
X7748Y45509D01*
X7829Y45552D01*
X7912Y45588D01*
X7945Y45613D01*
X7965Y45624D01*
X7987Y45648D01*
X8043Y45692D01*
X36665Y74314D01*
X36718Y74388D01*
X36777Y74457D01*
X36790Y74487D01*
X36808Y74514D01*
X36835Y74601D01*
X36869Y74685D01*
X36874Y74726D01*
X36881Y74749D01*
X36880Y74781D01*
X36888Y74852D01*
X36888Y121794D01*
X36876Y121865D01*
X36874Y121936D01*
X36856Y121985D01*
X36848Y122037D01*
X36814Y122100D01*
X36790Y122167D01*
X36757Y122208D01*
X36733Y122254D01*
X36681Y122303D01*
X36636Y122359D01*
X36592Y122388D01*
X36555Y122423D01*
X36490Y122454D01*
X36429Y122492D01*
X36379Y122505D01*
X36332Y122527D01*
X36260Y122535D01*
X36191Y122552D01*
X36139Y122548D01*
X36087Y122554D01*
X36017Y122539D01*
X35946Y122533D01*
X35898Y122513D01*
X35847Y122502D01*
X35785Y122465D01*
X35719Y122437D01*
X35663Y122392D01*
X35636Y122376D01*
X35620Y122358D01*
X35588Y122332D01*
X34895Y121639D01*
X31758Y121639D01*
X29540Y123857D01*
X29540Y127228D01*
X29537Y127248D01*
X29539Y127267D01*
X29517Y127369D01*
X29500Y127471D01*
X29491Y127488D01*
X29487Y127508D01*
X29434Y127597D01*
X29385Y127688D01*
X29371Y127702D01*
X29361Y127719D01*
X29282Y127786D01*
X29207Y127858D01*
X29189Y127866D01*
X29174Y127879D01*
X29077Y127918D01*
X28984Y127961D01*
X28964Y127963D01*
X28945Y127971D01*
X28779Y127989D01*
X26322Y127989D01*
X24104Y130207D01*
X24104Y133345D01*
X26322Y135563D01*
X29459Y135563D01*
X31675Y133346D01*
X31733Y133304D01*
X31785Y133255D01*
X31833Y133233D01*
X31875Y133203D01*
X31943Y133182D01*
X32009Y133151D01*
X32060Y133146D01*
X32110Y133130D01*
X32182Y133132D01*
X32253Y133124D01*
X32304Y133135D01*
X32356Y133137D01*
X32423Y133161D01*
X32493Y133177D01*
X32538Y133203D01*
X32587Y133221D01*
X32643Y133266D01*
X32704Y133303D01*
X32738Y133342D01*
X32779Y133375D01*
X32818Y133435D01*
X32864Y133490D01*
X32884Y133538D01*
X32912Y133582D01*
X32929Y133651D01*
X32956Y133718D01*
X32964Y133789D01*
X32972Y133820D01*
X32970Y133844D01*
X32975Y133885D01*
X32975Y134905D01*
X35193Y137123D01*
X38330Y137123D01*
X40548Y134905D01*
X40548Y134177D01*
X40563Y134087D01*
X40570Y133996D01*
X40583Y133966D01*
X40588Y133934D01*
X40631Y133853D01*
X40666Y133769D01*
X40692Y133737D01*
X40703Y133717D01*
X40726Y133694D01*
X40771Y133638D01*
X42985Y131424D01*
X42985Y72011D01*
X12355Y41381D01*
X12308Y41315D01*
X12297Y41304D01*
X12294Y41298D01*
X12242Y41237D01*
X12230Y41207D01*
X12211Y41181D01*
X12185Y41094D01*
X12150Y41009D01*
X12146Y40968D01*
X12139Y40946D01*
X12140Y40914D01*
X12132Y40843D01*
X12132Y40114D01*
X9914Y37896D01*
X7473Y37896D01*
X7453Y37893D01*
X7434Y37895D01*
X7332Y37873D01*
X7230Y37856D01*
X7213Y37847D01*
X7193Y37843D01*
X7104Y37790D01*
X7013Y37741D01*
X6999Y37727D01*
X6982Y37717D01*
X6915Y37638D01*
X6843Y37563D01*
X6835Y37545D01*
X6822Y37530D01*
X6783Y37433D01*
X6740Y37340D01*
X6738Y37320D01*
X6730Y37301D01*
X6712Y37135D01*
X6712Y34014D01*
X4494Y31795D01*
X1356Y31795D01*
X-897Y34049D01*
X-955Y34090D01*
X-1007Y34140D01*
X-1054Y34162D01*
X-1096Y34192D01*
X-1165Y34213D01*
X-1230Y34243D01*
X-1282Y34249D01*
X-1332Y34264D01*
X-1403Y34263D01*
X-1475Y34271D01*
X-1525Y34259D01*
X-1577Y34258D01*
X-1645Y34233D01*
X-1715Y34218D01*
X-1760Y34192D01*
X-1808Y34174D01*
X-1865Y34129D01*
X-1926Y34092D01*
X-1960Y34053D01*
X-2001Y34020D01*
X-2039Y33960D01*
X-2086Y33905D01*
X-2105Y33857D01*
X-2134Y33813D01*
X-2151Y33744D01*
X-2178Y33677D01*
X-2186Y33606D01*
X-2194Y33575D01*
X-2192Y33551D01*
X-2196Y33510D01*
X-2196Y32081D01*
X-4268Y30009D01*
X-7198Y30009D01*
G37*
%LPD*%
%LPC*%
G36*
X-43061Y122328D02*
X-43061Y122328D01*
X-45279Y124546D01*
X-45279Y127684D01*
X-45272Y127691D01*
X-45219Y127765D01*
X-45160Y127834D01*
X-45147Y127864D01*
X-45129Y127890D01*
X-45102Y127977D01*
X-45068Y128062D01*
X-45063Y128103D01*
X-45056Y128125D01*
X-45057Y128158D01*
X-45049Y128229D01*
X-45049Y150481D01*
X-30997Y164533D01*
X-30944Y164607D01*
X-30885Y164676D01*
X-30872Y164706D01*
X-30854Y164733D01*
X-30827Y164819D01*
X-30793Y164904D01*
X-30788Y164945D01*
X-30781Y164968D01*
X-30782Y165000D01*
X-30774Y165071D01*
X-30774Y165081D01*
X-30767Y165088D01*
X-30714Y165162D01*
X-30655Y165231D01*
X-30642Y165262D01*
X-30624Y165288D01*
X-30597Y165375D01*
X-30563Y165460D01*
X-30558Y165501D01*
X-30551Y165523D01*
X-30552Y165555D01*
X-30544Y165626D01*
X-30544Y169748D01*
X-15485Y184807D01*
X-15432Y184881D01*
X-15373Y184951D01*
X-15360Y184981D01*
X-15342Y185007D01*
X-15315Y185094D01*
X-15281Y185179D01*
X-15276Y185220D01*
X-15269Y185242D01*
X-15270Y185274D01*
X-15262Y185346D01*
X-15262Y185869D01*
X-12831Y188300D01*
X-10721Y188300D01*
X-10630Y188314D01*
X-10540Y188322D01*
X-10510Y188334D01*
X-10478Y188339D01*
X-10397Y188382D01*
X-10313Y188418D01*
X-10281Y188444D01*
X-10260Y188455D01*
X-10238Y188478D01*
X-10182Y188523D01*
X-8542Y190163D01*
X-8489Y190237D01*
X-8430Y190306D01*
X-8417Y190336D01*
X-8399Y190363D01*
X-8372Y190449D01*
X-8338Y190534D01*
X-8333Y190575D01*
X-8326Y190598D01*
X-8327Y190630D01*
X-8319Y190701D01*
X-8319Y240157D01*
X-8322Y240177D01*
X-8320Y240196D01*
X-8342Y240298D01*
X-8359Y240400D01*
X-8368Y240417D01*
X-8373Y240437D01*
X-8426Y240526D01*
X-8474Y240617D01*
X-8488Y240631D01*
X-8499Y240648D01*
X-8577Y240715D01*
X-8652Y240787D01*
X-8670Y240795D01*
X-8686Y240808D01*
X-8782Y240847D01*
X-8875Y240890D01*
X-8895Y240892D01*
X-8914Y240900D01*
X-9080Y240918D01*
X-27535Y240918D01*
X-27625Y240904D01*
X-27716Y240896D01*
X-27746Y240884D01*
X-27778Y240879D01*
X-27859Y240836D01*
X-27943Y240800D01*
X-27975Y240774D01*
X-27995Y240763D01*
X-28018Y240740D01*
X-28074Y240695D01*
X-28444Y240325D01*
X-31881Y240325D01*
X-34312Y242756D01*
X-34312Y246194D01*
X-31881Y248625D01*
X-28444Y248625D01*
X-28074Y248255D01*
X-28000Y248202D01*
X-27930Y248142D01*
X-27900Y248130D01*
X-27874Y248111D01*
X-27787Y248084D01*
X-27702Y248050D01*
X-27661Y248046D01*
X-27639Y248039D01*
X-27607Y248040D01*
X-27535Y248032D01*
X14835Y248032D01*
X14925Y248046D01*
X15016Y248054D01*
X15046Y248066D01*
X15078Y248071D01*
X15159Y248114D01*
X15243Y248150D01*
X15275Y248176D01*
X15295Y248187D01*
X15318Y248210D01*
X15374Y248255D01*
X15744Y248625D01*
X19181Y248625D01*
X21612Y246194D01*
X21612Y242756D01*
X19181Y240325D01*
X15744Y240325D01*
X15374Y240695D01*
X15300Y240748D01*
X15230Y240808D01*
X15200Y240820D01*
X15174Y240839D01*
X15087Y240866D01*
X15002Y240900D01*
X14961Y240904D01*
X14939Y240911D01*
X14907Y240910D01*
X14835Y240918D01*
X-445Y240918D01*
X-464Y240915D01*
X-484Y240917D01*
X-585Y240895D01*
X-687Y240879D01*
X-705Y240869D01*
X-724Y240865D01*
X-813Y240812D01*
X-905Y240763D01*
X-918Y240749D01*
X-935Y240739D01*
X-1003Y240660D01*
X-1074Y240585D01*
X-1082Y240567D01*
X-1095Y240552D01*
X-1134Y240456D01*
X-1178Y240362D01*
X-1180Y240342D01*
X-1187Y240324D01*
X-1206Y240157D01*
X-1206Y187439D01*
X-8052Y180593D01*
X-8485Y180593D01*
X-8575Y180579D01*
X-8666Y180571D01*
X-8696Y180559D01*
X-8728Y180554D01*
X-8809Y180511D01*
X-8893Y180475D01*
X-8925Y180449D01*
X-8945Y180438D01*
X-8968Y180415D01*
X-9024Y180370D01*
X-9394Y180000D01*
X-9917Y180000D01*
X-10007Y179986D01*
X-10098Y179978D01*
X-10128Y179966D01*
X-10160Y179961D01*
X-10240Y179918D01*
X-10324Y179882D01*
X-10356Y179856D01*
X-10377Y179845D01*
X-10399Y179822D01*
X-10455Y179777D01*
X-23208Y167025D01*
X-23261Y166951D01*
X-23266Y166945D01*
X-23299Y166910D01*
X-23303Y166902D01*
X-23320Y166881D01*
X-23333Y166851D01*
X-23351Y166825D01*
X-23376Y166743D01*
X-23403Y166687D01*
X-23404Y166673D01*
X-23412Y166653D01*
X-23417Y166612D01*
X-23424Y166590D01*
X-23423Y166558D01*
X-23431Y166486D01*
X-23431Y165626D01*
X-23416Y165536D01*
X-23409Y165445D01*
X-23396Y165416D01*
X-23391Y165384D01*
X-23348Y165303D01*
X-23313Y165219D01*
X-23287Y165187D01*
X-23276Y165166D01*
X-23253Y165144D01*
X-23208Y165088D01*
X-23201Y165081D01*
X-23201Y161944D01*
X-25419Y159726D01*
X-25429Y159726D01*
X-25519Y159711D01*
X-25610Y159704D01*
X-25640Y159691D01*
X-25672Y159686D01*
X-25752Y159643D01*
X-25836Y159608D01*
X-25868Y159582D01*
X-25889Y159571D01*
X-25911Y159548D01*
X-25967Y159503D01*
X-37713Y147757D01*
X-37766Y147683D01*
X-37825Y147614D01*
X-37838Y147584D01*
X-37856Y147557D01*
X-37883Y147471D01*
X-37917Y147386D01*
X-37922Y147345D01*
X-37929Y147322D01*
X-37928Y147290D01*
X-37936Y147219D01*
X-37936Y128229D01*
X-37921Y128139D01*
X-37914Y128048D01*
X-37901Y128018D01*
X-37896Y127986D01*
X-37853Y127905D01*
X-37818Y127822D01*
X-37792Y127789D01*
X-37781Y127769D01*
X-37758Y127747D01*
X-37713Y127691D01*
X-37706Y127684D01*
X-37706Y124546D01*
X-39924Y122328D01*
X-43061Y122328D01*
G37*
%LPD*%
%LPC*%
G36*
X-93894Y160718D02*
X-93894Y160718D01*
X-97255Y162110D01*
X-99828Y164682D01*
X-101220Y168044D01*
X-101220Y171681D01*
X-99828Y175043D01*
X-97255Y177615D01*
X-93894Y179007D01*
X-90256Y179007D01*
X-86895Y177615D01*
X-84322Y175043D01*
X-82930Y171681D01*
X-82930Y168044D01*
X-84322Y164682D01*
X-86895Y162110D01*
X-90256Y160718D01*
X-93894Y160718D01*
G37*
%LPD*%
%LPC*%
G36*
X-93894Y135318D02*
X-93894Y135318D01*
X-97255Y136710D01*
X-99828Y139282D01*
X-101220Y142644D01*
X-101220Y146281D01*
X-99828Y149643D01*
X-97255Y152215D01*
X-93894Y153607D01*
X-90256Y153607D01*
X-86895Y152215D01*
X-84322Y149643D01*
X-82930Y146281D01*
X-82930Y142644D01*
X-84322Y139282D01*
X-86895Y136710D01*
X-90256Y135318D01*
X-93894Y135318D01*
G37*
%LPD*%
%LPC*%
G36*
X104544Y136905D02*
X104544Y136905D01*
X101182Y138297D01*
X98610Y140870D01*
X97218Y144231D01*
X97218Y147869D01*
X98610Y151230D01*
X101182Y153803D01*
X104544Y155195D01*
X108181Y155195D01*
X111543Y153803D01*
X114115Y151230D01*
X115507Y147869D01*
X115507Y144231D01*
X114115Y140870D01*
X111543Y138297D01*
X108181Y136905D01*
X104544Y136905D01*
G37*
%LPD*%
%LPC*%
G36*
X-93894Y109918D02*
X-93894Y109918D01*
X-97255Y111310D01*
X-99828Y113882D01*
X-101220Y117244D01*
X-101220Y120881D01*
X-99828Y124243D01*
X-97255Y126815D01*
X-93894Y128207D01*
X-90256Y128207D01*
X-86895Y126815D01*
X-84322Y124243D01*
X-82930Y120881D01*
X-82930Y117244D01*
X-84322Y113882D01*
X-86895Y111310D01*
X-90256Y109918D01*
X-93894Y109918D01*
G37*
%LPD*%
%LPC*%
G36*
X-72718Y204208D02*
X-72718Y204208D01*
X-74936Y206426D01*
X-74936Y209564D01*
X-73615Y210884D01*
X-73604Y210900D01*
X-73588Y210913D01*
X-73557Y210961D01*
X-73551Y210968D01*
X-73545Y210979D01*
X-73532Y211000D01*
X-73472Y211084D01*
X-73466Y211103D01*
X-73455Y211120D01*
X-73430Y211220D01*
X-73399Y211319D01*
X-73400Y211339D01*
X-73395Y211358D01*
X-73403Y211461D01*
X-73406Y211565D01*
X-73413Y211583D01*
X-73414Y211603D01*
X-73455Y211698D01*
X-73490Y211796D01*
X-73503Y211811D01*
X-73510Y211830D01*
X-73615Y211961D01*
X-75605Y213950D01*
X-75605Y217088D01*
X-73387Y219306D01*
X-72158Y219306D01*
X-72087Y219317D01*
X-72015Y219319D01*
X-71966Y219337D01*
X-71915Y219345D01*
X-71852Y219379D01*
X-71784Y219404D01*
X-71744Y219436D01*
X-71698Y219461D01*
X-71648Y219513D01*
X-71592Y219557D01*
X-71564Y219601D01*
X-71528Y219639D01*
X-71498Y219704D01*
X-71459Y219764D01*
X-71447Y219815D01*
X-71425Y219862D01*
X-71417Y219933D01*
X-71399Y220003D01*
X-71403Y220055D01*
X-71398Y220106D01*
X-71413Y220177D01*
X-71418Y220248D01*
X-71439Y220296D01*
X-71450Y220347D01*
X-71487Y220408D01*
X-71515Y220474D01*
X-71559Y220530D01*
X-71576Y220558D01*
X-71594Y220573D01*
X-71619Y220605D01*
X-73387Y222373D01*
X-73387Y225302D01*
X-72664Y226025D01*
X-72622Y226083D01*
X-72573Y226135D01*
X-72551Y226183D01*
X-72520Y226225D01*
X-72499Y226293D01*
X-72469Y226359D01*
X-72463Y226410D01*
X-72448Y226460D01*
X-72450Y226532D01*
X-72442Y226603D01*
X-72453Y226654D01*
X-72454Y226706D01*
X-72479Y226773D01*
X-72494Y226843D01*
X-72521Y226888D01*
X-72539Y226937D01*
X-72584Y226993D01*
X-72620Y227054D01*
X-72660Y227088D01*
X-72693Y227129D01*
X-72732Y227154D01*
X-74974Y229397D01*
X-74974Y232326D01*
X-72902Y234398D01*
X-69973Y234398D01*
X-67901Y232326D01*
X-67901Y229397D01*
X-68624Y228674D01*
X-68665Y228616D01*
X-68715Y228564D01*
X-68737Y228516D01*
X-68767Y228474D01*
X-68788Y228406D01*
X-68818Y228340D01*
X-68824Y228289D01*
X-68839Y228239D01*
X-68838Y228167D01*
X-68845Y228096D01*
X-68834Y228045D01*
X-68833Y227993D01*
X-68808Y227926D01*
X-68793Y227856D01*
X-68767Y227811D01*
X-68749Y227762D01*
X-68704Y227706D01*
X-68667Y227645D01*
X-68627Y227611D01*
X-68595Y227570D01*
X-68555Y227545D01*
X-66313Y225302D01*
X-66313Y222373D01*
X-68385Y220301D01*
X-69407Y220301D01*
X-69478Y220289D01*
X-69550Y220287D01*
X-69599Y220269D01*
X-69650Y220261D01*
X-69713Y220227D01*
X-69781Y220203D01*
X-69821Y220170D01*
X-69867Y220146D01*
X-69917Y220094D01*
X-69973Y220049D01*
X-70001Y220005D01*
X-70037Y219968D01*
X-70067Y219903D01*
X-70106Y219842D01*
X-70118Y219792D01*
X-70140Y219745D01*
X-70148Y219673D01*
X-70166Y219604D01*
X-70162Y219552D01*
X-70167Y219500D01*
X-70152Y219430D01*
X-70147Y219359D01*
X-70126Y219311D01*
X-70115Y219260D01*
X-70078Y219198D01*
X-70050Y219132D01*
X-70005Y219076D01*
X-69989Y219049D01*
X-69971Y219033D01*
X-69945Y219001D01*
X-68032Y217088D01*
X-68032Y213950D01*
X-69352Y212630D01*
X-69364Y212614D01*
X-69379Y212601D01*
X-69435Y212514D01*
X-69496Y212430D01*
X-69502Y212411D01*
X-69512Y212395D01*
X-69538Y212294D01*
X-69568Y212195D01*
X-69568Y212175D01*
X-69572Y212156D01*
X-69564Y212053D01*
X-69562Y211949D01*
X-69555Y211931D01*
X-69553Y211911D01*
X-69513Y211816D01*
X-69477Y211718D01*
X-69465Y211703D01*
X-69457Y211684D01*
X-69352Y211553D01*
X-67362Y209564D01*
X-67362Y206426D01*
X-69580Y204208D01*
X-72718Y204208D01*
G37*
%LPD*%
%LPC*%
G36*
X-44327Y52026D02*
X-44327Y52026D01*
X-46399Y54098D01*
X-46399Y56572D01*
X-46411Y56643D01*
X-46413Y56715D01*
X-46431Y56764D01*
X-46439Y56815D01*
X-46472Y56878D01*
X-46497Y56946D01*
X-46530Y56986D01*
X-46554Y57032D01*
X-46606Y57082D01*
X-46651Y57138D01*
X-46695Y57166D01*
X-46732Y57202D01*
X-46797Y57232D01*
X-46858Y57271D01*
X-46908Y57283D01*
X-46955Y57305D01*
X-47027Y57313D01*
X-47096Y57331D01*
X-47148Y57327D01*
X-47200Y57332D01*
X-47270Y57317D01*
X-47342Y57312D01*
X-47389Y57291D01*
X-47440Y57280D01*
X-47502Y57243D01*
X-47568Y57215D01*
X-47624Y57171D01*
X-47651Y57154D01*
X-47667Y57136D01*
X-47699Y57111D01*
X-47748Y57062D01*
X-50677Y57062D01*
X-52749Y59134D01*
X-52749Y61756D01*
X-52752Y61776D01*
X-52750Y61795D01*
X-52772Y61897D01*
X-52789Y61999D01*
X-52798Y62016D01*
X-52803Y62036D01*
X-52856Y62125D01*
X-52904Y62216D01*
X-52918Y62230D01*
X-52929Y62247D01*
X-53007Y62314D01*
X-53082Y62386D01*
X-53100Y62394D01*
X-53116Y62407D01*
X-53212Y62446D01*
X-53305Y62489D01*
X-53325Y62491D01*
X-53344Y62499D01*
X-53510Y62517D01*
X-55440Y62517D01*
X-57512Y64589D01*
X-57512Y67519D01*
X-55440Y69591D01*
X-52510Y69591D01*
X-50438Y67519D01*
X-50438Y64896D01*
X-50435Y64877D01*
X-50437Y64857D01*
X-50415Y64756D01*
X-50399Y64654D01*
X-50389Y64636D01*
X-50385Y64617D01*
X-50332Y64528D01*
X-50283Y64436D01*
X-50269Y64423D01*
X-50259Y64406D01*
X-50180Y64338D01*
X-50105Y64267D01*
X-50087Y64259D01*
X-50072Y64246D01*
X-49976Y64207D01*
X-49882Y64163D01*
X-49862Y64161D01*
X-49844Y64154D01*
X-49677Y64135D01*
X-47748Y64135D01*
X-45676Y62063D01*
X-45676Y59589D01*
X-45664Y59518D01*
X-45662Y59446D01*
X-45644Y59397D01*
X-45636Y59346D01*
X-45603Y59283D01*
X-45578Y59215D01*
X-45545Y59175D01*
X-45521Y59129D01*
X-45469Y59079D01*
X-45424Y59023D01*
X-45380Y58995D01*
X-45343Y58959D01*
X-45278Y58929D01*
X-45217Y58890D01*
X-45167Y58878D01*
X-45120Y58856D01*
X-45048Y58848D01*
X-44979Y58830D01*
X-44927Y58834D01*
X-44875Y58829D01*
X-44805Y58844D01*
X-44733Y58849D01*
X-44686Y58870D01*
X-44635Y58881D01*
X-44573Y58918D01*
X-44507Y58946D01*
X-44451Y58990D01*
X-44424Y59007D01*
X-44408Y59025D01*
X-44376Y59050D01*
X-44327Y59099D01*
X-41398Y59099D01*
X-39432Y57134D01*
X-39416Y57122D01*
X-39403Y57107D01*
X-39316Y57050D01*
X-39232Y56990D01*
X-39213Y56984D01*
X-39197Y56974D01*
X-39096Y56948D01*
X-38997Y56918D01*
X-38977Y56918D01*
X-38958Y56913D01*
X-38855Y56922D01*
X-38751Y56924D01*
X-38733Y56931D01*
X-38713Y56933D01*
X-38618Y56973D01*
X-38520Y57009D01*
X-38505Y57021D01*
X-38486Y57029D01*
X-38355Y57134D01*
X-36390Y59099D01*
X-33460Y59099D01*
X-31388Y57027D01*
X-31388Y54098D01*
X-33460Y52026D01*
X-36390Y52026D01*
X-38355Y53991D01*
X-38372Y54003D01*
X-38384Y54018D01*
X-38471Y54075D01*
X-38555Y54135D01*
X-38574Y54141D01*
X-38591Y54151D01*
X-38692Y54177D01*
X-38790Y54207D01*
X-38810Y54207D01*
X-38830Y54212D01*
X-38933Y54203D01*
X-39036Y54201D01*
X-39055Y54194D01*
X-39075Y54192D01*
X-39170Y54152D01*
X-39267Y54116D01*
X-39283Y54104D01*
X-39301Y54096D01*
X-39432Y53991D01*
X-41398Y52026D01*
X-44327Y52026D01*
G37*
%LPD*%
%LPC*%
G36*
X16226Y126638D02*
X16226Y126638D01*
X14155Y128710D01*
X14155Y131640D01*
X14203Y131689D01*
X14245Y131747D01*
X14295Y131799D01*
X14316Y131846D01*
X14347Y131888D01*
X14368Y131957D01*
X14398Y132022D01*
X14404Y132074D01*
X14419Y132124D01*
X14417Y132195D01*
X14425Y132266D01*
X14414Y132317D01*
X14413Y132369D01*
X14388Y132437D01*
X14373Y132507D01*
X14346Y132552D01*
X14328Y132600D01*
X14284Y132656D01*
X14247Y132718D01*
X14207Y132752D01*
X14175Y132792D01*
X14114Y132831D01*
X14060Y132878D01*
X14012Y132897D01*
X13968Y132925D01*
X13898Y132943D01*
X13832Y132970D01*
X13760Y132978D01*
X13729Y132986D01*
X13706Y132984D01*
X13665Y132988D01*
X12823Y132988D01*
X10751Y135060D01*
X10751Y137990D01*
X12823Y140062D01*
X15024Y140062D01*
X15094Y140073D01*
X15166Y140075D01*
X15215Y140093D01*
X15267Y140101D01*
X15330Y140135D01*
X15397Y140160D01*
X15438Y140192D01*
X15484Y140217D01*
X15533Y140269D01*
X15589Y140313D01*
X15617Y140357D01*
X15653Y140395D01*
X15683Y140460D01*
X15722Y140520D01*
X15735Y140571D01*
X15757Y140618D01*
X15765Y140689D01*
X15782Y140759D01*
X15778Y140811D01*
X15784Y140862D01*
X15769Y140933D01*
X15763Y141004D01*
X15743Y141052D01*
X15732Y141103D01*
X15695Y141164D01*
X15667Y141230D01*
X15622Y141286D01*
X15606Y141314D01*
X15588Y141329D01*
X15562Y141361D01*
X13926Y142998D01*
X13926Y145927D01*
X15998Y147999D01*
X18927Y147999D01*
X20999Y145927D01*
X20999Y142998D01*
X18927Y140926D01*
X16726Y140926D01*
X16656Y140914D01*
X16584Y140912D01*
X16535Y140894D01*
X16483Y140886D01*
X16420Y140852D01*
X16353Y140828D01*
X16312Y140795D01*
X16266Y140771D01*
X16217Y140719D01*
X16161Y140674D01*
X16133Y140630D01*
X16097Y140593D01*
X16067Y140528D01*
X16028Y140467D01*
X16015Y140417D01*
X15993Y140370D01*
X15985Y140298D01*
X15968Y140229D01*
X15972Y140177D01*
X15966Y140125D01*
X15981Y140055D01*
X15987Y139984D01*
X16007Y139936D01*
X16018Y139885D01*
X16055Y139823D01*
X16083Y139757D01*
X16128Y139701D01*
X16144Y139674D01*
X16162Y139658D01*
X16188Y139626D01*
X17824Y137990D01*
X17824Y135060D01*
X17775Y135011D01*
X17734Y134953D01*
X17684Y134901D01*
X17662Y134854D01*
X17632Y134812D01*
X17611Y134743D01*
X17581Y134678D01*
X17575Y134626D01*
X17560Y134576D01*
X17561Y134505D01*
X17554Y134434D01*
X17565Y134383D01*
X17566Y134331D01*
X17591Y134263D01*
X17606Y134193D01*
X17633Y134148D01*
X17650Y134100D01*
X17695Y134044D01*
X17732Y133982D01*
X17772Y133948D01*
X17804Y133908D01*
X17864Y133869D01*
X17919Y133822D01*
X17967Y133803D01*
X18011Y133775D01*
X18080Y133757D01*
X18147Y133730D01*
X18218Y133722D01*
X18249Y133714D01*
X18273Y133716D01*
X18314Y133712D01*
X19156Y133712D01*
X21228Y131640D01*
X21228Y128710D01*
X19156Y126638D01*
X16226Y126638D01*
G37*
%LPD*%
%LPC*%
G36*
X14253Y267860D02*
X14253Y267860D01*
X12035Y270078D01*
X12035Y273215D01*
X14253Y275434D01*
X17390Y275434D01*
X17985Y274838D01*
X18044Y274796D01*
X18096Y274747D01*
X18143Y274725D01*
X18185Y274695D01*
X18254Y274673D01*
X18319Y274643D01*
X18370Y274638D01*
X18420Y274622D01*
X18492Y274624D01*
X18563Y274616D01*
X18614Y274627D01*
X18666Y274629D01*
X18733Y274653D01*
X18803Y274668D01*
X18848Y274695D01*
X18897Y274713D01*
X18953Y274758D01*
X19015Y274795D01*
X19048Y274834D01*
X19089Y274867D01*
X19128Y274927D01*
X19175Y274981D01*
X19194Y275030D01*
X19222Y275074D01*
X19240Y275143D01*
X19266Y275210D01*
X19274Y275281D01*
X19282Y275312D01*
X19280Y275335D01*
X19285Y275376D01*
X19285Y277486D01*
X21503Y279704D01*
X24640Y279704D01*
X26858Y277486D01*
X26858Y274349D01*
X24640Y272131D01*
X21503Y272131D01*
X20908Y272726D01*
X20849Y272768D01*
X20797Y272818D01*
X20750Y272840D01*
X20708Y272870D01*
X20639Y272891D01*
X20574Y272921D01*
X20523Y272927D01*
X20473Y272942D01*
X20401Y272940D01*
X20330Y272948D01*
X20279Y272937D01*
X20227Y272936D01*
X20160Y272911D01*
X20089Y272896D01*
X20045Y272869D01*
X19996Y272852D01*
X19940Y272807D01*
X19878Y272770D01*
X19844Y272730D01*
X19804Y272698D01*
X19765Y272638D01*
X19718Y272583D01*
X19699Y272535D01*
X19671Y272491D01*
X19653Y272421D01*
X19626Y272355D01*
X19619Y272284D01*
X19611Y272252D01*
X19613Y272229D01*
X19608Y272188D01*
X19608Y270078D01*
X17390Y267860D01*
X14253Y267860D01*
G37*
%LPD*%
%LPC*%
G36*
X-31627Y126187D02*
X-31627Y126187D01*
X-33699Y128259D01*
X-33699Y131189D01*
X-31627Y133261D01*
X-28698Y133261D01*
X-28102Y132665D01*
X-28044Y132623D01*
X-27992Y132574D01*
X-27944Y132552D01*
X-27902Y132522D01*
X-27834Y132500D01*
X-27769Y132470D01*
X-27717Y132465D01*
X-27667Y132449D01*
X-27595Y132451D01*
X-27524Y132443D01*
X-27473Y132454D01*
X-27421Y132456D01*
X-27354Y132480D01*
X-27284Y132495D01*
X-27239Y132522D01*
X-27190Y132540D01*
X-27134Y132585D01*
X-27073Y132622D01*
X-27039Y132661D01*
X-26998Y132694D01*
X-26959Y132754D01*
X-26913Y132808D01*
X-26893Y132857D01*
X-26865Y132901D01*
X-26848Y132970D01*
X-26821Y133037D01*
X-26813Y133108D01*
X-26805Y133139D01*
X-26807Y133162D01*
X-26802Y133203D01*
X-26802Y135362D01*
X-24731Y137434D01*
X-21801Y137434D01*
X-19729Y135362D01*
X-19729Y132432D01*
X-21801Y130360D01*
X-24731Y130360D01*
X-25326Y130956D01*
X-25384Y130998D01*
X-25436Y131047D01*
X-25484Y131069D01*
X-25526Y131099D01*
X-25594Y131120D01*
X-25660Y131151D01*
X-25711Y131156D01*
X-25761Y131172D01*
X-25833Y131170D01*
X-25904Y131178D01*
X-25955Y131167D01*
X-26007Y131165D01*
X-26074Y131141D01*
X-26144Y131125D01*
X-26189Y131099D01*
X-26238Y131081D01*
X-26294Y131036D01*
X-26355Y130999D01*
X-26389Y130960D01*
X-26430Y130927D01*
X-26469Y130867D01*
X-26515Y130812D01*
X-26535Y130764D01*
X-26563Y130720D01*
X-26580Y130651D01*
X-26607Y130584D01*
X-26615Y130513D01*
X-26623Y130482D01*
X-26621Y130458D01*
X-26626Y130418D01*
X-26626Y128259D01*
X-28698Y126187D01*
X-31627Y126187D01*
G37*
%LPD*%
%LPC*%
G36*
X65210Y213951D02*
X65210Y213951D01*
X63138Y216023D01*
X63138Y218952D01*
X65210Y221024D01*
X67238Y221024D01*
X67257Y221027D01*
X67277Y221025D01*
X67378Y221047D01*
X67480Y221064D01*
X67498Y221073D01*
X67517Y221078D01*
X67606Y221131D01*
X67698Y221179D01*
X67711Y221193D01*
X67728Y221204D01*
X67796Y221282D01*
X67867Y221357D01*
X67875Y221375D01*
X67888Y221391D01*
X67927Y221487D01*
X67971Y221580D01*
X67973Y221600D01*
X67980Y221619D01*
X67999Y221785D01*
X67999Y224628D01*
X70071Y226700D01*
X73000Y226700D01*
X75072Y224628D01*
X75072Y221699D01*
X73000Y219627D01*
X70973Y219627D01*
X70953Y219624D01*
X70934Y219626D01*
X70832Y219604D01*
X70730Y219587D01*
X70713Y219578D01*
X70693Y219573D01*
X70604Y219520D01*
X70513Y219472D01*
X70499Y219458D01*
X70482Y219447D01*
X70415Y219369D01*
X70343Y219294D01*
X70335Y219276D01*
X70322Y219260D01*
X70283Y219164D01*
X70240Y219071D01*
X70238Y219051D01*
X70230Y219032D01*
X70212Y218866D01*
X70212Y216023D01*
X68140Y213951D01*
X65210Y213951D01*
G37*
%LPD*%
%LPC*%
G36*
X21940Y28621D02*
X21940Y28621D01*
X19868Y30693D01*
X19868Y33623D01*
X21940Y35694D01*
X24870Y35694D01*
X25304Y35260D01*
X25363Y35218D01*
X25415Y35168D01*
X25462Y35147D01*
X25504Y35116D01*
X25573Y35095D01*
X25638Y35065D01*
X25690Y35059D01*
X25739Y35044D01*
X25811Y35046D01*
X25882Y35038D01*
X25933Y35049D01*
X25985Y35050D01*
X26053Y35075D01*
X26123Y35090D01*
X26167Y35117D01*
X26216Y35135D01*
X26272Y35179D01*
X26334Y35216D01*
X26368Y35256D01*
X26408Y35288D01*
X26447Y35349D01*
X26494Y35403D01*
X26513Y35451D01*
X26541Y35495D01*
X26559Y35565D01*
X26586Y35631D01*
X26593Y35703D01*
X26601Y35734D01*
X26599Y35757D01*
X26604Y35798D01*
X26604Y36412D01*
X28676Y38483D01*
X31606Y38483D01*
X33677Y36412D01*
X33677Y33482D01*
X31606Y31410D01*
X28676Y31410D01*
X28241Y31845D01*
X28183Y31887D01*
X28131Y31936D01*
X28084Y31958D01*
X28041Y31988D01*
X27973Y32009D01*
X27908Y32040D01*
X27856Y32045D01*
X27806Y32061D01*
X27734Y32059D01*
X27663Y32067D01*
X27612Y32056D01*
X27560Y32054D01*
X27493Y32030D01*
X27423Y32014D01*
X27378Y31988D01*
X27329Y31970D01*
X27273Y31925D01*
X27212Y31888D01*
X27178Y31849D01*
X27137Y31816D01*
X27099Y31756D01*
X27052Y31701D01*
X27032Y31653D01*
X27004Y31609D01*
X26987Y31540D01*
X26960Y31473D01*
X26952Y31402D01*
X26944Y31371D01*
X26946Y31347D01*
X26941Y31307D01*
X26941Y30693D01*
X24870Y28621D01*
X21940Y28621D01*
G37*
%LPD*%
%LPC*%
G36*
X-60456Y262550D02*
X-60456Y262550D01*
X-62887Y264981D01*
X-62887Y268419D01*
X-60456Y270850D01*
X-57019Y270850D01*
X-54588Y268419D01*
X-54588Y264981D01*
X-57019Y262550D01*
X-60456Y262550D01*
G37*
%LPD*%
%LPC*%
G36*
X53844Y259375D02*
X53844Y259375D01*
X51413Y261806D01*
X51413Y265244D01*
X53844Y267675D01*
X57281Y267675D01*
X59712Y265244D01*
X59712Y261806D01*
X57281Y259375D01*
X53844Y259375D01*
G37*
%LPD*%
%LPC*%
G36*
X-76331Y251438D02*
X-76331Y251438D01*
X-78762Y253869D01*
X-78762Y257306D01*
X-76331Y259737D01*
X-72894Y259737D01*
X-70463Y257306D01*
X-70463Y253869D01*
X-72894Y251438D01*
X-76331Y251438D01*
G37*
%LPD*%
%LPC*%
G36*
X68131Y248263D02*
X68131Y248263D01*
X65700Y250694D01*
X65700Y254131D01*
X68131Y256562D01*
X71569Y256562D01*
X74000Y254131D01*
X74000Y250694D01*
X71569Y248263D01*
X68131Y248263D01*
G37*
%LPD*%
%LPC*%
G36*
X50669Y13313D02*
X50669Y13313D01*
X48238Y15744D01*
X48238Y19181D01*
X50669Y21612D01*
X54106Y21612D01*
X56537Y19181D01*
X56537Y15744D01*
X54106Y13313D01*
X50669Y13313D01*
G37*
%LPD*%
%LPC*%
G36*
X50669Y189525D02*
X50669Y189525D01*
X48238Y191956D01*
X48238Y195394D01*
X50669Y197825D01*
X54106Y197825D01*
X56537Y195394D01*
X56537Y191956D01*
X54106Y189525D01*
X50669Y189525D01*
G37*
%LPD*%
%LPC*%
G36*
X-42994Y178413D02*
X-42994Y178413D01*
X-45425Y180844D01*
X-45425Y184281D01*
X-42994Y186712D01*
X-39556Y186712D01*
X-37125Y184281D01*
X-37125Y180844D01*
X-39556Y178413D01*
X-42994Y178413D01*
G37*
%LPD*%
%LPC*%
G36*
X114169Y164125D02*
X114169Y164125D01*
X111738Y166556D01*
X111738Y169994D01*
X114169Y172425D01*
X117606Y172425D01*
X120037Y169994D01*
X120037Y166556D01*
X117606Y164125D01*
X114169Y164125D01*
G37*
%LPD*%
%LPC*%
G36*
X-123956Y156188D02*
X-123956Y156188D01*
X-126387Y158619D01*
X-126387Y162056D01*
X-123956Y164487D01*
X-120519Y164487D01*
X-118088Y162056D01*
X-118088Y158619D01*
X-120519Y156188D01*
X-123956Y156188D01*
G37*
%LPD*%
%LPC*%
G36*
X-66806Y33950D02*
X-66806Y33950D01*
X-69237Y36381D01*
X-69237Y39819D01*
X-66806Y42250D01*
X-63369Y42250D01*
X-60938Y39819D01*
X-60938Y36381D01*
X-63369Y33950D01*
X-66806Y33950D01*
G37*
%LPD*%
%LPC*%
G36*
X-125544Y137138D02*
X-125544Y137138D01*
X-127975Y139569D01*
X-127975Y143006D01*
X-125544Y145437D01*
X-122106Y145437D01*
X-119675Y143006D01*
X-119675Y139569D01*
X-122106Y137138D01*
X-125544Y137138D01*
G37*
%LPD*%
%LPC*%
G36*
X107819Y114913D02*
X107819Y114913D01*
X105388Y117344D01*
X105388Y120781D01*
X107819Y123212D01*
X111256Y123212D01*
X113687Y120781D01*
X113687Y117344D01*
X111256Y114913D01*
X107819Y114913D01*
G37*
%LPD*%
%LPC*%
G36*
X76069Y78400D02*
X76069Y78400D01*
X73638Y80831D01*
X73638Y84269D01*
X76069Y86700D01*
X79506Y86700D01*
X81937Y84269D01*
X81937Y80831D01*
X79506Y78400D01*
X76069Y78400D01*
G37*
%LPD*%
%LPC*%
G36*
X-76331Y53000D02*
X-76331Y53000D01*
X-78762Y55431D01*
X-78762Y58869D01*
X-76331Y61300D01*
X-72894Y61300D01*
X-70463Y58869D01*
X-70463Y55431D01*
X-72894Y53000D01*
X-76331Y53000D01*
G37*
%LPD*%
%LPC*%
G36*
X36381Y14900D02*
X36381Y14900D01*
X33950Y17331D01*
X33950Y20769D01*
X36381Y23200D01*
X39819Y23200D01*
X42250Y20769D01*
X42250Y17331D01*
X39819Y14900D01*
X36381Y14900D01*
G37*
%LPD*%
%LPC*%
G36*
X3044Y75225D02*
X3044Y75225D01*
X613Y77656D01*
X613Y81094D01*
X3044Y83525D01*
X6481Y83525D01*
X8912Y81094D01*
X8912Y77656D01*
X6481Y75225D01*
X3044Y75225D01*
G37*
%LPD*%
%LPC*%
G36*
X-16097Y26390D02*
X-16097Y26390D01*
X-18316Y28608D01*
X-18316Y31745D01*
X-16097Y33964D01*
X-12960Y33964D01*
X-10739Y31742D01*
X-10742Y31716D01*
X-10742Y28608D01*
X-12960Y26390D01*
X-16097Y26390D01*
G37*
%LPD*%
%LPC*%
G36*
X-45495Y189888D02*
X-45495Y189888D01*
X-47713Y192106D01*
X-47713Y195244D01*
X-45495Y197462D01*
X-42358Y197462D01*
X-40140Y195244D01*
X-40140Y192106D01*
X-42358Y189888D01*
X-45495Y189888D01*
G37*
%LPD*%
%LPC*%
G36*
X110996Y194344D02*
X110996Y194344D01*
X108778Y196562D01*
X108778Y199699D01*
X110996Y201917D01*
X114133Y201917D01*
X116351Y199699D01*
X116351Y196562D01*
X114133Y194344D01*
X110996Y194344D01*
G37*
%LPD*%
%LPC*%
G36*
X-99113Y76151D02*
X-99113Y76151D01*
X-101331Y78369D01*
X-101331Y81506D01*
X-99113Y83724D01*
X-95976Y83724D01*
X-93757Y81506D01*
X-93757Y78369D01*
X-95976Y76151D01*
X-99113Y76151D01*
G37*
%LPD*%
%LPC*%
G36*
X46595Y61378D02*
X46595Y61378D01*
X44377Y63596D01*
X44377Y66733D01*
X46595Y68951D01*
X49732Y68951D01*
X51951Y66733D01*
X51951Y63596D01*
X49732Y61378D01*
X46595Y61378D01*
G37*
%LPD*%
%LPC*%
G36*
X99063Y57745D02*
X99063Y57745D01*
X96845Y59963D01*
X96845Y63101D01*
X99063Y65319D01*
X102200Y65319D01*
X104418Y63101D01*
X104418Y59963D01*
X102200Y57745D01*
X99063Y57745D01*
G37*
%LPD*%
%LPC*%
G36*
X41294Y188301D02*
X41294Y188301D01*
X39076Y190519D01*
X39076Y193656D01*
X41294Y195874D01*
X44431Y195874D01*
X46649Y193656D01*
X46649Y190519D01*
X44431Y188301D01*
X41294Y188301D01*
G37*
%LPD*%
%LPC*%
G36*
X-98297Y222653D02*
X-98297Y222653D01*
X-100515Y224871D01*
X-100515Y228008D01*
X-98297Y230226D01*
X-95160Y230226D01*
X-92942Y228008D01*
X-92942Y224871D01*
X-95160Y222653D01*
X-98297Y222653D01*
G37*
%LPD*%
%LPC*%
G36*
X58860Y228238D02*
X58860Y228238D01*
X56788Y230310D01*
X56788Y233240D01*
X58860Y235312D01*
X61790Y235312D01*
X63862Y233240D01*
X63862Y230310D01*
X61790Y228238D01*
X58860Y228238D01*
G37*
%LPD*%
%LPC*%
G36*
X76323Y207601D02*
X76323Y207601D01*
X74251Y209673D01*
X74251Y212602D01*
X76323Y214674D01*
X79252Y214674D01*
X81324Y212602D01*
X81324Y209673D01*
X79252Y207601D01*
X76323Y207601D01*
G37*
%LPD*%
%LPC*%
G36*
X-24699Y211354D02*
X-24699Y211354D01*
X-26771Y213426D01*
X-26771Y216356D01*
X-24699Y218428D01*
X-21769Y218428D01*
X-19697Y216356D01*
X-19697Y213426D01*
X-21769Y211354D01*
X-24699Y211354D01*
G37*
%LPD*%
%LPC*%
G36*
X-12577Y37738D02*
X-12577Y37738D01*
X-14649Y39810D01*
X-14649Y42740D01*
X-12577Y44812D01*
X-9648Y44812D01*
X-7576Y42740D01*
X-7576Y39810D01*
X-9648Y37738D01*
X-12577Y37738D01*
G37*
%LPD*%
%LPC*%
G36*
X-30040Y188551D02*
X-30040Y188551D01*
X-32112Y190623D01*
X-32112Y193552D01*
X-30040Y195624D01*
X-27110Y195624D01*
X-25038Y193552D01*
X-25038Y190623D01*
X-27110Y188551D01*
X-30040Y188551D01*
G37*
%LPD*%
%LPC*%
G36*
X-29769Y28213D02*
X-29769Y28213D01*
X-31841Y30285D01*
X-31841Y33215D01*
X-29769Y35287D01*
X-26839Y35287D01*
X-24767Y33215D01*
X-24767Y30285D01*
X-26839Y28213D01*
X-29769Y28213D01*
G37*
%LPD*%
%LPC*%
G36*
X16172Y156626D02*
X16172Y156626D01*
X14100Y158698D01*
X14100Y161628D01*
X16172Y163700D01*
X19102Y163700D01*
X21174Y161628D01*
X21174Y158698D01*
X19102Y156626D01*
X16172Y156626D01*
G37*
%LPD*%
%LPC*%
G36*
X-1465Y129813D02*
X-1465Y129813D01*
X-3537Y131885D01*
X-3537Y134815D01*
X-1465Y136887D01*
X1465Y136887D01*
X3537Y134815D01*
X3537Y131885D01*
X1465Y129813D01*
X-1465Y129813D01*
G37*
%LPD*%
D10*
X106363Y146050D03*
X-92075Y169863D03*
X-92075Y144463D03*
X-92075Y119063D03*
D11*
X39688Y293688D03*
X53975Y293688D03*
X93663Y271463D03*
X101600Y255588D03*
X141288Y187325D03*
X149225Y173038D03*
X149225Y130175D03*
X139700Y112713D03*
X101600Y42863D03*
X92075Y28575D03*
X53975Y7938D03*
X38100Y7938D03*
X-41275Y11113D03*
X-57150Y11113D03*
X-95250Y30163D03*
X-103188Y46038D03*
X-152400Y131763D03*
X-144463Y114300D03*
X-150813Y174625D03*
X-141288Y188913D03*
X-103188Y255588D03*
X-92075Y271463D03*
X-55563Y293688D03*
X-38100Y293688D03*
X84138Y149225D03*
X80963Y141288D03*
X-12700Y227013D03*
X-19050Y234950D03*
X46038Y182563D03*
X46038Y166688D03*
X60325Y244475D03*
D12*
X-60325Y234950D03*
X-3175Y158750D03*
X-3175Y150813D03*
X3175Y142875D03*
X3175Y158750D03*
X3175Y150813D03*
X-3175Y142875D03*
D11*
X55563Y263525D03*
X69850Y252413D03*
X-74613Y255588D03*
X-58738Y266700D03*
X-122238Y160338D03*
X-123825Y141288D03*
X-74613Y57150D03*
X-65088Y38100D03*
X115888Y168275D03*
X109538Y119063D03*
X77788Y82550D03*
X38100Y19050D03*
X52388Y17463D03*
X-17463Y79375D03*
X4763Y79375D03*
X-41275Y182563D03*
X52388Y193675D03*
D12*
X17463Y144463D03*
D13*
X-96728Y226439D03*
X-14529Y30177D03*
X-97544Y79938D03*
X100631Y61532D03*
X27890Y131776D03*
X15821Y271647D03*
X23072Y275918D03*
X33327Y125426D03*
X112565Y198130D03*
D12*
X-30163Y129724D03*
X-28575Y192088D03*
X0Y133350D03*
X-23266Y133897D03*
X-23234Y214891D03*
X17691Y130175D03*
X17637Y160163D03*
X14288Y136525D03*
X-15875Y158750D03*
X-15875Y151649D03*
D13*
X-41493Y126115D03*
D14*
X-41493Y149008D01*
X-26988Y163513D01*
D13*
X-26988Y163513D03*
D14*
X-26988Y168275D02*
X-11113Y184150D01*
X-26988Y168275D02*
X-26988Y163513D01*
X-9525Y184150D02*
X-4763Y188913D01*
X-9525Y184150D02*
X-11113Y184150D01*
D11*
X-11113Y184150D03*
X17463Y244475D03*
D14*
X-4763Y244475D01*
D11*
X-30163Y244475D03*
D14*
X-4763Y244475D01*
X-4763Y188913D01*
D13*
X8345Y41683D03*
D15*
X39937Y73274D01*
X39937Y130162D02*
X36762Y133337D01*
X39937Y130162D02*
X39937Y73274D01*
D13*
X36762Y133337D03*
X19050Y228600D03*
D15*
X-9525Y161925D02*
X-9525Y60732D01*
X1338Y49870D02*
X1338Y37170D01*
X2925Y35582D01*
X1338Y49870D02*
X-9525Y60732D01*
X19050Y190500D02*
X19050Y228600D01*
X19050Y190500D02*
X-9525Y161925D01*
D13*
X2925Y35582D03*
X42863Y192088D03*
X-71819Y215519D03*
D12*
X-53975Y66054D03*
D13*
X-71149Y207995D03*
D12*
X-42863Y55563D03*
X30141Y34947D03*
X77788Y211138D03*
X71536Y223164D03*
X23405Y32158D03*
X-71438Y230862D03*
X-34925Y55563D03*
X-69850Y223838D03*
X-49213Y60599D03*
X-11113Y41275D03*
X60325Y231775D03*
X66675Y217488D03*
X-28304Y31750D03*
D13*
X-43927Y193675D03*
X48164Y65164D03*
D12*
X-5733Y33546D03*
M02*
