G04 EAGLE Gerber RS-274X export*
G75*
%MOMM*%
%FSLAX34Y34*%
%LPD*%
%INCopper Layer 2*%
%IPPOS*%
%AMOC8*
5,1,8,0,0,1.08239X$1,22.5*%
G01*
%ADD10C,1.524000*%
%ADD11C,0.525000*%
%ADD12C,0.402400*%
%ADD13C,0.452400*%
%ADD14C,0.304800*%
%ADD15C,0.254000*%
%ADD16C,0.152400*%

G36*
X87380Y-750D02*
X87380Y-750D01*
X87448Y-749D01*
X87501Y-730D01*
X87555Y-722D01*
X87616Y-690D01*
X87680Y-667D01*
X87724Y-632D01*
X87773Y-606D01*
X87820Y-557D01*
X87874Y-515D01*
X87919Y-452D01*
X87942Y-428D01*
X87951Y-409D01*
X87973Y-379D01*
X173698Y148846D01*
X173721Y148909D01*
X173754Y148968D01*
X173764Y149023D01*
X173784Y149076D01*
X173786Y149143D01*
X173799Y149209D01*
X173791Y149265D01*
X173793Y149322D01*
X173773Y149386D01*
X173764Y149453D01*
X173732Y149526D01*
X173722Y149558D01*
X173710Y149574D01*
X173696Y149606D01*
X86384Y300419D01*
X86341Y300471D01*
X86307Y300528D01*
X86264Y300565D01*
X86228Y300609D01*
X86171Y300645D01*
X86120Y300688D01*
X86067Y300710D01*
X86019Y300740D01*
X85954Y300755D01*
X85892Y300780D01*
X85812Y300789D01*
X85780Y300797D01*
X85760Y300795D01*
X85725Y300799D01*
X-87313Y300799D01*
X-87391Y300786D01*
X-87471Y300782D01*
X-87512Y300766D01*
X-87555Y300759D01*
X-87626Y300722D01*
X-87700Y300693D01*
X-87734Y300664D01*
X-87773Y300644D01*
X-87828Y300586D01*
X-87889Y300535D01*
X-87922Y300487D01*
X-87942Y300466D01*
X-87954Y300440D01*
X-87984Y300396D01*
X-118605Y243109D01*
X-173690Y151204D01*
X-173702Y151176D01*
X-173719Y151151D01*
X-173732Y151109D01*
X-173754Y151070D01*
X-173756Y151060D01*
X-173760Y151051D01*
X-173767Y151012D01*
X-173781Y150975D01*
X-173783Y150945D01*
X-173792Y150916D01*
X-173791Y150872D01*
X-173799Y150828D01*
X-173797Y150818D01*
X-173799Y150808D01*
X-173792Y150769D01*
X-173794Y150730D01*
X-173786Y150701D01*
X-173785Y150670D01*
X-173770Y150628D01*
X-173764Y150585D01*
X-173759Y150573D01*
X-173758Y150566D01*
X-173746Y150544D01*
X-173736Y150522D01*
X-173728Y150493D01*
X-173715Y150473D01*
X-173706Y150453D01*
X-173701Y150439D01*
X-173699Y150436D01*
X-173696Y150431D01*
X-86384Y-381D01*
X-86341Y-433D01*
X-86307Y-491D01*
X-86264Y-528D01*
X-86228Y-572D01*
X-86171Y-607D01*
X-86120Y-651D01*
X-86067Y-672D01*
X-86019Y-702D01*
X-85954Y-718D01*
X-85892Y-743D01*
X-85812Y-752D01*
X-85780Y-759D01*
X-85760Y-757D01*
X-85725Y-761D01*
X87313Y-761D01*
X87380Y-750D01*
G37*
%LPC*%
G36*
X-22901Y21526D02*
X-22901Y21526D01*
X-29366Y27990D01*
X-29440Y28043D01*
X-29509Y28103D01*
X-29539Y28115D01*
X-29565Y28134D01*
X-29652Y28161D01*
X-29737Y28195D01*
X-29752Y28196D01*
X-31841Y30285D01*
X-31841Y33215D01*
X-29769Y35287D01*
X-26839Y35287D01*
X-24767Y33215D01*
X-24767Y30175D01*
X-24753Y30085D01*
X-24745Y29994D01*
X-24733Y29964D01*
X-24728Y29932D01*
X-24685Y29852D01*
X-24649Y29768D01*
X-24623Y29736D01*
X-24612Y29715D01*
X-24589Y29693D01*
X-24544Y29637D01*
X-21230Y26322D01*
X-21156Y26269D01*
X-21086Y26210D01*
X-21056Y26197D01*
X-21030Y26179D01*
X-20943Y26152D01*
X-20858Y26118D01*
X-20817Y26113D01*
X-20795Y26106D01*
X-20763Y26107D01*
X-20691Y26099D01*
X-17644Y26099D01*
X-17574Y26111D01*
X-17502Y26113D01*
X-17453Y26131D01*
X-17402Y26139D01*
X-17338Y26173D01*
X-17271Y26197D01*
X-17230Y26230D01*
X-17184Y26254D01*
X-17135Y26306D01*
X-17079Y26351D01*
X-17051Y26395D01*
X-17015Y26432D01*
X-16985Y26497D01*
X-16946Y26558D01*
X-16933Y26608D01*
X-16911Y26655D01*
X-16903Y26727D01*
X-16886Y26796D01*
X-16890Y26848D01*
X-16884Y26900D01*
X-16899Y26970D01*
X-16905Y27041D01*
X-16925Y27089D01*
X-16936Y27140D01*
X-16973Y27202D01*
X-17001Y27268D01*
X-17046Y27324D01*
X-17063Y27351D01*
X-17080Y27367D01*
X-17106Y27399D01*
X-18316Y28608D01*
X-18316Y31745D01*
X-16097Y33964D01*
X-12960Y33964D01*
X-10569Y31572D01*
X-10511Y31531D01*
X-10459Y31481D01*
X-10412Y31459D01*
X-10370Y31429D01*
X-10301Y31408D01*
X-10236Y31378D01*
X-10184Y31372D01*
X-10134Y31357D01*
X-10063Y31358D01*
X-9992Y31351D01*
X-9941Y31362D01*
X-9889Y31363D01*
X-9821Y31388D01*
X-9751Y31403D01*
X-9707Y31429D01*
X-9658Y31447D01*
X-9602Y31492D01*
X-9540Y31529D01*
X-9506Y31569D01*
X-9466Y31601D01*
X-9427Y31661D01*
X-9380Y31716D01*
X-9361Y31764D01*
X-9333Y31808D01*
X-9315Y31877D01*
X-9288Y31944D01*
X-9280Y32015D01*
X-9272Y32047D01*
X-9274Y32070D01*
X-9270Y32111D01*
X-9270Y35011D01*
X-7198Y37083D01*
X-4268Y37083D01*
X-2161Y34976D01*
X-2103Y34934D01*
X-2051Y34885D01*
X-2004Y34863D01*
X-1962Y34832D01*
X-1893Y34811D01*
X-1828Y34781D01*
X-1776Y34775D01*
X-1726Y34760D01*
X-1655Y34762D01*
X-1584Y34754D01*
X-1533Y34765D01*
X-1481Y34766D01*
X-1413Y34791D01*
X-1343Y34806D01*
X-1298Y34833D01*
X-1250Y34851D01*
X-1194Y34896D01*
X-1132Y34932D01*
X-1098Y34972D01*
X-1058Y35005D01*
X-1019Y35065D01*
X-972Y35119D01*
X-953Y35168D01*
X-925Y35211D01*
X-907Y35281D01*
X-880Y35348D01*
X-872Y35419D01*
X-864Y35450D01*
X-866Y35473D01*
X-862Y35514D01*
X-862Y37151D01*
X1356Y39369D01*
X3797Y39369D01*
X3817Y39372D01*
X3837Y39370D01*
X3938Y39392D01*
X4040Y39409D01*
X4058Y39418D01*
X4077Y39422D01*
X4166Y39475D01*
X4257Y39524D01*
X4271Y39538D01*
X4288Y39548D01*
X4356Y39627D01*
X4427Y39702D01*
X4435Y39720D01*
X4448Y39735D01*
X4487Y39831D01*
X4530Y39925D01*
X4533Y39945D01*
X4540Y39963D01*
X4559Y40130D01*
X4559Y43251D01*
X6777Y45469D01*
X9914Y45469D01*
X12132Y43251D01*
X12132Y41016D01*
X12144Y40945D01*
X12145Y40874D01*
X12163Y40825D01*
X12172Y40773D01*
X12205Y40710D01*
X12230Y40643D01*
X12262Y40602D01*
X12287Y40556D01*
X12339Y40507D01*
X12384Y40451D01*
X12427Y40423D01*
X12465Y40387D01*
X12530Y40357D01*
X12590Y40318D01*
X12641Y40305D01*
X12688Y40283D01*
X12759Y40275D01*
X12829Y40258D01*
X12881Y40262D01*
X12933Y40256D01*
X13003Y40271D01*
X13074Y40277D01*
X13122Y40297D01*
X13173Y40308D01*
X13235Y40345D01*
X13301Y40373D01*
X13357Y40418D01*
X13384Y40434D01*
X13399Y40452D01*
X13432Y40478D01*
X16540Y43587D01*
X16593Y43661D01*
X16653Y43730D01*
X16665Y43760D01*
X16684Y43786D01*
X16711Y43874D01*
X16745Y43958D01*
X16749Y43999D01*
X16756Y44022D01*
X16755Y44054D01*
X16763Y44125D01*
X16763Y56142D01*
X16752Y56212D01*
X16750Y56284D01*
X16732Y56333D01*
X16724Y56384D01*
X16690Y56448D01*
X16665Y56515D01*
X16633Y56556D01*
X16608Y56602D01*
X16556Y56651D01*
X16512Y56707D01*
X16468Y56735D01*
X16430Y56771D01*
X16365Y56801D01*
X16305Y56840D01*
X16254Y56853D01*
X16207Y56875D01*
X16136Y56883D01*
X16066Y56900D01*
X16014Y56896D01*
X15963Y56902D01*
X15892Y56887D01*
X15821Y56881D01*
X15773Y56861D01*
X15722Y56850D01*
X15661Y56813D01*
X15595Y56785D01*
X15539Y56740D01*
X15511Y56723D01*
X15496Y56706D01*
X15464Y56680D01*
X7272Y48488D01*
X5710Y46926D01*
X-1912Y46926D01*
X-2003Y46911D01*
X-2093Y46904D01*
X-2123Y46891D01*
X-2155Y46886D01*
X-2236Y46843D01*
X-2320Y46808D01*
X-2352Y46782D01*
X-2373Y46771D01*
X-2395Y46748D01*
X-2451Y46703D01*
X-7353Y41801D01*
X-7406Y41727D01*
X-7465Y41657D01*
X-7478Y41627D01*
X-7496Y41601D01*
X-7523Y41514D01*
X-7557Y41429D01*
X-7562Y41388D01*
X-7569Y41366D01*
X-7568Y41334D01*
X-7576Y41262D01*
X-7576Y39810D01*
X-9648Y37738D01*
X-12577Y37738D01*
X-14649Y39810D01*
X-14649Y42740D01*
X-12577Y44812D01*
X-11125Y44812D01*
X-11035Y44826D01*
X-10944Y44834D01*
X-10914Y44846D01*
X-10882Y44851D01*
X-10802Y44894D01*
X-10718Y44930D01*
X-10686Y44956D01*
X-10665Y44967D01*
X-10643Y44990D01*
X-10587Y45035D01*
X-4122Y51499D01*
X3500Y51499D01*
X3590Y51514D01*
X3681Y51521D01*
X3711Y51534D01*
X3743Y51539D01*
X3823Y51582D01*
X3907Y51617D01*
X3939Y51643D01*
X3960Y51654D01*
X3982Y51677D01*
X4038Y51722D01*
X57815Y105499D01*
X57868Y105573D01*
X57928Y105643D01*
X57940Y105673D01*
X57959Y105699D01*
X57986Y105786D01*
X58020Y105871D01*
X58024Y105912D01*
X58031Y105934D01*
X58030Y105966D01*
X58038Y106038D01*
X58038Y228745D01*
X58024Y228835D01*
X58016Y228926D01*
X58004Y228955D01*
X57999Y228987D01*
X57956Y229068D01*
X57920Y229152D01*
X57894Y229184D01*
X57883Y229205D01*
X57860Y229227D01*
X57815Y229283D01*
X56788Y230310D01*
X56788Y233240D01*
X58860Y235312D01*
X61790Y235312D01*
X63862Y233240D01*
X63862Y230310D01*
X62835Y229283D01*
X62782Y229209D01*
X62722Y229140D01*
X62710Y229109D01*
X62691Y229083D01*
X62664Y228996D01*
X62630Y228911D01*
X62626Y228870D01*
X62619Y228848D01*
X62620Y228816D01*
X62612Y228745D01*
X62612Y220264D01*
X62623Y220193D01*
X62625Y220121D01*
X62643Y220072D01*
X62651Y220021D01*
X62685Y219958D01*
X62710Y219890D01*
X62742Y219850D01*
X62767Y219804D01*
X62819Y219754D01*
X62863Y219698D01*
X62907Y219670D01*
X62945Y219634D01*
X63010Y219604D01*
X63070Y219565D01*
X63121Y219553D01*
X63168Y219531D01*
X63239Y219523D01*
X63309Y219505D01*
X63361Y219509D01*
X63412Y219504D01*
X63483Y219519D01*
X63554Y219524D01*
X63602Y219545D01*
X63653Y219556D01*
X63714Y219593D01*
X63780Y219621D01*
X63836Y219665D01*
X63864Y219682D01*
X63879Y219700D01*
X63911Y219725D01*
X65210Y221024D01*
X67238Y221024D01*
X67257Y221027D01*
X67277Y221025D01*
X67378Y221047D01*
X67480Y221064D01*
X67498Y221073D01*
X67517Y221078D01*
X67606Y221131D01*
X67698Y221179D01*
X67711Y221193D01*
X67728Y221204D01*
X67796Y221282D01*
X67867Y221357D01*
X67875Y221375D01*
X67888Y221391D01*
X67927Y221487D01*
X67971Y221580D01*
X67973Y221600D01*
X67980Y221619D01*
X67999Y221785D01*
X67999Y224628D01*
X70071Y226700D01*
X73000Y226700D01*
X75072Y224628D01*
X75072Y221699D01*
X74045Y220671D01*
X73992Y220598D01*
X73933Y220528D01*
X73920Y220498D01*
X73902Y220472D01*
X73875Y220385D01*
X73841Y220300D01*
X73836Y220259D01*
X73829Y220237D01*
X73830Y220204D01*
X73822Y220133D01*
X73822Y214012D01*
X73834Y213941D01*
X73836Y213869D01*
X73854Y213820D01*
X73862Y213769D01*
X73896Y213706D01*
X73920Y213638D01*
X73953Y213598D01*
X73977Y213552D01*
X74029Y213502D01*
X74074Y213446D01*
X74118Y213418D01*
X74155Y213382D01*
X74220Y213352D01*
X74281Y213313D01*
X74331Y213301D01*
X74378Y213279D01*
X74450Y213271D01*
X74519Y213253D01*
X74571Y213257D01*
X74623Y213252D01*
X74693Y213267D01*
X74764Y213272D01*
X74812Y213293D01*
X74863Y213304D01*
X74925Y213341D01*
X74991Y213369D01*
X75047Y213413D01*
X75074Y213430D01*
X75090Y213448D01*
X75122Y213473D01*
X76323Y214674D01*
X79252Y214674D01*
X81324Y212602D01*
X81324Y209673D01*
X79252Y207601D01*
X77800Y207601D01*
X77710Y207586D01*
X77619Y207579D01*
X77589Y207566D01*
X77557Y207561D01*
X77477Y207518D01*
X77393Y207483D01*
X77361Y207457D01*
X77340Y207446D01*
X77318Y207423D01*
X77262Y207378D01*
X77122Y207238D01*
X77069Y207164D01*
X77010Y207095D01*
X76997Y207065D01*
X76979Y207039D01*
X76952Y206952D01*
X76918Y206867D01*
X76913Y206826D01*
X76906Y206803D01*
X76907Y206771D01*
X76899Y206700D01*
X76899Y144931D01*
X76911Y144860D01*
X76913Y144788D01*
X76931Y144739D01*
X76939Y144688D01*
X76973Y144625D01*
X76997Y144557D01*
X77030Y144517D01*
X77054Y144471D01*
X77106Y144421D01*
X77151Y144365D01*
X77195Y144337D01*
X77232Y144301D01*
X77297Y144271D01*
X77358Y144232D01*
X77408Y144219D01*
X77455Y144198D01*
X77527Y144190D01*
X77596Y144172D01*
X77648Y144176D01*
X77700Y144170D01*
X77770Y144186D01*
X77841Y144191D01*
X77889Y144212D01*
X77940Y144223D01*
X78002Y144259D01*
X78068Y144288D01*
X78124Y144332D01*
X78151Y144349D01*
X78167Y144367D01*
X78199Y144392D01*
X79244Y145437D01*
X80219Y145437D01*
X80290Y145449D01*
X80361Y145451D01*
X80410Y145469D01*
X80462Y145477D01*
X80525Y145511D01*
X80592Y145535D01*
X80633Y145568D01*
X80679Y145592D01*
X80728Y145644D01*
X80784Y145689D01*
X80812Y145733D01*
X80848Y145770D01*
X80879Y145835D01*
X80917Y145896D01*
X80930Y145946D01*
X80952Y145993D01*
X80960Y146065D01*
X80977Y146134D01*
X80973Y146186D01*
X80979Y146238D01*
X80964Y146308D01*
X80958Y146379D01*
X80938Y146427D01*
X80927Y146478D01*
X80890Y146540D01*
X80862Y146606D01*
X80817Y146662D01*
X80801Y146689D01*
X80783Y146705D01*
X80757Y146737D01*
X79988Y147506D01*
X79988Y150944D01*
X82419Y153375D01*
X85856Y153375D01*
X88287Y150944D01*
X88287Y147506D01*
X85856Y145075D01*
X84881Y145075D01*
X84810Y145064D01*
X84739Y145062D01*
X84690Y145044D01*
X84638Y145036D01*
X84575Y145002D01*
X84508Y144977D01*
X84467Y144945D01*
X84421Y144920D01*
X84372Y144868D01*
X84316Y144824D01*
X84288Y144780D01*
X84252Y144742D01*
X84221Y144677D01*
X84183Y144617D01*
X84170Y144566D01*
X84148Y144519D01*
X84140Y144448D01*
X84123Y144378D01*
X84127Y144326D01*
X84121Y144275D01*
X84136Y144204D01*
X84142Y144133D01*
X84162Y144085D01*
X84173Y144034D01*
X84210Y143973D01*
X84238Y143907D01*
X84283Y143851D01*
X84299Y143823D01*
X84317Y143808D01*
X84343Y143776D01*
X85112Y143006D01*
X85112Y139569D01*
X82681Y137138D01*
X79244Y137138D01*
X78199Y138183D01*
X78141Y138224D01*
X78089Y138274D01*
X78041Y138296D01*
X77999Y138326D01*
X77931Y138347D01*
X77865Y138377D01*
X77814Y138383D01*
X77764Y138399D01*
X77692Y138397D01*
X77621Y138405D01*
X77570Y138394D01*
X77518Y138392D01*
X77451Y138368D01*
X77381Y138352D01*
X77336Y138326D01*
X77287Y138308D01*
X77231Y138263D01*
X77170Y138226D01*
X77136Y138187D01*
X77095Y138154D01*
X77056Y138094D01*
X77010Y138039D01*
X76990Y137991D01*
X76962Y137947D01*
X76945Y137878D01*
X76918Y137811D01*
X76910Y137740D01*
X76902Y137709D01*
X76904Y137685D01*
X76899Y137644D01*
X76899Y99929D01*
X76911Y99858D01*
X76913Y99786D01*
X76931Y99737D01*
X76939Y99686D01*
X76973Y99623D01*
X76997Y99555D01*
X77030Y99515D01*
X77054Y99469D01*
X77106Y99419D01*
X77151Y99363D01*
X77195Y99335D01*
X77232Y99299D01*
X77297Y99269D01*
X77358Y99230D01*
X77408Y99218D01*
X77455Y99196D01*
X77527Y99188D01*
X77596Y99170D01*
X77648Y99174D01*
X77700Y99169D01*
X77770Y99184D01*
X77841Y99189D01*
X77889Y99210D01*
X77940Y99221D01*
X78002Y99258D01*
X78068Y99286D01*
X78124Y99331D01*
X78151Y99347D01*
X78167Y99365D01*
X78199Y99391D01*
X91026Y112218D01*
X91079Y112292D01*
X91138Y112361D01*
X91151Y112391D01*
X91169Y112417D01*
X91196Y112504D01*
X91230Y112589D01*
X91235Y112630D01*
X91242Y112652D01*
X91241Y112685D01*
X91249Y112756D01*
X91249Y134889D01*
X97846Y141486D01*
X97914Y141580D01*
X97984Y141675D01*
X97986Y141681D01*
X97990Y141686D01*
X98024Y141797D01*
X98060Y141909D01*
X98060Y141915D01*
X98062Y141921D01*
X98059Y142038D01*
X98058Y142155D01*
X98056Y142162D01*
X98056Y142167D01*
X98049Y142184D01*
X98011Y142316D01*
X97218Y144231D01*
X97218Y147869D01*
X98610Y151230D01*
X101182Y153803D01*
X104544Y155195D01*
X108181Y155195D01*
X111543Y153803D01*
X114115Y151230D01*
X115507Y147869D01*
X115507Y144231D01*
X114115Y140870D01*
X111543Y138297D01*
X108181Y136905D01*
X104544Y136905D01*
X102628Y137699D01*
X102515Y137725D01*
X102401Y137754D01*
X102395Y137753D01*
X102389Y137755D01*
X102272Y137744D01*
X102156Y137735D01*
X102150Y137732D01*
X102144Y137732D01*
X102036Y137684D01*
X101929Y137638D01*
X101924Y137634D01*
X101919Y137632D01*
X101905Y137619D01*
X101799Y137534D01*
X97061Y132796D01*
X97008Y132722D01*
X96949Y132653D01*
X96936Y132623D01*
X96918Y132597D01*
X96891Y132510D01*
X96857Y132425D01*
X96852Y132384D01*
X96845Y132362D01*
X96846Y132329D01*
X96838Y132258D01*
X96838Y110125D01*
X52174Y65461D01*
X52120Y65387D01*
X52061Y65317D01*
X52049Y65287D01*
X52030Y65261D01*
X52003Y65174D01*
X51969Y65089D01*
X51964Y65048D01*
X51958Y65026D01*
X51958Y64994D01*
X51951Y64922D01*
X51951Y63596D01*
X49732Y61378D01*
X46595Y61378D01*
X44377Y63596D01*
X44377Y64749D01*
X44366Y64820D01*
X44364Y64891D01*
X44346Y64940D01*
X44337Y64992D01*
X44304Y65055D01*
X44279Y65122D01*
X44247Y65163D01*
X44222Y65209D01*
X44170Y65258D01*
X44125Y65314D01*
X44082Y65343D01*
X44044Y65378D01*
X43979Y65409D01*
X43919Y65447D01*
X43868Y65460D01*
X43821Y65482D01*
X43750Y65490D01*
X43680Y65507D01*
X43628Y65503D01*
X43576Y65509D01*
X43506Y65494D01*
X43435Y65488D01*
X43387Y65468D01*
X43336Y65457D01*
X43274Y65420D01*
X43209Y65392D01*
X43153Y65347D01*
X43125Y65331D01*
X43110Y65313D01*
X43078Y65287D01*
X32650Y54860D01*
X32597Y54786D01*
X32538Y54717D01*
X32526Y54686D01*
X32507Y54660D01*
X32480Y54573D01*
X32446Y54488D01*
X32441Y54448D01*
X32435Y54425D01*
X32435Y54393D01*
X32427Y54322D01*
X32427Y37977D01*
X32442Y37887D01*
X32449Y37796D01*
X32462Y37766D01*
X32467Y37734D01*
X32510Y37654D01*
X32546Y37570D01*
X32571Y37538D01*
X32582Y37517D01*
X32606Y37495D01*
X32650Y37439D01*
X33677Y36412D01*
X33677Y33482D01*
X31606Y31410D01*
X28676Y31410D01*
X28241Y31845D01*
X28183Y31887D01*
X28131Y31936D01*
X28084Y31958D01*
X28041Y31988D01*
X27973Y32009D01*
X27908Y32040D01*
X27856Y32045D01*
X27806Y32061D01*
X27734Y32059D01*
X27663Y32067D01*
X27612Y32056D01*
X27560Y32054D01*
X27493Y32030D01*
X27423Y32014D01*
X27378Y31988D01*
X27329Y31970D01*
X27273Y31925D01*
X27212Y31888D01*
X27178Y31849D01*
X27137Y31816D01*
X27099Y31756D01*
X27052Y31701D01*
X27032Y31653D01*
X27004Y31609D01*
X26987Y31540D01*
X26960Y31473D01*
X26952Y31402D01*
X26944Y31371D01*
X26946Y31347D01*
X26941Y31307D01*
X26941Y30693D01*
X24870Y28621D01*
X21940Y28621D01*
X19868Y30693D01*
X19868Y33623D01*
X20895Y34650D01*
X20948Y34724D01*
X21008Y34793D01*
X21020Y34823D01*
X21039Y34850D01*
X21065Y34936D01*
X21100Y35021D01*
X21104Y35062D01*
X21111Y35085D01*
X21110Y35117D01*
X21118Y35188D01*
X21118Y39859D01*
X21106Y39930D01*
X21105Y40001D01*
X21087Y40050D01*
X21078Y40102D01*
X21045Y40165D01*
X21020Y40232D01*
X20988Y40273D01*
X20963Y40319D01*
X20911Y40368D01*
X20866Y40424D01*
X20823Y40452D01*
X20785Y40488D01*
X20720Y40518D01*
X20660Y40557D01*
X20609Y40570D01*
X20562Y40592D01*
X20491Y40600D01*
X20421Y40617D01*
X20369Y40613D01*
X20317Y40619D01*
X20247Y40604D01*
X20176Y40598D01*
X20128Y40578D01*
X20077Y40567D01*
X20015Y40530D01*
X19949Y40502D01*
X19894Y40457D01*
X19866Y40441D01*
X19851Y40423D01*
X19818Y40397D01*
X947Y21526D01*
X-22901Y21526D01*
G37*
%LPD*%
%LPC*%
G36*
X-44327Y52026D02*
X-44327Y52026D01*
X-45355Y53053D01*
X-45428Y53106D01*
X-45498Y53165D01*
X-45528Y53178D01*
X-45554Y53196D01*
X-45641Y53223D01*
X-45726Y53257D01*
X-45767Y53262D01*
X-45789Y53269D01*
X-45822Y53268D01*
X-45893Y53276D01*
X-53313Y53276D01*
X-68940Y68903D01*
X-68940Y203447D01*
X-68943Y203467D01*
X-68941Y203486D01*
X-68963Y203588D01*
X-68980Y203690D01*
X-68989Y203707D01*
X-68994Y203727D01*
X-69047Y203816D01*
X-69095Y203907D01*
X-69109Y203921D01*
X-69120Y203938D01*
X-69198Y204005D01*
X-69273Y204077D01*
X-69291Y204085D01*
X-69307Y204098D01*
X-69403Y204137D01*
X-69496Y204180D01*
X-69516Y204182D01*
X-69535Y204190D01*
X-69701Y204208D01*
X-72718Y204208D01*
X-74936Y206426D01*
X-74936Y209564D01*
X-73615Y210884D01*
X-73604Y210900D01*
X-73588Y210913D01*
X-73532Y211000D01*
X-73472Y211084D01*
X-73466Y211103D01*
X-73455Y211120D01*
X-73430Y211220D01*
X-73399Y211319D01*
X-73400Y211339D01*
X-73395Y211358D01*
X-73403Y211461D01*
X-73406Y211565D01*
X-73413Y211583D01*
X-73414Y211603D01*
X-73455Y211698D01*
X-73490Y211796D01*
X-73503Y211811D01*
X-73510Y211830D01*
X-73615Y211961D01*
X-75605Y213950D01*
X-75605Y217088D01*
X-73387Y219306D01*
X-72158Y219306D01*
X-72087Y219317D01*
X-72015Y219319D01*
X-71966Y219337D01*
X-71915Y219345D01*
X-71852Y219379D01*
X-71784Y219404D01*
X-71744Y219436D01*
X-71698Y219461D01*
X-71648Y219513D01*
X-71592Y219557D01*
X-71564Y219601D01*
X-71528Y219639D01*
X-71498Y219704D01*
X-71459Y219764D01*
X-71447Y219815D01*
X-71425Y219862D01*
X-71417Y219933D01*
X-71399Y220003D01*
X-71403Y220055D01*
X-71398Y220106D01*
X-71413Y220177D01*
X-71418Y220248D01*
X-71439Y220296D01*
X-71450Y220347D01*
X-71487Y220408D01*
X-71515Y220474D01*
X-71559Y220530D01*
X-71576Y220558D01*
X-71594Y220573D01*
X-71619Y220605D01*
X-73387Y222373D01*
X-73387Y225302D01*
X-72664Y226025D01*
X-72622Y226083D01*
X-72573Y226135D01*
X-72551Y226183D01*
X-72520Y226225D01*
X-72499Y226293D01*
X-72469Y226359D01*
X-72463Y226410D01*
X-72448Y226460D01*
X-72450Y226532D01*
X-72442Y226603D01*
X-72453Y226654D01*
X-72454Y226706D01*
X-72479Y226773D01*
X-72494Y226843D01*
X-72521Y226888D01*
X-72539Y226937D01*
X-72584Y226993D01*
X-72620Y227054D01*
X-72660Y227088D01*
X-72693Y227129D01*
X-72732Y227154D01*
X-74974Y229397D01*
X-74974Y232326D01*
X-72902Y234398D01*
X-69973Y234398D01*
X-68945Y233371D01*
X-68872Y233318D01*
X-68802Y233259D01*
X-68772Y233246D01*
X-68746Y233228D01*
X-68659Y233201D01*
X-68574Y233167D01*
X-68533Y233162D01*
X-68511Y233155D01*
X-68478Y233156D01*
X-68407Y233148D01*
X-65431Y233148D01*
X-56277Y223995D01*
X-54715Y222432D01*
X-54715Y85252D01*
X-54712Y85235D01*
X-54714Y85221D01*
X-54700Y85155D01*
X-54693Y85071D01*
X-54680Y85041D01*
X-54675Y85009D01*
X-54663Y84985D01*
X-54661Y84980D01*
X-54648Y84957D01*
X-54632Y84928D01*
X-54597Y84844D01*
X-54571Y84812D01*
X-54560Y84791D01*
X-54537Y84769D01*
X-54492Y84713D01*
X-32638Y62860D01*
X-32638Y58593D01*
X-32637Y58583D01*
X-32637Y58577D01*
X-32631Y58547D01*
X-32624Y58503D01*
X-32616Y58412D01*
X-32604Y58382D01*
X-32599Y58350D01*
X-32556Y58269D01*
X-32520Y58185D01*
X-32494Y58153D01*
X-32483Y58133D01*
X-32460Y58110D01*
X-32415Y58055D01*
X-31388Y57027D01*
X-31388Y54098D01*
X-33460Y52026D01*
X-36390Y52026D01*
X-38355Y53991D01*
X-38372Y54003D01*
X-38384Y54018D01*
X-38471Y54075D01*
X-38555Y54135D01*
X-38574Y54141D01*
X-38591Y54151D01*
X-38692Y54177D01*
X-38790Y54207D01*
X-38810Y54207D01*
X-38830Y54212D01*
X-38933Y54203D01*
X-39036Y54201D01*
X-39055Y54194D01*
X-39075Y54192D01*
X-39170Y54152D01*
X-39267Y54116D01*
X-39283Y54104D01*
X-39301Y54096D01*
X-39432Y53991D01*
X-41398Y52026D01*
X-44327Y52026D01*
G37*
%LPD*%
%LPC*%
G36*
X31758Y121639D02*
X31758Y121639D01*
X29540Y123857D01*
X29540Y127228D01*
X29537Y127248D01*
X29539Y127267D01*
X29517Y127369D01*
X29500Y127471D01*
X29491Y127488D01*
X29487Y127508D01*
X29434Y127597D01*
X29385Y127688D01*
X29371Y127702D01*
X29361Y127719D01*
X29282Y127786D01*
X29207Y127858D01*
X29189Y127866D01*
X29174Y127879D01*
X29077Y127918D01*
X28984Y127961D01*
X28964Y127963D01*
X28945Y127971D01*
X28779Y127989D01*
X26322Y127989D01*
X24104Y130207D01*
X24104Y133345D01*
X24619Y133860D01*
X24672Y133934D01*
X24731Y134003D01*
X24743Y134033D01*
X24762Y134059D01*
X24789Y134146D01*
X24823Y134231D01*
X24828Y134272D01*
X24834Y134294D01*
X24834Y134327D01*
X24842Y134398D01*
X24842Y134626D01*
X29381Y139166D01*
X29434Y139240D01*
X29494Y139309D01*
X29506Y139339D01*
X29525Y139366D01*
X29551Y139453D01*
X29586Y139537D01*
X29590Y139578D01*
X29597Y139601D01*
X29596Y139633D01*
X29604Y139704D01*
X29604Y253237D01*
X29589Y253327D01*
X29582Y253418D01*
X29570Y253448D01*
X29564Y253480D01*
X29522Y253561D01*
X29486Y253645D01*
X29460Y253677D01*
X29449Y253697D01*
X29426Y253720D01*
X29381Y253776D01*
X15519Y267637D01*
X15445Y267690D01*
X15376Y267750D01*
X15346Y267762D01*
X15320Y267781D01*
X15233Y267808D01*
X15148Y267842D01*
X15107Y267846D01*
X15085Y267853D01*
X15052Y267852D01*
X14981Y267860D01*
X14253Y267860D01*
X12035Y270078D01*
X12035Y273215D01*
X14253Y275434D01*
X17390Y275434D01*
X17985Y274838D01*
X18044Y274796D01*
X18096Y274747D01*
X18143Y274725D01*
X18185Y274695D01*
X18254Y274673D01*
X18319Y274643D01*
X18370Y274638D01*
X18420Y274622D01*
X18492Y274624D01*
X18563Y274616D01*
X18614Y274627D01*
X18666Y274629D01*
X18733Y274653D01*
X18803Y274668D01*
X18848Y274695D01*
X18897Y274713D01*
X18953Y274758D01*
X19015Y274795D01*
X19048Y274834D01*
X19089Y274867D01*
X19128Y274927D01*
X19175Y274981D01*
X19194Y275030D01*
X19222Y275074D01*
X19240Y275143D01*
X19266Y275210D01*
X19274Y275281D01*
X19282Y275312D01*
X19280Y275335D01*
X19285Y275376D01*
X19285Y277486D01*
X21503Y279704D01*
X24640Y279704D01*
X26858Y277486D01*
X26858Y276758D01*
X26873Y276668D01*
X26880Y276577D01*
X26893Y276547D01*
X26898Y276515D01*
X26941Y276434D01*
X26977Y276350D01*
X27002Y276318D01*
X27013Y276298D01*
X27037Y276275D01*
X27081Y276219D01*
X40408Y262893D01*
X40408Y196635D01*
X40411Y196616D01*
X40409Y196596D01*
X40431Y196495D01*
X40448Y196393D01*
X40457Y196375D01*
X40461Y196356D01*
X40514Y196267D01*
X40563Y196175D01*
X40577Y196162D01*
X40587Y196145D01*
X40666Y196077D01*
X40741Y196006D01*
X40759Y195998D01*
X40774Y195985D01*
X40870Y195946D01*
X40964Y195902D01*
X40984Y195900D01*
X41002Y195893D01*
X41169Y195874D01*
X44431Y195874D01*
X46649Y193656D01*
X46649Y190519D01*
X44431Y188301D01*
X41169Y188301D01*
X41149Y188298D01*
X41130Y188300D01*
X41028Y188278D01*
X40926Y188261D01*
X40909Y188252D01*
X40889Y188247D01*
X40800Y188194D01*
X40709Y188146D01*
X40695Y188132D01*
X40678Y188121D01*
X40611Y188043D01*
X40540Y187968D01*
X40531Y187950D01*
X40518Y187934D01*
X40480Y187838D01*
X40436Y187745D01*
X40434Y187725D01*
X40426Y187706D01*
X40408Y187540D01*
X40408Y184639D01*
X40419Y184569D01*
X40421Y184497D01*
X40439Y184448D01*
X40448Y184397D01*
X40481Y184333D01*
X40506Y184266D01*
X40538Y184225D01*
X40563Y184179D01*
X40615Y184130D01*
X40659Y184074D01*
X40703Y184046D01*
X40741Y184010D01*
X40806Y183980D01*
X40866Y183941D01*
X40917Y183928D01*
X40964Y183906D01*
X41035Y183898D01*
X41105Y183881D01*
X41157Y183885D01*
X41209Y183879D01*
X41279Y183894D01*
X41350Y183900D01*
X41398Y183920D01*
X41449Y183931D01*
X41511Y183968D01*
X41576Y183996D01*
X41632Y184041D01*
X41660Y184058D01*
X41675Y184075D01*
X41707Y184101D01*
X44319Y186712D01*
X47756Y186712D01*
X50187Y184281D01*
X50187Y180844D01*
X47756Y178413D01*
X44319Y178413D01*
X41707Y181024D01*
X41649Y181066D01*
X41597Y181115D01*
X41550Y181137D01*
X41508Y181168D01*
X41439Y181189D01*
X41374Y181219D01*
X41322Y181225D01*
X41273Y181240D01*
X41201Y181238D01*
X41130Y181246D01*
X41079Y181235D01*
X41027Y181234D01*
X40959Y181209D01*
X40889Y181194D01*
X40845Y181167D01*
X40796Y181149D01*
X40740Y181104D01*
X40678Y181067D01*
X40644Y181028D01*
X40604Y180995D01*
X40565Y180935D01*
X40518Y180881D01*
X40499Y180832D01*
X40471Y180788D01*
X40453Y180719D01*
X40426Y180652D01*
X40418Y180581D01*
X40411Y180550D01*
X40412Y180527D01*
X40408Y180486D01*
X40408Y168764D01*
X40419Y168694D01*
X40421Y168622D01*
X40439Y168573D01*
X40448Y168522D01*
X40481Y168458D01*
X40506Y168391D01*
X40538Y168350D01*
X40563Y168304D01*
X40615Y168255D01*
X40659Y168199D01*
X40703Y168171D01*
X40741Y168135D01*
X40806Y168105D01*
X40866Y168066D01*
X40917Y168053D01*
X40964Y168031D01*
X41035Y168023D01*
X41105Y168006D01*
X41157Y168010D01*
X41209Y168004D01*
X41279Y168019D01*
X41350Y168025D01*
X41398Y168045D01*
X41449Y168056D01*
X41511Y168093D01*
X41576Y168121D01*
X41632Y168166D01*
X41660Y168183D01*
X41675Y168200D01*
X41707Y168226D01*
X44319Y170837D01*
X47756Y170837D01*
X50187Y168406D01*
X50187Y164969D01*
X47756Y162538D01*
X44319Y162538D01*
X41707Y165149D01*
X41649Y165191D01*
X41597Y165240D01*
X41550Y165262D01*
X41508Y165293D01*
X41439Y165314D01*
X41374Y165344D01*
X41322Y165350D01*
X41273Y165365D01*
X41201Y165363D01*
X41130Y165371D01*
X41079Y165360D01*
X41027Y165359D01*
X40959Y165334D01*
X40889Y165319D01*
X40845Y165292D01*
X40796Y165274D01*
X40740Y165229D01*
X40678Y165192D01*
X40644Y165153D01*
X40604Y165120D01*
X40565Y165060D01*
X40518Y165006D01*
X40499Y164957D01*
X40471Y164913D01*
X40453Y164844D01*
X40426Y164777D01*
X40418Y164706D01*
X40411Y164675D01*
X40412Y164652D01*
X40408Y164611D01*
X40408Y147321D01*
X40423Y147231D01*
X40430Y147140D01*
X40442Y147110D01*
X40448Y147078D01*
X40490Y146997D01*
X40526Y146913D01*
X40552Y146881D01*
X40563Y146861D01*
X40586Y146838D01*
X40631Y146782D01*
X45900Y141513D01*
X45900Y128926D01*
X39352Y122377D01*
X35949Y122377D01*
X35859Y122363D01*
X35768Y122355D01*
X35738Y122343D01*
X35706Y122338D01*
X35625Y122295D01*
X35541Y122259D01*
X35509Y122233D01*
X35488Y122222D01*
X35466Y122199D01*
X35410Y122154D01*
X34895Y121639D01*
X31758Y121639D01*
G37*
%LPD*%
%LPC*%
G36*
X-31627Y126187D02*
X-31627Y126187D01*
X-33699Y128259D01*
X-33699Y129711D01*
X-33714Y129802D01*
X-33721Y129892D01*
X-33734Y129922D01*
X-33739Y129954D01*
X-33782Y130035D01*
X-33817Y130119D01*
X-33843Y130151D01*
X-33854Y130172D01*
X-33877Y130194D01*
X-33922Y130250D01*
X-35624Y131952D01*
X-35624Y188272D01*
X-32335Y191562D01*
X-32282Y191636D01*
X-32222Y191705D01*
X-32210Y191735D01*
X-32191Y191761D01*
X-32164Y191848D01*
X-32130Y191933D01*
X-32126Y191974D01*
X-32119Y191997D01*
X-32120Y192029D01*
X-32112Y192100D01*
X-32112Y193552D01*
X-30040Y195624D01*
X-27110Y195624D01*
X-25264Y193779D01*
X-25206Y193737D01*
X-25154Y193687D01*
X-25107Y193665D01*
X-25065Y193635D01*
X-24996Y193614D01*
X-24931Y193584D01*
X-24879Y193578D01*
X-24830Y193563D01*
X-24758Y193565D01*
X-24687Y193557D01*
X-24636Y193568D01*
X-24584Y193569D01*
X-24516Y193594D01*
X-24446Y193609D01*
X-24402Y193636D01*
X-24353Y193653D01*
X-24297Y193698D01*
X-24235Y193735D01*
X-24201Y193775D01*
X-24161Y193807D01*
X-24122Y193867D01*
X-24075Y193922D01*
X-24056Y193970D01*
X-24028Y194014D01*
X-24010Y194084D01*
X-23983Y194150D01*
X-23975Y194221D01*
X-23968Y194253D01*
X-23969Y194276D01*
X-23965Y194317D01*
X-23965Y210593D01*
X-23968Y210613D01*
X-23966Y210632D01*
X-23988Y210734D01*
X-24005Y210836D01*
X-24014Y210853D01*
X-24018Y210873D01*
X-24071Y210962D01*
X-24120Y211053D01*
X-24134Y211067D01*
X-24144Y211084D01*
X-24223Y211151D01*
X-24298Y211222D01*
X-24316Y211231D01*
X-24331Y211244D01*
X-24427Y211283D01*
X-24521Y211326D01*
X-24541Y211328D01*
X-24559Y211336D01*
X-24696Y211351D01*
X-26771Y213426D01*
X-26771Y216356D01*
X-24699Y218428D01*
X-21769Y218428D01*
X-19697Y216356D01*
X-19697Y214903D01*
X-19683Y214813D01*
X-19675Y214722D01*
X-19663Y214693D01*
X-19658Y214661D01*
X-19615Y214580D01*
X-19579Y214496D01*
X-19553Y214464D01*
X-19543Y214443D01*
X-19519Y214421D01*
X-19474Y214365D01*
X-19391Y214282D01*
X-19391Y162073D01*
X-19380Y162002D01*
X-19378Y161931D01*
X-19360Y161882D01*
X-19352Y161830D01*
X-19318Y161767D01*
X-19293Y161700D01*
X-19261Y161659D01*
X-19237Y161613D01*
X-19185Y161564D01*
X-19140Y161508D01*
X-19096Y161479D01*
X-19058Y161444D01*
X-18993Y161413D01*
X-18933Y161375D01*
X-18882Y161362D01*
X-18835Y161340D01*
X-18764Y161332D01*
X-18694Y161315D01*
X-18642Y161319D01*
X-18591Y161313D01*
X-18521Y161328D01*
X-18449Y161334D01*
X-18401Y161354D01*
X-18350Y161365D01*
X-18289Y161402D01*
X-18223Y161430D01*
X-18167Y161475D01*
X-18139Y161491D01*
X-18124Y161509D01*
X-18092Y161535D01*
X-17340Y162287D01*
X-14410Y162287D01*
X-12338Y160215D01*
X-12338Y157285D01*
X-13886Y155738D01*
X-13897Y155722D01*
X-13913Y155709D01*
X-13969Y155622D01*
X-14029Y155538D01*
X-14035Y155519D01*
X-14046Y155502D01*
X-14071Y155402D01*
X-14101Y155303D01*
X-14101Y155283D01*
X-14106Y155264D01*
X-14098Y155161D01*
X-14095Y155057D01*
X-14088Y155038D01*
X-14087Y155019D01*
X-14046Y154924D01*
X-14011Y154826D01*
X-13998Y154810D01*
X-13990Y154792D01*
X-13886Y154661D01*
X-12338Y153114D01*
X-12338Y150184D01*
X-14410Y148112D01*
X-17340Y148112D01*
X-18092Y148864D01*
X-18150Y148906D01*
X-18202Y148955D01*
X-18249Y148977D01*
X-18292Y149008D01*
X-18360Y149029D01*
X-18425Y149059D01*
X-18477Y149065D01*
X-18527Y149080D01*
X-18598Y149078D01*
X-18670Y149086D01*
X-18720Y149075D01*
X-18773Y149074D01*
X-18840Y149049D01*
X-18910Y149034D01*
X-18955Y149007D01*
X-19004Y148989D01*
X-19060Y148944D01*
X-19121Y148908D01*
X-19155Y148868D01*
X-19196Y148836D01*
X-19234Y148775D01*
X-19281Y148721D01*
X-19300Y148672D01*
X-19329Y148629D01*
X-19346Y148559D01*
X-19373Y148493D01*
X-19381Y148421D01*
X-19389Y148390D01*
X-19387Y148367D01*
X-19391Y148326D01*
X-19391Y134537D01*
X-19506Y134423D01*
X-19559Y134349D01*
X-19618Y134279D01*
X-19631Y134249D01*
X-19649Y134223D01*
X-19676Y134136D01*
X-19710Y134051D01*
X-19715Y134010D01*
X-19722Y133988D01*
X-19721Y133956D01*
X-19729Y133884D01*
X-19729Y132432D01*
X-21801Y130360D01*
X-24731Y130360D01*
X-25326Y130956D01*
X-25384Y130998D01*
X-25436Y131047D01*
X-25484Y131069D01*
X-25526Y131099D01*
X-25594Y131120D01*
X-25660Y131151D01*
X-25711Y131156D01*
X-25761Y131172D01*
X-25833Y131170D01*
X-25904Y131178D01*
X-25955Y131167D01*
X-26007Y131165D01*
X-26074Y131141D01*
X-26144Y131125D01*
X-26189Y131099D01*
X-26238Y131081D01*
X-26294Y131036D01*
X-26355Y130999D01*
X-26389Y130960D01*
X-26430Y130927D01*
X-26469Y130867D01*
X-26515Y130812D01*
X-26535Y130764D01*
X-26563Y130720D01*
X-26580Y130651D01*
X-26607Y130584D01*
X-26615Y130513D01*
X-26623Y130482D01*
X-26621Y130458D01*
X-26626Y130418D01*
X-26626Y128259D01*
X-28698Y126187D01*
X-31627Y126187D01*
G37*
%LPD*%
%LPC*%
G36*
X-93894Y135318D02*
X-93894Y135318D01*
X-97255Y136710D01*
X-99828Y139282D01*
X-101220Y142644D01*
X-101220Y146281D01*
X-99828Y149643D01*
X-97255Y152215D01*
X-95340Y153008D01*
X-95240Y153070D01*
X-95140Y153130D01*
X-95136Y153135D01*
X-95131Y153138D01*
X-95056Y153229D01*
X-94980Y153317D01*
X-94978Y153323D01*
X-94974Y153327D01*
X-94932Y153436D01*
X-94888Y153545D01*
X-94887Y153553D01*
X-94886Y153557D01*
X-94885Y153575D01*
X-94870Y153712D01*
X-94870Y160613D01*
X-94889Y160728D01*
X-94906Y160844D01*
X-94908Y160850D01*
X-94909Y160856D01*
X-94964Y160959D01*
X-95017Y161063D01*
X-95022Y161068D01*
X-95025Y161073D01*
X-95109Y161153D01*
X-95193Y161236D01*
X-95199Y161239D01*
X-95203Y161243D01*
X-95220Y161251D01*
X-95258Y161272D01*
X-95261Y161275D01*
X-95269Y161278D01*
X-95340Y161317D01*
X-97255Y162110D01*
X-99828Y164682D01*
X-101220Y168044D01*
X-101220Y171681D01*
X-99828Y175043D01*
X-97255Y177615D01*
X-93894Y179007D01*
X-90256Y179007D01*
X-86895Y177615D01*
X-84322Y175043D01*
X-82930Y171681D01*
X-82930Y168044D01*
X-84322Y164682D01*
X-86895Y162110D01*
X-88810Y161317D01*
X-88910Y161255D01*
X-88930Y161243D01*
X-88954Y161230D01*
X-88957Y161226D01*
X-89010Y161195D01*
X-89014Y161190D01*
X-89019Y161187D01*
X-89094Y161096D01*
X-89170Y161008D01*
X-89172Y161002D01*
X-89176Y160998D01*
X-89218Y160889D01*
X-89262Y160780D01*
X-89263Y160772D01*
X-89264Y160768D01*
X-89265Y160750D01*
X-89280Y160613D01*
X-89280Y153712D01*
X-89261Y153596D01*
X-89244Y153481D01*
X-89242Y153475D01*
X-89241Y153469D01*
X-89186Y153365D01*
X-89133Y153262D01*
X-89128Y153257D01*
X-89125Y153252D01*
X-89041Y153172D01*
X-88957Y153089D01*
X-88951Y153086D01*
X-88947Y153082D01*
X-88930Y153074D01*
X-88810Y153008D01*
X-86895Y152215D01*
X-84322Y149643D01*
X-82930Y146281D01*
X-82930Y142644D01*
X-84322Y139282D01*
X-86895Y136710D01*
X-90256Y135318D01*
X-93894Y135318D01*
G37*
%LPD*%
%LPC*%
G36*
X-93894Y109918D02*
X-93894Y109918D01*
X-97255Y111310D01*
X-99828Y113882D01*
X-101220Y117244D01*
X-101220Y120881D01*
X-99828Y124243D01*
X-97255Y126815D01*
X-93894Y128207D01*
X-90256Y128207D01*
X-86895Y126815D01*
X-84322Y124243D01*
X-82930Y120881D01*
X-82930Y117244D01*
X-84322Y113882D01*
X-86895Y111310D01*
X-90256Y109918D01*
X-93894Y109918D01*
G37*
%LPD*%
%LPC*%
G36*
X16226Y126638D02*
X16226Y126638D01*
X14155Y128710D01*
X14155Y131640D01*
X14203Y131689D01*
X14245Y131747D01*
X14295Y131799D01*
X14316Y131846D01*
X14347Y131888D01*
X14368Y131957D01*
X14398Y132022D01*
X14404Y132074D01*
X14419Y132124D01*
X14417Y132195D01*
X14425Y132266D01*
X14414Y132317D01*
X14413Y132369D01*
X14388Y132437D01*
X14373Y132507D01*
X14346Y132552D01*
X14328Y132600D01*
X14284Y132656D01*
X14247Y132718D01*
X14207Y132752D01*
X14175Y132792D01*
X14114Y132831D01*
X14060Y132878D01*
X14012Y132897D01*
X13968Y132925D01*
X13898Y132943D01*
X13832Y132970D01*
X13760Y132978D01*
X13729Y132986D01*
X13706Y132984D01*
X13665Y132988D01*
X12823Y132988D01*
X10751Y135060D01*
X10751Y137990D01*
X12823Y140062D01*
X15752Y140062D01*
X17824Y137990D01*
X17824Y135060D01*
X17775Y135011D01*
X17734Y134953D01*
X17684Y134901D01*
X17662Y134854D01*
X17632Y134812D01*
X17611Y134743D01*
X17581Y134678D01*
X17575Y134626D01*
X17560Y134576D01*
X17561Y134505D01*
X17554Y134434D01*
X17565Y134383D01*
X17566Y134331D01*
X17591Y134263D01*
X17606Y134193D01*
X17633Y134148D01*
X17650Y134100D01*
X17695Y134044D01*
X17732Y133982D01*
X17772Y133948D01*
X17804Y133908D01*
X17864Y133869D01*
X17919Y133822D01*
X17967Y133803D01*
X18011Y133775D01*
X18080Y133757D01*
X18147Y133730D01*
X18218Y133722D01*
X18249Y133714D01*
X18273Y133716D01*
X18314Y133712D01*
X19156Y133712D01*
X21228Y131640D01*
X21228Y128710D01*
X19156Y126638D01*
X16226Y126638D01*
G37*
%LPD*%
%LPC*%
G36*
X52256Y289538D02*
X52256Y289538D01*
X49825Y291969D01*
X49825Y295406D01*
X52256Y297837D01*
X55694Y297837D01*
X58125Y295406D01*
X58125Y291969D01*
X55694Y289538D01*
X52256Y289538D01*
G37*
%LPD*%
%LPC*%
G36*
X37969Y289538D02*
X37969Y289538D01*
X35538Y291969D01*
X35538Y295406D01*
X37969Y297837D01*
X41406Y297837D01*
X43837Y295406D01*
X43837Y291969D01*
X41406Y289538D01*
X37969Y289538D01*
G37*
%LPD*%
%LPC*%
G36*
X-39819Y289538D02*
X-39819Y289538D01*
X-42250Y291969D01*
X-42250Y295406D01*
X-39819Y297837D01*
X-36381Y297837D01*
X-33950Y295406D01*
X-33950Y291969D01*
X-36381Y289538D01*
X-39819Y289538D01*
G37*
%LPD*%
%LPC*%
G36*
X-57281Y289538D02*
X-57281Y289538D01*
X-59712Y291969D01*
X-59712Y295406D01*
X-57281Y297837D01*
X-53844Y297837D01*
X-51413Y295406D01*
X-51413Y291969D01*
X-53844Y289538D01*
X-57281Y289538D01*
G37*
%LPD*%
%LPC*%
G36*
X91944Y267313D02*
X91944Y267313D01*
X89513Y269744D01*
X89513Y273181D01*
X91944Y275612D01*
X95381Y275612D01*
X97812Y273181D01*
X97812Y269744D01*
X95381Y267313D01*
X91944Y267313D01*
G37*
%LPD*%
%LPC*%
G36*
X-93794Y267313D02*
X-93794Y267313D01*
X-96225Y269744D01*
X-96225Y273181D01*
X-93794Y275612D01*
X-90356Y275612D01*
X-87925Y273181D01*
X-87925Y269744D01*
X-90356Y267313D01*
X-93794Y267313D01*
G37*
%LPD*%
%LPC*%
G36*
X99881Y251438D02*
X99881Y251438D01*
X97450Y253869D01*
X97450Y257306D01*
X99881Y259737D01*
X103319Y259737D01*
X105750Y257306D01*
X105750Y253869D01*
X103319Y251438D01*
X99881Y251438D01*
G37*
%LPD*%
%LPC*%
G36*
X-104906Y251438D02*
X-104906Y251438D01*
X-107337Y253869D01*
X-107337Y257306D01*
X-104906Y259737D01*
X-101469Y259737D01*
X-99038Y257306D01*
X-99038Y253869D01*
X-101469Y251438D01*
X-104906Y251438D01*
G37*
%LPD*%
%LPC*%
G36*
X15744Y240325D02*
X15744Y240325D01*
X13313Y242756D01*
X13313Y246194D01*
X15744Y248625D01*
X19181Y248625D01*
X21612Y246194D01*
X21612Y242756D01*
X19181Y240325D01*
X15744Y240325D01*
G37*
%LPD*%
%LPC*%
G36*
X-31881Y240325D02*
X-31881Y240325D01*
X-34312Y242756D01*
X-34312Y246194D01*
X-31881Y248625D01*
X-28444Y248625D01*
X-26013Y246194D01*
X-26013Y242756D01*
X-28444Y240325D01*
X-31881Y240325D01*
G37*
%LPD*%
%LPC*%
G36*
X58606Y240325D02*
X58606Y240325D01*
X56175Y242756D01*
X56175Y246194D01*
X58606Y248625D01*
X62044Y248625D01*
X64475Y246194D01*
X64475Y242756D01*
X62044Y240325D01*
X58606Y240325D01*
G37*
%LPD*%
%LPC*%
G36*
X-20769Y230800D02*
X-20769Y230800D01*
X-23200Y233231D01*
X-23200Y236669D01*
X-20769Y239100D01*
X-17331Y239100D01*
X-14900Y236669D01*
X-14900Y233231D01*
X-17331Y230800D01*
X-20769Y230800D01*
G37*
%LPD*%
%LPC*%
G36*
X-14419Y222863D02*
X-14419Y222863D01*
X-16850Y225294D01*
X-16850Y228731D01*
X-14419Y231162D01*
X-10981Y231162D01*
X-8550Y228731D01*
X-8550Y225294D01*
X-10981Y222863D01*
X-14419Y222863D01*
G37*
%LPD*%
%LPC*%
G36*
X-12831Y180000D02*
X-12831Y180000D01*
X-15262Y182431D01*
X-15262Y185869D01*
X-12831Y188300D01*
X-9394Y188300D01*
X-6963Y185869D01*
X-6963Y182431D01*
X-9394Y180000D01*
X-12831Y180000D01*
G37*
%LPD*%
%LPC*%
G36*
X-143006Y184763D02*
X-143006Y184763D01*
X-145437Y187194D01*
X-145437Y190631D01*
X-143006Y193062D01*
X-139569Y193062D01*
X-137138Y190631D01*
X-137138Y187194D01*
X-139569Y184763D01*
X-143006Y184763D01*
G37*
%LPD*%
%LPC*%
G36*
X139569Y183175D02*
X139569Y183175D01*
X137138Y185606D01*
X137138Y189044D01*
X139569Y191475D01*
X143006Y191475D01*
X145437Y189044D01*
X145437Y185606D01*
X143006Y183175D01*
X139569Y183175D01*
G37*
%LPD*%
%LPC*%
G36*
X99881Y38713D02*
X99881Y38713D01*
X97450Y41144D01*
X97450Y44581D01*
X99881Y47012D01*
X103319Y47012D01*
X105750Y44581D01*
X105750Y41144D01*
X103319Y38713D01*
X99881Y38713D01*
G37*
%LPD*%
%LPC*%
G36*
X-152531Y170475D02*
X-152531Y170475D01*
X-154962Y172906D01*
X-154962Y176344D01*
X-152531Y178775D01*
X-149094Y178775D01*
X-146663Y176344D01*
X-146663Y172906D01*
X-149094Y170475D01*
X-152531Y170475D01*
G37*
%LPD*%
%LPC*%
G36*
X147506Y168888D02*
X147506Y168888D01*
X145075Y171319D01*
X145075Y174756D01*
X147506Y177187D01*
X150944Y177187D01*
X153375Y174756D01*
X153375Y171319D01*
X150944Y168888D01*
X147506Y168888D01*
G37*
%LPD*%
%LPC*%
G36*
X-154119Y127613D02*
X-154119Y127613D01*
X-156550Y130044D01*
X-156550Y133481D01*
X-154119Y135912D01*
X-150681Y135912D01*
X-148250Y133481D01*
X-148250Y130044D01*
X-150681Y127613D01*
X-154119Y127613D01*
G37*
%LPD*%
%LPC*%
G36*
X147506Y126025D02*
X147506Y126025D01*
X145075Y128456D01*
X145075Y131894D01*
X147506Y134325D01*
X150944Y134325D01*
X153375Y131894D01*
X153375Y128456D01*
X150944Y126025D01*
X147506Y126025D01*
G37*
%LPD*%
%LPC*%
G36*
X-146181Y110150D02*
X-146181Y110150D01*
X-148612Y112581D01*
X-148612Y116019D01*
X-146181Y118450D01*
X-142744Y118450D01*
X-140313Y116019D01*
X-140313Y112581D01*
X-142744Y110150D01*
X-146181Y110150D01*
G37*
%LPD*%
%LPC*%
G36*
X137981Y108563D02*
X137981Y108563D01*
X135550Y110994D01*
X135550Y114431D01*
X137981Y116862D01*
X141419Y116862D01*
X143850Y114431D01*
X143850Y110994D01*
X141419Y108563D01*
X137981Y108563D01*
G37*
%LPD*%
%LPC*%
G36*
X-76331Y94275D02*
X-76331Y94275D01*
X-78762Y96706D01*
X-78762Y100144D01*
X-76331Y102575D01*
X-72894Y102575D01*
X-70463Y100144D01*
X-70463Y96706D01*
X-72894Y94275D01*
X-76331Y94275D01*
G37*
%LPD*%
%LPC*%
G36*
X-104906Y41888D02*
X-104906Y41888D01*
X-107337Y44319D01*
X-107337Y47756D01*
X-104906Y50187D01*
X-101469Y50187D01*
X-99038Y47756D01*
X-99038Y44319D01*
X-101469Y41888D01*
X-104906Y41888D01*
G37*
%LPD*%
%LPC*%
G36*
X-96969Y26013D02*
X-96969Y26013D01*
X-99400Y28444D01*
X-99400Y31881D01*
X-96969Y34312D01*
X-93531Y34312D01*
X-91100Y31881D01*
X-91100Y28444D01*
X-93531Y26013D01*
X-96969Y26013D01*
G37*
%LPD*%
%LPC*%
G36*
X90356Y24425D02*
X90356Y24425D01*
X87925Y26856D01*
X87925Y30294D01*
X90356Y32725D01*
X93794Y32725D01*
X96225Y30294D01*
X96225Y26856D01*
X93794Y24425D01*
X90356Y24425D01*
G37*
%LPD*%
%LPC*%
G36*
X-42994Y6963D02*
X-42994Y6963D01*
X-45425Y9394D01*
X-45425Y12831D01*
X-42994Y15262D01*
X-39556Y15262D01*
X-37125Y12831D01*
X-37125Y9394D01*
X-39556Y6963D01*
X-42994Y6963D01*
G37*
%LPD*%
%LPC*%
G36*
X-58869Y6963D02*
X-58869Y6963D01*
X-61300Y9394D01*
X-61300Y12831D01*
X-58869Y15262D01*
X-55431Y15262D01*
X-53000Y12831D01*
X-53000Y9394D01*
X-55431Y6963D01*
X-58869Y6963D01*
G37*
%LPD*%
%LPC*%
G36*
X52256Y3788D02*
X52256Y3788D01*
X49825Y6219D01*
X49825Y9656D01*
X52256Y12087D01*
X55694Y12087D01*
X58125Y9656D01*
X58125Y6219D01*
X55694Y3788D01*
X52256Y3788D01*
G37*
%LPD*%
%LPC*%
G36*
X36381Y3788D02*
X36381Y3788D01*
X33950Y6219D01*
X33950Y9656D01*
X36381Y12087D01*
X39819Y12087D01*
X42250Y9656D01*
X42250Y6219D01*
X39819Y3788D01*
X36381Y3788D01*
G37*
%LPD*%
%LPC*%
G36*
X99063Y57745D02*
X99063Y57745D01*
X96845Y59963D01*
X96845Y63101D01*
X99063Y65319D01*
X102200Y65319D01*
X104418Y63101D01*
X104418Y59963D01*
X102200Y57745D01*
X99063Y57745D01*
G37*
%LPD*%
%LPC*%
G36*
X-98297Y222653D02*
X-98297Y222653D01*
X-100515Y224871D01*
X-100515Y228008D01*
X-98297Y230226D01*
X-95160Y230226D01*
X-92942Y228008D01*
X-92942Y224871D01*
X-95160Y222653D01*
X-98297Y222653D01*
G37*
%LPD*%
%LPC*%
G36*
X-43061Y122328D02*
X-43061Y122328D01*
X-45279Y124546D01*
X-45279Y127684D01*
X-43061Y129902D01*
X-39924Y129902D01*
X-37706Y127684D01*
X-37706Y124546D01*
X-39924Y122328D01*
X-43061Y122328D01*
G37*
%LPD*%
%LPC*%
G36*
X17481Y224813D02*
X17481Y224813D01*
X15263Y227031D01*
X15263Y230169D01*
X17481Y232387D01*
X20619Y232387D01*
X22837Y230169D01*
X22837Y227031D01*
X20619Y224813D01*
X17481Y224813D01*
G37*
%LPD*%
%LPC*%
G36*
X110996Y194344D02*
X110996Y194344D01*
X108778Y196562D01*
X108778Y199699D01*
X110996Y201917D01*
X114133Y201917D01*
X116351Y199699D01*
X116351Y196562D01*
X114133Y194344D01*
X110996Y194344D01*
G37*
%LPD*%
%LPC*%
G36*
X-45495Y189888D02*
X-45495Y189888D01*
X-47713Y192106D01*
X-47713Y195244D01*
X-45495Y197462D01*
X-42358Y197462D01*
X-40140Y195244D01*
X-40140Y192106D01*
X-42358Y189888D01*
X-45495Y189888D01*
G37*
%LPD*%
%LPC*%
G36*
X-99113Y76151D02*
X-99113Y76151D01*
X-101331Y78369D01*
X-101331Y81506D01*
X-99113Y83724D01*
X-95976Y83724D01*
X-93757Y81506D01*
X-93757Y78369D01*
X-95976Y76151D01*
X-99113Y76151D01*
G37*
%LPD*%
%LPC*%
G36*
X16172Y156626D02*
X16172Y156626D01*
X14100Y158698D01*
X14100Y161628D01*
X16172Y163700D01*
X19102Y163700D01*
X21174Y161628D01*
X21174Y158698D01*
X19102Y156626D01*
X16172Y156626D01*
G37*
%LPD*%
%LPC*%
G36*
X-1465Y129813D02*
X-1465Y129813D01*
X-3537Y131885D01*
X-3537Y134815D01*
X-1465Y136887D01*
X1465Y136887D01*
X3537Y134815D01*
X3537Y131885D01*
X1465Y129813D01*
X-1465Y129813D01*
G37*
%LPD*%
D10*
X106363Y146050D03*
X-92075Y169863D03*
X-92075Y144463D03*
X-92075Y119063D03*
D11*
X39688Y293688D03*
X53975Y293688D03*
X93663Y271463D03*
X101600Y255588D03*
X141288Y187325D03*
X149225Y173038D03*
X149225Y130175D03*
X139700Y112713D03*
X101600Y42863D03*
X92075Y28575D03*
X53975Y7938D03*
X38100Y7938D03*
X-41275Y11113D03*
X-57150Y11113D03*
X-95250Y30163D03*
X-103188Y46038D03*
X-152400Y131763D03*
X-144463Y114300D03*
X-150813Y174625D03*
X-141288Y188913D03*
X-103188Y255588D03*
X-92075Y271463D03*
X-55563Y293688D03*
X-38100Y293688D03*
X84138Y149225D03*
X80963Y141288D03*
X-12700Y227013D03*
X-74613Y98425D03*
X-19050Y234950D03*
X46038Y182563D03*
X46038Y166688D03*
X60325Y244475D03*
D12*
X-3175Y158750D03*
X-3175Y150813D03*
X3175Y142875D03*
X3175Y158750D03*
X3175Y150813D03*
X-3175Y142875D03*
D11*
X55563Y263525D03*
X69850Y252413D03*
X-74613Y255588D03*
X-58738Y266700D03*
X-122238Y160338D03*
X-123825Y141288D03*
X-74613Y57150D03*
X-65088Y38100D03*
X115888Y168275D03*
X109538Y119063D03*
X77788Y82550D03*
X38100Y19050D03*
X52388Y17463D03*
X-17463Y79375D03*
X4763Y79375D03*
X-41275Y182563D03*
X52388Y193675D03*
D12*
X17463Y144463D03*
D13*
X-96728Y226439D03*
X-14529Y30177D03*
X-97544Y79938D03*
X100631Y61532D03*
X27890Y131776D03*
D14*
X32653Y254815D02*
X15821Y271647D01*
D13*
X15821Y271647D03*
D14*
X32653Y254815D02*
X32653Y138126D01*
X27890Y133364D01*
X27890Y131776D01*
D13*
X23072Y275918D03*
D14*
X37359Y145743D02*
X42852Y140250D01*
X37359Y261630D02*
X23072Y275918D01*
X37359Y261630D02*
X37359Y145743D01*
D13*
X33327Y125426D03*
D14*
X42852Y130189D02*
X42852Y140250D01*
X42852Y130189D02*
X38089Y125426D01*
X33327Y125426D01*
D13*
X112565Y198130D03*
D15*
X-92075Y169863D02*
X-92075Y144463D01*
D12*
X-30163Y129724D03*
X-28575Y192088D03*
D16*
X-33338Y187325D01*
X-33338Y132899D01*
X-30163Y129724D01*
D12*
X0Y133350D03*
X-23266Y133897D03*
X-23234Y214891D03*
D16*
X-21678Y135484D02*
X-23266Y133897D01*
X-21678Y213335D02*
X-23234Y214891D01*
X-21678Y213335D02*
X-21678Y135484D01*
D12*
X17691Y130175D03*
X17637Y160163D03*
X14288Y136525D03*
X-15875Y158750D03*
X-15875Y151649D03*
D13*
X-41493Y126115D03*
X-26988Y163513D03*
D11*
X-11113Y184150D03*
X17463Y244475D03*
X-30163Y244475D03*
D13*
X8345Y41683D03*
X36762Y133337D03*
X19050Y228600D03*
X2925Y35582D03*
X42863Y192088D03*
X-71819Y215519D03*
D12*
X-53975Y66054D03*
D16*
X-63500Y73992D02*
X-63500Y207963D01*
X-55563Y66054D02*
X-53975Y66054D01*
X-55563Y66054D02*
X-63500Y73992D01*
X-71057Y215519D02*
X-71819Y215519D01*
X-71057Y215519D02*
X-63500Y207963D01*
D13*
X-71149Y207995D03*
D12*
X-42863Y55563D03*
D16*
X-52366Y55563D01*
X-66654Y69850D01*
X-66654Y205087D02*
X-69562Y207995D01*
X-71149Y207995D01*
X-66654Y205087D02*
X-66654Y69850D01*
D12*
X30141Y34947D03*
D16*
X30141Y55584D02*
X74613Y100056D01*
X30141Y55584D02*
X30141Y34947D01*
D12*
X77788Y211138D03*
D16*
X74613Y207963D01*
X74613Y100056D01*
D12*
X71536Y223164D03*
D16*
X71536Y102514D01*
D12*
X23405Y32158D03*
D16*
X23405Y54383D02*
X71536Y102514D01*
X23405Y54383D02*
X23405Y32158D01*
D12*
X-71438Y230862D03*
X-34925Y55563D03*
D16*
X-66378Y230862D02*
X-71438Y230862D01*
X-66378Y230862D02*
X-57002Y221485D01*
X-57002Y83989D01*
X-34925Y61913D02*
X-34925Y55563D01*
X-34925Y61913D02*
X-57002Y83989D01*
D12*
X-69850Y223838D03*
X-49213Y60599D03*
D16*
X-60325Y81236D02*
X-60325Y214313D01*
X-49213Y70124D02*
X-49213Y60599D01*
X-49213Y70124D02*
X-60325Y81236D01*
X-60325Y214313D02*
X-69850Y223838D01*
D12*
X-11113Y41275D03*
D16*
X4763Y49213D02*
X60325Y104775D01*
X-3175Y49213D02*
X-11113Y41275D01*
X-3175Y49213D02*
X4763Y49213D01*
D12*
X60325Y231775D03*
D16*
X60325Y104775D01*
D12*
X66675Y217488D03*
D16*
X66802Y217361D01*
X66802Y104902D01*
D12*
X-28304Y31750D03*
D16*
X-28304Y30163D02*
X-21954Y23813D01*
X-28304Y30163D02*
X-28304Y31750D01*
X19050Y42863D02*
X19050Y57150D01*
X66802Y104902D01*
X0Y23813D02*
X-21954Y23813D01*
X0Y23813D02*
X19050Y42863D01*
D13*
X-43927Y193675D03*
X48164Y65164D03*
D15*
X94044Y133731D02*
X106363Y146050D01*
X94044Y133731D02*
X94044Y111283D01*
X48164Y65403D02*
X48164Y65164D01*
X48164Y65403D02*
X94044Y111283D01*
D12*
X-5733Y33546D03*
M02*
