G04 EAGLE Gerber RS-274X export*
G75*
%MOMM*%
%FSLAX34Y34*%
%LPD*%
%INBottom Copper*%
%IPPOS*%
%AMOC8*
5,1,8,0,0,1.08239X$1,22.5*%
G01*
%ADD10R,1.100000X1.000000*%
%ADD11R,0.700000X0.900000*%
%ADD12P,1.649562X8X22.500000*%
%ADD13C,1.524000*%
%ADD14R,0.900000X0.700000*%
%ADD15R,0.550000X0.254000*%
%ADD16R,0.254000X0.550000*%
%ADD17R,5.600000X5.600000*%
%ADD18R,1.399997X0.400000*%
%ADD19C,1.000000*%
%ADD20R,0.350000X0.600000*%
%ADD21R,0.600000X0.350000*%
%ADD22R,2.100000X2.100000*%
%ADD23R,0.800000X0.500000*%
%ADD24C,0.750000*%
%ADD25C,0.406400*%
%ADD26C,0.254000*%
%ADD27C,0.304800*%
%ADD28C,0.550000*%
%ADD29C,0.600000*%
%ADD30C,0.700000*%
%ADD31C,0.203200*%
%ADD32C,0.152400*%
%ADD33C,0.177800*%

G36*
X56224Y99483D02*
X56224Y99483D01*
X56296Y99485D01*
X56345Y99503D01*
X56396Y99511D01*
X56459Y99545D01*
X56527Y99570D01*
X56568Y99602D01*
X56613Y99626D01*
X56663Y99678D01*
X56719Y99723D01*
X56747Y99767D01*
X56783Y99805D01*
X56813Y99870D01*
X56852Y99930D01*
X56864Y99981D01*
X56886Y100028D01*
X56894Y100099D01*
X56912Y100169D01*
X56908Y100221D01*
X56914Y100272D01*
X56898Y100342D01*
X56893Y100414D01*
X56872Y100462D01*
X56861Y100513D01*
X56824Y100574D01*
X56796Y100640D01*
X56752Y100696D01*
X56735Y100724D01*
X56718Y100738D01*
X56715Y100744D01*
X56710Y100748D01*
X56705Y100755D01*
X56705Y143717D01*
X64419Y151432D01*
X64472Y151505D01*
X64532Y151575D01*
X64544Y151605D01*
X64563Y151631D01*
X64590Y151718D01*
X64624Y151803D01*
X64628Y151844D01*
X64635Y151866D01*
X64634Y151899D01*
X64642Y151970D01*
X64642Y158005D01*
X65190Y158552D01*
X65243Y158626D01*
X65302Y158695D01*
X65314Y158726D01*
X65333Y158752D01*
X65360Y158839D01*
X65394Y158924D01*
X65399Y158965D01*
X65406Y158987D01*
X65405Y159019D01*
X65413Y159090D01*
X65413Y159557D01*
X66306Y160450D01*
X66772Y160450D01*
X66862Y160464D01*
X66953Y160472D01*
X66983Y160484D01*
X67015Y160489D01*
X67096Y160532D01*
X67179Y160568D01*
X67212Y160594D01*
X67232Y160605D01*
X67254Y160628D01*
X67310Y160673D01*
X67420Y160783D01*
X78630Y160783D01*
X79820Y159592D01*
X79820Y154205D01*
X79832Y154134D01*
X79834Y154063D01*
X79852Y154014D01*
X79860Y153962D01*
X79894Y153899D01*
X79918Y153832D01*
X79951Y153791D01*
X79975Y153745D01*
X80027Y153696D01*
X80072Y153640D01*
X80116Y153612D01*
X80153Y153576D01*
X80218Y153545D01*
X80279Y153507D01*
X80329Y153494D01*
X80376Y153472D01*
X80448Y153464D01*
X80517Y153447D01*
X80569Y153451D01*
X80621Y153445D01*
X80691Y153460D01*
X80762Y153466D01*
X80810Y153486D01*
X80861Y153497D01*
X80923Y153534D01*
X80989Y153562D01*
X81045Y153607D01*
X81072Y153623D01*
X81088Y153641D01*
X81120Y153667D01*
X81953Y154500D01*
X86322Y154500D01*
X86750Y154072D01*
X86808Y154030D01*
X86860Y153981D01*
X86907Y153959D01*
X86949Y153929D01*
X87018Y153908D01*
X87083Y153878D01*
X87135Y153872D01*
X87185Y153856D01*
X87256Y153858D01*
X87327Y153850D01*
X87378Y153861D01*
X87430Y153863D01*
X87498Y153887D01*
X87568Y153903D01*
X87613Y153929D01*
X87661Y153947D01*
X87717Y153992D01*
X87779Y154029D01*
X87813Y154068D01*
X87853Y154101D01*
X87892Y154161D01*
X87939Y154216D01*
X87958Y154264D01*
X87986Y154308D01*
X88004Y154377D01*
X88031Y154444D01*
X88039Y154515D01*
X88047Y154546D01*
X88045Y154570D01*
X88049Y154611D01*
X88049Y176498D01*
X107317Y195766D01*
X107370Y195840D01*
X107429Y195909D01*
X107442Y195939D01*
X107460Y195966D01*
X107487Y196053D01*
X107521Y196137D01*
X107526Y196178D01*
X107533Y196201D01*
X107532Y196233D01*
X107540Y196304D01*
X107540Y200212D01*
X110527Y203199D01*
X110547Y203227D01*
X110573Y203249D01*
X110618Y203326D01*
X110670Y203399D01*
X110680Y203431D01*
X110698Y203461D01*
X110716Y203548D01*
X110743Y203634D01*
X110742Y203668D01*
X110749Y203701D01*
X110739Y203790D01*
X110736Y203880D01*
X110725Y203912D01*
X110721Y203945D01*
X110683Y204026D01*
X110652Y204111D01*
X110631Y204137D01*
X110616Y204168D01*
X110507Y204295D01*
X109385Y205336D01*
X109356Y205356D01*
X109332Y205381D01*
X109254Y205423D01*
X109180Y205472D01*
X109147Y205481D01*
X109116Y205498D01*
X109039Y205515D01*
X108637Y206019D01*
X108613Y206041D01*
X108560Y206102D01*
X108091Y206538D01*
X108070Y206607D01*
X108053Y206694D01*
X108035Y206724D01*
X108025Y206757D01*
X107936Y206899D01*
X106562Y208623D01*
X106537Y208646D01*
X106517Y208675D01*
X106446Y208728D01*
X106380Y208788D01*
X106348Y208802D01*
X106320Y208823D01*
X106246Y208851D01*
X105925Y209409D01*
X105904Y209434D01*
X105861Y209503D01*
X105462Y210004D01*
X105452Y210075D01*
X105447Y210164D01*
X105435Y210196D01*
X105430Y210230D01*
X105362Y210384D01*
X104261Y212293D01*
X104239Y212320D01*
X104224Y212351D01*
X104161Y212415D01*
X104105Y212483D01*
X104076Y212502D01*
X104052Y212527D01*
X103983Y212566D01*
X103748Y213165D01*
X103731Y213194D01*
X103730Y213197D01*
X103729Y213198D01*
X103728Y213200D01*
X103698Y213268D01*
X103378Y213823D01*
X103379Y213894D01*
X103388Y213983D01*
X103380Y214017D01*
X103381Y214051D01*
X103337Y214213D01*
X102532Y216265D01*
X102515Y216295D01*
X102504Y216328D01*
X102452Y216400D01*
X102407Y216477D01*
X102380Y216500D01*
X102360Y216528D01*
X102298Y216577D01*
X102155Y217204D01*
X102143Y217235D01*
X102121Y217313D01*
X101888Y217909D01*
X101899Y217980D01*
X101921Y218066D01*
X101918Y218101D01*
X101924Y218135D01*
X101905Y218302D01*
X101415Y220451D01*
X101402Y220483D01*
X101397Y220517D01*
X101356Y220596D01*
X101322Y220679D01*
X101300Y220705D01*
X101284Y220736D01*
X101230Y220794D01*
X101182Y221436D01*
X101174Y221468D01*
X101165Y221548D01*
X101023Y222173D01*
X101044Y222241D01*
X101079Y222323D01*
X101082Y222358D01*
X101092Y222391D01*
X101098Y222558D01*
X100934Y224756D01*
X100926Y224790D01*
X100926Y224825D01*
X100897Y224909D01*
X100876Y224995D01*
X100858Y225025D01*
X100847Y225058D01*
X100802Y225123D01*
X100850Y225765D01*
X100847Y225798D01*
X100850Y225879D01*
X100803Y226517D01*
X100834Y226582D01*
X100881Y226658D01*
X100889Y226691D01*
X100904Y226722D01*
X100935Y226887D01*
X101100Y229085D01*
X101097Y229120D01*
X101102Y229154D01*
X101087Y229242D01*
X101079Y229330D01*
X101065Y229362D01*
X101059Y229396D01*
X101024Y229468D01*
X101168Y230095D01*
X101170Y230128D01*
X101185Y230208D01*
X101233Y230846D01*
X101274Y230905D01*
X101331Y230973D01*
X101344Y231005D01*
X101363Y231034D01*
X101419Y231192D01*
X101910Y233341D01*
X101912Y233376D01*
X101922Y233409D01*
X101919Y233498D01*
X101925Y233587D01*
X101916Y233620D01*
X101915Y233655D01*
X101892Y233731D01*
X102127Y234330D01*
X102134Y234362D01*
X102160Y234438D01*
X102303Y235063D01*
X102352Y235115D01*
X102419Y235174D01*
X102436Y235204D01*
X102460Y235229D01*
X102538Y235377D01*
X103344Y237429D01*
X103352Y237463D01*
X103367Y237494D01*
X103377Y237582D01*
X103396Y237669D01*
X103392Y237704D01*
X103396Y237738D01*
X103385Y237817D01*
X103707Y238374D01*
X103718Y238405D01*
X103756Y238476D01*
X103990Y239072D01*
X104047Y239117D01*
X104121Y239165D01*
X104143Y239192D01*
X104170Y239213D01*
X104270Y239348D01*
X105372Y241257D01*
X105385Y241289D01*
X105404Y241318D01*
X105428Y241404D01*
X105459Y241487D01*
X105461Y241522D01*
X105470Y241555D01*
X105470Y241634D01*
X105871Y242137D01*
X105884Y242161D01*
X105901Y242179D01*
X105910Y242197D01*
X105935Y242232D01*
X106256Y242786D01*
X106318Y242821D01*
X106399Y242858D01*
X106425Y242881D01*
X106455Y242898D01*
X106573Y243017D01*
X107948Y244740D01*
X107965Y244770D01*
X107989Y244796D01*
X108025Y244877D01*
X108068Y244955D01*
X108075Y244989D01*
X108089Y245020D01*
X108101Y245099D01*
X108573Y245536D01*
X108593Y245562D01*
X108650Y245620D01*
X109050Y246120D01*
X109116Y246146D01*
X109202Y246170D01*
X109231Y246190D01*
X109263Y246202D01*
X109398Y246302D01*
X111014Y247800D01*
X111035Y247828D01*
X111063Y247849D01*
X111111Y247924D01*
X111165Y247995D01*
X111177Y248027D01*
X111195Y248056D01*
X111219Y248132D01*
X111751Y248495D01*
X111775Y248518D01*
X111840Y248566D01*
X112309Y249001D01*
X112379Y249016D01*
X112468Y249027D01*
X112499Y249043D01*
X112533Y249050D01*
X112681Y249129D01*
X113136Y249439D01*
X113219Y249518D01*
X113304Y249595D01*
X113308Y249602D01*
X113314Y249608D01*
X113368Y249709D01*
X113423Y249809D01*
X113425Y249818D01*
X113429Y249826D01*
X113448Y249939D01*
X113468Y250051D01*
X113467Y250060D01*
X113469Y250068D01*
X113450Y250182D01*
X113434Y250295D01*
X113430Y250304D01*
X113429Y250311D01*
X113418Y250331D01*
X113367Y250448D01*
X100358Y272981D01*
X100327Y273018D01*
X100305Y273061D01*
X100250Y273113D01*
X100202Y273171D01*
X100161Y273197D01*
X100127Y273230D01*
X100058Y273262D01*
X99994Y273302D01*
X99947Y273313D01*
X99903Y273334D01*
X99828Y273342D01*
X99754Y273360D01*
X99707Y273355D01*
X99659Y273361D01*
X99585Y273345D01*
X99509Y273338D01*
X99466Y273319D01*
X99419Y273308D01*
X99354Y273270D01*
X99284Y273239D01*
X99249Y273207D01*
X99208Y273182D01*
X99158Y273125D01*
X99102Y273074D01*
X99079Y273032D01*
X99048Y272995D01*
X99019Y272925D01*
X98982Y272859D01*
X98974Y272812D01*
X98956Y272767D01*
X98941Y272639D01*
X98937Y272617D01*
X98938Y272611D01*
X98937Y272601D01*
X98937Y269278D01*
X95847Y266188D01*
X91478Y266188D01*
X88388Y269278D01*
X88388Y273647D01*
X91478Y276737D01*
X95847Y276737D01*
X97300Y275285D01*
X97319Y275271D01*
X97334Y275252D01*
X97419Y275199D01*
X97499Y275141D01*
X97522Y275134D01*
X97543Y275122D01*
X97640Y275098D01*
X97734Y275069D01*
X97758Y275070D01*
X97782Y275064D01*
X97881Y275073D01*
X97980Y275075D01*
X98003Y275084D01*
X98027Y275086D01*
X98118Y275126D01*
X98211Y275160D01*
X98230Y275175D01*
X98252Y275185D01*
X98326Y275252D01*
X98403Y275314D01*
X98416Y275334D01*
X98434Y275350D01*
X98483Y275437D01*
X98536Y275521D01*
X98542Y275544D01*
X98554Y275565D01*
X98572Y275663D01*
X98596Y275759D01*
X98595Y275783D01*
X98599Y275807D01*
X98585Y275905D01*
X98577Y276004D01*
X98568Y276026D01*
X98564Y276050D01*
X98497Y276204D01*
X94556Y283030D01*
X96314Y283861D01*
X96336Y283878D01*
X96363Y283888D01*
X96415Y283937D01*
X96473Y283980D01*
X96487Y284005D01*
X96508Y284025D01*
X96537Y284090D01*
X96573Y284152D01*
X96576Y284181D01*
X96588Y284207D01*
X96589Y284279D01*
X96598Y284349D01*
X96590Y284377D01*
X96591Y284406D01*
X96555Y284500D01*
X96544Y284541D01*
X96537Y284549D01*
X96533Y284562D01*
X87033Y301062D01*
X86981Y301120D01*
X86935Y301183D01*
X86916Y301194D01*
X86901Y301211D01*
X86831Y301244D01*
X86764Y301284D01*
X86740Y301288D01*
X86722Y301297D01*
X86677Y301299D01*
X86600Y301312D01*
X67600Y301312D01*
X67572Y301306D01*
X67544Y301309D01*
X67476Y301286D01*
X67405Y301272D01*
X67382Y301256D01*
X67355Y301247D01*
X67300Y301200D01*
X67241Y301160D01*
X67226Y301136D01*
X67205Y301117D01*
X67173Y301053D01*
X67134Y300992D01*
X67129Y300964D01*
X67117Y300939D01*
X67108Y300837D01*
X67101Y300796D01*
X67103Y300786D01*
X67102Y300773D01*
X67258Y298812D01*
X58148Y298812D01*
X58077Y298800D01*
X58006Y298798D01*
X57957Y298780D01*
X57905Y298772D01*
X57842Y298738D01*
X57775Y298714D01*
X57734Y298681D01*
X57688Y298657D01*
X57639Y298605D01*
X57583Y298560D01*
X57554Y298516D01*
X57519Y298479D01*
X57488Y298414D01*
X57450Y298353D01*
X57437Y298303D01*
X57415Y298256D01*
X57407Y298184D01*
X57390Y298115D01*
X57394Y298063D01*
X57388Y298011D01*
X57403Y297941D01*
X57409Y297870D01*
X57429Y297822D01*
X57440Y297771D01*
X57477Y297709D01*
X57505Y297643D01*
X57550Y297587D01*
X57566Y297560D01*
X57584Y297544D01*
X57610Y297512D01*
X59250Y295872D01*
X59250Y291503D01*
X56160Y288413D01*
X51790Y288413D01*
X48700Y291503D01*
X48700Y295872D01*
X50340Y297512D01*
X50382Y297570D01*
X50431Y297622D01*
X50453Y297670D01*
X50484Y297712D01*
X50505Y297780D01*
X50535Y297846D01*
X50541Y297897D01*
X50556Y297947D01*
X50554Y298019D01*
X50562Y298090D01*
X50551Y298141D01*
X50550Y298193D01*
X50525Y298260D01*
X50510Y298330D01*
X50483Y298375D01*
X50465Y298424D01*
X50420Y298480D01*
X50384Y298541D01*
X50344Y298575D01*
X50312Y298616D01*
X50251Y298655D01*
X50197Y298701D01*
X50148Y298721D01*
X50105Y298749D01*
X50035Y298766D01*
X49969Y298793D01*
X49897Y298801D01*
X49866Y298809D01*
X49843Y298807D01*
X49802Y298812D01*
X43861Y298812D01*
X43790Y298800D01*
X43718Y298798D01*
X43669Y298780D01*
X43618Y298772D01*
X43555Y298738D01*
X43487Y298714D01*
X43447Y298681D01*
X43401Y298657D01*
X43351Y298605D01*
X43295Y298560D01*
X43267Y298516D01*
X43231Y298479D01*
X43201Y298414D01*
X43162Y298353D01*
X43149Y298303D01*
X43128Y298256D01*
X43120Y298184D01*
X43102Y298115D01*
X43106Y298063D01*
X43100Y298011D01*
X43116Y297941D01*
X43121Y297870D01*
X43142Y297822D01*
X43153Y297771D01*
X43189Y297709D01*
X43218Y297643D01*
X43262Y297587D01*
X43279Y297560D01*
X43297Y297544D01*
X43322Y297512D01*
X44962Y295872D01*
X44962Y291503D01*
X41872Y288413D01*
X37503Y288413D01*
X34413Y291503D01*
X34413Y295872D01*
X36053Y297512D01*
X36094Y297570D01*
X36144Y297622D01*
X36166Y297670D01*
X36196Y297712D01*
X36217Y297780D01*
X36247Y297846D01*
X36253Y297897D01*
X36269Y297947D01*
X36267Y298019D01*
X36275Y298090D01*
X36264Y298141D01*
X36262Y298193D01*
X36238Y298260D01*
X36222Y298330D01*
X36196Y298375D01*
X36178Y298424D01*
X36133Y298480D01*
X36096Y298541D01*
X36057Y298575D01*
X36024Y298616D01*
X35964Y298655D01*
X35909Y298701D01*
X35861Y298721D01*
X35817Y298749D01*
X35748Y298766D01*
X35681Y298793D01*
X35610Y298801D01*
X35579Y298809D01*
X35555Y298807D01*
X35514Y298812D01*
X29587Y298812D01*
X29475Y298793D01*
X29361Y298777D01*
X29353Y298773D01*
X29344Y298772D01*
X29244Y298719D01*
X29141Y298667D01*
X29134Y298661D01*
X29127Y298657D01*
X29048Y298574D01*
X28967Y298493D01*
X28963Y298485D01*
X28957Y298479D01*
X28909Y298375D01*
X28859Y298272D01*
X28857Y298262D01*
X28854Y298256D01*
X28851Y298233D01*
X28828Y298107D01*
X28786Y297551D01*
X28789Y297517D01*
X28784Y297482D01*
X28800Y297395D01*
X28807Y297306D01*
X28821Y297274D01*
X28828Y297240D01*
X28862Y297169D01*
X28719Y296541D01*
X28717Y296508D01*
X28702Y296429D01*
X28654Y295790D01*
X28613Y295731D01*
X28556Y295663D01*
X28543Y295631D01*
X28524Y295603D01*
X28468Y295444D01*
X27978Y293297D01*
X27976Y293263D01*
X27966Y293230D01*
X27969Y293141D01*
X27963Y293052D01*
X27972Y293018D01*
X27973Y292984D01*
X27997Y292908D01*
X27762Y292309D01*
X27755Y292277D01*
X27728Y292200D01*
X27586Y291576D01*
X27536Y291524D01*
X27470Y291465D01*
X27452Y291435D01*
X27428Y291409D01*
X27350Y291261D01*
X26546Y289211D01*
X26539Y289177D01*
X26524Y289146D01*
X26513Y289058D01*
X26494Y288971D01*
X26498Y288936D01*
X26494Y288902D01*
X26506Y288823D01*
X26184Y288266D01*
X26172Y288235D01*
X26135Y288163D01*
X25901Y287567D01*
X25844Y287523D01*
X25770Y287475D01*
X25748Y287448D01*
X25721Y287427D01*
X25621Y287291D01*
X24520Y285384D01*
X24508Y285352D01*
X24489Y285323D01*
X24465Y285238D01*
X24433Y285154D01*
X24432Y285120D01*
X24423Y285086D01*
X24423Y285007D01*
X24022Y284504D01*
X24005Y284475D01*
X23957Y284410D01*
X23637Y283855D01*
X23575Y283820D01*
X23494Y283783D01*
X23469Y283760D01*
X23438Y283743D01*
X23320Y283624D01*
X22128Y282129D01*
X22079Y282042D01*
X22025Y281957D01*
X22019Y281935D01*
X22008Y281914D01*
X21989Y281816D01*
X21964Y281719D01*
X21966Y281696D01*
X21962Y281673D01*
X21976Y281573D01*
X21984Y281473D01*
X21993Y281452D01*
X21996Y281429D01*
X22041Y281339D01*
X22080Y281247D01*
X22098Y281225D01*
X22106Y281209D01*
X22129Y281186D01*
X22185Y281116D01*
X22636Y280665D01*
X22709Y280612D01*
X22779Y280553D01*
X22809Y280541D01*
X22835Y280522D01*
X22922Y280495D01*
X23007Y280461D01*
X23048Y280456D01*
X23070Y280449D01*
X23103Y280450D01*
X23174Y280442D01*
X24946Y280442D01*
X27596Y277792D01*
X27596Y274043D01*
X24946Y271393D01*
X21107Y271393D01*
X21088Y271390D01*
X21068Y271392D01*
X20967Y271370D01*
X20865Y271353D01*
X20847Y271344D01*
X20827Y271340D01*
X20738Y271286D01*
X20647Y271238D01*
X20633Y271224D01*
X20616Y271213D01*
X20549Y271135D01*
X20478Y271060D01*
X20469Y271042D01*
X20456Y271026D01*
X20418Y270930D01*
X20374Y270837D01*
X20372Y270817D01*
X20364Y270798D01*
X20346Y270632D01*
X20346Y269773D01*
X17696Y267122D01*
X13947Y267122D01*
X11297Y269773D01*
X11297Y272910D01*
X11286Y272976D01*
X11285Y273043D01*
X11266Y273097D01*
X11257Y273153D01*
X11225Y273212D01*
X11203Y273275D01*
X11168Y273320D01*
X11142Y273370D01*
X11093Y273416D01*
X11052Y273469D01*
X11004Y273500D01*
X10963Y273539D01*
X10902Y273568D01*
X10846Y273605D01*
X10792Y273619D01*
X10740Y273643D01*
X10674Y273650D01*
X10609Y273668D01*
X10552Y273664D01*
X10496Y273670D01*
X10430Y273656D01*
X10363Y273651D01*
X10288Y273625D01*
X10255Y273618D01*
X10238Y273607D01*
X10205Y273596D01*
X9978Y273486D01*
X9906Y273492D01*
X9819Y273508D01*
X9784Y273502D01*
X9750Y273505D01*
X9585Y273474D01*
X7481Y272825D01*
X7450Y272809D01*
X7416Y272802D01*
X7340Y272755D01*
X7261Y272715D01*
X7236Y272691D01*
X7207Y272673D01*
X7153Y272614D01*
X6516Y272518D01*
X6485Y272508D01*
X6405Y272493D01*
X5793Y272304D01*
X5724Y272321D01*
X5639Y272349D01*
X5605Y272349D01*
X5571Y272357D01*
X5403Y272351D01*
X3226Y272023D01*
X3193Y272012D01*
X3158Y272009D01*
X3077Y271974D01*
X2992Y271947D01*
X2964Y271926D01*
X2932Y271913D01*
X2870Y271863D01*
X2227Y271863D01*
X2194Y271858D01*
X2113Y271855D01*
X1480Y271759D01*
X1413Y271786D01*
X1334Y271827D01*
X1300Y271832D01*
X1268Y271845D01*
X1101Y271863D01*
X-1101Y271863D01*
X-1135Y271858D01*
X-1170Y271860D01*
X-1256Y271838D01*
X-1344Y271824D01*
X-1374Y271807D01*
X-1408Y271799D01*
X-1477Y271759D01*
X-2113Y271855D01*
X-2146Y271854D01*
X-2227Y271863D01*
X-2867Y271863D01*
X-2929Y271900D01*
X-3001Y271952D01*
X-3034Y271962D01*
X-3064Y271979D01*
X-3226Y272023D01*
X-5403Y272351D01*
X-5438Y272350D01*
X-5472Y272358D01*
X-5560Y272349D01*
X-5649Y272348D01*
X-5682Y272336D01*
X-5717Y272333D01*
X-5790Y272303D01*
X-6405Y272493D01*
X-6438Y272498D01*
X-6516Y272518D01*
X-7150Y272614D01*
X-7205Y272659D01*
X-7269Y272721D01*
X-7300Y272736D01*
X-7327Y272758D01*
X-7481Y272825D01*
X-9585Y273474D01*
X-9619Y273479D01*
X-9652Y273491D01*
X-9741Y273495D01*
X-9829Y273507D01*
X-9863Y273501D01*
X-9897Y273503D01*
X-9975Y273485D01*
X-10555Y273764D01*
X-10586Y273773D01*
X-10661Y273806D01*
X-11272Y273994D01*
X-11321Y274047D01*
X-11374Y274118D01*
X-11403Y274138D01*
X-11426Y274163D01*
X-11569Y274252D01*
X-13553Y275208D01*
X-13586Y275218D01*
X-13616Y275235D01*
X-13703Y275252D01*
X-13788Y275277D01*
X-13823Y275276D01*
X-13857Y275283D01*
X-13936Y275277D01*
X-14468Y275639D01*
X-14498Y275653D01*
X-14567Y275696D01*
X-15144Y275974D01*
X-15183Y276034D01*
X-15226Y276112D01*
X-15251Y276135D01*
X-15271Y276164D01*
X-15398Y276273D01*
X-17217Y277514D01*
X-17249Y277528D01*
X-17276Y277550D01*
X-17360Y277580D01*
X-17440Y277618D01*
X-17475Y277621D01*
X-17507Y277633D01*
X-17587Y277639D01*
X-18058Y278077D01*
X-18086Y278095D01*
X-18147Y278148D01*
X-18676Y278508D01*
X-18707Y278573D01*
X-18737Y278657D01*
X-18759Y278684D01*
X-18774Y278715D01*
X-18883Y278842D01*
X-20498Y280340D01*
X-20526Y280359D01*
X-20550Y280385D01*
X-20628Y280427D01*
X-20703Y280476D01*
X-20736Y280485D01*
X-20766Y280501D01*
X-20844Y280519D01*
X-21245Y281022D01*
X-21270Y281044D01*
X-21323Y281106D01*
X-21792Y281541D01*
X-21813Y281610D01*
X-21830Y281697D01*
X-21836Y281707D01*
X-21837Y281711D01*
X-21849Y281730D01*
X-21858Y281760D01*
X-21947Y281902D01*
X-23320Y283624D01*
X-23346Y283647D01*
X-23365Y283675D01*
X-23436Y283729D01*
X-23502Y283789D01*
X-23534Y283802D01*
X-23562Y283823D01*
X-23636Y283852D01*
X-23958Y284410D01*
X-23978Y284435D01*
X-24022Y284504D01*
X-24421Y285004D01*
X-24431Y285075D01*
X-24435Y285164D01*
X-24448Y285196D01*
X-24453Y285231D01*
X-24520Y285384D01*
X-25621Y287291D01*
X-25643Y287318D01*
X-25658Y287349D01*
X-25721Y287413D01*
X-25777Y287482D01*
X-25806Y287500D01*
X-25831Y287525D01*
X-25900Y287564D01*
X-26135Y288163D01*
X-26151Y288192D01*
X-26184Y288266D01*
X-26504Y288821D01*
X-26504Y288892D01*
X-26495Y288981D01*
X-26502Y289015D01*
X-26502Y289049D01*
X-26546Y289211D01*
X-27350Y291261D01*
X-27368Y291291D01*
X-27378Y291324D01*
X-27430Y291396D01*
X-27476Y291472D01*
X-27502Y291495D01*
X-27523Y291523D01*
X-27585Y291573D01*
X-27728Y292200D01*
X-27740Y292231D01*
X-27762Y292309D01*
X-27995Y292905D01*
X-27984Y292976D01*
X-27962Y293062D01*
X-27965Y293096D01*
X-27959Y293131D01*
X-27978Y293297D01*
X-28468Y295444D01*
X-28481Y295476D01*
X-28487Y295510D01*
X-28528Y295590D01*
X-28561Y295672D01*
X-28584Y295698D01*
X-28600Y295729D01*
X-28654Y295787D01*
X-28702Y296429D01*
X-28710Y296461D01*
X-28719Y296541D01*
X-28861Y297166D01*
X-28840Y297234D01*
X-28805Y297316D01*
X-28803Y297351D01*
X-28792Y297384D01*
X-28786Y297551D01*
X-28828Y298107D01*
X-28855Y298219D01*
X-28879Y298330D01*
X-28883Y298338D01*
X-28885Y298346D01*
X-28946Y298443D01*
X-29005Y298541D01*
X-29012Y298547D01*
X-29016Y298555D01*
X-29105Y298627D01*
X-29192Y298701D01*
X-29200Y298705D01*
X-29207Y298710D01*
X-29314Y298750D01*
X-29420Y298793D01*
X-29431Y298794D01*
X-29437Y298797D01*
X-29460Y298798D01*
X-29587Y298812D01*
X-33927Y298812D01*
X-33998Y298800D01*
X-34069Y298798D01*
X-34118Y298780D01*
X-34170Y298772D01*
X-34233Y298738D01*
X-34300Y298714D01*
X-34341Y298681D01*
X-34387Y298657D01*
X-34436Y298605D01*
X-34492Y298560D01*
X-34521Y298516D01*
X-34556Y298479D01*
X-34587Y298414D01*
X-34625Y298353D01*
X-34638Y298303D01*
X-34660Y298256D01*
X-34668Y298184D01*
X-34685Y298115D01*
X-34681Y298063D01*
X-34687Y298011D01*
X-34672Y297941D01*
X-34666Y297870D01*
X-34646Y297822D01*
X-34635Y297771D01*
X-34598Y297709D01*
X-34570Y297643D01*
X-34525Y297587D01*
X-34509Y297560D01*
X-34491Y297544D01*
X-34465Y297512D01*
X-32825Y295872D01*
X-32825Y291503D01*
X-35915Y288413D01*
X-40285Y288413D01*
X-43375Y291503D01*
X-43375Y295872D01*
X-41735Y297512D01*
X-41693Y297570D01*
X-41644Y297622D01*
X-41622Y297670D01*
X-41591Y297712D01*
X-41570Y297780D01*
X-41540Y297846D01*
X-41534Y297897D01*
X-41519Y297947D01*
X-41521Y298019D01*
X-41513Y298090D01*
X-41524Y298141D01*
X-41525Y298193D01*
X-41550Y298260D01*
X-41565Y298330D01*
X-41592Y298375D01*
X-41610Y298424D01*
X-41655Y298480D01*
X-41691Y298541D01*
X-41731Y298575D01*
X-41763Y298616D01*
X-41824Y298655D01*
X-41878Y298701D01*
X-41927Y298721D01*
X-41970Y298749D01*
X-42040Y298766D01*
X-42106Y298793D01*
X-42178Y298801D01*
X-42209Y298809D01*
X-42232Y298807D01*
X-42273Y298812D01*
X-51389Y298812D01*
X-51460Y298800D01*
X-51532Y298798D01*
X-51581Y298780D01*
X-51632Y298772D01*
X-51695Y298738D01*
X-51763Y298714D01*
X-51803Y298681D01*
X-51849Y298657D01*
X-51899Y298605D01*
X-51955Y298560D01*
X-51983Y298516D01*
X-52019Y298479D01*
X-52049Y298414D01*
X-52088Y298353D01*
X-52101Y298303D01*
X-52122Y298256D01*
X-52130Y298184D01*
X-52148Y298115D01*
X-52144Y298063D01*
X-52150Y298011D01*
X-52134Y297941D01*
X-52129Y297870D01*
X-52108Y297822D01*
X-52097Y297771D01*
X-52061Y297709D01*
X-52032Y297643D01*
X-51988Y297587D01*
X-51971Y297560D01*
X-51953Y297544D01*
X-51928Y297512D01*
X-50288Y295872D01*
X-50288Y291503D01*
X-53378Y288413D01*
X-57747Y288413D01*
X-60837Y291503D01*
X-60837Y295872D01*
X-59197Y297512D01*
X-59156Y297570D01*
X-59106Y297622D01*
X-59084Y297670D01*
X-59054Y297712D01*
X-59033Y297780D01*
X-59003Y297846D01*
X-58997Y297897D01*
X-58981Y297947D01*
X-58983Y298019D01*
X-58975Y298090D01*
X-58986Y298141D01*
X-58988Y298193D01*
X-59012Y298260D01*
X-59028Y298330D01*
X-59054Y298375D01*
X-59072Y298424D01*
X-59117Y298480D01*
X-59154Y298541D01*
X-59193Y298575D01*
X-59226Y298616D01*
X-59286Y298655D01*
X-59341Y298701D01*
X-59389Y298721D01*
X-59433Y298749D01*
X-59502Y298766D01*
X-59569Y298793D01*
X-59640Y298801D01*
X-59671Y298809D01*
X-59695Y298807D01*
X-59736Y298812D01*
X-67258Y298812D01*
X-67102Y300773D01*
X-67106Y300801D01*
X-67101Y300829D01*
X-67118Y300899D01*
X-67126Y300970D01*
X-67141Y300995D01*
X-67147Y301022D01*
X-67190Y301080D01*
X-67226Y301143D01*
X-67248Y301160D01*
X-67265Y301183D01*
X-67327Y301219D01*
X-67384Y301263D01*
X-67412Y301270D01*
X-67436Y301284D01*
X-67536Y301301D01*
X-67577Y301311D01*
X-67587Y301310D01*
X-67600Y301312D01*
X-86600Y301312D01*
X-86676Y301296D01*
X-86754Y301288D01*
X-86773Y301277D01*
X-86795Y301272D01*
X-86859Y301228D01*
X-86927Y301190D01*
X-86943Y301171D01*
X-86959Y301160D01*
X-86983Y301122D01*
X-87033Y301062D01*
X-96533Y284562D01*
X-96542Y284534D01*
X-96558Y284511D01*
X-96573Y284441D01*
X-96596Y284373D01*
X-96593Y284345D01*
X-96599Y284316D01*
X-96586Y284246D01*
X-96580Y284175D01*
X-96567Y284149D01*
X-96561Y284121D01*
X-96521Y284062D01*
X-96488Y283998D01*
X-96466Y283980D01*
X-96450Y283956D01*
X-96367Y283899D01*
X-96335Y283872D01*
X-96324Y283869D01*
X-96314Y283861D01*
X-94556Y283030D01*
X-107171Y261180D01*
X-107179Y261158D01*
X-107193Y261138D01*
X-107223Y261043D01*
X-107258Y260950D01*
X-107259Y260926D01*
X-107266Y260903D01*
X-107263Y260804D01*
X-107267Y260704D01*
X-107260Y260681D01*
X-107259Y260657D01*
X-107225Y260564D01*
X-107197Y260469D01*
X-107183Y260449D01*
X-107175Y260426D01*
X-107113Y260348D01*
X-107056Y260267D01*
X-107036Y260253D01*
X-107021Y260234D01*
X-106938Y260180D01*
X-106857Y260122D01*
X-106835Y260114D01*
X-106814Y260101D01*
X-106718Y260077D01*
X-106623Y260047D01*
X-106599Y260047D01*
X-106576Y260041D01*
X-106477Y260049D01*
X-106377Y260050D01*
X-106355Y260058D01*
X-106331Y260060D01*
X-106239Y260099D01*
X-106145Y260132D01*
X-106126Y260147D01*
X-106104Y260157D01*
X-105973Y260261D01*
X-105372Y260862D01*
X-101003Y260862D01*
X-97913Y257772D01*
X-97913Y253403D01*
X-101003Y250313D01*
X-105372Y250313D01*
X-108462Y253403D01*
X-108462Y256102D01*
X-108470Y256150D01*
X-108468Y256198D01*
X-108490Y256270D01*
X-108502Y256345D01*
X-108524Y256387D01*
X-108538Y256433D01*
X-108582Y256496D01*
X-108617Y256562D01*
X-108652Y256595D01*
X-108679Y256635D01*
X-108740Y256680D01*
X-108795Y256732D01*
X-108839Y256752D01*
X-108878Y256780D01*
X-108950Y256804D01*
X-109018Y256835D01*
X-109066Y256841D01*
X-109112Y256855D01*
X-109188Y256854D01*
X-109263Y256862D01*
X-109310Y256852D01*
X-109358Y256852D01*
X-109429Y256826D01*
X-109503Y256810D01*
X-109544Y256786D01*
X-109590Y256770D01*
X-109649Y256723D01*
X-109714Y256684D01*
X-109746Y256648D01*
X-109783Y256618D01*
X-109860Y256514D01*
X-109874Y256497D01*
X-109877Y256491D01*
X-109883Y256483D01*
X-113367Y250448D01*
X-113407Y250341D01*
X-113450Y250235D01*
X-113451Y250226D01*
X-113454Y250218D01*
X-113458Y250104D01*
X-113465Y249990D01*
X-113462Y249981D01*
X-113463Y249973D01*
X-113430Y249863D01*
X-113400Y249752D01*
X-113395Y249745D01*
X-113393Y249737D01*
X-113327Y249643D01*
X-113263Y249548D01*
X-113255Y249541D01*
X-113251Y249535D01*
X-113233Y249522D01*
X-113136Y249439D01*
X-112681Y249129D01*
X-112649Y249114D01*
X-112622Y249092D01*
X-112538Y249062D01*
X-112458Y249025D01*
X-112423Y249021D01*
X-112391Y249009D01*
X-112312Y249003D01*
X-111840Y248566D01*
X-111812Y248548D01*
X-111751Y248495D01*
X-111221Y248134D01*
X-111191Y248069D01*
X-111160Y247986D01*
X-111139Y247959D01*
X-111124Y247927D01*
X-111014Y247800D01*
X-109398Y246302D01*
X-109369Y246283D01*
X-109345Y246257D01*
X-109267Y246215D01*
X-109193Y246166D01*
X-109160Y246157D01*
X-109129Y246140D01*
X-109052Y246123D01*
X-108650Y245620D01*
X-108626Y245598D01*
X-108573Y245536D01*
X-108103Y245101D01*
X-108083Y245032D01*
X-108065Y244945D01*
X-108048Y244915D01*
X-108038Y244882D01*
X-107948Y244740D01*
X-106573Y243017D01*
X-106548Y242994D01*
X-106528Y242965D01*
X-106457Y242912D01*
X-106391Y242852D01*
X-106359Y242838D01*
X-106331Y242818D01*
X-106257Y242789D01*
X-105935Y242232D01*
X-105914Y242206D01*
X-105871Y242137D01*
X-105472Y241637D01*
X-105462Y241566D01*
X-105457Y241477D01*
X-105445Y241445D01*
X-105440Y241411D01*
X-105372Y241257D01*
X-104270Y239348D01*
X-104248Y239321D01*
X-104232Y239290D01*
X-104170Y239227D01*
X-104114Y239158D01*
X-104084Y239140D01*
X-104060Y239115D01*
X-103991Y239075D01*
X-103756Y238476D01*
X-103739Y238448D01*
X-103707Y238374D01*
X-103386Y237819D01*
X-103387Y237748D01*
X-103396Y237659D01*
X-103388Y237625D01*
X-103388Y237591D01*
X-103344Y237429D01*
X-102538Y235377D01*
X-102521Y235347D01*
X-102510Y235314D01*
X-102458Y235242D01*
X-102413Y235166D01*
X-102386Y235143D01*
X-102366Y235115D01*
X-102304Y235066D01*
X-102160Y234438D01*
X-102148Y234408D01*
X-102127Y234330D01*
X-101893Y233734D01*
X-101904Y233663D01*
X-101926Y233577D01*
X-101923Y233542D01*
X-101929Y233508D01*
X-101910Y233341D01*
X-101419Y231192D01*
X-101405Y231160D01*
X-101400Y231126D01*
X-101359Y231047D01*
X-101326Y230965D01*
X-101303Y230938D01*
X-101287Y230907D01*
X-101233Y230849D01*
X-101185Y230208D01*
X-101177Y230176D01*
X-101168Y230096D01*
X-101159Y230057D01*
X-101132Y229992D01*
X-101127Y229969D01*
X-101116Y229952D01*
X-101080Y229853D01*
X-101072Y229842D01*
X-101066Y229829D01*
X-100995Y229746D01*
X-100926Y229661D01*
X-100915Y229653D01*
X-100906Y229643D01*
X-100812Y229587D01*
X-100720Y229528D01*
X-100706Y229525D01*
X-100694Y229517D01*
X-100587Y229495D01*
X-100481Y229468D01*
X-100467Y229469D01*
X-100454Y229466D01*
X-100345Y229478D01*
X-100236Y229487D01*
X-100223Y229492D01*
X-100209Y229494D01*
X-100110Y229540D01*
X-100009Y229583D01*
X-99996Y229594D01*
X-99987Y229598D01*
X-99966Y229618D01*
X-99879Y229688D01*
X-98603Y230964D01*
X-94854Y230964D01*
X-92204Y228313D01*
X-92204Y226541D01*
X-92189Y226451D01*
X-92182Y226360D01*
X-92169Y226331D01*
X-92164Y226299D01*
X-92121Y226218D01*
X-92086Y226134D01*
X-92060Y226102D01*
X-92049Y226081D01*
X-92026Y226059D01*
X-91981Y226003D01*
X-90505Y224527D01*
X-90505Y221900D01*
X-90490Y221810D01*
X-90483Y221719D01*
X-90470Y221689D01*
X-90465Y221657D01*
X-90422Y221577D01*
X-90387Y221493D01*
X-90361Y221461D01*
X-90350Y221440D01*
X-90327Y221418D01*
X-90282Y221362D01*
X-76973Y208053D01*
X-76915Y208011D01*
X-76863Y207962D01*
X-76816Y207940D01*
X-76774Y207910D01*
X-76705Y207889D01*
X-76640Y207858D01*
X-76588Y207853D01*
X-76538Y207837D01*
X-76467Y207839D01*
X-76396Y207831D01*
X-76345Y207842D01*
X-76293Y207844D01*
X-76225Y207868D01*
X-76155Y207884D01*
X-76110Y207910D01*
X-76062Y207928D01*
X-76006Y207973D01*
X-75944Y208010D01*
X-75910Y208049D01*
X-75870Y208082D01*
X-75831Y208142D01*
X-75784Y208197D01*
X-75765Y208245D01*
X-75737Y208289D01*
X-75719Y208358D01*
X-75692Y208425D01*
X-75684Y208496D01*
X-75676Y208527D01*
X-75678Y208551D01*
X-75674Y208591D01*
X-75674Y209869D01*
X-74659Y210884D01*
X-74647Y210900D01*
X-74632Y210913D01*
X-74601Y210961D01*
X-74594Y210968D01*
X-74589Y210979D01*
X-74576Y211000D01*
X-74515Y211084D01*
X-74510Y211103D01*
X-74499Y211120D01*
X-74473Y211220D01*
X-74443Y211319D01*
X-74444Y211339D01*
X-74439Y211358D01*
X-74447Y211461D01*
X-74449Y211565D01*
X-74456Y211583D01*
X-74458Y211603D01*
X-74498Y211698D01*
X-74534Y211796D01*
X-74546Y211811D01*
X-74554Y211830D01*
X-74659Y211961D01*
X-76343Y213645D01*
X-76343Y217393D01*
X-73611Y220125D01*
X-73566Y220142D01*
X-73525Y220174D01*
X-73479Y220199D01*
X-73430Y220251D01*
X-73374Y220295D01*
X-73346Y220339D01*
X-73310Y220377D01*
X-73280Y220442D01*
X-73241Y220502D01*
X-73228Y220553D01*
X-73206Y220600D01*
X-73198Y220671D01*
X-73181Y220741D01*
X-73185Y220793D01*
X-73179Y220844D01*
X-73194Y220915D01*
X-73200Y220986D01*
X-73220Y221034D01*
X-73231Y221085D01*
X-73268Y221146D01*
X-73296Y221212D01*
X-73341Y221268D01*
X-73358Y221296D01*
X-73375Y221311D01*
X-73401Y221343D01*
X-74125Y222067D01*
X-74125Y225608D01*
X-73715Y226017D01*
X-73704Y226034D01*
X-73688Y226046D01*
X-73632Y226133D01*
X-73572Y226217D01*
X-73566Y226236D01*
X-73555Y226253D01*
X-73530Y226354D01*
X-73500Y226452D01*
X-73500Y226472D01*
X-73495Y226492D01*
X-73503Y226595D01*
X-73506Y226698D01*
X-73513Y226717D01*
X-73514Y226737D01*
X-73555Y226832D01*
X-73590Y226929D01*
X-73603Y226945D01*
X-73611Y226963D01*
X-73715Y227094D01*
X-75712Y229091D01*
X-75712Y232632D01*
X-73208Y235136D01*
X-69667Y235136D01*
X-67902Y233371D01*
X-67828Y233318D01*
X-67758Y233259D01*
X-67744Y233253D01*
X-63889Y229398D01*
X-63815Y229345D01*
X-63745Y229285D01*
X-63715Y229273D01*
X-63689Y229254D01*
X-63602Y229227D01*
X-63517Y229193D01*
X-63476Y229189D01*
X-63454Y229182D01*
X-63422Y229183D01*
X-63350Y229175D01*
X-62433Y229175D01*
X-62362Y229186D01*
X-62290Y229188D01*
X-62242Y229206D01*
X-62190Y229214D01*
X-62127Y229248D01*
X-62059Y229273D01*
X-62019Y229305D01*
X-61973Y229330D01*
X-61923Y229382D01*
X-61867Y229426D01*
X-61839Y229470D01*
X-61803Y229508D01*
X-61773Y229573D01*
X-61734Y229633D01*
X-61722Y229684D01*
X-61700Y229731D01*
X-61692Y229802D01*
X-61674Y229872D01*
X-61678Y229924D01*
X-61673Y229975D01*
X-61688Y230046D01*
X-61694Y230117D01*
X-61714Y230165D01*
X-61725Y230216D01*
X-61762Y230277D01*
X-61790Y230343D01*
X-61835Y230399D01*
X-61851Y230427D01*
X-61869Y230442D01*
X-61895Y230474D01*
X-64600Y233179D01*
X-64600Y236721D01*
X-62096Y239225D01*
X-60761Y239225D01*
X-60741Y239228D01*
X-60722Y239226D01*
X-60620Y239248D01*
X-60518Y239264D01*
X-60501Y239274D01*
X-60481Y239278D01*
X-60392Y239331D01*
X-60301Y239380D01*
X-60287Y239394D01*
X-60270Y239404D01*
X-60203Y239483D01*
X-60131Y239558D01*
X-60123Y239576D01*
X-60110Y239591D01*
X-60071Y239687D01*
X-60028Y239781D01*
X-60026Y239801D01*
X-60018Y239819D01*
X-60000Y239986D01*
X-60000Y248457D01*
X-59107Y249350D01*
X-48843Y249350D01*
X-47950Y248457D01*
X-47950Y240193D01*
X-48843Y239300D01*
X-49220Y239300D01*
X-49239Y239297D01*
X-49259Y239299D01*
X-49360Y239277D01*
X-49462Y239261D01*
X-49480Y239251D01*
X-49499Y239247D01*
X-49588Y239194D01*
X-49680Y239145D01*
X-49693Y239131D01*
X-49710Y239121D01*
X-49778Y239042D01*
X-49849Y238967D01*
X-49857Y238949D01*
X-49870Y238934D01*
X-49909Y238838D01*
X-49953Y238744D01*
X-49955Y238724D01*
X-49962Y238706D01*
X-49981Y238539D01*
X-49981Y230427D01*
X-50040Y230368D01*
X-50093Y230294D01*
X-50152Y230224D01*
X-50164Y230194D01*
X-50183Y230168D01*
X-50210Y230081D01*
X-50244Y229996D01*
X-50249Y229955D01*
X-50256Y229933D01*
X-50255Y229901D01*
X-50263Y229829D01*
X-50263Y228686D01*
X-50260Y228666D01*
X-50262Y228647D01*
X-50240Y228545D01*
X-50223Y228443D01*
X-50214Y228426D01*
X-50209Y228406D01*
X-50156Y228317D01*
X-50108Y228226D01*
X-50094Y228212D01*
X-50083Y228195D01*
X-50005Y228128D01*
X-49930Y228056D01*
X-49912Y228048D01*
X-49896Y228035D01*
X-49800Y227996D01*
X-49707Y227953D01*
X-49687Y227951D01*
X-49668Y227943D01*
X-49502Y227925D01*
X-42573Y227925D01*
X-42554Y227928D01*
X-42534Y227926D01*
X-42433Y227948D01*
X-42331Y227964D01*
X-42313Y227974D01*
X-42294Y227978D01*
X-42205Y228031D01*
X-42113Y228080D01*
X-42100Y228094D01*
X-42083Y228104D01*
X-42015Y228183D01*
X-41944Y228258D01*
X-41936Y228276D01*
X-41923Y228291D01*
X-41884Y228387D01*
X-41840Y228481D01*
X-41838Y228501D01*
X-41831Y228519D01*
X-41812Y228686D01*
X-41812Y229829D01*
X-41827Y229920D01*
X-41834Y230010D01*
X-41847Y230040D01*
X-41852Y230072D01*
X-41895Y230153D01*
X-41930Y230237D01*
X-41956Y230269D01*
X-41967Y230290D01*
X-41990Y230312D01*
X-42035Y230368D01*
X-42094Y230427D01*
X-42094Y238539D01*
X-42097Y238559D01*
X-42095Y238578D01*
X-42117Y238680D01*
X-42134Y238782D01*
X-42143Y238799D01*
X-42148Y238819D01*
X-42201Y238908D01*
X-42249Y238999D01*
X-42263Y239013D01*
X-42274Y239030D01*
X-42352Y239097D01*
X-42427Y239169D01*
X-42445Y239177D01*
X-42461Y239190D01*
X-42557Y239229D01*
X-42650Y239272D01*
X-42670Y239274D01*
X-42689Y239282D01*
X-42855Y239300D01*
X-43232Y239300D01*
X-44125Y240193D01*
X-44125Y248457D01*
X-43232Y249350D01*
X-33063Y249350D01*
X-32973Y249364D01*
X-32882Y249372D01*
X-32852Y249384D01*
X-32820Y249389D01*
X-32739Y249432D01*
X-32655Y249468D01*
X-32623Y249494D01*
X-32603Y249505D01*
X-32580Y249528D01*
X-32524Y249573D01*
X-32347Y249750D01*
X-27978Y249750D01*
X-24888Y246660D01*
X-24888Y242290D01*
X-27978Y239200D01*
X-32394Y239200D01*
X-32398Y239202D01*
X-32424Y239221D01*
X-32511Y239248D01*
X-32596Y239282D01*
X-32637Y239286D01*
X-32659Y239293D01*
X-32691Y239292D01*
X-32763Y239300D01*
X-34220Y239300D01*
X-34239Y239297D01*
X-34259Y239299D01*
X-34360Y239277D01*
X-34462Y239261D01*
X-34480Y239251D01*
X-34499Y239247D01*
X-34588Y239194D01*
X-34680Y239145D01*
X-34693Y239131D01*
X-34710Y239121D01*
X-34778Y239042D01*
X-34849Y238967D01*
X-34857Y238949D01*
X-34870Y238934D01*
X-34909Y238838D01*
X-34953Y238744D01*
X-34955Y238724D01*
X-34962Y238706D01*
X-34981Y238539D01*
X-34981Y230427D01*
X-35040Y230368D01*
X-35093Y230294D01*
X-35152Y230224D01*
X-35165Y230194D01*
X-35183Y230168D01*
X-35210Y230081D01*
X-35244Y229996D01*
X-35249Y229955D01*
X-35256Y229933D01*
X-35255Y229901D01*
X-35263Y229829D01*
X-35263Y229419D01*
X-35251Y229348D01*
X-35249Y229276D01*
X-35231Y229227D01*
X-35223Y229176D01*
X-35190Y229113D01*
X-35165Y229045D01*
X-35132Y229005D01*
X-35108Y228959D01*
X-35056Y228909D01*
X-35011Y228853D01*
X-34967Y228825D01*
X-34930Y228789D01*
X-34864Y228759D01*
X-34804Y228720D01*
X-34754Y228708D01*
X-34707Y228686D01*
X-34635Y228678D01*
X-34566Y228660D01*
X-34514Y228664D01*
X-34462Y228659D01*
X-34392Y228674D01*
X-34320Y228679D01*
X-34273Y228700D01*
X-34222Y228711D01*
X-34160Y228748D01*
X-34094Y228776D01*
X-34038Y228821D01*
X-34011Y228837D01*
X-33995Y228855D01*
X-33963Y228881D01*
X-33669Y229175D01*
X-26406Y229175D01*
X-25641Y228410D01*
X-25567Y228357D01*
X-25497Y228297D01*
X-25467Y228285D01*
X-25441Y228266D01*
X-25354Y228239D01*
X-25269Y228205D01*
X-25228Y228201D01*
X-25206Y228194D01*
X-25174Y228195D01*
X-25103Y228187D01*
X-21584Y228187D01*
X-21513Y228198D01*
X-21442Y228200D01*
X-21393Y228218D01*
X-21341Y228226D01*
X-21278Y228260D01*
X-21211Y228285D01*
X-21170Y228317D01*
X-21124Y228342D01*
X-21075Y228394D01*
X-21019Y228438D01*
X-20990Y228482D01*
X-20955Y228520D01*
X-20924Y228585D01*
X-20886Y228645D01*
X-20873Y228696D01*
X-20851Y228743D01*
X-20843Y228814D01*
X-20826Y228884D01*
X-20830Y228936D01*
X-20824Y228987D01*
X-20839Y229058D01*
X-20845Y229129D01*
X-20865Y229177D01*
X-20876Y229228D01*
X-20913Y229289D01*
X-20941Y229355D01*
X-20986Y229411D01*
X-21002Y229439D01*
X-21020Y229454D01*
X-21046Y229486D01*
X-24325Y232765D01*
X-24325Y237135D01*
X-21235Y240225D01*
X-16865Y240225D01*
X-13775Y237135D01*
X-13775Y233048D01*
X-13772Y233029D01*
X-13774Y233009D01*
X-13752Y232908D01*
X-13736Y232806D01*
X-13726Y232788D01*
X-13722Y232769D01*
X-13669Y232680D01*
X-13620Y232588D01*
X-13606Y232575D01*
X-13596Y232558D01*
X-13517Y232490D01*
X-13442Y232419D01*
X-13424Y232411D01*
X-13409Y232398D01*
X-13313Y232359D01*
X-13219Y232315D01*
X-13199Y232313D01*
X-13181Y232306D01*
X-13014Y232287D01*
X-10515Y232287D01*
X-7425Y229197D01*
X-7425Y224828D01*
X-10515Y221738D01*
X-12102Y221738D01*
X-12122Y221735D01*
X-12142Y221737D01*
X-12243Y221715D01*
X-12345Y221698D01*
X-12362Y221689D01*
X-12382Y221684D01*
X-12471Y221631D01*
X-12562Y221583D01*
X-12576Y221569D01*
X-12593Y221558D01*
X-12660Y221480D01*
X-12732Y221405D01*
X-12740Y221387D01*
X-12753Y221371D01*
X-12792Y221275D01*
X-12835Y221182D01*
X-12837Y221162D01*
X-12845Y221143D01*
X-12863Y220977D01*
X-12863Y207740D01*
X-14953Y205651D01*
X-15006Y205577D01*
X-15065Y205507D01*
X-15078Y205477D01*
X-15096Y205451D01*
X-15123Y205364D01*
X-15157Y205279D01*
X-15162Y205238D01*
X-15169Y205216D01*
X-15168Y205184D01*
X-15176Y205112D01*
X-15176Y189384D01*
X-15164Y189313D01*
X-15162Y189242D01*
X-15144Y189193D01*
X-15136Y189141D01*
X-15102Y189078D01*
X-15078Y189011D01*
X-15045Y188970D01*
X-15021Y188924D01*
X-14969Y188875D01*
X-14924Y188819D01*
X-14880Y188791D01*
X-14843Y188755D01*
X-14778Y188724D01*
X-14717Y188686D01*
X-14667Y188673D01*
X-14620Y188651D01*
X-14548Y188643D01*
X-14479Y188626D01*
X-14427Y188630D01*
X-14375Y188624D01*
X-14305Y188639D01*
X-14234Y188645D01*
X-14186Y188665D01*
X-14135Y188676D01*
X-14073Y188713D01*
X-14007Y188741D01*
X-13951Y188786D01*
X-13924Y188802D01*
X-13908Y188820D01*
X-13876Y188846D01*
X-13297Y189425D01*
X-8928Y189425D01*
X-5838Y186335D01*
X-5838Y181965D01*
X-8928Y178875D01*
X-13297Y178875D01*
X-13876Y179454D01*
X-13934Y179496D01*
X-13986Y179545D01*
X-14034Y179567D01*
X-14076Y179598D01*
X-14144Y179619D01*
X-14210Y179649D01*
X-14261Y179655D01*
X-14311Y179670D01*
X-14383Y179668D01*
X-14454Y179676D01*
X-14505Y179665D01*
X-14557Y179664D01*
X-14624Y179639D01*
X-14694Y179624D01*
X-14739Y179597D01*
X-14788Y179579D01*
X-14844Y179534D01*
X-14905Y179498D01*
X-14939Y179458D01*
X-14980Y179426D01*
X-15019Y179365D01*
X-15065Y179311D01*
X-15085Y179262D01*
X-15113Y179219D01*
X-15130Y179149D01*
X-15157Y179083D01*
X-15165Y179011D01*
X-15173Y178980D01*
X-15171Y178957D01*
X-15176Y178916D01*
X-15176Y163786D01*
X-15173Y163766D01*
X-15175Y163747D01*
X-15153Y163645D01*
X-15136Y163543D01*
X-15127Y163526D01*
X-15122Y163506D01*
X-15069Y163417D01*
X-15021Y163326D01*
X-15007Y163312D01*
X-14996Y163295D01*
X-14918Y163228D01*
X-14843Y163156D01*
X-14825Y163148D01*
X-14809Y163135D01*
X-14713Y163096D01*
X-14620Y163053D01*
X-14600Y163051D01*
X-14581Y163043D01*
X-14415Y163025D01*
X-14104Y163025D01*
X-11600Y160521D01*
X-11600Y156979D01*
X-12842Y155738D01*
X-12853Y155722D01*
X-12869Y155709D01*
X-12925Y155622D01*
X-12985Y155538D01*
X-12991Y155519D01*
X-13002Y155502D01*
X-13027Y155402D01*
X-13058Y155303D01*
X-13057Y155283D01*
X-13062Y155264D01*
X-13054Y155161D01*
X-13051Y155057D01*
X-13044Y155038D01*
X-13043Y155019D01*
X-13003Y154924D01*
X-12967Y154826D01*
X-12954Y154810D01*
X-12947Y154792D01*
X-12842Y154661D01*
X-11600Y153420D01*
X-11600Y149878D01*
X-14104Y147374D01*
X-14457Y147374D01*
X-14527Y147363D01*
X-14599Y147361D01*
X-14648Y147343D01*
X-14699Y147335D01*
X-14763Y147301D01*
X-14830Y147276D01*
X-14871Y147244D01*
X-14917Y147219D01*
X-14966Y147167D01*
X-15022Y147123D01*
X-15050Y147079D01*
X-15086Y147041D01*
X-15116Y146976D01*
X-15155Y146916D01*
X-15168Y146865D01*
X-15190Y146818D01*
X-15198Y146747D01*
X-15215Y146677D01*
X-15211Y146625D01*
X-15217Y146574D01*
X-15201Y146503D01*
X-15196Y146432D01*
X-15176Y146384D01*
X-15164Y146333D01*
X-15128Y146272D01*
X-15100Y146206D01*
X-15055Y146150D01*
X-15038Y146122D01*
X-15021Y146107D01*
X-14995Y146075D01*
X-4696Y135776D01*
X-4680Y135764D01*
X-4667Y135749D01*
X-4580Y135693D01*
X-4496Y135632D01*
X-4477Y135627D01*
X-4460Y135616D01*
X-4360Y135590D01*
X-4261Y135560D01*
X-4241Y135561D01*
X-4222Y135556D01*
X-4119Y135564D01*
X-4015Y135566D01*
X-3996Y135573D01*
X-3977Y135575D01*
X-3882Y135615D01*
X-3784Y135651D01*
X-3769Y135663D01*
X-3750Y135671D01*
X-3619Y135776D01*
X-1771Y137625D01*
X1771Y137625D01*
X3536Y135860D01*
X3610Y135807D01*
X3679Y135747D01*
X3709Y135735D01*
X3735Y135716D01*
X3822Y135689D01*
X3907Y135655D01*
X3948Y135651D01*
X3971Y135644D01*
X4003Y135645D01*
X4074Y135637D01*
X5087Y135637D01*
X5178Y135651D01*
X5268Y135659D01*
X5298Y135671D01*
X5330Y135676D01*
X5411Y135719D01*
X5495Y135755D01*
X5527Y135781D01*
X5548Y135792D01*
X5570Y135815D01*
X5626Y135860D01*
X6742Y136976D01*
X6795Y137050D01*
X6854Y137119D01*
X6867Y137149D01*
X6885Y137175D01*
X6912Y137262D01*
X6946Y137347D01*
X6951Y137388D01*
X6958Y137411D01*
X6957Y137443D01*
X6965Y137514D01*
X6965Y144321D01*
X17233Y154589D01*
X17274Y154647D01*
X17324Y154699D01*
X17346Y154746D01*
X17376Y154788D01*
X17397Y154857D01*
X17427Y154922D01*
X17433Y154974D01*
X17449Y155023D01*
X17447Y155095D01*
X17455Y155166D01*
X17444Y155217D01*
X17442Y155269D01*
X17418Y155337D01*
X17402Y155407D01*
X17376Y155451D01*
X17358Y155500D01*
X17313Y155556D01*
X17276Y155618D01*
X17237Y155652D01*
X17204Y155692D01*
X17144Y155731D01*
X17089Y155778D01*
X17041Y155797D01*
X16997Y155825D01*
X16928Y155843D01*
X16861Y155870D01*
X16790Y155878D01*
X16759Y155885D01*
X16735Y155884D01*
X16694Y155888D01*
X15867Y155888D01*
X13362Y158392D01*
X13362Y161933D01*
X15867Y164438D01*
X17393Y164438D01*
X17464Y164449D01*
X17536Y164451D01*
X17585Y164469D01*
X17636Y164477D01*
X17699Y164511D01*
X17767Y164535D01*
X17807Y164568D01*
X17853Y164592D01*
X17903Y164644D01*
X17959Y164689D01*
X17987Y164733D01*
X18023Y164771D01*
X18053Y164836D01*
X18092Y164896D01*
X18105Y164947D01*
X18126Y164994D01*
X18134Y165065D01*
X18152Y165135D01*
X18148Y165187D01*
X18154Y165238D01*
X18138Y165308D01*
X18133Y165380D01*
X18112Y165428D01*
X18101Y165479D01*
X18065Y165540D01*
X18036Y165606D01*
X17992Y165662D01*
X17975Y165690D01*
X17957Y165705D01*
X17932Y165737D01*
X17350Y166318D01*
X17350Y176582D01*
X18243Y177475D01*
X19177Y177475D01*
X19197Y177478D01*
X19216Y177476D01*
X19318Y177498D01*
X19420Y177514D01*
X19437Y177524D01*
X19457Y177528D01*
X19546Y177581D01*
X19637Y177630D01*
X19651Y177644D01*
X19668Y177654D01*
X19735Y177733D01*
X19807Y177808D01*
X19815Y177826D01*
X19828Y177841D01*
X19867Y177937D01*
X19910Y178031D01*
X19912Y178051D01*
X19920Y178069D01*
X19938Y178236D01*
X19938Y183339D01*
X19924Y183430D01*
X19916Y183520D01*
X19904Y183550D01*
X19899Y183582D01*
X19856Y183663D01*
X19820Y183747D01*
X19794Y183779D01*
X19783Y183800D01*
X19760Y183822D01*
X19715Y183878D01*
X9080Y194513D01*
X9080Y214334D01*
X10642Y215897D01*
X17521Y222776D01*
X17563Y222834D01*
X17613Y222886D01*
X17635Y222933D01*
X17665Y222975D01*
X17686Y223044D01*
X17716Y223109D01*
X17722Y223161D01*
X17737Y223211D01*
X17735Y223282D01*
X17743Y223353D01*
X17732Y223404D01*
X17731Y223456D01*
X17706Y223524D01*
X17691Y223594D01*
X17664Y223639D01*
X17647Y223687D01*
X17602Y223743D01*
X17565Y223805D01*
X17525Y223839D01*
X17493Y223879D01*
X17433Y223918D01*
X17378Y223965D01*
X17330Y223984D01*
X17286Y224012D01*
X17223Y224028D01*
X14525Y226726D01*
X14525Y230474D01*
X17176Y233125D01*
X20924Y233125D01*
X23575Y230474D01*
X23575Y229936D01*
X23578Y229916D01*
X23576Y229897D01*
X23598Y229795D01*
X23614Y229693D01*
X23624Y229676D01*
X23628Y229656D01*
X23681Y229567D01*
X23730Y229476D01*
X23744Y229462D01*
X23754Y229445D01*
X23833Y229378D01*
X23908Y229306D01*
X23926Y229298D01*
X23941Y229285D01*
X24037Y229246D01*
X24131Y229203D01*
X24151Y229201D01*
X24169Y229193D01*
X24336Y229175D01*
X30494Y229175D01*
X30788Y228881D01*
X30847Y228839D01*
X30898Y228789D01*
X30946Y228767D01*
X30988Y228737D01*
X31056Y228716D01*
X31122Y228686D01*
X31173Y228680D01*
X31223Y228665D01*
X31295Y228667D01*
X31366Y228659D01*
X31417Y228670D01*
X31469Y228671D01*
X31536Y228696D01*
X31606Y228711D01*
X31651Y228738D01*
X31700Y228755D01*
X31756Y228800D01*
X31817Y228837D01*
X31851Y228877D01*
X31892Y228909D01*
X31931Y228969D01*
X31977Y229024D01*
X31997Y229072D01*
X32025Y229116D01*
X32042Y229185D01*
X32069Y229252D01*
X32077Y229323D01*
X32085Y229355D01*
X32083Y229378D01*
X32088Y229419D01*
X32088Y229829D01*
X32073Y229920D01*
X32066Y230010D01*
X32053Y230040D01*
X32048Y230072D01*
X32005Y230153D01*
X31970Y230237D01*
X31944Y230269D01*
X31933Y230290D01*
X31910Y230312D01*
X31865Y230368D01*
X31806Y230427D01*
X31806Y238539D01*
X31803Y238559D01*
X31805Y238578D01*
X31783Y238680D01*
X31766Y238782D01*
X31757Y238799D01*
X31752Y238819D01*
X31699Y238908D01*
X31651Y238999D01*
X31637Y239013D01*
X31626Y239030D01*
X31548Y239097D01*
X31473Y239169D01*
X31455Y239177D01*
X31439Y239190D01*
X31343Y239229D01*
X31250Y239272D01*
X31230Y239274D01*
X31211Y239282D01*
X31045Y239300D01*
X29793Y239300D01*
X28864Y240230D01*
X28861Y240250D01*
X28851Y240267D01*
X28847Y240287D01*
X28794Y240376D01*
X28745Y240467D01*
X28731Y240481D01*
X28721Y240498D01*
X28642Y240565D01*
X28567Y240637D01*
X28549Y240645D01*
X28534Y240658D01*
X28438Y240697D01*
X28344Y240740D01*
X28324Y240742D01*
X28306Y240750D01*
X28139Y240768D01*
X21531Y240768D01*
X21441Y240754D01*
X21350Y240746D01*
X21320Y240734D01*
X21288Y240729D01*
X21207Y240686D01*
X21123Y240650D01*
X21091Y240624D01*
X21071Y240613D01*
X21048Y240590D01*
X20992Y240545D01*
X19647Y239200D01*
X15278Y239200D01*
X12188Y242290D01*
X12188Y246660D01*
X15278Y249750D01*
X19647Y249750D01*
X21292Y248105D01*
X21366Y248052D01*
X21436Y247992D01*
X21466Y247980D01*
X21492Y247961D01*
X21579Y247934D01*
X21664Y247900D01*
X21705Y247896D01*
X21727Y247889D01*
X21759Y247890D01*
X21831Y247882D01*
X28139Y247882D01*
X28159Y247885D01*
X28178Y247883D01*
X28280Y247905D01*
X28382Y247921D01*
X28399Y247931D01*
X28419Y247935D01*
X28508Y247988D01*
X28599Y248037D01*
X28613Y248051D01*
X28630Y248061D01*
X28697Y248140D01*
X28769Y248215D01*
X28777Y248233D01*
X28790Y248248D01*
X28829Y248344D01*
X28864Y248420D01*
X29793Y249350D01*
X40057Y249350D01*
X40950Y248457D01*
X40950Y240193D01*
X40057Y239300D01*
X39680Y239300D01*
X39661Y239297D01*
X39641Y239299D01*
X39540Y239277D01*
X39438Y239261D01*
X39420Y239251D01*
X39401Y239247D01*
X39312Y239194D01*
X39220Y239145D01*
X39207Y239131D01*
X39190Y239121D01*
X39122Y239042D01*
X39051Y238967D01*
X39043Y238949D01*
X39030Y238934D01*
X38991Y238838D01*
X38947Y238744D01*
X38945Y238724D01*
X38938Y238706D01*
X38919Y238539D01*
X38919Y230427D01*
X38860Y230368D01*
X38807Y230294D01*
X38748Y230224D01*
X38735Y230194D01*
X38717Y230168D01*
X38690Y230081D01*
X38656Y229996D01*
X38651Y229955D01*
X38644Y229933D01*
X38645Y229901D01*
X38637Y229829D01*
X38637Y228686D01*
X38640Y228666D01*
X38638Y228647D01*
X38660Y228545D01*
X38677Y228443D01*
X38686Y228426D01*
X38691Y228406D01*
X38744Y228317D01*
X38792Y228226D01*
X38806Y228212D01*
X38817Y228195D01*
X38895Y228128D01*
X38970Y228056D01*
X38988Y228048D01*
X39004Y228035D01*
X39100Y227996D01*
X39193Y227953D01*
X39213Y227951D01*
X39232Y227943D01*
X39398Y227925D01*
X46327Y227925D01*
X46346Y227928D01*
X46366Y227926D01*
X46467Y227948D01*
X46569Y227964D01*
X46587Y227974D01*
X46606Y227978D01*
X46695Y228031D01*
X46787Y228080D01*
X46800Y228094D01*
X46817Y228104D01*
X46885Y228183D01*
X46956Y228258D01*
X46964Y228276D01*
X46977Y228291D01*
X47016Y228387D01*
X47060Y228481D01*
X47062Y228501D01*
X47069Y228519D01*
X47088Y228686D01*
X47088Y229829D01*
X47073Y229920D01*
X47066Y230010D01*
X47053Y230040D01*
X47048Y230072D01*
X47005Y230153D01*
X46970Y230237D01*
X46944Y230269D01*
X46933Y230290D01*
X46910Y230312D01*
X46865Y230368D01*
X46806Y230427D01*
X46806Y238539D01*
X46803Y238559D01*
X46805Y238578D01*
X46783Y238680D01*
X46766Y238782D01*
X46757Y238799D01*
X46752Y238819D01*
X46699Y238908D01*
X46651Y238999D01*
X46637Y239013D01*
X46626Y239030D01*
X46548Y239097D01*
X46473Y239169D01*
X46455Y239177D01*
X46439Y239190D01*
X46343Y239229D01*
X46250Y239272D01*
X46230Y239274D01*
X46211Y239282D01*
X46045Y239300D01*
X45668Y239300D01*
X44775Y240193D01*
X44775Y248457D01*
X45668Y249350D01*
X55932Y249350D01*
X56298Y248984D01*
X56314Y248972D01*
X56326Y248957D01*
X56413Y248901D01*
X56497Y248840D01*
X56516Y248834D01*
X56533Y248824D01*
X56634Y248798D01*
X56732Y248768D01*
X56752Y248768D01*
X56772Y248763D01*
X56875Y248772D01*
X56978Y248774D01*
X56997Y248781D01*
X57017Y248783D01*
X57112Y248823D01*
X57209Y248859D01*
X57225Y248871D01*
X57243Y248879D01*
X57374Y248984D01*
X58140Y249750D01*
X62510Y249750D01*
X65600Y246660D01*
X65600Y242290D01*
X62510Y239200D01*
X58140Y239200D01*
X57524Y239816D01*
X57508Y239828D01*
X57495Y239843D01*
X57408Y239900D01*
X57324Y239960D01*
X57305Y239966D01*
X57289Y239976D01*
X57188Y240002D01*
X57089Y240032D01*
X57069Y240032D01*
X57050Y240037D01*
X56947Y240028D01*
X56843Y240026D01*
X56825Y240019D01*
X56805Y240017D01*
X56710Y239977D01*
X56612Y239941D01*
X56597Y239929D01*
X56578Y239921D01*
X56448Y239816D01*
X55932Y239300D01*
X54680Y239300D01*
X54661Y239297D01*
X54641Y239299D01*
X54540Y239277D01*
X54438Y239261D01*
X54420Y239251D01*
X54401Y239247D01*
X54312Y239194D01*
X54220Y239145D01*
X54207Y239131D01*
X54190Y239121D01*
X54122Y239042D01*
X54051Y238967D01*
X54043Y238949D01*
X54030Y238934D01*
X53991Y238838D01*
X53947Y238744D01*
X53945Y238724D01*
X53938Y238706D01*
X53919Y238539D01*
X53919Y230427D01*
X53860Y230368D01*
X53807Y230294D01*
X53748Y230224D01*
X53736Y230194D01*
X53717Y230168D01*
X53690Y230081D01*
X53656Y229996D01*
X53651Y229955D01*
X53644Y229933D01*
X53645Y229901D01*
X53637Y229829D01*
X53637Y229419D01*
X53649Y229348D01*
X53651Y229276D01*
X53669Y229227D01*
X53677Y229176D01*
X53710Y229113D01*
X53735Y229045D01*
X53768Y229005D01*
X53792Y228959D01*
X53844Y228909D01*
X53889Y228853D01*
X53933Y228825D01*
X53970Y228789D01*
X54036Y228759D01*
X54096Y228720D01*
X54146Y228708D01*
X54193Y228686D01*
X54265Y228678D01*
X54334Y228660D01*
X54386Y228664D01*
X54438Y228659D01*
X54508Y228674D01*
X54580Y228679D01*
X54627Y228700D01*
X54678Y228711D01*
X54740Y228748D01*
X54806Y228776D01*
X54862Y228821D01*
X54889Y228837D01*
X54905Y228855D01*
X54937Y228881D01*
X55231Y229175D01*
X55289Y229175D01*
X55309Y229178D01*
X55328Y229176D01*
X55430Y229198D01*
X55532Y229214D01*
X55549Y229224D01*
X55569Y229228D01*
X55658Y229281D01*
X55749Y229330D01*
X55763Y229344D01*
X55780Y229354D01*
X55847Y229433D01*
X55919Y229508D01*
X55927Y229526D01*
X55940Y229541D01*
X55979Y229637D01*
X56022Y229731D01*
X56024Y229751D01*
X56032Y229769D01*
X56050Y229936D01*
X56050Y233546D01*
X58554Y236050D01*
X62096Y236050D01*
X64600Y233546D01*
X64600Y230004D01*
X63610Y229015D01*
X63557Y228941D01*
X63498Y228871D01*
X63486Y228841D01*
X63467Y228815D01*
X63440Y228728D01*
X63406Y228643D01*
X63401Y228602D01*
X63394Y228580D01*
X63395Y228548D01*
X63387Y228477D01*
X63387Y225706D01*
X63390Y225686D01*
X63388Y225666D01*
X63410Y225565D01*
X63427Y225463D01*
X63436Y225445D01*
X63441Y225426D01*
X63494Y225337D01*
X63542Y225246D01*
X63556Y225232D01*
X63567Y225215D01*
X63645Y225147D01*
X63720Y225076D01*
X63738Y225068D01*
X63754Y225055D01*
X63850Y225016D01*
X63943Y224973D01*
X63963Y224970D01*
X63982Y224963D01*
X64148Y224944D01*
X66956Y224944D01*
X67046Y224959D01*
X67137Y224966D01*
X67167Y224979D01*
X67199Y224984D01*
X67279Y225027D01*
X67363Y225063D01*
X67395Y225088D01*
X67416Y225099D01*
X67438Y225123D01*
X67494Y225167D01*
X69765Y227438D01*
X73306Y227438D01*
X75810Y224934D01*
X75810Y221393D01*
X73306Y218889D01*
X71711Y218889D01*
X71691Y218886D01*
X71672Y218888D01*
X71570Y218866D01*
X71468Y218849D01*
X71451Y218840D01*
X71431Y218835D01*
X71342Y218782D01*
X71251Y218734D01*
X71237Y218720D01*
X71220Y218709D01*
X71153Y218631D01*
X71081Y218556D01*
X71073Y218538D01*
X71060Y218522D01*
X71021Y218426D01*
X70978Y218333D01*
X70976Y218313D01*
X70968Y218294D01*
X70950Y218128D01*
X70950Y215717D01*
X69719Y214486D01*
X69677Y214428D01*
X69628Y214376D01*
X69606Y214329D01*
X69576Y214287D01*
X69555Y214218D01*
X69524Y214153D01*
X69519Y214101D01*
X69503Y214051D01*
X69505Y213980D01*
X69497Y213909D01*
X69508Y213858D01*
X69510Y213806D01*
X69534Y213738D01*
X69549Y213668D01*
X69576Y213623D01*
X69594Y213575D01*
X69639Y213519D01*
X69676Y213457D01*
X69715Y213423D01*
X69748Y213383D01*
X69808Y213344D01*
X69863Y213297D01*
X69911Y213278D01*
X69955Y213250D01*
X70024Y213232D01*
X70091Y213205D01*
X70162Y213197D01*
X70193Y213189D01*
X70216Y213191D01*
X70257Y213187D01*
X73476Y213187D01*
X73566Y213201D01*
X73657Y213209D01*
X73687Y213221D01*
X73719Y213226D01*
X73799Y213269D01*
X73883Y213305D01*
X73915Y213331D01*
X73936Y213342D01*
X73958Y213365D01*
X74014Y213410D01*
X76017Y215412D01*
X79558Y215412D01*
X82062Y212908D01*
X82062Y209367D01*
X79558Y206863D01*
X76017Y206863D01*
X74489Y208390D01*
X74415Y208443D01*
X74346Y208503D01*
X74316Y208515D01*
X74290Y208534D01*
X74203Y208561D01*
X74118Y208595D01*
X74077Y208599D01*
X74054Y208606D01*
X74022Y208605D01*
X73951Y208613D01*
X64148Y208613D01*
X64129Y208610D01*
X64109Y208612D01*
X64008Y208590D01*
X63906Y208574D01*
X63888Y208564D01*
X63869Y208560D01*
X63780Y208507D01*
X63688Y208458D01*
X63675Y208444D01*
X63658Y208434D01*
X63590Y208355D01*
X63519Y208280D01*
X63511Y208262D01*
X63498Y208247D01*
X63459Y208151D01*
X63415Y208057D01*
X63413Y208037D01*
X63406Y208019D01*
X63387Y207852D01*
X63387Y203518D01*
X62494Y202625D01*
X55231Y202625D01*
X54204Y203652D01*
X54130Y203705D01*
X54061Y203765D01*
X54030Y203777D01*
X54004Y203796D01*
X53917Y203823D01*
X53832Y203857D01*
X53791Y203861D01*
X53769Y203868D01*
X53737Y203867D01*
X53666Y203875D01*
X39398Y203875D01*
X39379Y203872D01*
X39359Y203874D01*
X39258Y203852D01*
X39156Y203836D01*
X39138Y203826D01*
X39119Y203822D01*
X39030Y203769D01*
X38938Y203720D01*
X38925Y203706D01*
X38908Y203696D01*
X38840Y203617D01*
X38769Y203542D01*
X38761Y203524D01*
X38748Y203509D01*
X38709Y203413D01*
X38665Y203319D01*
X38663Y203299D01*
X38656Y203281D01*
X38637Y203114D01*
X38637Y196099D01*
X38649Y196028D01*
X38651Y195957D01*
X38669Y195908D01*
X38677Y195856D01*
X38711Y195793D01*
X38735Y195726D01*
X38768Y195685D01*
X38792Y195639D01*
X38844Y195590D01*
X38889Y195534D01*
X38933Y195505D01*
X38970Y195469D01*
X39035Y195439D01*
X39096Y195401D01*
X39146Y195388D01*
X39193Y195366D01*
X39265Y195358D01*
X39334Y195340D01*
X39386Y195345D01*
X39438Y195339D01*
X39508Y195354D01*
X39579Y195360D01*
X39627Y195380D01*
X39678Y195391D01*
X39740Y195428D01*
X39806Y195456D01*
X39862Y195501D01*
X39889Y195517D01*
X39905Y195535D01*
X39937Y195561D01*
X40988Y196612D01*
X44737Y196612D01*
X47387Y193962D01*
X47387Y190119D01*
X47390Y190099D01*
X47388Y190080D01*
X47410Y189978D01*
X47427Y189876D01*
X47436Y189859D01*
X47441Y189839D01*
X47494Y189750D01*
X47542Y189659D01*
X47556Y189645D01*
X47567Y189628D01*
X47645Y189561D01*
X47720Y189489D01*
X47738Y189481D01*
X47754Y189468D01*
X47850Y189429D01*
X47943Y189386D01*
X47963Y189384D01*
X47982Y189376D01*
X48148Y189358D01*
X53230Y189358D01*
X54420Y188167D01*
X54420Y187348D01*
X54423Y187329D01*
X54421Y187309D01*
X54443Y187208D01*
X54460Y187106D01*
X54469Y187088D01*
X54474Y187069D01*
X54527Y186980D01*
X54575Y186888D01*
X54589Y186875D01*
X54600Y186858D01*
X54678Y186790D01*
X54753Y186719D01*
X54771Y186711D01*
X54787Y186698D01*
X54883Y186659D01*
X54976Y186615D01*
X54996Y186613D01*
X55015Y186606D01*
X55181Y186587D01*
X60307Y186587D01*
X61200Y185694D01*
X61200Y179431D01*
X60307Y178538D01*
X55181Y178538D01*
X55162Y178535D01*
X55142Y178537D01*
X55041Y178515D01*
X54939Y178498D01*
X54921Y178489D01*
X54902Y178484D01*
X54813Y178431D01*
X54721Y178383D01*
X54708Y178369D01*
X54691Y178358D01*
X54623Y178280D01*
X54552Y178205D01*
X54544Y178187D01*
X54531Y178171D01*
X54492Y178075D01*
X54448Y177982D01*
X54446Y177962D01*
X54439Y177943D01*
X54420Y177777D01*
X54420Y161083D01*
X54213Y160876D01*
X54201Y160860D01*
X54186Y160847D01*
X54130Y160760D01*
X54069Y160676D01*
X54064Y160657D01*
X54053Y160640D01*
X54028Y160540D01*
X53997Y160441D01*
X53998Y160421D01*
X53993Y160402D01*
X54001Y160299D01*
X54003Y160195D01*
X54010Y160176D01*
X54012Y160156D01*
X54052Y160062D01*
X54088Y159964D01*
X54100Y159948D01*
X54108Y159930D01*
X54213Y159799D01*
X54420Y159592D01*
X54420Y100753D01*
X54392Y100713D01*
X54342Y100661D01*
X54320Y100614D01*
X54290Y100572D01*
X54269Y100503D01*
X54239Y100438D01*
X54233Y100386D01*
X54218Y100336D01*
X54219Y100265D01*
X54211Y100193D01*
X54223Y100143D01*
X54224Y100091D01*
X54248Y100023D01*
X54264Y99953D01*
X54290Y99908D01*
X54308Y99860D01*
X54353Y99804D01*
X54390Y99742D01*
X54429Y99708D01*
X54462Y99667D01*
X54522Y99629D01*
X54577Y99582D01*
X54625Y99563D01*
X54669Y99534D01*
X54738Y99517D01*
X54805Y99490D01*
X54876Y99482D01*
X54907Y99474D01*
X54931Y99476D01*
X54972Y99472D01*
X56153Y99472D01*
X56224Y99483D01*
G37*
G36*
X-103098Y88150D02*
X-103098Y88150D01*
X-103027Y88146D01*
X-102976Y88160D01*
X-102923Y88164D01*
X-102858Y88191D01*
X-102790Y88210D01*
X-102746Y88239D01*
X-102697Y88260D01*
X-102609Y88330D01*
X-102585Y88346D01*
X-102579Y88355D01*
X-102566Y88365D01*
X-91988Y98943D01*
X-38836Y98943D01*
X-38816Y98946D01*
X-38797Y98944D01*
X-38695Y98966D01*
X-38593Y98982D01*
X-38576Y98992D01*
X-38556Y98996D01*
X-38467Y99049D01*
X-38376Y99098D01*
X-38362Y99112D01*
X-38345Y99122D01*
X-38278Y99201D01*
X-38206Y99276D01*
X-38198Y99294D01*
X-38185Y99309D01*
X-38146Y99405D01*
X-38103Y99499D01*
X-38101Y99519D01*
X-38093Y99537D01*
X-38075Y99704D01*
X-38075Y103305D01*
X-38014Y103365D01*
X-38002Y103381D01*
X-37987Y103394D01*
X-37931Y103481D01*
X-37871Y103565D01*
X-37865Y103584D01*
X-37854Y103601D01*
X-37829Y103701D01*
X-37798Y103800D01*
X-37799Y103820D01*
X-37794Y103839D01*
X-37802Y103942D01*
X-37805Y104046D01*
X-37811Y104065D01*
X-37813Y104084D01*
X-37853Y104180D01*
X-37889Y104277D01*
X-37901Y104293D01*
X-37909Y104311D01*
X-38014Y104442D01*
X-38075Y104502D01*
X-38075Y108358D01*
X-38078Y108378D01*
X-38076Y108397D01*
X-38098Y108499D01*
X-38114Y108601D01*
X-38124Y108618D01*
X-38128Y108638D01*
X-38181Y108727D01*
X-38230Y108818D01*
X-38244Y108832D01*
X-38254Y108849D01*
X-38333Y108916D01*
X-38408Y108988D01*
X-38426Y108996D01*
X-38441Y109009D01*
X-38537Y109048D01*
X-38631Y109091D01*
X-38651Y109093D01*
X-38669Y109101D01*
X-38836Y109119D01*
X-41097Y109119D01*
X-42462Y110484D01*
X-42536Y110537D01*
X-42605Y110596D01*
X-42635Y110609D01*
X-42661Y110627D01*
X-42748Y110654D01*
X-42833Y110688D01*
X-42874Y110693D01*
X-42897Y110700D01*
X-42929Y110699D01*
X-43000Y110707D01*
X-66316Y110707D01*
X-72162Y116553D01*
X-72236Y116606D01*
X-72305Y116665D01*
X-72335Y116678D01*
X-72361Y116696D01*
X-72448Y116723D01*
X-72533Y116757D01*
X-72574Y116762D01*
X-72597Y116769D01*
X-72629Y116768D01*
X-72700Y116776D01*
X-82615Y116776D01*
X-82730Y116757D01*
X-82846Y116740D01*
X-82852Y116737D01*
X-82858Y116736D01*
X-82961Y116682D01*
X-83066Y116628D01*
X-83070Y116624D01*
X-83075Y116621D01*
X-83155Y116537D01*
X-83238Y116453D01*
X-83241Y116446D01*
X-83245Y116443D01*
X-83253Y116426D01*
X-83319Y116306D01*
X-84322Y113882D01*
X-86895Y111310D01*
X-90256Y109918D01*
X-93894Y109918D01*
X-97255Y111310D01*
X-99828Y113882D01*
X-101220Y117244D01*
X-101220Y120881D01*
X-99828Y124243D01*
X-97255Y126815D01*
X-93894Y128207D01*
X-90256Y128207D01*
X-86895Y126815D01*
X-84322Y124243D01*
X-83319Y121819D01*
X-83257Y121720D01*
X-83197Y121620D01*
X-83192Y121615D01*
X-83189Y121610D01*
X-83099Y121536D01*
X-83010Y121460D01*
X-83004Y121457D01*
X-83000Y121453D01*
X-82891Y121412D01*
X-82782Y121368D01*
X-82775Y121367D01*
X-82770Y121365D01*
X-82752Y121364D01*
X-82615Y121349D01*
X-74033Y121349D01*
X-73963Y121361D01*
X-73891Y121363D01*
X-73842Y121381D01*
X-73791Y121389D01*
X-73727Y121422D01*
X-73660Y121447D01*
X-73619Y121480D01*
X-73573Y121504D01*
X-73524Y121556D01*
X-73468Y121601D01*
X-73440Y121645D01*
X-73404Y121682D01*
X-73374Y121747D01*
X-73335Y121808D01*
X-73322Y121858D01*
X-73300Y121905D01*
X-73292Y121977D01*
X-73275Y122046D01*
X-73279Y122098D01*
X-73273Y122150D01*
X-73288Y122220D01*
X-73294Y122291D01*
X-73314Y122339D01*
X-73325Y122390D01*
X-73362Y122452D01*
X-73390Y122518D01*
X-73435Y122574D01*
X-73452Y122601D01*
X-73469Y122617D01*
X-73495Y122649D01*
X-87003Y136157D01*
X-87097Y136224D01*
X-87192Y136295D01*
X-87198Y136296D01*
X-87203Y136300D01*
X-87314Y136334D01*
X-87426Y136371D01*
X-87432Y136371D01*
X-87438Y136372D01*
X-87555Y136369D01*
X-87671Y136368D01*
X-87679Y136366D01*
X-87684Y136366D01*
X-87701Y136360D01*
X-87833Y136322D01*
X-90256Y135318D01*
X-93894Y135318D01*
X-97255Y136710D01*
X-99828Y139282D01*
X-101220Y142644D01*
X-101220Y146281D01*
X-99828Y149643D01*
X-97255Y152215D01*
X-93894Y153607D01*
X-90256Y153607D01*
X-86895Y152215D01*
X-84322Y149643D01*
X-82930Y146281D01*
X-82930Y142644D01*
X-83934Y140220D01*
X-83961Y140107D01*
X-83989Y139993D01*
X-83989Y139987D01*
X-83990Y139981D01*
X-83979Y139864D01*
X-83970Y139748D01*
X-83968Y139742D01*
X-83967Y139736D01*
X-83919Y139628D01*
X-83874Y139521D01*
X-83869Y139516D01*
X-83867Y139511D01*
X-83854Y139497D01*
X-83769Y139390D01*
X-65801Y121422D01*
X-65727Y121369D01*
X-65657Y121310D01*
X-65627Y121297D01*
X-65601Y121279D01*
X-65514Y121252D01*
X-65429Y121218D01*
X-65388Y121213D01*
X-65366Y121206D01*
X-65334Y121207D01*
X-65262Y121199D01*
X-57586Y121199D01*
X-57566Y121202D01*
X-57547Y121200D01*
X-57445Y121222D01*
X-57343Y121239D01*
X-57326Y121248D01*
X-57306Y121253D01*
X-57217Y121306D01*
X-57126Y121354D01*
X-57112Y121368D01*
X-57095Y121379D01*
X-57028Y121457D01*
X-56956Y121532D01*
X-56948Y121550D01*
X-56935Y121566D01*
X-56896Y121662D01*
X-56853Y121755D01*
X-56851Y121775D01*
X-56843Y121794D01*
X-56825Y121960D01*
X-56825Y123044D01*
X-55932Y123937D01*
X-47278Y123937D01*
X-47259Y123940D01*
X-47239Y123938D01*
X-47138Y123960D01*
X-47036Y123977D01*
X-47018Y123986D01*
X-46999Y123991D01*
X-46910Y124044D01*
X-46818Y124092D01*
X-46805Y124106D01*
X-46788Y124117D01*
X-46720Y124195D01*
X-46649Y124270D01*
X-46641Y124288D01*
X-46628Y124304D01*
X-46589Y124400D01*
X-46545Y124493D01*
X-46543Y124513D01*
X-46536Y124532D01*
X-46517Y124698D01*
X-46517Y128196D01*
X-43574Y131140D01*
X-39411Y131140D01*
X-36468Y128196D01*
X-36468Y124034D01*
X-38003Y122499D01*
X-38045Y122441D01*
X-38094Y122389D01*
X-38116Y122341D01*
X-38146Y122299D01*
X-38167Y122231D01*
X-38198Y122165D01*
X-38203Y122114D01*
X-38219Y122064D01*
X-38217Y121992D01*
X-38225Y121921D01*
X-38214Y121870D01*
X-38212Y121818D01*
X-38188Y121751D01*
X-38172Y121681D01*
X-38146Y121636D01*
X-38128Y121587D01*
X-38083Y121531D01*
X-38046Y121470D01*
X-38007Y121436D01*
X-37974Y121395D01*
X-37914Y121356D01*
X-37859Y121310D01*
X-37811Y121290D01*
X-37767Y121262D01*
X-37698Y121245D01*
X-37631Y121218D01*
X-37560Y121210D01*
X-37529Y121202D01*
X-37505Y121204D01*
X-37464Y121199D01*
X-35358Y121199D01*
X-33584Y119425D01*
X-33510Y119372D01*
X-33440Y119312D01*
X-33410Y119300D01*
X-33384Y119281D01*
X-33297Y119254D01*
X-33212Y119220D01*
X-33171Y119216D01*
X-33149Y119209D01*
X-33117Y119210D01*
X-33045Y119202D01*
X-31063Y119202D01*
X-31043Y119205D01*
X-31024Y119203D01*
X-30922Y119225D01*
X-30820Y119241D01*
X-30803Y119251D01*
X-30783Y119255D01*
X-30694Y119308D01*
X-30603Y119357D01*
X-30589Y119371D01*
X-30572Y119381D01*
X-30505Y119460D01*
X-30433Y119535D01*
X-30425Y119553D01*
X-30412Y119568D01*
X-30373Y119664D01*
X-30330Y119758D01*
X-30328Y119778D01*
X-30320Y119796D01*
X-30302Y119963D01*
X-30302Y124688D01*
X-30305Y124708D01*
X-30303Y124727D01*
X-30325Y124829D01*
X-30341Y124931D01*
X-30351Y124948D01*
X-30355Y124968D01*
X-30408Y125057D01*
X-30457Y125148D01*
X-30471Y125162D01*
X-30481Y125179D01*
X-30560Y125246D01*
X-30635Y125318D01*
X-30653Y125326D01*
X-30668Y125339D01*
X-30764Y125378D01*
X-30858Y125421D01*
X-30878Y125423D01*
X-30896Y125431D01*
X-31063Y125449D01*
X-31933Y125449D01*
X-34437Y127953D01*
X-34437Y131495D01*
X-31933Y133999D01*
X-28302Y133999D01*
X-28282Y134002D01*
X-28262Y134000D01*
X-28161Y134022D01*
X-28059Y134038D01*
X-28041Y134048D01*
X-28022Y134052D01*
X-27933Y134105D01*
X-27841Y134154D01*
X-27828Y134168D01*
X-27811Y134178D01*
X-27743Y134257D01*
X-27672Y134332D01*
X-27664Y134350D01*
X-27651Y134365D01*
X-27612Y134461D01*
X-27568Y134555D01*
X-27566Y134575D01*
X-27559Y134593D01*
X-27540Y134760D01*
X-27540Y135668D01*
X-24883Y138325D01*
X-24871Y138341D01*
X-24855Y138354D01*
X-24799Y138441D01*
X-24739Y138525D01*
X-24733Y138544D01*
X-24722Y138561D01*
X-24697Y138661D01*
X-24667Y138760D01*
X-24667Y138780D01*
X-24662Y138799D01*
X-24670Y138902D01*
X-24673Y139006D01*
X-24680Y139025D01*
X-24681Y139045D01*
X-24722Y139140D01*
X-24757Y139237D01*
X-24770Y139253D01*
X-24778Y139271D01*
X-24883Y139402D01*
X-25289Y139809D01*
X-25296Y139890D01*
X-25308Y139920D01*
X-25313Y139952D01*
X-25356Y140033D01*
X-25392Y140117D01*
X-25418Y140149D01*
X-25429Y140169D01*
X-25452Y140192D01*
X-25497Y140248D01*
X-101423Y216174D01*
X-101466Y216205D01*
X-101503Y216244D01*
X-101566Y216276D01*
X-101623Y216318D01*
X-101674Y216333D01*
X-101721Y216358D01*
X-101790Y216369D01*
X-101858Y216390D01*
X-101911Y216389D01*
X-101964Y216397D01*
X-102033Y216385D01*
X-102104Y216384D01*
X-102154Y216365D01*
X-102206Y216357D01*
X-102268Y216324D01*
X-102335Y216299D01*
X-102376Y216266D01*
X-102423Y216241D01*
X-102472Y216190D01*
X-102527Y216145D01*
X-102556Y216101D01*
X-102592Y216062D01*
X-102644Y215963D01*
X-102660Y215939D01*
X-102663Y215928D01*
X-102670Y215914D01*
X-103337Y214213D01*
X-103344Y214179D01*
X-103359Y214148D01*
X-103370Y214060D01*
X-103389Y213973D01*
X-103385Y213938D01*
X-103389Y213904D01*
X-103377Y213825D01*
X-103698Y213268D01*
X-103710Y213237D01*
X-103748Y213165D01*
X-103982Y212569D01*
X-104038Y212525D01*
X-104113Y212477D01*
X-104134Y212450D01*
X-104162Y212428D01*
X-104261Y212293D01*
X-105362Y210384D01*
X-105375Y210351D01*
X-105394Y210323D01*
X-105418Y210237D01*
X-105449Y210154D01*
X-105451Y210119D01*
X-105460Y210086D01*
X-105460Y210006D01*
X-105861Y209503D01*
X-105877Y209474D01*
X-105925Y209409D01*
X-106245Y208854D01*
X-106307Y208819D01*
X-106388Y208782D01*
X-106414Y208759D01*
X-106444Y208742D01*
X-106562Y208623D01*
X-107936Y206899D01*
X-107953Y206869D01*
X-107976Y206843D01*
X-108013Y206762D01*
X-108056Y206684D01*
X-108063Y206650D01*
X-108077Y206619D01*
X-108088Y206540D01*
X-108560Y206102D01*
X-108580Y206076D01*
X-108637Y206019D01*
X-109037Y205518D01*
X-109104Y205492D01*
X-109189Y205468D01*
X-109218Y205449D01*
X-109250Y205436D01*
X-109385Y205336D01*
X-111000Y203837D01*
X-111022Y203809D01*
X-111049Y203788D01*
X-111096Y203713D01*
X-111151Y203642D01*
X-111163Y203610D01*
X-111181Y203580D01*
X-111204Y203505D01*
X-111736Y203142D01*
X-111760Y203119D01*
X-111825Y203071D01*
X-112294Y202635D01*
X-112364Y202620D01*
X-112453Y202609D01*
X-112484Y202594D01*
X-112518Y202586D01*
X-112666Y202508D01*
X-114487Y201265D01*
X-114512Y201241D01*
X-114542Y201224D01*
X-114600Y201157D01*
X-114665Y201096D01*
X-114681Y201065D01*
X-114704Y201039D01*
X-114738Y200967D01*
X-115318Y200688D01*
X-115345Y200669D01*
X-115416Y200631D01*
X-115945Y200270D01*
X-116017Y200265D01*
X-116106Y200267D01*
X-116139Y200257D01*
X-116174Y200255D01*
X-116332Y200199D01*
X-118317Y199242D01*
X-118346Y199222D01*
X-118378Y199210D01*
X-118446Y199152D01*
X-118519Y199101D01*
X-118539Y199073D01*
X-118566Y199051D01*
X-118610Y198985D01*
X-119225Y198795D01*
X-119255Y198780D01*
X-119331Y198754D01*
X-119908Y198475D01*
X-119980Y198481D01*
X-120067Y198497D01*
X-120101Y198492D01*
X-120136Y198495D01*
X-120301Y198463D01*
X-122407Y197813D01*
X-122438Y197797D01*
X-122472Y197789D01*
X-122548Y197743D01*
X-122627Y197703D01*
X-122651Y197679D01*
X-122681Y197660D01*
X-122735Y197602D01*
X-123371Y197506D01*
X-123403Y197496D01*
X-123482Y197481D01*
X-124094Y197292D01*
X-124164Y197308D01*
X-124248Y197336D01*
X-124283Y197336D01*
X-124317Y197344D01*
X-124484Y197338D01*
X-126664Y197009D01*
X-126697Y196998D01*
X-126731Y196995D01*
X-126813Y196960D01*
X-126898Y196933D01*
X-126926Y196912D01*
X-126958Y196899D01*
X-127019Y196849D01*
X-127663Y196849D01*
X-127696Y196844D01*
X-127777Y196841D01*
X-128410Y196745D01*
X-128476Y196772D01*
X-128555Y196812D01*
X-128590Y196817D01*
X-128622Y196830D01*
X-128789Y196849D01*
X-130993Y196848D01*
X-131027Y196842D01*
X-131062Y196845D01*
X-131148Y196823D01*
X-131235Y196808D01*
X-131266Y196792D01*
X-131300Y196783D01*
X-131368Y196743D01*
X-132005Y196839D01*
X-132038Y196839D01*
X-132118Y196848D01*
X-132759Y196847D01*
X-132821Y196884D01*
X-132893Y196936D01*
X-132926Y196946D01*
X-132956Y196963D01*
X-133118Y197007D01*
X-135298Y197334D01*
X-135332Y197334D01*
X-135366Y197342D01*
X-135454Y197332D01*
X-135543Y197331D01*
X-135576Y197320D01*
X-135611Y197316D01*
X-135685Y197287D01*
X-136300Y197476D01*
X-136332Y197481D01*
X-136411Y197502D01*
X-137044Y197597D01*
X-137100Y197642D01*
X-137163Y197704D01*
X-137194Y197719D01*
X-137221Y197741D01*
X-137375Y197808D01*
X-139482Y198457D01*
X-139516Y198462D01*
X-139548Y198474D01*
X-139637Y198478D01*
X-139725Y198490D01*
X-139759Y198484D01*
X-139794Y198486D01*
X-139871Y198468D01*
X-140451Y198747D01*
X-140483Y198756D01*
X-140557Y198788D01*
X-141169Y198977D01*
X-141218Y199030D01*
X-141271Y199101D01*
X-141300Y199120D01*
X-141323Y199146D01*
X-141466Y199235D01*
X-141978Y199482D01*
X-142088Y199514D01*
X-142197Y199549D01*
X-142206Y199549D01*
X-142214Y199551D01*
X-142328Y199547D01*
X-142443Y199545D01*
X-142451Y199542D01*
X-142460Y199542D01*
X-142567Y199501D01*
X-142675Y199463D01*
X-142682Y199457D01*
X-142690Y199454D01*
X-142778Y199382D01*
X-142868Y199311D01*
X-142875Y199303D01*
X-142880Y199298D01*
X-142893Y199279D01*
X-142968Y199176D01*
X-146202Y193574D01*
X-146211Y193551D01*
X-146225Y193532D01*
X-146254Y193437D01*
X-146289Y193344D01*
X-146290Y193320D01*
X-146297Y193297D01*
X-146295Y193197D01*
X-146298Y193098D01*
X-146291Y193075D01*
X-146291Y193051D01*
X-146257Y192957D01*
X-146228Y192862D01*
X-146215Y192842D01*
X-146206Y192820D01*
X-146144Y192742D01*
X-146087Y192661D01*
X-146068Y192646D01*
X-146053Y192628D01*
X-145969Y192574D01*
X-145889Y192515D01*
X-145866Y192508D01*
X-145846Y192495D01*
X-145750Y192470D01*
X-145655Y192440D01*
X-145631Y192440D01*
X-145607Y192435D01*
X-145508Y192442D01*
X-145409Y192444D01*
X-145386Y192452D01*
X-145362Y192454D01*
X-145271Y192493D01*
X-145177Y192526D01*
X-145158Y192541D01*
X-145136Y192550D01*
X-145005Y192655D01*
X-143472Y194187D01*
X-139103Y194187D01*
X-136013Y191097D01*
X-136013Y186728D01*
X-139103Y183638D01*
X-143472Y183638D01*
X-146562Y186728D01*
X-146562Y190109D01*
X-146564Y190117D01*
X-146563Y190120D01*
X-146566Y190134D01*
X-146570Y190157D01*
X-146568Y190205D01*
X-146590Y190277D01*
X-146602Y190352D01*
X-146624Y190394D01*
X-146638Y190440D01*
X-146682Y190502D01*
X-146717Y190569D01*
X-146752Y190602D01*
X-146779Y190642D01*
X-146840Y190687D01*
X-146895Y190739D01*
X-146939Y190759D01*
X-146978Y190787D01*
X-147050Y190810D01*
X-147118Y190842D01*
X-147166Y190848D01*
X-147212Y190862D01*
X-147288Y190861D01*
X-147363Y190869D01*
X-147410Y190859D01*
X-147458Y190859D01*
X-147529Y190833D01*
X-147603Y190817D01*
X-147644Y190793D01*
X-147690Y190777D01*
X-147749Y190730D01*
X-147814Y190691D01*
X-147846Y190655D01*
X-147883Y190625D01*
X-147960Y190521D01*
X-147974Y190504D01*
X-147977Y190498D01*
X-147983Y190490D01*
X-153438Y181042D01*
X-153471Y180952D01*
X-153511Y180866D01*
X-153514Y180838D01*
X-153524Y180812D01*
X-153528Y180716D01*
X-153538Y180622D01*
X-153532Y180594D01*
X-153534Y180566D01*
X-153507Y180474D01*
X-153486Y180381D01*
X-153472Y180357D01*
X-153464Y180330D01*
X-153409Y180252D01*
X-153360Y180170D01*
X-153339Y180152D01*
X-153322Y180129D01*
X-153246Y180072D01*
X-153173Y180010D01*
X-153147Y180000D01*
X-153124Y179983D01*
X-153033Y179954D01*
X-152945Y179918D01*
X-152910Y179914D01*
X-152890Y179908D01*
X-152857Y179908D01*
X-152778Y179900D01*
X-148628Y179900D01*
X-145538Y176810D01*
X-145538Y172440D01*
X-148628Y169350D01*
X-152997Y169350D01*
X-156087Y172440D01*
X-156087Y173611D01*
X-156095Y173658D01*
X-156093Y173706D01*
X-156115Y173779D01*
X-156127Y173854D01*
X-156149Y173896D01*
X-156163Y173942D01*
X-156207Y174004D01*
X-156242Y174071D01*
X-156277Y174104D01*
X-156304Y174143D01*
X-156365Y174188D01*
X-156420Y174240D01*
X-156464Y174261D01*
X-156503Y174289D01*
X-156575Y174312D01*
X-156643Y174344D01*
X-156691Y174349D01*
X-156737Y174364D01*
X-156813Y174363D01*
X-156888Y174371D01*
X-156935Y174361D01*
X-156983Y174360D01*
X-157054Y174335D01*
X-157128Y174319D01*
X-157169Y174294D01*
X-157215Y174278D01*
X-157274Y174232D01*
X-157339Y174193D01*
X-157371Y174156D01*
X-157408Y174127D01*
X-157485Y174023D01*
X-157499Y174006D01*
X-157502Y174000D01*
X-157508Y173992D01*
X-161779Y166593D01*
X-163416Y167723D01*
X-163443Y167735D01*
X-163465Y167753D01*
X-163534Y167774D01*
X-163599Y167801D01*
X-163628Y167802D01*
X-163656Y167810D01*
X-163727Y167802D01*
X-163798Y167802D01*
X-163825Y167791D01*
X-163854Y167788D01*
X-163916Y167753D01*
X-163981Y167725D01*
X-164002Y167704D01*
X-164027Y167690D01*
X-164090Y167613D01*
X-164120Y167582D01*
X-164124Y167572D01*
X-164133Y167562D01*
X-173633Y151062D01*
X-173657Y150989D01*
X-173688Y150918D01*
X-173688Y150895D01*
X-173696Y150873D01*
X-173690Y150796D01*
X-173691Y150719D01*
X-173681Y150695D01*
X-173680Y150675D01*
X-173659Y150635D01*
X-173640Y150583D01*
X-173639Y150578D01*
X-173637Y150576D01*
X-173633Y150563D01*
X-164133Y134063D01*
X-164114Y134042D01*
X-164101Y134015D01*
X-164048Y133968D01*
X-164001Y133914D01*
X-163975Y133902D01*
X-163954Y133882D01*
X-163886Y133859D01*
X-163822Y133828D01*
X-163793Y133827D01*
X-163766Y133818D01*
X-163694Y133822D01*
X-163623Y133819D01*
X-163596Y133829D01*
X-163567Y133831D01*
X-163477Y133874D01*
X-163437Y133888D01*
X-163429Y133896D01*
X-163416Y133902D01*
X-161779Y135032D01*
X-159095Y130383D01*
X-159065Y130346D01*
X-159042Y130304D01*
X-158988Y130252D01*
X-158939Y130193D01*
X-158899Y130167D01*
X-158864Y130134D01*
X-158795Y130102D01*
X-158731Y130062D01*
X-158684Y130051D01*
X-158641Y130031D01*
X-158566Y130022D01*
X-158492Y130005D01*
X-158444Y130009D01*
X-158397Y130004D01*
X-158322Y130020D01*
X-158247Y130026D01*
X-158203Y130046D01*
X-158156Y130056D01*
X-158091Y130095D01*
X-158022Y130125D01*
X-157986Y130157D01*
X-157945Y130182D01*
X-157896Y130239D01*
X-157840Y130291D01*
X-157816Y130332D01*
X-157785Y130369D01*
X-157757Y130439D01*
X-157720Y130505D01*
X-157711Y130552D01*
X-157693Y130597D01*
X-157679Y130725D01*
X-157675Y130747D01*
X-157676Y130754D01*
X-157675Y130764D01*
X-157675Y133947D01*
X-154585Y137037D01*
X-150215Y137037D01*
X-147125Y133947D01*
X-147125Y129578D01*
X-150215Y126488D01*
X-154585Y126488D01*
X-155847Y127750D01*
X-155866Y127764D01*
X-155882Y127782D01*
X-155966Y127835D01*
X-156047Y127893D01*
X-156069Y127900D01*
X-156090Y127913D01*
X-156187Y127936D01*
X-156282Y127966D01*
X-156306Y127965D01*
X-156329Y127971D01*
X-156428Y127962D01*
X-156528Y127959D01*
X-156550Y127951D01*
X-156574Y127949D01*
X-156665Y127909D01*
X-156759Y127875D01*
X-156777Y127860D01*
X-156799Y127850D01*
X-156873Y127783D01*
X-156951Y127721D01*
X-156964Y127701D01*
X-156981Y127685D01*
X-157030Y127598D01*
X-157084Y127514D01*
X-157089Y127491D01*
X-157101Y127470D01*
X-157119Y127372D01*
X-157144Y127276D01*
X-157142Y127252D01*
X-157146Y127228D01*
X-157132Y127129D01*
X-157125Y127030D01*
X-157115Y127008D01*
X-157112Y126984D01*
X-157044Y126831D01*
X-151079Y116498D01*
X-151003Y116405D01*
X-150929Y116313D01*
X-150926Y116311D01*
X-150923Y116308D01*
X-150822Y116244D01*
X-150723Y116180D01*
X-150718Y116179D01*
X-150715Y116177D01*
X-150599Y116149D01*
X-150484Y116120D01*
X-150480Y116121D01*
X-150476Y116120D01*
X-150357Y116130D01*
X-150239Y116139D01*
X-150235Y116141D01*
X-150231Y116141D01*
X-150121Y116189D01*
X-150012Y116236D01*
X-150009Y116239D01*
X-150005Y116240D01*
X-149995Y116250D01*
X-149881Y116341D01*
X-146647Y119575D01*
X-142278Y119575D01*
X-139188Y116485D01*
X-139188Y112115D01*
X-142278Y109025D01*
X-145446Y109025D01*
X-145540Y109010D01*
X-145635Y109001D01*
X-145661Y108990D01*
X-145689Y108986D01*
X-145773Y108941D01*
X-145860Y108903D01*
X-145881Y108884D01*
X-145906Y108870D01*
X-145972Y108802D01*
X-146042Y108737D01*
X-146056Y108713D01*
X-146076Y108692D01*
X-146116Y108606D01*
X-146162Y108522D01*
X-146167Y108495D01*
X-146179Y108469D01*
X-146190Y108374D01*
X-146207Y108281D01*
X-146203Y108253D01*
X-146206Y108225D01*
X-146186Y108131D01*
X-146173Y108037D01*
X-146159Y108005D01*
X-146154Y107984D01*
X-146137Y107956D01*
X-146105Y107883D01*
X-142968Y102449D01*
X-142895Y102360D01*
X-142825Y102270D01*
X-142818Y102265D01*
X-142812Y102258D01*
X-142715Y102197D01*
X-142620Y102135D01*
X-142611Y102132D01*
X-142604Y102128D01*
X-142492Y102101D01*
X-142382Y102072D01*
X-142373Y102072D01*
X-142365Y102070D01*
X-142251Y102080D01*
X-142137Y102088D01*
X-142127Y102091D01*
X-142120Y102092D01*
X-142098Y102101D01*
X-141978Y102143D01*
X-141466Y102390D01*
X-141437Y102410D01*
X-141405Y102423D01*
X-141337Y102480D01*
X-141264Y102531D01*
X-141244Y102559D01*
X-141217Y102582D01*
X-141172Y102647D01*
X-140557Y102837D01*
X-140528Y102851D01*
X-140451Y102878D01*
X-139874Y103156D01*
X-139803Y103150D01*
X-139715Y103134D01*
X-139681Y103140D01*
X-139647Y103137D01*
X-139482Y103168D01*
X-137375Y103817D01*
X-137344Y103833D01*
X-137310Y103840D01*
X-137235Y103887D01*
X-137155Y103927D01*
X-137130Y103951D01*
X-137101Y103969D01*
X-137047Y104028D01*
X-136411Y104123D01*
X-136379Y104133D01*
X-136300Y104149D01*
X-135688Y104337D01*
X-135618Y104321D01*
X-135534Y104292D01*
X-135499Y104292D01*
X-135465Y104284D01*
X-135298Y104291D01*
X-133118Y104618D01*
X-133085Y104629D01*
X-133050Y104632D01*
X-132968Y104667D01*
X-132884Y104694D01*
X-132856Y104714D01*
X-132824Y104728D01*
X-132762Y104778D01*
X-132118Y104777D01*
X-132086Y104783D01*
X-132005Y104786D01*
X-131372Y104881D01*
X-131305Y104854D01*
X-131226Y104814D01*
X-131192Y104809D01*
X-131159Y104796D01*
X-130993Y104777D01*
X-128789Y104776D01*
X-128754Y104782D01*
X-128720Y104779D01*
X-128634Y104802D01*
X-128546Y104816D01*
X-128515Y104832D01*
X-128482Y104841D01*
X-128413Y104881D01*
X-127777Y104784D01*
X-127744Y104785D01*
X-127663Y104776D01*
X-127023Y104776D01*
X-126961Y104739D01*
X-126889Y104687D01*
X-126856Y104677D01*
X-126826Y104660D01*
X-126664Y104616D01*
X-124484Y104287D01*
X-124449Y104288D01*
X-124416Y104280D01*
X-124327Y104289D01*
X-124238Y104290D01*
X-124206Y104302D01*
X-124171Y104305D01*
X-124097Y104334D01*
X-123482Y104144D01*
X-123450Y104140D01*
X-123371Y104119D01*
X-122738Y104023D01*
X-122683Y103978D01*
X-122619Y103916D01*
X-122588Y103901D01*
X-122561Y103879D01*
X-122407Y103812D01*
X-120301Y103162D01*
X-120266Y103157D01*
X-120234Y103145D01*
X-120145Y103140D01*
X-120057Y103128D01*
X-120023Y103135D01*
X-119988Y103133D01*
X-119911Y103151D01*
X-119331Y102871D01*
X-119300Y102862D01*
X-119225Y102830D01*
X-118613Y102641D01*
X-118565Y102588D01*
X-118511Y102517D01*
X-118483Y102497D01*
X-118459Y102472D01*
X-118317Y102383D01*
X-116332Y101426D01*
X-116299Y101416D01*
X-116268Y101399D01*
X-116181Y101381D01*
X-116096Y101356D01*
X-116061Y101358D01*
X-116027Y101351D01*
X-115948Y101357D01*
X-115416Y100994D01*
X-115386Y100980D01*
X-115318Y100937D01*
X-114741Y100659D01*
X-114701Y100599D01*
X-114659Y100521D01*
X-114633Y100498D01*
X-114614Y100469D01*
X-114487Y100360D01*
X-112666Y99117D01*
X-112634Y99103D01*
X-112607Y99081D01*
X-112524Y99051D01*
X-112443Y99014D01*
X-112408Y99010D01*
X-112376Y98998D01*
X-112297Y98992D01*
X-111825Y98554D01*
X-111798Y98536D01*
X-111736Y98483D01*
X-111207Y98122D01*
X-111177Y98057D01*
X-111146Y97974D01*
X-111125Y97947D01*
X-111110Y97915D01*
X-111000Y97788D01*
X-109385Y96289D01*
X-109356Y96269D01*
X-109332Y96244D01*
X-109254Y96202D01*
X-109180Y96153D01*
X-109147Y96144D01*
X-109116Y96127D01*
X-109039Y96110D01*
X-108637Y95606D01*
X-108613Y95584D01*
X-108560Y95523D01*
X-108091Y95087D01*
X-108070Y95018D01*
X-108053Y94931D01*
X-108035Y94901D01*
X-108025Y94868D01*
X-107936Y94726D01*
X-106562Y93002D01*
X-106537Y92979D01*
X-106517Y92950D01*
X-106446Y92897D01*
X-106380Y92837D01*
X-106348Y92823D01*
X-106320Y92802D01*
X-106246Y92774D01*
X-105925Y92216D01*
X-105904Y92191D01*
X-105861Y92122D01*
X-105462Y91621D01*
X-105452Y91550D01*
X-105447Y91461D01*
X-105435Y91429D01*
X-105430Y91395D01*
X-105362Y91241D01*
X-104261Y89332D01*
X-104239Y89305D01*
X-104224Y89274D01*
X-104161Y89210D01*
X-104105Y89142D01*
X-104076Y89123D01*
X-104052Y89098D01*
X-103983Y89059D01*
X-103813Y88625D01*
X-103786Y88580D01*
X-103767Y88530D01*
X-103723Y88474D01*
X-103687Y88414D01*
X-103647Y88379D01*
X-103614Y88338D01*
X-103554Y88299D01*
X-103501Y88253D01*
X-103451Y88233D01*
X-103407Y88205D01*
X-103338Y88187D01*
X-103273Y88161D01*
X-103220Y88158D01*
X-103168Y88145D01*
X-103098Y88150D01*
G37*
G36*
X85681Y49545D02*
X85681Y49545D01*
X85772Y49553D01*
X85802Y49565D01*
X85834Y49570D01*
X85914Y49613D01*
X85998Y49649D01*
X86030Y49675D01*
X86051Y49686D01*
X86073Y49709D01*
X86129Y49754D01*
X95384Y59008D01*
X95437Y59082D01*
X95496Y59152D01*
X95508Y59182D01*
X95527Y59208D01*
X95554Y59295D01*
X95588Y59380D01*
X95593Y59421D01*
X95600Y59443D01*
X95599Y59475D01*
X95607Y59547D01*
X95607Y63613D01*
X98550Y66557D01*
X101300Y66557D01*
X101339Y66563D01*
X101377Y66561D01*
X101459Y66583D01*
X101543Y66596D01*
X101577Y66615D01*
X101615Y66625D01*
X101686Y66672D01*
X101760Y66712D01*
X101787Y66740D01*
X101819Y66761D01*
X101871Y66829D01*
X101930Y66890D01*
X101946Y66925D01*
X101970Y66956D01*
X101998Y67036D01*
X102033Y67113D01*
X102038Y67152D01*
X102050Y67188D01*
X102051Y67273D01*
X102060Y67357D01*
X102052Y67396D01*
X102052Y67434D01*
X102009Y67596D01*
X101893Y67891D01*
X101904Y67962D01*
X101926Y68048D01*
X101923Y68083D01*
X101929Y68117D01*
X101910Y68284D01*
X101419Y70433D01*
X101405Y70465D01*
X101400Y70499D01*
X101359Y70578D01*
X101326Y70660D01*
X101303Y70687D01*
X101287Y70718D01*
X101233Y70776D01*
X101185Y71417D01*
X101177Y71449D01*
X101168Y71530D01*
X101025Y72154D01*
X101047Y72222D01*
X101081Y72305D01*
X101084Y72339D01*
X101094Y72372D01*
X101100Y72540D01*
X100935Y74738D01*
X100927Y74771D01*
X100927Y74806D01*
X100898Y74890D01*
X100877Y74977D01*
X100858Y75006D01*
X100847Y75039D01*
X100802Y75104D01*
X100850Y75746D01*
X100847Y75779D01*
X100850Y75860D01*
X100802Y76499D01*
X100834Y76563D01*
X100880Y76639D01*
X100888Y76673D01*
X100903Y76704D01*
X100934Y76869D01*
X101098Y79067D01*
X101095Y79101D01*
X101100Y79136D01*
X101084Y79223D01*
X101077Y79312D01*
X101063Y79343D01*
X101057Y79378D01*
X101022Y79449D01*
X101165Y80077D01*
X101167Y80110D01*
X101182Y80189D01*
X101230Y80828D01*
X101270Y80887D01*
X101328Y80955D01*
X101340Y80987D01*
X101360Y81016D01*
X101415Y81174D01*
X101905Y83323D01*
X101907Y83358D01*
X101917Y83391D01*
X101915Y83480D01*
X101920Y83569D01*
X101911Y83602D01*
X101910Y83637D01*
X101886Y83712D01*
X102121Y84312D01*
X102128Y84344D01*
X102155Y84421D01*
X102297Y85045D01*
X102346Y85097D01*
X102413Y85156D01*
X102430Y85186D01*
X102454Y85211D01*
X102532Y85360D01*
X103337Y87412D01*
X103344Y87446D01*
X103359Y87477D01*
X103370Y87565D01*
X103389Y87652D01*
X103385Y87687D01*
X103389Y87721D01*
X103377Y87800D01*
X103698Y88357D01*
X103710Y88388D01*
X103748Y88460D01*
X103982Y89056D01*
X104038Y89100D01*
X104113Y89148D01*
X104134Y89175D01*
X104162Y89197D01*
X104261Y89332D01*
X105362Y91241D01*
X105375Y91274D01*
X105394Y91302D01*
X105418Y91388D01*
X105449Y91471D01*
X105451Y91506D01*
X105460Y91539D01*
X105460Y91619D01*
X105861Y92122D01*
X105877Y92151D01*
X105925Y92216D01*
X106245Y92771D01*
X106307Y92806D01*
X106388Y92843D01*
X106414Y92866D01*
X106444Y92883D01*
X106562Y93002D01*
X107936Y94726D01*
X107953Y94756D01*
X107976Y94782D01*
X108013Y94863D01*
X108056Y94941D01*
X108063Y94975D01*
X108077Y95006D01*
X108088Y95085D01*
X108560Y95523D01*
X108580Y95549D01*
X108637Y95606D01*
X109037Y96107D01*
X109104Y96133D01*
X109189Y96157D01*
X109218Y96176D01*
X109250Y96189D01*
X109385Y96289D01*
X111000Y97788D01*
X111021Y97816D01*
X111048Y97837D01*
X111096Y97912D01*
X111151Y97983D01*
X111162Y98015D01*
X111181Y98045D01*
X111204Y98120D01*
X111736Y98483D01*
X111760Y98506D01*
X111825Y98554D01*
X112294Y98990D01*
X112364Y99005D01*
X112453Y99016D01*
X112484Y99031D01*
X112518Y99039D01*
X112666Y99117D01*
X114487Y100360D01*
X114512Y100384D01*
X114542Y100401D01*
X114600Y100468D01*
X114665Y100529D01*
X114681Y100560D01*
X114704Y100586D01*
X114738Y100658D01*
X115318Y100937D01*
X115345Y100956D01*
X115416Y100994D01*
X115945Y101355D01*
X116017Y101360D01*
X116106Y101358D01*
X116139Y101368D01*
X116174Y101370D01*
X116332Y101426D01*
X118317Y102383D01*
X118346Y102403D01*
X118378Y102415D01*
X118446Y102473D01*
X118519Y102524D01*
X118539Y102552D01*
X118566Y102574D01*
X118610Y102640D01*
X119225Y102830D01*
X119255Y102845D01*
X119331Y102871D01*
X119908Y103150D01*
X119980Y103144D01*
X120067Y103128D01*
X120101Y103133D01*
X120136Y103130D01*
X120301Y103162D01*
X122407Y103812D01*
X122438Y103828D01*
X122472Y103836D01*
X122548Y103882D01*
X122627Y103922D01*
X122651Y103946D01*
X122681Y103965D01*
X122735Y104023D01*
X123371Y104119D01*
X123403Y104129D01*
X123482Y104144D01*
X124094Y104333D01*
X124164Y104317D01*
X124248Y104289D01*
X124283Y104289D01*
X124317Y104281D01*
X124484Y104287D01*
X126664Y104616D01*
X126697Y104627D01*
X126731Y104630D01*
X126813Y104665D01*
X126898Y104692D01*
X126926Y104713D01*
X126958Y104726D01*
X127019Y104776D01*
X127663Y104776D01*
X127696Y104781D01*
X127777Y104785D01*
X128410Y104880D01*
X128476Y104853D01*
X128555Y104813D01*
X128590Y104808D01*
X128622Y104795D01*
X128789Y104776D01*
X130993Y104777D01*
X131027Y104783D01*
X131062Y104780D01*
X131148Y104802D01*
X131235Y104817D01*
X131266Y104833D01*
X131300Y104842D01*
X131368Y104882D01*
X132005Y104786D01*
X132038Y104786D01*
X132118Y104777D01*
X132759Y104778D01*
X132821Y104741D01*
X132893Y104689D01*
X132926Y104679D01*
X132956Y104662D01*
X133118Y104618D01*
X135298Y104291D01*
X135332Y104291D01*
X135366Y104284D01*
X135455Y104293D01*
X135543Y104294D01*
X135576Y104305D01*
X135611Y104309D01*
X135685Y104338D01*
X136300Y104149D01*
X136332Y104144D01*
X136410Y104123D01*
X137044Y104028D01*
X137100Y103983D01*
X137163Y103921D01*
X137194Y103906D01*
X137221Y103884D01*
X137375Y103817D01*
X139482Y103168D01*
X139516Y103163D01*
X139548Y103151D01*
X139637Y103147D01*
X139725Y103135D01*
X139759Y103141D01*
X139794Y103139D01*
X139871Y103157D01*
X140451Y102878D01*
X140483Y102869D01*
X140557Y102837D01*
X141169Y102648D01*
X141218Y102595D01*
X141271Y102524D01*
X141300Y102505D01*
X141323Y102479D01*
X141466Y102390D01*
X141978Y102143D01*
X142087Y102111D01*
X142197Y102076D01*
X142206Y102077D01*
X142214Y102074D01*
X142329Y102078D01*
X142443Y102080D01*
X142451Y102083D01*
X142460Y102083D01*
X142567Y102124D01*
X142675Y102162D01*
X142682Y102168D01*
X142690Y102171D01*
X142779Y102243D01*
X142868Y102314D01*
X142875Y102322D01*
X142880Y102327D01*
X142893Y102347D01*
X142968Y102449D01*
X161779Y135032D01*
X163416Y133902D01*
X163443Y133890D01*
X163465Y133872D01*
X163534Y133852D01*
X163599Y133824D01*
X163628Y133823D01*
X163656Y133815D01*
X163727Y133823D01*
X163798Y133823D01*
X163825Y133834D01*
X163854Y133837D01*
X163916Y133873D01*
X163981Y133900D01*
X164002Y133921D01*
X164027Y133935D01*
X164090Y134012D01*
X164120Y134043D01*
X164124Y134053D01*
X164133Y134063D01*
X173633Y150563D01*
X173643Y150595D01*
X173652Y150608D01*
X173656Y150633D01*
X173657Y150636D01*
X173688Y150707D01*
X173688Y150730D01*
X173696Y150752D01*
X173690Y150829D01*
X173691Y150906D01*
X173681Y150930D01*
X173680Y150950D01*
X173659Y150990D01*
X173633Y151062D01*
X164133Y167562D01*
X164114Y167583D01*
X164101Y167610D01*
X164048Y167657D01*
X164001Y167711D01*
X163975Y167723D01*
X163954Y167743D01*
X163886Y167766D01*
X163822Y167797D01*
X163793Y167798D01*
X163766Y167807D01*
X163694Y167803D01*
X163623Y167806D01*
X163596Y167796D01*
X163567Y167794D01*
X163477Y167751D01*
X163437Y167737D01*
X163429Y167729D01*
X163416Y167723D01*
X161779Y166593D01*
X142968Y199176D01*
X142895Y199265D01*
X142825Y199355D01*
X142818Y199360D01*
X142812Y199367D01*
X142714Y199428D01*
X142620Y199490D01*
X142611Y199493D01*
X142604Y199497D01*
X142492Y199524D01*
X142382Y199553D01*
X142373Y199553D01*
X142365Y199555D01*
X142251Y199545D01*
X142137Y199537D01*
X142127Y199534D01*
X142120Y199533D01*
X142098Y199524D01*
X141978Y199482D01*
X141466Y199235D01*
X141437Y199215D01*
X141405Y199202D01*
X141337Y199145D01*
X141264Y199094D01*
X141244Y199066D01*
X141217Y199043D01*
X141172Y198978D01*
X140557Y198788D01*
X140528Y198774D01*
X140451Y198747D01*
X139874Y198469D01*
X139803Y198475D01*
X139715Y198491D01*
X139681Y198485D01*
X139647Y198488D01*
X139482Y198457D01*
X137375Y197808D01*
X137344Y197792D01*
X137310Y197785D01*
X137235Y197738D01*
X137155Y197698D01*
X137130Y197674D01*
X137101Y197656D01*
X137047Y197597D01*
X136411Y197502D01*
X136379Y197492D01*
X136300Y197476D01*
X135688Y197288D01*
X135618Y197304D01*
X135534Y197333D01*
X135499Y197333D01*
X135465Y197341D01*
X135298Y197334D01*
X133118Y197007D01*
X133085Y196996D01*
X133050Y196993D01*
X132968Y196958D01*
X132884Y196931D01*
X132856Y196911D01*
X132824Y196897D01*
X132762Y196847D01*
X132118Y196848D01*
X132086Y196842D01*
X132005Y196839D01*
X131372Y196744D01*
X131305Y196771D01*
X131226Y196811D01*
X131192Y196816D01*
X131159Y196829D01*
X130993Y196848D01*
X128789Y196849D01*
X128754Y196843D01*
X128720Y196846D01*
X128634Y196823D01*
X128546Y196809D01*
X128515Y196793D01*
X128482Y196784D01*
X128413Y196744D01*
X127777Y196841D01*
X127744Y196840D01*
X127663Y196849D01*
X126758Y196849D01*
X126668Y196835D01*
X126577Y196827D01*
X126547Y196815D01*
X126516Y196810D01*
X126435Y196767D01*
X126351Y196731D01*
X126319Y196706D01*
X126298Y196695D01*
X126276Y196671D01*
X126220Y196626D01*
X98942Y169348D01*
X98889Y169274D01*
X98829Y169205D01*
X98817Y169175D01*
X98798Y169148D01*
X98771Y169062D01*
X98737Y168977D01*
X98733Y168936D01*
X98726Y168913D01*
X98727Y168881D01*
X98719Y168810D01*
X98719Y153177D01*
X98730Y153106D01*
X98732Y153034D01*
X98750Y152985D01*
X98758Y152934D01*
X98792Y152871D01*
X98817Y152803D01*
X98849Y152763D01*
X98874Y152716D01*
X98926Y152667D01*
X98970Y152611D01*
X99014Y152583D01*
X99052Y152547D01*
X99117Y152517D01*
X99177Y152478D01*
X99228Y152465D01*
X99275Y152443D01*
X99346Y152436D01*
X99416Y152418D01*
X99468Y152422D01*
X99519Y152416D01*
X99590Y152432D01*
X99661Y152437D01*
X99709Y152458D01*
X99760Y152469D01*
X99821Y152505D01*
X99887Y152534D01*
X99943Y152578D01*
X99971Y152595D01*
X99986Y152613D01*
X100018Y152638D01*
X102575Y155195D01*
X110150Y155195D01*
X115507Y149838D01*
X115507Y142262D01*
X110150Y136905D01*
X102575Y136905D01*
X100018Y139462D01*
X99960Y139504D01*
X99908Y139553D01*
X99861Y139575D01*
X99819Y139605D01*
X99750Y139626D01*
X99685Y139657D01*
X99633Y139662D01*
X99583Y139678D01*
X99512Y139676D01*
X99441Y139684D01*
X99390Y139673D01*
X99338Y139671D01*
X99270Y139647D01*
X99200Y139631D01*
X99155Y139605D01*
X99107Y139587D01*
X99051Y139542D01*
X98989Y139505D01*
X98955Y139466D01*
X98915Y139433D01*
X98876Y139373D01*
X98829Y139318D01*
X98810Y139270D01*
X98782Y139226D01*
X98764Y139157D01*
X98737Y139090D01*
X98729Y139019D01*
X98721Y138988D01*
X98723Y138964D01*
X98719Y138923D01*
X98719Y76829D01*
X96710Y74820D01*
X72720Y50830D01*
X72678Y50772D01*
X72629Y50720D01*
X72607Y50673D01*
X72577Y50631D01*
X72556Y50562D01*
X72525Y50497D01*
X72520Y50445D01*
X72504Y50395D01*
X72506Y50324D01*
X72498Y50253D01*
X72509Y50202D01*
X72511Y50150D01*
X72535Y50082D01*
X72550Y50012D01*
X72577Y49968D01*
X72595Y49919D01*
X72640Y49863D01*
X72677Y49801D01*
X72716Y49767D01*
X72749Y49727D01*
X72809Y49688D01*
X72864Y49641D01*
X72912Y49622D01*
X72956Y49594D01*
X73025Y49576D01*
X73092Y49549D01*
X73163Y49541D01*
X73194Y49533D01*
X73217Y49535D01*
X73258Y49531D01*
X85591Y49531D01*
X85681Y49545D01*
G37*
G36*
X-67572Y319D02*
X-67572Y319D01*
X-67544Y316D01*
X-67476Y339D01*
X-67405Y353D01*
X-67382Y369D01*
X-67355Y378D01*
X-67300Y425D01*
X-67241Y465D01*
X-67226Y489D01*
X-67205Y508D01*
X-67173Y572D01*
X-67134Y633D01*
X-67129Y661D01*
X-67117Y686D01*
X-67108Y788D01*
X-67101Y829D01*
X-67103Y839D01*
X-67102Y852D01*
X-67258Y2813D01*
X-29587Y2813D01*
X-29474Y2832D01*
X-29361Y2848D01*
X-29353Y2852D01*
X-29344Y2853D01*
X-29243Y2906D01*
X-29141Y2958D01*
X-29134Y2964D01*
X-29127Y2968D01*
X-29048Y3051D01*
X-28967Y3132D01*
X-28963Y3140D01*
X-28957Y3146D01*
X-28909Y3250D01*
X-28859Y3353D01*
X-28857Y3363D01*
X-28854Y3369D01*
X-28851Y3392D01*
X-28828Y3518D01*
X-28786Y4074D01*
X-28789Y4108D01*
X-28784Y4143D01*
X-28800Y4230D01*
X-28808Y4319D01*
X-28821Y4351D01*
X-28828Y4385D01*
X-28862Y4456D01*
X-28719Y5084D01*
X-28717Y5117D01*
X-28702Y5196D01*
X-28654Y5835D01*
X-28613Y5894D01*
X-28556Y5962D01*
X-28543Y5994D01*
X-28524Y6023D01*
X-28468Y6181D01*
X-27978Y8328D01*
X-27976Y8362D01*
X-27966Y8395D01*
X-27969Y8484D01*
X-27963Y8573D01*
X-27972Y8607D01*
X-27973Y8641D01*
X-27997Y8717D01*
X-27762Y9316D01*
X-27755Y9348D01*
X-27728Y9425D01*
X-27586Y10049D01*
X-27536Y10101D01*
X-27470Y10160D01*
X-27452Y10190D01*
X-27428Y10216D01*
X-27350Y10364D01*
X-26546Y12414D01*
X-26539Y12448D01*
X-26524Y12479D01*
X-26513Y12567D01*
X-26494Y12654D01*
X-26498Y12689D01*
X-26494Y12723D01*
X-26506Y12802D01*
X-26184Y13359D01*
X-26172Y13390D01*
X-26135Y13462D01*
X-25893Y14076D01*
X-25825Y14117D01*
X-25816Y14127D01*
X-25805Y14135D01*
X-25737Y14220D01*
X-25665Y14304D01*
X-25660Y14316D01*
X-25652Y14327D01*
X-25614Y14430D01*
X-25573Y14532D01*
X-25571Y14548D01*
X-25568Y14558D01*
X-25567Y14586D01*
X-25555Y14699D01*
X-25555Y26714D01*
X-25558Y26734D01*
X-25556Y26753D01*
X-25578Y26855D01*
X-25594Y26957D01*
X-25604Y26974D01*
X-25608Y26994D01*
X-25661Y27083D01*
X-25710Y27174D01*
X-25724Y27188D01*
X-25734Y27205D01*
X-25813Y27272D01*
X-25888Y27344D01*
X-25906Y27352D01*
X-25921Y27365D01*
X-26017Y27404D01*
X-26111Y27447D01*
X-26131Y27449D01*
X-26149Y27457D01*
X-26316Y27475D01*
X-30075Y27475D01*
X-32579Y29979D01*
X-32579Y33521D01*
X-30814Y35286D01*
X-30761Y35360D01*
X-30701Y35429D01*
X-30689Y35459D01*
X-30670Y35485D01*
X-30643Y35572D01*
X-30609Y35657D01*
X-30605Y35698D01*
X-30598Y35721D01*
X-30599Y35753D01*
X-30591Y35824D01*
X-30591Y52014D01*
X-30602Y52084D01*
X-30604Y52156D01*
X-30622Y52205D01*
X-30630Y52256D01*
X-30664Y52320D01*
X-30689Y52387D01*
X-30721Y52428D01*
X-30746Y52474D01*
X-30798Y52523D01*
X-30842Y52579D01*
X-30886Y52607D01*
X-30924Y52643D01*
X-30989Y52673D01*
X-31049Y52712D01*
X-31100Y52725D01*
X-31147Y52747D01*
X-31218Y52755D01*
X-31288Y52772D01*
X-31340Y52768D01*
X-31391Y52774D01*
X-31462Y52759D01*
X-31533Y52753D01*
X-31581Y52733D01*
X-31632Y52722D01*
X-31693Y52685D01*
X-31759Y52657D01*
X-31815Y52612D01*
X-31843Y52595D01*
X-31858Y52578D01*
X-31890Y52552D01*
X-33154Y51288D01*
X-36696Y51288D01*
X-38355Y52948D01*
X-38372Y52959D01*
X-38384Y52975D01*
X-38471Y53031D01*
X-38555Y53091D01*
X-38574Y53097D01*
X-38591Y53108D01*
X-38692Y53133D01*
X-38790Y53163D01*
X-38810Y53163D01*
X-38830Y53168D01*
X-38933Y53160D01*
X-39036Y53157D01*
X-39055Y53150D01*
X-39075Y53149D01*
X-39170Y53108D01*
X-39267Y53073D01*
X-39283Y53060D01*
X-39301Y53052D01*
X-39432Y52948D01*
X-41092Y51288D01*
X-44633Y51288D01*
X-47137Y53792D01*
X-47137Y55563D01*
X-47140Y55582D01*
X-47138Y55602D01*
X-47160Y55703D01*
X-47177Y55805D01*
X-47186Y55823D01*
X-47191Y55842D01*
X-47244Y55931D01*
X-47292Y56023D01*
X-47306Y56036D01*
X-47317Y56053D01*
X-47395Y56121D01*
X-47470Y56192D01*
X-47488Y56200D01*
X-47504Y56213D01*
X-47600Y56252D01*
X-47693Y56296D01*
X-47713Y56298D01*
X-47732Y56305D01*
X-47898Y56324D01*
X-50983Y56324D01*
X-53487Y58828D01*
X-53487Y61018D01*
X-53490Y61038D01*
X-53488Y61057D01*
X-53510Y61159D01*
X-53527Y61261D01*
X-53536Y61278D01*
X-53541Y61298D01*
X-53594Y61387D01*
X-53642Y61478D01*
X-53656Y61492D01*
X-53667Y61509D01*
X-53745Y61576D01*
X-53820Y61648D01*
X-53838Y61656D01*
X-53854Y61669D01*
X-53950Y61708D01*
X-54043Y61751D01*
X-54063Y61753D01*
X-54082Y61761D01*
X-54248Y61779D01*
X-55746Y61779D01*
X-58250Y64283D01*
X-58250Y67825D01*
X-55746Y70329D01*
X-52204Y70329D01*
X-50439Y68564D01*
X-50365Y68511D01*
X-50296Y68451D01*
X-50266Y68439D01*
X-50240Y68420D01*
X-50153Y68393D01*
X-50068Y68359D01*
X-50027Y68355D01*
X-50004Y68348D01*
X-49972Y68349D01*
X-49901Y68341D01*
X-47873Y68341D01*
X-47783Y68355D01*
X-47692Y68363D01*
X-47662Y68375D01*
X-47631Y68380D01*
X-47550Y68423D01*
X-47466Y68459D01*
X-47434Y68485D01*
X-47413Y68496D01*
X-47391Y68519D01*
X-47335Y68564D01*
X-38341Y77558D01*
X-38299Y77616D01*
X-38250Y77668D01*
X-38228Y77715D01*
X-38197Y77757D01*
X-38176Y77826D01*
X-38146Y77891D01*
X-38140Y77943D01*
X-38125Y77993D01*
X-38127Y78064D01*
X-38119Y78135D01*
X-38130Y78186D01*
X-38131Y78238D01*
X-38156Y78306D01*
X-38171Y78376D01*
X-38198Y78421D01*
X-38216Y78469D01*
X-38261Y78525D01*
X-38297Y78587D01*
X-38337Y78621D01*
X-38370Y78661D01*
X-38430Y78700D01*
X-38484Y78747D01*
X-38533Y78766D01*
X-38576Y78794D01*
X-38646Y78812D01*
X-38712Y78839D01*
X-38784Y78847D01*
X-38815Y78855D01*
X-38838Y78853D01*
X-38879Y78857D01*
X-91758Y78857D01*
X-91778Y78854D01*
X-91798Y78856D01*
X-91899Y78834D01*
X-92001Y78818D01*
X-92019Y78808D01*
X-92038Y78804D01*
X-92127Y78751D01*
X-92218Y78702D01*
X-92232Y78688D01*
X-92249Y78678D01*
X-92316Y78599D01*
X-92388Y78524D01*
X-92396Y78506D01*
X-92409Y78491D01*
X-92448Y78395D01*
X-92491Y78301D01*
X-92494Y78281D01*
X-92501Y78263D01*
X-92519Y78096D01*
X-92519Y77856D01*
X-95463Y74913D01*
X-99625Y74913D01*
X-99658Y74945D01*
X-99693Y74970D01*
X-99722Y75003D01*
X-99792Y75042D01*
X-99858Y75089D01*
X-99899Y75102D01*
X-99937Y75123D01*
X-100016Y75137D01*
X-100093Y75161D01*
X-100136Y75160D01*
X-100179Y75168D01*
X-100258Y75157D01*
X-100339Y75155D01*
X-100379Y75140D01*
X-100422Y75134D01*
X-100494Y75098D01*
X-100570Y75070D01*
X-100603Y75043D01*
X-100642Y75024D01*
X-100699Y74967D01*
X-100762Y74917D01*
X-100785Y74880D01*
X-100816Y74850D01*
X-100851Y74777D01*
X-100895Y74710D01*
X-100905Y74668D01*
X-100924Y74629D01*
X-100952Y74483D01*
X-100955Y74471D01*
X-100955Y74468D01*
X-100955Y74464D01*
X-101100Y72540D01*
X-101097Y72505D01*
X-101102Y72471D01*
X-101087Y72383D01*
X-101079Y72295D01*
X-101065Y72263D01*
X-101059Y72229D01*
X-101024Y72157D01*
X-101168Y71530D01*
X-101170Y71497D01*
X-101185Y71417D01*
X-101233Y70779D01*
X-101274Y70720D01*
X-101331Y70652D01*
X-101344Y70620D01*
X-101363Y70591D01*
X-101419Y70433D01*
X-101910Y68284D01*
X-101912Y68249D01*
X-101922Y68216D01*
X-101919Y68127D01*
X-101925Y68038D01*
X-101916Y68005D01*
X-101915Y67970D01*
X-101892Y67894D01*
X-102127Y67295D01*
X-102134Y67263D01*
X-102160Y67187D01*
X-102303Y66562D01*
X-102352Y66510D01*
X-102419Y66451D01*
X-102436Y66421D01*
X-102460Y66396D01*
X-102538Y66248D01*
X-103344Y64196D01*
X-103352Y64162D01*
X-103367Y64131D01*
X-103377Y64043D01*
X-103396Y63956D01*
X-103392Y63921D01*
X-103396Y63887D01*
X-103385Y63808D01*
X-103707Y63251D01*
X-103718Y63220D01*
X-103756Y63149D01*
X-103990Y62553D01*
X-104047Y62508D01*
X-104121Y62460D01*
X-104143Y62433D01*
X-104170Y62412D01*
X-104270Y62277D01*
X-105372Y60368D01*
X-105385Y60336D01*
X-105404Y60307D01*
X-105428Y60221D01*
X-105459Y60138D01*
X-105461Y60103D01*
X-105470Y60070D01*
X-105470Y59991D01*
X-105871Y59488D01*
X-105887Y59459D01*
X-105935Y59393D01*
X-106256Y58839D01*
X-106318Y58804D01*
X-106399Y58767D01*
X-106425Y58744D01*
X-106455Y58727D01*
X-106573Y58608D01*
X-107948Y56885D01*
X-107965Y56855D01*
X-107989Y56829D01*
X-108025Y56748D01*
X-108068Y56670D01*
X-108075Y56636D01*
X-108089Y56605D01*
X-108101Y56526D01*
X-108573Y56089D01*
X-108593Y56063D01*
X-108650Y56005D01*
X-109050Y55505D01*
X-109116Y55479D01*
X-109202Y55455D01*
X-109231Y55435D01*
X-109263Y55423D01*
X-109398Y55323D01*
X-111014Y53825D01*
X-111036Y53797D01*
X-111063Y53776D01*
X-111111Y53701D01*
X-111165Y53630D01*
X-111177Y53598D01*
X-111195Y53568D01*
X-111219Y53493D01*
X-111751Y53130D01*
X-111775Y53107D01*
X-111840Y53059D01*
X-112309Y52624D01*
X-112379Y52609D01*
X-112467Y52598D01*
X-112499Y52583D01*
X-112533Y52575D01*
X-112681Y52496D01*
X-113136Y52186D01*
X-113219Y52107D01*
X-113304Y52030D01*
X-113308Y52023D01*
X-113314Y52017D01*
X-113368Y51916D01*
X-113423Y51816D01*
X-113425Y51807D01*
X-113429Y51799D01*
X-113447Y51686D01*
X-113468Y51574D01*
X-113467Y51565D01*
X-113469Y51557D01*
X-113450Y51444D01*
X-113434Y51330D01*
X-113430Y51321D01*
X-113429Y51314D01*
X-113418Y51294D01*
X-113403Y51259D01*
X-113402Y51253D01*
X-113397Y51246D01*
X-113367Y51177D01*
X-109883Y45142D01*
X-109852Y45105D01*
X-109830Y45063D01*
X-109775Y45011D01*
X-109727Y44952D01*
X-109686Y44926D01*
X-109652Y44893D01*
X-109583Y44861D01*
X-109519Y44821D01*
X-109472Y44810D01*
X-109428Y44790D01*
X-109353Y44781D01*
X-109279Y44764D01*
X-109232Y44768D01*
X-109184Y44763D01*
X-109110Y44779D01*
X-109034Y44785D01*
X-108991Y44805D01*
X-108944Y44815D01*
X-108879Y44854D01*
X-108809Y44884D01*
X-108774Y44916D01*
X-108733Y44941D01*
X-108683Y44998D01*
X-108627Y45050D01*
X-108604Y45091D01*
X-108573Y45128D01*
X-108544Y45198D01*
X-108507Y45264D01*
X-108499Y45311D01*
X-108481Y45356D01*
X-108466Y45484D01*
X-108462Y45506D01*
X-108463Y45513D01*
X-108462Y45523D01*
X-108462Y48222D01*
X-105372Y51312D01*
X-101003Y51312D01*
X-97913Y48222D01*
X-97913Y43853D01*
X-101003Y40763D01*
X-105372Y40763D01*
X-105973Y41364D01*
X-105993Y41378D01*
X-106008Y41396D01*
X-106092Y41449D01*
X-106173Y41507D01*
X-106196Y41514D01*
X-106216Y41527D01*
X-106313Y41550D01*
X-106408Y41580D01*
X-106432Y41579D01*
X-106456Y41585D01*
X-106554Y41576D01*
X-106654Y41573D01*
X-106677Y41565D01*
X-106701Y41563D01*
X-106791Y41523D01*
X-106885Y41489D01*
X-106904Y41474D01*
X-106926Y41464D01*
X-106999Y41397D01*
X-107077Y41335D01*
X-107090Y41315D01*
X-107108Y41299D01*
X-107156Y41212D01*
X-107210Y41128D01*
X-107216Y41105D01*
X-107228Y41084D01*
X-107246Y40986D01*
X-107270Y40890D01*
X-107268Y40866D01*
X-107273Y40842D01*
X-107259Y40744D01*
X-107251Y40644D01*
X-107242Y40622D01*
X-107238Y40598D01*
X-107171Y40445D01*
X-101945Y31394D01*
X-101915Y31356D01*
X-101892Y31314D01*
X-101838Y31262D01*
X-101789Y31203D01*
X-101749Y31178D01*
X-101714Y31145D01*
X-101645Y31113D01*
X-101581Y31072D01*
X-101534Y31061D01*
X-101491Y31041D01*
X-101416Y31033D01*
X-101342Y31015D01*
X-101294Y31019D01*
X-101247Y31014D01*
X-101172Y31030D01*
X-101097Y31037D01*
X-101053Y31056D01*
X-101006Y31066D01*
X-100941Y31105D01*
X-100872Y31136D01*
X-100836Y31168D01*
X-100795Y31192D01*
X-100746Y31250D01*
X-100690Y31301D01*
X-100666Y31343D01*
X-100635Y31379D01*
X-100607Y31450D01*
X-100570Y31516D01*
X-100561Y31563D01*
X-100543Y31607D01*
X-100529Y31736D01*
X-100525Y31758D01*
X-100526Y31764D01*
X-100525Y31774D01*
X-100525Y32347D01*
X-97435Y35437D01*
X-93065Y35437D01*
X-89975Y32347D01*
X-89975Y27978D01*
X-93065Y24888D01*
X-96871Y24888D01*
X-96965Y24872D01*
X-97060Y24864D01*
X-97086Y24853D01*
X-97113Y24848D01*
X-97198Y24803D01*
X-97285Y24765D01*
X-97306Y24746D01*
X-97331Y24733D01*
X-97396Y24664D01*
X-97467Y24600D01*
X-97481Y24575D01*
X-97500Y24555D01*
X-97540Y24468D01*
X-97587Y24385D01*
X-97592Y24357D01*
X-97604Y24332D01*
X-97614Y24237D01*
X-97632Y24143D01*
X-97628Y24115D01*
X-97631Y24087D01*
X-97611Y23994D01*
X-97597Y23900D01*
X-97583Y23867D01*
X-97579Y23847D01*
X-97562Y23818D01*
X-97530Y23746D01*
X-94556Y18595D01*
X-96314Y17764D01*
X-96336Y17747D01*
X-96363Y17737D01*
X-96415Y17688D01*
X-96473Y17645D01*
X-96487Y17620D01*
X-96508Y17600D01*
X-96537Y17535D01*
X-96573Y17473D01*
X-96576Y17445D01*
X-96588Y17418D01*
X-96589Y17346D01*
X-96598Y17276D01*
X-96590Y17248D01*
X-96591Y17219D01*
X-96555Y17125D01*
X-96544Y17084D01*
X-96537Y17076D01*
X-96533Y17063D01*
X-87033Y563D01*
X-86981Y505D01*
X-86935Y442D01*
X-86916Y431D01*
X-86901Y414D01*
X-86831Y381D01*
X-86764Y341D01*
X-86740Y337D01*
X-86722Y328D01*
X-86677Y326D01*
X-86600Y313D01*
X-67600Y313D01*
X-67572Y319D01*
G37*
G36*
X20044Y59101D02*
X20044Y59101D01*
X20147Y59104D01*
X20166Y59111D01*
X20186Y59112D01*
X20281Y59153D01*
X20378Y59188D01*
X20394Y59201D01*
X20412Y59209D01*
X20543Y59314D01*
X20604Y59375D01*
X24408Y59375D01*
X24468Y59314D01*
X24484Y59302D01*
X24497Y59287D01*
X24584Y59231D01*
X24668Y59171D01*
X24687Y59165D01*
X24704Y59154D01*
X24804Y59129D01*
X24903Y59098D01*
X24923Y59099D01*
X24942Y59094D01*
X25045Y59102D01*
X25149Y59105D01*
X25168Y59111D01*
X25188Y59113D01*
X25283Y59153D01*
X25380Y59189D01*
X25396Y59201D01*
X25414Y59209D01*
X25545Y59314D01*
X25605Y59375D01*
X28764Y59375D01*
X28784Y59378D01*
X28803Y59376D01*
X28905Y59398D01*
X29007Y59414D01*
X29024Y59424D01*
X29044Y59428D01*
X29133Y59481D01*
X29224Y59530D01*
X29238Y59544D01*
X29255Y59554D01*
X29322Y59633D01*
X29394Y59708D01*
X29402Y59726D01*
X29415Y59741D01*
X29454Y59837D01*
X29497Y59931D01*
X29499Y59951D01*
X29507Y59969D01*
X29525Y60136D01*
X29525Y63295D01*
X29586Y63355D01*
X29598Y63371D01*
X29613Y63384D01*
X29669Y63471D01*
X29729Y63555D01*
X29735Y63574D01*
X29746Y63591D01*
X29771Y63691D01*
X29802Y63790D01*
X29801Y63810D01*
X29806Y63829D01*
X29798Y63932D01*
X29795Y64036D01*
X29789Y64055D01*
X29787Y64075D01*
X29747Y64170D01*
X29711Y64267D01*
X29699Y64283D01*
X29691Y64301D01*
X29586Y64432D01*
X29525Y64492D01*
X29525Y68296D01*
X29586Y68357D01*
X29598Y68373D01*
X29614Y68385D01*
X29670Y68473D01*
X29730Y68556D01*
X29736Y68575D01*
X29747Y68592D01*
X29772Y68693D01*
X29802Y68792D01*
X29802Y68812D01*
X29807Y68831D01*
X29799Y68934D01*
X29796Y69037D01*
X29789Y69056D01*
X29788Y69076D01*
X29747Y69171D01*
X29712Y69268D01*
X29699Y69284D01*
X29691Y69302D01*
X29586Y69433D01*
X29525Y69494D01*
X29525Y73298D01*
X29586Y73358D01*
X29598Y73374D01*
X29613Y73387D01*
X29669Y73474D01*
X29729Y73558D01*
X29735Y73577D01*
X29746Y73594D01*
X29771Y73694D01*
X29802Y73793D01*
X29801Y73813D01*
X29806Y73832D01*
X29798Y73935D01*
X29795Y74039D01*
X29789Y74058D01*
X29787Y74078D01*
X29747Y74173D01*
X29711Y74270D01*
X29699Y74286D01*
X29691Y74304D01*
X29586Y74435D01*
X29525Y74495D01*
X29525Y78299D01*
X29586Y78359D01*
X29598Y78375D01*
X29613Y78388D01*
X29669Y78475D01*
X29729Y78559D01*
X29735Y78578D01*
X29746Y78595D01*
X29771Y78695D01*
X29802Y78794D01*
X29801Y78814D01*
X29806Y78833D01*
X29798Y78936D01*
X29795Y79040D01*
X29789Y79059D01*
X29787Y79079D01*
X29747Y79174D01*
X29711Y79271D01*
X29699Y79287D01*
X29691Y79305D01*
X29586Y79436D01*
X29525Y79496D01*
X29525Y83300D01*
X29586Y83360D01*
X29598Y83376D01*
X29613Y83389D01*
X29669Y83476D01*
X29729Y83560D01*
X29735Y83579D01*
X29746Y83596D01*
X29771Y83696D01*
X29802Y83795D01*
X29801Y83815D01*
X29806Y83834D01*
X29798Y83937D01*
X29795Y84041D01*
X29789Y84060D01*
X29787Y84080D01*
X29747Y84175D01*
X29711Y84272D01*
X29699Y84288D01*
X29691Y84306D01*
X29586Y84437D01*
X29525Y84497D01*
X29525Y88301D01*
X29586Y88362D01*
X29598Y88378D01*
X29614Y88390D01*
X29670Y88478D01*
X29730Y88561D01*
X29736Y88580D01*
X29747Y88597D01*
X29772Y88698D01*
X29802Y88797D01*
X29802Y88817D01*
X29807Y88836D01*
X29799Y88939D01*
X29796Y89042D01*
X29789Y89061D01*
X29788Y89081D01*
X29747Y89176D01*
X29712Y89273D01*
X29699Y89289D01*
X29691Y89307D01*
X29586Y89438D01*
X29525Y89499D01*
X29525Y93315D01*
X29547Y93346D01*
X29607Y93415D01*
X29619Y93445D01*
X29638Y93471D01*
X29665Y93558D01*
X29699Y93643D01*
X29703Y93684D01*
X29710Y93706D01*
X29709Y93739D01*
X29717Y93810D01*
X29717Y93993D01*
X29703Y94083D01*
X29695Y94174D01*
X29683Y94204D01*
X29678Y94236D01*
X29635Y94317D01*
X29599Y94400D01*
X29573Y94433D01*
X29562Y94453D01*
X29539Y94475D01*
X29525Y94493D01*
X29525Y98316D01*
X29547Y98347D01*
X29607Y98416D01*
X29619Y98446D01*
X29638Y98472D01*
X29665Y98559D01*
X29699Y98644D01*
X29703Y98685D01*
X29710Y98707D01*
X29709Y98740D01*
X29717Y98811D01*
X29717Y98994D01*
X29703Y99084D01*
X29695Y99175D01*
X29683Y99205D01*
X29678Y99237D01*
X29635Y99318D01*
X29599Y99401D01*
X29573Y99434D01*
X29562Y99454D01*
X29539Y99476D01*
X29525Y99494D01*
X29525Y103317D01*
X29548Y103348D01*
X29607Y103417D01*
X29619Y103447D01*
X29638Y103473D01*
X29665Y103560D01*
X29699Y103645D01*
X29703Y103686D01*
X29710Y103708D01*
X29709Y103741D01*
X29717Y103812D01*
X29717Y103995D01*
X29703Y104085D01*
X29695Y104176D01*
X29683Y104206D01*
X29678Y104238D01*
X29635Y104319D01*
X29599Y104403D01*
X29573Y104435D01*
X29562Y104455D01*
X29539Y104477D01*
X29525Y104495D01*
X29525Y108306D01*
X29586Y108367D01*
X29598Y108383D01*
X29614Y108395D01*
X29670Y108483D01*
X29730Y108566D01*
X29736Y108585D01*
X29747Y108602D01*
X29772Y108703D01*
X29802Y108802D01*
X29802Y108822D01*
X29807Y108841D01*
X29799Y108944D01*
X29796Y109047D01*
X29789Y109066D01*
X29788Y109086D01*
X29747Y109181D01*
X29712Y109278D01*
X29699Y109294D01*
X29691Y109312D01*
X29586Y109443D01*
X29525Y109504D01*
X29525Y113308D01*
X29586Y113368D01*
X29598Y113384D01*
X29613Y113397D01*
X29669Y113484D01*
X29729Y113568D01*
X29735Y113587D01*
X29746Y113604D01*
X29771Y113704D01*
X29802Y113803D01*
X29801Y113823D01*
X29806Y113842D01*
X29798Y113945D01*
X29795Y114049D01*
X29789Y114068D01*
X29787Y114088D01*
X29747Y114183D01*
X29711Y114280D01*
X29699Y114296D01*
X29691Y114314D01*
X29586Y114445D01*
X29525Y114505D01*
X29525Y117664D01*
X29522Y117684D01*
X29524Y117703D01*
X29502Y117805D01*
X29486Y117907D01*
X29476Y117924D01*
X29472Y117944D01*
X29419Y118033D01*
X29370Y118124D01*
X29356Y118138D01*
X29346Y118155D01*
X29267Y118222D01*
X29192Y118294D01*
X29174Y118302D01*
X29159Y118315D01*
X29063Y118354D01*
X28969Y118397D01*
X28949Y118399D01*
X28931Y118407D01*
X28764Y118425D01*
X25605Y118425D01*
X25545Y118486D01*
X25529Y118498D01*
X25516Y118513D01*
X25429Y118569D01*
X25345Y118629D01*
X25326Y118635D01*
X25309Y118646D01*
X25209Y118671D01*
X25110Y118702D01*
X25090Y118701D01*
X25071Y118706D01*
X24968Y118698D01*
X24864Y118695D01*
X24845Y118689D01*
X24825Y118687D01*
X24730Y118647D01*
X24633Y118611D01*
X24617Y118599D01*
X24599Y118591D01*
X24468Y118486D01*
X24408Y118425D01*
X20604Y118425D01*
X20543Y118486D01*
X20527Y118498D01*
X20515Y118514D01*
X20427Y118570D01*
X20344Y118630D01*
X20325Y118636D01*
X20308Y118647D01*
X20207Y118672D01*
X20108Y118702D01*
X20088Y118702D01*
X20069Y118707D01*
X19966Y118699D01*
X19863Y118696D01*
X19844Y118689D01*
X19824Y118688D01*
X19729Y118647D01*
X19632Y118612D01*
X19616Y118599D01*
X19598Y118591D01*
X19467Y118486D01*
X19406Y118425D01*
X15602Y118425D01*
X15542Y118486D01*
X15526Y118498D01*
X15513Y118513D01*
X15426Y118569D01*
X15342Y118629D01*
X15323Y118635D01*
X15306Y118646D01*
X15206Y118671D01*
X15107Y118702D01*
X15087Y118701D01*
X15068Y118706D01*
X14965Y118698D01*
X14861Y118695D01*
X14842Y118689D01*
X14822Y118687D01*
X14727Y118647D01*
X14630Y118611D01*
X14614Y118599D01*
X14596Y118591D01*
X14465Y118486D01*
X14405Y118425D01*
X10601Y118425D01*
X10541Y118486D01*
X10525Y118498D01*
X10512Y118513D01*
X10425Y118569D01*
X10341Y118629D01*
X10322Y118635D01*
X10305Y118646D01*
X10205Y118671D01*
X10106Y118702D01*
X10086Y118701D01*
X10067Y118706D01*
X9964Y118698D01*
X9860Y118695D01*
X9841Y118689D01*
X9821Y118687D01*
X9726Y118647D01*
X9629Y118611D01*
X9613Y118599D01*
X9595Y118591D01*
X9464Y118486D01*
X9404Y118425D01*
X5600Y118425D01*
X5540Y118486D01*
X5524Y118498D01*
X5511Y118513D01*
X5424Y118569D01*
X5340Y118629D01*
X5321Y118635D01*
X5304Y118646D01*
X5204Y118671D01*
X5105Y118702D01*
X5085Y118701D01*
X5066Y118706D01*
X4963Y118698D01*
X4859Y118695D01*
X4840Y118689D01*
X4820Y118687D01*
X4725Y118647D01*
X4628Y118611D01*
X4612Y118599D01*
X4594Y118591D01*
X4463Y118486D01*
X4403Y118425D01*
X599Y118425D01*
X538Y118486D01*
X522Y118498D01*
X510Y118514D01*
X423Y118570D01*
X339Y118630D01*
X319Y118636D01*
X303Y118647D01*
X203Y118672D01*
X104Y118702D01*
X84Y118702D01*
X64Y118707D01*
X-39Y118699D01*
X-142Y118696D01*
X-161Y118689D01*
X-181Y118688D01*
X-276Y118647D01*
X-373Y118612D01*
X-389Y118599D01*
X-407Y118591D01*
X-538Y118486D01*
X-599Y118425D01*
X-4403Y118425D01*
X-4463Y118486D01*
X-4479Y118498D01*
X-4492Y118513D01*
X-4579Y118569D01*
X-4663Y118629D01*
X-4682Y118635D01*
X-4699Y118646D01*
X-4799Y118671D01*
X-4898Y118702D01*
X-4918Y118701D01*
X-4937Y118706D01*
X-5040Y118698D01*
X-5144Y118695D01*
X-5163Y118689D01*
X-5183Y118687D01*
X-5278Y118647D01*
X-5375Y118611D01*
X-5391Y118599D01*
X-5409Y118591D01*
X-5540Y118486D01*
X-5600Y118425D01*
X-9404Y118425D01*
X-9464Y118486D01*
X-9480Y118498D01*
X-9493Y118513D01*
X-9580Y118569D01*
X-9664Y118629D01*
X-9683Y118635D01*
X-9700Y118646D01*
X-9800Y118671D01*
X-9899Y118702D01*
X-9919Y118701D01*
X-9938Y118706D01*
X-10041Y118698D01*
X-10145Y118695D01*
X-10164Y118689D01*
X-10184Y118687D01*
X-10279Y118647D01*
X-10376Y118611D01*
X-10392Y118599D01*
X-10410Y118591D01*
X-10541Y118486D01*
X-10601Y118425D01*
X-14405Y118425D01*
X-14465Y118486D01*
X-14481Y118498D01*
X-14494Y118513D01*
X-14581Y118569D01*
X-14665Y118629D01*
X-14684Y118635D01*
X-14701Y118646D01*
X-14801Y118671D01*
X-14900Y118702D01*
X-14920Y118701D01*
X-14939Y118706D01*
X-15042Y118698D01*
X-15146Y118695D01*
X-15165Y118689D01*
X-15185Y118687D01*
X-15280Y118647D01*
X-15377Y118611D01*
X-15393Y118599D01*
X-15411Y118591D01*
X-15542Y118486D01*
X-15602Y118425D01*
X-19406Y118425D01*
X-19467Y118486D01*
X-19483Y118498D01*
X-19495Y118514D01*
X-19583Y118570D01*
X-19666Y118630D01*
X-19685Y118636D01*
X-19702Y118647D01*
X-19803Y118672D01*
X-19902Y118702D01*
X-19922Y118702D01*
X-19941Y118707D01*
X-20044Y118699D01*
X-20147Y118696D01*
X-20166Y118689D01*
X-20186Y118688D01*
X-20281Y118647D01*
X-20378Y118612D01*
X-20394Y118599D01*
X-20412Y118591D01*
X-20543Y118486D01*
X-20604Y118425D01*
X-24408Y118425D01*
X-24468Y118486D01*
X-24484Y118498D01*
X-24497Y118513D01*
X-24584Y118569D01*
X-24668Y118629D01*
X-24687Y118635D01*
X-24704Y118646D01*
X-24804Y118671D01*
X-24903Y118702D01*
X-24923Y118701D01*
X-24942Y118706D01*
X-25045Y118698D01*
X-25149Y118695D01*
X-25168Y118689D01*
X-25188Y118687D01*
X-25283Y118647D01*
X-25380Y118611D01*
X-25396Y118599D01*
X-25414Y118591D01*
X-25545Y118486D01*
X-25605Y118425D01*
X-28764Y118425D01*
X-28784Y118422D01*
X-28803Y118424D01*
X-28905Y118402D01*
X-29007Y118386D01*
X-29024Y118376D01*
X-29044Y118372D01*
X-29133Y118319D01*
X-29224Y118270D01*
X-29238Y118256D01*
X-29255Y118246D01*
X-29322Y118167D01*
X-29394Y118092D01*
X-29402Y118074D01*
X-29415Y118059D01*
X-29454Y117963D01*
X-29497Y117869D01*
X-29499Y117849D01*
X-29507Y117831D01*
X-29525Y117664D01*
X-29525Y114505D01*
X-29586Y114445D01*
X-29598Y114429D01*
X-29613Y114416D01*
X-29669Y114329D01*
X-29729Y114245D01*
X-29735Y114226D01*
X-29746Y114209D01*
X-29771Y114109D01*
X-29802Y114010D01*
X-29801Y113990D01*
X-29806Y113971D01*
X-29798Y113868D01*
X-29795Y113764D01*
X-29789Y113745D01*
X-29787Y113725D01*
X-29747Y113630D01*
X-29711Y113533D01*
X-29699Y113517D01*
X-29691Y113499D01*
X-29586Y113368D01*
X-29525Y113308D01*
X-29525Y109504D01*
X-29586Y109443D01*
X-29598Y109427D01*
X-29614Y109415D01*
X-29670Y109327D01*
X-29730Y109244D01*
X-29736Y109225D01*
X-29747Y109208D01*
X-29772Y109107D01*
X-29802Y109008D01*
X-29802Y108988D01*
X-29807Y108969D01*
X-29799Y108866D01*
X-29796Y108763D01*
X-29789Y108744D01*
X-29788Y108724D01*
X-29747Y108629D01*
X-29712Y108532D01*
X-29699Y108516D01*
X-29691Y108498D01*
X-29586Y108367D01*
X-29525Y108306D01*
X-29525Y104502D01*
X-29586Y104442D01*
X-29598Y104426D01*
X-29613Y104413D01*
X-29669Y104326D01*
X-29729Y104242D01*
X-29735Y104223D01*
X-29746Y104206D01*
X-29771Y104106D01*
X-29802Y104007D01*
X-29801Y103987D01*
X-29806Y103968D01*
X-29798Y103865D01*
X-29795Y103761D01*
X-29789Y103742D01*
X-29787Y103722D01*
X-29747Y103627D01*
X-29711Y103530D01*
X-29699Y103514D01*
X-29691Y103496D01*
X-29586Y103365D01*
X-29525Y103305D01*
X-29525Y99501D01*
X-29586Y99441D01*
X-29598Y99425D01*
X-29613Y99412D01*
X-29669Y99325D01*
X-29729Y99241D01*
X-29735Y99222D01*
X-29746Y99205D01*
X-29771Y99105D01*
X-29802Y99006D01*
X-29801Y98986D01*
X-29806Y98967D01*
X-29798Y98864D01*
X-29795Y98760D01*
X-29789Y98741D01*
X-29787Y98721D01*
X-29747Y98626D01*
X-29711Y98529D01*
X-29699Y98513D01*
X-29691Y98495D01*
X-29586Y98364D01*
X-29525Y98304D01*
X-29525Y94500D01*
X-29586Y94440D01*
X-29598Y94424D01*
X-29613Y94411D01*
X-29669Y94324D01*
X-29729Y94240D01*
X-29735Y94221D01*
X-29746Y94204D01*
X-29771Y94104D01*
X-29802Y94005D01*
X-29801Y93985D01*
X-29806Y93966D01*
X-29798Y93863D01*
X-29795Y93759D01*
X-29789Y93740D01*
X-29787Y93720D01*
X-29747Y93625D01*
X-29711Y93528D01*
X-29699Y93512D01*
X-29691Y93494D01*
X-29586Y93363D01*
X-29525Y93303D01*
X-29525Y89499D01*
X-29586Y89438D01*
X-29598Y89422D01*
X-29614Y89410D01*
X-29670Y89322D01*
X-29730Y89239D01*
X-29736Y89220D01*
X-29747Y89203D01*
X-29772Y89102D01*
X-29802Y89003D01*
X-29802Y88983D01*
X-29807Y88964D01*
X-29799Y88861D01*
X-29796Y88758D01*
X-29789Y88739D01*
X-29788Y88719D01*
X-29747Y88624D01*
X-29712Y88527D01*
X-29699Y88511D01*
X-29691Y88493D01*
X-29586Y88362D01*
X-29525Y88301D01*
X-29525Y84497D01*
X-29586Y84437D01*
X-29598Y84421D01*
X-29613Y84408D01*
X-29669Y84321D01*
X-29729Y84237D01*
X-29735Y84218D01*
X-29746Y84201D01*
X-29771Y84101D01*
X-29802Y84002D01*
X-29801Y83982D01*
X-29806Y83963D01*
X-29798Y83860D01*
X-29795Y83756D01*
X-29789Y83737D01*
X-29787Y83717D01*
X-29747Y83622D01*
X-29711Y83525D01*
X-29699Y83509D01*
X-29691Y83491D01*
X-29586Y83360D01*
X-29525Y83300D01*
X-29525Y79496D01*
X-29586Y79436D01*
X-29598Y79420D01*
X-29613Y79407D01*
X-29669Y79320D01*
X-29729Y79236D01*
X-29735Y79217D01*
X-29746Y79200D01*
X-29771Y79100D01*
X-29802Y79001D01*
X-29801Y78981D01*
X-29806Y78962D01*
X-29798Y78859D01*
X-29795Y78755D01*
X-29789Y78736D01*
X-29787Y78716D01*
X-29747Y78621D01*
X-29711Y78524D01*
X-29699Y78508D01*
X-29691Y78490D01*
X-29586Y78359D01*
X-29525Y78299D01*
X-29525Y74495D01*
X-29586Y74435D01*
X-29598Y74419D01*
X-29613Y74406D01*
X-29669Y74319D01*
X-29729Y74235D01*
X-29735Y74216D01*
X-29746Y74199D01*
X-29771Y74099D01*
X-29802Y74000D01*
X-29801Y73980D01*
X-29806Y73961D01*
X-29798Y73858D01*
X-29795Y73754D01*
X-29789Y73735D01*
X-29787Y73715D01*
X-29747Y73620D01*
X-29711Y73523D01*
X-29699Y73507D01*
X-29691Y73489D01*
X-29586Y73358D01*
X-29525Y73298D01*
X-29525Y69494D01*
X-29586Y69433D01*
X-29598Y69417D01*
X-29614Y69405D01*
X-29670Y69317D01*
X-29730Y69234D01*
X-29736Y69215D01*
X-29747Y69198D01*
X-29772Y69097D01*
X-29802Y68998D01*
X-29802Y68978D01*
X-29807Y68959D01*
X-29799Y68856D01*
X-29796Y68753D01*
X-29789Y68734D01*
X-29788Y68714D01*
X-29747Y68619D01*
X-29712Y68522D01*
X-29699Y68506D01*
X-29691Y68488D01*
X-29586Y68357D01*
X-29525Y68296D01*
X-29525Y64492D01*
X-29586Y64432D01*
X-29598Y64416D01*
X-29613Y64403D01*
X-29669Y64316D01*
X-29729Y64232D01*
X-29735Y64213D01*
X-29746Y64196D01*
X-29772Y64095D01*
X-29802Y63997D01*
X-29801Y63977D01*
X-29806Y63958D01*
X-29798Y63855D01*
X-29795Y63751D01*
X-29789Y63732D01*
X-29787Y63712D01*
X-29747Y63617D01*
X-29711Y63520D01*
X-29699Y63504D01*
X-29691Y63486D01*
X-29586Y63355D01*
X-29525Y63295D01*
X-29525Y60136D01*
X-29522Y60116D01*
X-29524Y60097D01*
X-29502Y59995D01*
X-29486Y59893D01*
X-29476Y59876D01*
X-29472Y59856D01*
X-29419Y59767D01*
X-29370Y59676D01*
X-29356Y59662D01*
X-29346Y59645D01*
X-29267Y59578D01*
X-29192Y59506D01*
X-29174Y59498D01*
X-29159Y59485D01*
X-29063Y59446D01*
X-28969Y59403D01*
X-28949Y59401D01*
X-28931Y59393D01*
X-28764Y59375D01*
X-25605Y59375D01*
X-25545Y59314D01*
X-25529Y59302D01*
X-25516Y59287D01*
X-25429Y59231D01*
X-25345Y59171D01*
X-25326Y59165D01*
X-25309Y59154D01*
X-25209Y59129D01*
X-25110Y59098D01*
X-25090Y59099D01*
X-25071Y59094D01*
X-24968Y59102D01*
X-24864Y59105D01*
X-24845Y59111D01*
X-24825Y59113D01*
X-24730Y59153D01*
X-24633Y59189D01*
X-24617Y59201D01*
X-24599Y59209D01*
X-24468Y59314D01*
X-24408Y59375D01*
X-20604Y59375D01*
X-20543Y59314D01*
X-20527Y59302D01*
X-20515Y59286D01*
X-20427Y59230D01*
X-20344Y59170D01*
X-20325Y59164D01*
X-20308Y59153D01*
X-20207Y59128D01*
X-20108Y59098D01*
X-20088Y59098D01*
X-20069Y59093D01*
X-19966Y59101D01*
X-19863Y59104D01*
X-19844Y59111D01*
X-19824Y59112D01*
X-19729Y59153D01*
X-19632Y59188D01*
X-19616Y59201D01*
X-19598Y59209D01*
X-19467Y59314D01*
X-19406Y59375D01*
X-15602Y59375D01*
X-15542Y59314D01*
X-15526Y59302D01*
X-15513Y59287D01*
X-15426Y59231D01*
X-15342Y59171D01*
X-15323Y59165D01*
X-15306Y59154D01*
X-15206Y59129D01*
X-15107Y59098D01*
X-15087Y59099D01*
X-15068Y59094D01*
X-14965Y59102D01*
X-14861Y59105D01*
X-14842Y59111D01*
X-14823Y59113D01*
X-14727Y59153D01*
X-14630Y59189D01*
X-14614Y59201D01*
X-14596Y59209D01*
X-14465Y59314D01*
X-14405Y59375D01*
X-10601Y59375D01*
X-10541Y59314D01*
X-10525Y59302D01*
X-10512Y59287D01*
X-10425Y59231D01*
X-10341Y59171D01*
X-10322Y59165D01*
X-10305Y59154D01*
X-10205Y59129D01*
X-10106Y59098D01*
X-10086Y59099D01*
X-10067Y59094D01*
X-9964Y59102D01*
X-9860Y59105D01*
X-9841Y59111D01*
X-9821Y59113D01*
X-9726Y59153D01*
X-9629Y59189D01*
X-9613Y59201D01*
X-9595Y59209D01*
X-9464Y59314D01*
X-9404Y59375D01*
X-5600Y59375D01*
X-5540Y59314D01*
X-5524Y59302D01*
X-5511Y59287D01*
X-5424Y59231D01*
X-5340Y59171D01*
X-5321Y59165D01*
X-5304Y59154D01*
X-5204Y59129D01*
X-5105Y59098D01*
X-5085Y59099D01*
X-5066Y59094D01*
X-4963Y59102D01*
X-4859Y59105D01*
X-4840Y59111D01*
X-4820Y59113D01*
X-4725Y59153D01*
X-4628Y59189D01*
X-4612Y59201D01*
X-4594Y59209D01*
X-4463Y59314D01*
X-4403Y59375D01*
X-599Y59375D01*
X-538Y59314D01*
X-522Y59302D01*
X-510Y59286D01*
X-423Y59230D01*
X-339Y59170D01*
X-319Y59164D01*
X-303Y59153D01*
X-203Y59128D01*
X-104Y59098D01*
X-84Y59098D01*
X-64Y59093D01*
X39Y59101D01*
X142Y59104D01*
X161Y59111D01*
X181Y59112D01*
X276Y59153D01*
X373Y59188D01*
X389Y59201D01*
X407Y59209D01*
X538Y59314D01*
X599Y59375D01*
X4403Y59375D01*
X4463Y59314D01*
X4479Y59302D01*
X4492Y59287D01*
X4579Y59231D01*
X4663Y59171D01*
X4682Y59165D01*
X4699Y59154D01*
X4799Y59129D01*
X4898Y59098D01*
X4918Y59099D01*
X4937Y59094D01*
X5040Y59102D01*
X5144Y59105D01*
X5163Y59111D01*
X5183Y59113D01*
X5278Y59153D01*
X5375Y59189D01*
X5391Y59201D01*
X5409Y59209D01*
X5540Y59314D01*
X5600Y59375D01*
X9404Y59375D01*
X9464Y59314D01*
X9480Y59302D01*
X9493Y59287D01*
X9580Y59231D01*
X9664Y59171D01*
X9683Y59165D01*
X9700Y59154D01*
X9800Y59129D01*
X9899Y59098D01*
X9919Y59099D01*
X9938Y59094D01*
X10041Y59102D01*
X10145Y59105D01*
X10164Y59111D01*
X10184Y59113D01*
X10279Y59153D01*
X10376Y59189D01*
X10392Y59201D01*
X10410Y59209D01*
X10541Y59314D01*
X10601Y59375D01*
X14405Y59375D01*
X14465Y59314D01*
X14481Y59302D01*
X14494Y59287D01*
X14581Y59231D01*
X14665Y59171D01*
X14684Y59165D01*
X14701Y59154D01*
X14801Y59129D01*
X14900Y59098D01*
X14920Y59099D01*
X14939Y59094D01*
X15042Y59102D01*
X15146Y59105D01*
X15165Y59111D01*
X15185Y59113D01*
X15280Y59153D01*
X15377Y59189D01*
X15393Y59201D01*
X15411Y59209D01*
X15542Y59314D01*
X15602Y59375D01*
X19406Y59375D01*
X19467Y59314D01*
X19483Y59302D01*
X19495Y59286D01*
X19583Y59230D01*
X19666Y59170D01*
X19685Y59164D01*
X19702Y59153D01*
X19803Y59128D01*
X19902Y59098D01*
X19922Y59098D01*
X19941Y59093D01*
X20044Y59101D01*
G37*
G36*
X86676Y329D02*
X86676Y329D01*
X86754Y337D01*
X86773Y348D01*
X86795Y353D01*
X86859Y397D01*
X86927Y435D01*
X86943Y454D01*
X86959Y465D01*
X86983Y503D01*
X87033Y563D01*
X96533Y17063D01*
X96542Y17091D01*
X96558Y17114D01*
X96573Y17184D01*
X96596Y17252D01*
X96593Y17281D01*
X96599Y17309D01*
X96586Y17379D01*
X96580Y17450D01*
X96567Y17476D01*
X96561Y17504D01*
X96521Y17563D01*
X96488Y17627D01*
X96466Y17645D01*
X96450Y17669D01*
X96367Y17726D01*
X96335Y17753D01*
X96324Y17756D01*
X96314Y17764D01*
X94556Y18595D01*
X98497Y25421D01*
X98506Y25444D01*
X98520Y25463D01*
X98549Y25558D01*
X98584Y25651D01*
X98585Y25675D01*
X98588Y25685D01*
X98602Y25693D01*
X98633Y25729D01*
X98671Y25759D01*
X98747Y25863D01*
X98762Y25880D01*
X98764Y25886D01*
X98770Y25894D01*
X105002Y36689D01*
X105011Y36711D01*
X105025Y36731D01*
X105054Y36826D01*
X105089Y36919D01*
X105090Y36943D01*
X105097Y36966D01*
X105095Y37065D01*
X105098Y37165D01*
X105092Y37188D01*
X105091Y37212D01*
X105057Y37305D01*
X105029Y37401D01*
X105015Y37420D01*
X105006Y37443D01*
X104944Y37521D01*
X104887Y37602D01*
X104868Y37616D01*
X104853Y37635D01*
X104769Y37689D01*
X104689Y37748D01*
X104666Y37755D01*
X104646Y37768D01*
X104550Y37792D01*
X104455Y37822D01*
X104431Y37822D01*
X104407Y37828D01*
X104308Y37820D01*
X104209Y37819D01*
X104186Y37811D01*
X104162Y37809D01*
X104071Y37770D01*
X103977Y37737D01*
X103958Y37722D01*
X103936Y37712D01*
X103805Y37608D01*
X103785Y37588D01*
X99415Y37588D01*
X96325Y40678D01*
X96325Y41436D01*
X96314Y41506D01*
X96312Y41578D01*
X96294Y41627D01*
X96286Y41678D01*
X96252Y41742D01*
X96227Y41809D01*
X96195Y41850D01*
X96170Y41896D01*
X96118Y41945D01*
X96074Y42001D01*
X96030Y42029D01*
X95992Y42065D01*
X95927Y42095D01*
X95867Y42134D01*
X95816Y42147D01*
X95769Y42169D01*
X95698Y42177D01*
X95628Y42194D01*
X95576Y42190D01*
X95525Y42196D01*
X95454Y42181D01*
X95383Y42175D01*
X95335Y42155D01*
X95284Y42144D01*
X95223Y42107D01*
X95157Y42079D01*
X95101Y42034D01*
X95073Y42017D01*
X95058Y42000D01*
X95026Y41974D01*
X93922Y40870D01*
X91913Y38861D01*
X34109Y38861D01*
X34039Y38850D01*
X33967Y38848D01*
X33918Y38830D01*
X33867Y38822D01*
X33803Y38788D01*
X33736Y38763D01*
X33695Y38731D01*
X33649Y38706D01*
X33600Y38654D01*
X33544Y38610D01*
X33516Y38566D01*
X33480Y38528D01*
X33450Y38463D01*
X33411Y38403D01*
X33398Y38352D01*
X33376Y38305D01*
X33368Y38234D01*
X33351Y38164D01*
X33355Y38112D01*
X33349Y38061D01*
X33364Y37990D01*
X33370Y37919D01*
X33390Y37871D01*
X33401Y37820D01*
X33438Y37759D01*
X33466Y37693D01*
X33511Y37637D01*
X33528Y37609D01*
X33545Y37594D01*
X33571Y37562D01*
X34415Y36717D01*
X34415Y33176D01*
X31911Y30672D01*
X28280Y30672D01*
X28190Y30657D01*
X28099Y30650D01*
X28069Y30638D01*
X28037Y30632D01*
X27956Y30590D01*
X27872Y30554D01*
X27840Y30528D01*
X27820Y30517D01*
X27797Y30494D01*
X27741Y30449D01*
X25175Y27883D01*
X21634Y27883D01*
X19130Y30387D01*
X19130Y33928D01*
X20768Y35566D01*
X20821Y35640D01*
X20881Y35710D01*
X20893Y35740D01*
X20912Y35766D01*
X20938Y35853D01*
X20973Y35938D01*
X20977Y35979D01*
X20984Y36001D01*
X20983Y36033D01*
X20991Y36105D01*
X20991Y37193D01*
X20976Y37283D01*
X20969Y37374D01*
X20957Y37403D01*
X20951Y37435D01*
X20909Y37516D01*
X20873Y37600D01*
X20847Y37632D01*
X20836Y37653D01*
X20813Y37675D01*
X20768Y37731D01*
X14170Y44329D01*
X14111Y44371D01*
X14059Y44421D01*
X14012Y44443D01*
X13970Y44473D01*
X13901Y44494D01*
X13836Y44524D01*
X13784Y44530D01*
X13735Y44545D01*
X13663Y44543D01*
X13592Y44551D01*
X13541Y44540D01*
X13489Y44539D01*
X13421Y44514D01*
X13351Y44499D01*
X13307Y44472D01*
X13258Y44455D01*
X13202Y44410D01*
X13140Y44373D01*
X13106Y44333D01*
X13066Y44301D01*
X13027Y44241D01*
X12980Y44186D01*
X12961Y44138D01*
X12933Y44094D01*
X12915Y44024D01*
X12888Y43958D01*
X12881Y43887D01*
X12873Y43855D01*
X12875Y43832D01*
X12870Y43791D01*
X12870Y39809D01*
X10219Y37158D01*
X8211Y37158D01*
X8191Y37155D01*
X8172Y37157D01*
X8070Y37135D01*
X7968Y37118D01*
X7951Y37109D01*
X7931Y37105D01*
X7842Y37052D01*
X7751Y37003D01*
X7737Y36989D01*
X7720Y36979D01*
X7653Y36900D01*
X7581Y36825D01*
X7573Y36807D01*
X7560Y36792D01*
X7521Y36695D01*
X7478Y36602D01*
X7476Y36582D01*
X7468Y36563D01*
X7450Y36397D01*
X7450Y33708D01*
X4799Y31057D01*
X3732Y31057D01*
X3666Y31047D01*
X3599Y31046D01*
X3545Y31027D01*
X3489Y31018D01*
X3430Y30986D01*
X3367Y30964D01*
X3322Y30929D01*
X3272Y30903D01*
X3226Y30854D01*
X3173Y30813D01*
X3142Y30766D01*
X3102Y30724D01*
X3074Y30664D01*
X3037Y30608D01*
X3023Y30553D01*
X2999Y30501D01*
X2991Y30435D01*
X2974Y30370D01*
X2978Y30313D01*
X2972Y30257D01*
X2986Y30191D01*
X2990Y30125D01*
X3012Y30072D01*
X3024Y30016D01*
X3058Y29959D01*
X3083Y29897D01*
X3121Y29854D01*
X3150Y29805D01*
X3201Y29762D01*
X3244Y29711D01*
X3294Y29682D01*
X3337Y29645D01*
X3399Y29620D01*
X3456Y29586D01*
X3534Y29566D01*
X3565Y29553D01*
X3592Y29550D01*
X3618Y29543D01*
X5403Y29274D01*
X5438Y29275D01*
X5472Y29267D01*
X5560Y29276D01*
X5649Y29277D01*
X5682Y29289D01*
X5717Y29292D01*
X5790Y29322D01*
X6405Y29132D01*
X6438Y29127D01*
X6516Y29107D01*
X7150Y29011D01*
X7205Y28966D01*
X7269Y28904D01*
X7300Y28889D01*
X7327Y28867D01*
X7481Y28800D01*
X9585Y28151D01*
X9619Y28146D01*
X9652Y28134D01*
X9741Y28130D01*
X9829Y28118D01*
X9863Y28124D01*
X9897Y28122D01*
X9975Y28140D01*
X10555Y27861D01*
X10586Y27852D01*
X10661Y27819D01*
X11272Y27631D01*
X11321Y27578D01*
X11374Y27507D01*
X11403Y27487D01*
X11426Y27462D01*
X11569Y27373D01*
X13553Y26417D01*
X13586Y26407D01*
X13616Y26390D01*
X13703Y26373D01*
X13788Y26348D01*
X13823Y26349D01*
X13857Y26342D01*
X13936Y26348D01*
X14468Y25986D01*
X14498Y25972D01*
X14567Y25929D01*
X15144Y25651D01*
X15183Y25591D01*
X15226Y25513D01*
X15251Y25490D01*
X15271Y25461D01*
X15398Y25352D01*
X17217Y24111D01*
X17249Y24097D01*
X17276Y24075D01*
X17360Y24045D01*
X17440Y24007D01*
X17475Y24004D01*
X17507Y23992D01*
X17587Y23986D01*
X18058Y23548D01*
X18086Y23530D01*
X18147Y23477D01*
X18676Y23117D01*
X18687Y23095D01*
X18688Y23087D01*
X18697Y23072D01*
X18707Y23052D01*
X18737Y22968D01*
X18759Y22941D01*
X18774Y22910D01*
X18883Y22783D01*
X20498Y21285D01*
X20526Y21266D01*
X20550Y21240D01*
X20588Y21220D01*
X20619Y21194D01*
X20660Y21177D01*
X20703Y21149D01*
X20736Y21140D01*
X20766Y21124D01*
X20827Y21110D01*
X20847Y21102D01*
X21245Y20603D01*
X21251Y20598D01*
X21254Y20592D01*
X21276Y20574D01*
X21323Y20519D01*
X21792Y20084D01*
X21813Y20015D01*
X21830Y19928D01*
X21848Y19898D01*
X21858Y19865D01*
X21947Y19723D01*
X23320Y18001D01*
X23345Y17978D01*
X23365Y17949D01*
X23437Y17896D01*
X23502Y17836D01*
X23534Y17822D01*
X23562Y17802D01*
X23636Y17773D01*
X23957Y17215D01*
X23978Y17190D01*
X24022Y17121D01*
X24421Y16621D01*
X24431Y16550D01*
X24435Y16461D01*
X24448Y16429D01*
X24453Y16394D01*
X24520Y16241D01*
X25621Y14334D01*
X25643Y14307D01*
X25658Y14276D01*
X25721Y14212D01*
X25777Y14143D01*
X25806Y14125D01*
X25831Y14100D01*
X25900Y14061D01*
X26135Y13462D01*
X26151Y13433D01*
X26184Y13359D01*
X26504Y12804D01*
X26504Y12733D01*
X26495Y12644D01*
X26502Y12610D01*
X26502Y12576D01*
X26546Y12414D01*
X27350Y10364D01*
X27368Y10334D01*
X27378Y10301D01*
X27430Y10229D01*
X27476Y10153D01*
X27502Y10130D01*
X27523Y10102D01*
X27585Y10052D01*
X27728Y9425D01*
X27740Y9394D01*
X27762Y9316D01*
X27995Y8720D01*
X27984Y8649D01*
X27962Y8563D01*
X27965Y8529D01*
X27959Y8494D01*
X27978Y8328D01*
X28468Y6181D01*
X28481Y6149D01*
X28487Y6115D01*
X28528Y6035D01*
X28561Y5953D01*
X28584Y5927D01*
X28600Y5896D01*
X28654Y5838D01*
X28702Y5196D01*
X28710Y5164D01*
X28719Y5084D01*
X28861Y4459D01*
X28840Y4391D01*
X28805Y4309D01*
X28803Y4275D01*
X28792Y4241D01*
X28786Y4074D01*
X28828Y3518D01*
X28855Y3406D01*
X28879Y3295D01*
X28883Y3287D01*
X28885Y3278D01*
X28947Y3181D01*
X29005Y3084D01*
X29012Y3078D01*
X29016Y3070D01*
X29105Y2998D01*
X29192Y2924D01*
X29200Y2920D01*
X29207Y2915D01*
X29313Y2875D01*
X29420Y2832D01*
X29431Y2831D01*
X29437Y2828D01*
X29460Y2827D01*
X29587Y2813D01*
X33927Y2813D01*
X33998Y2825D01*
X34069Y2827D01*
X34118Y2845D01*
X34170Y2853D01*
X34233Y2887D01*
X34300Y2911D01*
X34341Y2944D01*
X34387Y2968D01*
X34436Y3020D01*
X34492Y3065D01*
X34521Y3109D01*
X34556Y3146D01*
X34587Y3211D01*
X34625Y3272D01*
X34638Y3322D01*
X34660Y3369D01*
X34668Y3441D01*
X34685Y3510D01*
X34681Y3562D01*
X34687Y3614D01*
X34672Y3684D01*
X34666Y3755D01*
X34646Y3803D01*
X34635Y3854D01*
X34598Y3916D01*
X34570Y3982D01*
X34525Y4038D01*
X34509Y4065D01*
X34491Y4081D01*
X34465Y4113D01*
X32825Y5753D01*
X32825Y10122D01*
X35915Y13212D01*
X40285Y13212D01*
X43375Y10122D01*
X43375Y5753D01*
X41735Y4113D01*
X41693Y4055D01*
X41644Y4003D01*
X41622Y3955D01*
X41591Y3913D01*
X41570Y3845D01*
X41540Y3779D01*
X41534Y3728D01*
X41519Y3678D01*
X41521Y3606D01*
X41513Y3535D01*
X41524Y3484D01*
X41525Y3432D01*
X41550Y3365D01*
X41565Y3295D01*
X41592Y3250D01*
X41610Y3201D01*
X41655Y3145D01*
X41691Y3084D01*
X41731Y3050D01*
X41763Y3009D01*
X41824Y2970D01*
X41878Y2924D01*
X41927Y2904D01*
X41970Y2876D01*
X42040Y2859D01*
X42106Y2832D01*
X42178Y2824D01*
X42209Y2816D01*
X42232Y2818D01*
X42273Y2813D01*
X49802Y2813D01*
X49873Y2825D01*
X49944Y2827D01*
X49993Y2845D01*
X50045Y2853D01*
X50108Y2887D01*
X50175Y2911D01*
X50216Y2944D01*
X50262Y2968D01*
X50311Y3020D01*
X50367Y3065D01*
X50396Y3109D01*
X50431Y3146D01*
X50462Y3211D01*
X50500Y3272D01*
X50513Y3322D01*
X50535Y3369D01*
X50543Y3441D01*
X50560Y3510D01*
X50556Y3562D01*
X50562Y3614D01*
X50547Y3684D01*
X50541Y3755D01*
X50521Y3803D01*
X50510Y3854D01*
X50473Y3916D01*
X50445Y3982D01*
X50400Y4038D01*
X50384Y4065D01*
X50366Y4081D01*
X50340Y4113D01*
X48700Y5753D01*
X48700Y10122D01*
X51790Y13212D01*
X56160Y13212D01*
X59250Y10122D01*
X59250Y5753D01*
X57610Y4113D01*
X57568Y4055D01*
X57519Y4003D01*
X57497Y3955D01*
X57466Y3913D01*
X57445Y3845D01*
X57415Y3779D01*
X57409Y3728D01*
X57394Y3678D01*
X57396Y3606D01*
X57388Y3535D01*
X57399Y3484D01*
X57400Y3432D01*
X57425Y3365D01*
X57440Y3295D01*
X57467Y3250D01*
X57485Y3201D01*
X57530Y3145D01*
X57566Y3084D01*
X57606Y3050D01*
X57638Y3009D01*
X57699Y2970D01*
X57753Y2924D01*
X57802Y2904D01*
X57845Y2876D01*
X57915Y2859D01*
X57981Y2832D01*
X58053Y2824D01*
X58084Y2816D01*
X58107Y2818D01*
X58148Y2813D01*
X67258Y2813D01*
X67102Y852D01*
X67106Y824D01*
X67101Y796D01*
X67118Y726D01*
X67126Y655D01*
X67141Y630D01*
X67147Y603D01*
X67190Y545D01*
X67226Y482D01*
X67248Y465D01*
X67265Y442D01*
X67327Y406D01*
X67384Y362D01*
X67412Y355D01*
X67436Y341D01*
X67536Y324D01*
X67577Y314D01*
X67587Y315D01*
X67600Y313D01*
X86600Y313D01*
X86676Y329D01*
G37*
G36*
X71308Y64729D02*
X71308Y64729D01*
X71379Y64735D01*
X71427Y64755D01*
X71478Y64766D01*
X71540Y64803D01*
X71606Y64831D01*
X71662Y64876D01*
X71689Y64892D01*
X71705Y64910D01*
X71737Y64936D01*
X87826Y81025D01*
X87879Y81099D01*
X87939Y81169D01*
X87951Y81199D01*
X87970Y81225D01*
X87997Y81312D01*
X88031Y81397D01*
X88035Y81438D01*
X88042Y81460D01*
X88041Y81492D01*
X88049Y81564D01*
X88049Y143839D01*
X88038Y143910D01*
X88036Y143982D01*
X88018Y144031D01*
X88010Y144082D01*
X87976Y144145D01*
X87951Y144213D01*
X87919Y144254D01*
X87894Y144299D01*
X87843Y144349D01*
X87798Y144405D01*
X87754Y144433D01*
X87716Y144469D01*
X87651Y144499D01*
X87591Y144538D01*
X87540Y144551D01*
X87493Y144572D01*
X87422Y144580D01*
X87352Y144598D01*
X87300Y144594D01*
X87249Y144600D01*
X87178Y144584D01*
X87107Y144579D01*
X87059Y144558D01*
X87008Y144547D01*
X86947Y144511D01*
X86881Y144482D01*
X86825Y144438D01*
X86797Y144421D01*
X86782Y144403D01*
X86750Y144378D01*
X86460Y144088D01*
X86407Y144014D01*
X86348Y143945D01*
X86335Y143915D01*
X86317Y143888D01*
X86290Y143801D01*
X86256Y143717D01*
X86251Y143676D01*
X86244Y143653D01*
X86245Y143621D01*
X86237Y143550D01*
X86237Y139103D01*
X83147Y136013D01*
X78778Y136013D01*
X75688Y139103D01*
X75688Y143472D01*
X78640Y146424D01*
X78693Y146498D01*
X78752Y146568D01*
X78765Y146598D01*
X78783Y146624D01*
X78810Y146711D01*
X78844Y146796D01*
X78849Y146837D01*
X78856Y146859D01*
X78855Y146891D01*
X78863Y146963D01*
X78863Y147175D01*
X78851Y147246D01*
X78849Y147318D01*
X78831Y147367D01*
X78823Y147418D01*
X78790Y147481D01*
X78765Y147549D01*
X78732Y147589D01*
X78708Y147635D01*
X78656Y147685D01*
X78611Y147741D01*
X78567Y147769D01*
X78530Y147805D01*
X78465Y147835D01*
X78404Y147874D01*
X78354Y147886D01*
X78307Y147908D01*
X78235Y147916D01*
X78166Y147934D01*
X78114Y147930D01*
X78062Y147935D01*
X77992Y147920D01*
X77921Y147915D01*
X77873Y147894D01*
X77822Y147883D01*
X77760Y147846D01*
X77694Y147818D01*
X77638Y147774D01*
X77611Y147757D01*
X77595Y147739D01*
X77563Y147714D01*
X72106Y142256D01*
X72053Y142182D01*
X71993Y142113D01*
X71981Y142082D01*
X71962Y142056D01*
X71935Y141969D01*
X71901Y141884D01*
X71897Y141843D01*
X71890Y141821D01*
X71891Y141789D01*
X71883Y141718D01*
X71883Y122983D01*
X71310Y122410D01*
X71257Y122336D01*
X71198Y122267D01*
X71186Y122237D01*
X71167Y122211D01*
X71140Y122124D01*
X71106Y122039D01*
X71101Y121998D01*
X71094Y121976D01*
X71095Y121943D01*
X71087Y121872D01*
X71087Y121368D01*
X70194Y120475D01*
X69690Y120475D01*
X69600Y120461D01*
X69509Y120453D01*
X69479Y120441D01*
X69448Y120436D01*
X69367Y120393D01*
X69283Y120357D01*
X69251Y120331D01*
X69230Y120320D01*
X69208Y120297D01*
X69152Y120252D01*
X68931Y120031D01*
X68878Y119957D01*
X68818Y119888D01*
X68806Y119857D01*
X68787Y119831D01*
X68760Y119744D01*
X68726Y119659D01*
X68722Y119618D01*
X68715Y119596D01*
X68716Y119564D01*
X68708Y119493D01*
X68708Y100758D01*
X67517Y99567D01*
X65872Y99567D01*
X65853Y99564D01*
X65833Y99566D01*
X65732Y99544D01*
X65630Y99528D01*
X65612Y99518D01*
X65593Y99514D01*
X65504Y99461D01*
X65412Y99412D01*
X65399Y99398D01*
X65382Y99388D01*
X65314Y99309D01*
X65243Y99234D01*
X65235Y99216D01*
X65222Y99201D01*
X65183Y99105D01*
X65139Y99011D01*
X65137Y98991D01*
X65130Y98973D01*
X65123Y98911D01*
X62411Y96199D01*
X62369Y96141D01*
X62320Y96089D01*
X62298Y96042D01*
X62267Y96000D01*
X62246Y95931D01*
X62216Y95866D01*
X62210Y95814D01*
X62195Y95764D01*
X62197Y95693D01*
X62189Y95621D01*
X62200Y95571D01*
X62201Y95519D01*
X62226Y95451D01*
X62241Y95381D01*
X62268Y95336D01*
X62286Y95288D01*
X62331Y95231D01*
X62367Y95170D01*
X62407Y95136D01*
X62439Y95095D01*
X62500Y95057D01*
X62554Y95010D01*
X62603Y94991D01*
X62646Y94962D01*
X62716Y94945D01*
X62782Y94918D01*
X62854Y94910D01*
X62885Y94902D01*
X62908Y94904D01*
X62949Y94900D01*
X69544Y94900D01*
X70437Y94007D01*
X70437Y88743D01*
X69544Y87850D01*
X57193Y87850D01*
X57103Y87835D01*
X57012Y87828D01*
X56982Y87816D01*
X56950Y87810D01*
X56869Y87768D01*
X56786Y87732D01*
X56753Y87706D01*
X56733Y87695D01*
X56711Y87672D01*
X56655Y87627D01*
X48147Y79120D01*
X48135Y79103D01*
X48120Y79091D01*
X48064Y79004D01*
X48003Y78920D01*
X47998Y78901D01*
X47987Y78884D01*
X47961Y78783D01*
X47931Y78685D01*
X47932Y78665D01*
X47927Y78645D01*
X47935Y78542D01*
X47937Y78439D01*
X47944Y78420D01*
X47946Y78400D01*
X47986Y78305D01*
X48022Y78208D01*
X48034Y78192D01*
X48042Y78174D01*
X48147Y78043D01*
X55067Y71123D01*
X55141Y71070D01*
X55211Y71010D01*
X55241Y70998D01*
X55267Y70979D01*
X55354Y70952D01*
X55439Y70918D01*
X55480Y70914D01*
X55502Y70907D01*
X55534Y70908D01*
X55605Y70900D01*
X69544Y70900D01*
X70437Y70007D01*
X70437Y65474D01*
X70449Y65403D01*
X70451Y65332D01*
X70469Y65283D01*
X70477Y65231D01*
X70510Y65168D01*
X70535Y65101D01*
X70568Y65060D01*
X70592Y65014D01*
X70644Y64965D01*
X70689Y64909D01*
X70733Y64880D01*
X70770Y64845D01*
X70835Y64814D01*
X70896Y64776D01*
X70946Y64763D01*
X70993Y64741D01*
X71065Y64733D01*
X71134Y64716D01*
X71186Y64720D01*
X71238Y64714D01*
X71308Y64729D01*
G37*
G36*
X131941Y198380D02*
X131941Y198380D01*
X131984Y198379D01*
X135977Y198979D01*
X136007Y198990D01*
X136050Y198996D01*
X139909Y200185D01*
X139937Y200200D01*
X139978Y200212D01*
X143616Y201963D01*
X143638Y201979D01*
X143664Y201989D01*
X143717Y202039D01*
X143775Y202083D01*
X143788Y202106D01*
X143808Y202125D01*
X143838Y202192D01*
X143874Y202255D01*
X143877Y202282D01*
X143888Y202307D01*
X143889Y202380D01*
X143898Y202453D01*
X143890Y202479D01*
X143890Y202506D01*
X143854Y202605D01*
X143842Y202644D01*
X143836Y202651D01*
X143832Y202662D01*
X116832Y249462D01*
X116814Y249482D01*
X116803Y249507D01*
X116749Y249556D01*
X116701Y249611D01*
X116676Y249623D01*
X116656Y249641D01*
X116587Y249665D01*
X116521Y249697D01*
X116494Y249698D01*
X116469Y249707D01*
X116396Y249702D01*
X116323Y249706D01*
X116297Y249696D01*
X116270Y249695D01*
X116174Y249651D01*
X116136Y249636D01*
X116129Y249630D01*
X116119Y249625D01*
X112782Y247352D01*
X112760Y247329D01*
X112724Y247305D01*
X109763Y244560D01*
X109744Y244534D01*
X109712Y244505D01*
X107194Y241349D01*
X107179Y241321D01*
X107152Y241288D01*
X105132Y237791D01*
X105122Y237761D01*
X105099Y237724D01*
X103623Y233966D01*
X103618Y233935D01*
X103601Y233895D01*
X102701Y229959D01*
X102701Y229927D01*
X102690Y229885D01*
X102387Y225859D01*
X102390Y225835D01*
X102387Y225815D01*
X102389Y225806D01*
X102387Y225784D01*
X102688Y221758D01*
X102696Y221727D01*
X102699Y221684D01*
X103596Y217747D01*
X103609Y217718D01*
X103618Y217676D01*
X105092Y213917D01*
X105109Y213890D01*
X105124Y213849D01*
X107142Y210352D01*
X107163Y210328D01*
X107184Y210290D01*
X109700Y207133D01*
X109725Y207112D01*
X109751Y207078D01*
X112710Y204331D01*
X112737Y204314D01*
X112768Y204284D01*
X116104Y202009D01*
X116133Y201996D01*
X116168Y201971D01*
X119806Y200218D01*
X119836Y200211D01*
X119875Y200191D01*
X123733Y199000D01*
X123765Y198997D01*
X123806Y198983D01*
X127798Y198380D01*
X127830Y198382D01*
X127872Y198374D01*
X131910Y198373D01*
X131941Y198380D01*
G37*
G36*
X-127872Y198374D02*
X-127872Y198374D01*
X-127841Y198381D01*
X-127798Y198380D01*
X-123806Y198983D01*
X-123776Y198994D01*
X-123733Y199000D01*
X-119875Y200191D01*
X-119847Y200206D01*
X-119806Y200218D01*
X-116168Y201971D01*
X-116143Y201991D01*
X-116104Y202009D01*
X-112768Y204284D01*
X-112746Y204307D01*
X-112710Y204331D01*
X-109751Y207078D01*
X-109732Y207104D01*
X-109700Y207133D01*
X-107184Y210290D01*
X-107169Y210319D01*
X-107142Y210352D01*
X-105124Y213849D01*
X-105114Y213880D01*
X-105092Y213917D01*
X-103618Y217676D01*
X-103612Y217707D01*
X-103596Y217747D01*
X-102699Y221684D01*
X-102698Y221716D01*
X-102688Y221758D01*
X-102387Y225784D01*
X-102391Y225816D01*
X-102390Y225832D01*
X-102387Y225848D01*
X-102388Y225852D01*
X-102387Y225859D01*
X-102690Y229885D01*
X-102699Y229916D01*
X-102701Y229959D01*
X-103601Y233895D01*
X-103614Y233924D01*
X-103623Y233966D01*
X-105099Y237724D01*
X-105117Y237751D01*
X-105132Y237791D01*
X-107152Y241288D01*
X-107173Y241311D01*
X-107194Y241349D01*
X-109712Y244505D01*
X-109737Y244526D01*
X-109763Y244560D01*
X-112724Y247305D01*
X-112751Y247322D01*
X-112782Y247352D01*
X-116119Y249625D01*
X-116144Y249636D01*
X-116165Y249653D01*
X-116235Y249674D01*
X-116302Y249702D01*
X-116330Y249702D01*
X-116356Y249710D01*
X-116428Y249702D01*
X-116501Y249701D01*
X-116526Y249691D01*
X-116553Y249688D01*
X-116617Y249652D01*
X-116684Y249623D01*
X-116703Y249604D01*
X-116726Y249590D01*
X-116794Y249509D01*
X-116822Y249480D01*
X-116825Y249471D01*
X-116832Y249462D01*
X-143832Y202662D01*
X-143841Y202636D01*
X-143857Y202614D01*
X-143872Y202543D01*
X-143896Y202473D01*
X-143893Y202446D01*
X-143899Y202420D01*
X-143886Y202348D01*
X-143880Y202275D01*
X-143867Y202251D01*
X-143862Y202224D01*
X-143822Y202164D01*
X-143788Y202099D01*
X-143767Y202081D01*
X-143752Y202059D01*
X-143666Y201998D01*
X-143635Y201972D01*
X-143626Y201969D01*
X-143616Y201963D01*
X-139978Y200212D01*
X-139947Y200204D01*
X-139909Y200185D01*
X-136050Y198996D01*
X-136018Y198993D01*
X-135977Y198979D01*
X-131984Y198379D01*
X-131953Y198380D01*
X-131910Y198373D01*
X-127872Y198374D01*
G37*
G36*
X116428Y51923D02*
X116428Y51923D01*
X116501Y51924D01*
X116526Y51934D01*
X116553Y51937D01*
X116617Y51973D01*
X116684Y52002D01*
X116703Y52021D01*
X116726Y52035D01*
X116794Y52116D01*
X116822Y52145D01*
X116825Y52154D01*
X116832Y52163D01*
X143832Y98963D01*
X143841Y98989D01*
X143857Y99011D01*
X143872Y99082D01*
X143896Y99152D01*
X143893Y99179D01*
X143899Y99205D01*
X143886Y99277D01*
X143880Y99350D01*
X143867Y99374D01*
X143862Y99401D01*
X143822Y99462D01*
X143788Y99526D01*
X143767Y99544D01*
X143752Y99566D01*
X143666Y99627D01*
X143635Y99653D01*
X143626Y99656D01*
X143616Y99662D01*
X139978Y101413D01*
X139947Y101421D01*
X139909Y101440D01*
X136050Y102629D01*
X136018Y102632D01*
X135977Y102646D01*
X131984Y103246D01*
X131953Y103245D01*
X131910Y103252D01*
X127872Y103251D01*
X127841Y103244D01*
X127798Y103245D01*
X123806Y102642D01*
X123776Y102631D01*
X123733Y102625D01*
X119875Y101434D01*
X119847Y101419D01*
X119806Y101407D01*
X116168Y99654D01*
X116143Y99634D01*
X116104Y99616D01*
X112768Y97341D01*
X112746Y97318D01*
X112710Y97294D01*
X109751Y94547D01*
X109732Y94521D01*
X109700Y94492D01*
X107184Y91335D01*
X107169Y91306D01*
X107142Y91273D01*
X105124Y87776D01*
X105114Y87745D01*
X105092Y87708D01*
X103618Y83949D01*
X103612Y83918D01*
X103596Y83878D01*
X102699Y79941D01*
X102698Y79909D01*
X102688Y79867D01*
X102387Y75841D01*
X102391Y75809D01*
X102387Y75766D01*
X102690Y71740D01*
X102699Y71709D01*
X102701Y71666D01*
X103601Y67730D01*
X103614Y67701D01*
X103623Y67659D01*
X105099Y63901D01*
X105117Y63874D01*
X105132Y63834D01*
X107152Y60338D01*
X107173Y60314D01*
X107194Y60276D01*
X109712Y57120D01*
X109737Y57100D01*
X109763Y57065D01*
X112724Y54320D01*
X112751Y54303D01*
X112782Y54273D01*
X116119Y52000D01*
X116144Y51989D01*
X116165Y51972D01*
X116235Y51951D01*
X116302Y51923D01*
X116330Y51923D01*
X116356Y51915D01*
X116428Y51923D01*
G37*
G36*
X-116396Y51923D02*
X-116396Y51923D01*
X-116323Y51919D01*
X-116297Y51929D01*
X-116270Y51930D01*
X-116174Y51974D01*
X-116136Y51989D01*
X-116129Y51995D01*
X-116119Y52000D01*
X-112782Y54273D01*
X-112760Y54296D01*
X-112724Y54320D01*
X-109763Y57065D01*
X-109744Y57091D01*
X-109712Y57120D01*
X-107194Y60276D01*
X-107179Y60304D01*
X-107152Y60338D01*
X-105132Y63834D01*
X-105122Y63864D01*
X-105099Y63901D01*
X-103623Y67659D01*
X-103618Y67690D01*
X-103601Y67730D01*
X-102701Y71666D01*
X-102701Y71698D01*
X-102690Y71740D01*
X-102387Y75766D01*
X-102391Y75798D01*
X-102387Y75841D01*
X-102688Y79867D01*
X-102696Y79898D01*
X-102699Y79941D01*
X-103596Y83878D01*
X-103609Y83907D01*
X-103618Y83949D01*
X-105092Y87708D01*
X-105109Y87735D01*
X-105124Y87776D01*
X-107142Y91273D01*
X-107163Y91297D01*
X-107184Y91335D01*
X-109700Y94492D01*
X-109725Y94513D01*
X-109751Y94547D01*
X-112710Y97294D01*
X-112737Y97311D01*
X-112768Y97341D01*
X-116104Y99616D01*
X-116133Y99629D01*
X-116168Y99654D01*
X-119806Y101407D01*
X-119836Y101414D01*
X-119875Y101434D01*
X-123733Y102625D01*
X-123765Y102628D01*
X-123806Y102642D01*
X-127798Y103245D01*
X-127830Y103243D01*
X-127872Y103251D01*
X-131910Y103252D01*
X-131941Y103246D01*
X-131984Y103246D01*
X-135977Y102646D01*
X-136007Y102635D01*
X-136050Y102629D01*
X-139909Y101440D01*
X-139937Y101425D01*
X-139978Y101413D01*
X-143616Y99662D01*
X-143638Y99646D01*
X-143664Y99636D01*
X-143717Y99586D01*
X-143775Y99542D01*
X-143788Y99519D01*
X-143808Y99500D01*
X-143838Y99433D01*
X-143874Y99370D01*
X-143877Y99343D01*
X-143888Y99318D01*
X-143889Y99245D01*
X-143898Y99172D01*
X-143890Y99146D01*
X-143890Y99119D01*
X-143854Y99020D01*
X-143842Y98981D01*
X-143836Y98974D01*
X-143832Y98963D01*
X-116832Y52163D01*
X-116814Y52143D01*
X-116803Y52118D01*
X-116749Y52069D01*
X-116701Y52014D01*
X-116676Y52002D01*
X-116656Y51984D01*
X-116587Y51960D01*
X-116521Y51928D01*
X-116494Y51927D01*
X-116469Y51918D01*
X-116396Y51923D01*
G37*
G36*
X2049Y273395D02*
X2049Y273395D01*
X2092Y273394D01*
X6082Y273996D01*
X6112Y274007D01*
X6155Y274012D01*
X10011Y275202D01*
X10039Y275217D01*
X10081Y275229D01*
X13717Y276980D01*
X13742Y276999D01*
X13781Y277017D01*
X17115Y279291D01*
X17138Y279313D01*
X17174Y279337D01*
X20132Y282082D01*
X20151Y282108D01*
X20183Y282137D01*
X22699Y285292D01*
X22713Y285320D01*
X22741Y285353D01*
X24759Y288848D01*
X24769Y288878D01*
X24791Y288915D01*
X26265Y292672D01*
X26266Y292678D01*
X26268Y292680D01*
X26272Y292706D01*
X26287Y292743D01*
X27185Y296677D01*
X27186Y296709D01*
X27196Y296751D01*
X27498Y300775D01*
X27494Y300802D01*
X27499Y300829D01*
X27482Y300900D01*
X27473Y300972D01*
X27459Y300996D01*
X27453Y301022D01*
X27410Y301081D01*
X27373Y301144D01*
X27351Y301161D01*
X27335Y301183D01*
X27272Y301220D01*
X27214Y301264D01*
X27187Y301270D01*
X27164Y301284D01*
X27060Y301302D01*
X27021Y301311D01*
X27011Y301310D01*
X27000Y301312D01*
X-27000Y301312D01*
X-27027Y301306D01*
X-27054Y301309D01*
X-27123Y301287D01*
X-27195Y301272D01*
X-27217Y301257D01*
X-27243Y301249D01*
X-27299Y301201D01*
X-27359Y301160D01*
X-27373Y301137D01*
X-27394Y301119D01*
X-27427Y301054D01*
X-27466Y300992D01*
X-27470Y300965D01*
X-27482Y300941D01*
X-27492Y300836D01*
X-27499Y300796D01*
X-27497Y300787D01*
X-27498Y300775D01*
X-27196Y296751D01*
X-27188Y296720D01*
X-27185Y296677D01*
X-26287Y292743D01*
X-26274Y292714D01*
X-26265Y292672D01*
X-24791Y288915D01*
X-24774Y288888D01*
X-24759Y288848D01*
X-22741Y285353D01*
X-22720Y285329D01*
X-22699Y285292D01*
X-20183Y282137D01*
X-20158Y282116D01*
X-20132Y282082D01*
X-17174Y279337D01*
X-17147Y279321D01*
X-17115Y279291D01*
X-13781Y277017D01*
X-13752Y277005D01*
X-13717Y276980D01*
X-10081Y275229D01*
X-10050Y275221D01*
X-10011Y275202D01*
X-6155Y274012D01*
X-6124Y274009D01*
X-6082Y273996D01*
X-2092Y273394D01*
X-2060Y273396D01*
X-2018Y273389D01*
X2018Y273389D01*
X2049Y273395D01*
G37*
G36*
X27027Y319D02*
X27027Y319D01*
X27054Y316D01*
X27123Y338D01*
X27195Y353D01*
X27217Y368D01*
X27243Y377D01*
X27299Y424D01*
X27359Y465D01*
X27373Y488D01*
X27394Y506D01*
X27427Y571D01*
X27466Y633D01*
X27470Y660D01*
X27482Y684D01*
X27492Y789D01*
X27499Y829D01*
X27497Y838D01*
X27498Y850D01*
X27196Y4874D01*
X27188Y4905D01*
X27185Y4948D01*
X26287Y8882D01*
X26274Y8911D01*
X26265Y8953D01*
X24791Y12710D01*
X24774Y12737D01*
X24759Y12777D01*
X22741Y16272D01*
X22720Y16296D01*
X22699Y16333D01*
X20183Y19488D01*
X20158Y19509D01*
X20132Y19543D01*
X17174Y22288D01*
X17147Y22304D01*
X17115Y22334D01*
X13781Y24608D01*
X13752Y24620D01*
X13717Y24645D01*
X10081Y26396D01*
X10050Y26404D01*
X10011Y26423D01*
X6155Y27613D01*
X6124Y27616D01*
X6082Y27629D01*
X2092Y28231D01*
X2060Y28229D01*
X2018Y28236D01*
X-2018Y28236D01*
X-2049Y28230D01*
X-2092Y28231D01*
X-6082Y27629D01*
X-6112Y27618D01*
X-6155Y27613D01*
X-10011Y26423D01*
X-10039Y26408D01*
X-10081Y26396D01*
X-13717Y24645D01*
X-13742Y24626D01*
X-13781Y24608D01*
X-17115Y22334D01*
X-17138Y22312D01*
X-17174Y22288D01*
X-20132Y19543D01*
X-20151Y19517D01*
X-20183Y19488D01*
X-22699Y16333D01*
X-22713Y16305D01*
X-22741Y16272D01*
X-24759Y12777D01*
X-24769Y12747D01*
X-24791Y12710D01*
X-26265Y8953D01*
X-26271Y8922D01*
X-26287Y8882D01*
X-27185Y4948D01*
X-27186Y4916D01*
X-27196Y4874D01*
X-27498Y850D01*
X-27494Y823D01*
X-27499Y796D01*
X-27482Y725D01*
X-27473Y653D01*
X-27459Y629D01*
X-27453Y603D01*
X-27410Y544D01*
X-27373Y481D01*
X-27351Y464D01*
X-27335Y442D01*
X-27272Y405D01*
X-27214Y361D01*
X-27187Y355D01*
X-27164Y341D01*
X-27060Y323D01*
X-27021Y314D01*
X-27011Y315D01*
X-27000Y313D01*
X27000Y313D01*
X27027Y319D01*
G37*
G36*
X41283Y89982D02*
X41283Y89982D01*
X41290Y89981D01*
X41380Y90001D01*
X41472Y90020D01*
X41478Y90024D01*
X41486Y90026D01*
X41634Y90129D01*
X52746Y101241D01*
X52751Y101248D01*
X52757Y101252D01*
X52806Y101331D01*
X52857Y101408D01*
X52859Y101416D01*
X52863Y101423D01*
X52895Y101600D01*
X52895Y158750D01*
X52894Y158755D01*
X52895Y158760D01*
X52874Y158853D01*
X52855Y158947D01*
X52852Y158951D01*
X52851Y158956D01*
X52796Y159034D01*
X52743Y159112D01*
X52738Y159115D01*
X52735Y159119D01*
X52654Y159170D01*
X52574Y159222D01*
X52569Y159222D01*
X52565Y159225D01*
X52388Y159257D01*
X41275Y159257D01*
X41270Y159256D01*
X41265Y159257D01*
X41172Y159236D01*
X41079Y159218D01*
X41074Y159215D01*
X41069Y159214D01*
X40991Y159158D01*
X40913Y159105D01*
X40910Y159101D01*
X40906Y159098D01*
X40855Y159016D01*
X40803Y158937D01*
X40803Y158932D01*
X40800Y158927D01*
X40768Y158750D01*
X40768Y135939D01*
X40769Y135932D01*
X40768Y135924D01*
X40789Y135834D01*
X40807Y135743D01*
X40812Y135736D01*
X40814Y135729D01*
X40916Y135581D01*
X41286Y135211D01*
X41286Y131462D01*
X40916Y131092D01*
X40912Y131086D01*
X40906Y131081D01*
X40857Y131003D01*
X40805Y130925D01*
X40804Y130918D01*
X40800Y130911D01*
X40768Y130734D01*
X40768Y104985D01*
X39477Y103695D01*
X37477Y103695D01*
X37469Y103693D01*
X37462Y103695D01*
X37372Y103674D01*
X37281Y103655D01*
X37274Y103651D01*
X37266Y103649D01*
X37209Y103609D01*
X31750Y103609D01*
X31745Y103608D01*
X31740Y103609D01*
X31647Y103588D01*
X31554Y103570D01*
X31549Y103567D01*
X31544Y103566D01*
X31466Y103510D01*
X31388Y103457D01*
X31385Y103453D01*
X31381Y103450D01*
X31330Y103368D01*
X31278Y103289D01*
X31278Y103284D01*
X31275Y103279D01*
X31243Y103102D01*
X31243Y90488D01*
X31244Y90482D01*
X31243Y90477D01*
X31264Y90384D01*
X31282Y90291D01*
X31285Y90287D01*
X31286Y90282D01*
X31342Y90204D01*
X31395Y90125D01*
X31399Y90122D01*
X31402Y90118D01*
X31484Y90067D01*
X31563Y90016D01*
X31568Y90015D01*
X31573Y90012D01*
X31750Y89980D01*
X41275Y89980D01*
X41283Y89982D01*
G37*
G36*
X-32683Y164181D02*
X-32683Y164181D01*
X-32631Y164182D01*
X-32564Y164207D01*
X-32494Y164222D01*
X-32449Y164249D01*
X-32400Y164267D01*
X-32344Y164311D01*
X-32283Y164348D01*
X-32249Y164388D01*
X-32208Y164420D01*
X-32169Y164481D01*
X-32123Y164535D01*
X-32103Y164583D01*
X-32075Y164627D01*
X-32058Y164697D01*
X-32031Y164763D01*
X-32023Y164835D01*
X-32015Y164866D01*
X-32017Y164889D01*
X-32012Y164930D01*
X-32012Y165594D01*
X-29069Y168537D01*
X-24906Y168537D01*
X-24497Y168128D01*
X-24439Y168086D01*
X-24387Y168037D01*
X-24340Y168015D01*
X-24298Y167985D01*
X-24229Y167964D01*
X-24164Y167933D01*
X-24112Y167928D01*
X-24062Y167912D01*
X-23991Y167914D01*
X-23920Y167906D01*
X-23869Y167917D01*
X-23817Y167919D01*
X-23749Y167943D01*
X-23679Y167959D01*
X-23634Y167985D01*
X-23586Y168003D01*
X-23530Y168048D01*
X-23468Y168085D01*
X-23434Y168124D01*
X-23394Y168157D01*
X-23355Y168217D01*
X-23308Y168272D01*
X-23289Y168320D01*
X-23261Y168364D01*
X-23243Y168433D01*
X-23216Y168500D01*
X-23208Y168571D01*
X-23200Y168602D01*
X-23202Y168626D01*
X-23198Y168667D01*
X-23198Y189582D01*
X-23209Y189652D01*
X-23211Y189724D01*
X-23229Y189773D01*
X-23237Y189824D01*
X-23271Y189888D01*
X-23296Y189955D01*
X-23328Y189996D01*
X-23353Y190042D01*
X-23405Y190091D01*
X-23449Y190147D01*
X-23493Y190175D01*
X-23531Y190211D01*
X-23596Y190241D01*
X-23656Y190280D01*
X-23707Y190293D01*
X-23754Y190315D01*
X-23825Y190323D01*
X-23895Y190340D01*
X-23947Y190336D01*
X-23998Y190342D01*
X-24069Y190327D01*
X-24140Y190321D01*
X-24188Y190301D01*
X-24239Y190290D01*
X-24300Y190253D01*
X-24366Y190225D01*
X-24422Y190180D01*
X-24450Y190163D01*
X-24465Y190146D01*
X-24497Y190120D01*
X-26804Y187813D01*
X-30346Y187813D01*
X-32850Y190317D01*
X-32850Y193858D01*
X-31085Y195623D01*
X-31032Y195697D01*
X-30972Y195767D01*
X-30960Y195797D01*
X-30941Y195823D01*
X-30914Y195910D01*
X-30905Y195933D01*
X-30890Y195966D01*
X-30889Y195973D01*
X-30880Y195995D01*
X-30876Y196036D01*
X-30869Y196058D01*
X-30870Y196090D01*
X-30862Y196161D01*
X-30862Y196210D01*
X-29299Y197772D01*
X-27261Y199810D01*
X-27208Y199884D01*
X-27149Y199954D01*
X-27136Y199984D01*
X-27118Y200010D01*
X-27091Y200097D01*
X-27057Y200182D01*
X-27052Y200223D01*
X-27045Y200245D01*
X-27046Y200277D01*
X-27038Y200348D01*
X-27038Y201864D01*
X-27041Y201884D01*
X-27039Y201903D01*
X-27061Y202005D01*
X-27078Y202107D01*
X-27087Y202124D01*
X-27092Y202144D01*
X-27145Y202233D01*
X-27193Y202324D01*
X-27207Y202338D01*
X-27218Y202355D01*
X-27296Y202422D01*
X-27371Y202494D01*
X-27389Y202502D01*
X-27405Y202515D01*
X-27501Y202554D01*
X-27594Y202597D01*
X-27614Y202599D01*
X-27633Y202607D01*
X-27799Y202625D01*
X-33669Y202625D01*
X-34696Y203652D01*
X-34770Y203705D01*
X-34839Y203765D01*
X-34870Y203777D01*
X-34896Y203796D01*
X-34983Y203823D01*
X-35068Y203857D01*
X-35109Y203861D01*
X-35131Y203868D01*
X-35163Y203867D01*
X-35234Y203875D01*
X-41752Y203875D01*
X-41823Y203864D01*
X-41895Y203862D01*
X-41944Y203844D01*
X-41995Y203836D01*
X-42058Y203802D01*
X-42126Y203777D01*
X-42166Y203745D01*
X-42213Y203720D01*
X-42262Y203668D01*
X-42318Y203624D01*
X-42346Y203580D01*
X-42382Y203542D01*
X-42412Y203477D01*
X-42451Y203417D01*
X-42464Y203366D01*
X-42486Y203319D01*
X-42493Y203248D01*
X-42511Y203178D01*
X-42507Y203126D01*
X-42513Y203075D01*
X-42497Y203004D01*
X-42492Y202933D01*
X-42471Y202885D01*
X-42460Y202834D01*
X-42424Y202773D01*
X-42395Y202707D01*
X-42351Y202651D01*
X-42334Y202623D01*
X-42316Y202608D01*
X-42291Y202576D01*
X-40878Y201163D01*
X-40878Y197341D01*
X-40863Y197250D01*
X-40856Y197160D01*
X-40843Y197130D01*
X-40838Y197098D01*
X-40795Y197017D01*
X-40760Y196933D01*
X-40734Y196901D01*
X-40723Y196880D01*
X-40700Y196858D01*
X-40655Y196802D01*
X-39402Y195549D01*
X-39402Y191801D01*
X-42052Y189150D01*
X-45801Y189150D01*
X-48451Y191801D01*
X-48451Y195549D01*
X-48449Y195552D01*
X-48407Y195610D01*
X-48357Y195662D01*
X-48336Y195709D01*
X-48305Y195751D01*
X-48284Y195820D01*
X-48254Y195885D01*
X-48248Y195937D01*
X-48233Y195987D01*
X-48235Y196058D01*
X-48227Y196129D01*
X-48238Y196180D01*
X-48239Y196232D01*
X-48264Y196300D01*
X-48279Y196370D01*
X-48306Y196415D01*
X-48324Y196463D01*
X-48368Y196519D01*
X-48405Y196581D01*
X-48445Y196615D01*
X-48477Y196655D01*
X-48538Y196694D01*
X-48592Y196741D01*
X-48640Y196760D01*
X-48684Y196788D01*
X-48754Y196806D01*
X-48820Y196833D01*
X-48892Y196841D01*
X-48923Y196849D01*
X-48946Y196847D01*
X-48987Y196851D01*
X-49502Y196851D01*
X-49521Y196848D01*
X-49541Y196850D01*
X-49642Y196828D01*
X-49744Y196812D01*
X-49762Y196802D01*
X-49781Y196798D01*
X-49870Y196745D01*
X-49962Y196696D01*
X-49975Y196682D01*
X-49992Y196672D01*
X-50060Y196593D01*
X-50131Y196518D01*
X-50139Y196500D01*
X-50152Y196485D01*
X-50191Y196389D01*
X-50233Y196298D01*
X-51156Y195375D01*
X-55919Y195375D01*
X-56812Y196268D01*
X-56812Y202381D01*
X-56824Y202452D01*
X-56826Y202524D01*
X-56844Y202573D01*
X-56852Y202624D01*
X-56885Y202687D01*
X-56910Y202755D01*
X-56943Y202795D01*
X-56967Y202841D01*
X-57019Y202891D01*
X-57064Y202947D01*
X-57108Y202975D01*
X-57145Y203011D01*
X-57211Y203041D01*
X-57271Y203080D01*
X-57321Y203092D01*
X-57368Y203114D01*
X-57440Y203122D01*
X-57509Y203140D01*
X-57561Y203136D01*
X-57613Y203141D01*
X-57683Y203126D01*
X-57755Y203121D01*
X-57802Y203100D01*
X-57853Y203089D01*
X-57915Y203052D01*
X-57981Y203024D01*
X-58037Y202979D01*
X-58064Y202963D01*
X-58080Y202945D01*
X-58112Y202919D01*
X-58406Y202625D01*
X-65669Y202625D01*
X-66562Y203518D01*
X-66562Y204345D01*
X-66574Y204416D01*
X-66576Y204487D01*
X-66594Y204536D01*
X-66602Y204588D01*
X-66636Y204651D01*
X-66660Y204718D01*
X-66693Y204759D01*
X-66717Y204805D01*
X-66769Y204854D01*
X-66814Y204910D01*
X-66858Y204939D01*
X-66895Y204975D01*
X-66960Y205005D01*
X-67021Y205043D01*
X-67071Y205056D01*
X-67118Y205078D01*
X-67190Y205086D01*
X-67259Y205104D01*
X-67311Y205099D01*
X-67363Y205105D01*
X-67433Y205090D01*
X-67504Y205084D01*
X-67552Y205064D01*
X-67603Y205053D01*
X-67665Y205016D01*
X-67731Y204988D01*
X-67787Y204943D01*
X-67814Y204927D01*
X-67830Y204909D01*
X-67862Y204883D01*
X-69275Y203470D01*
X-70553Y203470D01*
X-70623Y203459D01*
X-70695Y203457D01*
X-70744Y203439D01*
X-70795Y203431D01*
X-70858Y203397D01*
X-70926Y203372D01*
X-70967Y203340D01*
X-71013Y203315D01*
X-71062Y203264D01*
X-71118Y203219D01*
X-71146Y203175D01*
X-71182Y203137D01*
X-71212Y203072D01*
X-71251Y203012D01*
X-71264Y202961D01*
X-71286Y202914D01*
X-71294Y202843D01*
X-71311Y202773D01*
X-71307Y202721D01*
X-71313Y202670D01*
X-71297Y202599D01*
X-71292Y202528D01*
X-71272Y202480D01*
X-71260Y202429D01*
X-71224Y202368D01*
X-71196Y202302D01*
X-71151Y202246D01*
X-71134Y202218D01*
X-71117Y202203D01*
X-71091Y202171D01*
X-33312Y164392D01*
X-33254Y164350D01*
X-33202Y164300D01*
X-33154Y164278D01*
X-33112Y164248D01*
X-33044Y164227D01*
X-32978Y164197D01*
X-32927Y164191D01*
X-32877Y164176D01*
X-32805Y164178D01*
X-32734Y164170D01*
X-32683Y164181D01*
G37*
G36*
X66680Y101094D02*
X66680Y101094D01*
X66685Y101093D01*
X66778Y101114D01*
X66872Y101132D01*
X66876Y101135D01*
X66881Y101136D01*
X66959Y101192D01*
X67037Y101245D01*
X67040Y101249D01*
X67044Y101252D01*
X67095Y101334D01*
X67147Y101413D01*
X67147Y101418D01*
X67150Y101423D01*
X67182Y101600D01*
X67182Y120440D01*
X70209Y123466D01*
X70213Y123473D01*
X70219Y123477D01*
X70268Y123556D01*
X70320Y123633D01*
X70321Y123641D01*
X70325Y123648D01*
X70357Y123825D01*
X70357Y142665D01*
X78146Y150454D01*
X78151Y150460D01*
X78157Y150465D01*
X78206Y150544D01*
X78257Y150621D01*
X78259Y150629D01*
X78263Y150635D01*
X78295Y150813D01*
X78295Y158750D01*
X78294Y158755D01*
X78295Y158760D01*
X78274Y158853D01*
X78255Y158947D01*
X78252Y158951D01*
X78251Y158956D01*
X78196Y159034D01*
X78143Y159112D01*
X78138Y159115D01*
X78135Y159119D01*
X78054Y159170D01*
X77974Y159222D01*
X77969Y159222D01*
X77965Y159225D01*
X77788Y159257D01*
X68263Y159257D01*
X68255Y159256D01*
X68247Y159257D01*
X68157Y159236D01*
X68066Y159218D01*
X68059Y159213D01*
X68052Y159211D01*
X67904Y159109D01*
X66316Y157521D01*
X66312Y157515D01*
X66306Y157510D01*
X66257Y157431D01*
X66205Y157354D01*
X66204Y157347D01*
X66200Y157340D01*
X66168Y157163D01*
X66168Y151023D01*
X58379Y143234D01*
X58374Y143227D01*
X58368Y143223D01*
X58319Y143144D01*
X58268Y143067D01*
X58266Y143059D01*
X58262Y143052D01*
X58230Y142875D01*
X58230Y101600D01*
X58231Y101595D01*
X58230Y101590D01*
X58251Y101497D01*
X58270Y101404D01*
X58273Y101399D01*
X58274Y101394D01*
X58329Y101316D01*
X58383Y101238D01*
X58387Y101235D01*
X58390Y101231D01*
X58471Y101180D01*
X58551Y101128D01*
X58556Y101128D01*
X58560Y101125D01*
X58738Y101093D01*
X66675Y101093D01*
X66680Y101094D01*
G37*
G36*
X52395Y161529D02*
X52395Y161529D01*
X52398Y161529D01*
X52494Y161550D01*
X52589Y161571D01*
X52591Y161572D01*
X52593Y161573D01*
X52673Y161629D01*
X52753Y161685D01*
X52755Y161687D01*
X52757Y161689D01*
X52808Y161771D01*
X52861Y161854D01*
X52861Y161857D01*
X52863Y161859D01*
X52895Y162036D01*
X52895Y187325D01*
X52894Y187330D01*
X52895Y187335D01*
X52874Y187428D01*
X52855Y187522D01*
X52852Y187526D01*
X52851Y187531D01*
X52796Y187609D01*
X52743Y187687D01*
X52738Y187690D01*
X52735Y187694D01*
X52654Y187745D01*
X52574Y187797D01*
X52569Y187797D01*
X52565Y187800D01*
X52388Y187832D01*
X45216Y187832D01*
X45209Y187831D01*
X45201Y187832D01*
X45111Y187811D01*
X45020Y187793D01*
X45013Y187788D01*
X45006Y187786D01*
X44858Y187684D01*
X44737Y187563D01*
X41275Y187563D01*
X41270Y187562D01*
X41265Y187563D01*
X41172Y187542D01*
X41079Y187523D01*
X41074Y187520D01*
X41069Y187519D01*
X40991Y187464D01*
X40913Y187411D01*
X40910Y187406D01*
X40906Y187403D01*
X40855Y187322D01*
X40803Y187242D01*
X40803Y187237D01*
X40800Y187233D01*
X40768Y187056D01*
X40768Y162044D01*
X40769Y162039D01*
X40768Y162034D01*
X40789Y161941D01*
X40807Y161848D01*
X40810Y161844D01*
X40811Y161839D01*
X40867Y161761D01*
X40920Y161682D01*
X40924Y161679D01*
X40927Y161675D01*
X41009Y161624D01*
X41088Y161573D01*
X41093Y161572D01*
X41098Y161569D01*
X41275Y161537D01*
X52349Y161537D01*
X52393Y161529D01*
X52395Y161529D01*
G37*
%LPC*%
G36*
X-93894Y160718D02*
X-93894Y160718D01*
X-97255Y162110D01*
X-99828Y164682D01*
X-101220Y168044D01*
X-101220Y171681D01*
X-99828Y175043D01*
X-97255Y177615D01*
X-93894Y179007D01*
X-90256Y179007D01*
X-86895Y177615D01*
X-84322Y175043D01*
X-82930Y171681D01*
X-82930Y168044D01*
X-84322Y164682D01*
X-86895Y162110D01*
X-90256Y160718D01*
X-93894Y160718D01*
G37*
%LPD*%
G36*
X17319Y139903D02*
X17319Y139903D01*
X17423Y139906D01*
X17442Y139913D01*
X17462Y139914D01*
X17557Y139955D01*
X17654Y139990D01*
X17670Y140003D01*
X17688Y140011D01*
X17819Y140115D01*
X31276Y153572D01*
X31329Y153646D01*
X31389Y153716D01*
X31401Y153746D01*
X31420Y153772D01*
X31446Y153859D01*
X31480Y153944D01*
X31485Y153985D01*
X31492Y154007D01*
X31491Y154039D01*
X31499Y154111D01*
X31499Y160549D01*
X31487Y160620D01*
X31486Y160692D01*
X31468Y160741D01*
X31459Y160792D01*
X31426Y160855D01*
X31401Y160923D01*
X31369Y160963D01*
X31344Y161009D01*
X31292Y161059D01*
X31247Y161115D01*
X31204Y161143D01*
X31166Y161179D01*
X31101Y161209D01*
X31040Y161248D01*
X30990Y161260D01*
X30943Y161282D01*
X30871Y161290D01*
X30802Y161308D01*
X30750Y161304D01*
X30698Y161309D01*
X30628Y161294D01*
X30557Y161289D01*
X30509Y161268D01*
X30458Y161257D01*
X30396Y161220D01*
X30330Y161192D01*
X30274Y161148D01*
X30247Y161131D01*
X30232Y161113D01*
X30199Y161088D01*
X11761Y142649D01*
X11718Y142589D01*
X11681Y142550D01*
X11674Y142536D01*
X11649Y142506D01*
X11636Y142476D01*
X11618Y142450D01*
X11591Y142363D01*
X11557Y142278D01*
X11552Y142237D01*
X11545Y142214D01*
X11546Y142182D01*
X11538Y142111D01*
X11538Y141561D01*
X11541Y141541D01*
X11539Y141522D01*
X11561Y141420D01*
X11578Y141318D01*
X11587Y141301D01*
X11592Y141281D01*
X11645Y141192D01*
X11693Y141101D01*
X11707Y141087D01*
X11718Y141070D01*
X11796Y141003D01*
X11871Y140931D01*
X11889Y140923D01*
X11905Y140910D01*
X12001Y140871D01*
X12094Y140828D01*
X12114Y140826D01*
X12133Y140818D01*
X12299Y140800D01*
X16058Y140800D01*
X16742Y140115D01*
X16759Y140104D01*
X16771Y140088D01*
X16858Y140032D01*
X16942Y139972D01*
X16961Y139966D01*
X16978Y139955D01*
X17078Y139930D01*
X17177Y139900D01*
X17197Y139900D01*
X17217Y139895D01*
X17319Y139903D01*
G37*
%LPC*%
G36*
X89890Y23300D02*
X89890Y23300D01*
X86800Y26390D01*
X86800Y30760D01*
X89890Y33850D01*
X94260Y33850D01*
X97350Y30760D01*
X97350Y26380D01*
X97300Y26340D01*
X94260Y23300D01*
X89890Y23300D01*
G37*
%LPD*%
%LPC*%
G36*
X-94260Y266188D02*
X-94260Y266188D01*
X-97350Y269278D01*
X-97350Y273647D01*
X-94260Y276737D01*
X-89890Y276737D01*
X-86800Y273647D01*
X-86800Y269278D01*
X-89890Y266188D01*
X-94260Y266188D01*
G37*
%LPD*%
%LPC*%
G36*
X99415Y250313D02*
X99415Y250313D01*
X96325Y253403D01*
X96325Y257772D01*
X99415Y260862D01*
X103785Y260862D01*
X106875Y257772D01*
X106875Y253403D01*
X103785Y250313D01*
X99415Y250313D01*
G37*
%LPD*%
%LPC*%
G36*
X139103Y182050D02*
X139103Y182050D01*
X136013Y185140D01*
X136013Y189510D01*
X139103Y192600D01*
X143472Y192600D01*
X146562Y189510D01*
X146562Y185140D01*
X143472Y182050D01*
X139103Y182050D01*
G37*
%LPD*%
%LPC*%
G36*
X147040Y167763D02*
X147040Y167763D01*
X143950Y170853D01*
X143950Y175222D01*
X147040Y178312D01*
X151410Y178312D01*
X154500Y175222D01*
X154500Y170853D01*
X151410Y167763D01*
X147040Y167763D01*
G37*
%LPD*%
%LPC*%
G36*
X147040Y124900D02*
X147040Y124900D01*
X143950Y127990D01*
X143950Y132360D01*
X147040Y135450D01*
X151410Y135450D01*
X154500Y132360D01*
X154500Y127990D01*
X151410Y124900D01*
X147040Y124900D01*
G37*
%LPD*%
%LPC*%
G36*
X137515Y107438D02*
X137515Y107438D01*
X134425Y110528D01*
X134425Y114897D01*
X137515Y117987D01*
X141885Y117987D01*
X144975Y114897D01*
X144975Y110528D01*
X141885Y107438D01*
X137515Y107438D01*
G37*
%LPD*%
%LPC*%
G36*
X-59335Y5838D02*
X-59335Y5838D01*
X-62425Y8928D01*
X-62425Y13297D01*
X-59335Y16387D01*
X-54965Y16387D01*
X-51875Y13297D01*
X-51875Y8928D01*
X-54965Y5838D01*
X-59335Y5838D01*
G37*
%LPD*%
%LPC*%
G36*
X-43460Y5838D02*
X-43460Y5838D01*
X-46550Y8928D01*
X-46550Y13297D01*
X-43460Y16387D01*
X-39090Y16387D01*
X-36000Y13297D01*
X-36000Y8928D01*
X-39090Y5838D01*
X-43460Y5838D01*
G37*
%LPD*%
D10*
X47063Y138113D03*
X64063Y138113D03*
D11*
X49063Y115888D03*
X62063Y115888D03*
X49063Y106363D03*
X62063Y106363D03*
D10*
X47063Y127000D03*
X64063Y127000D03*
X46038Y155013D03*
X46038Y172013D03*
D12*
X106363Y146050D03*
D13*
X-92075Y169863D03*
X-92075Y144463D03*
X-92075Y119063D03*
D14*
X71438Y168425D03*
X71438Y155425D03*
X-50800Y131913D03*
X-50800Y118913D03*
D15*
X33800Y116407D03*
X33800Y111406D03*
X33800Y106404D03*
X33800Y101403D03*
X33800Y96402D03*
X33800Y91401D03*
X33800Y86399D03*
X33800Y81398D03*
X33800Y76397D03*
X33800Y71396D03*
X33800Y66394D03*
X33800Y61393D03*
D16*
X27507Y55100D03*
X22506Y55100D03*
X17504Y55100D03*
X12503Y55100D03*
X7502Y55100D03*
X2501Y55100D03*
X-2501Y55100D03*
X-7502Y55100D03*
X-12503Y55100D03*
X-17504Y55100D03*
X-22506Y55100D03*
X-27507Y55100D03*
D15*
X-33800Y61393D03*
X-33800Y66394D03*
X-33800Y71396D03*
X-33800Y76397D03*
X-33800Y81398D03*
X-33800Y86399D03*
X-33800Y91401D03*
X-33800Y96402D03*
X-33800Y101403D03*
X-33800Y106404D03*
X-33800Y111406D03*
X-33800Y116407D03*
D16*
X-27507Y122700D03*
X-22506Y122700D03*
X-17504Y122700D03*
X-12503Y122700D03*
X-7502Y122700D03*
X-2501Y122700D03*
X2501Y122700D03*
X7502Y122700D03*
X12503Y122700D03*
X17504Y122700D03*
X22506Y122700D03*
X27507Y122700D03*
D17*
X0Y88900D03*
D18*
X61913Y67375D03*
X61913Y79375D03*
X61913Y91375D03*
D11*
X9375Y171450D03*
X22375Y171450D03*
D14*
X34925Y244325D03*
X34925Y257325D03*
X50800Y244325D03*
X50800Y257325D03*
X-38100Y244325D03*
X-38100Y257325D03*
X-53975Y244325D03*
X-53975Y257325D03*
D19*
X82600Y293913D03*
X165200Y150813D03*
X82600Y7713D03*
X-82600Y7713D03*
X-165200Y150813D03*
X-82600Y293913D03*
X123900Y222313D03*
X123900Y79313D03*
X0Y7713D03*
X-123900Y79313D03*
X-123900Y222313D03*
X0Y293913D03*
D20*
X50363Y231900D03*
D21*
X58863Y225900D03*
X58863Y220900D03*
X58863Y215900D03*
X58863Y210900D03*
X58863Y205900D03*
D20*
X50363Y199900D03*
X35363Y199900D03*
D21*
X26863Y205900D03*
X26863Y210900D03*
X26863Y215900D03*
X26863Y220900D03*
X26863Y225900D03*
D20*
X35363Y231900D03*
D22*
X42863Y215900D03*
D20*
X-38538Y231900D03*
D21*
X-30038Y225900D03*
X-30038Y220900D03*
X-30038Y215900D03*
X-30038Y210900D03*
X-30038Y205900D03*
D20*
X-38538Y199900D03*
X-53538Y199900D03*
D21*
X-62038Y205900D03*
X-62038Y210900D03*
X-62038Y215900D03*
X-62038Y220900D03*
X-62038Y225900D03*
D20*
X-53538Y231900D03*
D22*
X-46038Y215900D03*
D23*
X55675Y182563D03*
X77675Y182563D03*
D24*
X39688Y293688D03*
X53975Y293688D03*
X93663Y271463D03*
X101600Y255588D03*
X141288Y187325D03*
X149225Y173038D03*
X149225Y130175D03*
X139700Y112713D03*
X101600Y42863D03*
X92075Y28575D03*
X53975Y7938D03*
X38100Y7938D03*
X-41275Y11113D03*
X-57150Y11113D03*
X-95250Y30163D03*
X-103188Y46038D03*
X-152400Y131763D03*
X-144463Y114300D03*
X-150813Y174625D03*
X-141288Y188913D03*
X-103188Y255588D03*
X-92075Y271463D03*
X-55563Y293688D03*
X-38100Y293688D03*
D25*
X-53538Y243888D02*
X-53538Y231900D01*
X-53538Y243888D02*
X-53975Y244325D01*
X50363Y243888D02*
X50363Y231900D01*
X50363Y243888D02*
X50800Y244325D01*
D24*
X84138Y149225D03*
X80963Y141288D03*
D26*
X-53975Y234950D02*
X-53975Y238274D01*
X-53975Y234950D02*
X-53975Y232338D01*
X-53538Y231900D01*
D24*
X-12700Y227013D03*
X-19050Y234950D03*
X46038Y182563D03*
X46038Y166688D03*
X60325Y244475D03*
D25*
X50950Y244475D01*
X50800Y244325D01*
D27*
X-53975Y234950D02*
X-60325Y234950D01*
D28*
X-60325Y234950D03*
X-3175Y158750D03*
X-3175Y150813D03*
X3175Y142875D03*
X3175Y158750D03*
X3175Y150813D03*
X-3175Y142875D03*
D24*
X55563Y263525D03*
X69850Y252413D03*
X-74613Y255588D03*
X-58738Y266700D03*
X-122238Y160338D03*
X-123825Y141288D03*
X-74613Y57150D03*
X-65088Y38100D03*
X115888Y168275D03*
X109538Y119063D03*
X77788Y82550D03*
X38100Y19050D03*
X52388Y17463D03*
X-17463Y79375D03*
X4763Y79375D03*
X-41275Y182563D03*
X52388Y193675D03*
D28*
X17463Y144463D03*
D29*
X-96728Y226439D03*
D27*
X-7502Y134270D02*
X-7502Y122700D01*
X-93553Y223264D02*
X-96728Y226439D01*
X-93553Y223264D02*
X-93553Y220322D01*
X-7502Y134270D01*
X-12503Y131334D02*
X-12503Y122700D01*
X-12503Y131334D02*
X-22225Y141056D01*
X-22225Y141288D01*
X-103250Y222313D01*
X-123900Y222313D01*
D30*
X-14529Y30177D03*
D27*
X-17504Y33152D01*
X-17504Y55100D01*
D30*
X-97544Y79938D03*
D31*
X-96084Y81398D02*
X-33800Y81398D01*
X-96084Y81398D02*
X-97544Y79938D01*
D27*
X-22506Y55100D02*
X-22506Y7713D01*
X0Y7713D01*
D31*
X-90936Y96402D02*
X-108025Y79313D01*
X-123900Y79313D01*
X-90936Y96402D02*
X-33800Y96402D01*
D27*
X53650Y96423D02*
X58323Y96423D01*
X43626Y86399D02*
X33800Y86399D01*
X43626Y86399D02*
X53650Y96423D01*
X62063Y100163D02*
X62063Y106363D01*
X62063Y100163D02*
X58323Y96423D01*
X32213Y55100D02*
X40831Y46482D01*
X32213Y55100D02*
X27507Y55100D01*
D30*
X100631Y61532D03*
D27*
X87169Y46482D02*
X40831Y46482D01*
X100631Y59945D02*
X100631Y61532D01*
X100631Y59945D02*
X87169Y46482D01*
X22506Y122700D02*
X22506Y126392D01*
X27890Y131776D01*
D29*
X27890Y131776D03*
X15821Y271647D03*
D27*
X22506Y55100D02*
X22506Y50403D01*
X90650Y41910D02*
X107179Y58439D01*
X107179Y62592D01*
X123900Y79313D01*
X90650Y41910D02*
X30999Y41910D01*
X22506Y50403D01*
X5077Y293913D02*
X0Y293913D01*
X5077Y293913D02*
X23072Y275918D01*
D29*
X23072Y275918D03*
X33327Y125426D03*
D27*
X27507Y123193D02*
X27507Y122700D01*
X27507Y123193D02*
X29740Y125426D01*
X33327Y125426D01*
X33800Y66394D02*
X38381Y66394D01*
X47625Y57150D01*
X68263Y57150D01*
X91098Y79986D01*
X91098Y175236D01*
X112565Y196702D02*
X112565Y198130D01*
D30*
X112565Y198130D03*
D27*
X112565Y196702D02*
X91098Y175236D01*
X35329Y61393D02*
X44144Y52578D01*
X35329Y61393D02*
X33800Y61393D01*
X44144Y52578D02*
X70156Y52578D01*
X95670Y78092D01*
X95670Y170388D02*
X125463Y200181D01*
X125463Y220750D02*
X123900Y222313D01*
X125463Y220750D02*
X125463Y200181D01*
X95670Y170388D02*
X95670Y78092D01*
D26*
X45841Y76397D02*
X33800Y76397D01*
X45841Y76397D02*
X55563Y66675D01*
X61212Y66675D01*
X61913Y67375D01*
X46473Y81398D02*
X33800Y81398D01*
X56450Y91375D02*
X61913Y91375D01*
X56450Y91375D02*
X46473Y81398D01*
D32*
X-36306Y118913D02*
X-50800Y118913D01*
X-36306Y118913D02*
X-33800Y116407D01*
X-50800Y118913D02*
X-66525Y118913D01*
X-92075Y144463D01*
X-40150Y111406D02*
X-33800Y111406D01*
X-40150Y111406D02*
X-41738Y112994D01*
X-65369Y112994D01*
X-71438Y119063D01*
X-92075Y119063D01*
X-29188Y211750D02*
X-29074Y211864D01*
X-29188Y211750D02*
X-30038Y210900D01*
D28*
X-30163Y129724D03*
X-28575Y192088D03*
D32*
X-28575Y195263D01*
X-24752Y208597D02*
X-26091Y209936D01*
X-27374Y209936D01*
X-29188Y211750D01*
X-24752Y199086D02*
X-28575Y195263D01*
X-24752Y199086D02*
X-24752Y208597D01*
D28*
X0Y133350D03*
D32*
X6350Y133350D01*
X9252Y136252D02*
X9252Y143374D01*
X30163Y164285D01*
X25899Y219936D02*
X22916Y219936D01*
X25899Y219936D02*
X26863Y220900D01*
X14415Y211435D02*
X14415Y196723D01*
X14415Y211435D02*
X22916Y219936D01*
X9252Y136252D02*
X6350Y133350D01*
X30163Y164285D02*
X30163Y180975D01*
X14415Y196723D01*
X-29074Y216864D02*
X-30038Y215900D01*
D28*
X-23266Y133897D03*
X-23234Y214891D03*
D32*
X-24243Y215900D01*
X-30038Y215900D01*
D28*
X17691Y130175D03*
D32*
X38100Y152080D02*
X38100Y182563D01*
X17691Y131671D02*
X17691Y130175D01*
X17691Y131671D02*
X38100Y152080D01*
X38100Y182563D02*
X20638Y200025D01*
X22916Y209936D02*
X25899Y209936D01*
X26863Y210900D01*
X20638Y207658D02*
X20638Y200025D01*
X20638Y207658D02*
X22916Y209936D01*
D28*
X17637Y160163D03*
D32*
X22375Y164901D02*
X22375Y171450D01*
X22375Y164901D02*
X17637Y160163D01*
X25899Y224936D02*
X26863Y225900D01*
X25899Y224936D02*
X22916Y224936D01*
X11367Y195460D02*
X22225Y184602D01*
X11367Y213387D02*
X22916Y224936D01*
X11367Y213387D02*
X11367Y195460D01*
X22225Y171600D02*
X22375Y171450D01*
X22225Y171600D02*
X22225Y184602D01*
D28*
X14288Y136525D03*
D32*
X33786Y152848D02*
X33786Y182114D01*
X33786Y152848D02*
X17463Y136525D01*
X14288Y136525D01*
X17463Y198438D02*
X17463Y209550D01*
X17463Y198438D02*
X33786Y182114D01*
X25899Y214936D02*
X26863Y215900D01*
X25899Y214936D02*
X22916Y214936D01*
X17530Y209550D02*
X17463Y209550D01*
X17530Y209550D02*
X22916Y214936D01*
D28*
X-15875Y158750D03*
D32*
X-30038Y225900D02*
X-29074Y226864D01*
X-30038Y225900D02*
X-21223Y225900D01*
X-15150Y219827D01*
X-15150Y208687D02*
X-17463Y206375D01*
X-17463Y160338D01*
X-15875Y158750D01*
X-15150Y208687D02*
X-15150Y219827D01*
D28*
X-15875Y151649D03*
D32*
X-30038Y220900D02*
X-29414Y221524D01*
X-30038Y220900D02*
X-22121Y220900D01*
X-18198Y216977D01*
X-17940Y153714D02*
X-15875Y151649D01*
X-17940Y153714D02*
X-17961Y153714D01*
X-20911Y156664D01*
X-20911Y208461D01*
X-18198Y211174D01*
X-18198Y216977D01*
D30*
X-41493Y126115D03*
X-26988Y163513D03*
D24*
X-11113Y184150D03*
D25*
X-38538Y231900D02*
X-38538Y243888D01*
X-38100Y244325D01*
X35363Y243888D02*
X35363Y231900D01*
X35363Y243888D02*
X34925Y244325D01*
X17613Y244325D01*
X17463Y244475D01*
D24*
X17463Y244475D03*
X-30163Y244475D03*
D25*
X-30313Y244325D01*
X-38100Y244325D01*
D29*
X8345Y41683D03*
D27*
X8345Y43417D01*
X2756Y49005D02*
X2501Y48750D01*
X2501Y55100D01*
X2756Y49005D02*
X8345Y43417D01*
D29*
X36762Y133337D03*
X19050Y228600D03*
X2925Y35582D03*
D27*
X-2501Y46681D02*
X-2501Y55100D01*
X-2501Y46681D02*
X-9Y44189D01*
X-9Y38516D02*
X2925Y35582D01*
X-9Y38516D02*
X-9Y44189D01*
X35363Y192088D02*
X35363Y199900D01*
X35363Y192088D02*
X42863Y192088D01*
D29*
X42863Y192088D03*
D32*
X-62038Y215900D02*
X-63002Y214936D01*
X-71236Y214936D01*
X-71819Y215519D01*
D29*
X-71819Y215519D03*
D28*
X-53975Y66054D03*
D32*
X-34158Y76755D02*
X-33800Y76397D01*
X-34158Y76755D02*
X-35909Y76755D01*
X-46611Y66054D02*
X-53975Y66054D01*
X-46611Y66054D02*
X-35909Y76755D01*
X-69312Y207084D02*
X-68401Y207995D01*
X-65496Y210900D01*
X-62038Y210900D01*
X-68401Y207995D02*
X-71149Y207995D01*
D29*
X-71149Y207995D03*
D28*
X-42863Y55563D03*
D32*
X-33800Y66394D02*
X-34158Y66752D01*
X-35909Y66752D01*
X-42863Y59799D01*
X-42863Y55563D01*
D28*
X30141Y34947D03*
X77788Y211138D03*
D32*
X77550Y210900D01*
X58863Y210900D01*
D33*
X17504Y49837D02*
X30141Y37201D01*
X17504Y49837D02*
X17504Y55100D01*
X30141Y37201D02*
X30141Y34947D01*
D32*
X70622Y222250D02*
X71030Y222658D01*
D28*
X71536Y223164D03*
D32*
X71030Y222658D01*
D28*
X23405Y32158D03*
D33*
X23405Y38508D01*
X12503Y49410D01*
X12503Y55100D01*
D32*
X58863Y220900D02*
X59827Y221864D01*
X62809Y221864D01*
X63603Y222658D01*
X71030Y222658D01*
D28*
X-71438Y230862D03*
D32*
X-63625Y225900D02*
X-62038Y225900D01*
X-63625Y225900D02*
X-68587Y230862D01*
X-71438Y230862D01*
D28*
X-34925Y55563D03*
D32*
X-34925Y60268D01*
X-33800Y61393D01*
D28*
X-69850Y223838D03*
X-49213Y60599D03*
D32*
X-36260Y71396D02*
X-33800Y71396D01*
X-36260Y71396D02*
X-36264Y71399D01*
X-47064Y60599D02*
X-49213Y60599D01*
X-47064Y60599D02*
X-36264Y71399D01*
X-62038Y220900D02*
X-66913Y220900D01*
X-69850Y223838D01*
D28*
X-11113Y41275D03*
D32*
X-12503Y42666D02*
X-12503Y55100D01*
X-12503Y42666D02*
X-11113Y41275D01*
D28*
X60325Y231775D03*
D32*
X60325Y227363D01*
X58863Y225900D01*
D28*
X66675Y217488D03*
D32*
X65881Y216694D01*
X65325Y216138D01*
X-27507Y55100D02*
X-28304Y54303D01*
X-28304Y31750D01*
D28*
X-28304Y31750D03*
D32*
X58863Y215900D02*
X59656Y216694D01*
X65881Y216694D01*
D29*
X-43927Y193675D03*
D27*
X-43927Y199900D02*
X-53538Y199900D01*
X-43927Y199900D02*
X-43927Y193675D01*
D29*
X48164Y65164D03*
D26*
X40150Y71396D02*
X33800Y71396D01*
X46382Y65164D02*
X48164Y65164D01*
X46382Y65164D02*
X40150Y71396D01*
D28*
X-5733Y33546D03*
D26*
X-4327Y42400D02*
X-7502Y45575D01*
X-7502Y55100D01*
X-4327Y42400D02*
X-4327Y34952D01*
X-5733Y33546D01*
M02*
