G04 EAGLE Gerber RS-274X export*
G75*
%MOMM*%
%FSLAX34Y34*%
%LPD*%
%INSilkscreen Bottom*%
%IPPOS*%
%AMOC8*
5,1,8,0,0,1.08239X$1,22.5*%
G01*
%ADD10C,0.152400*%
%ADD11C,0.101600*%
%ADD12C,0.076200*%
%ADD13C,0.127000*%
%ADD14C,0.304800*%
%ADD15C,0.203200*%
%ADD16C,0.406400*%
%ADD17C,0.200000*%
%ADD18C,0.150000*%

G36*
X-40130Y84369D02*
X-40130Y84369D01*
X-40128Y84368D01*
X-40085Y84388D01*
X-40041Y84406D01*
X-40041Y84408D01*
X-40039Y84409D01*
X-40006Y84494D01*
X-40006Y88304D01*
X-40007Y88306D01*
X-40006Y88308D01*
X-40026Y88351D01*
X-40044Y88395D01*
X-40046Y88395D01*
X-40047Y88397D01*
X-40132Y88430D01*
X-42672Y88430D01*
X-42674Y88429D01*
X-42676Y88430D01*
X-42719Y88410D01*
X-42763Y88392D01*
X-42763Y88390D01*
X-42765Y88389D01*
X-42798Y88304D01*
X-42798Y84494D01*
X-42797Y84492D01*
X-42798Y84490D01*
X-42778Y84447D01*
X-42760Y84403D01*
X-42758Y84403D01*
X-42757Y84401D01*
X-42672Y84368D01*
X-40132Y84368D01*
X-40130Y84369D01*
G37*
G36*
X42674Y69366D02*
X42674Y69366D01*
X42676Y69365D01*
X42719Y69385D01*
X42763Y69403D01*
X42763Y69405D01*
X42765Y69406D01*
X42798Y69491D01*
X42798Y73301D01*
X42797Y73303D01*
X42798Y73305D01*
X42778Y73348D01*
X42760Y73392D01*
X42758Y73392D01*
X42757Y73394D01*
X42672Y73427D01*
X40132Y73427D01*
X40130Y73426D01*
X40128Y73427D01*
X40085Y73407D01*
X40041Y73389D01*
X40041Y73387D01*
X40039Y73386D01*
X40006Y73301D01*
X40006Y69491D01*
X40007Y69489D01*
X40006Y69487D01*
X40026Y69444D01*
X40044Y69400D01*
X40046Y69400D01*
X40047Y69398D01*
X40132Y69365D01*
X42672Y69365D01*
X42674Y69366D01*
G37*
G36*
X-5595Y46103D02*
X-5595Y46103D01*
X-5593Y46102D01*
X-5550Y46122D01*
X-5506Y46140D01*
X-5506Y46142D01*
X-5504Y46143D01*
X-5471Y46228D01*
X-5471Y48768D01*
X-5472Y48770D01*
X-5471Y48772D01*
X-5491Y48815D01*
X-5509Y48859D01*
X-5511Y48859D01*
X-5512Y48861D01*
X-5597Y48894D01*
X-9407Y48894D01*
X-9409Y48893D01*
X-9411Y48894D01*
X-9454Y48874D01*
X-9498Y48856D01*
X-9498Y48854D01*
X-9500Y48853D01*
X-9533Y48768D01*
X-9533Y46228D01*
X-9532Y46226D01*
X-9533Y46224D01*
X-9513Y46181D01*
X-9495Y46137D01*
X-9493Y46137D01*
X-9492Y46135D01*
X-9407Y46102D01*
X-5597Y46102D01*
X-5595Y46103D01*
G37*
D10*
X-120206Y106271D02*
X-103950Y106271D01*
X-111174Y106271D02*
X-111174Y115302D01*
X-103950Y115302D02*
X-120206Y115302D01*
X-112078Y122424D02*
X-111758Y122428D01*
X-111439Y122439D01*
X-111119Y122458D01*
X-110801Y122485D01*
X-110483Y122519D01*
X-110166Y122561D01*
X-109850Y122611D01*
X-109535Y122668D01*
X-109222Y122732D01*
X-108910Y122804D01*
X-108600Y122883D01*
X-108293Y122970D01*
X-107987Y123064D01*
X-107684Y123165D01*
X-107383Y123274D01*
X-107085Y123389D01*
X-106789Y123512D01*
X-106497Y123642D01*
X-106208Y123779D01*
X-106207Y123779D02*
X-106099Y123818D01*
X-105992Y123861D01*
X-105887Y123907D01*
X-105784Y123957D01*
X-105682Y124011D01*
X-105582Y124068D01*
X-105484Y124129D01*
X-105388Y124193D01*
X-105295Y124260D01*
X-105204Y124330D01*
X-105115Y124404D01*
X-105029Y124480D01*
X-104946Y124560D01*
X-104865Y124642D01*
X-104787Y124727D01*
X-104713Y124814D01*
X-104641Y124905D01*
X-104572Y124997D01*
X-104507Y125092D01*
X-104445Y125189D01*
X-104386Y125288D01*
X-104331Y125389D01*
X-104280Y125492D01*
X-104232Y125597D01*
X-104187Y125703D01*
X-104146Y125810D01*
X-104109Y125919D01*
X-104076Y126030D01*
X-104047Y126141D01*
X-104021Y126253D01*
X-103999Y126366D01*
X-103982Y126480D01*
X-103968Y126594D01*
X-103958Y126709D01*
X-103952Y126824D01*
X-103950Y126939D01*
X-103949Y126939D02*
X-103951Y127054D01*
X-103957Y127169D01*
X-103967Y127284D01*
X-103981Y127398D01*
X-103998Y127512D01*
X-104020Y127625D01*
X-104046Y127737D01*
X-104075Y127849D01*
X-104108Y127959D01*
X-104145Y128068D01*
X-104186Y128176D01*
X-104231Y128282D01*
X-104279Y128387D01*
X-104330Y128489D01*
X-104386Y128591D01*
X-104444Y128690D01*
X-104506Y128787D01*
X-104572Y128882D01*
X-104640Y128974D01*
X-104712Y129064D01*
X-104786Y129152D01*
X-104864Y129237D01*
X-104945Y129319D01*
X-105028Y129398D01*
X-105114Y129475D01*
X-105203Y129548D01*
X-105294Y129619D01*
X-105388Y129686D01*
X-105483Y129750D01*
X-105581Y129811D01*
X-105681Y129868D01*
X-105783Y129921D01*
X-105887Y129972D01*
X-105992Y130018D01*
X-106099Y130061D01*
X-106207Y130100D01*
X-106208Y130099D02*
X-106497Y130236D01*
X-106789Y130366D01*
X-107085Y130489D01*
X-107383Y130604D01*
X-107684Y130713D01*
X-107987Y130814D01*
X-108293Y130908D01*
X-108600Y130995D01*
X-108910Y131074D01*
X-109222Y131146D01*
X-109535Y131210D01*
X-109850Y131267D01*
X-110166Y131317D01*
X-110483Y131359D01*
X-110801Y131393D01*
X-111119Y131420D01*
X-111439Y131439D01*
X-111758Y131450D01*
X-112078Y131454D01*
X-112078Y122424D02*
X-112398Y122428D01*
X-112717Y122439D01*
X-113037Y122458D01*
X-113355Y122485D01*
X-113673Y122519D01*
X-113990Y122561D01*
X-114306Y122611D01*
X-114621Y122668D01*
X-114934Y122732D01*
X-115246Y122804D01*
X-115556Y122883D01*
X-115863Y122970D01*
X-116169Y123064D01*
X-116472Y123165D01*
X-116773Y123274D01*
X-117071Y123389D01*
X-117367Y123512D01*
X-117659Y123642D01*
X-117948Y123779D01*
X-117948Y123778D02*
X-118056Y123817D01*
X-118163Y123860D01*
X-118268Y123906D01*
X-118372Y123957D01*
X-118474Y124010D01*
X-118574Y124067D01*
X-118672Y124128D01*
X-118767Y124192D01*
X-118861Y124259D01*
X-118952Y124330D01*
X-119041Y124403D01*
X-119127Y124480D01*
X-119210Y124559D01*
X-119291Y124641D01*
X-119369Y124726D01*
X-119443Y124814D01*
X-119515Y124904D01*
X-119584Y124997D01*
X-119649Y125091D01*
X-119711Y125188D01*
X-119769Y125288D01*
X-119825Y125389D01*
X-119876Y125491D01*
X-119924Y125596D01*
X-119969Y125702D01*
X-120010Y125810D01*
X-120047Y125919D01*
X-120080Y126029D01*
X-120109Y126141D01*
X-120135Y126253D01*
X-120157Y126366D01*
X-120174Y126480D01*
X-120188Y126594D01*
X-120198Y126709D01*
X-120204Y126824D01*
X-120206Y126939D01*
X-117948Y130099D02*
X-117659Y130236D01*
X-117367Y130366D01*
X-117071Y130489D01*
X-116773Y130604D01*
X-116472Y130713D01*
X-116169Y130814D01*
X-115863Y130908D01*
X-115556Y130995D01*
X-115246Y131074D01*
X-114934Y131146D01*
X-114621Y131210D01*
X-114306Y131267D01*
X-113990Y131317D01*
X-113673Y131359D01*
X-113355Y131393D01*
X-113037Y131420D01*
X-112717Y131439D01*
X-112398Y131450D01*
X-112078Y131454D01*
X-117948Y130100D02*
X-118056Y130061D01*
X-118163Y130018D01*
X-118268Y129972D01*
X-118372Y129921D01*
X-118474Y129868D01*
X-118574Y129811D01*
X-118672Y129750D01*
X-118767Y129686D01*
X-118861Y129619D01*
X-118952Y129548D01*
X-119041Y129475D01*
X-119127Y129398D01*
X-119210Y129319D01*
X-119291Y129237D01*
X-119369Y129152D01*
X-119443Y129064D01*
X-119515Y128974D01*
X-119584Y128881D01*
X-119649Y128787D01*
X-119711Y128690D01*
X-119769Y128590D01*
X-119825Y128489D01*
X-119876Y128386D01*
X-119924Y128282D01*
X-119969Y128176D01*
X-120010Y128068D01*
X-120047Y127959D01*
X-120080Y127849D01*
X-120109Y127737D01*
X-120135Y127625D01*
X-120157Y127512D01*
X-120174Y127398D01*
X-120188Y127284D01*
X-120198Y127169D01*
X-120204Y127054D01*
X-120206Y126939D01*
X-116593Y123327D02*
X-107562Y130551D01*
X-115690Y138054D02*
X-115557Y138056D01*
X-115425Y138062D01*
X-115293Y138072D01*
X-115161Y138085D01*
X-115029Y138103D01*
X-114899Y138124D01*
X-114768Y138149D01*
X-114639Y138178D01*
X-114511Y138211D01*
X-114383Y138247D01*
X-114257Y138287D01*
X-114132Y138331D01*
X-114008Y138379D01*
X-113886Y138430D01*
X-113765Y138485D01*
X-113646Y138543D01*
X-113528Y138605D01*
X-113413Y138670D01*
X-113299Y138739D01*
X-113188Y138810D01*
X-113079Y138886D01*
X-112972Y138964D01*
X-112867Y139045D01*
X-112765Y139130D01*
X-112665Y139217D01*
X-112568Y139307D01*
X-112473Y139400D01*
X-112382Y139496D01*
X-112293Y139594D01*
X-112207Y139695D01*
X-112124Y139799D01*
X-112044Y139905D01*
X-111968Y140013D01*
X-111894Y140123D01*
X-111824Y140236D01*
X-111757Y140350D01*
X-111694Y140467D01*
X-111634Y140585D01*
X-111577Y140705D01*
X-111524Y140827D01*
X-111475Y140950D01*
X-111429Y141074D01*
X-111387Y141200D01*
X-111349Y141327D01*
X-111314Y141455D01*
X-111283Y141584D01*
X-111256Y141713D01*
X-111233Y141844D01*
X-111213Y141975D01*
X-111198Y142107D01*
X-111186Y142239D01*
X-111178Y142371D01*
X-111174Y142504D01*
X-111174Y142636D01*
X-111178Y142769D01*
X-111186Y142901D01*
X-111198Y143033D01*
X-111213Y143165D01*
X-111233Y143296D01*
X-111256Y143427D01*
X-111283Y143556D01*
X-111314Y143685D01*
X-111349Y143813D01*
X-111387Y143940D01*
X-111429Y144066D01*
X-111475Y144190D01*
X-111524Y144313D01*
X-111577Y144435D01*
X-111634Y144555D01*
X-111694Y144673D01*
X-111757Y144790D01*
X-111824Y144904D01*
X-111894Y145017D01*
X-111968Y145127D01*
X-112044Y145235D01*
X-112124Y145341D01*
X-112207Y145445D01*
X-112293Y145546D01*
X-112382Y145644D01*
X-112473Y145740D01*
X-112568Y145833D01*
X-112665Y145923D01*
X-112765Y146010D01*
X-112867Y146095D01*
X-112972Y146176D01*
X-113079Y146254D01*
X-113188Y146330D01*
X-113299Y146401D01*
X-113413Y146470D01*
X-113528Y146535D01*
X-113646Y146597D01*
X-113765Y146655D01*
X-113886Y146710D01*
X-114008Y146761D01*
X-114132Y146809D01*
X-114257Y146853D01*
X-114383Y146893D01*
X-114511Y146929D01*
X-114639Y146962D01*
X-114768Y146991D01*
X-114899Y147016D01*
X-115029Y147037D01*
X-115161Y147055D01*
X-115293Y147068D01*
X-115425Y147078D01*
X-115557Y147084D01*
X-115690Y147086D01*
X-115823Y147084D01*
X-115955Y147078D01*
X-116087Y147068D01*
X-116219Y147055D01*
X-116351Y147037D01*
X-116481Y147016D01*
X-116612Y146991D01*
X-116741Y146962D01*
X-116869Y146929D01*
X-116997Y146893D01*
X-117123Y146853D01*
X-117248Y146809D01*
X-117372Y146761D01*
X-117494Y146710D01*
X-117615Y146655D01*
X-117734Y146597D01*
X-117852Y146535D01*
X-117967Y146470D01*
X-118081Y146401D01*
X-118192Y146330D01*
X-118301Y146254D01*
X-118408Y146176D01*
X-118513Y146095D01*
X-118615Y146010D01*
X-118715Y145923D01*
X-118812Y145833D01*
X-118907Y145740D01*
X-118998Y145644D01*
X-119087Y145546D01*
X-119173Y145445D01*
X-119256Y145341D01*
X-119336Y145235D01*
X-119412Y145127D01*
X-119486Y145017D01*
X-119556Y144904D01*
X-119623Y144790D01*
X-119686Y144673D01*
X-119746Y144555D01*
X-119803Y144435D01*
X-119856Y144313D01*
X-119905Y144190D01*
X-119951Y144066D01*
X-119993Y143940D01*
X-120031Y143813D01*
X-120066Y143685D01*
X-120097Y143556D01*
X-120124Y143427D01*
X-120147Y143296D01*
X-120167Y143165D01*
X-120182Y143033D01*
X-120194Y142901D01*
X-120202Y142769D01*
X-120206Y142636D01*
X-120206Y142504D01*
X-120202Y142371D01*
X-120194Y142239D01*
X-120182Y142107D01*
X-120167Y141975D01*
X-120147Y141844D01*
X-120124Y141713D01*
X-120097Y141584D01*
X-120066Y141455D01*
X-120031Y141327D01*
X-119993Y141200D01*
X-119951Y141074D01*
X-119905Y140950D01*
X-119856Y140827D01*
X-119803Y140705D01*
X-119746Y140585D01*
X-119686Y140467D01*
X-119623Y140350D01*
X-119556Y140236D01*
X-119486Y140123D01*
X-119412Y140013D01*
X-119336Y139905D01*
X-119256Y139799D01*
X-119173Y139695D01*
X-119087Y139594D01*
X-118998Y139496D01*
X-118907Y139400D01*
X-118812Y139307D01*
X-118715Y139217D01*
X-118615Y139130D01*
X-118513Y139045D01*
X-118408Y138964D01*
X-118301Y138886D01*
X-118192Y138810D01*
X-118081Y138739D01*
X-117967Y138670D01*
X-117852Y138605D01*
X-117734Y138543D01*
X-117615Y138485D01*
X-117494Y138430D01*
X-117372Y138379D01*
X-117248Y138331D01*
X-117123Y138287D01*
X-116997Y138247D01*
X-116869Y138211D01*
X-116741Y138178D01*
X-116612Y138149D01*
X-116481Y138124D01*
X-116351Y138103D01*
X-116219Y138085D01*
X-116087Y138072D01*
X-115955Y138062D01*
X-115823Y138056D01*
X-115690Y138054D01*
X-107562Y138958D02*
X-107443Y138960D01*
X-107323Y138966D01*
X-107204Y138976D01*
X-107086Y138990D01*
X-106967Y139007D01*
X-106850Y139029D01*
X-106733Y139054D01*
X-106618Y139084D01*
X-106503Y139117D01*
X-106389Y139154D01*
X-106277Y139194D01*
X-106166Y139239D01*
X-106057Y139287D01*
X-105949Y139338D01*
X-105843Y139393D01*
X-105739Y139452D01*
X-105637Y139514D01*
X-105537Y139579D01*
X-105439Y139648D01*
X-105343Y139720D01*
X-105250Y139795D01*
X-105160Y139872D01*
X-105072Y139953D01*
X-104987Y140037D01*
X-104905Y140124D01*
X-104825Y140213D01*
X-104749Y140305D01*
X-104675Y140399D01*
X-104605Y140496D01*
X-104538Y140594D01*
X-104474Y140695D01*
X-104414Y140799D01*
X-104357Y140904D01*
X-104304Y141011D01*
X-104254Y141119D01*
X-104208Y141229D01*
X-104166Y141341D01*
X-104127Y141454D01*
X-104092Y141568D01*
X-104061Y141683D01*
X-104033Y141800D01*
X-104010Y141917D01*
X-103990Y142034D01*
X-103974Y142153D01*
X-103962Y142272D01*
X-103954Y142391D01*
X-103950Y142510D01*
X-103950Y142630D01*
X-103954Y142749D01*
X-103962Y142868D01*
X-103974Y142987D01*
X-103990Y143106D01*
X-104010Y143223D01*
X-104033Y143340D01*
X-104061Y143457D01*
X-104092Y143572D01*
X-104127Y143686D01*
X-104166Y143799D01*
X-104208Y143911D01*
X-104254Y144021D01*
X-104304Y144129D01*
X-104357Y144236D01*
X-104414Y144341D01*
X-104474Y144445D01*
X-104538Y144546D01*
X-104605Y144644D01*
X-104675Y144741D01*
X-104749Y144835D01*
X-104825Y144927D01*
X-104905Y145016D01*
X-104987Y145103D01*
X-105072Y145187D01*
X-105160Y145268D01*
X-105250Y145345D01*
X-105343Y145420D01*
X-105439Y145492D01*
X-105537Y145561D01*
X-105637Y145626D01*
X-105739Y145688D01*
X-105843Y145747D01*
X-105949Y145802D01*
X-106057Y145853D01*
X-106166Y145901D01*
X-106277Y145946D01*
X-106389Y145986D01*
X-106503Y146023D01*
X-106618Y146056D01*
X-106733Y146086D01*
X-106850Y146111D01*
X-106967Y146133D01*
X-107086Y146150D01*
X-107204Y146164D01*
X-107323Y146174D01*
X-107443Y146180D01*
X-107562Y146182D01*
X-107681Y146180D01*
X-107801Y146174D01*
X-107920Y146164D01*
X-108038Y146150D01*
X-108157Y146133D01*
X-108274Y146111D01*
X-108391Y146086D01*
X-108506Y146056D01*
X-108621Y146023D01*
X-108735Y145986D01*
X-108847Y145946D01*
X-108958Y145901D01*
X-109067Y145853D01*
X-109175Y145802D01*
X-109281Y145747D01*
X-109385Y145688D01*
X-109487Y145626D01*
X-109587Y145561D01*
X-109685Y145492D01*
X-109781Y145420D01*
X-109874Y145345D01*
X-109964Y145268D01*
X-110052Y145187D01*
X-110137Y145103D01*
X-110219Y145016D01*
X-110299Y144927D01*
X-110375Y144835D01*
X-110449Y144741D01*
X-110519Y144644D01*
X-110586Y144546D01*
X-110650Y144445D01*
X-110710Y144341D01*
X-110767Y144236D01*
X-110820Y144129D01*
X-110870Y144021D01*
X-110916Y143911D01*
X-110958Y143799D01*
X-110997Y143686D01*
X-111032Y143572D01*
X-111063Y143457D01*
X-111091Y143340D01*
X-111114Y143223D01*
X-111134Y143106D01*
X-111150Y142987D01*
X-111162Y142868D01*
X-111170Y142749D01*
X-111174Y142630D01*
X-111174Y142510D01*
X-111170Y142391D01*
X-111162Y142272D01*
X-111150Y142153D01*
X-111134Y142034D01*
X-111114Y141917D01*
X-111091Y141800D01*
X-111063Y141683D01*
X-111032Y141568D01*
X-110997Y141454D01*
X-110958Y141341D01*
X-110916Y141229D01*
X-110870Y141119D01*
X-110820Y141011D01*
X-110767Y140904D01*
X-110710Y140799D01*
X-110650Y140695D01*
X-110586Y140594D01*
X-110519Y140496D01*
X-110449Y140399D01*
X-110375Y140305D01*
X-110299Y140213D01*
X-110219Y140124D01*
X-110137Y140037D01*
X-110052Y139953D01*
X-109964Y139872D01*
X-109874Y139795D01*
X-109781Y139720D01*
X-109685Y139648D01*
X-109587Y139579D01*
X-109487Y139514D01*
X-109385Y139452D01*
X-109281Y139393D01*
X-109175Y139338D01*
X-109067Y139287D01*
X-108958Y139239D01*
X-108847Y139194D01*
X-108735Y139154D01*
X-108621Y139117D01*
X-108506Y139084D01*
X-108391Y139054D01*
X-108274Y139029D01*
X-108157Y139007D01*
X-108038Y138990D01*
X-107920Y138976D01*
X-107801Y138966D01*
X-107681Y138960D01*
X-107562Y138958D01*
X-103950Y154299D02*
X-120206Y154299D01*
X-103950Y154299D02*
X-103950Y158814D01*
X-103949Y158814D02*
X-103951Y158947D01*
X-103957Y159079D01*
X-103967Y159211D01*
X-103980Y159343D01*
X-103998Y159475D01*
X-104019Y159605D01*
X-104044Y159736D01*
X-104073Y159865D01*
X-104106Y159993D01*
X-104142Y160121D01*
X-104182Y160247D01*
X-104226Y160372D01*
X-104274Y160496D01*
X-104325Y160618D01*
X-104380Y160739D01*
X-104438Y160858D01*
X-104500Y160976D01*
X-104565Y161091D01*
X-104634Y161205D01*
X-104705Y161316D01*
X-104781Y161425D01*
X-104859Y161532D01*
X-104940Y161637D01*
X-105025Y161739D01*
X-105112Y161839D01*
X-105202Y161936D01*
X-105295Y162031D01*
X-105391Y162122D01*
X-105489Y162211D01*
X-105590Y162297D01*
X-105694Y162380D01*
X-105800Y162460D01*
X-105908Y162536D01*
X-106018Y162610D01*
X-106131Y162680D01*
X-106245Y162747D01*
X-106362Y162810D01*
X-106480Y162870D01*
X-106600Y162927D01*
X-106722Y162980D01*
X-106845Y163029D01*
X-106969Y163075D01*
X-107095Y163117D01*
X-107222Y163155D01*
X-107350Y163190D01*
X-107479Y163221D01*
X-107608Y163248D01*
X-107739Y163271D01*
X-107870Y163291D01*
X-108002Y163306D01*
X-108134Y163318D01*
X-108266Y163326D01*
X-108399Y163330D01*
X-108531Y163330D01*
X-108664Y163326D01*
X-108796Y163318D01*
X-108928Y163306D01*
X-109060Y163291D01*
X-109191Y163271D01*
X-109322Y163248D01*
X-109451Y163221D01*
X-109580Y163190D01*
X-109708Y163155D01*
X-109835Y163117D01*
X-109961Y163075D01*
X-110085Y163029D01*
X-110208Y162980D01*
X-110330Y162927D01*
X-110450Y162870D01*
X-110568Y162810D01*
X-110685Y162747D01*
X-110799Y162680D01*
X-110912Y162610D01*
X-111022Y162536D01*
X-111130Y162460D01*
X-111236Y162380D01*
X-111340Y162297D01*
X-111441Y162211D01*
X-111539Y162122D01*
X-111635Y162031D01*
X-111728Y161936D01*
X-111818Y161839D01*
X-111905Y161739D01*
X-111990Y161637D01*
X-112071Y161532D01*
X-112149Y161425D01*
X-112225Y161316D01*
X-112296Y161205D01*
X-112365Y161091D01*
X-112430Y160976D01*
X-112492Y160858D01*
X-112550Y160739D01*
X-112605Y160618D01*
X-112656Y160496D01*
X-112704Y160372D01*
X-112748Y160247D01*
X-112788Y160121D01*
X-112824Y159993D01*
X-112857Y159865D01*
X-112886Y159736D01*
X-112911Y159605D01*
X-112932Y159475D01*
X-112950Y159343D01*
X-112963Y159211D01*
X-112973Y159079D01*
X-112979Y158947D01*
X-112981Y158814D01*
X-112981Y154299D01*
X-112981Y159717D02*
X-120206Y163330D01*
X-111174Y169838D02*
X-111174Y175257D01*
X-111175Y175257D02*
X-111177Y175375D01*
X-111183Y175493D01*
X-111192Y175611D01*
X-111206Y175728D01*
X-111223Y175845D01*
X-111244Y175962D01*
X-111269Y176077D01*
X-111298Y176192D01*
X-111331Y176306D01*
X-111367Y176418D01*
X-111407Y176529D01*
X-111450Y176639D01*
X-111497Y176748D01*
X-111547Y176855D01*
X-111602Y176960D01*
X-111659Y177063D01*
X-111720Y177164D01*
X-111784Y177264D01*
X-111851Y177361D01*
X-111921Y177456D01*
X-111995Y177548D01*
X-112071Y177639D01*
X-112151Y177726D01*
X-112233Y177811D01*
X-112318Y177893D01*
X-112405Y177973D01*
X-112496Y178049D01*
X-112588Y178123D01*
X-112683Y178193D01*
X-112780Y178260D01*
X-112880Y178324D01*
X-112981Y178385D01*
X-113084Y178442D01*
X-113189Y178497D01*
X-113296Y178547D01*
X-113405Y178594D01*
X-113515Y178637D01*
X-113626Y178677D01*
X-113738Y178713D01*
X-113852Y178746D01*
X-113967Y178775D01*
X-114082Y178800D01*
X-114199Y178821D01*
X-114316Y178838D01*
X-114433Y178852D01*
X-114551Y178861D01*
X-114669Y178867D01*
X-114787Y178869D01*
X-115690Y178869D01*
X-115690Y178870D02*
X-115823Y178868D01*
X-115955Y178862D01*
X-116087Y178852D01*
X-116219Y178839D01*
X-116351Y178821D01*
X-116481Y178800D01*
X-116612Y178775D01*
X-116741Y178746D01*
X-116869Y178713D01*
X-116997Y178677D01*
X-117123Y178637D01*
X-117248Y178593D01*
X-117372Y178545D01*
X-117494Y178494D01*
X-117615Y178439D01*
X-117734Y178381D01*
X-117852Y178319D01*
X-117967Y178254D01*
X-118081Y178185D01*
X-118192Y178114D01*
X-118301Y178038D01*
X-118408Y177960D01*
X-118513Y177879D01*
X-118615Y177794D01*
X-118715Y177707D01*
X-118812Y177617D01*
X-118907Y177524D01*
X-118998Y177428D01*
X-119087Y177330D01*
X-119173Y177229D01*
X-119256Y177125D01*
X-119336Y177019D01*
X-119412Y176911D01*
X-119486Y176801D01*
X-119556Y176688D01*
X-119623Y176574D01*
X-119686Y176457D01*
X-119746Y176339D01*
X-119803Y176219D01*
X-119856Y176097D01*
X-119905Y175974D01*
X-119951Y175850D01*
X-119993Y175724D01*
X-120031Y175597D01*
X-120066Y175469D01*
X-120097Y175340D01*
X-120124Y175211D01*
X-120147Y175080D01*
X-120167Y174949D01*
X-120182Y174817D01*
X-120194Y174685D01*
X-120202Y174553D01*
X-120206Y174420D01*
X-120206Y174288D01*
X-120202Y174155D01*
X-120194Y174023D01*
X-120182Y173891D01*
X-120167Y173759D01*
X-120147Y173628D01*
X-120124Y173497D01*
X-120097Y173368D01*
X-120066Y173239D01*
X-120031Y173111D01*
X-119993Y172984D01*
X-119951Y172858D01*
X-119905Y172734D01*
X-119856Y172611D01*
X-119803Y172489D01*
X-119746Y172369D01*
X-119686Y172251D01*
X-119623Y172134D01*
X-119556Y172020D01*
X-119486Y171907D01*
X-119412Y171797D01*
X-119336Y171689D01*
X-119256Y171583D01*
X-119173Y171479D01*
X-119087Y171378D01*
X-118998Y171280D01*
X-118907Y171184D01*
X-118812Y171091D01*
X-118715Y171001D01*
X-118615Y170914D01*
X-118513Y170829D01*
X-118408Y170748D01*
X-118301Y170670D01*
X-118192Y170594D01*
X-118081Y170523D01*
X-117967Y170454D01*
X-117852Y170389D01*
X-117734Y170327D01*
X-117615Y170269D01*
X-117494Y170214D01*
X-117372Y170163D01*
X-117248Y170115D01*
X-117123Y170071D01*
X-116997Y170031D01*
X-116869Y169995D01*
X-116741Y169962D01*
X-116612Y169933D01*
X-116481Y169908D01*
X-116351Y169887D01*
X-116219Y169869D01*
X-116087Y169856D01*
X-115955Y169846D01*
X-115823Y169840D01*
X-115690Y169838D01*
X-111174Y169838D01*
X-110997Y169840D01*
X-110819Y169847D01*
X-110642Y169858D01*
X-110466Y169873D01*
X-110290Y169892D01*
X-110114Y169916D01*
X-109939Y169944D01*
X-109764Y169977D01*
X-109591Y170014D01*
X-109418Y170055D01*
X-109247Y170100D01*
X-109077Y170149D01*
X-108908Y170203D01*
X-108740Y170260D01*
X-108574Y170322D01*
X-108409Y170388D01*
X-108246Y170458D01*
X-108085Y170532D01*
X-107926Y170609D01*
X-107768Y170691D01*
X-107613Y170777D01*
X-107460Y170866D01*
X-107309Y170959D01*
X-107160Y171056D01*
X-107014Y171156D01*
X-106870Y171260D01*
X-106729Y171367D01*
X-106591Y171478D01*
X-106455Y171592D01*
X-106322Y171710D01*
X-106192Y171830D01*
X-106065Y171954D01*
X-105941Y172081D01*
X-105821Y172211D01*
X-105703Y172344D01*
X-105589Y172479D01*
X-105478Y172618D01*
X-105371Y172759D01*
X-105267Y172903D01*
X-105167Y173049D01*
X-105070Y173198D01*
X-104977Y173349D01*
X-104888Y173502D01*
X-104802Y173657D01*
X-104720Y173815D01*
X-104643Y173974D01*
X-104569Y174135D01*
X-104499Y174298D01*
X-104433Y174463D01*
X-104371Y174629D01*
X-104314Y174797D01*
X-104260Y174966D01*
X-104211Y175136D01*
X-104166Y175307D01*
X-104125Y175480D01*
X-104088Y175653D01*
X-104055Y175828D01*
X-104027Y176003D01*
X-104003Y176179D01*
X-103984Y176355D01*
X-103969Y176531D01*
X-103958Y176708D01*
X-103951Y176886D01*
X-103949Y177063D01*
X-103950Y190437D02*
X-103952Y190562D01*
X-103958Y190687D01*
X-103967Y190812D01*
X-103981Y190936D01*
X-103998Y191060D01*
X-104019Y191184D01*
X-104044Y191306D01*
X-104073Y191428D01*
X-104105Y191549D01*
X-104141Y191669D01*
X-104181Y191788D01*
X-104224Y191905D01*
X-104271Y192021D01*
X-104322Y192136D01*
X-104376Y192248D01*
X-104434Y192360D01*
X-104494Y192469D01*
X-104559Y192576D01*
X-104626Y192682D01*
X-104697Y192785D01*
X-104771Y192886D01*
X-104848Y192985D01*
X-104928Y193081D01*
X-105011Y193175D01*
X-105096Y193266D01*
X-105185Y193355D01*
X-105276Y193440D01*
X-105370Y193523D01*
X-105466Y193603D01*
X-105565Y193680D01*
X-105666Y193754D01*
X-105769Y193825D01*
X-105875Y193892D01*
X-105982Y193957D01*
X-106091Y194017D01*
X-106203Y194075D01*
X-106315Y194129D01*
X-106430Y194180D01*
X-106546Y194227D01*
X-106663Y194270D01*
X-106782Y194310D01*
X-106902Y194346D01*
X-107023Y194378D01*
X-107145Y194407D01*
X-107267Y194432D01*
X-107391Y194453D01*
X-107515Y194470D01*
X-107639Y194484D01*
X-107764Y194493D01*
X-107889Y194499D01*
X-108014Y194501D01*
X-103950Y190437D02*
X-103952Y190294D01*
X-103958Y190152D01*
X-103968Y190009D01*
X-103981Y189867D01*
X-103999Y189726D01*
X-104020Y189584D01*
X-104045Y189444D01*
X-104074Y189304D01*
X-104107Y189165D01*
X-104144Y189027D01*
X-104184Y188890D01*
X-104228Y188755D01*
X-104276Y188620D01*
X-104328Y188487D01*
X-104383Y188355D01*
X-104442Y188225D01*
X-104504Y188097D01*
X-104570Y187970D01*
X-104639Y187845D01*
X-104711Y187722D01*
X-104787Y187601D01*
X-104866Y187483D01*
X-104949Y187366D01*
X-105034Y187252D01*
X-105123Y187140D01*
X-105214Y187031D01*
X-105309Y186924D01*
X-105406Y186819D01*
X-105507Y186718D01*
X-105610Y186619D01*
X-105715Y186523D01*
X-105824Y186430D01*
X-105935Y186340D01*
X-106048Y186253D01*
X-106163Y186169D01*
X-106281Y186089D01*
X-106401Y186011D01*
X-106523Y185937D01*
X-106647Y185867D01*
X-106773Y185799D01*
X-106901Y185736D01*
X-107030Y185675D01*
X-107161Y185618D01*
X-107293Y185565D01*
X-107427Y185516D01*
X-107562Y185470D01*
X-111175Y193145D02*
X-111083Y193239D01*
X-110989Y193329D01*
X-110892Y193417D01*
X-110792Y193502D01*
X-110690Y193584D01*
X-110585Y193662D01*
X-110478Y193738D01*
X-110369Y193810D01*
X-110258Y193879D01*
X-110144Y193945D01*
X-110029Y194007D01*
X-109912Y194066D01*
X-109793Y194121D01*
X-109673Y194172D01*
X-109551Y194220D01*
X-109428Y194265D01*
X-109304Y194305D01*
X-109178Y194342D01*
X-109051Y194375D01*
X-108924Y194404D01*
X-108795Y194430D01*
X-108666Y194451D01*
X-108536Y194469D01*
X-108406Y194482D01*
X-108276Y194492D01*
X-108145Y194498D01*
X-108014Y194500D01*
X-111174Y193146D02*
X-120206Y185469D01*
X-120206Y194501D01*
D11*
X-65324Y20800D02*
X-63729Y19683D01*
X-65324Y20800D02*
X-69047Y15483D01*
X-65857Y13249D01*
X-65774Y13194D01*
X-65690Y13142D01*
X-65603Y13093D01*
X-65515Y13047D01*
X-65425Y13005D01*
X-65333Y12966D01*
X-65240Y12931D01*
X-65146Y12899D01*
X-65051Y12871D01*
X-64954Y12847D01*
X-64857Y12826D01*
X-64759Y12810D01*
X-64660Y12797D01*
X-64561Y12787D01*
X-64462Y12782D01*
X-64362Y12780D01*
X-64263Y12782D01*
X-64164Y12788D01*
X-64065Y12798D01*
X-63966Y12811D01*
X-63868Y12829D01*
X-63771Y12850D01*
X-63675Y12874D01*
X-63579Y12903D01*
X-63485Y12935D01*
X-63392Y12970D01*
X-63301Y13009D01*
X-63211Y13052D01*
X-63123Y13098D01*
X-63037Y13147D01*
X-62952Y13200D01*
X-62870Y13256D01*
X-62790Y13315D01*
X-62712Y13377D01*
X-62637Y13442D01*
X-62564Y13509D01*
X-62494Y13580D01*
X-62426Y13653D01*
X-62362Y13729D01*
X-62300Y13807D01*
X-62241Y13887D01*
X-58518Y19204D01*
X-58463Y19287D01*
X-58411Y19371D01*
X-58362Y19458D01*
X-58316Y19546D01*
X-58274Y19636D01*
X-58235Y19728D01*
X-58200Y19821D01*
X-58168Y19915D01*
X-58140Y20010D01*
X-58116Y20107D01*
X-58095Y20204D01*
X-58079Y20302D01*
X-58066Y20401D01*
X-58056Y20500D01*
X-58051Y20599D01*
X-58049Y20699D01*
X-58051Y20798D01*
X-58057Y20897D01*
X-58067Y20996D01*
X-58080Y21095D01*
X-58098Y21193D01*
X-58119Y21290D01*
X-58143Y21386D01*
X-58172Y21482D01*
X-58204Y21576D01*
X-58239Y21669D01*
X-58278Y21760D01*
X-58321Y21850D01*
X-58367Y21938D01*
X-58416Y22024D01*
X-58469Y22109D01*
X-58525Y22191D01*
X-58584Y22271D01*
X-58646Y22349D01*
X-58711Y22424D01*
X-58778Y22497D01*
X-58849Y22567D01*
X-58922Y22635D01*
X-58998Y22699D01*
X-59076Y22761D01*
X-59156Y22820D01*
X-59155Y22820D02*
X-62346Y25054D01*
X-67016Y28324D02*
X-73717Y18753D01*
X-79035Y22476D02*
X-67016Y28324D01*
X-72333Y32047D02*
X-79035Y22476D01*
X-83704Y25746D02*
X-77003Y35317D01*
X-79661Y37178D01*
X-79661Y37179D02*
X-79755Y37242D01*
X-79851Y37302D01*
X-79949Y37359D01*
X-80049Y37412D01*
X-80151Y37462D01*
X-80255Y37508D01*
X-80360Y37550D01*
X-80466Y37589D01*
X-80574Y37624D01*
X-80683Y37655D01*
X-80793Y37683D01*
X-80904Y37706D01*
X-81015Y37726D01*
X-81127Y37742D01*
X-81240Y37754D01*
X-81353Y37762D01*
X-81466Y37766D01*
X-81580Y37766D01*
X-81693Y37762D01*
X-81806Y37754D01*
X-81919Y37742D01*
X-82031Y37726D01*
X-82142Y37706D01*
X-82253Y37683D01*
X-82363Y37655D01*
X-82472Y37624D01*
X-82580Y37589D01*
X-82686Y37550D01*
X-82791Y37508D01*
X-82895Y37462D01*
X-82997Y37412D01*
X-83097Y37359D01*
X-83195Y37302D01*
X-83291Y37242D01*
X-83385Y37179D01*
X-83476Y37112D01*
X-83566Y37043D01*
X-83653Y36970D01*
X-83737Y36894D01*
X-83818Y36815D01*
X-83897Y36734D01*
X-83973Y36650D01*
X-84046Y36563D01*
X-84115Y36474D01*
X-84182Y36382D01*
X-84182Y36381D02*
X-87160Y32128D01*
X-87161Y32128D02*
X-87224Y32034D01*
X-87284Y31938D01*
X-87341Y31840D01*
X-87394Y31740D01*
X-87444Y31638D01*
X-87490Y31534D01*
X-87532Y31429D01*
X-87571Y31323D01*
X-87606Y31215D01*
X-87637Y31106D01*
X-87665Y30996D01*
X-87688Y30885D01*
X-87708Y30774D01*
X-87724Y30662D01*
X-87736Y30549D01*
X-87744Y30436D01*
X-87748Y30323D01*
X-87748Y30209D01*
X-87744Y30096D01*
X-87736Y29983D01*
X-87724Y29870D01*
X-87708Y29758D01*
X-87688Y29647D01*
X-87665Y29536D01*
X-87637Y29426D01*
X-87606Y29317D01*
X-87571Y29209D01*
X-87532Y29103D01*
X-87490Y28998D01*
X-87444Y28894D01*
X-87394Y28792D01*
X-87341Y28692D01*
X-87284Y28594D01*
X-87224Y28498D01*
X-87161Y28404D01*
X-87094Y28312D01*
X-87025Y28223D01*
X-86952Y28136D01*
X-86876Y28052D01*
X-86797Y27971D01*
X-86716Y27892D01*
X-86632Y27816D01*
X-86545Y27743D01*
X-86455Y27674D01*
X-86364Y27607D01*
X-86363Y27607D02*
X-83704Y25746D01*
X76286Y30060D02*
X77778Y31312D01*
X76286Y30060D02*
X80459Y25088D01*
X83442Y27591D01*
X83517Y27657D01*
X83589Y27725D01*
X83659Y27796D01*
X83726Y27869D01*
X83790Y27945D01*
X83851Y28024D01*
X83909Y28105D01*
X83964Y28188D01*
X84016Y28272D01*
X84064Y28359D01*
X84109Y28448D01*
X84151Y28538D01*
X84189Y28630D01*
X84224Y28723D01*
X84255Y28818D01*
X84282Y28913D01*
X84306Y29010D01*
X84326Y29107D01*
X84342Y29206D01*
X84354Y29304D01*
X84363Y29403D01*
X84368Y29503D01*
X84369Y29602D01*
X84366Y29702D01*
X84360Y29801D01*
X84349Y29900D01*
X84335Y29998D01*
X84317Y30096D01*
X84296Y30193D01*
X84270Y30289D01*
X84241Y30384D01*
X84209Y30478D01*
X84172Y30571D01*
X84133Y30662D01*
X84090Y30752D01*
X84043Y30840D01*
X83993Y30926D01*
X83940Y31010D01*
X83884Y31092D01*
X83824Y31171D01*
X83762Y31249D01*
X79590Y36222D01*
X79525Y36297D01*
X79457Y36370D01*
X79386Y36439D01*
X79312Y36506D01*
X79236Y36571D01*
X79158Y36632D01*
X79077Y36690D01*
X78994Y36745D01*
X78909Y36797D01*
X78822Y36845D01*
X78733Y36890D01*
X78643Y36932D01*
X78551Y36970D01*
X78458Y37005D01*
X78363Y37036D01*
X78268Y37063D01*
X78171Y37087D01*
X78074Y37107D01*
X77976Y37123D01*
X77877Y37135D01*
X77778Y37144D01*
X77678Y37149D01*
X77579Y37150D01*
X77479Y37147D01*
X77380Y37141D01*
X77281Y37130D01*
X77183Y37116D01*
X77085Y37098D01*
X76988Y37077D01*
X76892Y37051D01*
X76796Y37022D01*
X76702Y36990D01*
X76610Y36953D01*
X76519Y36914D01*
X76429Y36870D01*
X76341Y36824D01*
X76255Y36774D01*
X76171Y36721D01*
X76089Y36664D01*
X76009Y36605D01*
X75932Y36542D01*
X72948Y34038D01*
X68581Y30374D02*
X76092Y21423D01*
X71119Y17251D02*
X68581Y30374D01*
X63609Y26201D02*
X71119Y17251D01*
X66752Y13587D02*
X59242Y22537D01*
X56755Y20451D01*
X56756Y20452D02*
X56670Y20377D01*
X56587Y20300D01*
X56507Y20220D01*
X56430Y20137D01*
X56355Y20052D01*
X56284Y19963D01*
X56216Y19873D01*
X56151Y19780D01*
X56089Y19685D01*
X56031Y19588D01*
X55976Y19489D01*
X55925Y19388D01*
X55877Y19285D01*
X55832Y19181D01*
X55792Y19075D01*
X55755Y18968D01*
X55722Y18860D01*
X55692Y18750D01*
X55667Y18640D01*
X55645Y18529D01*
X55628Y18417D01*
X55614Y18304D01*
X55604Y18191D01*
X55598Y18078D01*
X55596Y17965D01*
X55598Y17852D01*
X55604Y17739D01*
X55614Y17626D01*
X55628Y17513D01*
X55645Y17401D01*
X55667Y17290D01*
X55692Y17180D01*
X55722Y17070D01*
X55755Y16962D01*
X55792Y16855D01*
X55832Y16749D01*
X55877Y16645D01*
X55925Y16542D01*
X55976Y16441D01*
X56031Y16342D01*
X56089Y16245D01*
X56151Y16150D01*
X56216Y16057D01*
X56284Y15967D01*
X56355Y15879D01*
X56355Y15878D02*
X59693Y11900D01*
X59768Y11814D01*
X59845Y11731D01*
X59925Y11651D01*
X60008Y11574D01*
X60094Y11499D01*
X60182Y11428D01*
X60272Y11360D01*
X60365Y11295D01*
X60460Y11233D01*
X60557Y11175D01*
X60656Y11120D01*
X60757Y11069D01*
X60860Y11021D01*
X60964Y10976D01*
X61070Y10936D01*
X61177Y10899D01*
X61285Y10866D01*
X61395Y10836D01*
X61505Y10811D01*
X61616Y10789D01*
X61728Y10772D01*
X61841Y10758D01*
X61954Y10748D01*
X62067Y10742D01*
X62180Y10740D01*
X62293Y10742D01*
X62406Y10748D01*
X62519Y10758D01*
X62632Y10772D01*
X62744Y10789D01*
X62855Y10811D01*
X62965Y10836D01*
X63075Y10866D01*
X63183Y10899D01*
X63290Y10936D01*
X63396Y10976D01*
X63500Y11021D01*
X63603Y11069D01*
X63704Y11120D01*
X63803Y11175D01*
X63900Y11233D01*
X63995Y11295D01*
X64088Y11360D01*
X64178Y11428D01*
X64267Y11499D01*
X64266Y11500D02*
X66752Y13587D01*
X77559Y272096D02*
X75963Y273213D01*
X72240Y267896D01*
X75431Y265662D01*
X75514Y265607D01*
X75598Y265555D01*
X75685Y265506D01*
X75773Y265460D01*
X75863Y265418D01*
X75955Y265379D01*
X76048Y265344D01*
X76142Y265312D01*
X76237Y265284D01*
X76334Y265260D01*
X76431Y265239D01*
X76529Y265223D01*
X76628Y265209D01*
X76727Y265200D01*
X76826Y265195D01*
X76926Y265193D01*
X77025Y265195D01*
X77124Y265201D01*
X77223Y265211D01*
X77322Y265224D01*
X77420Y265242D01*
X77517Y265263D01*
X77613Y265287D01*
X77709Y265316D01*
X77803Y265348D01*
X77896Y265383D01*
X77987Y265422D01*
X78077Y265465D01*
X78165Y265511D01*
X78251Y265560D01*
X78336Y265613D01*
X78418Y265669D01*
X78498Y265728D01*
X78576Y265790D01*
X78651Y265855D01*
X78724Y265922D01*
X78794Y265993D01*
X78862Y266066D01*
X78926Y266142D01*
X78988Y266220D01*
X79047Y266300D01*
X79047Y266299D02*
X82770Y271616D01*
X82770Y271617D02*
X82825Y271700D01*
X82877Y271784D01*
X82926Y271871D01*
X82972Y271959D01*
X83014Y272049D01*
X83053Y272141D01*
X83088Y272234D01*
X83120Y272328D01*
X83148Y272423D01*
X83172Y272520D01*
X83193Y272617D01*
X83209Y272715D01*
X83223Y272814D01*
X83232Y272913D01*
X83237Y273012D01*
X83239Y273112D01*
X83237Y273211D01*
X83231Y273310D01*
X83221Y273409D01*
X83208Y273508D01*
X83190Y273606D01*
X83169Y273703D01*
X83145Y273799D01*
X83116Y273895D01*
X83084Y273989D01*
X83049Y274082D01*
X83010Y274173D01*
X82967Y274263D01*
X82921Y274351D01*
X82872Y274437D01*
X82819Y274522D01*
X82763Y274604D01*
X82704Y274684D01*
X82642Y274762D01*
X82577Y274837D01*
X82510Y274910D01*
X82439Y274980D01*
X82366Y275048D01*
X82290Y275112D01*
X82212Y275174D01*
X82132Y275233D01*
X78942Y277467D01*
X74272Y280736D02*
X67570Y271165D01*
X62253Y274889D02*
X74272Y280736D01*
X68955Y284460D02*
X62253Y274889D01*
X57583Y278158D02*
X64285Y287729D01*
X61626Y289591D01*
X61627Y289591D02*
X61533Y289654D01*
X61437Y289714D01*
X61339Y289771D01*
X61239Y289824D01*
X61137Y289874D01*
X61033Y289920D01*
X60928Y289962D01*
X60822Y290001D01*
X60714Y290036D01*
X60605Y290067D01*
X60495Y290095D01*
X60384Y290118D01*
X60273Y290138D01*
X60161Y290154D01*
X60048Y290166D01*
X59935Y290174D01*
X59822Y290178D01*
X59708Y290178D01*
X59595Y290174D01*
X59482Y290166D01*
X59369Y290154D01*
X59257Y290138D01*
X59146Y290118D01*
X59035Y290095D01*
X58925Y290067D01*
X58816Y290036D01*
X58708Y290001D01*
X58602Y289962D01*
X58497Y289920D01*
X58393Y289874D01*
X58291Y289824D01*
X58191Y289771D01*
X58093Y289714D01*
X57997Y289654D01*
X57903Y289591D01*
X57812Y289524D01*
X57722Y289455D01*
X57635Y289382D01*
X57551Y289306D01*
X57470Y289227D01*
X57391Y289146D01*
X57315Y289062D01*
X57242Y288975D01*
X57173Y288886D01*
X57106Y288794D01*
X54128Y284540D01*
X54127Y284541D02*
X54064Y284447D01*
X54004Y284351D01*
X53947Y284253D01*
X53894Y284153D01*
X53844Y284051D01*
X53798Y283947D01*
X53756Y283842D01*
X53717Y283736D01*
X53682Y283628D01*
X53651Y283519D01*
X53623Y283409D01*
X53600Y283298D01*
X53580Y283187D01*
X53564Y283075D01*
X53552Y282962D01*
X53544Y282849D01*
X53540Y282736D01*
X53540Y282622D01*
X53544Y282509D01*
X53552Y282396D01*
X53564Y282283D01*
X53580Y282171D01*
X53600Y282060D01*
X53623Y281949D01*
X53651Y281839D01*
X53682Y281730D01*
X53717Y281622D01*
X53756Y281516D01*
X53798Y281411D01*
X53844Y281307D01*
X53894Y281205D01*
X53947Y281105D01*
X54004Y281007D01*
X54064Y280911D01*
X54127Y280817D01*
X54194Y280725D01*
X54263Y280636D01*
X54336Y280549D01*
X54412Y280465D01*
X54491Y280384D01*
X54572Y280305D01*
X54656Y280229D01*
X54743Y280156D01*
X54833Y280087D01*
X54924Y280020D01*
X54925Y280020D02*
X57583Y278158D01*
X-142226Y143454D02*
X-142226Y141506D01*
X-142226Y143454D02*
X-148717Y143454D01*
X-148717Y139559D01*
X-148715Y139460D01*
X-148709Y139360D01*
X-148700Y139261D01*
X-148687Y139163D01*
X-148670Y139065D01*
X-148649Y138967D01*
X-148624Y138871D01*
X-148596Y138776D01*
X-148564Y138682D01*
X-148529Y138589D01*
X-148490Y138497D01*
X-148447Y138407D01*
X-148402Y138319D01*
X-148352Y138232D01*
X-148300Y138148D01*
X-148244Y138065D01*
X-148186Y137985D01*
X-148124Y137907D01*
X-148059Y137832D01*
X-147991Y137759D01*
X-147921Y137689D01*
X-147848Y137621D01*
X-147773Y137556D01*
X-147695Y137494D01*
X-147615Y137436D01*
X-147532Y137380D01*
X-147448Y137328D01*
X-147361Y137278D01*
X-147273Y137233D01*
X-147183Y137190D01*
X-147091Y137151D01*
X-146998Y137116D01*
X-146904Y137084D01*
X-146809Y137056D01*
X-146713Y137031D01*
X-146615Y137010D01*
X-146517Y136993D01*
X-146419Y136980D01*
X-146320Y136971D01*
X-146220Y136965D01*
X-146121Y136963D01*
X-139629Y136963D01*
X-139629Y136962D02*
X-139530Y136964D01*
X-139430Y136970D01*
X-139331Y136979D01*
X-139233Y136992D01*
X-139135Y137010D01*
X-139037Y137030D01*
X-138941Y137055D01*
X-138845Y137083D01*
X-138751Y137115D01*
X-138658Y137150D01*
X-138567Y137189D01*
X-138477Y137232D01*
X-138388Y137277D01*
X-138302Y137327D01*
X-138217Y137379D01*
X-138135Y137435D01*
X-138055Y137494D01*
X-137977Y137555D01*
X-137901Y137620D01*
X-137828Y137688D01*
X-137758Y137758D01*
X-137690Y137831D01*
X-137625Y137907D01*
X-137564Y137985D01*
X-137505Y138065D01*
X-137449Y138147D01*
X-137397Y138232D01*
X-137348Y138318D01*
X-137302Y138407D01*
X-137259Y138497D01*
X-137220Y138588D01*
X-137185Y138681D01*
X-137153Y138775D01*
X-137125Y138871D01*
X-137100Y138967D01*
X-137080Y139065D01*
X-137062Y139163D01*
X-137049Y139261D01*
X-137040Y139360D01*
X-137034Y139459D01*
X-137032Y139559D01*
X-137033Y139559D02*
X-137033Y143454D01*
X-137033Y149154D02*
X-148717Y149154D01*
X-148717Y155646D02*
X-137033Y149154D01*
X-137033Y155646D02*
X-148717Y155646D01*
X-148717Y161346D02*
X-137033Y161346D01*
X-137033Y164592D01*
X-137035Y164705D01*
X-137041Y164818D01*
X-137051Y164931D01*
X-137065Y165044D01*
X-137082Y165156D01*
X-137104Y165267D01*
X-137129Y165377D01*
X-137159Y165487D01*
X-137192Y165595D01*
X-137229Y165702D01*
X-137269Y165808D01*
X-137314Y165912D01*
X-137362Y166015D01*
X-137413Y166116D01*
X-137468Y166215D01*
X-137526Y166312D01*
X-137588Y166407D01*
X-137653Y166500D01*
X-137721Y166590D01*
X-137792Y166678D01*
X-137867Y166764D01*
X-137944Y166847D01*
X-138024Y166927D01*
X-138107Y167004D01*
X-138193Y167079D01*
X-138281Y167150D01*
X-138371Y167218D01*
X-138464Y167283D01*
X-138559Y167345D01*
X-138656Y167403D01*
X-138755Y167458D01*
X-138856Y167509D01*
X-138959Y167557D01*
X-139063Y167602D01*
X-139169Y167642D01*
X-139276Y167679D01*
X-139384Y167712D01*
X-139494Y167742D01*
X-139604Y167767D01*
X-139715Y167789D01*
X-139827Y167806D01*
X-139940Y167820D01*
X-140053Y167830D01*
X-140166Y167836D01*
X-140279Y167838D01*
X-145471Y167838D01*
X-145584Y167836D01*
X-145697Y167830D01*
X-145810Y167820D01*
X-145923Y167806D01*
X-146035Y167789D01*
X-146146Y167767D01*
X-146256Y167742D01*
X-146366Y167712D01*
X-146474Y167679D01*
X-146581Y167642D01*
X-146687Y167602D01*
X-146791Y167557D01*
X-146894Y167509D01*
X-146995Y167458D01*
X-147094Y167403D01*
X-147191Y167345D01*
X-147286Y167283D01*
X-147379Y167218D01*
X-147469Y167150D01*
X-147557Y167079D01*
X-147643Y167004D01*
X-147726Y166927D01*
X-147806Y166847D01*
X-147883Y166764D01*
X-147958Y166678D01*
X-148029Y166590D01*
X-148097Y166500D01*
X-148162Y166407D01*
X-148224Y166312D01*
X-148282Y166215D01*
X-148337Y166116D01*
X-148388Y166015D01*
X-148436Y165912D01*
X-148481Y165808D01*
X-148521Y165702D01*
X-148558Y165595D01*
X-148591Y165487D01*
X-148621Y165377D01*
X-148646Y165267D01*
X-148668Y165156D01*
X-148685Y165044D01*
X-148699Y164931D01*
X-148709Y164818D01*
X-148715Y164705D01*
X-148717Y164592D01*
X-148717Y161346D01*
X145112Y141866D02*
X145112Y139919D01*
X145112Y141866D02*
X138621Y141866D01*
X138621Y137971D01*
X138623Y137872D01*
X138629Y137772D01*
X138638Y137673D01*
X138651Y137575D01*
X138668Y137477D01*
X138689Y137379D01*
X138714Y137283D01*
X138742Y137188D01*
X138774Y137094D01*
X138809Y137001D01*
X138848Y136909D01*
X138891Y136819D01*
X138936Y136731D01*
X138986Y136644D01*
X139038Y136560D01*
X139094Y136477D01*
X139152Y136397D01*
X139214Y136319D01*
X139279Y136244D01*
X139347Y136171D01*
X139417Y136101D01*
X139490Y136033D01*
X139565Y135968D01*
X139643Y135906D01*
X139723Y135848D01*
X139806Y135792D01*
X139890Y135740D01*
X139977Y135690D01*
X140065Y135645D01*
X140155Y135602D01*
X140247Y135563D01*
X140340Y135528D01*
X140434Y135496D01*
X140529Y135468D01*
X140625Y135443D01*
X140723Y135422D01*
X140821Y135405D01*
X140919Y135392D01*
X141018Y135383D01*
X141118Y135377D01*
X141217Y135375D01*
X147708Y135375D01*
X147807Y135377D01*
X147907Y135383D01*
X148006Y135392D01*
X148104Y135405D01*
X148202Y135422D01*
X148300Y135443D01*
X148396Y135468D01*
X148491Y135496D01*
X148585Y135528D01*
X148678Y135563D01*
X148770Y135602D01*
X148860Y135645D01*
X148948Y135690D01*
X149035Y135740D01*
X149119Y135792D01*
X149202Y135848D01*
X149282Y135906D01*
X149360Y135968D01*
X149435Y136033D01*
X149508Y136101D01*
X149578Y136171D01*
X149646Y136244D01*
X149711Y136319D01*
X149773Y136397D01*
X149831Y136477D01*
X149887Y136560D01*
X149939Y136644D01*
X149989Y136731D01*
X150034Y136819D01*
X150077Y136909D01*
X150116Y137001D01*
X150151Y137093D01*
X150183Y137188D01*
X150211Y137283D01*
X150236Y137379D01*
X150257Y137477D01*
X150274Y137575D01*
X150287Y137673D01*
X150296Y137772D01*
X150302Y137872D01*
X150304Y137971D01*
X150305Y137971D02*
X150305Y141866D01*
X150305Y147567D02*
X138621Y147567D01*
X138621Y154058D02*
X150305Y147567D01*
X150305Y154058D02*
X138621Y154058D01*
X138621Y159759D02*
X150305Y159759D01*
X150305Y163004D01*
X150303Y163117D01*
X150297Y163230D01*
X150287Y163343D01*
X150273Y163456D01*
X150256Y163568D01*
X150234Y163679D01*
X150209Y163789D01*
X150179Y163899D01*
X150146Y164007D01*
X150109Y164114D01*
X150069Y164220D01*
X150024Y164324D01*
X149976Y164427D01*
X149925Y164528D01*
X149870Y164627D01*
X149812Y164724D01*
X149750Y164819D01*
X149685Y164912D01*
X149617Y165002D01*
X149546Y165090D01*
X149471Y165176D01*
X149394Y165259D01*
X149314Y165339D01*
X149231Y165416D01*
X149145Y165491D01*
X149057Y165562D01*
X148967Y165630D01*
X148874Y165695D01*
X148779Y165757D01*
X148682Y165815D01*
X148583Y165870D01*
X148482Y165921D01*
X148379Y165969D01*
X148275Y166014D01*
X148169Y166054D01*
X148062Y166091D01*
X147954Y166124D01*
X147844Y166154D01*
X147734Y166179D01*
X147623Y166201D01*
X147511Y166218D01*
X147398Y166232D01*
X147285Y166242D01*
X147172Y166248D01*
X147059Y166250D01*
X141866Y166250D01*
X141753Y166248D01*
X141640Y166242D01*
X141527Y166232D01*
X141414Y166218D01*
X141302Y166201D01*
X141191Y166179D01*
X141081Y166154D01*
X140971Y166124D01*
X140863Y166091D01*
X140756Y166054D01*
X140650Y166014D01*
X140546Y165969D01*
X140443Y165921D01*
X140342Y165870D01*
X140243Y165815D01*
X140146Y165757D01*
X140051Y165695D01*
X139958Y165630D01*
X139868Y165562D01*
X139780Y165491D01*
X139694Y165416D01*
X139611Y165339D01*
X139531Y165259D01*
X139454Y165176D01*
X139379Y165090D01*
X139308Y165002D01*
X139240Y164912D01*
X139175Y164819D01*
X139113Y164724D01*
X139055Y164627D01*
X139000Y164528D01*
X138949Y164427D01*
X138901Y164324D01*
X138856Y164220D01*
X138816Y164114D01*
X138779Y164007D01*
X138746Y163899D01*
X138716Y163789D01*
X138691Y163679D01*
X138669Y163568D01*
X138652Y163456D01*
X138638Y163343D01*
X138628Y163230D01*
X138622Y163117D01*
X138620Y163004D01*
X138621Y163004D02*
X138621Y159759D01*
D10*
X107563Y67628D02*
X107563Y49848D01*
X107563Y67628D02*
X102624Y67628D01*
X102484Y67626D01*
X102345Y67620D01*
X102205Y67610D01*
X102066Y67596D01*
X101927Y67579D01*
X101789Y67557D01*
X101652Y67531D01*
X101515Y67502D01*
X101379Y67469D01*
X101245Y67432D01*
X101111Y67391D01*
X100979Y67346D01*
X100847Y67297D01*
X100718Y67245D01*
X100590Y67190D01*
X100463Y67130D01*
X100338Y67067D01*
X100215Y67001D01*
X100094Y66931D01*
X99975Y66858D01*
X99858Y66781D01*
X99744Y66701D01*
X99631Y66618D01*
X99521Y66532D01*
X99414Y66442D01*
X99309Y66350D01*
X99207Y66255D01*
X99107Y66157D01*
X99010Y66056D01*
X98916Y65952D01*
X98826Y65846D01*
X98738Y65737D01*
X98653Y65626D01*
X98572Y65512D01*
X98493Y65397D01*
X98418Y65279D01*
X98347Y65158D01*
X98279Y65036D01*
X98214Y64913D01*
X98153Y64787D01*
X98095Y64659D01*
X98041Y64531D01*
X97991Y64400D01*
X97944Y64268D01*
X97901Y64135D01*
X97862Y64001D01*
X97827Y63866D01*
X97796Y63730D01*
X97768Y63592D01*
X97745Y63455D01*
X97725Y63316D01*
X97709Y63177D01*
X97697Y63038D01*
X97689Y62899D01*
X97685Y62759D01*
X97685Y62619D01*
X97689Y62479D01*
X97697Y62340D01*
X97709Y62201D01*
X97725Y62062D01*
X97745Y61923D01*
X97768Y61786D01*
X97796Y61648D01*
X97827Y61512D01*
X97862Y61377D01*
X97901Y61243D01*
X97944Y61110D01*
X97991Y60978D01*
X98041Y60847D01*
X98095Y60719D01*
X98153Y60591D01*
X98214Y60465D01*
X98279Y60342D01*
X98347Y60219D01*
X98418Y60099D01*
X98493Y59981D01*
X98572Y59866D01*
X98653Y59752D01*
X98738Y59641D01*
X98826Y59532D01*
X98916Y59426D01*
X99010Y59322D01*
X99107Y59221D01*
X99207Y59123D01*
X99309Y59028D01*
X99414Y58936D01*
X99521Y58846D01*
X99631Y58760D01*
X99744Y58677D01*
X99858Y58597D01*
X99975Y58520D01*
X100094Y58447D01*
X100215Y58377D01*
X100338Y58311D01*
X100463Y58248D01*
X100590Y58188D01*
X100718Y58133D01*
X100847Y58081D01*
X100979Y58032D01*
X101111Y57987D01*
X101245Y57946D01*
X101379Y57909D01*
X101515Y57876D01*
X101652Y57847D01*
X101789Y57821D01*
X101927Y57799D01*
X102066Y57782D01*
X102205Y57768D01*
X102345Y57758D01*
X102484Y57752D01*
X102624Y57750D01*
X107563Y57750D01*
X86135Y67628D02*
X86003Y67626D01*
X85872Y67620D01*
X85740Y67610D01*
X85609Y67597D01*
X85479Y67579D01*
X85349Y67558D01*
X85219Y67533D01*
X85091Y67504D01*
X84963Y67471D01*
X84837Y67434D01*
X84711Y67394D01*
X84587Y67350D01*
X84464Y67302D01*
X84343Y67251D01*
X84223Y67196D01*
X84105Y67138D01*
X83989Y67076D01*
X83875Y67010D01*
X83762Y66942D01*
X83652Y66870D01*
X83544Y66795D01*
X83438Y66716D01*
X83334Y66635D01*
X83233Y66550D01*
X83135Y66463D01*
X83039Y66372D01*
X82946Y66279D01*
X82855Y66183D01*
X82768Y66085D01*
X82683Y65984D01*
X82602Y65880D01*
X82523Y65774D01*
X82448Y65666D01*
X82376Y65556D01*
X82308Y65443D01*
X82242Y65329D01*
X82180Y65213D01*
X82122Y65095D01*
X82067Y64975D01*
X82016Y64854D01*
X81968Y64731D01*
X81924Y64607D01*
X81884Y64481D01*
X81847Y64355D01*
X81814Y64227D01*
X81785Y64099D01*
X81760Y63969D01*
X81739Y63839D01*
X81721Y63709D01*
X81708Y63578D01*
X81698Y63446D01*
X81692Y63315D01*
X81690Y63183D01*
X86135Y67628D02*
X86285Y67626D01*
X86434Y67620D01*
X86583Y67610D01*
X86732Y67597D01*
X86881Y67579D01*
X87029Y67558D01*
X87177Y67532D01*
X87323Y67503D01*
X87469Y67470D01*
X87614Y67433D01*
X87758Y67392D01*
X87901Y67348D01*
X88043Y67300D01*
X88183Y67248D01*
X88322Y67193D01*
X88460Y67134D01*
X88595Y67071D01*
X88730Y67005D01*
X88862Y66935D01*
X88992Y66862D01*
X89121Y66785D01*
X89248Y66705D01*
X89372Y66622D01*
X89494Y66536D01*
X89614Y66446D01*
X89731Y66353D01*
X89846Y66258D01*
X89959Y66159D01*
X90069Y66057D01*
X90176Y65953D01*
X90280Y65846D01*
X90382Y65736D01*
X90480Y65623D01*
X90576Y65508D01*
X90668Y65390D01*
X90758Y65270D01*
X90844Y65148D01*
X90927Y65024D01*
X91007Y64897D01*
X91083Y64769D01*
X91156Y64638D01*
X91226Y64505D01*
X91292Y64371D01*
X91354Y64235D01*
X91413Y64098D01*
X91469Y63959D01*
X91520Y63818D01*
X91568Y63677D01*
X83172Y59726D02*
X83076Y59819D01*
X82984Y59915D01*
X82894Y60014D01*
X82807Y60115D01*
X82723Y60218D01*
X82641Y60323D01*
X82563Y60431D01*
X82488Y60541D01*
X82415Y60653D01*
X82346Y60767D01*
X82280Y60883D01*
X82218Y61001D01*
X82159Y61120D01*
X82103Y61241D01*
X82050Y61364D01*
X82001Y61488D01*
X81956Y61613D01*
X81913Y61740D01*
X81875Y61867D01*
X81840Y61996D01*
X81809Y62125D01*
X81781Y62256D01*
X81757Y62387D01*
X81736Y62519D01*
X81720Y62651D01*
X81707Y62784D01*
X81697Y62917D01*
X81692Y63050D01*
X81690Y63183D01*
X83172Y59725D02*
X91568Y49848D01*
X81690Y49848D01*
X69320Y56762D02*
X69320Y62689D01*
X69320Y56762D02*
X65863Y52317D01*
X69320Y56762D02*
X72777Y52317D01*
X69320Y56762D02*
X63887Y58738D01*
X69320Y56762D02*
X74753Y58738D01*
X-71825Y51435D02*
X-71825Y69215D01*
X-76764Y69215D01*
X-76904Y69213D01*
X-77043Y69207D01*
X-77183Y69197D01*
X-77322Y69183D01*
X-77461Y69166D01*
X-77599Y69144D01*
X-77736Y69118D01*
X-77873Y69089D01*
X-78009Y69056D01*
X-78143Y69019D01*
X-78277Y68978D01*
X-78409Y68933D01*
X-78541Y68884D01*
X-78670Y68832D01*
X-78798Y68777D01*
X-78925Y68717D01*
X-79050Y68654D01*
X-79173Y68588D01*
X-79294Y68518D01*
X-79413Y68445D01*
X-79530Y68368D01*
X-79644Y68288D01*
X-79757Y68205D01*
X-79867Y68119D01*
X-79974Y68029D01*
X-80079Y67937D01*
X-80181Y67842D01*
X-80281Y67744D01*
X-80378Y67643D01*
X-80472Y67539D01*
X-80562Y67433D01*
X-80650Y67324D01*
X-80735Y67213D01*
X-80816Y67099D01*
X-80895Y66984D01*
X-80970Y66866D01*
X-81041Y66745D01*
X-81109Y66623D01*
X-81174Y66500D01*
X-81235Y66374D01*
X-81293Y66246D01*
X-81347Y66118D01*
X-81397Y65987D01*
X-81444Y65855D01*
X-81487Y65722D01*
X-81526Y65588D01*
X-81561Y65453D01*
X-81592Y65317D01*
X-81620Y65179D01*
X-81643Y65042D01*
X-81663Y64903D01*
X-81679Y64764D01*
X-81691Y64625D01*
X-81699Y64486D01*
X-81703Y64346D01*
X-81703Y64206D01*
X-81699Y64066D01*
X-81691Y63927D01*
X-81679Y63788D01*
X-81663Y63649D01*
X-81643Y63510D01*
X-81620Y63373D01*
X-81592Y63235D01*
X-81561Y63099D01*
X-81526Y62964D01*
X-81487Y62830D01*
X-81444Y62697D01*
X-81397Y62565D01*
X-81347Y62434D01*
X-81293Y62306D01*
X-81235Y62178D01*
X-81174Y62052D01*
X-81109Y61929D01*
X-81041Y61806D01*
X-80970Y61686D01*
X-80895Y61568D01*
X-80816Y61453D01*
X-80735Y61339D01*
X-80650Y61228D01*
X-80562Y61119D01*
X-80472Y61013D01*
X-80378Y60909D01*
X-80281Y60808D01*
X-80181Y60710D01*
X-80079Y60615D01*
X-79974Y60523D01*
X-79867Y60433D01*
X-79757Y60347D01*
X-79644Y60264D01*
X-79530Y60184D01*
X-79413Y60107D01*
X-79294Y60034D01*
X-79173Y59964D01*
X-79050Y59898D01*
X-78925Y59835D01*
X-78798Y59775D01*
X-78670Y59720D01*
X-78541Y59668D01*
X-78409Y59619D01*
X-78277Y59574D01*
X-78143Y59533D01*
X-78009Y59496D01*
X-77873Y59463D01*
X-77736Y59434D01*
X-77599Y59408D01*
X-77461Y59386D01*
X-77322Y59369D01*
X-77183Y59355D01*
X-77043Y59345D01*
X-76904Y59339D01*
X-76764Y59337D01*
X-71825Y59337D01*
X-87820Y55386D02*
X-91771Y69215D01*
X-87820Y55386D02*
X-97698Y55386D01*
X-94734Y59337D02*
X-94734Y51435D01*
X-110067Y58349D02*
X-110067Y64276D01*
X-110067Y58349D02*
X-113525Y53904D01*
X-110067Y58349D02*
X-106610Y53904D01*
X-110067Y58349D02*
X-115500Y60325D01*
X-110067Y58349D02*
X-104635Y60325D01*
X-85489Y210185D02*
X-85489Y227965D01*
X-90428Y227965D01*
X-90568Y227963D01*
X-90707Y227957D01*
X-90847Y227947D01*
X-90986Y227933D01*
X-91125Y227916D01*
X-91263Y227894D01*
X-91400Y227868D01*
X-91537Y227839D01*
X-91673Y227806D01*
X-91807Y227769D01*
X-91941Y227728D01*
X-92073Y227683D01*
X-92205Y227634D01*
X-92334Y227582D01*
X-92462Y227527D01*
X-92589Y227467D01*
X-92714Y227404D01*
X-92837Y227338D01*
X-92958Y227268D01*
X-93077Y227195D01*
X-93194Y227118D01*
X-93308Y227038D01*
X-93421Y226955D01*
X-93531Y226869D01*
X-93638Y226779D01*
X-93743Y226687D01*
X-93845Y226592D01*
X-93945Y226494D01*
X-94042Y226393D01*
X-94136Y226289D01*
X-94226Y226183D01*
X-94314Y226074D01*
X-94399Y225963D01*
X-94480Y225849D01*
X-94559Y225734D01*
X-94634Y225616D01*
X-94705Y225496D01*
X-94773Y225373D01*
X-94838Y225250D01*
X-94899Y225124D01*
X-94957Y224996D01*
X-95011Y224868D01*
X-95061Y224737D01*
X-95108Y224605D01*
X-95151Y224472D01*
X-95190Y224338D01*
X-95225Y224203D01*
X-95256Y224067D01*
X-95284Y223929D01*
X-95307Y223792D01*
X-95327Y223653D01*
X-95343Y223514D01*
X-95355Y223375D01*
X-95363Y223236D01*
X-95367Y223096D01*
X-95367Y222956D01*
X-95363Y222816D01*
X-95355Y222677D01*
X-95343Y222538D01*
X-95327Y222399D01*
X-95307Y222260D01*
X-95284Y222123D01*
X-95256Y221985D01*
X-95225Y221849D01*
X-95190Y221714D01*
X-95151Y221580D01*
X-95108Y221447D01*
X-95061Y221315D01*
X-95011Y221184D01*
X-94957Y221056D01*
X-94899Y220928D01*
X-94838Y220802D01*
X-94773Y220679D01*
X-94705Y220556D01*
X-94634Y220436D01*
X-94559Y220318D01*
X-94480Y220203D01*
X-94399Y220089D01*
X-94314Y219978D01*
X-94226Y219869D01*
X-94136Y219763D01*
X-94042Y219659D01*
X-93945Y219558D01*
X-93845Y219460D01*
X-93743Y219365D01*
X-93638Y219273D01*
X-93531Y219183D01*
X-93421Y219097D01*
X-93308Y219014D01*
X-93194Y218934D01*
X-93077Y218857D01*
X-92958Y218784D01*
X-92837Y218714D01*
X-92714Y218648D01*
X-92589Y218585D01*
X-92462Y218525D01*
X-92334Y218470D01*
X-92205Y218418D01*
X-92073Y218369D01*
X-91941Y218324D01*
X-91807Y218283D01*
X-91673Y218246D01*
X-91537Y218213D01*
X-91400Y218184D01*
X-91263Y218158D01*
X-91125Y218136D01*
X-90986Y218119D01*
X-90847Y218105D01*
X-90707Y218095D01*
X-90568Y218089D01*
X-90428Y218087D01*
X-85489Y218087D01*
X-101484Y210185D02*
X-107410Y210185D01*
X-107534Y210187D01*
X-107658Y210193D01*
X-107782Y210203D01*
X-107905Y210216D01*
X-108028Y210234D01*
X-108150Y210255D01*
X-108272Y210280D01*
X-108393Y210309D01*
X-108512Y210342D01*
X-108631Y210378D01*
X-108748Y210419D01*
X-108864Y210462D01*
X-108979Y210510D01*
X-109092Y210561D01*
X-109204Y210616D01*
X-109313Y210674D01*
X-109421Y210735D01*
X-109527Y210800D01*
X-109631Y210868D01*
X-109732Y210940D01*
X-109832Y211014D01*
X-109928Y211092D01*
X-110023Y211172D01*
X-110115Y211256D01*
X-110204Y211342D01*
X-110290Y211431D01*
X-110374Y211523D01*
X-110454Y211618D01*
X-110532Y211714D01*
X-110606Y211814D01*
X-110678Y211915D01*
X-110746Y212019D01*
X-110811Y212125D01*
X-110872Y212233D01*
X-110930Y212342D01*
X-110985Y212454D01*
X-111036Y212567D01*
X-111084Y212682D01*
X-111127Y212798D01*
X-111168Y212915D01*
X-111204Y213034D01*
X-111237Y213153D01*
X-111266Y213274D01*
X-111291Y213396D01*
X-111312Y213518D01*
X-111330Y213641D01*
X-111343Y213764D01*
X-111353Y213888D01*
X-111359Y214012D01*
X-111361Y214136D01*
X-111361Y216112D01*
X-111359Y216236D01*
X-111353Y216360D01*
X-111343Y216484D01*
X-111330Y216607D01*
X-111312Y216730D01*
X-111291Y216852D01*
X-111266Y216974D01*
X-111237Y217095D01*
X-111204Y217214D01*
X-111168Y217333D01*
X-111127Y217450D01*
X-111084Y217566D01*
X-111036Y217681D01*
X-110985Y217794D01*
X-110930Y217906D01*
X-110872Y218015D01*
X-110811Y218123D01*
X-110746Y218229D01*
X-110678Y218333D01*
X-110606Y218434D01*
X-110532Y218534D01*
X-110454Y218630D01*
X-110374Y218725D01*
X-110290Y218817D01*
X-110204Y218906D01*
X-110115Y218992D01*
X-110023Y219076D01*
X-109928Y219156D01*
X-109832Y219234D01*
X-109732Y219308D01*
X-109631Y219380D01*
X-109527Y219448D01*
X-109421Y219513D01*
X-109313Y219574D01*
X-109204Y219632D01*
X-109092Y219687D01*
X-108979Y219738D01*
X-108864Y219786D01*
X-108748Y219829D01*
X-108631Y219870D01*
X-108512Y219906D01*
X-108393Y219939D01*
X-108272Y219968D01*
X-108150Y219993D01*
X-108028Y220014D01*
X-107905Y220032D01*
X-107782Y220045D01*
X-107658Y220055D01*
X-107534Y220061D01*
X-107410Y220063D01*
X-101484Y220063D01*
X-101484Y227965D01*
X-111361Y227965D01*
X9761Y265748D02*
X9761Y283528D01*
X4823Y283528D01*
X4683Y283526D01*
X4544Y283520D01*
X4404Y283510D01*
X4265Y283496D01*
X4126Y283479D01*
X3988Y283457D01*
X3851Y283431D01*
X3714Y283402D01*
X3578Y283369D01*
X3444Y283332D01*
X3310Y283291D01*
X3178Y283246D01*
X3046Y283197D01*
X2917Y283145D01*
X2789Y283090D01*
X2662Y283030D01*
X2537Y282967D01*
X2414Y282901D01*
X2293Y282831D01*
X2174Y282758D01*
X2057Y282681D01*
X1943Y282601D01*
X1830Y282518D01*
X1720Y282432D01*
X1613Y282342D01*
X1508Y282250D01*
X1406Y282155D01*
X1306Y282057D01*
X1209Y281956D01*
X1115Y281852D01*
X1025Y281746D01*
X937Y281637D01*
X852Y281526D01*
X771Y281412D01*
X692Y281297D01*
X617Y281179D01*
X546Y281059D01*
X478Y280936D01*
X413Y280813D01*
X352Y280687D01*
X294Y280559D01*
X240Y280431D01*
X190Y280300D01*
X143Y280168D01*
X100Y280035D01*
X61Y279901D01*
X26Y279766D01*
X-5Y279630D01*
X-33Y279492D01*
X-56Y279355D01*
X-76Y279216D01*
X-92Y279077D01*
X-104Y278938D01*
X-112Y278799D01*
X-116Y278659D01*
X-116Y278519D01*
X-112Y278379D01*
X-104Y278240D01*
X-92Y278101D01*
X-76Y277962D01*
X-56Y277823D01*
X-33Y277686D01*
X-5Y277548D01*
X26Y277412D01*
X61Y277277D01*
X100Y277143D01*
X143Y277010D01*
X190Y276878D01*
X240Y276747D01*
X294Y276619D01*
X352Y276491D01*
X413Y276365D01*
X478Y276242D01*
X546Y276120D01*
X617Y275999D01*
X692Y275881D01*
X771Y275766D01*
X852Y275652D01*
X937Y275541D01*
X1025Y275432D01*
X1115Y275326D01*
X1209Y275222D01*
X1306Y275121D01*
X1406Y275023D01*
X1508Y274928D01*
X1613Y274836D01*
X1720Y274746D01*
X1830Y274660D01*
X1943Y274577D01*
X2057Y274497D01*
X2174Y274420D01*
X2293Y274347D01*
X2414Y274277D01*
X2537Y274211D01*
X2662Y274148D01*
X2789Y274088D01*
X2917Y274033D01*
X3046Y273981D01*
X3178Y273932D01*
X3310Y273887D01*
X3444Y273846D01*
X3578Y273809D01*
X3714Y273776D01*
X3851Y273747D01*
X3988Y273721D01*
X4126Y273699D01*
X4265Y273682D01*
X4404Y273668D01*
X4544Y273658D01*
X4683Y273652D01*
X4823Y273650D01*
X9761Y273650D01*
X-6234Y275625D02*
X-12160Y275625D01*
X-12284Y275623D01*
X-12408Y275617D01*
X-12532Y275607D01*
X-12655Y275594D01*
X-12778Y275576D01*
X-12900Y275555D01*
X-13022Y275530D01*
X-13143Y275501D01*
X-13262Y275468D01*
X-13381Y275432D01*
X-13498Y275391D01*
X-13614Y275348D01*
X-13729Y275300D01*
X-13842Y275249D01*
X-13954Y275194D01*
X-14063Y275136D01*
X-14171Y275075D01*
X-14277Y275010D01*
X-14381Y274942D01*
X-14482Y274870D01*
X-14582Y274796D01*
X-14678Y274718D01*
X-14773Y274638D01*
X-14865Y274554D01*
X-14954Y274468D01*
X-15040Y274379D01*
X-15124Y274287D01*
X-15204Y274192D01*
X-15282Y274096D01*
X-15356Y273996D01*
X-15428Y273895D01*
X-15496Y273791D01*
X-15561Y273685D01*
X-15622Y273577D01*
X-15680Y273468D01*
X-15735Y273356D01*
X-15786Y273243D01*
X-15834Y273128D01*
X-15877Y273012D01*
X-15918Y272895D01*
X-15954Y272776D01*
X-15987Y272657D01*
X-16016Y272536D01*
X-16041Y272414D01*
X-16062Y272292D01*
X-16080Y272169D01*
X-16093Y272046D01*
X-16103Y271922D01*
X-16109Y271798D01*
X-16111Y271674D01*
X-16111Y270686D01*
X-16112Y270686D02*
X-16110Y270546D01*
X-16104Y270407D01*
X-16094Y270267D01*
X-16080Y270128D01*
X-16063Y269989D01*
X-16041Y269851D01*
X-16015Y269714D01*
X-15986Y269577D01*
X-15953Y269441D01*
X-15916Y269307D01*
X-15875Y269173D01*
X-15830Y269041D01*
X-15781Y268909D01*
X-15729Y268780D01*
X-15674Y268652D01*
X-15614Y268525D01*
X-15551Y268400D01*
X-15485Y268277D01*
X-15415Y268156D01*
X-15342Y268037D01*
X-15265Y267920D01*
X-15185Y267806D01*
X-15102Y267693D01*
X-15016Y267583D01*
X-14926Y267476D01*
X-14834Y267371D01*
X-14739Y267269D01*
X-14641Y267169D01*
X-14540Y267072D01*
X-14436Y266978D01*
X-14330Y266888D01*
X-14221Y266800D01*
X-14110Y266715D01*
X-13996Y266634D01*
X-13881Y266555D01*
X-13763Y266480D01*
X-13642Y266409D01*
X-13520Y266341D01*
X-13397Y266276D01*
X-13271Y266215D01*
X-13143Y266157D01*
X-13015Y266103D01*
X-12884Y266053D01*
X-12752Y266006D01*
X-12619Y265963D01*
X-12485Y265924D01*
X-12350Y265889D01*
X-12214Y265858D01*
X-12076Y265830D01*
X-11939Y265807D01*
X-11800Y265787D01*
X-11661Y265771D01*
X-11522Y265759D01*
X-11383Y265751D01*
X-11243Y265747D01*
X-11103Y265747D01*
X-10963Y265751D01*
X-10824Y265759D01*
X-10685Y265771D01*
X-10546Y265787D01*
X-10407Y265807D01*
X-10270Y265830D01*
X-10132Y265858D01*
X-9996Y265889D01*
X-9861Y265924D01*
X-9727Y265963D01*
X-9594Y266006D01*
X-9462Y266053D01*
X-9331Y266103D01*
X-9203Y266157D01*
X-9075Y266215D01*
X-8949Y266276D01*
X-8826Y266341D01*
X-8703Y266409D01*
X-8583Y266480D01*
X-8465Y266555D01*
X-8350Y266634D01*
X-8236Y266715D01*
X-8125Y266800D01*
X-8016Y266888D01*
X-7910Y266978D01*
X-7806Y267072D01*
X-7705Y267169D01*
X-7607Y267269D01*
X-7512Y267371D01*
X-7420Y267476D01*
X-7330Y267583D01*
X-7244Y267693D01*
X-7161Y267806D01*
X-7081Y267920D01*
X-7004Y268037D01*
X-6931Y268156D01*
X-6861Y268277D01*
X-6795Y268400D01*
X-6732Y268525D01*
X-6672Y268652D01*
X-6617Y268780D01*
X-6565Y268909D01*
X-6516Y269041D01*
X-6471Y269173D01*
X-6430Y269307D01*
X-6393Y269441D01*
X-6360Y269577D01*
X-6331Y269714D01*
X-6305Y269851D01*
X-6283Y269989D01*
X-6266Y270128D01*
X-6252Y270267D01*
X-6242Y270407D01*
X-6236Y270546D01*
X-6234Y270686D01*
X-6234Y275625D01*
X-6236Y275819D01*
X-6244Y276013D01*
X-6255Y276206D01*
X-6272Y276400D01*
X-6293Y276592D01*
X-6320Y276784D01*
X-6350Y276976D01*
X-6386Y277167D01*
X-6426Y277356D01*
X-6471Y277545D01*
X-6520Y277733D01*
X-6574Y277919D01*
X-6633Y278104D01*
X-6696Y278287D01*
X-6763Y278469D01*
X-6836Y278649D01*
X-6912Y278827D01*
X-6993Y279004D01*
X-7078Y279178D01*
X-7167Y279350D01*
X-7261Y279520D01*
X-7358Y279687D01*
X-7460Y279853D01*
X-7566Y280015D01*
X-7675Y280175D01*
X-7789Y280332D01*
X-7906Y280487D01*
X-8028Y280638D01*
X-8153Y280786D01*
X-8281Y280932D01*
X-8413Y281074D01*
X-8548Y281213D01*
X-8687Y281348D01*
X-8829Y281480D01*
X-8975Y281608D01*
X-9123Y281733D01*
X-9274Y281855D01*
X-9429Y281972D01*
X-9586Y282086D01*
X-9746Y282195D01*
X-9908Y282301D01*
X-10074Y282403D01*
X-10241Y282500D01*
X-10411Y282594D01*
X-10583Y282683D01*
X-10757Y282768D01*
X-10934Y282849D01*
X-11112Y282925D01*
X-11292Y282998D01*
X-11474Y283065D01*
X-11657Y283128D01*
X-11842Y283187D01*
X-12028Y283241D01*
X-12216Y283290D01*
X-12405Y283335D01*
X-12594Y283375D01*
X-12785Y283411D01*
X-12977Y283441D01*
X-13169Y283468D01*
X-13361Y283489D01*
X-13555Y283506D01*
X-13748Y283517D01*
X-13942Y283525D01*
X-14136Y283527D01*
X108186Y227965D02*
X108186Y210185D01*
X108186Y227965D02*
X103248Y227965D01*
X103108Y227963D01*
X102969Y227957D01*
X102829Y227947D01*
X102690Y227933D01*
X102551Y227916D01*
X102413Y227894D01*
X102276Y227868D01*
X102139Y227839D01*
X102003Y227806D01*
X101869Y227769D01*
X101735Y227728D01*
X101603Y227683D01*
X101471Y227634D01*
X101342Y227582D01*
X101214Y227527D01*
X101087Y227467D01*
X100962Y227404D01*
X100839Y227338D01*
X100718Y227268D01*
X100599Y227195D01*
X100482Y227118D01*
X100368Y227038D01*
X100255Y226955D01*
X100145Y226869D01*
X100038Y226779D01*
X99933Y226687D01*
X99831Y226592D01*
X99731Y226494D01*
X99634Y226393D01*
X99540Y226289D01*
X99450Y226183D01*
X99362Y226074D01*
X99277Y225963D01*
X99196Y225849D01*
X99117Y225734D01*
X99042Y225616D01*
X98971Y225496D01*
X98903Y225373D01*
X98838Y225250D01*
X98777Y225124D01*
X98719Y224996D01*
X98665Y224868D01*
X98615Y224737D01*
X98568Y224605D01*
X98525Y224472D01*
X98486Y224338D01*
X98451Y224203D01*
X98420Y224067D01*
X98392Y223929D01*
X98369Y223792D01*
X98349Y223653D01*
X98333Y223514D01*
X98321Y223375D01*
X98313Y223236D01*
X98309Y223096D01*
X98309Y222956D01*
X98313Y222816D01*
X98321Y222677D01*
X98333Y222538D01*
X98349Y222399D01*
X98369Y222260D01*
X98392Y222123D01*
X98420Y221985D01*
X98451Y221849D01*
X98486Y221714D01*
X98525Y221580D01*
X98568Y221447D01*
X98615Y221315D01*
X98665Y221184D01*
X98719Y221056D01*
X98777Y220928D01*
X98838Y220802D01*
X98903Y220679D01*
X98971Y220556D01*
X99042Y220436D01*
X99117Y220318D01*
X99196Y220203D01*
X99277Y220089D01*
X99362Y219978D01*
X99450Y219869D01*
X99540Y219763D01*
X99634Y219659D01*
X99731Y219558D01*
X99831Y219460D01*
X99933Y219365D01*
X100038Y219273D01*
X100145Y219183D01*
X100255Y219097D01*
X100368Y219014D01*
X100482Y218934D01*
X100599Y218857D01*
X100718Y218784D01*
X100839Y218714D01*
X100962Y218648D01*
X101087Y218585D01*
X101214Y218525D01*
X101342Y218470D01*
X101471Y218418D01*
X101603Y218369D01*
X101735Y218324D01*
X101869Y218283D01*
X102003Y218246D01*
X102139Y218213D01*
X102276Y218184D01*
X102413Y218158D01*
X102551Y218136D01*
X102690Y218119D01*
X102829Y218105D01*
X102969Y218095D01*
X103108Y218089D01*
X103248Y218087D01*
X108186Y218087D01*
X92191Y224014D02*
X87252Y227965D01*
X87252Y210185D01*
X82314Y210185D02*
X92191Y210185D01*
D11*
X-61922Y285312D02*
X-63414Y284060D01*
X-59242Y279088D01*
X-56258Y281591D01*
X-56183Y281657D01*
X-56111Y281725D01*
X-56041Y281796D01*
X-55974Y281869D01*
X-55910Y281945D01*
X-55849Y282024D01*
X-55791Y282105D01*
X-55736Y282187D01*
X-55684Y282272D01*
X-55636Y282359D01*
X-55591Y282448D01*
X-55549Y282538D01*
X-55511Y282630D01*
X-55476Y282723D01*
X-55445Y282818D01*
X-55418Y282913D01*
X-55394Y283010D01*
X-55374Y283107D01*
X-55358Y283206D01*
X-55346Y283304D01*
X-55337Y283403D01*
X-55332Y283503D01*
X-55331Y283602D01*
X-55334Y283702D01*
X-55340Y283801D01*
X-55351Y283900D01*
X-55365Y283998D01*
X-55383Y284096D01*
X-55404Y284193D01*
X-55430Y284289D01*
X-55459Y284384D01*
X-55491Y284478D01*
X-55528Y284571D01*
X-55567Y284662D01*
X-55610Y284752D01*
X-55657Y284840D01*
X-55707Y284926D01*
X-55760Y285010D01*
X-55816Y285092D01*
X-55876Y285171D01*
X-55938Y285249D01*
X-60110Y290222D01*
X-60176Y290297D01*
X-60244Y290369D01*
X-60315Y290439D01*
X-60388Y290506D01*
X-60464Y290570D01*
X-60543Y290631D01*
X-60624Y290689D01*
X-60706Y290744D01*
X-60791Y290796D01*
X-60878Y290844D01*
X-60967Y290889D01*
X-61057Y290931D01*
X-61149Y290969D01*
X-61242Y291004D01*
X-61337Y291035D01*
X-61432Y291062D01*
X-61529Y291086D01*
X-61626Y291106D01*
X-61725Y291122D01*
X-61823Y291134D01*
X-61922Y291143D01*
X-62022Y291148D01*
X-62121Y291149D01*
X-62221Y291146D01*
X-62320Y291140D01*
X-62419Y291129D01*
X-62517Y291115D01*
X-62615Y291097D01*
X-62712Y291076D01*
X-62808Y291050D01*
X-62903Y291021D01*
X-62997Y290989D01*
X-63090Y290952D01*
X-63181Y290913D01*
X-63271Y290870D01*
X-63359Y290823D01*
X-63445Y290773D01*
X-63529Y290720D01*
X-63611Y290664D01*
X-63690Y290604D01*
X-63768Y290542D01*
X-66752Y288038D01*
X-71119Y284374D02*
X-63609Y275423D01*
X-68581Y271251D02*
X-71119Y284374D01*
X-76091Y280201D02*
X-68581Y271251D01*
X-72948Y267586D02*
X-80459Y276537D01*
X-82945Y274451D01*
X-82945Y274452D02*
X-83031Y274377D01*
X-83114Y274300D01*
X-83194Y274220D01*
X-83271Y274137D01*
X-83346Y274051D01*
X-83417Y273963D01*
X-83485Y273873D01*
X-83550Y273780D01*
X-83612Y273685D01*
X-83670Y273588D01*
X-83725Y273489D01*
X-83776Y273388D01*
X-83824Y273285D01*
X-83869Y273181D01*
X-83909Y273075D01*
X-83946Y272968D01*
X-83979Y272860D01*
X-84009Y272750D01*
X-84034Y272640D01*
X-84056Y272529D01*
X-84073Y272417D01*
X-84087Y272304D01*
X-84097Y272191D01*
X-84103Y272078D01*
X-84105Y271965D01*
X-84103Y271852D01*
X-84097Y271739D01*
X-84087Y271626D01*
X-84073Y271513D01*
X-84056Y271401D01*
X-84034Y271290D01*
X-84009Y271180D01*
X-83979Y271070D01*
X-83946Y270962D01*
X-83909Y270855D01*
X-83869Y270749D01*
X-83824Y270645D01*
X-83776Y270542D01*
X-83725Y270441D01*
X-83670Y270342D01*
X-83612Y270245D01*
X-83550Y270150D01*
X-83485Y270057D01*
X-83417Y269967D01*
X-83346Y269878D01*
X-83345Y269878D02*
X-80007Y265900D01*
X-80008Y265900D02*
X-79933Y265814D01*
X-79856Y265731D01*
X-79776Y265651D01*
X-79693Y265574D01*
X-79607Y265499D01*
X-79519Y265428D01*
X-79429Y265360D01*
X-79336Y265295D01*
X-79241Y265233D01*
X-79144Y265175D01*
X-79045Y265120D01*
X-78944Y265069D01*
X-78841Y265021D01*
X-78737Y264976D01*
X-78631Y264936D01*
X-78524Y264899D01*
X-78416Y264866D01*
X-78306Y264836D01*
X-78196Y264811D01*
X-78085Y264789D01*
X-77973Y264772D01*
X-77860Y264758D01*
X-77747Y264748D01*
X-77634Y264742D01*
X-77521Y264740D01*
X-77408Y264742D01*
X-77295Y264748D01*
X-77182Y264758D01*
X-77069Y264772D01*
X-76957Y264789D01*
X-76846Y264811D01*
X-76736Y264836D01*
X-76626Y264866D01*
X-76518Y264899D01*
X-76411Y264936D01*
X-76305Y264976D01*
X-76201Y265021D01*
X-76098Y265069D01*
X-75997Y265120D01*
X-75898Y265175D01*
X-75801Y265233D01*
X-75706Y265295D01*
X-75613Y265360D01*
X-75523Y265428D01*
X-75434Y265499D01*
X-75435Y265500D02*
X-72948Y267586D01*
D10*
X14524Y37465D02*
X14524Y19685D01*
X14524Y37465D02*
X9585Y37465D01*
X9445Y37463D01*
X9306Y37457D01*
X9166Y37447D01*
X9027Y37433D01*
X8888Y37416D01*
X8750Y37394D01*
X8613Y37368D01*
X8476Y37339D01*
X8340Y37306D01*
X8206Y37269D01*
X8072Y37228D01*
X7940Y37183D01*
X7808Y37134D01*
X7679Y37082D01*
X7551Y37027D01*
X7424Y36967D01*
X7299Y36904D01*
X7176Y36838D01*
X7055Y36768D01*
X6936Y36695D01*
X6819Y36618D01*
X6705Y36538D01*
X6592Y36455D01*
X6482Y36369D01*
X6375Y36279D01*
X6270Y36187D01*
X6168Y36092D01*
X6068Y35994D01*
X5971Y35893D01*
X5877Y35789D01*
X5787Y35683D01*
X5699Y35574D01*
X5614Y35463D01*
X5533Y35349D01*
X5454Y35234D01*
X5379Y35116D01*
X5308Y34995D01*
X5240Y34873D01*
X5175Y34750D01*
X5114Y34624D01*
X5056Y34496D01*
X5002Y34368D01*
X4952Y34237D01*
X4905Y34105D01*
X4862Y33972D01*
X4823Y33838D01*
X4788Y33703D01*
X4757Y33567D01*
X4729Y33429D01*
X4706Y33292D01*
X4686Y33153D01*
X4670Y33014D01*
X4658Y32875D01*
X4650Y32736D01*
X4646Y32596D01*
X4646Y32456D01*
X4650Y32316D01*
X4658Y32177D01*
X4670Y32038D01*
X4686Y31899D01*
X4706Y31760D01*
X4729Y31623D01*
X4757Y31485D01*
X4788Y31349D01*
X4823Y31214D01*
X4862Y31080D01*
X4905Y30947D01*
X4952Y30815D01*
X5002Y30684D01*
X5056Y30556D01*
X5114Y30428D01*
X5175Y30302D01*
X5240Y30179D01*
X5308Y30056D01*
X5379Y29936D01*
X5454Y29818D01*
X5533Y29703D01*
X5614Y29589D01*
X5699Y29478D01*
X5787Y29369D01*
X5877Y29263D01*
X5971Y29159D01*
X6068Y29058D01*
X6168Y28960D01*
X6270Y28865D01*
X6375Y28773D01*
X6482Y28683D01*
X6592Y28597D01*
X6705Y28514D01*
X6819Y28434D01*
X6936Y28357D01*
X7055Y28284D01*
X7176Y28214D01*
X7299Y28148D01*
X7424Y28085D01*
X7551Y28025D01*
X7679Y27970D01*
X7808Y27918D01*
X7940Y27869D01*
X8072Y27824D01*
X8206Y27783D01*
X8340Y27746D01*
X8476Y27713D01*
X8613Y27684D01*
X8750Y27658D01*
X8888Y27636D01*
X9027Y27619D01*
X9166Y27605D01*
X9306Y27595D01*
X9445Y27589D01*
X9585Y27587D01*
X14524Y27587D01*
X-1471Y19685D02*
X-6410Y19685D01*
X-6550Y19687D01*
X-6689Y19693D01*
X-6829Y19703D01*
X-6968Y19717D01*
X-7107Y19734D01*
X-7245Y19756D01*
X-7382Y19782D01*
X-7519Y19811D01*
X-7655Y19844D01*
X-7789Y19881D01*
X-7923Y19922D01*
X-8055Y19967D01*
X-8187Y20016D01*
X-8316Y20068D01*
X-8444Y20123D01*
X-8571Y20183D01*
X-8696Y20246D01*
X-8819Y20312D01*
X-8940Y20382D01*
X-9059Y20455D01*
X-9176Y20532D01*
X-9290Y20612D01*
X-9403Y20695D01*
X-9513Y20781D01*
X-9620Y20871D01*
X-9725Y20963D01*
X-9827Y21058D01*
X-9927Y21156D01*
X-10024Y21257D01*
X-10118Y21361D01*
X-10208Y21467D01*
X-10296Y21576D01*
X-10381Y21687D01*
X-10462Y21801D01*
X-10541Y21916D01*
X-10616Y22034D01*
X-10687Y22154D01*
X-10755Y22277D01*
X-10820Y22400D01*
X-10881Y22526D01*
X-10939Y22654D01*
X-10993Y22782D01*
X-11043Y22913D01*
X-11090Y23045D01*
X-11133Y23178D01*
X-11172Y23312D01*
X-11207Y23447D01*
X-11238Y23583D01*
X-11266Y23721D01*
X-11289Y23858D01*
X-11309Y23997D01*
X-11325Y24136D01*
X-11337Y24275D01*
X-11345Y24414D01*
X-11349Y24554D01*
X-11349Y24694D01*
X-11345Y24834D01*
X-11337Y24973D01*
X-11325Y25112D01*
X-11309Y25251D01*
X-11289Y25390D01*
X-11266Y25527D01*
X-11238Y25665D01*
X-11207Y25801D01*
X-11172Y25936D01*
X-11133Y26070D01*
X-11090Y26203D01*
X-11043Y26335D01*
X-10993Y26466D01*
X-10939Y26594D01*
X-10881Y26722D01*
X-10820Y26848D01*
X-10755Y26971D01*
X-10687Y27093D01*
X-10616Y27214D01*
X-10541Y27332D01*
X-10462Y27447D01*
X-10381Y27561D01*
X-10296Y27672D01*
X-10208Y27781D01*
X-10118Y27887D01*
X-10024Y27991D01*
X-9927Y28092D01*
X-9827Y28190D01*
X-9725Y28285D01*
X-9620Y28377D01*
X-9513Y28467D01*
X-9403Y28553D01*
X-9290Y28636D01*
X-9176Y28716D01*
X-9059Y28793D01*
X-8940Y28866D01*
X-8819Y28936D01*
X-8696Y29002D01*
X-8571Y29065D01*
X-8444Y29125D01*
X-8316Y29180D01*
X-8187Y29232D01*
X-8055Y29281D01*
X-7923Y29326D01*
X-7789Y29367D01*
X-7655Y29404D01*
X-7519Y29437D01*
X-7382Y29466D01*
X-7245Y29492D01*
X-7107Y29514D01*
X-6968Y29531D01*
X-6829Y29545D01*
X-6689Y29555D01*
X-6550Y29561D01*
X-6410Y29563D01*
X-7398Y37465D02*
X-1471Y37465D01*
X-7398Y37465D02*
X-7522Y37463D01*
X-7646Y37457D01*
X-7770Y37447D01*
X-7893Y37434D01*
X-8016Y37416D01*
X-8138Y37395D01*
X-8260Y37370D01*
X-8381Y37341D01*
X-8500Y37308D01*
X-8619Y37272D01*
X-8736Y37231D01*
X-8852Y37188D01*
X-8967Y37140D01*
X-9080Y37089D01*
X-9192Y37034D01*
X-9301Y36976D01*
X-9409Y36915D01*
X-9515Y36850D01*
X-9619Y36782D01*
X-9720Y36710D01*
X-9820Y36636D01*
X-9916Y36558D01*
X-10011Y36478D01*
X-10103Y36394D01*
X-10192Y36308D01*
X-10278Y36219D01*
X-10362Y36127D01*
X-10442Y36032D01*
X-10520Y35936D01*
X-10594Y35836D01*
X-10666Y35735D01*
X-10734Y35631D01*
X-10799Y35525D01*
X-10860Y35417D01*
X-10918Y35308D01*
X-10973Y35196D01*
X-11024Y35083D01*
X-11072Y34968D01*
X-11115Y34852D01*
X-11156Y34735D01*
X-11192Y34616D01*
X-11225Y34497D01*
X-11254Y34376D01*
X-11279Y34254D01*
X-11300Y34132D01*
X-11318Y34009D01*
X-11331Y33886D01*
X-11341Y33762D01*
X-11347Y33638D01*
X-11349Y33514D01*
X-11347Y33390D01*
X-11341Y33266D01*
X-11331Y33142D01*
X-11318Y33019D01*
X-11300Y32896D01*
X-11279Y32774D01*
X-11254Y32652D01*
X-11225Y32531D01*
X-11192Y32412D01*
X-11156Y32293D01*
X-11115Y32176D01*
X-11072Y32060D01*
X-11024Y31945D01*
X-10973Y31832D01*
X-10918Y31720D01*
X-10860Y31611D01*
X-10799Y31503D01*
X-10734Y31397D01*
X-10666Y31293D01*
X-10594Y31192D01*
X-10520Y31092D01*
X-10442Y30996D01*
X-10362Y30901D01*
X-10278Y30809D01*
X-10192Y30720D01*
X-10103Y30634D01*
X-10011Y30550D01*
X-9916Y30470D01*
X-9820Y30392D01*
X-9720Y30318D01*
X-9619Y30246D01*
X-9515Y30178D01*
X-9409Y30113D01*
X-9301Y30052D01*
X-9192Y29994D01*
X-9080Y29939D01*
X-8967Y29888D01*
X-8852Y29840D01*
X-8736Y29797D01*
X-8619Y29756D01*
X-8500Y29720D01*
X-8381Y29687D01*
X-8260Y29658D01*
X-8138Y29633D01*
X-8016Y29612D01*
X-7893Y29594D01*
X-7770Y29581D01*
X-7646Y29571D01*
X-7522Y29565D01*
X-7398Y29563D01*
X-3447Y29563D01*
D12*
X32957Y41092D02*
X32957Y47879D01*
X32957Y41092D02*
X32955Y40991D01*
X32949Y40890D01*
X32939Y40789D01*
X32926Y40689D01*
X32908Y40589D01*
X32887Y40490D01*
X32861Y40392D01*
X32832Y40295D01*
X32800Y40199D01*
X32763Y40105D01*
X32723Y40012D01*
X32679Y39920D01*
X32632Y39831D01*
X32581Y39743D01*
X32527Y39657D01*
X32470Y39574D01*
X32410Y39492D01*
X32346Y39414D01*
X32280Y39337D01*
X32210Y39264D01*
X32138Y39193D01*
X32063Y39125D01*
X31985Y39060D01*
X31905Y38998D01*
X31823Y38939D01*
X31738Y38883D01*
X31651Y38831D01*
X31563Y38782D01*
X31472Y38736D01*
X31380Y38695D01*
X31286Y38656D01*
X31191Y38622D01*
X31095Y38591D01*
X30997Y38564D01*
X30899Y38540D01*
X30799Y38521D01*
X30699Y38505D01*
X30599Y38493D01*
X30498Y38485D01*
X30397Y38481D01*
X30295Y38481D01*
X30194Y38485D01*
X30093Y38493D01*
X29993Y38505D01*
X29893Y38521D01*
X29793Y38540D01*
X29695Y38564D01*
X29597Y38591D01*
X29501Y38622D01*
X29406Y38656D01*
X29312Y38695D01*
X29220Y38736D01*
X29129Y38782D01*
X29040Y38831D01*
X28954Y38883D01*
X28869Y38939D01*
X28787Y38998D01*
X28707Y39060D01*
X28629Y39125D01*
X28554Y39193D01*
X28482Y39264D01*
X28412Y39337D01*
X28346Y39414D01*
X28282Y39492D01*
X28222Y39574D01*
X28165Y39657D01*
X28111Y39743D01*
X28060Y39831D01*
X28013Y39920D01*
X27969Y40012D01*
X27929Y40105D01*
X27892Y40199D01*
X27860Y40295D01*
X27831Y40392D01*
X27805Y40490D01*
X27784Y40589D01*
X27766Y40689D01*
X27753Y40789D01*
X27743Y40890D01*
X27737Y40991D01*
X27735Y41092D01*
X27735Y47879D01*
X23508Y45791D02*
X20897Y47879D01*
X20897Y38481D01*
X18287Y38481D02*
X23508Y38481D01*
D13*
X39763Y128413D02*
X39763Y147913D01*
D14*
X50483Y137605D02*
X59627Y137605D01*
D12*
X80880Y136906D02*
X82517Y136906D01*
X82595Y136908D01*
X82673Y136913D01*
X82750Y136923D01*
X82827Y136936D01*
X82903Y136952D01*
X82978Y136972D01*
X83052Y136996D01*
X83125Y137023D01*
X83197Y137054D01*
X83267Y137088D01*
X83336Y137125D01*
X83402Y137166D01*
X83467Y137210D01*
X83529Y137256D01*
X83589Y137306D01*
X83647Y137358D01*
X83702Y137413D01*
X83754Y137471D01*
X83804Y137531D01*
X83850Y137593D01*
X83894Y137658D01*
X83935Y137725D01*
X83972Y137793D01*
X84006Y137863D01*
X84037Y137935D01*
X84064Y138008D01*
X84088Y138082D01*
X84108Y138157D01*
X84124Y138233D01*
X84137Y138310D01*
X84147Y138387D01*
X84152Y138465D01*
X84154Y138543D01*
X84153Y138543D02*
X84153Y142635D01*
X84154Y142635D02*
X84152Y142713D01*
X84147Y142791D01*
X84137Y142868D01*
X84124Y142945D01*
X84108Y143021D01*
X84088Y143096D01*
X84064Y143170D01*
X84037Y143243D01*
X84006Y143315D01*
X83972Y143385D01*
X83935Y143454D01*
X83894Y143520D01*
X83850Y143585D01*
X83804Y143647D01*
X83754Y143707D01*
X83702Y143765D01*
X83647Y143820D01*
X83589Y143872D01*
X83529Y143922D01*
X83467Y143968D01*
X83402Y144012D01*
X83336Y144053D01*
X83267Y144090D01*
X83197Y144124D01*
X83125Y144155D01*
X83052Y144182D01*
X82978Y144206D01*
X82903Y144226D01*
X82827Y144242D01*
X82750Y144255D01*
X82673Y144265D01*
X82595Y144270D01*
X82517Y144272D01*
X80880Y144272D01*
X75784Y144273D02*
X75699Y144271D01*
X75614Y144265D01*
X75530Y144255D01*
X75446Y144242D01*
X75362Y144224D01*
X75280Y144203D01*
X75199Y144178D01*
X75119Y144149D01*
X75040Y144116D01*
X74963Y144080D01*
X74888Y144040D01*
X74814Y143997D01*
X74743Y143951D01*
X74674Y143901D01*
X74607Y143848D01*
X74543Y143792D01*
X74482Y143733D01*
X74423Y143672D01*
X74367Y143608D01*
X74314Y143541D01*
X74264Y143472D01*
X74218Y143401D01*
X74175Y143327D01*
X74135Y143252D01*
X74099Y143175D01*
X74066Y143096D01*
X74037Y143016D01*
X74012Y142935D01*
X73991Y142853D01*
X73973Y142769D01*
X73960Y142685D01*
X73950Y142601D01*
X73944Y142516D01*
X73942Y142431D01*
X75784Y144272D02*
X75880Y144270D01*
X75976Y144264D01*
X76071Y144254D01*
X76166Y144241D01*
X76261Y144223D01*
X76354Y144202D01*
X76447Y144177D01*
X76538Y144148D01*
X76629Y144116D01*
X76718Y144080D01*
X76805Y144040D01*
X76891Y143997D01*
X76975Y143951D01*
X77057Y143901D01*
X77137Y143847D01*
X77214Y143791D01*
X77289Y143731D01*
X77362Y143669D01*
X77432Y143603D01*
X77500Y143535D01*
X77565Y143464D01*
X77626Y143391D01*
X77685Y143315D01*
X77741Y143236D01*
X77793Y143156D01*
X77842Y143073D01*
X77888Y142989D01*
X77930Y142903D01*
X77968Y142815D01*
X78003Y142726D01*
X78035Y142635D01*
X74556Y140999D02*
X74496Y141058D01*
X74439Y141120D01*
X74384Y141184D01*
X74333Y141251D01*
X74284Y141320D01*
X74238Y141390D01*
X74195Y141463D01*
X74155Y141537D01*
X74119Y141613D01*
X74086Y141691D01*
X74056Y141770D01*
X74029Y141850D01*
X74006Y141931D01*
X73987Y142013D01*
X73971Y142095D01*
X73958Y142179D01*
X73949Y142263D01*
X73944Y142347D01*
X73942Y142431D01*
X74556Y140998D02*
X78034Y136906D01*
X73942Y136906D01*
D15*
X-50800Y92964D02*
X-50800Y85344D01*
D12*
X-53785Y67294D02*
X-53785Y65657D01*
X-53783Y65579D01*
X-53778Y65501D01*
X-53768Y65424D01*
X-53755Y65347D01*
X-53739Y65271D01*
X-53719Y65196D01*
X-53695Y65122D01*
X-53668Y65049D01*
X-53637Y64977D01*
X-53603Y64907D01*
X-53566Y64839D01*
X-53525Y64772D01*
X-53481Y64707D01*
X-53435Y64645D01*
X-53385Y64585D01*
X-53333Y64527D01*
X-53278Y64472D01*
X-53220Y64420D01*
X-53160Y64370D01*
X-53098Y64324D01*
X-53033Y64280D01*
X-52967Y64239D01*
X-52898Y64202D01*
X-52828Y64168D01*
X-52756Y64137D01*
X-52683Y64110D01*
X-52609Y64086D01*
X-52534Y64066D01*
X-52458Y64050D01*
X-52381Y64037D01*
X-52304Y64027D01*
X-52226Y64022D01*
X-52148Y64020D01*
X-48055Y64020D01*
X-47975Y64022D01*
X-47895Y64028D01*
X-47815Y64038D01*
X-47736Y64051D01*
X-47657Y64069D01*
X-47580Y64090D01*
X-47504Y64116D01*
X-47429Y64145D01*
X-47355Y64177D01*
X-47283Y64213D01*
X-47213Y64253D01*
X-47146Y64296D01*
X-47080Y64342D01*
X-47017Y64392D01*
X-46956Y64444D01*
X-46897Y64499D01*
X-46842Y64558D01*
X-46790Y64618D01*
X-46740Y64682D01*
X-46694Y64747D01*
X-46651Y64815D01*
X-46611Y64885D01*
X-46575Y64957D01*
X-46543Y65031D01*
X-46514Y65105D01*
X-46489Y65182D01*
X-46467Y65259D01*
X-46449Y65338D01*
X-46436Y65417D01*
X-46426Y65496D01*
X-46420Y65577D01*
X-46418Y65657D01*
X-46419Y65657D02*
X-46419Y67294D01*
X-53785Y70139D02*
X-53785Y72185D01*
X-53784Y72185D02*
X-53782Y72274D01*
X-53776Y72363D01*
X-53766Y72452D01*
X-53753Y72540D01*
X-53736Y72628D01*
X-53714Y72715D01*
X-53689Y72800D01*
X-53661Y72885D01*
X-53628Y72968D01*
X-53592Y73050D01*
X-53553Y73130D01*
X-53510Y73208D01*
X-53464Y73284D01*
X-53414Y73359D01*
X-53361Y73431D01*
X-53305Y73500D01*
X-53246Y73567D01*
X-53185Y73632D01*
X-53120Y73693D01*
X-53053Y73752D01*
X-52984Y73808D01*
X-52912Y73861D01*
X-52837Y73911D01*
X-52761Y73957D01*
X-52683Y74000D01*
X-52603Y74039D01*
X-52521Y74075D01*
X-52438Y74108D01*
X-52353Y74136D01*
X-52268Y74161D01*
X-52181Y74183D01*
X-52093Y74200D01*
X-52005Y74213D01*
X-51916Y74223D01*
X-51827Y74229D01*
X-51738Y74231D01*
X-51649Y74229D01*
X-51560Y74223D01*
X-51471Y74213D01*
X-51383Y74200D01*
X-51295Y74183D01*
X-51208Y74161D01*
X-51123Y74136D01*
X-51038Y74108D01*
X-50955Y74075D01*
X-50873Y74039D01*
X-50793Y74000D01*
X-50715Y73957D01*
X-50639Y73911D01*
X-50564Y73861D01*
X-50492Y73808D01*
X-50423Y73752D01*
X-50356Y73693D01*
X-50291Y73632D01*
X-50230Y73567D01*
X-50171Y73500D01*
X-50115Y73431D01*
X-50062Y73359D01*
X-50012Y73284D01*
X-49966Y73208D01*
X-49923Y73130D01*
X-49884Y73050D01*
X-49848Y72968D01*
X-49815Y72885D01*
X-49787Y72800D01*
X-49762Y72715D01*
X-49740Y72628D01*
X-49723Y72540D01*
X-49710Y72452D01*
X-49700Y72363D01*
X-49694Y72274D01*
X-49692Y72185D01*
X-46419Y72595D02*
X-46419Y70139D01*
X-46418Y72595D02*
X-46420Y72674D01*
X-46426Y72753D01*
X-46435Y72832D01*
X-46448Y72910D01*
X-46466Y72987D01*
X-46486Y73063D01*
X-46511Y73138D01*
X-46539Y73212D01*
X-46570Y73285D01*
X-46606Y73356D01*
X-46644Y73425D01*
X-46686Y73492D01*
X-46731Y73557D01*
X-46779Y73620D01*
X-46830Y73681D01*
X-46884Y73738D01*
X-46940Y73794D01*
X-46999Y73846D01*
X-47061Y73896D01*
X-47125Y73942D01*
X-47191Y73986D01*
X-47259Y74026D01*
X-47329Y74062D01*
X-47401Y74096D01*
X-47475Y74126D01*
X-47549Y74152D01*
X-47625Y74175D01*
X-47702Y74193D01*
X-47779Y74209D01*
X-47858Y74220D01*
X-47936Y74228D01*
X-48015Y74232D01*
X-48095Y74232D01*
X-48174Y74228D01*
X-48252Y74220D01*
X-48331Y74209D01*
X-48408Y74193D01*
X-48485Y74175D01*
X-48561Y74152D01*
X-48635Y74126D01*
X-48709Y74096D01*
X-48781Y74062D01*
X-48851Y74026D01*
X-48919Y73986D01*
X-48985Y73942D01*
X-49049Y73896D01*
X-49111Y73846D01*
X-49170Y73794D01*
X-49226Y73738D01*
X-49280Y73681D01*
X-49331Y73620D01*
X-49379Y73557D01*
X-49424Y73492D01*
X-49466Y73425D01*
X-49504Y73356D01*
X-49540Y73285D01*
X-49571Y73212D01*
X-49599Y73138D01*
X-49624Y73063D01*
X-49644Y72987D01*
X-49662Y72910D01*
X-49675Y72832D01*
X-49684Y72753D01*
X-49690Y72674D01*
X-49692Y72595D01*
X-49692Y70958D01*
D13*
X-52113Y104700D02*
X-71613Y104700D01*
D14*
X-62421Y93980D02*
X-62421Y84836D01*
D12*
X-65103Y65964D02*
X-65103Y64327D01*
X-65104Y64327D02*
X-65102Y64249D01*
X-65097Y64171D01*
X-65087Y64094D01*
X-65074Y64017D01*
X-65058Y63941D01*
X-65038Y63866D01*
X-65014Y63792D01*
X-64987Y63719D01*
X-64956Y63647D01*
X-64922Y63577D01*
X-64885Y63509D01*
X-64844Y63442D01*
X-64800Y63377D01*
X-64754Y63315D01*
X-64704Y63255D01*
X-64652Y63197D01*
X-64597Y63142D01*
X-64539Y63090D01*
X-64479Y63040D01*
X-64417Y62994D01*
X-64352Y62950D01*
X-64286Y62909D01*
X-64217Y62872D01*
X-64147Y62838D01*
X-64075Y62807D01*
X-64002Y62780D01*
X-63928Y62756D01*
X-63853Y62736D01*
X-63777Y62720D01*
X-63700Y62707D01*
X-63623Y62697D01*
X-63545Y62692D01*
X-63467Y62690D01*
X-59374Y62690D01*
X-59294Y62692D01*
X-59214Y62698D01*
X-59134Y62708D01*
X-59055Y62721D01*
X-58976Y62739D01*
X-58899Y62760D01*
X-58823Y62786D01*
X-58748Y62815D01*
X-58674Y62847D01*
X-58602Y62883D01*
X-58532Y62923D01*
X-58465Y62966D01*
X-58399Y63012D01*
X-58336Y63062D01*
X-58275Y63114D01*
X-58216Y63169D01*
X-58161Y63228D01*
X-58109Y63288D01*
X-58059Y63352D01*
X-58013Y63417D01*
X-57970Y63485D01*
X-57930Y63555D01*
X-57894Y63627D01*
X-57862Y63701D01*
X-57833Y63775D01*
X-57808Y63852D01*
X-57786Y63929D01*
X-57768Y64008D01*
X-57755Y64087D01*
X-57745Y64166D01*
X-57739Y64247D01*
X-57737Y64327D01*
X-57737Y65964D01*
X-57737Y70446D02*
X-63467Y68809D01*
X-63467Y72902D01*
X-65103Y71674D02*
X-61830Y71674D01*
D15*
X51499Y115888D02*
X59119Y115888D01*
D12*
X80483Y113490D02*
X82120Y113490D01*
X82198Y113492D01*
X82276Y113497D01*
X82353Y113507D01*
X82430Y113520D01*
X82506Y113536D01*
X82581Y113556D01*
X82655Y113580D01*
X82728Y113607D01*
X82800Y113638D01*
X82870Y113672D01*
X82939Y113709D01*
X83005Y113750D01*
X83070Y113794D01*
X83132Y113840D01*
X83192Y113890D01*
X83250Y113942D01*
X83305Y113997D01*
X83357Y114055D01*
X83407Y114115D01*
X83453Y114177D01*
X83497Y114242D01*
X83538Y114309D01*
X83575Y114377D01*
X83609Y114447D01*
X83640Y114519D01*
X83667Y114592D01*
X83691Y114666D01*
X83711Y114741D01*
X83727Y114817D01*
X83740Y114894D01*
X83750Y114971D01*
X83755Y115049D01*
X83757Y115127D01*
X83757Y119219D01*
X83755Y119297D01*
X83750Y119375D01*
X83740Y119452D01*
X83727Y119529D01*
X83711Y119605D01*
X83691Y119680D01*
X83667Y119754D01*
X83640Y119827D01*
X83609Y119899D01*
X83575Y119969D01*
X83538Y120038D01*
X83497Y120104D01*
X83453Y120169D01*
X83407Y120231D01*
X83357Y120291D01*
X83305Y120349D01*
X83250Y120404D01*
X83192Y120456D01*
X83132Y120506D01*
X83070Y120552D01*
X83005Y120596D01*
X82939Y120637D01*
X82870Y120674D01*
X82800Y120708D01*
X82728Y120739D01*
X82655Y120766D01*
X82581Y120790D01*
X82506Y120810D01*
X82430Y120826D01*
X82353Y120839D01*
X82276Y120849D01*
X82198Y120854D01*
X82120Y120856D01*
X80483Y120856D01*
X77637Y113490D02*
X75182Y113490D01*
X75102Y113492D01*
X75022Y113498D01*
X74942Y113508D01*
X74863Y113521D01*
X74784Y113539D01*
X74707Y113560D01*
X74631Y113586D01*
X74556Y113615D01*
X74482Y113647D01*
X74410Y113683D01*
X74340Y113723D01*
X74273Y113766D01*
X74207Y113812D01*
X74144Y113862D01*
X74083Y113914D01*
X74024Y113969D01*
X73969Y114028D01*
X73917Y114088D01*
X73867Y114152D01*
X73821Y114217D01*
X73778Y114285D01*
X73738Y114355D01*
X73702Y114427D01*
X73670Y114501D01*
X73641Y114575D01*
X73616Y114652D01*
X73594Y114729D01*
X73576Y114808D01*
X73563Y114887D01*
X73553Y114966D01*
X73547Y115047D01*
X73545Y115127D01*
X73545Y115946D01*
X73547Y116024D01*
X73552Y116102D01*
X73562Y116179D01*
X73575Y116256D01*
X73591Y116332D01*
X73611Y116407D01*
X73635Y116481D01*
X73662Y116554D01*
X73693Y116626D01*
X73727Y116696D01*
X73764Y116765D01*
X73805Y116831D01*
X73849Y116896D01*
X73895Y116958D01*
X73945Y117018D01*
X73997Y117076D01*
X74052Y117131D01*
X74110Y117183D01*
X74170Y117233D01*
X74232Y117279D01*
X74297Y117323D01*
X74364Y117364D01*
X74432Y117401D01*
X74502Y117435D01*
X74574Y117466D01*
X74647Y117493D01*
X74721Y117517D01*
X74796Y117537D01*
X74872Y117553D01*
X74949Y117566D01*
X75026Y117576D01*
X75104Y117581D01*
X75182Y117583D01*
X77637Y117583D01*
X77637Y120856D01*
X73545Y120856D01*
D15*
X59119Y106363D02*
X51499Y106363D01*
D12*
X79689Y101187D02*
X81326Y101187D01*
X81404Y101189D01*
X81482Y101194D01*
X81559Y101204D01*
X81636Y101217D01*
X81712Y101233D01*
X81787Y101253D01*
X81861Y101277D01*
X81934Y101304D01*
X82006Y101335D01*
X82076Y101369D01*
X82145Y101406D01*
X82211Y101447D01*
X82276Y101491D01*
X82338Y101537D01*
X82398Y101587D01*
X82456Y101639D01*
X82511Y101694D01*
X82563Y101752D01*
X82613Y101812D01*
X82659Y101874D01*
X82703Y101939D01*
X82744Y102006D01*
X82781Y102074D01*
X82815Y102144D01*
X82846Y102216D01*
X82873Y102289D01*
X82897Y102363D01*
X82917Y102438D01*
X82933Y102514D01*
X82946Y102591D01*
X82956Y102668D01*
X82961Y102746D01*
X82963Y102824D01*
X82963Y106916D01*
X82961Y106994D01*
X82956Y107072D01*
X82946Y107149D01*
X82933Y107226D01*
X82917Y107302D01*
X82897Y107377D01*
X82873Y107451D01*
X82846Y107524D01*
X82815Y107596D01*
X82781Y107666D01*
X82744Y107735D01*
X82703Y107801D01*
X82659Y107866D01*
X82613Y107928D01*
X82563Y107988D01*
X82511Y108046D01*
X82456Y108101D01*
X82398Y108153D01*
X82338Y108203D01*
X82276Y108249D01*
X82211Y108293D01*
X82145Y108334D01*
X82076Y108371D01*
X82006Y108405D01*
X81934Y108436D01*
X81861Y108463D01*
X81787Y108487D01*
X81712Y108507D01*
X81636Y108523D01*
X81559Y108536D01*
X81482Y108546D01*
X81404Y108551D01*
X81326Y108553D01*
X79689Y108553D01*
X76844Y105279D02*
X74388Y105279D01*
X74388Y105280D02*
X74308Y105278D01*
X74228Y105272D01*
X74148Y105262D01*
X74069Y105249D01*
X73990Y105231D01*
X73913Y105210D01*
X73837Y105184D01*
X73762Y105155D01*
X73688Y105123D01*
X73616Y105087D01*
X73546Y105047D01*
X73479Y105004D01*
X73413Y104958D01*
X73350Y104908D01*
X73289Y104856D01*
X73230Y104801D01*
X73175Y104742D01*
X73123Y104682D01*
X73073Y104618D01*
X73027Y104552D01*
X72984Y104485D01*
X72944Y104415D01*
X72908Y104343D01*
X72876Y104269D01*
X72847Y104195D01*
X72821Y104118D01*
X72800Y104041D01*
X72782Y103962D01*
X72769Y103883D01*
X72759Y103803D01*
X72753Y103723D01*
X72751Y103643D01*
X72751Y103233D01*
X72752Y103233D02*
X72754Y103144D01*
X72760Y103055D01*
X72770Y102966D01*
X72783Y102878D01*
X72800Y102790D01*
X72822Y102703D01*
X72847Y102618D01*
X72875Y102533D01*
X72908Y102450D01*
X72944Y102368D01*
X72983Y102288D01*
X73026Y102210D01*
X73072Y102134D01*
X73122Y102059D01*
X73175Y101987D01*
X73231Y101918D01*
X73290Y101851D01*
X73351Y101786D01*
X73416Y101725D01*
X73483Y101666D01*
X73552Y101610D01*
X73624Y101557D01*
X73699Y101507D01*
X73775Y101461D01*
X73853Y101418D01*
X73933Y101379D01*
X74015Y101343D01*
X74098Y101310D01*
X74183Y101282D01*
X74268Y101257D01*
X74355Y101235D01*
X74443Y101218D01*
X74531Y101205D01*
X74620Y101195D01*
X74709Y101189D01*
X74798Y101187D01*
X74887Y101189D01*
X74976Y101195D01*
X75065Y101205D01*
X75153Y101218D01*
X75241Y101235D01*
X75328Y101257D01*
X75413Y101282D01*
X75498Y101310D01*
X75581Y101343D01*
X75663Y101379D01*
X75743Y101418D01*
X75821Y101461D01*
X75897Y101507D01*
X75972Y101557D01*
X76044Y101610D01*
X76113Y101666D01*
X76180Y101725D01*
X76245Y101786D01*
X76306Y101851D01*
X76365Y101918D01*
X76421Y101987D01*
X76474Y102059D01*
X76524Y102134D01*
X76570Y102210D01*
X76613Y102288D01*
X76652Y102368D01*
X76688Y102450D01*
X76721Y102533D01*
X76749Y102618D01*
X76774Y102703D01*
X76796Y102790D01*
X76813Y102878D01*
X76826Y102966D01*
X76836Y103055D01*
X76842Y103144D01*
X76844Y103233D01*
X76844Y105279D01*
X76842Y105391D01*
X76836Y105502D01*
X76827Y105614D01*
X76814Y105725D01*
X76796Y105835D01*
X76776Y105945D01*
X76751Y106054D01*
X76723Y106162D01*
X76691Y106269D01*
X76655Y106375D01*
X76616Y106480D01*
X76573Y106583D01*
X76527Y106685D01*
X76477Y106785D01*
X76424Y106884D01*
X76367Y106980D01*
X76308Y107075D01*
X76245Y107167D01*
X76179Y107257D01*
X76110Y107345D01*
X76038Y107431D01*
X75963Y107514D01*
X75885Y107594D01*
X75805Y107672D01*
X75722Y107747D01*
X75636Y107819D01*
X75548Y107888D01*
X75458Y107954D01*
X75366Y108017D01*
X75271Y108076D01*
X75175Y108133D01*
X75076Y108186D01*
X74976Y108236D01*
X74874Y108282D01*
X74771Y108325D01*
X74666Y108364D01*
X74560Y108400D01*
X74453Y108432D01*
X74345Y108460D01*
X74236Y108485D01*
X74126Y108505D01*
X74016Y108523D01*
X73905Y108536D01*
X73793Y108545D01*
X73682Y108551D01*
X73570Y108553D01*
D13*
X39763Y117300D02*
X39763Y136800D01*
D14*
X50483Y126492D02*
X59627Y126492D01*
D12*
X79689Y125000D02*
X81326Y125000D01*
X81404Y125002D01*
X81482Y125007D01*
X81559Y125017D01*
X81636Y125030D01*
X81712Y125046D01*
X81787Y125066D01*
X81861Y125090D01*
X81934Y125117D01*
X82006Y125148D01*
X82076Y125182D01*
X82145Y125219D01*
X82211Y125260D01*
X82276Y125304D01*
X82338Y125350D01*
X82398Y125400D01*
X82456Y125452D01*
X82511Y125507D01*
X82563Y125565D01*
X82613Y125625D01*
X82659Y125687D01*
X82703Y125752D01*
X82744Y125819D01*
X82781Y125887D01*
X82815Y125957D01*
X82846Y126029D01*
X82873Y126102D01*
X82897Y126176D01*
X82917Y126251D01*
X82933Y126327D01*
X82946Y126404D01*
X82956Y126481D01*
X82961Y126559D01*
X82963Y126637D01*
X82963Y130729D01*
X82961Y130807D01*
X82956Y130885D01*
X82946Y130962D01*
X82933Y131039D01*
X82917Y131115D01*
X82897Y131190D01*
X82873Y131264D01*
X82846Y131337D01*
X82815Y131409D01*
X82781Y131479D01*
X82744Y131548D01*
X82703Y131614D01*
X82659Y131679D01*
X82613Y131741D01*
X82563Y131801D01*
X82511Y131859D01*
X82456Y131914D01*
X82398Y131966D01*
X82338Y132016D01*
X82276Y132062D01*
X82211Y132106D01*
X82145Y132147D01*
X82076Y132184D01*
X82006Y132218D01*
X81934Y132249D01*
X81861Y132276D01*
X81787Y132300D01*
X81712Y132320D01*
X81636Y132336D01*
X81559Y132349D01*
X81482Y132359D01*
X81404Y132364D01*
X81326Y132366D01*
X79689Y132366D01*
X76844Y132366D02*
X76844Y131547D01*
X76844Y132366D02*
X72751Y132366D01*
X74798Y125000D01*
X61928Y155566D02*
X54562Y155566D01*
X61928Y155566D02*
X61928Y158839D01*
X58655Y158839D02*
X58655Y155566D01*
X58655Y162007D02*
X58655Y164054D01*
X58654Y164054D02*
X58652Y164143D01*
X58646Y164232D01*
X58636Y164321D01*
X58623Y164409D01*
X58606Y164497D01*
X58584Y164584D01*
X58559Y164669D01*
X58531Y164754D01*
X58498Y164837D01*
X58462Y164919D01*
X58423Y164999D01*
X58380Y165077D01*
X58334Y165153D01*
X58284Y165228D01*
X58231Y165300D01*
X58175Y165369D01*
X58116Y165436D01*
X58055Y165501D01*
X57990Y165562D01*
X57923Y165621D01*
X57854Y165677D01*
X57782Y165730D01*
X57707Y165780D01*
X57631Y165826D01*
X57553Y165869D01*
X57473Y165908D01*
X57391Y165944D01*
X57308Y165977D01*
X57223Y166005D01*
X57138Y166030D01*
X57051Y166052D01*
X56963Y166069D01*
X56875Y166082D01*
X56786Y166092D01*
X56697Y166098D01*
X56608Y166100D01*
X56519Y166098D01*
X56430Y166092D01*
X56341Y166082D01*
X56253Y166069D01*
X56165Y166052D01*
X56078Y166030D01*
X55993Y166005D01*
X55908Y165977D01*
X55825Y165944D01*
X55743Y165908D01*
X55663Y165869D01*
X55585Y165826D01*
X55509Y165780D01*
X55434Y165730D01*
X55362Y165677D01*
X55293Y165621D01*
X55226Y165562D01*
X55161Y165501D01*
X55100Y165436D01*
X55041Y165369D01*
X54985Y165300D01*
X54932Y165228D01*
X54882Y165153D01*
X54836Y165077D01*
X54793Y164999D01*
X54754Y164919D01*
X54718Y164837D01*
X54685Y164754D01*
X54657Y164669D01*
X54632Y164584D01*
X54610Y164497D01*
X54593Y164409D01*
X54580Y164321D01*
X54570Y164232D01*
X54564Y164143D01*
X54562Y164054D01*
X54562Y162007D01*
X61928Y162007D01*
X61928Y164054D01*
X61926Y164133D01*
X61920Y164212D01*
X61911Y164291D01*
X61898Y164369D01*
X61880Y164446D01*
X61860Y164522D01*
X61835Y164597D01*
X61807Y164671D01*
X61776Y164744D01*
X61740Y164815D01*
X61702Y164884D01*
X61660Y164951D01*
X61615Y165016D01*
X61567Y165079D01*
X61516Y165140D01*
X61462Y165197D01*
X61406Y165253D01*
X61347Y165305D01*
X61285Y165355D01*
X61221Y165401D01*
X61155Y165445D01*
X61087Y165485D01*
X61017Y165521D01*
X60945Y165555D01*
X60871Y165585D01*
X60797Y165611D01*
X60721Y165634D01*
X60644Y165652D01*
X60567Y165668D01*
X60488Y165679D01*
X60410Y165687D01*
X60331Y165691D01*
X60251Y165691D01*
X60172Y165687D01*
X60094Y165679D01*
X60015Y165668D01*
X59938Y165652D01*
X59861Y165634D01*
X59785Y165611D01*
X59711Y165585D01*
X59637Y165555D01*
X59565Y165521D01*
X59495Y165485D01*
X59427Y165445D01*
X59361Y165401D01*
X59297Y165355D01*
X59235Y165305D01*
X59176Y165253D01*
X59120Y165197D01*
X59066Y165140D01*
X59015Y165079D01*
X58967Y165016D01*
X58922Y164951D01*
X58880Y164884D01*
X58842Y164815D01*
X58806Y164744D01*
X58775Y164671D01*
X58747Y164597D01*
X58722Y164522D01*
X58702Y164446D01*
X58684Y164369D01*
X58671Y164291D01*
X58662Y164212D01*
X58656Y164133D01*
X58654Y164054D01*
X60291Y168961D02*
X61928Y171007D01*
X54562Y171007D01*
X54562Y168961D02*
X54562Y173053D01*
D15*
X71184Y165735D02*
X71184Y158623D01*
D12*
X80153Y157544D02*
X87519Y157544D01*
X87519Y159590D01*
X87517Y159679D01*
X87511Y159768D01*
X87501Y159857D01*
X87488Y159945D01*
X87471Y160033D01*
X87449Y160120D01*
X87424Y160205D01*
X87396Y160290D01*
X87363Y160373D01*
X87327Y160455D01*
X87288Y160535D01*
X87245Y160613D01*
X87199Y160689D01*
X87149Y160764D01*
X87096Y160836D01*
X87040Y160905D01*
X86981Y160972D01*
X86920Y161037D01*
X86855Y161098D01*
X86788Y161157D01*
X86719Y161213D01*
X86647Y161266D01*
X86572Y161316D01*
X86496Y161362D01*
X86418Y161405D01*
X86338Y161444D01*
X86256Y161480D01*
X86173Y161513D01*
X86088Y161541D01*
X86003Y161566D01*
X85916Y161588D01*
X85828Y161605D01*
X85740Y161618D01*
X85651Y161628D01*
X85562Y161634D01*
X85473Y161636D01*
X85384Y161634D01*
X85295Y161628D01*
X85206Y161618D01*
X85118Y161605D01*
X85030Y161588D01*
X84943Y161566D01*
X84858Y161541D01*
X84773Y161513D01*
X84690Y161480D01*
X84608Y161444D01*
X84528Y161405D01*
X84450Y161362D01*
X84374Y161316D01*
X84299Y161266D01*
X84227Y161213D01*
X84158Y161157D01*
X84091Y161098D01*
X84026Y161037D01*
X83965Y160972D01*
X83906Y160905D01*
X83850Y160836D01*
X83797Y160764D01*
X83747Y160689D01*
X83701Y160613D01*
X83658Y160535D01*
X83619Y160455D01*
X83583Y160373D01*
X83550Y160290D01*
X83522Y160205D01*
X83497Y160120D01*
X83475Y160033D01*
X83458Y159945D01*
X83445Y159857D01*
X83435Y159768D01*
X83429Y159679D01*
X83427Y159590D01*
X83427Y157544D01*
X83427Y159999D02*
X80153Y161636D01*
X85677Y168900D02*
X85762Y168898D01*
X85847Y168892D01*
X85931Y168882D01*
X86015Y168869D01*
X86099Y168851D01*
X86181Y168830D01*
X86262Y168805D01*
X86342Y168776D01*
X86421Y168743D01*
X86498Y168707D01*
X86573Y168667D01*
X86647Y168624D01*
X86718Y168578D01*
X86787Y168528D01*
X86854Y168475D01*
X86918Y168419D01*
X86979Y168360D01*
X87038Y168299D01*
X87094Y168235D01*
X87147Y168168D01*
X87197Y168099D01*
X87243Y168028D01*
X87286Y167954D01*
X87326Y167879D01*
X87362Y167802D01*
X87395Y167723D01*
X87424Y167643D01*
X87449Y167562D01*
X87470Y167480D01*
X87488Y167396D01*
X87501Y167312D01*
X87511Y167228D01*
X87517Y167143D01*
X87519Y167058D01*
X87517Y166962D01*
X87511Y166866D01*
X87501Y166771D01*
X87488Y166676D01*
X87470Y166581D01*
X87449Y166488D01*
X87424Y166395D01*
X87395Y166304D01*
X87363Y166213D01*
X87327Y166124D01*
X87287Y166037D01*
X87244Y165951D01*
X87198Y165867D01*
X87148Y165785D01*
X87094Y165705D01*
X87038Y165628D01*
X86978Y165553D01*
X86916Y165480D01*
X86850Y165410D01*
X86782Y165342D01*
X86711Y165277D01*
X86638Y165216D01*
X86562Y165157D01*
X86483Y165101D01*
X86403Y165049D01*
X86320Y165000D01*
X86236Y164954D01*
X86150Y164912D01*
X86062Y164874D01*
X85973Y164839D01*
X85882Y164807D01*
X84245Y168286D02*
X84304Y168346D01*
X84366Y168403D01*
X84430Y168458D01*
X84497Y168509D01*
X84566Y168558D01*
X84636Y168604D01*
X84709Y168647D01*
X84783Y168687D01*
X84859Y168723D01*
X84937Y168756D01*
X85016Y168786D01*
X85096Y168813D01*
X85177Y168836D01*
X85259Y168855D01*
X85341Y168871D01*
X85425Y168884D01*
X85509Y168893D01*
X85593Y168898D01*
X85677Y168900D01*
X84245Y168286D02*
X80153Y164808D01*
X80153Y168900D01*
D15*
X-51054Y129223D02*
X-51054Y122111D01*
D12*
X-58134Y121428D02*
X-65500Y121428D01*
X-58134Y121428D02*
X-58134Y123474D01*
X-58136Y123563D01*
X-58142Y123652D01*
X-58152Y123741D01*
X-58165Y123829D01*
X-58182Y123917D01*
X-58204Y124004D01*
X-58229Y124089D01*
X-58257Y124174D01*
X-58290Y124257D01*
X-58326Y124339D01*
X-58365Y124419D01*
X-58408Y124497D01*
X-58454Y124573D01*
X-58504Y124648D01*
X-58557Y124720D01*
X-58613Y124789D01*
X-58672Y124856D01*
X-58733Y124921D01*
X-58798Y124982D01*
X-58865Y125041D01*
X-58934Y125097D01*
X-59006Y125150D01*
X-59081Y125200D01*
X-59157Y125246D01*
X-59235Y125289D01*
X-59315Y125328D01*
X-59397Y125364D01*
X-59480Y125397D01*
X-59565Y125425D01*
X-59650Y125450D01*
X-59737Y125472D01*
X-59825Y125489D01*
X-59913Y125502D01*
X-60002Y125512D01*
X-60091Y125518D01*
X-60180Y125520D01*
X-60269Y125518D01*
X-60358Y125512D01*
X-60447Y125502D01*
X-60535Y125489D01*
X-60623Y125472D01*
X-60710Y125450D01*
X-60795Y125425D01*
X-60880Y125397D01*
X-60963Y125364D01*
X-61045Y125328D01*
X-61125Y125289D01*
X-61203Y125246D01*
X-61279Y125200D01*
X-61354Y125150D01*
X-61426Y125097D01*
X-61495Y125041D01*
X-61562Y124982D01*
X-61627Y124921D01*
X-61688Y124856D01*
X-61747Y124789D01*
X-61803Y124720D01*
X-61856Y124648D01*
X-61906Y124573D01*
X-61952Y124497D01*
X-61995Y124419D01*
X-62034Y124339D01*
X-62070Y124257D01*
X-62103Y124174D01*
X-62131Y124089D01*
X-62156Y124004D01*
X-62178Y123917D01*
X-62195Y123829D01*
X-62208Y123741D01*
X-62218Y123652D01*
X-62224Y123563D01*
X-62226Y123474D01*
X-62227Y123474D02*
X-62227Y121428D01*
X-62227Y123883D02*
X-65500Y125520D01*
X-65500Y128692D02*
X-65500Y130738D01*
X-65498Y130827D01*
X-65492Y130916D01*
X-65482Y131005D01*
X-65469Y131093D01*
X-65452Y131181D01*
X-65430Y131268D01*
X-65405Y131353D01*
X-65377Y131438D01*
X-65344Y131521D01*
X-65308Y131603D01*
X-65269Y131683D01*
X-65226Y131761D01*
X-65180Y131837D01*
X-65130Y131912D01*
X-65077Y131984D01*
X-65021Y132053D01*
X-64962Y132120D01*
X-64901Y132185D01*
X-64836Y132246D01*
X-64769Y132305D01*
X-64700Y132361D01*
X-64628Y132414D01*
X-64553Y132464D01*
X-64477Y132510D01*
X-64399Y132553D01*
X-64319Y132592D01*
X-64237Y132628D01*
X-64154Y132661D01*
X-64069Y132689D01*
X-63984Y132714D01*
X-63897Y132736D01*
X-63809Y132753D01*
X-63721Y132766D01*
X-63632Y132776D01*
X-63543Y132782D01*
X-63454Y132784D01*
X-63365Y132782D01*
X-63276Y132776D01*
X-63187Y132766D01*
X-63099Y132753D01*
X-63011Y132736D01*
X-62924Y132714D01*
X-62839Y132689D01*
X-62754Y132661D01*
X-62671Y132628D01*
X-62589Y132592D01*
X-62509Y132553D01*
X-62431Y132510D01*
X-62355Y132464D01*
X-62280Y132414D01*
X-62208Y132361D01*
X-62139Y132305D01*
X-62072Y132246D01*
X-62007Y132185D01*
X-61946Y132120D01*
X-61887Y132053D01*
X-61831Y131984D01*
X-61778Y131912D01*
X-61728Y131837D01*
X-61682Y131761D01*
X-61639Y131683D01*
X-61600Y131603D01*
X-61564Y131521D01*
X-61531Y131438D01*
X-61503Y131353D01*
X-61478Y131268D01*
X-61456Y131181D01*
X-61439Y131093D01*
X-61426Y131005D01*
X-61416Y130916D01*
X-61410Y130827D01*
X-61408Y130738D01*
X-58134Y131147D02*
X-58134Y128692D01*
X-58134Y131147D02*
X-58136Y131226D01*
X-58142Y131305D01*
X-58151Y131384D01*
X-58164Y131462D01*
X-58182Y131539D01*
X-58202Y131615D01*
X-58227Y131690D01*
X-58255Y131764D01*
X-58286Y131837D01*
X-58322Y131908D01*
X-58360Y131977D01*
X-58402Y132044D01*
X-58447Y132109D01*
X-58495Y132172D01*
X-58546Y132233D01*
X-58600Y132290D01*
X-58656Y132346D01*
X-58715Y132398D01*
X-58777Y132448D01*
X-58841Y132494D01*
X-58907Y132538D01*
X-58975Y132578D01*
X-59045Y132614D01*
X-59117Y132648D01*
X-59191Y132678D01*
X-59265Y132704D01*
X-59341Y132727D01*
X-59418Y132745D01*
X-59495Y132761D01*
X-59574Y132772D01*
X-59652Y132780D01*
X-59731Y132784D01*
X-59811Y132784D01*
X-59890Y132780D01*
X-59968Y132772D01*
X-60047Y132761D01*
X-60124Y132745D01*
X-60201Y132727D01*
X-60277Y132704D01*
X-60351Y132678D01*
X-60425Y132648D01*
X-60497Y132614D01*
X-60567Y132578D01*
X-60635Y132538D01*
X-60701Y132494D01*
X-60765Y132448D01*
X-60827Y132398D01*
X-60886Y132346D01*
X-60942Y132290D01*
X-60996Y132233D01*
X-61047Y132172D01*
X-61095Y132109D01*
X-61140Y132044D01*
X-61182Y131977D01*
X-61220Y131908D01*
X-61256Y131837D01*
X-61287Y131764D01*
X-61315Y131690D01*
X-61340Y131615D01*
X-61360Y131539D01*
X-61378Y131462D01*
X-61391Y131384D01*
X-61400Y131305D01*
X-61406Y131226D01*
X-61408Y131147D01*
X-61408Y129510D01*
D10*
X31850Y52070D02*
X36830Y52070D01*
X-36830Y52070D02*
X-36830Y57050D01*
X-36830Y125730D02*
X-31850Y125730D01*
X36830Y125730D02*
X36830Y120750D01*
X36830Y57050D02*
X36830Y52070D01*
X-31850Y52070D02*
X-36830Y52070D01*
X-36830Y120750D02*
X-36830Y125730D01*
X31850Y125730D02*
X36830Y125730D01*
D16*
X30678Y122746D02*
X30680Y122842D01*
X30686Y122938D01*
X30696Y123034D01*
X30710Y123129D01*
X30727Y123224D01*
X30749Y123317D01*
X30774Y123410D01*
X30803Y123502D01*
X30836Y123592D01*
X30873Y123681D01*
X30913Y123768D01*
X30957Y123854D01*
X31004Y123938D01*
X31055Y124020D01*
X31108Y124099D01*
X31166Y124176D01*
X31226Y124251D01*
X31289Y124324D01*
X31355Y124394D01*
X31425Y124460D01*
X31496Y124525D01*
X31571Y124586D01*
X31647Y124644D01*
X31726Y124698D01*
X31808Y124750D01*
X31891Y124798D01*
X31976Y124842D01*
X32063Y124884D01*
X32152Y124921D01*
X32242Y124955D01*
X32333Y124985D01*
X32425Y125011D01*
X32519Y125034D01*
X32613Y125052D01*
X32708Y125067D01*
X32804Y125078D01*
X32900Y125085D01*
X32996Y125088D01*
X33092Y125087D01*
X33188Y125082D01*
X33284Y125073D01*
X33379Y125060D01*
X33474Y125044D01*
X33568Y125023D01*
X33661Y124999D01*
X33753Y124970D01*
X33844Y124938D01*
X33933Y124903D01*
X34021Y124863D01*
X34107Y124821D01*
X34191Y124774D01*
X34273Y124724D01*
X34353Y124671D01*
X34431Y124615D01*
X34507Y124555D01*
X34580Y124493D01*
X34650Y124427D01*
X34718Y124359D01*
X34783Y124288D01*
X34845Y124214D01*
X34903Y124138D01*
X34959Y124060D01*
X35011Y123979D01*
X35060Y123896D01*
X35106Y123811D01*
X35148Y123725D01*
X35186Y123637D01*
X35221Y123547D01*
X35252Y123456D01*
X35279Y123364D01*
X35303Y123270D01*
X35322Y123176D01*
X35338Y123081D01*
X35350Y122986D01*
X35358Y122890D01*
X35362Y122794D01*
X35362Y122698D01*
X35358Y122602D01*
X35350Y122506D01*
X35338Y122411D01*
X35322Y122316D01*
X35303Y122222D01*
X35279Y122128D01*
X35252Y122036D01*
X35221Y121945D01*
X35186Y121855D01*
X35148Y121767D01*
X35106Y121681D01*
X35060Y121596D01*
X35011Y121513D01*
X34959Y121432D01*
X34903Y121354D01*
X34845Y121278D01*
X34783Y121204D01*
X34718Y121133D01*
X34650Y121065D01*
X34580Y120999D01*
X34507Y120937D01*
X34431Y120877D01*
X34353Y120821D01*
X34273Y120768D01*
X34191Y120718D01*
X34107Y120671D01*
X34021Y120629D01*
X33933Y120589D01*
X33844Y120554D01*
X33753Y120522D01*
X33661Y120493D01*
X33568Y120469D01*
X33474Y120448D01*
X33379Y120432D01*
X33284Y120419D01*
X33188Y120410D01*
X33092Y120405D01*
X32996Y120404D01*
X32900Y120407D01*
X32804Y120414D01*
X32708Y120425D01*
X32613Y120440D01*
X32519Y120458D01*
X32425Y120481D01*
X32333Y120507D01*
X32242Y120537D01*
X32152Y120571D01*
X32063Y120608D01*
X31976Y120650D01*
X31891Y120694D01*
X31808Y120742D01*
X31726Y120794D01*
X31647Y120848D01*
X31571Y120906D01*
X31496Y120967D01*
X31425Y121032D01*
X31355Y121098D01*
X31289Y121168D01*
X31226Y121241D01*
X31166Y121316D01*
X31108Y121393D01*
X31055Y121472D01*
X31004Y121554D01*
X30957Y121638D01*
X30913Y121724D01*
X30873Y121811D01*
X30836Y121900D01*
X30803Y121990D01*
X30774Y122082D01*
X30749Y122175D01*
X30727Y122268D01*
X30710Y122363D01*
X30696Y122458D01*
X30686Y122554D01*
X30680Y122650D01*
X30678Y122746D01*
D12*
X74597Y75232D02*
X81963Y80142D01*
X81963Y75232D02*
X74597Y80142D01*
X80326Y82956D02*
X81963Y85002D01*
X74597Y85002D01*
X74597Y82956D02*
X74597Y87048D01*
D15*
X19177Y171196D02*
X12065Y171196D01*
D12*
X23815Y177991D02*
X23815Y185357D01*
X21769Y185357D01*
X21769Y185356D02*
X21680Y185354D01*
X21591Y185348D01*
X21502Y185338D01*
X21414Y185325D01*
X21326Y185308D01*
X21239Y185286D01*
X21154Y185261D01*
X21069Y185233D01*
X20986Y185200D01*
X20904Y185164D01*
X20824Y185125D01*
X20746Y185082D01*
X20670Y185036D01*
X20595Y184986D01*
X20523Y184933D01*
X20454Y184877D01*
X20387Y184818D01*
X20322Y184757D01*
X20261Y184692D01*
X20202Y184625D01*
X20146Y184556D01*
X20093Y184484D01*
X20043Y184409D01*
X19997Y184333D01*
X19954Y184255D01*
X19915Y184175D01*
X19879Y184093D01*
X19846Y184010D01*
X19818Y183925D01*
X19793Y183840D01*
X19771Y183753D01*
X19754Y183665D01*
X19741Y183577D01*
X19731Y183488D01*
X19725Y183399D01*
X19723Y183310D01*
X19725Y183221D01*
X19731Y183132D01*
X19741Y183043D01*
X19754Y182955D01*
X19771Y182867D01*
X19793Y182780D01*
X19818Y182695D01*
X19846Y182610D01*
X19879Y182527D01*
X19915Y182445D01*
X19954Y182365D01*
X19997Y182287D01*
X20043Y182211D01*
X20093Y182136D01*
X20146Y182064D01*
X20202Y181995D01*
X20261Y181928D01*
X20322Y181863D01*
X20387Y181802D01*
X20454Y181743D01*
X20523Y181687D01*
X20595Y181634D01*
X20670Y181584D01*
X20746Y181538D01*
X20824Y181495D01*
X20904Y181456D01*
X20986Y181420D01*
X21069Y181387D01*
X21154Y181359D01*
X21239Y181334D01*
X21326Y181312D01*
X21414Y181295D01*
X21502Y181282D01*
X21591Y181272D01*
X21680Y181266D01*
X21769Y181264D01*
X23815Y181264D01*
X21360Y181264D02*
X19723Y177991D01*
X16551Y183720D02*
X14505Y185357D01*
X14505Y177991D01*
X16551Y177991D02*
X12459Y177991D01*
X9235Y181674D02*
X9233Y181827D01*
X9227Y181980D01*
X9218Y182132D01*
X9204Y182285D01*
X9187Y182437D01*
X9166Y182588D01*
X9141Y182739D01*
X9112Y182889D01*
X9080Y183039D01*
X9043Y183187D01*
X9003Y183335D01*
X8960Y183482D01*
X8912Y183627D01*
X8861Y183771D01*
X8807Y183914D01*
X8748Y184056D01*
X8687Y184195D01*
X8621Y184334D01*
X8622Y184333D02*
X8596Y184403D01*
X8566Y184472D01*
X8534Y184540D01*
X8497Y184606D01*
X8458Y184670D01*
X8415Y184732D01*
X8370Y184791D01*
X8321Y184849D01*
X8270Y184903D01*
X8216Y184956D01*
X8159Y185005D01*
X8100Y185052D01*
X8039Y185095D01*
X7976Y185136D01*
X7911Y185173D01*
X7844Y185208D01*
X7775Y185238D01*
X7705Y185266D01*
X7634Y185289D01*
X7562Y185310D01*
X7489Y185326D01*
X7415Y185339D01*
X7340Y185349D01*
X7265Y185354D01*
X7190Y185356D01*
X7115Y185354D01*
X7040Y185349D01*
X6965Y185339D01*
X6891Y185326D01*
X6818Y185310D01*
X6746Y185289D01*
X6675Y185266D01*
X6605Y185238D01*
X6536Y185208D01*
X6469Y185173D01*
X6404Y185136D01*
X6341Y185095D01*
X6280Y185052D01*
X6221Y185005D01*
X6164Y184956D01*
X6110Y184903D01*
X6059Y184849D01*
X6011Y184791D01*
X5965Y184732D01*
X5922Y184670D01*
X5883Y184606D01*
X5847Y184540D01*
X5814Y184473D01*
X5784Y184403D01*
X5758Y184333D01*
X5758Y184334D02*
X5693Y184196D01*
X5631Y184056D01*
X5573Y183914D01*
X5518Y183771D01*
X5467Y183627D01*
X5419Y183482D01*
X5376Y183335D01*
X5336Y183188D01*
X5299Y183039D01*
X5267Y182889D01*
X5238Y182739D01*
X5213Y182588D01*
X5192Y182437D01*
X5175Y182285D01*
X5161Y182132D01*
X5152Y181980D01*
X5146Y181827D01*
X5144Y181674D01*
X9236Y181674D02*
X9234Y181521D01*
X9228Y181368D01*
X9219Y181215D01*
X9205Y181063D01*
X9188Y180911D01*
X9167Y180760D01*
X9142Y180609D01*
X9113Y180458D01*
X9081Y180309D01*
X9044Y180160D01*
X9004Y180013D01*
X8961Y179866D01*
X8913Y179721D01*
X8862Y179576D01*
X8807Y179434D01*
X8749Y179292D01*
X8687Y179152D01*
X8622Y179014D01*
X8596Y178944D01*
X8566Y178874D01*
X8534Y178807D01*
X8497Y178741D01*
X8458Y178677D01*
X8415Y178615D01*
X8369Y178556D01*
X8321Y178498D01*
X8270Y178444D01*
X8216Y178391D01*
X8159Y178342D01*
X8100Y178295D01*
X8039Y178252D01*
X7976Y178211D01*
X7911Y178174D01*
X7844Y178139D01*
X7775Y178109D01*
X7705Y178081D01*
X7634Y178058D01*
X7562Y178037D01*
X7489Y178021D01*
X7415Y178008D01*
X7340Y177998D01*
X7265Y177993D01*
X7190Y177991D01*
X5758Y179014D02*
X5693Y179152D01*
X5631Y179292D01*
X5573Y179434D01*
X5518Y179577D01*
X5467Y179721D01*
X5419Y179866D01*
X5376Y180013D01*
X5336Y180161D01*
X5299Y180309D01*
X5267Y180459D01*
X5238Y180609D01*
X5213Y180760D01*
X5192Y180911D01*
X5175Y181063D01*
X5161Y181216D01*
X5152Y181368D01*
X5146Y181521D01*
X5144Y181674D01*
X5758Y179014D02*
X5784Y178943D01*
X5814Y178874D01*
X5847Y178807D01*
X5883Y178741D01*
X5922Y178677D01*
X5965Y178615D01*
X6011Y178556D01*
X6059Y178498D01*
X6110Y178444D01*
X6164Y178391D01*
X6221Y178342D01*
X6280Y178295D01*
X6341Y178252D01*
X6404Y178211D01*
X6469Y178174D01*
X6536Y178139D01*
X6605Y178109D01*
X6675Y178081D01*
X6746Y178058D01*
X6818Y178037D01*
X6891Y178021D01*
X6965Y178008D01*
X7040Y177998D01*
X7115Y177993D01*
X7190Y177991D01*
X8827Y179627D02*
X5553Y183720D01*
D15*
X34925Y246761D02*
X34925Y254381D01*
D12*
X32131Y267130D02*
X32131Y268767D01*
X32131Y267130D02*
X32133Y267052D01*
X32138Y266974D01*
X32148Y266897D01*
X32161Y266820D01*
X32177Y266744D01*
X32197Y266669D01*
X32221Y266595D01*
X32248Y266522D01*
X32279Y266450D01*
X32313Y266380D01*
X32350Y266312D01*
X32391Y266245D01*
X32435Y266180D01*
X32481Y266118D01*
X32531Y266058D01*
X32583Y266000D01*
X32638Y265945D01*
X32696Y265893D01*
X32756Y265843D01*
X32818Y265797D01*
X32883Y265753D01*
X32950Y265712D01*
X33018Y265675D01*
X33088Y265641D01*
X33160Y265610D01*
X33233Y265583D01*
X33307Y265559D01*
X33382Y265539D01*
X33458Y265523D01*
X33535Y265510D01*
X33612Y265500D01*
X33690Y265495D01*
X33768Y265493D01*
X33768Y265494D02*
X37860Y265494D01*
X37860Y265493D02*
X37938Y265495D01*
X38016Y265500D01*
X38093Y265510D01*
X38170Y265523D01*
X38246Y265539D01*
X38321Y265559D01*
X38395Y265583D01*
X38468Y265610D01*
X38540Y265641D01*
X38610Y265675D01*
X38679Y265712D01*
X38745Y265753D01*
X38810Y265797D01*
X38872Y265843D01*
X38932Y265893D01*
X38990Y265945D01*
X39045Y266000D01*
X39097Y266058D01*
X39147Y266118D01*
X39193Y266180D01*
X39237Y266245D01*
X39278Y266312D01*
X39315Y266380D01*
X39349Y266450D01*
X39380Y266522D01*
X39407Y266595D01*
X39431Y266669D01*
X39451Y266744D01*
X39467Y266820D01*
X39480Y266897D01*
X39490Y266974D01*
X39495Y267052D01*
X39497Y267130D01*
X39497Y268767D01*
X37860Y271613D02*
X39497Y273659D01*
X32131Y273659D01*
X32131Y271613D02*
X32131Y275705D01*
D15*
X50800Y254381D02*
X50800Y246761D01*
D12*
X46419Y267130D02*
X46419Y268767D01*
X46418Y267130D02*
X46420Y267052D01*
X46425Y266974D01*
X46435Y266897D01*
X46448Y266820D01*
X46464Y266744D01*
X46484Y266669D01*
X46508Y266595D01*
X46535Y266522D01*
X46566Y266450D01*
X46600Y266380D01*
X46637Y266312D01*
X46678Y266245D01*
X46722Y266180D01*
X46768Y266118D01*
X46818Y266058D01*
X46870Y266000D01*
X46925Y265945D01*
X46983Y265893D01*
X47043Y265843D01*
X47105Y265797D01*
X47170Y265753D01*
X47237Y265712D01*
X47305Y265675D01*
X47375Y265641D01*
X47447Y265610D01*
X47520Y265583D01*
X47594Y265559D01*
X47669Y265539D01*
X47745Y265523D01*
X47822Y265510D01*
X47899Y265500D01*
X47977Y265495D01*
X48055Y265493D01*
X48055Y265494D02*
X52148Y265494D01*
X52148Y265493D02*
X52226Y265495D01*
X52304Y265500D01*
X52381Y265510D01*
X52458Y265523D01*
X52534Y265539D01*
X52609Y265559D01*
X52683Y265583D01*
X52756Y265610D01*
X52828Y265641D01*
X52898Y265675D01*
X52967Y265712D01*
X53033Y265753D01*
X53098Y265797D01*
X53160Y265843D01*
X53220Y265893D01*
X53278Y265945D01*
X53333Y266000D01*
X53385Y266058D01*
X53435Y266118D01*
X53481Y266180D01*
X53525Y266245D01*
X53566Y266312D01*
X53603Y266380D01*
X53637Y266450D01*
X53668Y266522D01*
X53695Y266595D01*
X53719Y266669D01*
X53739Y266744D01*
X53755Y266820D01*
X53768Y266897D01*
X53778Y266974D01*
X53783Y267052D01*
X53785Y267130D01*
X53785Y268767D01*
X49692Y273249D02*
X49692Y275705D01*
X49692Y273249D02*
X49694Y273171D01*
X49699Y273093D01*
X49709Y273016D01*
X49722Y272939D01*
X49738Y272863D01*
X49758Y272788D01*
X49782Y272714D01*
X49809Y272641D01*
X49840Y272569D01*
X49874Y272499D01*
X49911Y272430D01*
X49952Y272364D01*
X49996Y272299D01*
X50042Y272237D01*
X50092Y272177D01*
X50144Y272119D01*
X50199Y272064D01*
X50257Y272012D01*
X50317Y271962D01*
X50379Y271916D01*
X50444Y271872D01*
X50511Y271831D01*
X50579Y271794D01*
X50649Y271760D01*
X50721Y271729D01*
X50794Y271702D01*
X50868Y271678D01*
X50943Y271658D01*
X51019Y271642D01*
X51096Y271629D01*
X51173Y271619D01*
X51251Y271614D01*
X51329Y271612D01*
X51329Y271613D02*
X51738Y271613D01*
X51827Y271615D01*
X51916Y271621D01*
X52005Y271631D01*
X52093Y271644D01*
X52181Y271661D01*
X52268Y271683D01*
X52353Y271708D01*
X52438Y271736D01*
X52521Y271769D01*
X52603Y271805D01*
X52683Y271844D01*
X52761Y271887D01*
X52837Y271933D01*
X52912Y271983D01*
X52984Y272036D01*
X53053Y272092D01*
X53120Y272151D01*
X53185Y272212D01*
X53246Y272277D01*
X53305Y272344D01*
X53361Y272413D01*
X53414Y272485D01*
X53464Y272560D01*
X53510Y272636D01*
X53553Y272714D01*
X53592Y272794D01*
X53628Y272876D01*
X53661Y272959D01*
X53689Y273044D01*
X53714Y273129D01*
X53736Y273216D01*
X53753Y273304D01*
X53766Y273392D01*
X53776Y273481D01*
X53782Y273570D01*
X53784Y273659D01*
X53782Y273748D01*
X53776Y273837D01*
X53766Y273926D01*
X53753Y274014D01*
X53736Y274102D01*
X53714Y274189D01*
X53689Y274274D01*
X53661Y274359D01*
X53628Y274442D01*
X53592Y274524D01*
X53553Y274604D01*
X53510Y274682D01*
X53464Y274758D01*
X53414Y274833D01*
X53361Y274905D01*
X53305Y274974D01*
X53246Y275041D01*
X53185Y275106D01*
X53120Y275167D01*
X53053Y275226D01*
X52984Y275282D01*
X52912Y275335D01*
X52837Y275385D01*
X52761Y275431D01*
X52683Y275474D01*
X52603Y275513D01*
X52521Y275549D01*
X52438Y275582D01*
X52353Y275610D01*
X52268Y275635D01*
X52181Y275657D01*
X52093Y275674D01*
X52005Y275687D01*
X51916Y275697D01*
X51827Y275703D01*
X51738Y275705D01*
X49692Y275705D01*
X49580Y275703D01*
X49469Y275697D01*
X49357Y275688D01*
X49246Y275675D01*
X49136Y275657D01*
X49026Y275637D01*
X48917Y275612D01*
X48809Y275584D01*
X48702Y275552D01*
X48596Y275516D01*
X48491Y275477D01*
X48388Y275434D01*
X48286Y275388D01*
X48186Y275338D01*
X48087Y275285D01*
X47991Y275228D01*
X47896Y275169D01*
X47804Y275106D01*
X47714Y275040D01*
X47626Y274971D01*
X47540Y274899D01*
X47457Y274824D01*
X47377Y274746D01*
X47299Y274666D01*
X47224Y274583D01*
X47152Y274497D01*
X47083Y274409D01*
X47017Y274319D01*
X46954Y274227D01*
X46895Y274132D01*
X46838Y274036D01*
X46785Y273937D01*
X46735Y273837D01*
X46689Y273735D01*
X46646Y273632D01*
X46607Y273527D01*
X46571Y273421D01*
X46539Y273314D01*
X46511Y273206D01*
X46486Y273097D01*
X46466Y272987D01*
X46448Y272877D01*
X46435Y272766D01*
X46426Y272654D01*
X46420Y272543D01*
X46418Y272431D01*
D15*
X-38100Y254381D02*
X-38100Y246761D01*
D12*
X-69469Y246542D02*
X-69469Y244905D01*
X-69467Y244827D01*
X-69462Y244749D01*
X-69452Y244672D01*
X-69439Y244595D01*
X-69423Y244519D01*
X-69403Y244444D01*
X-69379Y244370D01*
X-69352Y244297D01*
X-69321Y244225D01*
X-69287Y244155D01*
X-69250Y244087D01*
X-69209Y244020D01*
X-69165Y243955D01*
X-69119Y243893D01*
X-69069Y243833D01*
X-69017Y243775D01*
X-68962Y243720D01*
X-68904Y243668D01*
X-68844Y243618D01*
X-68782Y243572D01*
X-68717Y243528D01*
X-68651Y243487D01*
X-68582Y243450D01*
X-68512Y243416D01*
X-68440Y243385D01*
X-68367Y243358D01*
X-68293Y243334D01*
X-68218Y243314D01*
X-68142Y243298D01*
X-68065Y243285D01*
X-67988Y243275D01*
X-67910Y243270D01*
X-67832Y243268D01*
X-67832Y243269D02*
X-63740Y243269D01*
X-63740Y243268D02*
X-63660Y243270D01*
X-63580Y243276D01*
X-63500Y243286D01*
X-63421Y243299D01*
X-63342Y243317D01*
X-63265Y243338D01*
X-63189Y243364D01*
X-63114Y243393D01*
X-63040Y243425D01*
X-62968Y243461D01*
X-62898Y243501D01*
X-62831Y243544D01*
X-62765Y243590D01*
X-62702Y243640D01*
X-62641Y243692D01*
X-62582Y243747D01*
X-62527Y243806D01*
X-62475Y243866D01*
X-62425Y243930D01*
X-62379Y243995D01*
X-62336Y244063D01*
X-62296Y244133D01*
X-62260Y244205D01*
X-62228Y244279D01*
X-62199Y244353D01*
X-62174Y244430D01*
X-62152Y244507D01*
X-62134Y244586D01*
X-62121Y244665D01*
X-62111Y244744D01*
X-62105Y244825D01*
X-62103Y244905D01*
X-62103Y246542D01*
X-63740Y249388D02*
X-62103Y251434D01*
X-69469Y251434D01*
X-69469Y249388D02*
X-69469Y253480D01*
X-67832Y256703D02*
X-62103Y258340D01*
X-67832Y256703D02*
X-67832Y260795D01*
X-66195Y259567D02*
X-69469Y259567D01*
D15*
X-53975Y254381D02*
X-53975Y246761D01*
D12*
X-40894Y265543D02*
X-40894Y267180D01*
X-40894Y265543D02*
X-40892Y265465D01*
X-40887Y265387D01*
X-40877Y265310D01*
X-40864Y265233D01*
X-40848Y265157D01*
X-40828Y265082D01*
X-40804Y265008D01*
X-40777Y264935D01*
X-40746Y264863D01*
X-40712Y264793D01*
X-40675Y264725D01*
X-40634Y264658D01*
X-40590Y264593D01*
X-40544Y264531D01*
X-40494Y264471D01*
X-40442Y264413D01*
X-40387Y264358D01*
X-40329Y264306D01*
X-40269Y264256D01*
X-40207Y264210D01*
X-40142Y264166D01*
X-40076Y264125D01*
X-40007Y264088D01*
X-39937Y264054D01*
X-39865Y264023D01*
X-39792Y263996D01*
X-39718Y263972D01*
X-39643Y263952D01*
X-39567Y263936D01*
X-39490Y263923D01*
X-39413Y263913D01*
X-39335Y263908D01*
X-39257Y263906D01*
X-35165Y263906D01*
X-35085Y263908D01*
X-35005Y263914D01*
X-34925Y263924D01*
X-34846Y263937D01*
X-34767Y263955D01*
X-34690Y263976D01*
X-34614Y264002D01*
X-34539Y264031D01*
X-34465Y264063D01*
X-34393Y264099D01*
X-34323Y264139D01*
X-34256Y264182D01*
X-34190Y264228D01*
X-34127Y264278D01*
X-34066Y264330D01*
X-34007Y264385D01*
X-33952Y264444D01*
X-33900Y264504D01*
X-33850Y264568D01*
X-33804Y264633D01*
X-33761Y264701D01*
X-33721Y264771D01*
X-33685Y264843D01*
X-33653Y264917D01*
X-33624Y264991D01*
X-33599Y265068D01*
X-33577Y265145D01*
X-33559Y265224D01*
X-33546Y265303D01*
X-33536Y265382D01*
X-33530Y265463D01*
X-33528Y265543D01*
X-33528Y267180D01*
X-35165Y270025D02*
X-33528Y272071D01*
X-40894Y272071D01*
X-40894Y270025D02*
X-40894Y274117D01*
X-40894Y277340D02*
X-40894Y279796D01*
X-40892Y279874D01*
X-40887Y279952D01*
X-40877Y280029D01*
X-40864Y280106D01*
X-40848Y280182D01*
X-40828Y280257D01*
X-40804Y280331D01*
X-40777Y280404D01*
X-40746Y280476D01*
X-40712Y280546D01*
X-40675Y280615D01*
X-40634Y280681D01*
X-40590Y280746D01*
X-40544Y280808D01*
X-40494Y280868D01*
X-40442Y280926D01*
X-40387Y280981D01*
X-40329Y281033D01*
X-40269Y281083D01*
X-40207Y281129D01*
X-40142Y281173D01*
X-40076Y281214D01*
X-40007Y281251D01*
X-39937Y281285D01*
X-39865Y281316D01*
X-39792Y281343D01*
X-39718Y281367D01*
X-39643Y281387D01*
X-39567Y281403D01*
X-39490Y281416D01*
X-39413Y281426D01*
X-39335Y281431D01*
X-39257Y281433D01*
X-38439Y281433D01*
X-38359Y281431D01*
X-38279Y281425D01*
X-38199Y281415D01*
X-38120Y281402D01*
X-38041Y281384D01*
X-37964Y281363D01*
X-37888Y281337D01*
X-37813Y281308D01*
X-37739Y281276D01*
X-37667Y281240D01*
X-37597Y281200D01*
X-37530Y281157D01*
X-37464Y281111D01*
X-37401Y281061D01*
X-37340Y281009D01*
X-37281Y280954D01*
X-37226Y280895D01*
X-37174Y280835D01*
X-37124Y280771D01*
X-37078Y280705D01*
X-37035Y280638D01*
X-36995Y280568D01*
X-36959Y280496D01*
X-36927Y280422D01*
X-36898Y280348D01*
X-36872Y280271D01*
X-36851Y280194D01*
X-36833Y280115D01*
X-36820Y280036D01*
X-36810Y279956D01*
X-36804Y279876D01*
X-36802Y279796D01*
X-36802Y277340D01*
X-33528Y277340D01*
X-33528Y281433D01*
D14*
X56967Y232042D02*
X56923Y232040D01*
X56880Y232034D01*
X56838Y232025D01*
X56796Y232012D01*
X56756Y231995D01*
X56717Y231975D01*
X56680Y231952D01*
X56646Y231925D01*
X56613Y231896D01*
X56584Y231863D01*
X56557Y231829D01*
X56534Y231792D01*
X56514Y231753D01*
X56497Y231713D01*
X56484Y231671D01*
X56475Y231629D01*
X56469Y231586D01*
X56467Y231542D01*
X56469Y231498D01*
X56475Y231455D01*
X56484Y231413D01*
X56497Y231371D01*
X56514Y231331D01*
X56534Y231292D01*
X56557Y231255D01*
X56584Y231221D01*
X56613Y231188D01*
X56646Y231159D01*
X56680Y231132D01*
X56717Y231109D01*
X56756Y231089D01*
X56796Y231072D01*
X56838Y231059D01*
X56880Y231050D01*
X56923Y231044D01*
X56967Y231042D01*
X57011Y231044D01*
X57054Y231050D01*
X57096Y231059D01*
X57138Y231072D01*
X57178Y231089D01*
X57217Y231109D01*
X57254Y231132D01*
X57288Y231159D01*
X57321Y231188D01*
X57350Y231221D01*
X57377Y231255D01*
X57400Y231292D01*
X57420Y231331D01*
X57437Y231371D01*
X57450Y231413D01*
X57459Y231455D01*
X57465Y231498D01*
X57467Y231542D01*
X57465Y231586D01*
X57459Y231629D01*
X57450Y231671D01*
X57437Y231713D01*
X57420Y231753D01*
X57400Y231792D01*
X57377Y231829D01*
X57350Y231863D01*
X57321Y231896D01*
X57288Y231925D01*
X57254Y231952D01*
X57217Y231975D01*
X57178Y231995D01*
X57138Y232012D01*
X57096Y232025D01*
X57054Y232034D01*
X57011Y232040D01*
X56967Y232042D01*
D17*
X30863Y233400D02*
X25363Y233400D01*
X25363Y229900D01*
X54863Y233400D02*
X60363Y233400D01*
X60363Y229900D01*
X60363Y201900D02*
X60363Y198400D01*
X54863Y198400D01*
X30863Y198400D02*
X25363Y198400D01*
X25363Y201900D01*
D12*
X17971Y211662D02*
X12651Y211662D01*
X12562Y211664D01*
X12473Y211670D01*
X12384Y211680D01*
X12296Y211693D01*
X12208Y211710D01*
X12121Y211732D01*
X12036Y211757D01*
X11951Y211785D01*
X11868Y211818D01*
X11786Y211854D01*
X11706Y211893D01*
X11628Y211936D01*
X11552Y211982D01*
X11477Y212032D01*
X11405Y212085D01*
X11336Y212141D01*
X11269Y212200D01*
X11204Y212261D01*
X11143Y212326D01*
X11084Y212393D01*
X11028Y212462D01*
X10975Y212534D01*
X10925Y212609D01*
X10879Y212685D01*
X10836Y212763D01*
X10797Y212843D01*
X10761Y212925D01*
X10728Y213008D01*
X10700Y213093D01*
X10675Y213178D01*
X10653Y213265D01*
X10636Y213353D01*
X10623Y213441D01*
X10613Y213530D01*
X10607Y213619D01*
X10605Y213708D01*
X10607Y213797D01*
X10613Y213886D01*
X10623Y213975D01*
X10636Y214063D01*
X10653Y214151D01*
X10675Y214238D01*
X10700Y214323D01*
X10728Y214408D01*
X10761Y214491D01*
X10797Y214573D01*
X10836Y214653D01*
X10879Y214731D01*
X10925Y214807D01*
X10975Y214882D01*
X11028Y214954D01*
X11084Y215023D01*
X11143Y215090D01*
X11204Y215155D01*
X11269Y215216D01*
X11336Y215275D01*
X11405Y215331D01*
X11477Y215384D01*
X11552Y215434D01*
X11628Y215480D01*
X11706Y215523D01*
X11786Y215562D01*
X11868Y215598D01*
X11951Y215631D01*
X12036Y215659D01*
X12121Y215684D01*
X12208Y215706D01*
X12296Y215723D01*
X12384Y215736D01*
X12473Y215746D01*
X12562Y215752D01*
X12651Y215754D01*
X17971Y215754D01*
X10605Y219221D02*
X10605Y221676D01*
X10604Y221676D02*
X10606Y221756D01*
X10612Y221836D01*
X10622Y221916D01*
X10635Y221995D01*
X10653Y222074D01*
X10674Y222151D01*
X10700Y222227D01*
X10729Y222302D01*
X10761Y222376D01*
X10797Y222448D01*
X10837Y222518D01*
X10880Y222585D01*
X10926Y222651D01*
X10976Y222714D01*
X11028Y222775D01*
X11083Y222834D01*
X11142Y222889D01*
X11202Y222941D01*
X11266Y222991D01*
X11332Y223037D01*
X11399Y223080D01*
X11469Y223120D01*
X11541Y223156D01*
X11615Y223188D01*
X11689Y223217D01*
X11766Y223243D01*
X11843Y223264D01*
X11922Y223282D01*
X12001Y223295D01*
X12081Y223305D01*
X12161Y223311D01*
X12241Y223313D01*
X13060Y223313D01*
X13138Y223311D01*
X13216Y223306D01*
X13293Y223296D01*
X13370Y223283D01*
X13446Y223267D01*
X13521Y223247D01*
X13595Y223223D01*
X13668Y223196D01*
X13740Y223165D01*
X13810Y223131D01*
X13879Y223094D01*
X13945Y223053D01*
X14010Y223009D01*
X14072Y222963D01*
X14132Y222913D01*
X14190Y222861D01*
X14245Y222806D01*
X14297Y222748D01*
X14347Y222688D01*
X14393Y222626D01*
X14437Y222561D01*
X14478Y222495D01*
X14515Y222426D01*
X14549Y222356D01*
X14580Y222284D01*
X14607Y222211D01*
X14631Y222137D01*
X14651Y222062D01*
X14667Y221986D01*
X14680Y221909D01*
X14690Y221832D01*
X14695Y221754D01*
X14697Y221676D01*
X14697Y219221D01*
X17971Y219221D01*
X17971Y223313D01*
D14*
X-31934Y231042D02*
X-31978Y231044D01*
X-32021Y231050D01*
X-32063Y231059D01*
X-32105Y231072D01*
X-32145Y231089D01*
X-32184Y231109D01*
X-32221Y231132D01*
X-32255Y231159D01*
X-32288Y231188D01*
X-32317Y231221D01*
X-32344Y231255D01*
X-32367Y231292D01*
X-32387Y231331D01*
X-32404Y231371D01*
X-32417Y231413D01*
X-32426Y231455D01*
X-32432Y231498D01*
X-32434Y231542D01*
X-32432Y231586D01*
X-32426Y231629D01*
X-32417Y231671D01*
X-32404Y231713D01*
X-32387Y231753D01*
X-32367Y231792D01*
X-32344Y231829D01*
X-32317Y231863D01*
X-32288Y231896D01*
X-32255Y231925D01*
X-32221Y231952D01*
X-32184Y231975D01*
X-32145Y231995D01*
X-32105Y232012D01*
X-32063Y232025D01*
X-32021Y232034D01*
X-31978Y232040D01*
X-31934Y232042D01*
X-31890Y232040D01*
X-31847Y232034D01*
X-31805Y232025D01*
X-31763Y232012D01*
X-31723Y231995D01*
X-31684Y231975D01*
X-31647Y231952D01*
X-31613Y231925D01*
X-31580Y231896D01*
X-31551Y231863D01*
X-31524Y231829D01*
X-31501Y231792D01*
X-31481Y231753D01*
X-31464Y231713D01*
X-31451Y231671D01*
X-31442Y231629D01*
X-31436Y231586D01*
X-31434Y231542D01*
X-31436Y231498D01*
X-31442Y231455D01*
X-31451Y231413D01*
X-31464Y231371D01*
X-31481Y231331D01*
X-31501Y231292D01*
X-31524Y231255D01*
X-31551Y231221D01*
X-31580Y231188D01*
X-31613Y231159D01*
X-31647Y231132D01*
X-31684Y231109D01*
X-31723Y231089D01*
X-31763Y231072D01*
X-31805Y231059D01*
X-31847Y231050D01*
X-31890Y231044D01*
X-31934Y231042D01*
D17*
X-58038Y233400D02*
X-63538Y233400D01*
X-63538Y229900D01*
X-34038Y233400D02*
X-28538Y233400D01*
X-28538Y229900D01*
X-28538Y201900D02*
X-28538Y198400D01*
X-34038Y198400D01*
X-58038Y198400D02*
X-63538Y198400D01*
X-63538Y201900D01*
D12*
X-72517Y210074D02*
X-77837Y210074D01*
X-77926Y210076D01*
X-78015Y210082D01*
X-78104Y210092D01*
X-78192Y210105D01*
X-78280Y210122D01*
X-78367Y210144D01*
X-78452Y210169D01*
X-78537Y210197D01*
X-78620Y210230D01*
X-78702Y210266D01*
X-78782Y210305D01*
X-78860Y210348D01*
X-78936Y210394D01*
X-79011Y210444D01*
X-79083Y210497D01*
X-79152Y210553D01*
X-79219Y210612D01*
X-79284Y210673D01*
X-79345Y210738D01*
X-79404Y210805D01*
X-79460Y210874D01*
X-79513Y210946D01*
X-79563Y211021D01*
X-79609Y211097D01*
X-79652Y211175D01*
X-79691Y211255D01*
X-79727Y211337D01*
X-79760Y211420D01*
X-79788Y211505D01*
X-79813Y211590D01*
X-79835Y211677D01*
X-79852Y211765D01*
X-79865Y211853D01*
X-79875Y211942D01*
X-79881Y212031D01*
X-79883Y212120D01*
X-79881Y212209D01*
X-79875Y212298D01*
X-79865Y212387D01*
X-79852Y212475D01*
X-79835Y212563D01*
X-79813Y212650D01*
X-79788Y212735D01*
X-79760Y212820D01*
X-79727Y212903D01*
X-79691Y212985D01*
X-79652Y213065D01*
X-79609Y213143D01*
X-79563Y213219D01*
X-79513Y213294D01*
X-79460Y213366D01*
X-79404Y213435D01*
X-79345Y213502D01*
X-79284Y213567D01*
X-79219Y213628D01*
X-79152Y213687D01*
X-79083Y213743D01*
X-79011Y213796D01*
X-78936Y213846D01*
X-78860Y213892D01*
X-78782Y213935D01*
X-78702Y213974D01*
X-78620Y214010D01*
X-78537Y214043D01*
X-78452Y214071D01*
X-78367Y214096D01*
X-78280Y214118D01*
X-78192Y214135D01*
X-78104Y214148D01*
X-78015Y214158D01*
X-77926Y214164D01*
X-77837Y214166D01*
X-77837Y214167D02*
X-72517Y214167D01*
X-75791Y217633D02*
X-75791Y220089D01*
X-75793Y220167D01*
X-75798Y220245D01*
X-75808Y220322D01*
X-75821Y220399D01*
X-75837Y220475D01*
X-75857Y220550D01*
X-75881Y220624D01*
X-75908Y220697D01*
X-75939Y220769D01*
X-75973Y220839D01*
X-76010Y220908D01*
X-76051Y220974D01*
X-76095Y221039D01*
X-76141Y221101D01*
X-76191Y221161D01*
X-76243Y221219D01*
X-76298Y221274D01*
X-76356Y221326D01*
X-76416Y221376D01*
X-76478Y221422D01*
X-76543Y221466D01*
X-76610Y221507D01*
X-76678Y221544D01*
X-76748Y221578D01*
X-76820Y221609D01*
X-76893Y221636D01*
X-76967Y221660D01*
X-77042Y221680D01*
X-77118Y221696D01*
X-77195Y221709D01*
X-77272Y221719D01*
X-77350Y221724D01*
X-77428Y221726D01*
X-77837Y221726D01*
X-77926Y221724D01*
X-78015Y221718D01*
X-78104Y221708D01*
X-78192Y221695D01*
X-78280Y221678D01*
X-78367Y221656D01*
X-78452Y221631D01*
X-78537Y221603D01*
X-78620Y221570D01*
X-78702Y221534D01*
X-78782Y221495D01*
X-78860Y221452D01*
X-78936Y221406D01*
X-79011Y221356D01*
X-79083Y221303D01*
X-79152Y221247D01*
X-79219Y221188D01*
X-79284Y221127D01*
X-79345Y221062D01*
X-79404Y220995D01*
X-79460Y220926D01*
X-79513Y220854D01*
X-79563Y220779D01*
X-79609Y220703D01*
X-79652Y220625D01*
X-79691Y220545D01*
X-79727Y220463D01*
X-79760Y220380D01*
X-79788Y220295D01*
X-79813Y220210D01*
X-79835Y220123D01*
X-79852Y220035D01*
X-79865Y219947D01*
X-79875Y219858D01*
X-79881Y219769D01*
X-79883Y219680D01*
X-79881Y219591D01*
X-79875Y219502D01*
X-79865Y219413D01*
X-79852Y219325D01*
X-79835Y219237D01*
X-79813Y219150D01*
X-79788Y219065D01*
X-79760Y218980D01*
X-79727Y218897D01*
X-79691Y218815D01*
X-79652Y218735D01*
X-79609Y218657D01*
X-79563Y218581D01*
X-79513Y218506D01*
X-79460Y218434D01*
X-79404Y218365D01*
X-79345Y218298D01*
X-79284Y218233D01*
X-79219Y218172D01*
X-79152Y218113D01*
X-79083Y218057D01*
X-79011Y218004D01*
X-78936Y217954D01*
X-78860Y217908D01*
X-78782Y217865D01*
X-78702Y217826D01*
X-78620Y217790D01*
X-78537Y217757D01*
X-78452Y217729D01*
X-78367Y217704D01*
X-78280Y217682D01*
X-78192Y217665D01*
X-78104Y217652D01*
X-78015Y217642D01*
X-77926Y217636D01*
X-77837Y217634D01*
X-77837Y217633D02*
X-75791Y217633D01*
X-75677Y217635D01*
X-75563Y217641D01*
X-75449Y217651D01*
X-75335Y217665D01*
X-75222Y217683D01*
X-75110Y217705D01*
X-74999Y217730D01*
X-74889Y217760D01*
X-74779Y217793D01*
X-74671Y217830D01*
X-74565Y217871D01*
X-74459Y217916D01*
X-74356Y217964D01*
X-74254Y218016D01*
X-74154Y218072D01*
X-74056Y218130D01*
X-73960Y218193D01*
X-73867Y218258D01*
X-73775Y218327D01*
X-73687Y218399D01*
X-73600Y218474D01*
X-73517Y218552D01*
X-73436Y218633D01*
X-73358Y218716D01*
X-73283Y218802D01*
X-73211Y218891D01*
X-73142Y218983D01*
X-73077Y219076D01*
X-73015Y219172D01*
X-72956Y219270D01*
X-72900Y219370D01*
X-72848Y219472D01*
X-72800Y219575D01*
X-72755Y219680D01*
X-72714Y219787D01*
X-72677Y219895D01*
X-72644Y220005D01*
X-72614Y220115D01*
X-72589Y220226D01*
X-72567Y220338D01*
X-72549Y220451D01*
X-72535Y220565D01*
X-72525Y220679D01*
X-72519Y220793D01*
X-72517Y220907D01*
D18*
X-81113Y99238D02*
X-81113Y81738D01*
X-68113Y81738D02*
X-68113Y99238D01*
D12*
X-86081Y84843D02*
X-93447Y84843D01*
X-86081Y84843D02*
X-86081Y86889D01*
X-86083Y86978D01*
X-86089Y87067D01*
X-86099Y87156D01*
X-86112Y87244D01*
X-86129Y87332D01*
X-86151Y87419D01*
X-86176Y87504D01*
X-86204Y87589D01*
X-86237Y87672D01*
X-86273Y87754D01*
X-86312Y87834D01*
X-86355Y87912D01*
X-86401Y87988D01*
X-86451Y88063D01*
X-86504Y88135D01*
X-86560Y88204D01*
X-86619Y88271D01*
X-86680Y88336D01*
X-86745Y88397D01*
X-86812Y88456D01*
X-86881Y88512D01*
X-86953Y88565D01*
X-87028Y88615D01*
X-87104Y88661D01*
X-87182Y88704D01*
X-87262Y88743D01*
X-87344Y88779D01*
X-87427Y88812D01*
X-87512Y88840D01*
X-87597Y88865D01*
X-87684Y88887D01*
X-87772Y88904D01*
X-87860Y88917D01*
X-87949Y88927D01*
X-88038Y88933D01*
X-88127Y88935D01*
X-91401Y88935D01*
X-91490Y88933D01*
X-91579Y88927D01*
X-91668Y88917D01*
X-91756Y88904D01*
X-91844Y88887D01*
X-91931Y88865D01*
X-92016Y88840D01*
X-92101Y88812D01*
X-92184Y88779D01*
X-92266Y88743D01*
X-92346Y88704D01*
X-92424Y88661D01*
X-92500Y88615D01*
X-92575Y88565D01*
X-92647Y88512D01*
X-92716Y88456D01*
X-92783Y88397D01*
X-92848Y88336D01*
X-92909Y88271D01*
X-92968Y88204D01*
X-93024Y88135D01*
X-93077Y88063D01*
X-93127Y87988D01*
X-93173Y87912D01*
X-93216Y87834D01*
X-93255Y87754D01*
X-93291Y87672D01*
X-93324Y87589D01*
X-93352Y87504D01*
X-93377Y87419D01*
X-93399Y87332D01*
X-93416Y87244D01*
X-93429Y87156D01*
X-93439Y87067D01*
X-93445Y86978D01*
X-93447Y86889D01*
X-93447Y84843D01*
X-86081Y94653D02*
X-86083Y94738D01*
X-86089Y94823D01*
X-86099Y94907D01*
X-86112Y94991D01*
X-86130Y95075D01*
X-86151Y95157D01*
X-86176Y95238D01*
X-86205Y95318D01*
X-86238Y95397D01*
X-86274Y95474D01*
X-86314Y95549D01*
X-86357Y95623D01*
X-86403Y95694D01*
X-86453Y95763D01*
X-86506Y95830D01*
X-86562Y95894D01*
X-86621Y95955D01*
X-86682Y96014D01*
X-86746Y96070D01*
X-86813Y96123D01*
X-86882Y96173D01*
X-86953Y96219D01*
X-87027Y96262D01*
X-87102Y96302D01*
X-87179Y96338D01*
X-87258Y96371D01*
X-87338Y96400D01*
X-87419Y96425D01*
X-87501Y96446D01*
X-87585Y96464D01*
X-87669Y96477D01*
X-87753Y96487D01*
X-87838Y96493D01*
X-87923Y96495D01*
X-86081Y94653D02*
X-86083Y94557D01*
X-86089Y94461D01*
X-86099Y94366D01*
X-86112Y94271D01*
X-86130Y94176D01*
X-86151Y94083D01*
X-86176Y93990D01*
X-86205Y93899D01*
X-86237Y93808D01*
X-86273Y93719D01*
X-86313Y93632D01*
X-86356Y93546D01*
X-86402Y93462D01*
X-86452Y93380D01*
X-86506Y93300D01*
X-86562Y93223D01*
X-86622Y93148D01*
X-86684Y93075D01*
X-86750Y93005D01*
X-86818Y92937D01*
X-86889Y92872D01*
X-86962Y92811D01*
X-87038Y92752D01*
X-87117Y92696D01*
X-87197Y92644D01*
X-87280Y92595D01*
X-87364Y92549D01*
X-87450Y92507D01*
X-87538Y92469D01*
X-87627Y92434D01*
X-87718Y92402D01*
X-89355Y95880D02*
X-89296Y95940D01*
X-89234Y95997D01*
X-89170Y96052D01*
X-89103Y96103D01*
X-89034Y96152D01*
X-88964Y96198D01*
X-88891Y96241D01*
X-88817Y96281D01*
X-88741Y96317D01*
X-88663Y96350D01*
X-88584Y96380D01*
X-88504Y96407D01*
X-88423Y96430D01*
X-88341Y96449D01*
X-88259Y96465D01*
X-88175Y96478D01*
X-88091Y96487D01*
X-88007Y96492D01*
X-87923Y96494D01*
X-89355Y95880D02*
X-93447Y92402D01*
X-93447Y96494D01*
M02*
