G04 EAGLE Gerber RS-274X export*
G75*
%MOMM*%
%FSLAX34Y34*%
%LPD*%
%INSilkscreen Top*%
%IPPOS*%
%AMOC8*
5,1,8,0,0,1.08239X$1,22.5*%
G01*
%ADD10R,0.014731X0.014731*%
%ADD11R,0.147319X0.014731*%
%ADD12R,0.265175X0.014731*%
%ADD13R,0.383031X0.014731*%
%ADD14R,0.515619X0.014731*%
%ADD15R,0.633475X0.014731*%
%ADD16R,0.751331X0.014731*%
%ADD17R,0.883919X0.014731*%
%ADD18R,1.001775X0.014731*%
%ADD19R,1.119631X0.014731*%
%ADD20R,1.134363X0.014731*%
%ADD21R,1.149094X0.014731*%
%ADD22R,1.163825X0.014731*%
%ADD23R,1.178556X0.014731*%
%ADD24R,1.193288X0.014731*%
%ADD25R,1.222756X0.014731*%
%ADD26R,1.237488X0.014731*%
%ADD27R,1.266950X0.014731*%
%ADD28R,1.281681X0.014731*%
%ADD29R,1.311144X0.014731*%
%ADD30R,1.325881X0.014731*%
%ADD31R,1.355344X0.014731*%
%ADD32R,1.370075X0.014731*%
%ADD33R,1.384806X0.014731*%
%ADD34R,1.399538X0.014731*%
%ADD35R,1.414275X0.014731*%
%ADD36R,1.443738X0.014731*%
%ADD37R,1.458469X0.014731*%
%ADD38R,1.487931X0.014731*%
%ADD39R,1.502663X0.014731*%
%ADD40R,1.517394X0.014731*%
%ADD41R,1.532125X0.014731*%
%ADD42R,1.546856X0.014731*%
%ADD43R,1.576319X0.014731*%
%ADD44R,1.605788X0.014731*%
%ADD45R,1.620519X0.014731*%
%ADD46R,1.649981X0.014731*%
%ADD47R,1.664713X0.014731*%
%ADD48R,1.694175X0.014731*%
%ADD49R,1.708913X0.014731*%
%ADD50R,1.738375X0.014731*%
%ADD51R,1.753106X0.014731*%
%ADD52R,1.767838X0.014731*%
%ADD53R,1.782569X0.014731*%
%ADD54R,1.797306X0.014731*%
%ADD55R,0.117856X0.014731*%
%ADD56R,1.826769X0.014731*%
%ADD57R,0.235713X0.014731*%
%ADD58R,0.353569X0.014731*%
%ADD59R,1.856231X0.014731*%
%ADD60R,0.486156X0.014731*%
%ADD61R,1.870963X0.014731*%
%ADD62R,0.604013X0.014731*%
%ADD63R,0.721869X0.014731*%
%ADD64R,1.885694X0.014731*%
%ADD65R,0.839719X0.014731*%
%ADD66R,0.972306X0.014731*%
%ADD67R,1.090169X0.014731*%
%ADD68R,1.208025X0.014731*%
%ADD69R,1.252219X0.014731*%
%ADD70R,1.296412X0.014731*%
%ADD71R,1.340612X0.014731*%
%ADD72R,1.826763X0.014731*%
%ADD73R,1.414269X0.014731*%
%ADD74R,1.812031X0.014731*%
%ADD75R,1.429000X0.014731*%
%ADD76R,1.458462X0.014731*%
%ADD77R,1.473200X0.014731*%
%ADD78R,1.723644X0.014731*%
%ADD79R,1.694181X0.014731*%
%ADD80R,1.679450X0.014731*%
%ADD81R,1.561594X0.014731*%
%ADD82R,1.576325X0.014731*%
%ADD83R,1.591056X0.014731*%
%ADD84R,1.635250X0.014731*%
%ADD85R,1.561588X0.014731*%
%ADD86R,1.443731X0.014731*%
%ADD87R,1.797300X0.014731*%
%ADD88R,1.841500X0.014731*%
%ADD89R,1.311150X0.014731*%
%ADD90R,1.296419X0.014731*%
%ADD91R,1.193294X0.014731*%
%ADD92R,0.957575X0.014731*%
%ADD93R,0.589281X0.014731*%
%ADD94R,0.471425X0.014731*%
%ADD95R,0.220975X0.014731*%
%ADD96R,1.812038X0.014731*%
%ADD97R,0.103119X0.014731*%
%ADD98R,0.029463X0.014731*%
%ADD99R,0.162050X0.014731*%
%ADD100R,0.397763X0.014731*%
%ADD101R,0.648206X0.014731*%
%ADD102R,1.679444X0.014731*%
%ADD103R,1.016506X0.014731*%
%ADD104R,1.104900X0.014731*%
%ADD105R,1.222750X0.014731*%
%ADD106R,1.429006X0.014731*%
%ADD107R,1.208019X0.014731*%
%ADD108R,0.987044X0.014731*%
%ADD109R,0.854456X0.014731*%
%ADD110R,0.618744X0.014731*%
%ADD111R,0.500888X0.014731*%
%ADD112R,0.368300X0.014731*%
%ADD113R,0.132587X0.014731*%
%ADD114R,1.664719X0.014731*%
%ADD115R,1.075438X0.014731*%
%ADD116R,0.942844X0.014731*%
%ADD117R,0.707131X0.014731*%
%ADD118R,0.456694X0.014731*%
%ADD119R,0.088388X0.014731*%
%ADD120C,0.101600*%
%ADD121C,0.152400*%
%ADD122C,0.203200*%
%ADD123C,0.076200*%
%ADD124C,0.127000*%
%ADD125C,0.177800*%
%ADD126C,0.200000*%
%ADD127C,0.100000*%
%ADD128C,0.100000*%
%ADD129C,0.050800*%


D10*
X80739Y97523D03*
D11*
X80223Y97671D03*
D12*
X79634Y97818D03*
D13*
X79192Y97965D03*
D14*
X78677Y98113D03*
D15*
X78235Y98260D03*
D16*
X77645Y98407D03*
D17*
X77130Y98555D03*
D18*
X76688Y98702D03*
D19*
X76246Y98849D03*
D20*
X76172Y98997D03*
D21*
X76246Y99144D03*
D22*
X76319Y99291D03*
D23*
X76246Y99438D03*
D24*
X76319Y99586D03*
D25*
X76319Y99733D03*
D26*
X76393Y99880D03*
X76393Y100028D03*
D27*
X76393Y100175D03*
D28*
X76467Y100322D03*
D29*
X76467Y100470D03*
X76467Y100617D03*
D30*
X76540Y100764D03*
D31*
X76540Y100912D03*
D32*
X76614Y101059D03*
D33*
X76540Y101206D03*
D34*
X76614Y101354D03*
D35*
X76688Y101501D03*
D36*
X76688Y101648D03*
X76688Y101796D03*
D37*
X76761Y101943D03*
D38*
X76761Y102090D03*
D39*
X76835Y102238D03*
D40*
X76761Y102385D03*
D41*
X76835Y102532D03*
D42*
X76909Y102680D03*
D43*
X76909Y102827D03*
X76909Y102974D03*
D44*
X76909Y103121D03*
D45*
X76982Y103269D03*
X76982Y103416D03*
D46*
X76982Y103563D03*
D47*
X77056Y103711D03*
D48*
X77056Y103858D03*
X77056Y104005D03*
D49*
X77130Y104153D03*
D50*
X77130Y104300D03*
D51*
X77203Y104447D03*
D52*
X77130Y104595D03*
D53*
X77203Y104742D03*
D54*
X77277Y104889D03*
D55*
X97754Y104889D03*
D56*
X77277Y105037D03*
D57*
X97165Y105037D03*
D56*
X77277Y105184D03*
D58*
X96723Y105184D03*
D59*
X77277Y105331D03*
D60*
X96208Y105331D03*
D61*
X77351Y105479D03*
D62*
X95766Y105479D03*
D61*
X77351Y105626D03*
D63*
X95176Y105626D03*
D64*
X77277Y105773D03*
D65*
X94734Y105773D03*
D64*
X77277Y105921D03*
D66*
X94219Y105921D03*
D61*
X77203Y106068D03*
D67*
X93777Y106068D03*
D64*
X77130Y106215D03*
D19*
X93629Y106215D03*
D64*
X77130Y106363D03*
D21*
X93629Y106363D03*
D64*
X76982Y106510D03*
D22*
X93703Y106510D03*
D64*
X76982Y106657D03*
D23*
X93777Y106657D03*
D61*
X76909Y106804D03*
D24*
X93703Y106804D03*
D64*
X76835Y106952D03*
D68*
X93777Y106952D03*
D64*
X76835Y107099D03*
D26*
X93777Y107099D03*
D64*
X76688Y107246D03*
D69*
X93850Y107246D03*
D64*
X76688Y107394D03*
D69*
X93850Y107394D03*
D61*
X76614Y107541D03*
D28*
X93850Y107541D03*
D64*
X76540Y107688D03*
D70*
X93924Y107688D03*
D64*
X76540Y107836D03*
D30*
X93924Y107836D03*
D64*
X76393Y107983D03*
D30*
X93924Y107983D03*
D64*
X76393Y108130D03*
D71*
X93998Y108130D03*
D61*
X76319Y108278D03*
D32*
X93998Y108278D03*
D59*
X76393Y108425D03*
D33*
X94071Y108425D03*
D59*
X76393Y108572D03*
D34*
X93998Y108572D03*
D72*
X76393Y108720D03*
D73*
X94071Y108720D03*
D74*
X76467Y108867D03*
D75*
X94145Y108867D03*
D53*
X76467Y109014D03*
D76*
X94145Y109014D03*
D53*
X76467Y109162D03*
D76*
X94145Y109162D03*
D52*
X76540Y109309D03*
D77*
X94219Y109309D03*
D50*
X76540Y109456D03*
D39*
X94219Y109456D03*
D78*
X76614Y109604D03*
D39*
X94219Y109604D03*
D49*
X76540Y109751D03*
D41*
X94219Y109751D03*
D79*
X76614Y109898D03*
D42*
X94292Y109898D03*
D80*
X76688Y110046D03*
D81*
X94366Y110046D03*
D46*
X76688Y110193D03*
D82*
X94292Y110193D03*
D46*
X76688Y110340D03*
D83*
X94366Y110340D03*
D84*
X76761Y110487D03*
D45*
X94366Y110487D03*
D44*
X76761Y110635D03*
D84*
X94440Y110635D03*
D44*
X76761Y110782D03*
D84*
X94440Y110782D03*
D82*
X76761Y110929D03*
D47*
X94440Y110929D03*
D85*
X76835Y111077D03*
D80*
X94513Y111077D03*
D42*
X76909Y111224D03*
D49*
X94513Y111224D03*
D41*
X76835Y111371D03*
D49*
X94513Y111371D03*
D40*
X76909Y111519D03*
D78*
X94587Y111519D03*
D38*
X76909Y111666D03*
D51*
X94587Y111666D03*
D77*
X76982Y111813D03*
D52*
X94661Y111813D03*
D77*
X76982Y111961D03*
D53*
X94587Y111961D03*
D86*
X76982Y112108D03*
D87*
X94661Y112108D03*
D75*
X77056Y112255D03*
D74*
X94734Y112255D03*
D34*
X77056Y112403D03*
D88*
X94734Y112403D03*
D34*
X77056Y112550D03*
D88*
X94734Y112550D03*
D33*
X77130Y112697D03*
D61*
X94734Y112697D03*
D31*
X77130Y112845D03*
D64*
X94808Y112845D03*
D71*
X77203Y112992D03*
D61*
X94734Y112992D03*
D30*
X77130Y113139D03*
D64*
X94661Y113139D03*
D89*
X77203Y113287D03*
D64*
X94661Y113287D03*
D90*
X77277Y113434D03*
D61*
X94587Y113434D03*
D27*
X77277Y113581D03*
D64*
X94513Y113581D03*
D27*
X77277Y113729D03*
D64*
X94513Y113729D03*
D69*
X77351Y113876D03*
D64*
X94366Y113876D03*
D25*
X77351Y114023D03*
D64*
X94366Y114023D03*
D68*
X77424Y114170D03*
D61*
X94292Y114170D03*
D91*
X77351Y114318D03*
D64*
X94219Y114318D03*
D23*
X77424Y114465D03*
D64*
X94219Y114465D03*
D22*
X77498Y114612D03*
D64*
X94071Y114612D03*
D21*
X77424Y114760D03*
D64*
X94071Y114760D03*
D20*
X77498Y114907D03*
D61*
X93998Y114907D03*
D67*
X77424Y115054D03*
D64*
X93924Y115054D03*
D92*
X76909Y115202D03*
D64*
X93924Y115202D03*
D65*
X76319Y115349D03*
D64*
X93777Y115349D03*
D63*
X75877Y115496D03*
D64*
X93777Y115496D03*
D93*
X75362Y115644D03*
D59*
X93777Y115644D03*
D94*
X74920Y115791D03*
D88*
X93850Y115791D03*
D58*
X74331Y115938D03*
D88*
X93850Y115938D03*
D95*
X73815Y116086D03*
D96*
X93850Y116086D03*
D97*
X73373Y116233D03*
D54*
X93924Y116233D03*
D98*
X83170Y116380D03*
D53*
X93850Y116380D03*
D99*
X82654Y116528D03*
D52*
X93924Y116528D03*
D12*
X82139Y116675D03*
D51*
X93998Y116675D03*
D100*
X81623Y116822D03*
D78*
X93998Y116822D03*
D14*
X81181Y116970D03*
D78*
X93998Y116970D03*
D101*
X80665Y117117D03*
D79*
X93998Y117117D03*
D16*
X80150Y117264D03*
D102*
X94071Y117264D03*
D17*
X79634Y117412D03*
D47*
X94145Y117412D03*
D103*
X79118Y117559D03*
D46*
X94071Y117559D03*
D104*
X78677Y117706D03*
D84*
X94145Y117706D03*
D20*
X78677Y117853D03*
D45*
X94219Y117853D03*
D21*
X78750Y118001D03*
D83*
X94219Y118001D03*
D22*
X78824Y118148D03*
D83*
X94219Y118148D03*
D23*
X78750Y118295D03*
D85*
X94219Y118295D03*
D24*
X78824Y118443D03*
D42*
X94292Y118443D03*
D105*
X78824Y118590D03*
D41*
X94366Y118590D03*
D26*
X78898Y118737D03*
D40*
X94292Y118737D03*
D26*
X78898Y118885D03*
D39*
X94366Y118885D03*
D27*
X78897Y119032D03*
D77*
X94366Y119032D03*
D28*
X78971Y119179D03*
D37*
X94440Y119179D03*
D29*
X78971Y119327D03*
D37*
X94440Y119327D03*
D29*
X78971Y119474D03*
D106*
X94440Y119474D03*
D30*
X79045Y119621D03*
D73*
X94513Y119621D03*
D31*
X79045Y119769D03*
D33*
X94513Y119769D03*
D32*
X79118Y119916D03*
D33*
X94513Y119916D03*
X79045Y120063D03*
D32*
X94587Y120063D03*
D34*
X79118Y120211D03*
D71*
X94587Y120211D03*
D73*
X79192Y120358D03*
D71*
X94587Y120358D03*
D36*
X79192Y120505D03*
D89*
X94587Y120505D03*
D36*
X79192Y120653D03*
D70*
X94661Y120653D03*
D77*
X79192Y120800D03*
D28*
X94734Y120800D03*
D38*
X79266Y120947D03*
D27*
X94661Y120947D03*
D39*
X79339Y121095D03*
D69*
X94734Y121095D03*
D40*
X79266Y121242D03*
D25*
X94734Y121242D03*
D41*
X79339Y121389D03*
D107*
X94808Y121389D03*
D85*
X79339Y121536D03*
D107*
X94808Y121536D03*
D43*
X79413Y121684D03*
D23*
X94808Y121684D03*
D43*
X79413Y121831D03*
D22*
X94882Y121831D03*
D44*
X79413Y121978D03*
D21*
X94955Y121978D03*
D45*
X79487Y122126D03*
D20*
X94882Y122126D03*
D45*
X79487Y122273D03*
D104*
X94882Y122273D03*
D46*
X79487Y122420D03*
D108*
X94440Y122420D03*
D47*
X79560Y122568D03*
D109*
X93924Y122568D03*
D48*
X79560Y122715D03*
D16*
X93409Y122715D03*
D48*
X79560Y122862D03*
D110*
X92893Y122862D03*
D49*
X79634Y123010D03*
D111*
X92451Y123010D03*
D50*
X79634Y123157D03*
D112*
X91935Y123157D03*
D51*
X79708Y123304D03*
D12*
X91420Y123304D03*
D52*
X79634Y123452D03*
D113*
X90904Y123452D03*
D53*
X79708Y123599D03*
D10*
X90462Y123599D03*
D54*
X79781Y123746D03*
D56*
X79781Y123894D03*
X79781Y124041D03*
D59*
X79781Y124188D03*
D61*
X79855Y124336D03*
X79855Y124483D03*
D64*
X79781Y124630D03*
X79781Y124778D03*
X79634Y124925D03*
X79634Y125072D03*
D61*
X79560Y125219D03*
D64*
X79487Y125367D03*
X79487Y125514D03*
X79339Y125661D03*
X79339Y125809D03*
D61*
X79266Y125956D03*
D64*
X79192Y126103D03*
X79192Y126251D03*
D61*
X79118Y126398D03*
D64*
X79045Y126545D03*
X79045Y126693D03*
X78897Y126840D03*
X78897Y126987D03*
D61*
X78824Y127135D03*
D59*
X78897Y127282D03*
X78897Y127429D03*
D72*
X78897Y127577D03*
D74*
X78971Y127724D03*
D53*
X78971Y127871D03*
X78971Y128019D03*
D52*
X79045Y128166D03*
D50*
X79045Y128313D03*
D78*
X79118Y128461D03*
D49*
X79045Y128608D03*
D79*
X79118Y128755D03*
D80*
X79192Y128902D03*
D114*
X79118Y129050D03*
D46*
X79192Y129197D03*
D45*
X79192Y129344D03*
D44*
X79266Y129492D03*
X79266Y129639D03*
D82*
X79266Y129786D03*
D85*
X79339Y129934D03*
D41*
X79339Y130081D03*
X79339Y130228D03*
D40*
X79413Y130376D03*
D38*
X79413Y130523D03*
D77*
X79487Y130670D03*
X79487Y130818D03*
D86*
X79487Y130965D03*
D75*
X79560Y131112D03*
D34*
X79560Y131260D03*
X79560Y131407D03*
D33*
X79634Y131554D03*
D31*
X79634Y131702D03*
D71*
X79708Y131849D03*
D30*
X79634Y131996D03*
D89*
X79708Y132144D03*
D90*
X79781Y132291D03*
D27*
X79781Y132438D03*
X79781Y132585D03*
D26*
X79781Y132733D03*
D25*
X79855Y132880D03*
D68*
X79929Y133027D03*
D91*
X79855Y133175D03*
D23*
X79929Y133322D03*
D21*
X79929Y133469D03*
X79929Y133617D03*
D20*
X80002Y133764D03*
D115*
X79855Y133911D03*
D116*
X79339Y134059D03*
D65*
X78824Y134206D03*
D117*
X78308Y134353D03*
D93*
X77866Y134501D03*
D118*
X77351Y134648D03*
D58*
X76835Y134795D03*
D95*
X76319Y134943D03*
D119*
X75804Y135090D03*
D120*
X-138621Y137724D02*
X-138621Y140970D01*
X-138620Y140970D02*
X-138622Y141083D01*
X-138628Y141196D01*
X-138638Y141309D01*
X-138652Y141422D01*
X-138669Y141534D01*
X-138691Y141645D01*
X-138716Y141755D01*
X-138746Y141865D01*
X-138779Y141973D01*
X-138816Y142080D01*
X-138856Y142186D01*
X-138901Y142290D01*
X-138949Y142393D01*
X-139000Y142494D01*
X-139055Y142593D01*
X-139113Y142690D01*
X-139175Y142785D01*
X-139240Y142878D01*
X-139308Y142968D01*
X-139379Y143056D01*
X-139454Y143142D01*
X-139531Y143225D01*
X-139611Y143305D01*
X-139694Y143382D01*
X-139780Y143457D01*
X-139868Y143528D01*
X-139958Y143596D01*
X-140051Y143661D01*
X-140146Y143723D01*
X-140243Y143781D01*
X-140342Y143836D01*
X-140443Y143887D01*
X-140546Y143935D01*
X-140650Y143980D01*
X-140756Y144020D01*
X-140863Y144057D01*
X-140971Y144090D01*
X-141081Y144120D01*
X-141191Y144145D01*
X-141302Y144167D01*
X-141414Y144184D01*
X-141527Y144198D01*
X-141640Y144208D01*
X-141753Y144214D01*
X-141866Y144216D01*
X-141979Y144214D01*
X-142092Y144208D01*
X-142205Y144198D01*
X-142318Y144184D01*
X-142430Y144167D01*
X-142541Y144145D01*
X-142651Y144120D01*
X-142761Y144090D01*
X-142869Y144057D01*
X-142976Y144020D01*
X-143082Y143980D01*
X-143186Y143935D01*
X-143289Y143887D01*
X-143390Y143836D01*
X-143489Y143781D01*
X-143586Y143723D01*
X-143681Y143661D01*
X-143774Y143596D01*
X-143864Y143528D01*
X-143952Y143457D01*
X-144038Y143382D01*
X-144121Y143305D01*
X-144201Y143225D01*
X-144278Y143142D01*
X-144353Y143056D01*
X-144424Y142968D01*
X-144492Y142878D01*
X-144557Y142785D01*
X-144619Y142690D01*
X-144677Y142593D01*
X-144732Y142494D01*
X-144783Y142393D01*
X-144831Y142290D01*
X-144876Y142186D01*
X-144916Y142080D01*
X-144953Y141973D01*
X-144986Y141865D01*
X-145016Y141755D01*
X-145041Y141645D01*
X-145063Y141534D01*
X-145080Y141422D01*
X-145094Y141309D01*
X-145104Y141196D01*
X-145110Y141083D01*
X-145112Y140970D01*
X-150305Y141619D02*
X-150305Y137724D01*
X-150304Y141619D02*
X-150302Y141720D01*
X-150296Y141820D01*
X-150286Y141920D01*
X-150273Y142020D01*
X-150255Y142119D01*
X-150234Y142218D01*
X-150209Y142315D01*
X-150180Y142412D01*
X-150147Y142507D01*
X-150111Y142601D01*
X-150071Y142693D01*
X-150028Y142784D01*
X-149981Y142873D01*
X-149931Y142960D01*
X-149877Y143046D01*
X-149820Y143129D01*
X-149760Y143209D01*
X-149697Y143288D01*
X-149630Y143364D01*
X-149561Y143437D01*
X-149489Y143507D01*
X-149415Y143575D01*
X-149338Y143640D01*
X-149258Y143701D01*
X-149176Y143760D01*
X-149092Y143815D01*
X-149006Y143867D01*
X-148918Y143916D01*
X-148828Y143961D01*
X-148736Y144003D01*
X-148643Y144041D01*
X-148548Y144075D01*
X-148453Y144106D01*
X-148356Y144133D01*
X-148258Y144156D01*
X-148159Y144176D01*
X-148059Y144191D01*
X-147959Y144203D01*
X-147859Y144211D01*
X-147758Y144215D01*
X-147658Y144215D01*
X-147557Y144211D01*
X-147457Y144203D01*
X-147357Y144191D01*
X-147257Y144176D01*
X-147158Y144156D01*
X-147060Y144133D01*
X-146963Y144106D01*
X-146868Y144075D01*
X-146773Y144041D01*
X-146680Y144003D01*
X-146588Y143961D01*
X-146498Y143916D01*
X-146410Y143867D01*
X-146324Y143815D01*
X-146240Y143760D01*
X-146158Y143701D01*
X-146078Y143640D01*
X-146001Y143575D01*
X-145927Y143507D01*
X-145855Y143437D01*
X-145786Y143364D01*
X-145719Y143288D01*
X-145656Y143209D01*
X-145596Y143129D01*
X-145539Y143046D01*
X-145485Y142960D01*
X-145435Y142873D01*
X-145388Y142784D01*
X-145345Y142693D01*
X-145305Y142601D01*
X-145269Y142507D01*
X-145236Y142412D01*
X-145207Y142315D01*
X-145182Y142218D01*
X-145161Y142119D01*
X-145143Y142020D01*
X-145130Y141920D01*
X-145120Y141820D01*
X-145114Y141720D01*
X-145112Y141619D01*
X-145112Y139023D01*
X-150305Y148505D02*
X-138621Y152400D01*
X-150305Y156295D01*
X-138621Y160584D02*
X-138621Y163830D01*
X-138620Y163830D02*
X-138622Y163943D01*
X-138628Y164056D01*
X-138638Y164169D01*
X-138652Y164282D01*
X-138669Y164394D01*
X-138691Y164505D01*
X-138716Y164615D01*
X-138746Y164725D01*
X-138779Y164833D01*
X-138816Y164940D01*
X-138856Y165046D01*
X-138901Y165150D01*
X-138949Y165253D01*
X-139000Y165354D01*
X-139055Y165453D01*
X-139113Y165550D01*
X-139175Y165645D01*
X-139240Y165738D01*
X-139308Y165828D01*
X-139379Y165916D01*
X-139454Y166002D01*
X-139531Y166085D01*
X-139611Y166165D01*
X-139694Y166242D01*
X-139780Y166317D01*
X-139868Y166388D01*
X-139958Y166456D01*
X-140051Y166521D01*
X-140146Y166583D01*
X-140243Y166641D01*
X-140342Y166696D01*
X-140443Y166747D01*
X-140546Y166795D01*
X-140650Y166840D01*
X-140756Y166880D01*
X-140863Y166917D01*
X-140971Y166950D01*
X-141081Y166980D01*
X-141191Y167005D01*
X-141302Y167027D01*
X-141414Y167044D01*
X-141527Y167058D01*
X-141640Y167068D01*
X-141753Y167074D01*
X-141866Y167076D01*
X-141979Y167074D01*
X-142092Y167068D01*
X-142205Y167058D01*
X-142318Y167044D01*
X-142430Y167027D01*
X-142541Y167005D01*
X-142651Y166980D01*
X-142761Y166950D01*
X-142869Y166917D01*
X-142976Y166880D01*
X-143082Y166840D01*
X-143186Y166795D01*
X-143289Y166747D01*
X-143390Y166696D01*
X-143489Y166641D01*
X-143586Y166583D01*
X-143681Y166521D01*
X-143774Y166456D01*
X-143864Y166388D01*
X-143952Y166317D01*
X-144038Y166242D01*
X-144121Y166165D01*
X-144201Y166085D01*
X-144278Y166002D01*
X-144353Y165916D01*
X-144424Y165828D01*
X-144492Y165738D01*
X-144557Y165645D01*
X-144619Y165550D01*
X-144677Y165453D01*
X-144732Y165354D01*
X-144783Y165253D01*
X-144831Y165150D01*
X-144876Y165046D01*
X-144916Y164940D01*
X-144953Y164833D01*
X-144986Y164725D01*
X-145016Y164615D01*
X-145041Y164505D01*
X-145063Y164394D01*
X-145080Y164282D01*
X-145094Y164169D01*
X-145104Y164056D01*
X-145110Y163943D01*
X-145112Y163830D01*
X-150305Y164479D02*
X-150305Y160584D01*
X-150304Y164479D02*
X-150302Y164580D01*
X-150296Y164680D01*
X-150286Y164780D01*
X-150273Y164880D01*
X-150255Y164979D01*
X-150234Y165078D01*
X-150209Y165175D01*
X-150180Y165272D01*
X-150147Y165367D01*
X-150111Y165461D01*
X-150071Y165553D01*
X-150028Y165644D01*
X-149981Y165733D01*
X-149931Y165820D01*
X-149877Y165906D01*
X-149820Y165989D01*
X-149760Y166069D01*
X-149697Y166148D01*
X-149630Y166224D01*
X-149561Y166297D01*
X-149489Y166367D01*
X-149415Y166435D01*
X-149338Y166500D01*
X-149258Y166561D01*
X-149176Y166620D01*
X-149092Y166675D01*
X-149006Y166727D01*
X-148918Y166776D01*
X-148828Y166821D01*
X-148736Y166863D01*
X-148643Y166901D01*
X-148548Y166935D01*
X-148453Y166966D01*
X-148356Y166993D01*
X-148258Y167016D01*
X-148159Y167036D01*
X-148059Y167051D01*
X-147959Y167063D01*
X-147859Y167071D01*
X-147758Y167075D01*
X-147658Y167075D01*
X-147557Y167071D01*
X-147457Y167063D01*
X-147357Y167051D01*
X-147257Y167036D01*
X-147158Y167016D01*
X-147060Y166993D01*
X-146963Y166966D01*
X-146868Y166935D01*
X-146773Y166901D01*
X-146680Y166863D01*
X-146588Y166821D01*
X-146498Y166776D01*
X-146410Y166727D01*
X-146324Y166675D01*
X-146240Y166620D01*
X-146158Y166561D01*
X-146078Y166500D01*
X-146001Y166435D01*
X-145927Y166367D01*
X-145855Y166297D01*
X-145786Y166224D01*
X-145719Y166148D01*
X-145656Y166069D01*
X-145596Y165989D01*
X-145539Y165906D01*
X-145485Y165820D01*
X-145435Y165733D01*
X-145388Y165644D01*
X-145345Y165553D01*
X-145305Y165461D01*
X-145269Y165367D01*
X-145236Y165272D01*
X-145207Y165175D01*
X-145182Y165078D01*
X-145161Y164979D01*
X-145143Y164880D01*
X-145130Y164780D01*
X-145120Y164680D01*
X-145114Y164580D01*
X-145112Y164479D01*
X-145112Y161883D01*
X148717Y137795D02*
X148717Y134549D01*
X148717Y137795D02*
X148715Y137908D01*
X148709Y138021D01*
X148699Y138134D01*
X148685Y138247D01*
X148668Y138359D01*
X148646Y138470D01*
X148621Y138580D01*
X148591Y138690D01*
X148558Y138798D01*
X148521Y138905D01*
X148481Y139011D01*
X148436Y139115D01*
X148388Y139218D01*
X148337Y139319D01*
X148282Y139418D01*
X148224Y139515D01*
X148162Y139610D01*
X148097Y139703D01*
X148029Y139793D01*
X147958Y139881D01*
X147883Y139967D01*
X147806Y140050D01*
X147726Y140130D01*
X147643Y140207D01*
X147557Y140282D01*
X147469Y140353D01*
X147379Y140421D01*
X147286Y140486D01*
X147191Y140548D01*
X147094Y140606D01*
X146995Y140661D01*
X146894Y140712D01*
X146791Y140760D01*
X146687Y140805D01*
X146581Y140845D01*
X146474Y140882D01*
X146366Y140915D01*
X146256Y140945D01*
X146146Y140970D01*
X146035Y140992D01*
X145923Y141009D01*
X145810Y141023D01*
X145697Y141033D01*
X145584Y141039D01*
X145471Y141041D01*
X145358Y141039D01*
X145245Y141033D01*
X145132Y141023D01*
X145019Y141009D01*
X144907Y140992D01*
X144796Y140970D01*
X144686Y140945D01*
X144576Y140915D01*
X144468Y140882D01*
X144361Y140845D01*
X144255Y140805D01*
X144151Y140760D01*
X144048Y140712D01*
X143947Y140661D01*
X143848Y140606D01*
X143751Y140548D01*
X143656Y140486D01*
X143563Y140421D01*
X143473Y140353D01*
X143385Y140282D01*
X143299Y140207D01*
X143216Y140130D01*
X143136Y140050D01*
X143059Y139967D01*
X142984Y139881D01*
X142913Y139793D01*
X142845Y139703D01*
X142780Y139610D01*
X142718Y139515D01*
X142660Y139418D01*
X142605Y139319D01*
X142554Y139218D01*
X142506Y139115D01*
X142461Y139011D01*
X142421Y138905D01*
X142384Y138798D01*
X142351Y138690D01*
X142321Y138580D01*
X142296Y138470D01*
X142274Y138359D01*
X142257Y138247D01*
X142243Y138134D01*
X142233Y138021D01*
X142227Y137908D01*
X142225Y137795D01*
X137033Y138444D02*
X137033Y134549D01*
X137033Y138444D02*
X137035Y138545D01*
X137041Y138645D01*
X137051Y138745D01*
X137064Y138845D01*
X137082Y138944D01*
X137103Y139043D01*
X137128Y139140D01*
X137157Y139237D01*
X137190Y139332D01*
X137226Y139426D01*
X137266Y139518D01*
X137309Y139609D01*
X137356Y139698D01*
X137406Y139785D01*
X137460Y139871D01*
X137517Y139954D01*
X137577Y140034D01*
X137640Y140113D01*
X137707Y140189D01*
X137776Y140262D01*
X137848Y140332D01*
X137922Y140400D01*
X137999Y140465D01*
X138079Y140526D01*
X138161Y140585D01*
X138245Y140640D01*
X138331Y140692D01*
X138419Y140741D01*
X138509Y140786D01*
X138601Y140828D01*
X138694Y140866D01*
X138789Y140900D01*
X138884Y140931D01*
X138981Y140958D01*
X139079Y140981D01*
X139178Y141001D01*
X139278Y141016D01*
X139378Y141028D01*
X139478Y141036D01*
X139579Y141040D01*
X139679Y141040D01*
X139780Y141036D01*
X139880Y141028D01*
X139980Y141016D01*
X140080Y141001D01*
X140179Y140981D01*
X140277Y140958D01*
X140374Y140931D01*
X140469Y140900D01*
X140564Y140866D01*
X140657Y140828D01*
X140749Y140786D01*
X140839Y140741D01*
X140927Y140692D01*
X141013Y140640D01*
X141097Y140585D01*
X141179Y140526D01*
X141259Y140465D01*
X141336Y140400D01*
X141410Y140332D01*
X141482Y140262D01*
X141551Y140189D01*
X141618Y140113D01*
X141681Y140034D01*
X141741Y139954D01*
X141798Y139871D01*
X141852Y139785D01*
X141902Y139698D01*
X141949Y139609D01*
X141992Y139518D01*
X142032Y139426D01*
X142068Y139332D01*
X142101Y139237D01*
X142130Y139140D01*
X142155Y139043D01*
X142176Y138944D01*
X142194Y138845D01*
X142207Y138745D01*
X142217Y138645D01*
X142223Y138545D01*
X142225Y138444D01*
X142226Y138444D02*
X142226Y135848D01*
X137033Y145330D02*
X148717Y149225D01*
X137033Y153120D01*
X148717Y157409D02*
X148717Y160655D01*
X148715Y160768D01*
X148709Y160881D01*
X148699Y160994D01*
X148685Y161107D01*
X148668Y161219D01*
X148646Y161330D01*
X148621Y161440D01*
X148591Y161550D01*
X148558Y161658D01*
X148521Y161765D01*
X148481Y161871D01*
X148436Y161975D01*
X148388Y162078D01*
X148337Y162179D01*
X148282Y162278D01*
X148224Y162375D01*
X148162Y162470D01*
X148097Y162563D01*
X148029Y162653D01*
X147958Y162741D01*
X147883Y162827D01*
X147806Y162910D01*
X147726Y162990D01*
X147643Y163067D01*
X147557Y163142D01*
X147469Y163213D01*
X147379Y163281D01*
X147286Y163346D01*
X147191Y163408D01*
X147094Y163466D01*
X146995Y163521D01*
X146894Y163572D01*
X146791Y163620D01*
X146687Y163665D01*
X146581Y163705D01*
X146474Y163742D01*
X146366Y163775D01*
X146256Y163805D01*
X146146Y163830D01*
X146035Y163852D01*
X145923Y163869D01*
X145810Y163883D01*
X145697Y163893D01*
X145584Y163899D01*
X145471Y163901D01*
X145358Y163899D01*
X145245Y163893D01*
X145132Y163883D01*
X145019Y163869D01*
X144907Y163852D01*
X144796Y163830D01*
X144686Y163805D01*
X144576Y163775D01*
X144468Y163742D01*
X144361Y163705D01*
X144255Y163665D01*
X144151Y163620D01*
X144048Y163572D01*
X143947Y163521D01*
X143848Y163466D01*
X143751Y163408D01*
X143656Y163346D01*
X143563Y163281D01*
X143473Y163213D01*
X143385Y163142D01*
X143299Y163067D01*
X143216Y162990D01*
X143136Y162910D01*
X143059Y162827D01*
X142984Y162741D01*
X142913Y162653D01*
X142845Y162563D01*
X142780Y162470D01*
X142718Y162375D01*
X142660Y162278D01*
X142605Y162179D01*
X142554Y162078D01*
X142506Y161975D01*
X142461Y161871D01*
X142421Y161765D01*
X142384Y161658D01*
X142351Y161550D01*
X142321Y161440D01*
X142296Y161330D01*
X142274Y161219D01*
X142257Y161107D01*
X142243Y160994D01*
X142233Y160881D01*
X142227Y160768D01*
X142225Y160655D01*
X137033Y161304D02*
X137033Y157409D01*
X137033Y161304D02*
X137035Y161405D01*
X137041Y161505D01*
X137051Y161605D01*
X137064Y161705D01*
X137082Y161804D01*
X137103Y161903D01*
X137128Y162000D01*
X137157Y162097D01*
X137190Y162192D01*
X137226Y162286D01*
X137266Y162378D01*
X137309Y162469D01*
X137356Y162558D01*
X137406Y162645D01*
X137460Y162731D01*
X137517Y162814D01*
X137577Y162894D01*
X137640Y162973D01*
X137707Y163049D01*
X137776Y163122D01*
X137848Y163192D01*
X137922Y163260D01*
X137999Y163325D01*
X138079Y163386D01*
X138161Y163445D01*
X138245Y163500D01*
X138331Y163552D01*
X138419Y163601D01*
X138509Y163646D01*
X138601Y163688D01*
X138694Y163726D01*
X138789Y163760D01*
X138884Y163791D01*
X138981Y163818D01*
X139079Y163841D01*
X139178Y163861D01*
X139278Y163876D01*
X139378Y163888D01*
X139478Y163896D01*
X139579Y163900D01*
X139679Y163900D01*
X139780Y163896D01*
X139880Y163888D01*
X139980Y163876D01*
X140080Y163861D01*
X140179Y163841D01*
X140277Y163818D01*
X140374Y163791D01*
X140469Y163760D01*
X140564Y163726D01*
X140657Y163688D01*
X140749Y163646D01*
X140839Y163601D01*
X140927Y163552D01*
X141013Y163500D01*
X141097Y163445D01*
X141179Y163386D01*
X141259Y163325D01*
X141336Y163260D01*
X141410Y163192D01*
X141482Y163122D01*
X141551Y163049D01*
X141618Y162973D01*
X141681Y162894D01*
X141741Y162814D01*
X141798Y162731D01*
X141852Y162645D01*
X141902Y162558D01*
X141949Y162469D01*
X141992Y162378D01*
X142032Y162286D01*
X142068Y162192D01*
X142101Y162097D01*
X142130Y162000D01*
X142155Y161903D01*
X142176Y161804D01*
X142194Y161705D01*
X142207Y161605D01*
X142217Y161505D01*
X142223Y161405D01*
X142225Y161304D01*
X142226Y161304D02*
X142226Y158708D01*
X-85739Y27170D02*
X-88397Y29032D01*
X-85739Y27170D02*
X-85645Y27107D01*
X-85549Y27047D01*
X-85451Y26990D01*
X-85351Y26937D01*
X-85249Y26887D01*
X-85145Y26841D01*
X-85040Y26799D01*
X-84934Y26760D01*
X-84826Y26725D01*
X-84717Y26694D01*
X-84607Y26666D01*
X-84496Y26643D01*
X-84385Y26623D01*
X-84273Y26607D01*
X-84160Y26595D01*
X-84047Y26587D01*
X-83934Y26583D01*
X-83820Y26583D01*
X-83707Y26587D01*
X-83594Y26595D01*
X-83481Y26607D01*
X-83369Y26623D01*
X-83258Y26643D01*
X-83147Y26666D01*
X-83037Y26694D01*
X-82928Y26725D01*
X-82820Y26760D01*
X-82714Y26799D01*
X-82609Y26841D01*
X-82505Y26887D01*
X-82403Y26937D01*
X-82303Y26990D01*
X-82205Y27047D01*
X-82109Y27107D01*
X-82015Y27170D01*
X-81924Y27237D01*
X-81834Y27306D01*
X-81747Y27379D01*
X-81663Y27455D01*
X-81582Y27534D01*
X-81503Y27615D01*
X-81427Y27699D01*
X-81354Y27786D01*
X-81285Y27876D01*
X-81218Y27967D01*
X-81155Y28061D01*
X-81095Y28157D01*
X-81038Y28255D01*
X-80985Y28355D01*
X-80935Y28457D01*
X-80889Y28561D01*
X-80847Y28666D01*
X-80808Y28772D01*
X-80773Y28880D01*
X-80742Y28989D01*
X-80714Y29099D01*
X-80691Y29210D01*
X-80671Y29321D01*
X-80655Y29433D01*
X-80643Y29546D01*
X-80635Y29659D01*
X-80631Y29772D01*
X-80631Y29886D01*
X-80635Y29999D01*
X-80643Y30112D01*
X-80655Y30225D01*
X-80671Y30337D01*
X-80691Y30448D01*
X-80714Y30559D01*
X-80742Y30669D01*
X-80773Y30778D01*
X-80808Y30886D01*
X-80847Y30992D01*
X-80889Y31097D01*
X-80935Y31201D01*
X-80985Y31303D01*
X-81038Y31403D01*
X-81095Y31501D01*
X-81155Y31597D01*
X-81218Y31691D01*
X-81285Y31782D01*
X-81354Y31872D01*
X-81427Y31959D01*
X-81503Y32043D01*
X-81582Y32124D01*
X-81663Y32203D01*
X-81747Y32279D01*
X-81834Y32352D01*
X-81923Y32421D01*
X-82015Y32488D01*
X-78505Y36369D02*
X-81696Y38603D01*
X-78506Y36369D02*
X-78425Y36309D01*
X-78346Y36247D01*
X-78269Y36181D01*
X-78195Y36113D01*
X-78124Y36042D01*
X-78056Y35968D01*
X-77990Y35891D01*
X-77928Y35812D01*
X-77868Y35731D01*
X-77812Y35647D01*
X-77759Y35562D01*
X-77710Y35474D01*
X-77664Y35385D01*
X-77621Y35293D01*
X-77582Y35200D01*
X-77547Y35106D01*
X-77515Y35011D01*
X-77487Y34914D01*
X-77463Y34816D01*
X-77443Y34718D01*
X-77426Y34618D01*
X-77414Y34518D01*
X-77405Y34418D01*
X-77400Y34317D01*
X-77399Y34217D01*
X-77402Y34116D01*
X-77409Y34016D01*
X-77420Y33916D01*
X-77434Y33816D01*
X-77453Y33717D01*
X-77475Y33619D01*
X-77501Y33522D01*
X-77531Y33425D01*
X-77564Y33331D01*
X-77601Y33237D01*
X-77642Y33145D01*
X-77687Y33054D01*
X-77734Y32966D01*
X-77786Y32879D01*
X-77840Y32795D01*
X-77898Y32712D01*
X-77959Y32632D01*
X-78023Y32554D01*
X-78090Y32479D01*
X-78159Y32406D01*
X-78232Y32337D01*
X-78307Y32270D01*
X-78385Y32206D01*
X-78465Y32145D01*
X-78548Y32087D01*
X-78632Y32033D01*
X-78719Y31981D01*
X-78807Y31934D01*
X-78898Y31889D01*
X-78990Y31848D01*
X-79083Y31811D01*
X-79178Y31778D01*
X-79275Y31748D01*
X-79372Y31722D01*
X-79470Y31700D01*
X-79569Y31681D01*
X-79669Y31667D01*
X-79769Y31656D01*
X-79869Y31649D01*
X-79970Y31646D01*
X-80070Y31647D01*
X-80171Y31652D01*
X-80271Y31661D01*
X-80371Y31673D01*
X-80471Y31690D01*
X-80569Y31710D01*
X-80667Y31734D01*
X-80764Y31762D01*
X-80859Y31794D01*
X-80953Y31829D01*
X-81046Y31868D01*
X-81138Y31911D01*
X-81227Y31957D01*
X-81315Y32006D01*
X-81400Y32059D01*
X-81484Y32115D01*
X-83611Y33605D01*
X-72864Y32419D02*
X-76376Y20614D01*
X-66484Y27952D01*
X-69671Y15920D02*
X-67013Y14058D01*
X-66919Y13995D01*
X-66823Y13935D01*
X-66725Y13878D01*
X-66625Y13825D01*
X-66523Y13775D01*
X-66419Y13729D01*
X-66314Y13687D01*
X-66208Y13648D01*
X-66100Y13613D01*
X-65991Y13582D01*
X-65881Y13554D01*
X-65770Y13531D01*
X-65659Y13511D01*
X-65547Y13495D01*
X-65434Y13483D01*
X-65321Y13475D01*
X-65208Y13471D01*
X-65094Y13471D01*
X-64981Y13475D01*
X-64868Y13483D01*
X-64755Y13495D01*
X-64643Y13511D01*
X-64532Y13531D01*
X-64421Y13554D01*
X-64311Y13582D01*
X-64202Y13613D01*
X-64094Y13648D01*
X-63988Y13687D01*
X-63883Y13729D01*
X-63779Y13775D01*
X-63677Y13825D01*
X-63577Y13878D01*
X-63479Y13935D01*
X-63383Y13995D01*
X-63289Y14058D01*
X-63198Y14125D01*
X-63108Y14194D01*
X-63021Y14267D01*
X-62937Y14343D01*
X-62856Y14422D01*
X-62777Y14503D01*
X-62701Y14587D01*
X-62628Y14674D01*
X-62559Y14764D01*
X-62492Y14855D01*
X-62429Y14949D01*
X-62369Y15045D01*
X-62312Y15143D01*
X-62259Y15243D01*
X-62209Y15345D01*
X-62163Y15449D01*
X-62121Y15554D01*
X-62082Y15660D01*
X-62047Y15768D01*
X-62016Y15877D01*
X-61988Y15987D01*
X-61965Y16098D01*
X-61945Y16209D01*
X-61929Y16321D01*
X-61917Y16434D01*
X-61909Y16547D01*
X-61905Y16660D01*
X-61905Y16774D01*
X-61909Y16887D01*
X-61917Y17000D01*
X-61929Y17113D01*
X-61945Y17225D01*
X-61965Y17336D01*
X-61988Y17447D01*
X-62016Y17557D01*
X-62047Y17666D01*
X-62082Y17774D01*
X-62121Y17880D01*
X-62163Y17985D01*
X-62209Y18089D01*
X-62259Y18191D01*
X-62312Y18291D01*
X-62369Y18389D01*
X-62429Y18485D01*
X-62492Y18579D01*
X-62559Y18670D01*
X-62628Y18760D01*
X-62701Y18847D01*
X-62777Y18931D01*
X-62856Y19012D01*
X-62937Y19091D01*
X-63021Y19167D01*
X-63108Y19240D01*
X-63197Y19309D01*
X-63289Y19376D01*
X-59779Y23257D02*
X-62970Y25491D01*
X-59780Y23257D02*
X-59699Y23197D01*
X-59620Y23135D01*
X-59543Y23069D01*
X-59469Y23001D01*
X-59398Y22930D01*
X-59330Y22856D01*
X-59264Y22779D01*
X-59202Y22700D01*
X-59142Y22619D01*
X-59086Y22535D01*
X-59033Y22450D01*
X-58984Y22362D01*
X-58938Y22273D01*
X-58895Y22181D01*
X-58856Y22088D01*
X-58821Y21994D01*
X-58789Y21899D01*
X-58761Y21802D01*
X-58737Y21704D01*
X-58717Y21606D01*
X-58700Y21506D01*
X-58688Y21406D01*
X-58679Y21306D01*
X-58674Y21205D01*
X-58673Y21105D01*
X-58676Y21004D01*
X-58683Y20904D01*
X-58694Y20804D01*
X-58708Y20704D01*
X-58727Y20605D01*
X-58749Y20507D01*
X-58775Y20410D01*
X-58805Y20313D01*
X-58838Y20219D01*
X-58875Y20125D01*
X-58916Y20033D01*
X-58961Y19942D01*
X-59008Y19854D01*
X-59060Y19767D01*
X-59114Y19683D01*
X-59172Y19600D01*
X-59233Y19520D01*
X-59297Y19442D01*
X-59364Y19367D01*
X-59433Y19294D01*
X-59506Y19225D01*
X-59581Y19158D01*
X-59659Y19094D01*
X-59739Y19033D01*
X-59822Y18975D01*
X-59906Y18921D01*
X-59993Y18869D01*
X-60081Y18822D01*
X-60172Y18777D01*
X-60264Y18736D01*
X-60357Y18699D01*
X-60452Y18666D01*
X-60549Y18636D01*
X-60646Y18610D01*
X-60744Y18588D01*
X-60843Y18569D01*
X-60943Y18555D01*
X-61043Y18544D01*
X-61143Y18537D01*
X-61244Y18534D01*
X-61344Y18535D01*
X-61445Y18540D01*
X-61545Y18549D01*
X-61645Y18561D01*
X-61745Y18578D01*
X-61843Y18598D01*
X-61941Y18622D01*
X-62038Y18650D01*
X-62133Y18682D01*
X-62227Y18717D01*
X-62320Y18756D01*
X-62412Y18799D01*
X-62501Y18845D01*
X-62589Y18894D01*
X-62674Y18947D01*
X-62758Y19003D01*
X-64885Y20493D01*
X62767Y9022D02*
X65425Y10884D01*
X65426Y10883D02*
X65517Y10950D01*
X65607Y11019D01*
X65694Y11092D01*
X65778Y11168D01*
X65859Y11247D01*
X65938Y11328D01*
X66014Y11412D01*
X66087Y11499D01*
X66156Y11589D01*
X66223Y11680D01*
X66286Y11774D01*
X66346Y11870D01*
X66403Y11968D01*
X66456Y12068D01*
X66506Y12170D01*
X66552Y12274D01*
X66594Y12379D01*
X66633Y12485D01*
X66668Y12593D01*
X66699Y12702D01*
X66727Y12812D01*
X66750Y12923D01*
X66770Y13034D01*
X66786Y13146D01*
X66798Y13259D01*
X66806Y13372D01*
X66810Y13485D01*
X66810Y13599D01*
X66806Y13712D01*
X66798Y13825D01*
X66786Y13938D01*
X66770Y14050D01*
X66750Y14161D01*
X66727Y14272D01*
X66699Y14382D01*
X66668Y14491D01*
X66633Y14599D01*
X66594Y14705D01*
X66552Y14810D01*
X66506Y14914D01*
X66456Y15016D01*
X66403Y15116D01*
X66346Y15214D01*
X66286Y15310D01*
X66223Y15404D01*
X66156Y15495D01*
X66087Y15585D01*
X66014Y15672D01*
X65938Y15756D01*
X65859Y15837D01*
X65778Y15916D01*
X65694Y15992D01*
X65607Y16065D01*
X65518Y16134D01*
X65426Y16201D01*
X65332Y16264D01*
X65236Y16324D01*
X65138Y16381D01*
X65038Y16434D01*
X64936Y16484D01*
X64832Y16530D01*
X64727Y16572D01*
X64621Y16611D01*
X64513Y16646D01*
X64404Y16677D01*
X64294Y16705D01*
X64183Y16728D01*
X64072Y16748D01*
X63960Y16764D01*
X63847Y16776D01*
X63734Y16784D01*
X63621Y16788D01*
X63507Y16788D01*
X63394Y16784D01*
X63281Y16776D01*
X63168Y16764D01*
X63056Y16748D01*
X62945Y16728D01*
X62834Y16705D01*
X62724Y16677D01*
X62615Y16646D01*
X62507Y16611D01*
X62401Y16572D01*
X62296Y16530D01*
X62192Y16484D01*
X62090Y16434D01*
X61990Y16381D01*
X61892Y16324D01*
X61796Y16264D01*
X61702Y16201D01*
X59255Y20827D02*
X56065Y18593D01*
X59256Y20827D02*
X59340Y20883D01*
X59425Y20936D01*
X59513Y20985D01*
X59602Y21031D01*
X59694Y21074D01*
X59787Y21113D01*
X59881Y21148D01*
X59976Y21180D01*
X60073Y21208D01*
X60171Y21232D01*
X60269Y21252D01*
X60369Y21269D01*
X60469Y21281D01*
X60569Y21290D01*
X60670Y21295D01*
X60770Y21296D01*
X60871Y21293D01*
X60971Y21286D01*
X61071Y21275D01*
X61171Y21261D01*
X61270Y21242D01*
X61368Y21220D01*
X61465Y21194D01*
X61562Y21164D01*
X61657Y21131D01*
X61750Y21094D01*
X61842Y21053D01*
X61933Y21008D01*
X62021Y20961D01*
X62108Y20909D01*
X62192Y20855D01*
X62275Y20797D01*
X62355Y20736D01*
X62433Y20672D01*
X62508Y20605D01*
X62581Y20536D01*
X62650Y20463D01*
X62717Y20388D01*
X62781Y20310D01*
X62842Y20230D01*
X62900Y20147D01*
X62954Y20063D01*
X63006Y19976D01*
X63053Y19888D01*
X63098Y19797D01*
X63139Y19705D01*
X63176Y19611D01*
X63209Y19517D01*
X63239Y19420D01*
X63265Y19323D01*
X63287Y19225D01*
X63306Y19126D01*
X63320Y19026D01*
X63331Y18926D01*
X63338Y18826D01*
X63341Y18725D01*
X63340Y18625D01*
X63335Y18524D01*
X63326Y18424D01*
X63314Y18324D01*
X63297Y18224D01*
X63277Y18126D01*
X63253Y18028D01*
X63225Y17931D01*
X63193Y17836D01*
X63158Y17742D01*
X63119Y17649D01*
X63076Y17557D01*
X63030Y17468D01*
X62981Y17380D01*
X62928Y17295D01*
X62872Y17211D01*
X62812Y17130D01*
X62750Y17051D01*
X62684Y16974D01*
X62616Y16900D01*
X62545Y16829D01*
X62471Y16761D01*
X62394Y16695D01*
X62315Y16633D01*
X62234Y16573D01*
X60107Y15084D01*
X64896Y24777D02*
X74788Y17439D01*
X71277Y29244D01*
X81493Y22134D02*
X84151Y23995D01*
X84152Y23995D02*
X84243Y24062D01*
X84333Y24131D01*
X84420Y24204D01*
X84504Y24280D01*
X84585Y24359D01*
X84664Y24440D01*
X84740Y24524D01*
X84813Y24611D01*
X84882Y24701D01*
X84949Y24792D01*
X85012Y24886D01*
X85072Y24982D01*
X85129Y25080D01*
X85182Y25180D01*
X85232Y25282D01*
X85278Y25386D01*
X85320Y25491D01*
X85359Y25597D01*
X85394Y25705D01*
X85425Y25814D01*
X85453Y25924D01*
X85476Y26035D01*
X85496Y26146D01*
X85512Y26258D01*
X85524Y26371D01*
X85532Y26484D01*
X85536Y26597D01*
X85536Y26711D01*
X85532Y26824D01*
X85524Y26937D01*
X85512Y27050D01*
X85496Y27162D01*
X85476Y27273D01*
X85453Y27384D01*
X85425Y27494D01*
X85394Y27603D01*
X85359Y27711D01*
X85320Y27817D01*
X85278Y27922D01*
X85232Y28026D01*
X85182Y28128D01*
X85129Y28228D01*
X85072Y28326D01*
X85012Y28422D01*
X84949Y28516D01*
X84882Y28607D01*
X84813Y28697D01*
X84740Y28784D01*
X84664Y28868D01*
X84585Y28949D01*
X84504Y29028D01*
X84420Y29104D01*
X84333Y29177D01*
X84244Y29246D01*
X84152Y29313D01*
X84058Y29376D01*
X83962Y29436D01*
X83864Y29493D01*
X83764Y29546D01*
X83662Y29596D01*
X83558Y29642D01*
X83453Y29684D01*
X83347Y29723D01*
X83239Y29758D01*
X83130Y29789D01*
X83020Y29817D01*
X82909Y29840D01*
X82798Y29860D01*
X82686Y29876D01*
X82573Y29888D01*
X82460Y29896D01*
X82347Y29900D01*
X82233Y29900D01*
X82120Y29896D01*
X82007Y29888D01*
X81894Y29876D01*
X81782Y29860D01*
X81671Y29840D01*
X81560Y29817D01*
X81450Y29789D01*
X81341Y29758D01*
X81233Y29723D01*
X81127Y29684D01*
X81022Y29642D01*
X80918Y29596D01*
X80816Y29546D01*
X80716Y29493D01*
X80618Y29436D01*
X80522Y29376D01*
X80428Y29313D01*
X77981Y33939D02*
X74791Y31705D01*
X77981Y33939D02*
X78065Y33995D01*
X78150Y34048D01*
X78238Y34097D01*
X78327Y34143D01*
X78419Y34186D01*
X78512Y34225D01*
X78606Y34260D01*
X78701Y34292D01*
X78798Y34320D01*
X78896Y34344D01*
X78994Y34364D01*
X79094Y34381D01*
X79194Y34393D01*
X79294Y34402D01*
X79395Y34407D01*
X79495Y34408D01*
X79596Y34405D01*
X79696Y34398D01*
X79796Y34387D01*
X79896Y34373D01*
X79995Y34354D01*
X80093Y34332D01*
X80190Y34306D01*
X80287Y34276D01*
X80382Y34243D01*
X80475Y34206D01*
X80567Y34165D01*
X80658Y34120D01*
X80746Y34073D01*
X80833Y34021D01*
X80917Y33967D01*
X81000Y33909D01*
X81080Y33848D01*
X81158Y33784D01*
X81233Y33717D01*
X81306Y33648D01*
X81375Y33575D01*
X81442Y33500D01*
X81506Y33422D01*
X81567Y33342D01*
X81625Y33259D01*
X81679Y33175D01*
X81731Y33088D01*
X81778Y33000D01*
X81823Y32909D01*
X81864Y32817D01*
X81901Y32723D01*
X81934Y32629D01*
X81964Y32532D01*
X81990Y32435D01*
X82012Y32337D01*
X82031Y32238D01*
X82045Y32138D01*
X82056Y32038D01*
X82063Y31938D01*
X82066Y31837D01*
X82065Y31737D01*
X82060Y31636D01*
X82051Y31536D01*
X82039Y31436D01*
X82022Y31336D01*
X82002Y31238D01*
X81978Y31140D01*
X81950Y31043D01*
X81918Y30948D01*
X81883Y30854D01*
X81844Y30761D01*
X81801Y30669D01*
X81755Y30580D01*
X81706Y30492D01*
X81653Y30407D01*
X81597Y30323D01*
X81537Y30242D01*
X81475Y30163D01*
X81409Y30086D01*
X81341Y30012D01*
X81270Y29941D01*
X81196Y29873D01*
X81119Y29807D01*
X81040Y29745D01*
X80959Y29685D01*
X80960Y29685D02*
X78833Y28196D01*
X53961Y279583D02*
X51303Y281445D01*
X53961Y279583D02*
X54055Y279520D01*
X54151Y279460D01*
X54249Y279403D01*
X54349Y279350D01*
X54451Y279300D01*
X54555Y279254D01*
X54660Y279212D01*
X54766Y279173D01*
X54874Y279138D01*
X54983Y279107D01*
X55093Y279079D01*
X55204Y279056D01*
X55315Y279036D01*
X55427Y279020D01*
X55540Y279008D01*
X55653Y279000D01*
X55766Y278996D01*
X55880Y278996D01*
X55993Y279000D01*
X56106Y279008D01*
X56219Y279020D01*
X56331Y279036D01*
X56442Y279056D01*
X56553Y279079D01*
X56663Y279107D01*
X56772Y279138D01*
X56880Y279173D01*
X56986Y279212D01*
X57091Y279254D01*
X57195Y279300D01*
X57297Y279350D01*
X57397Y279403D01*
X57495Y279460D01*
X57591Y279520D01*
X57685Y279583D01*
X57776Y279650D01*
X57866Y279719D01*
X57953Y279792D01*
X58037Y279868D01*
X58118Y279947D01*
X58197Y280028D01*
X58273Y280112D01*
X58346Y280199D01*
X58415Y280289D01*
X58482Y280380D01*
X58545Y280474D01*
X58605Y280570D01*
X58662Y280668D01*
X58715Y280768D01*
X58765Y280870D01*
X58811Y280974D01*
X58853Y281079D01*
X58892Y281185D01*
X58927Y281293D01*
X58958Y281402D01*
X58986Y281512D01*
X59009Y281623D01*
X59029Y281734D01*
X59045Y281846D01*
X59057Y281959D01*
X59065Y282072D01*
X59069Y282185D01*
X59069Y282299D01*
X59065Y282412D01*
X59057Y282525D01*
X59045Y282638D01*
X59029Y282750D01*
X59009Y282861D01*
X58986Y282972D01*
X58958Y283082D01*
X58927Y283191D01*
X58892Y283299D01*
X58853Y283405D01*
X58811Y283510D01*
X58765Y283614D01*
X58715Y283716D01*
X58662Y283816D01*
X58605Y283914D01*
X58545Y284010D01*
X58482Y284104D01*
X58415Y284195D01*
X58346Y284285D01*
X58273Y284372D01*
X58197Y284456D01*
X58118Y284537D01*
X58037Y284616D01*
X57953Y284692D01*
X57866Y284765D01*
X57777Y284834D01*
X57685Y284901D01*
X61195Y288782D02*
X58004Y291015D01*
X61194Y288782D02*
X61275Y288722D01*
X61354Y288660D01*
X61431Y288594D01*
X61505Y288526D01*
X61576Y288455D01*
X61644Y288381D01*
X61710Y288304D01*
X61772Y288225D01*
X61832Y288144D01*
X61888Y288060D01*
X61941Y287975D01*
X61990Y287887D01*
X62036Y287798D01*
X62079Y287706D01*
X62118Y287613D01*
X62153Y287519D01*
X62185Y287424D01*
X62213Y287327D01*
X62237Y287229D01*
X62257Y287131D01*
X62274Y287031D01*
X62286Y286931D01*
X62295Y286831D01*
X62300Y286731D01*
X62301Y286630D01*
X62298Y286529D01*
X62291Y286429D01*
X62280Y286329D01*
X62266Y286229D01*
X62247Y286130D01*
X62225Y286032D01*
X62199Y285935D01*
X62169Y285838D01*
X62136Y285744D01*
X62099Y285650D01*
X62058Y285558D01*
X62013Y285467D01*
X61966Y285379D01*
X61914Y285292D01*
X61860Y285208D01*
X61802Y285125D01*
X61741Y285045D01*
X61677Y284967D01*
X61610Y284892D01*
X61541Y284819D01*
X61468Y284750D01*
X61393Y284683D01*
X61315Y284619D01*
X61235Y284558D01*
X61152Y284500D01*
X61068Y284446D01*
X60981Y284394D01*
X60893Y284347D01*
X60802Y284302D01*
X60710Y284261D01*
X60616Y284224D01*
X60522Y284191D01*
X60425Y284161D01*
X60328Y284135D01*
X60230Y284113D01*
X60131Y284094D01*
X60031Y284080D01*
X59931Y284069D01*
X59831Y284062D01*
X59730Y284059D01*
X59629Y284060D01*
X59529Y284065D01*
X59429Y284074D01*
X59329Y284086D01*
X59229Y284103D01*
X59131Y284123D01*
X59033Y284147D01*
X58936Y284175D01*
X58841Y284207D01*
X58747Y284242D01*
X58654Y284281D01*
X58562Y284324D01*
X58473Y284370D01*
X58385Y284419D01*
X58300Y284472D01*
X58216Y284528D01*
X56089Y286017D01*
X66835Y284832D02*
X63324Y273027D01*
X73216Y280364D01*
X70028Y268333D02*
X72687Y266471D01*
X72781Y266408D01*
X72877Y266348D01*
X72975Y266291D01*
X73075Y266238D01*
X73177Y266188D01*
X73281Y266142D01*
X73386Y266100D01*
X73492Y266061D01*
X73600Y266026D01*
X73709Y265995D01*
X73819Y265967D01*
X73930Y265944D01*
X74041Y265924D01*
X74153Y265908D01*
X74266Y265896D01*
X74379Y265888D01*
X74492Y265884D01*
X74606Y265884D01*
X74719Y265888D01*
X74832Y265896D01*
X74945Y265908D01*
X75057Y265924D01*
X75168Y265944D01*
X75279Y265967D01*
X75389Y265995D01*
X75498Y266026D01*
X75606Y266061D01*
X75712Y266100D01*
X75817Y266142D01*
X75921Y266188D01*
X76023Y266238D01*
X76123Y266291D01*
X76221Y266348D01*
X76317Y266408D01*
X76411Y266471D01*
X76502Y266538D01*
X76592Y266607D01*
X76679Y266680D01*
X76763Y266756D01*
X76844Y266835D01*
X76923Y266916D01*
X76999Y267000D01*
X77072Y267087D01*
X77141Y267177D01*
X77208Y267268D01*
X77271Y267362D01*
X77331Y267458D01*
X77388Y267556D01*
X77441Y267656D01*
X77491Y267758D01*
X77537Y267862D01*
X77579Y267967D01*
X77618Y268073D01*
X77653Y268181D01*
X77684Y268290D01*
X77712Y268400D01*
X77735Y268511D01*
X77755Y268622D01*
X77771Y268734D01*
X77783Y268847D01*
X77791Y268960D01*
X77795Y269073D01*
X77795Y269187D01*
X77791Y269300D01*
X77783Y269413D01*
X77771Y269526D01*
X77755Y269638D01*
X77735Y269749D01*
X77712Y269860D01*
X77684Y269970D01*
X77653Y270079D01*
X77618Y270187D01*
X77579Y270293D01*
X77537Y270398D01*
X77491Y270502D01*
X77441Y270604D01*
X77388Y270704D01*
X77331Y270802D01*
X77271Y270898D01*
X77208Y270992D01*
X77141Y271083D01*
X77072Y271173D01*
X76999Y271260D01*
X76923Y271344D01*
X76844Y271425D01*
X76763Y271504D01*
X76679Y271580D01*
X76592Y271653D01*
X76503Y271722D01*
X76411Y271789D01*
X79920Y275670D02*
X76730Y277903D01*
X79920Y275670D02*
X80001Y275610D01*
X80080Y275548D01*
X80157Y275482D01*
X80231Y275414D01*
X80302Y275343D01*
X80370Y275269D01*
X80436Y275192D01*
X80498Y275113D01*
X80558Y275032D01*
X80614Y274948D01*
X80667Y274863D01*
X80716Y274775D01*
X80762Y274686D01*
X80805Y274594D01*
X80844Y274501D01*
X80879Y274407D01*
X80911Y274312D01*
X80939Y274215D01*
X80963Y274117D01*
X80983Y274019D01*
X81000Y273919D01*
X81012Y273819D01*
X81021Y273719D01*
X81026Y273619D01*
X81027Y273518D01*
X81024Y273417D01*
X81017Y273317D01*
X81006Y273217D01*
X80992Y273117D01*
X80973Y273018D01*
X80951Y272920D01*
X80925Y272823D01*
X80895Y272726D01*
X80862Y272632D01*
X80825Y272538D01*
X80784Y272446D01*
X80739Y272355D01*
X80692Y272267D01*
X80640Y272180D01*
X80586Y272096D01*
X80528Y272013D01*
X80467Y271933D01*
X80403Y271855D01*
X80336Y271780D01*
X80267Y271707D01*
X80194Y271638D01*
X80119Y271571D01*
X80041Y271507D01*
X79961Y271446D01*
X79878Y271388D01*
X79794Y271334D01*
X79707Y271282D01*
X79619Y271235D01*
X79528Y271190D01*
X79436Y271149D01*
X79342Y271112D01*
X79248Y271079D01*
X79151Y271049D01*
X79054Y271023D01*
X78956Y271001D01*
X78857Y270982D01*
X78757Y270968D01*
X78657Y270957D01*
X78557Y270950D01*
X78456Y270947D01*
X78355Y270948D01*
X78255Y270953D01*
X78155Y270962D01*
X78055Y270974D01*
X77955Y270991D01*
X77857Y271011D01*
X77759Y271035D01*
X77662Y271063D01*
X77567Y271095D01*
X77473Y271130D01*
X77380Y271169D01*
X77288Y271212D01*
X77199Y271258D01*
X77111Y271307D01*
X77026Y271360D01*
X76942Y271416D01*
X74815Y272905D01*
D121*
X-11349Y35878D02*
X-11349Y18098D01*
X-11349Y35878D02*
X-6410Y35878D01*
X-6270Y35876D01*
X-6131Y35870D01*
X-5991Y35860D01*
X-5852Y35846D01*
X-5713Y35829D01*
X-5575Y35807D01*
X-5438Y35781D01*
X-5301Y35752D01*
X-5165Y35719D01*
X-5031Y35682D01*
X-4897Y35641D01*
X-4765Y35596D01*
X-4633Y35547D01*
X-4504Y35495D01*
X-4376Y35440D01*
X-4249Y35380D01*
X-4124Y35317D01*
X-4001Y35251D01*
X-3880Y35181D01*
X-3761Y35108D01*
X-3644Y35031D01*
X-3530Y34951D01*
X-3417Y34868D01*
X-3307Y34782D01*
X-3200Y34692D01*
X-3095Y34600D01*
X-2993Y34505D01*
X-2893Y34407D01*
X-2796Y34306D01*
X-2702Y34202D01*
X-2612Y34096D01*
X-2524Y33987D01*
X-2439Y33876D01*
X-2358Y33762D01*
X-2279Y33647D01*
X-2204Y33529D01*
X-2133Y33409D01*
X-2065Y33286D01*
X-2000Y33163D01*
X-1939Y33037D01*
X-1881Y32909D01*
X-1827Y32781D01*
X-1777Y32650D01*
X-1730Y32518D01*
X-1687Y32385D01*
X-1648Y32251D01*
X-1613Y32116D01*
X-1582Y31980D01*
X-1554Y31842D01*
X-1531Y31705D01*
X-1511Y31566D01*
X-1495Y31427D01*
X-1483Y31288D01*
X-1475Y31149D01*
X-1471Y31009D01*
X-1471Y30869D01*
X-1475Y30729D01*
X-1483Y30590D01*
X-1495Y30451D01*
X-1511Y30312D01*
X-1531Y30173D01*
X-1554Y30036D01*
X-1582Y29898D01*
X-1613Y29762D01*
X-1648Y29627D01*
X-1687Y29493D01*
X-1730Y29360D01*
X-1777Y29228D01*
X-1827Y29097D01*
X-1881Y28969D01*
X-1939Y28841D01*
X-2000Y28715D01*
X-2065Y28592D01*
X-2133Y28470D01*
X-2204Y28349D01*
X-2279Y28231D01*
X-2358Y28116D01*
X-2439Y28002D01*
X-2524Y27891D01*
X-2612Y27782D01*
X-2702Y27676D01*
X-2796Y27572D01*
X-2893Y27471D01*
X-2993Y27373D01*
X-3095Y27278D01*
X-3200Y27186D01*
X-3307Y27096D01*
X-3417Y27010D01*
X-3530Y26927D01*
X-3644Y26847D01*
X-3761Y26770D01*
X-3880Y26697D01*
X-4001Y26627D01*
X-4124Y26561D01*
X-4249Y26498D01*
X-4376Y26438D01*
X-4504Y26383D01*
X-4633Y26331D01*
X-4765Y26282D01*
X-4897Y26237D01*
X-5031Y26196D01*
X-5165Y26159D01*
X-5301Y26126D01*
X-5438Y26097D01*
X-5575Y26071D01*
X-5713Y26049D01*
X-5852Y26032D01*
X-5991Y26018D01*
X-6131Y26008D01*
X-6270Y26002D01*
X-6410Y26000D01*
X-11349Y26000D01*
X4646Y18098D02*
X9585Y18098D01*
X9585Y18097D02*
X9725Y18099D01*
X9864Y18105D01*
X10004Y18115D01*
X10143Y18129D01*
X10282Y18146D01*
X10420Y18168D01*
X10557Y18194D01*
X10694Y18223D01*
X10830Y18256D01*
X10964Y18293D01*
X11098Y18334D01*
X11230Y18379D01*
X11362Y18428D01*
X11491Y18480D01*
X11619Y18535D01*
X11746Y18595D01*
X11871Y18658D01*
X11994Y18724D01*
X12115Y18794D01*
X12234Y18867D01*
X12351Y18944D01*
X12465Y19024D01*
X12578Y19107D01*
X12688Y19193D01*
X12795Y19283D01*
X12900Y19375D01*
X13002Y19470D01*
X13102Y19568D01*
X13199Y19669D01*
X13293Y19773D01*
X13383Y19879D01*
X13471Y19988D01*
X13556Y20099D01*
X13637Y20213D01*
X13716Y20328D01*
X13791Y20446D01*
X13862Y20567D01*
X13930Y20689D01*
X13995Y20812D01*
X14056Y20938D01*
X14114Y21066D01*
X14168Y21194D01*
X14218Y21325D01*
X14265Y21457D01*
X14308Y21590D01*
X14347Y21724D01*
X14382Y21859D01*
X14413Y21995D01*
X14441Y22133D01*
X14464Y22270D01*
X14484Y22409D01*
X14500Y22548D01*
X14512Y22687D01*
X14520Y22826D01*
X14524Y22966D01*
X14524Y23106D01*
X14520Y23246D01*
X14512Y23385D01*
X14500Y23524D01*
X14484Y23663D01*
X14464Y23802D01*
X14441Y23939D01*
X14413Y24077D01*
X14382Y24213D01*
X14347Y24348D01*
X14308Y24482D01*
X14265Y24615D01*
X14218Y24747D01*
X14168Y24878D01*
X14114Y25006D01*
X14056Y25134D01*
X13995Y25260D01*
X13930Y25383D01*
X13862Y25506D01*
X13791Y25626D01*
X13716Y25744D01*
X13637Y25859D01*
X13556Y25973D01*
X13471Y26084D01*
X13383Y26193D01*
X13293Y26299D01*
X13199Y26403D01*
X13102Y26504D01*
X13002Y26602D01*
X12900Y26697D01*
X12795Y26789D01*
X12688Y26879D01*
X12578Y26965D01*
X12465Y27048D01*
X12351Y27128D01*
X12234Y27205D01*
X12115Y27278D01*
X11994Y27348D01*
X11871Y27414D01*
X11746Y27477D01*
X11619Y27537D01*
X11491Y27592D01*
X11362Y27644D01*
X11230Y27693D01*
X11098Y27738D01*
X10964Y27779D01*
X10830Y27816D01*
X10694Y27849D01*
X10557Y27878D01*
X10420Y27904D01*
X10282Y27926D01*
X10143Y27943D01*
X10004Y27957D01*
X9864Y27967D01*
X9725Y27973D01*
X9585Y27975D01*
X10573Y35878D02*
X4646Y35878D01*
X10573Y35877D02*
X10697Y35875D01*
X10821Y35869D01*
X10945Y35859D01*
X11068Y35846D01*
X11191Y35828D01*
X11313Y35807D01*
X11435Y35782D01*
X11556Y35753D01*
X11675Y35720D01*
X11794Y35684D01*
X11911Y35643D01*
X12027Y35600D01*
X12142Y35552D01*
X12255Y35501D01*
X12367Y35446D01*
X12476Y35388D01*
X12584Y35327D01*
X12690Y35262D01*
X12794Y35194D01*
X12895Y35122D01*
X12995Y35048D01*
X13091Y34970D01*
X13186Y34890D01*
X13278Y34806D01*
X13367Y34720D01*
X13453Y34631D01*
X13537Y34539D01*
X13617Y34444D01*
X13695Y34348D01*
X13769Y34248D01*
X13841Y34147D01*
X13909Y34043D01*
X13974Y33937D01*
X14035Y33829D01*
X14093Y33720D01*
X14148Y33608D01*
X14199Y33495D01*
X14247Y33380D01*
X14290Y33264D01*
X14331Y33147D01*
X14367Y33028D01*
X14400Y32909D01*
X14429Y32788D01*
X14454Y32666D01*
X14475Y32544D01*
X14493Y32421D01*
X14506Y32298D01*
X14516Y32174D01*
X14522Y32050D01*
X14524Y31926D01*
X14522Y31802D01*
X14516Y31678D01*
X14506Y31554D01*
X14493Y31431D01*
X14475Y31308D01*
X14454Y31186D01*
X14429Y31064D01*
X14400Y30943D01*
X14367Y30824D01*
X14331Y30705D01*
X14290Y30588D01*
X14247Y30472D01*
X14199Y30357D01*
X14148Y30244D01*
X14093Y30132D01*
X14035Y30023D01*
X13974Y29915D01*
X13909Y29809D01*
X13841Y29705D01*
X13769Y29604D01*
X13695Y29504D01*
X13617Y29408D01*
X13537Y29313D01*
X13453Y29221D01*
X13367Y29132D01*
X13278Y29046D01*
X13186Y28962D01*
X13091Y28882D01*
X12995Y28804D01*
X12895Y28730D01*
X12794Y28658D01*
X12690Y28590D01*
X12584Y28525D01*
X12476Y28464D01*
X12367Y28406D01*
X12255Y28351D01*
X12142Y28300D01*
X12027Y28252D01*
X11911Y28209D01*
X11794Y28168D01*
X11675Y28132D01*
X11556Y28099D01*
X11435Y28070D01*
X11313Y28045D01*
X11191Y28024D01*
X11068Y28006D01*
X10945Y27993D01*
X10821Y27983D01*
X10697Y27977D01*
X10573Y27975D01*
X6622Y27975D01*
X-109150Y70485D02*
X-109150Y88265D01*
X-104211Y88265D01*
X-104071Y88263D01*
X-103932Y88257D01*
X-103792Y88247D01*
X-103653Y88233D01*
X-103514Y88216D01*
X-103376Y88194D01*
X-103239Y88168D01*
X-103102Y88139D01*
X-102966Y88106D01*
X-102832Y88069D01*
X-102698Y88028D01*
X-102566Y87983D01*
X-102434Y87934D01*
X-102305Y87882D01*
X-102177Y87827D01*
X-102050Y87767D01*
X-101925Y87704D01*
X-101802Y87638D01*
X-101681Y87568D01*
X-101562Y87495D01*
X-101445Y87418D01*
X-101331Y87338D01*
X-101218Y87255D01*
X-101108Y87169D01*
X-101001Y87079D01*
X-100896Y86987D01*
X-100794Y86892D01*
X-100694Y86794D01*
X-100597Y86693D01*
X-100503Y86589D01*
X-100413Y86483D01*
X-100325Y86374D01*
X-100240Y86263D01*
X-100159Y86149D01*
X-100080Y86034D01*
X-100005Y85916D01*
X-99934Y85796D01*
X-99866Y85673D01*
X-99801Y85550D01*
X-99740Y85424D01*
X-99682Y85296D01*
X-99628Y85168D01*
X-99578Y85037D01*
X-99531Y84905D01*
X-99488Y84772D01*
X-99449Y84638D01*
X-99414Y84503D01*
X-99383Y84367D01*
X-99355Y84229D01*
X-99332Y84092D01*
X-99312Y83953D01*
X-99296Y83814D01*
X-99284Y83675D01*
X-99276Y83536D01*
X-99272Y83396D01*
X-99272Y83256D01*
X-99276Y83116D01*
X-99284Y82977D01*
X-99296Y82838D01*
X-99312Y82699D01*
X-99332Y82560D01*
X-99355Y82423D01*
X-99383Y82285D01*
X-99414Y82149D01*
X-99449Y82014D01*
X-99488Y81880D01*
X-99531Y81747D01*
X-99578Y81615D01*
X-99628Y81484D01*
X-99682Y81356D01*
X-99740Y81228D01*
X-99801Y81102D01*
X-99866Y80979D01*
X-99934Y80857D01*
X-100005Y80736D01*
X-100080Y80618D01*
X-100159Y80503D01*
X-100240Y80389D01*
X-100325Y80278D01*
X-100413Y80169D01*
X-100503Y80063D01*
X-100597Y79959D01*
X-100694Y79858D01*
X-100794Y79760D01*
X-100896Y79665D01*
X-101001Y79573D01*
X-101108Y79483D01*
X-101218Y79397D01*
X-101331Y79314D01*
X-101445Y79234D01*
X-101562Y79157D01*
X-101681Y79084D01*
X-101802Y79014D01*
X-101925Y78948D01*
X-102050Y78885D01*
X-102177Y78825D01*
X-102305Y78770D01*
X-102434Y78718D01*
X-102566Y78669D01*
X-102698Y78624D01*
X-102832Y78583D01*
X-102966Y78546D01*
X-103102Y78513D01*
X-103239Y78484D01*
X-103376Y78458D01*
X-103514Y78436D01*
X-103653Y78419D01*
X-103792Y78405D01*
X-103932Y78395D01*
X-104071Y78389D01*
X-104211Y78387D01*
X-109150Y78387D01*
X-93155Y74436D02*
X-89204Y88265D01*
X-93155Y74436D02*
X-83277Y74436D01*
X-86241Y78387D02*
X-86241Y70485D01*
X-70908Y77399D02*
X-70908Y83326D01*
X-70908Y77399D02*
X-67450Y72954D01*
X-70908Y77399D02*
X-74365Y72954D01*
X-70908Y77399D02*
X-65475Y79375D01*
X-70908Y77399D02*
X-76340Y79375D01*
X-109774Y210185D02*
X-109774Y227965D01*
X-104835Y227965D01*
X-104695Y227963D01*
X-104556Y227957D01*
X-104416Y227947D01*
X-104277Y227933D01*
X-104138Y227916D01*
X-104000Y227894D01*
X-103863Y227868D01*
X-103726Y227839D01*
X-103590Y227806D01*
X-103456Y227769D01*
X-103322Y227728D01*
X-103190Y227683D01*
X-103058Y227634D01*
X-102929Y227582D01*
X-102801Y227527D01*
X-102674Y227467D01*
X-102549Y227404D01*
X-102426Y227338D01*
X-102305Y227268D01*
X-102186Y227195D01*
X-102069Y227118D01*
X-101955Y227038D01*
X-101842Y226955D01*
X-101732Y226869D01*
X-101625Y226779D01*
X-101520Y226687D01*
X-101418Y226592D01*
X-101318Y226494D01*
X-101221Y226393D01*
X-101127Y226289D01*
X-101037Y226183D01*
X-100949Y226074D01*
X-100864Y225963D01*
X-100783Y225849D01*
X-100704Y225734D01*
X-100629Y225616D01*
X-100558Y225496D01*
X-100490Y225373D01*
X-100425Y225250D01*
X-100364Y225124D01*
X-100306Y224996D01*
X-100252Y224868D01*
X-100202Y224737D01*
X-100155Y224605D01*
X-100112Y224472D01*
X-100073Y224338D01*
X-100038Y224203D01*
X-100007Y224067D01*
X-99979Y223929D01*
X-99956Y223792D01*
X-99936Y223653D01*
X-99920Y223514D01*
X-99908Y223375D01*
X-99900Y223236D01*
X-99896Y223096D01*
X-99896Y222956D01*
X-99900Y222816D01*
X-99908Y222677D01*
X-99920Y222538D01*
X-99936Y222399D01*
X-99956Y222260D01*
X-99979Y222123D01*
X-100007Y221985D01*
X-100038Y221849D01*
X-100073Y221714D01*
X-100112Y221580D01*
X-100155Y221447D01*
X-100202Y221315D01*
X-100252Y221184D01*
X-100306Y221056D01*
X-100364Y220928D01*
X-100425Y220802D01*
X-100490Y220679D01*
X-100558Y220557D01*
X-100629Y220436D01*
X-100704Y220318D01*
X-100783Y220203D01*
X-100864Y220089D01*
X-100949Y219978D01*
X-101037Y219869D01*
X-101127Y219763D01*
X-101221Y219659D01*
X-101318Y219558D01*
X-101418Y219460D01*
X-101520Y219365D01*
X-101625Y219273D01*
X-101732Y219183D01*
X-101842Y219097D01*
X-101955Y219014D01*
X-102069Y218934D01*
X-102186Y218857D01*
X-102305Y218784D01*
X-102426Y218714D01*
X-102549Y218648D01*
X-102674Y218585D01*
X-102801Y218525D01*
X-102929Y218470D01*
X-103058Y218418D01*
X-103190Y218369D01*
X-103322Y218324D01*
X-103456Y218283D01*
X-103590Y218246D01*
X-103726Y218213D01*
X-103863Y218184D01*
X-104000Y218158D01*
X-104138Y218136D01*
X-104277Y218119D01*
X-104416Y218105D01*
X-104556Y218095D01*
X-104695Y218089D01*
X-104835Y218087D01*
X-109774Y218087D01*
X-93779Y210185D02*
X-87852Y210185D01*
X-87728Y210187D01*
X-87604Y210193D01*
X-87480Y210203D01*
X-87357Y210216D01*
X-87234Y210234D01*
X-87112Y210255D01*
X-86990Y210280D01*
X-86869Y210309D01*
X-86750Y210342D01*
X-86631Y210378D01*
X-86514Y210419D01*
X-86398Y210462D01*
X-86283Y210510D01*
X-86170Y210561D01*
X-86058Y210616D01*
X-85949Y210674D01*
X-85841Y210735D01*
X-85735Y210800D01*
X-85631Y210868D01*
X-85530Y210940D01*
X-85430Y211014D01*
X-85334Y211092D01*
X-85239Y211172D01*
X-85147Y211256D01*
X-85058Y211342D01*
X-84972Y211431D01*
X-84888Y211523D01*
X-84808Y211618D01*
X-84730Y211714D01*
X-84656Y211814D01*
X-84584Y211915D01*
X-84516Y212019D01*
X-84451Y212125D01*
X-84390Y212233D01*
X-84332Y212342D01*
X-84277Y212454D01*
X-84226Y212567D01*
X-84178Y212682D01*
X-84135Y212798D01*
X-84094Y212915D01*
X-84058Y213034D01*
X-84025Y213153D01*
X-83996Y213274D01*
X-83971Y213396D01*
X-83950Y213518D01*
X-83932Y213641D01*
X-83919Y213764D01*
X-83909Y213888D01*
X-83903Y214012D01*
X-83901Y214136D01*
X-83901Y216112D01*
X-83903Y216236D01*
X-83909Y216360D01*
X-83919Y216484D01*
X-83932Y216607D01*
X-83950Y216730D01*
X-83971Y216852D01*
X-83996Y216974D01*
X-84025Y217095D01*
X-84058Y217214D01*
X-84094Y217333D01*
X-84135Y217450D01*
X-84178Y217566D01*
X-84226Y217681D01*
X-84277Y217794D01*
X-84332Y217906D01*
X-84390Y218015D01*
X-84451Y218123D01*
X-84516Y218229D01*
X-84584Y218333D01*
X-84656Y218434D01*
X-84730Y218534D01*
X-84808Y218630D01*
X-84888Y218725D01*
X-84972Y218817D01*
X-85058Y218906D01*
X-85147Y218992D01*
X-85239Y219076D01*
X-85334Y219156D01*
X-85430Y219234D01*
X-85530Y219308D01*
X-85631Y219380D01*
X-85735Y219448D01*
X-85841Y219513D01*
X-85949Y219574D01*
X-86058Y219632D01*
X-86170Y219687D01*
X-86283Y219738D01*
X-86398Y219786D01*
X-86514Y219829D01*
X-86631Y219870D01*
X-86750Y219906D01*
X-86869Y219939D01*
X-86990Y219968D01*
X-87112Y219993D01*
X-87234Y220014D01*
X-87357Y220032D01*
X-87480Y220045D01*
X-87604Y220055D01*
X-87728Y220061D01*
X-87852Y220063D01*
X-93779Y220063D01*
X-93779Y227965D01*
X-83901Y227965D01*
X-14524Y264160D02*
X-14524Y281940D01*
X-9585Y281940D01*
X-9445Y281938D01*
X-9306Y281932D01*
X-9166Y281922D01*
X-9027Y281908D01*
X-8888Y281891D01*
X-8750Y281869D01*
X-8613Y281843D01*
X-8476Y281814D01*
X-8340Y281781D01*
X-8206Y281744D01*
X-8072Y281703D01*
X-7940Y281658D01*
X-7808Y281609D01*
X-7679Y281557D01*
X-7551Y281502D01*
X-7424Y281442D01*
X-7299Y281379D01*
X-7176Y281313D01*
X-7055Y281243D01*
X-6936Y281170D01*
X-6819Y281093D01*
X-6705Y281013D01*
X-6592Y280930D01*
X-6482Y280844D01*
X-6375Y280754D01*
X-6270Y280662D01*
X-6168Y280567D01*
X-6068Y280469D01*
X-5971Y280368D01*
X-5877Y280264D01*
X-5787Y280158D01*
X-5699Y280049D01*
X-5614Y279938D01*
X-5533Y279824D01*
X-5454Y279709D01*
X-5379Y279591D01*
X-5308Y279471D01*
X-5240Y279348D01*
X-5175Y279225D01*
X-5114Y279099D01*
X-5056Y278971D01*
X-5002Y278843D01*
X-4952Y278712D01*
X-4905Y278580D01*
X-4862Y278447D01*
X-4823Y278313D01*
X-4788Y278178D01*
X-4757Y278042D01*
X-4729Y277904D01*
X-4706Y277767D01*
X-4686Y277628D01*
X-4670Y277489D01*
X-4658Y277350D01*
X-4650Y277211D01*
X-4646Y277071D01*
X-4646Y276931D01*
X-4650Y276791D01*
X-4658Y276652D01*
X-4670Y276513D01*
X-4686Y276374D01*
X-4706Y276235D01*
X-4729Y276098D01*
X-4757Y275960D01*
X-4788Y275824D01*
X-4823Y275689D01*
X-4862Y275555D01*
X-4905Y275422D01*
X-4952Y275290D01*
X-5002Y275159D01*
X-5056Y275031D01*
X-5114Y274903D01*
X-5175Y274777D01*
X-5240Y274654D01*
X-5308Y274532D01*
X-5379Y274411D01*
X-5454Y274293D01*
X-5533Y274178D01*
X-5614Y274064D01*
X-5699Y273953D01*
X-5787Y273844D01*
X-5877Y273738D01*
X-5971Y273634D01*
X-6068Y273533D01*
X-6168Y273435D01*
X-6270Y273340D01*
X-6375Y273248D01*
X-6482Y273158D01*
X-6592Y273072D01*
X-6705Y272989D01*
X-6819Y272909D01*
X-6936Y272832D01*
X-7055Y272759D01*
X-7176Y272689D01*
X-7299Y272623D01*
X-7424Y272560D01*
X-7551Y272500D01*
X-7679Y272445D01*
X-7808Y272393D01*
X-7940Y272344D01*
X-8072Y272299D01*
X-8206Y272258D01*
X-8340Y272221D01*
X-8476Y272188D01*
X-8613Y272159D01*
X-8750Y272133D01*
X-8888Y272111D01*
X-9027Y272094D01*
X-9166Y272080D01*
X-9306Y272070D01*
X-9445Y272064D01*
X-9585Y272062D01*
X-14524Y272062D01*
X1471Y274038D02*
X7398Y274038D01*
X7522Y274036D01*
X7646Y274030D01*
X7770Y274020D01*
X7893Y274007D01*
X8016Y273989D01*
X8138Y273968D01*
X8260Y273943D01*
X8381Y273914D01*
X8500Y273881D01*
X8619Y273845D01*
X8736Y273804D01*
X8852Y273761D01*
X8967Y273713D01*
X9080Y273662D01*
X9192Y273607D01*
X9301Y273549D01*
X9409Y273488D01*
X9515Y273423D01*
X9619Y273355D01*
X9720Y273283D01*
X9820Y273209D01*
X9916Y273131D01*
X10011Y273051D01*
X10103Y272967D01*
X10192Y272881D01*
X10278Y272792D01*
X10362Y272700D01*
X10442Y272605D01*
X10520Y272509D01*
X10594Y272409D01*
X10666Y272308D01*
X10734Y272204D01*
X10799Y272098D01*
X10860Y271990D01*
X10918Y271881D01*
X10973Y271769D01*
X11024Y271656D01*
X11072Y271541D01*
X11115Y271425D01*
X11156Y271308D01*
X11192Y271189D01*
X11225Y271070D01*
X11254Y270949D01*
X11279Y270827D01*
X11300Y270705D01*
X11318Y270582D01*
X11331Y270459D01*
X11341Y270335D01*
X11347Y270211D01*
X11349Y270087D01*
X11349Y269099D01*
X11347Y268959D01*
X11341Y268820D01*
X11331Y268680D01*
X11317Y268541D01*
X11300Y268402D01*
X11278Y268264D01*
X11252Y268127D01*
X11223Y267990D01*
X11190Y267854D01*
X11153Y267720D01*
X11112Y267586D01*
X11067Y267454D01*
X11018Y267322D01*
X10966Y267193D01*
X10911Y267065D01*
X10851Y266938D01*
X10788Y266813D01*
X10722Y266690D01*
X10652Y266569D01*
X10579Y266450D01*
X10502Y266333D01*
X10422Y266219D01*
X10339Y266106D01*
X10253Y265996D01*
X10163Y265889D01*
X10071Y265784D01*
X9976Y265682D01*
X9878Y265582D01*
X9777Y265485D01*
X9673Y265391D01*
X9567Y265301D01*
X9458Y265213D01*
X9347Y265128D01*
X9233Y265047D01*
X9118Y264968D01*
X9000Y264893D01*
X8880Y264822D01*
X8757Y264754D01*
X8634Y264689D01*
X8508Y264628D01*
X8380Y264570D01*
X8252Y264516D01*
X8121Y264466D01*
X7989Y264419D01*
X7856Y264376D01*
X7722Y264337D01*
X7587Y264302D01*
X7451Y264271D01*
X7313Y264243D01*
X7176Y264220D01*
X7037Y264200D01*
X6898Y264184D01*
X6759Y264172D01*
X6620Y264164D01*
X6480Y264160D01*
X6340Y264160D01*
X6200Y264164D01*
X6061Y264172D01*
X5922Y264184D01*
X5783Y264200D01*
X5644Y264220D01*
X5507Y264243D01*
X5369Y264271D01*
X5233Y264302D01*
X5098Y264337D01*
X4964Y264376D01*
X4831Y264419D01*
X4699Y264466D01*
X4568Y264516D01*
X4440Y264570D01*
X4312Y264628D01*
X4186Y264689D01*
X4063Y264754D01*
X3941Y264822D01*
X3820Y264893D01*
X3702Y264968D01*
X3587Y265047D01*
X3473Y265128D01*
X3362Y265213D01*
X3253Y265301D01*
X3147Y265391D01*
X3043Y265485D01*
X2942Y265582D01*
X2844Y265682D01*
X2749Y265784D01*
X2657Y265889D01*
X2567Y265996D01*
X2481Y266106D01*
X2398Y266219D01*
X2318Y266333D01*
X2241Y266450D01*
X2168Y266569D01*
X2098Y266690D01*
X2032Y266813D01*
X1969Y266938D01*
X1909Y267065D01*
X1854Y267193D01*
X1802Y267322D01*
X1753Y267454D01*
X1708Y267586D01*
X1667Y267720D01*
X1630Y267854D01*
X1597Y267990D01*
X1568Y268127D01*
X1542Y268264D01*
X1520Y268402D01*
X1503Y268541D01*
X1489Y268680D01*
X1479Y268820D01*
X1473Y268959D01*
X1471Y269099D01*
X1471Y274038D01*
X1473Y274232D01*
X1481Y274426D01*
X1492Y274619D01*
X1509Y274813D01*
X1530Y275005D01*
X1557Y275197D01*
X1587Y275389D01*
X1623Y275580D01*
X1663Y275769D01*
X1708Y275958D01*
X1757Y276146D01*
X1811Y276332D01*
X1870Y276517D01*
X1933Y276700D01*
X2000Y276882D01*
X2073Y277062D01*
X2149Y277240D01*
X2230Y277417D01*
X2315Y277591D01*
X2404Y277763D01*
X2498Y277933D01*
X2595Y278100D01*
X2697Y278266D01*
X2803Y278428D01*
X2912Y278588D01*
X3026Y278745D01*
X3143Y278900D01*
X3265Y279051D01*
X3390Y279199D01*
X3518Y279345D01*
X3650Y279487D01*
X3785Y279626D01*
X3924Y279761D01*
X4066Y279893D01*
X4212Y280021D01*
X4360Y280146D01*
X4511Y280268D01*
X4666Y280385D01*
X4823Y280499D01*
X4983Y280608D01*
X5145Y280714D01*
X5311Y280816D01*
X5478Y280913D01*
X5648Y281007D01*
X5820Y281096D01*
X5994Y281181D01*
X6171Y281262D01*
X6349Y281338D01*
X6529Y281411D01*
X6711Y281478D01*
X6894Y281541D01*
X7079Y281600D01*
X7265Y281654D01*
X7453Y281703D01*
X7642Y281748D01*
X7831Y281788D01*
X8022Y281824D01*
X8214Y281854D01*
X8406Y281881D01*
X8598Y281902D01*
X8792Y281919D01*
X8985Y281930D01*
X9179Y281938D01*
X9373Y281940D01*
X87076Y226378D02*
X87076Y208598D01*
X87076Y226378D02*
X92015Y226378D01*
X92155Y226376D01*
X92294Y226370D01*
X92434Y226360D01*
X92573Y226346D01*
X92712Y226329D01*
X92850Y226307D01*
X92987Y226281D01*
X93124Y226252D01*
X93260Y226219D01*
X93394Y226182D01*
X93528Y226141D01*
X93660Y226096D01*
X93792Y226047D01*
X93921Y225995D01*
X94049Y225940D01*
X94176Y225880D01*
X94301Y225817D01*
X94424Y225751D01*
X94545Y225681D01*
X94664Y225608D01*
X94781Y225531D01*
X94895Y225451D01*
X95008Y225368D01*
X95118Y225282D01*
X95225Y225192D01*
X95330Y225100D01*
X95432Y225005D01*
X95532Y224907D01*
X95629Y224806D01*
X95723Y224702D01*
X95813Y224596D01*
X95901Y224487D01*
X95986Y224376D01*
X96067Y224262D01*
X96146Y224147D01*
X96221Y224029D01*
X96292Y223909D01*
X96360Y223786D01*
X96425Y223663D01*
X96486Y223537D01*
X96544Y223409D01*
X96598Y223281D01*
X96648Y223150D01*
X96695Y223018D01*
X96738Y222885D01*
X96777Y222751D01*
X96812Y222616D01*
X96843Y222480D01*
X96871Y222342D01*
X96894Y222205D01*
X96914Y222066D01*
X96930Y221927D01*
X96942Y221788D01*
X96950Y221649D01*
X96954Y221509D01*
X96954Y221369D01*
X96950Y221229D01*
X96942Y221090D01*
X96930Y220951D01*
X96914Y220812D01*
X96894Y220673D01*
X96871Y220536D01*
X96843Y220398D01*
X96812Y220262D01*
X96777Y220127D01*
X96738Y219993D01*
X96695Y219860D01*
X96648Y219728D01*
X96598Y219597D01*
X96544Y219469D01*
X96486Y219341D01*
X96425Y219215D01*
X96360Y219092D01*
X96292Y218970D01*
X96221Y218849D01*
X96146Y218731D01*
X96067Y218616D01*
X95986Y218502D01*
X95901Y218391D01*
X95813Y218282D01*
X95723Y218176D01*
X95629Y218072D01*
X95532Y217971D01*
X95432Y217873D01*
X95330Y217778D01*
X95225Y217686D01*
X95118Y217596D01*
X95008Y217510D01*
X94895Y217427D01*
X94781Y217347D01*
X94664Y217270D01*
X94545Y217197D01*
X94424Y217127D01*
X94301Y217061D01*
X94176Y216998D01*
X94049Y216938D01*
X93921Y216883D01*
X93792Y216831D01*
X93660Y216782D01*
X93528Y216737D01*
X93394Y216696D01*
X93260Y216659D01*
X93124Y216626D01*
X92987Y216597D01*
X92850Y216571D01*
X92712Y216549D01*
X92573Y216532D01*
X92434Y216518D01*
X92294Y216508D01*
X92155Y216502D01*
X92015Y216500D01*
X87076Y216500D01*
X103071Y222426D02*
X108010Y226378D01*
X108010Y208598D01*
X103071Y208598D02*
X112949Y208598D01*
X63887Y88265D02*
X63887Y70485D01*
X63887Y88265D02*
X68826Y88265D01*
X68966Y88263D01*
X69105Y88257D01*
X69245Y88247D01*
X69384Y88233D01*
X69523Y88216D01*
X69661Y88194D01*
X69798Y88168D01*
X69935Y88139D01*
X70071Y88106D01*
X70205Y88069D01*
X70339Y88028D01*
X70471Y87983D01*
X70603Y87934D01*
X70732Y87882D01*
X70860Y87827D01*
X70987Y87767D01*
X71112Y87704D01*
X71235Y87638D01*
X71356Y87568D01*
X71475Y87495D01*
X71592Y87418D01*
X71706Y87338D01*
X71819Y87255D01*
X71929Y87169D01*
X72036Y87079D01*
X72141Y86987D01*
X72243Y86892D01*
X72343Y86794D01*
X72440Y86693D01*
X72534Y86589D01*
X72624Y86483D01*
X72712Y86374D01*
X72797Y86263D01*
X72878Y86149D01*
X72957Y86034D01*
X73032Y85916D01*
X73103Y85796D01*
X73171Y85673D01*
X73236Y85550D01*
X73297Y85424D01*
X73355Y85296D01*
X73409Y85168D01*
X73459Y85037D01*
X73506Y84905D01*
X73549Y84772D01*
X73588Y84638D01*
X73623Y84503D01*
X73654Y84367D01*
X73682Y84229D01*
X73705Y84092D01*
X73725Y83953D01*
X73741Y83814D01*
X73753Y83675D01*
X73761Y83536D01*
X73765Y83396D01*
X73765Y83256D01*
X73761Y83116D01*
X73753Y82977D01*
X73741Y82838D01*
X73725Y82699D01*
X73705Y82560D01*
X73682Y82423D01*
X73654Y82285D01*
X73623Y82149D01*
X73588Y82014D01*
X73549Y81880D01*
X73506Y81747D01*
X73459Y81615D01*
X73409Y81484D01*
X73355Y81356D01*
X73297Y81228D01*
X73236Y81102D01*
X73171Y80979D01*
X73103Y80857D01*
X73032Y80736D01*
X72957Y80618D01*
X72878Y80503D01*
X72797Y80389D01*
X72712Y80278D01*
X72624Y80169D01*
X72534Y80063D01*
X72440Y79959D01*
X72343Y79858D01*
X72243Y79760D01*
X72141Y79665D01*
X72036Y79573D01*
X71929Y79483D01*
X71819Y79397D01*
X71706Y79314D01*
X71592Y79234D01*
X71475Y79157D01*
X71356Y79084D01*
X71235Y79014D01*
X71112Y78948D01*
X70987Y78885D01*
X70860Y78825D01*
X70732Y78770D01*
X70603Y78718D01*
X70471Y78669D01*
X70339Y78624D01*
X70205Y78583D01*
X70071Y78546D01*
X69935Y78513D01*
X69798Y78484D01*
X69661Y78458D01*
X69523Y78436D01*
X69384Y78419D01*
X69245Y78405D01*
X69105Y78395D01*
X68966Y78389D01*
X68826Y78387D01*
X63887Y78387D01*
X85315Y88265D02*
X85447Y88263D01*
X85578Y88257D01*
X85710Y88247D01*
X85841Y88234D01*
X85971Y88216D01*
X86101Y88195D01*
X86231Y88170D01*
X86359Y88141D01*
X86487Y88108D01*
X86613Y88071D01*
X86739Y88031D01*
X86863Y87987D01*
X86986Y87939D01*
X87107Y87888D01*
X87227Y87833D01*
X87345Y87775D01*
X87461Y87713D01*
X87575Y87647D01*
X87688Y87579D01*
X87798Y87507D01*
X87906Y87432D01*
X88012Y87353D01*
X88116Y87272D01*
X88217Y87187D01*
X88315Y87100D01*
X88411Y87009D01*
X88504Y86916D01*
X88595Y86820D01*
X88682Y86722D01*
X88767Y86621D01*
X88848Y86517D01*
X88927Y86411D01*
X89002Y86303D01*
X89074Y86193D01*
X89142Y86080D01*
X89208Y85966D01*
X89270Y85850D01*
X89328Y85732D01*
X89383Y85612D01*
X89434Y85491D01*
X89482Y85368D01*
X89526Y85244D01*
X89566Y85118D01*
X89603Y84992D01*
X89636Y84864D01*
X89665Y84736D01*
X89690Y84606D01*
X89711Y84476D01*
X89729Y84346D01*
X89742Y84215D01*
X89752Y84083D01*
X89758Y83952D01*
X89760Y83820D01*
X85315Y88265D02*
X85165Y88263D01*
X85016Y88257D01*
X84867Y88247D01*
X84718Y88234D01*
X84569Y88216D01*
X84421Y88195D01*
X84273Y88169D01*
X84127Y88140D01*
X83981Y88107D01*
X83836Y88070D01*
X83692Y88029D01*
X83549Y87985D01*
X83407Y87937D01*
X83267Y87885D01*
X83128Y87830D01*
X82990Y87771D01*
X82855Y87708D01*
X82720Y87642D01*
X82588Y87572D01*
X82458Y87499D01*
X82329Y87422D01*
X82202Y87342D01*
X82078Y87259D01*
X81956Y87173D01*
X81836Y87083D01*
X81719Y86990D01*
X81604Y86895D01*
X81491Y86796D01*
X81381Y86694D01*
X81274Y86590D01*
X81170Y86483D01*
X81068Y86373D01*
X80970Y86260D01*
X80874Y86145D01*
X80782Y86027D01*
X80692Y85907D01*
X80606Y85785D01*
X80523Y85661D01*
X80443Y85534D01*
X80367Y85406D01*
X80294Y85275D01*
X80224Y85142D01*
X80158Y85008D01*
X80096Y84872D01*
X80037Y84735D01*
X79981Y84596D01*
X79930Y84455D01*
X79882Y84314D01*
X88278Y80363D02*
X88374Y80456D01*
X88466Y80552D01*
X88556Y80651D01*
X88643Y80752D01*
X88728Y80855D01*
X88809Y80960D01*
X88887Y81068D01*
X88962Y81178D01*
X89035Y81290D01*
X89104Y81404D01*
X89170Y81520D01*
X89232Y81638D01*
X89291Y81757D01*
X89347Y81878D01*
X89400Y82001D01*
X89449Y82125D01*
X89494Y82250D01*
X89537Y82377D01*
X89575Y82504D01*
X89610Y82633D01*
X89641Y82762D01*
X89669Y82893D01*
X89693Y83024D01*
X89714Y83156D01*
X89730Y83288D01*
X89743Y83421D01*
X89753Y83554D01*
X89758Y83687D01*
X89760Y83820D01*
X88278Y80363D02*
X79882Y70485D01*
X89760Y70485D01*
X102130Y77399D02*
X102130Y83326D01*
X102130Y77399D02*
X105587Y72954D01*
X102130Y77399D02*
X98673Y72954D01*
X102130Y77399D02*
X107563Y79375D01*
X102130Y77399D02*
X96697Y79375D01*
D120*
X-75862Y266471D02*
X-78521Y264609D01*
X-75862Y266471D02*
X-75771Y266538D01*
X-75681Y266607D01*
X-75594Y266680D01*
X-75510Y266756D01*
X-75429Y266835D01*
X-75350Y266916D01*
X-75274Y267000D01*
X-75201Y267087D01*
X-75132Y267176D01*
X-75065Y267268D01*
X-75002Y267362D01*
X-74942Y267458D01*
X-74885Y267556D01*
X-74832Y267656D01*
X-74782Y267758D01*
X-74736Y267862D01*
X-74694Y267967D01*
X-74655Y268073D01*
X-74620Y268181D01*
X-74589Y268290D01*
X-74561Y268400D01*
X-74538Y268511D01*
X-74518Y268622D01*
X-74502Y268734D01*
X-74490Y268847D01*
X-74482Y268960D01*
X-74478Y269073D01*
X-74478Y269187D01*
X-74482Y269300D01*
X-74490Y269413D01*
X-74502Y269526D01*
X-74518Y269638D01*
X-74538Y269749D01*
X-74561Y269860D01*
X-74589Y269970D01*
X-74620Y270079D01*
X-74655Y270187D01*
X-74694Y270293D01*
X-74736Y270398D01*
X-74782Y270502D01*
X-74832Y270604D01*
X-74885Y270704D01*
X-74942Y270802D01*
X-75002Y270898D01*
X-75065Y270992D01*
X-75132Y271083D01*
X-75201Y271173D01*
X-75274Y271260D01*
X-75350Y271344D01*
X-75429Y271425D01*
X-75510Y271504D01*
X-75594Y271580D01*
X-75681Y271653D01*
X-75771Y271722D01*
X-75862Y271789D01*
X-75956Y271852D01*
X-76052Y271912D01*
X-76150Y271969D01*
X-76250Y272022D01*
X-76352Y272072D01*
X-76456Y272118D01*
X-76561Y272160D01*
X-76667Y272199D01*
X-76775Y272234D01*
X-76884Y272265D01*
X-76994Y272293D01*
X-77105Y272316D01*
X-77216Y272336D01*
X-77328Y272352D01*
X-77441Y272364D01*
X-77554Y272372D01*
X-77667Y272376D01*
X-77781Y272376D01*
X-77894Y272372D01*
X-78007Y272364D01*
X-78120Y272352D01*
X-78232Y272336D01*
X-78343Y272316D01*
X-78454Y272293D01*
X-78564Y272265D01*
X-78673Y272234D01*
X-78781Y272199D01*
X-78887Y272160D01*
X-78992Y272118D01*
X-79096Y272072D01*
X-79198Y272022D01*
X-79298Y271969D01*
X-79396Y271912D01*
X-79492Y271852D01*
X-79586Y271789D01*
X-82032Y276414D02*
X-85222Y274180D01*
X-82032Y276414D02*
X-81948Y276470D01*
X-81863Y276523D01*
X-81775Y276572D01*
X-81686Y276618D01*
X-81594Y276661D01*
X-81501Y276700D01*
X-81407Y276735D01*
X-81312Y276767D01*
X-81215Y276795D01*
X-81117Y276819D01*
X-81019Y276839D01*
X-80919Y276856D01*
X-80819Y276868D01*
X-80719Y276877D01*
X-80619Y276882D01*
X-80518Y276883D01*
X-80417Y276880D01*
X-80317Y276873D01*
X-80217Y276862D01*
X-80117Y276848D01*
X-80018Y276829D01*
X-79920Y276807D01*
X-79823Y276781D01*
X-79726Y276751D01*
X-79632Y276718D01*
X-79538Y276681D01*
X-79446Y276640D01*
X-79355Y276595D01*
X-79267Y276548D01*
X-79180Y276496D01*
X-79096Y276442D01*
X-79013Y276384D01*
X-78933Y276323D01*
X-78855Y276259D01*
X-78780Y276192D01*
X-78707Y276123D01*
X-78638Y276050D01*
X-78571Y275975D01*
X-78507Y275897D01*
X-78446Y275817D01*
X-78388Y275734D01*
X-78334Y275650D01*
X-78282Y275563D01*
X-78235Y275475D01*
X-78190Y275384D01*
X-78149Y275292D01*
X-78112Y275198D01*
X-78079Y275104D01*
X-78049Y275007D01*
X-78023Y274910D01*
X-78001Y274812D01*
X-77982Y274713D01*
X-77968Y274613D01*
X-77957Y274513D01*
X-77950Y274413D01*
X-77947Y274312D01*
X-77948Y274211D01*
X-77953Y274111D01*
X-77962Y274011D01*
X-77974Y273911D01*
X-77991Y273811D01*
X-78011Y273713D01*
X-78035Y273615D01*
X-78063Y273518D01*
X-78095Y273423D01*
X-78130Y273329D01*
X-78169Y273236D01*
X-78212Y273144D01*
X-78258Y273055D01*
X-78307Y272967D01*
X-78360Y272882D01*
X-78416Y272798D01*
X-78476Y272717D01*
X-78538Y272638D01*
X-78604Y272561D01*
X-78672Y272487D01*
X-78743Y272416D01*
X-78817Y272348D01*
X-78894Y272282D01*
X-78973Y272220D01*
X-79054Y272160D01*
X-79053Y272161D02*
X-81180Y270671D01*
X-76391Y280364D02*
X-66499Y273027D01*
X-70010Y284832D01*
X-59795Y277721D02*
X-57136Y279583D01*
X-57136Y279582D02*
X-57045Y279649D01*
X-56955Y279718D01*
X-56868Y279791D01*
X-56784Y279867D01*
X-56703Y279946D01*
X-56624Y280027D01*
X-56548Y280111D01*
X-56475Y280198D01*
X-56406Y280287D01*
X-56339Y280379D01*
X-56276Y280473D01*
X-56216Y280569D01*
X-56159Y280667D01*
X-56106Y280767D01*
X-56056Y280869D01*
X-56010Y280973D01*
X-55968Y281078D01*
X-55929Y281184D01*
X-55894Y281292D01*
X-55863Y281401D01*
X-55835Y281511D01*
X-55812Y281622D01*
X-55792Y281733D01*
X-55776Y281845D01*
X-55764Y281958D01*
X-55756Y282071D01*
X-55752Y282184D01*
X-55752Y282298D01*
X-55756Y282411D01*
X-55764Y282524D01*
X-55776Y282637D01*
X-55792Y282749D01*
X-55812Y282860D01*
X-55835Y282971D01*
X-55863Y283081D01*
X-55894Y283190D01*
X-55929Y283298D01*
X-55968Y283404D01*
X-56010Y283509D01*
X-56056Y283613D01*
X-56106Y283715D01*
X-56159Y283815D01*
X-56216Y283913D01*
X-56276Y284009D01*
X-56339Y284103D01*
X-56406Y284194D01*
X-56475Y284284D01*
X-56548Y284371D01*
X-56624Y284455D01*
X-56703Y284536D01*
X-56784Y284615D01*
X-56868Y284691D01*
X-56955Y284764D01*
X-57045Y284833D01*
X-57136Y284900D01*
X-57230Y284963D01*
X-57326Y285023D01*
X-57424Y285080D01*
X-57524Y285133D01*
X-57626Y285183D01*
X-57730Y285229D01*
X-57835Y285271D01*
X-57941Y285310D01*
X-58049Y285345D01*
X-58158Y285376D01*
X-58268Y285404D01*
X-58379Y285427D01*
X-58490Y285447D01*
X-58602Y285463D01*
X-58715Y285475D01*
X-58828Y285483D01*
X-58941Y285487D01*
X-59055Y285487D01*
X-59168Y285483D01*
X-59281Y285475D01*
X-59394Y285463D01*
X-59506Y285447D01*
X-59617Y285427D01*
X-59728Y285404D01*
X-59838Y285376D01*
X-59947Y285345D01*
X-60055Y285310D01*
X-60161Y285271D01*
X-60266Y285229D01*
X-60370Y285183D01*
X-60472Y285133D01*
X-60572Y285080D01*
X-60670Y285023D01*
X-60766Y284963D01*
X-60860Y284900D01*
X-63306Y289526D02*
X-66496Y287292D01*
X-63306Y289526D02*
X-63222Y289582D01*
X-63137Y289635D01*
X-63049Y289684D01*
X-62960Y289730D01*
X-62868Y289773D01*
X-62775Y289812D01*
X-62681Y289847D01*
X-62586Y289879D01*
X-62489Y289907D01*
X-62391Y289931D01*
X-62293Y289951D01*
X-62193Y289968D01*
X-62093Y289980D01*
X-61993Y289989D01*
X-61893Y289994D01*
X-61792Y289995D01*
X-61691Y289992D01*
X-61591Y289985D01*
X-61491Y289974D01*
X-61391Y289960D01*
X-61292Y289941D01*
X-61194Y289919D01*
X-61097Y289893D01*
X-61000Y289863D01*
X-60906Y289830D01*
X-60812Y289793D01*
X-60720Y289752D01*
X-60629Y289707D01*
X-60541Y289660D01*
X-60454Y289608D01*
X-60370Y289554D01*
X-60287Y289496D01*
X-60207Y289435D01*
X-60129Y289371D01*
X-60054Y289304D01*
X-59981Y289235D01*
X-59912Y289162D01*
X-59845Y289087D01*
X-59781Y289009D01*
X-59720Y288929D01*
X-59662Y288846D01*
X-59608Y288762D01*
X-59556Y288675D01*
X-59509Y288587D01*
X-59464Y288496D01*
X-59423Y288404D01*
X-59386Y288310D01*
X-59353Y288216D01*
X-59323Y288119D01*
X-59297Y288022D01*
X-59275Y287924D01*
X-59256Y287825D01*
X-59242Y287725D01*
X-59231Y287625D01*
X-59224Y287525D01*
X-59221Y287424D01*
X-59222Y287323D01*
X-59227Y287223D01*
X-59236Y287123D01*
X-59248Y287023D01*
X-59265Y286923D01*
X-59285Y286825D01*
X-59309Y286727D01*
X-59337Y286630D01*
X-59369Y286535D01*
X-59404Y286441D01*
X-59443Y286348D01*
X-59486Y286256D01*
X-59532Y286167D01*
X-59581Y286079D01*
X-59634Y285994D01*
X-59690Y285910D01*
X-59750Y285829D01*
X-59812Y285750D01*
X-59878Y285673D01*
X-59946Y285599D01*
X-60017Y285528D01*
X-60091Y285460D01*
X-60168Y285394D01*
X-60247Y285332D01*
X-60328Y285272D01*
X-62454Y283783D01*
D121*
X-69335Y171718D02*
X-73851Y171718D01*
X-69335Y171719D02*
X-69202Y171717D01*
X-69070Y171711D01*
X-68938Y171701D01*
X-68806Y171688D01*
X-68674Y171670D01*
X-68544Y171649D01*
X-68413Y171624D01*
X-68284Y171595D01*
X-68156Y171562D01*
X-68028Y171526D01*
X-67902Y171486D01*
X-67777Y171442D01*
X-67653Y171394D01*
X-67531Y171343D01*
X-67410Y171288D01*
X-67291Y171230D01*
X-67173Y171168D01*
X-67058Y171103D01*
X-66944Y171034D01*
X-66833Y170963D01*
X-66724Y170887D01*
X-66617Y170809D01*
X-66512Y170728D01*
X-66410Y170643D01*
X-66310Y170556D01*
X-66213Y170466D01*
X-66118Y170373D01*
X-66027Y170277D01*
X-65938Y170179D01*
X-65852Y170078D01*
X-65769Y169974D01*
X-65689Y169868D01*
X-65613Y169760D01*
X-65539Y169650D01*
X-65469Y169537D01*
X-65402Y169423D01*
X-65339Y169306D01*
X-65279Y169188D01*
X-65222Y169068D01*
X-65169Y168946D01*
X-65120Y168823D01*
X-65074Y168699D01*
X-65032Y168573D01*
X-64994Y168446D01*
X-64959Y168318D01*
X-64928Y168189D01*
X-64901Y168060D01*
X-64878Y167929D01*
X-64858Y167798D01*
X-64843Y167666D01*
X-64831Y167534D01*
X-64823Y167402D01*
X-64819Y167269D01*
X-64819Y167137D01*
X-64823Y167004D01*
X-64831Y166872D01*
X-64843Y166740D01*
X-64858Y166608D01*
X-64878Y166477D01*
X-64901Y166346D01*
X-64928Y166217D01*
X-64959Y166088D01*
X-64994Y165960D01*
X-65032Y165833D01*
X-65074Y165707D01*
X-65120Y165583D01*
X-65169Y165460D01*
X-65222Y165338D01*
X-65279Y165218D01*
X-65339Y165100D01*
X-65402Y164983D01*
X-65469Y164869D01*
X-65539Y164756D01*
X-65613Y164646D01*
X-65689Y164538D01*
X-65769Y164432D01*
X-65852Y164328D01*
X-65938Y164227D01*
X-66027Y164129D01*
X-66118Y164033D01*
X-66213Y163940D01*
X-66310Y163850D01*
X-66410Y163763D01*
X-66512Y163678D01*
X-66617Y163597D01*
X-66724Y163519D01*
X-66833Y163443D01*
X-66944Y163372D01*
X-67058Y163303D01*
X-67173Y163238D01*
X-67291Y163176D01*
X-67410Y163118D01*
X-67531Y163063D01*
X-67653Y163012D01*
X-67777Y162964D01*
X-67902Y162920D01*
X-68028Y162880D01*
X-68156Y162844D01*
X-68284Y162811D01*
X-68413Y162782D01*
X-68544Y162757D01*
X-68674Y162736D01*
X-68806Y162718D01*
X-68938Y162705D01*
X-69070Y162695D01*
X-69202Y162689D01*
X-69335Y162687D01*
X-73851Y162687D01*
X-73851Y178943D01*
X-69335Y178943D01*
X-69216Y178941D01*
X-69096Y178935D01*
X-68977Y178925D01*
X-68859Y178911D01*
X-68740Y178894D01*
X-68623Y178872D01*
X-68506Y178847D01*
X-68391Y178817D01*
X-68276Y178784D01*
X-68162Y178747D01*
X-68050Y178707D01*
X-67939Y178662D01*
X-67830Y178614D01*
X-67722Y178563D01*
X-67616Y178508D01*
X-67512Y178449D01*
X-67410Y178387D01*
X-67310Y178322D01*
X-67212Y178253D01*
X-67116Y178181D01*
X-67023Y178106D01*
X-66933Y178029D01*
X-66845Y177948D01*
X-66760Y177864D01*
X-66678Y177777D01*
X-66598Y177688D01*
X-66522Y177596D01*
X-66448Y177502D01*
X-66378Y177405D01*
X-66311Y177307D01*
X-66247Y177206D01*
X-66187Y177102D01*
X-66130Y176997D01*
X-66077Y176890D01*
X-66027Y176782D01*
X-65981Y176672D01*
X-65939Y176560D01*
X-65900Y176447D01*
X-65865Y176333D01*
X-65834Y176218D01*
X-65806Y176101D01*
X-65783Y175984D01*
X-65763Y175867D01*
X-65747Y175748D01*
X-65735Y175629D01*
X-65727Y175510D01*
X-65723Y175391D01*
X-65723Y175271D01*
X-65727Y175152D01*
X-65735Y175033D01*
X-65747Y174914D01*
X-65763Y174795D01*
X-65783Y174678D01*
X-65806Y174561D01*
X-65834Y174444D01*
X-65865Y174329D01*
X-65900Y174215D01*
X-65939Y174102D01*
X-65981Y173990D01*
X-66027Y173880D01*
X-66077Y173772D01*
X-66130Y173665D01*
X-66187Y173560D01*
X-66247Y173456D01*
X-66311Y173355D01*
X-66378Y173257D01*
X-66448Y173160D01*
X-66522Y173066D01*
X-66598Y172974D01*
X-66678Y172885D01*
X-66760Y172798D01*
X-66845Y172714D01*
X-66933Y172633D01*
X-67023Y172556D01*
X-67116Y172481D01*
X-67212Y172409D01*
X-67310Y172340D01*
X-67410Y172275D01*
X-67512Y172213D01*
X-67616Y172154D01*
X-67722Y172099D01*
X-67830Y172048D01*
X-67939Y172000D01*
X-68050Y171955D01*
X-68162Y171915D01*
X-68276Y171878D01*
X-68391Y171845D01*
X-68506Y171815D01*
X-68623Y171790D01*
X-68740Y171768D01*
X-68859Y171751D01*
X-68977Y171737D01*
X-69096Y171727D01*
X-69216Y171721D01*
X-69335Y171719D01*
X-70238Y137287D02*
X-66626Y137287D01*
X-70238Y137287D02*
X-70356Y137289D01*
X-70474Y137295D01*
X-70592Y137304D01*
X-70709Y137318D01*
X-70826Y137335D01*
X-70943Y137356D01*
X-71058Y137381D01*
X-71173Y137410D01*
X-71287Y137443D01*
X-71399Y137479D01*
X-71510Y137519D01*
X-71620Y137562D01*
X-71729Y137609D01*
X-71836Y137659D01*
X-71941Y137714D01*
X-72044Y137771D01*
X-72145Y137832D01*
X-72245Y137896D01*
X-72342Y137963D01*
X-72437Y138033D01*
X-72529Y138107D01*
X-72620Y138183D01*
X-72707Y138263D01*
X-72792Y138345D01*
X-72874Y138430D01*
X-72954Y138517D01*
X-73030Y138608D01*
X-73104Y138700D01*
X-73174Y138795D01*
X-73241Y138892D01*
X-73305Y138992D01*
X-73366Y139093D01*
X-73423Y139196D01*
X-73478Y139301D01*
X-73528Y139408D01*
X-73575Y139517D01*
X-73618Y139627D01*
X-73658Y139738D01*
X-73694Y139850D01*
X-73727Y139964D01*
X-73756Y140079D01*
X-73781Y140194D01*
X-73802Y140311D01*
X-73819Y140428D01*
X-73833Y140545D01*
X-73842Y140663D01*
X-73848Y140781D01*
X-73850Y140899D01*
X-73851Y140899D02*
X-73851Y149931D01*
X-73850Y149931D02*
X-73848Y150049D01*
X-73842Y150167D01*
X-73833Y150285D01*
X-73819Y150402D01*
X-73802Y150519D01*
X-73781Y150636D01*
X-73756Y150751D01*
X-73727Y150866D01*
X-73694Y150980D01*
X-73658Y151092D01*
X-73618Y151203D01*
X-73575Y151313D01*
X-73528Y151422D01*
X-73478Y151529D01*
X-73423Y151634D01*
X-73366Y151737D01*
X-73305Y151838D01*
X-73241Y151938D01*
X-73174Y152035D01*
X-73104Y152130D01*
X-73030Y152222D01*
X-72954Y152313D01*
X-72874Y152400D01*
X-72792Y152485D01*
X-72707Y152567D01*
X-72620Y152647D01*
X-72529Y152723D01*
X-72437Y152797D01*
X-72342Y152867D01*
X-72245Y152934D01*
X-72145Y152998D01*
X-72044Y153059D01*
X-71941Y153116D01*
X-71836Y153171D01*
X-71729Y153221D01*
X-71620Y153268D01*
X-71510Y153311D01*
X-71399Y153351D01*
X-71287Y153387D01*
X-71173Y153420D01*
X-71058Y153449D01*
X-70943Y153474D01*
X-70826Y153495D01*
X-70709Y153512D01*
X-70592Y153526D01*
X-70474Y153535D01*
X-70356Y153541D01*
X-70238Y153543D01*
X-66626Y153543D01*
X-73851Y128143D02*
X-73851Y111887D01*
X-73851Y128143D02*
X-69335Y128143D01*
X-69204Y128141D01*
X-69072Y128135D01*
X-68941Y128126D01*
X-68811Y128112D01*
X-68680Y128095D01*
X-68551Y128074D01*
X-68422Y128050D01*
X-68294Y128021D01*
X-68166Y127989D01*
X-68040Y127953D01*
X-67915Y127914D01*
X-67790Y127871D01*
X-67668Y127824D01*
X-67546Y127774D01*
X-67426Y127720D01*
X-67308Y127663D01*
X-67192Y127602D01*
X-67077Y127538D01*
X-66964Y127471D01*
X-66853Y127400D01*
X-66745Y127326D01*
X-66638Y127249D01*
X-66534Y127169D01*
X-66432Y127086D01*
X-66333Y127001D01*
X-66236Y126912D01*
X-66142Y126820D01*
X-66050Y126726D01*
X-65961Y126629D01*
X-65876Y126530D01*
X-65793Y126428D01*
X-65713Y126324D01*
X-65636Y126217D01*
X-65562Y126109D01*
X-65491Y125998D01*
X-65424Y125885D01*
X-65360Y125770D01*
X-65299Y125654D01*
X-65242Y125536D01*
X-65188Y125416D01*
X-65138Y125294D01*
X-65091Y125172D01*
X-65048Y125047D01*
X-65009Y124922D01*
X-64973Y124796D01*
X-64941Y124668D01*
X-64912Y124540D01*
X-64888Y124411D01*
X-64867Y124282D01*
X-64850Y124151D01*
X-64836Y124021D01*
X-64827Y123890D01*
X-64821Y123758D01*
X-64819Y123627D01*
X-64819Y116403D01*
X-64821Y116272D01*
X-64827Y116140D01*
X-64836Y116009D01*
X-64850Y115879D01*
X-64867Y115748D01*
X-64888Y115619D01*
X-64912Y115490D01*
X-64941Y115362D01*
X-64973Y115234D01*
X-65009Y115108D01*
X-65048Y114983D01*
X-65091Y114858D01*
X-65138Y114736D01*
X-65188Y114614D01*
X-65242Y114494D01*
X-65299Y114376D01*
X-65360Y114260D01*
X-65424Y114145D01*
X-65491Y114032D01*
X-65562Y113921D01*
X-65636Y113813D01*
X-65713Y113706D01*
X-65793Y113602D01*
X-65876Y113500D01*
X-65961Y113401D01*
X-66050Y113304D01*
X-66142Y113210D01*
X-66236Y113118D01*
X-66333Y113029D01*
X-66432Y112944D01*
X-66534Y112861D01*
X-66638Y112781D01*
X-66745Y112704D01*
X-66853Y112630D01*
X-66964Y112559D01*
X-67077Y112492D01*
X-67192Y112428D01*
X-67308Y112367D01*
X-67426Y112310D01*
X-67546Y112256D01*
X-67668Y112206D01*
X-67790Y112159D01*
X-67915Y112116D01*
X-68040Y112077D01*
X-68166Y112041D01*
X-68294Y112009D01*
X-68422Y111980D01*
X-68551Y111956D01*
X-68680Y111935D01*
X-68811Y111918D01*
X-68941Y111904D01*
X-69072Y111895D01*
X-69204Y111889D01*
X-69335Y111887D01*
X-73851Y111887D01*
D122*
X26988Y154686D02*
X26988Y162306D01*
D123*
X30766Y131416D02*
X30766Y129779D01*
X30764Y129701D01*
X30759Y129623D01*
X30749Y129546D01*
X30736Y129469D01*
X30720Y129393D01*
X30700Y129318D01*
X30676Y129244D01*
X30649Y129171D01*
X30618Y129099D01*
X30584Y129029D01*
X30547Y128961D01*
X30506Y128894D01*
X30462Y128829D01*
X30416Y128767D01*
X30366Y128707D01*
X30314Y128649D01*
X30259Y128594D01*
X30201Y128542D01*
X30141Y128492D01*
X30079Y128446D01*
X30014Y128402D01*
X29948Y128361D01*
X29879Y128324D01*
X29809Y128290D01*
X29737Y128259D01*
X29664Y128232D01*
X29590Y128208D01*
X29515Y128188D01*
X29439Y128172D01*
X29362Y128159D01*
X29285Y128149D01*
X29207Y128144D01*
X29129Y128142D01*
X29129Y128143D02*
X25037Y128143D01*
X25037Y128142D02*
X24957Y128144D01*
X24877Y128150D01*
X24797Y128160D01*
X24718Y128173D01*
X24639Y128191D01*
X24562Y128212D01*
X24486Y128238D01*
X24411Y128267D01*
X24337Y128299D01*
X24265Y128335D01*
X24195Y128375D01*
X24128Y128418D01*
X24062Y128464D01*
X23999Y128514D01*
X23938Y128566D01*
X23879Y128621D01*
X23824Y128680D01*
X23772Y128740D01*
X23722Y128804D01*
X23676Y128869D01*
X23633Y128937D01*
X23593Y129007D01*
X23557Y129079D01*
X23525Y129153D01*
X23496Y129227D01*
X23471Y129304D01*
X23449Y129381D01*
X23431Y129460D01*
X23418Y129539D01*
X23408Y129618D01*
X23402Y129699D01*
X23400Y129779D01*
X23400Y131416D01*
X25037Y134262D02*
X23400Y136308D01*
X30766Y136308D01*
X30766Y134262D02*
X30766Y138354D01*
X27083Y141577D02*
X26930Y141579D01*
X26777Y141585D01*
X26625Y141594D01*
X26472Y141608D01*
X26320Y141625D01*
X26169Y141646D01*
X26018Y141671D01*
X25868Y141700D01*
X25718Y141732D01*
X25570Y141769D01*
X25422Y141809D01*
X25275Y141852D01*
X25130Y141900D01*
X24986Y141951D01*
X24843Y142005D01*
X24701Y142064D01*
X24562Y142125D01*
X24423Y142191D01*
X24353Y142217D01*
X24283Y142247D01*
X24216Y142280D01*
X24150Y142316D01*
X24086Y142355D01*
X24024Y142398D01*
X23965Y142444D01*
X23907Y142492D01*
X23853Y142543D01*
X23800Y142597D01*
X23751Y142654D01*
X23704Y142713D01*
X23661Y142774D01*
X23620Y142837D01*
X23583Y142902D01*
X23548Y142969D01*
X23518Y143038D01*
X23490Y143108D01*
X23467Y143179D01*
X23446Y143251D01*
X23430Y143324D01*
X23417Y143398D01*
X23407Y143473D01*
X23402Y143548D01*
X23400Y143623D01*
X23402Y143698D01*
X23407Y143773D01*
X23417Y143848D01*
X23430Y143922D01*
X23446Y143995D01*
X23467Y144067D01*
X23490Y144138D01*
X23518Y144208D01*
X23548Y144277D01*
X23583Y144344D01*
X23620Y144409D01*
X23661Y144472D01*
X23704Y144533D01*
X23751Y144592D01*
X23800Y144649D01*
X23853Y144703D01*
X23907Y144754D01*
X23965Y144803D01*
X24024Y144848D01*
X24086Y144891D01*
X24150Y144930D01*
X24216Y144967D01*
X24284Y144999D01*
X24353Y145029D01*
X24423Y145055D01*
X24561Y145120D01*
X24701Y145182D01*
X24843Y145240D01*
X24986Y145295D01*
X25130Y145346D01*
X25275Y145394D01*
X25422Y145437D01*
X25569Y145477D01*
X25718Y145514D01*
X25868Y145546D01*
X26018Y145575D01*
X26169Y145600D01*
X26320Y145621D01*
X26472Y145638D01*
X26625Y145652D01*
X26777Y145661D01*
X26930Y145667D01*
X27083Y145669D01*
X27083Y141577D02*
X27236Y141579D01*
X27389Y141585D01*
X27541Y141594D01*
X27694Y141608D01*
X27846Y141625D01*
X27997Y141646D01*
X28148Y141671D01*
X28298Y141700D01*
X28448Y141732D01*
X28596Y141769D01*
X28744Y141809D01*
X28891Y141852D01*
X29036Y141900D01*
X29180Y141951D01*
X29323Y142005D01*
X29465Y142064D01*
X29604Y142125D01*
X29743Y142191D01*
X29814Y142217D01*
X29883Y142247D01*
X29950Y142280D01*
X30016Y142316D01*
X30080Y142355D01*
X30142Y142398D01*
X30201Y142444D01*
X30259Y142492D01*
X30313Y142543D01*
X30366Y142597D01*
X30415Y142654D01*
X30462Y142713D01*
X30505Y142774D01*
X30546Y142837D01*
X30583Y142902D01*
X30618Y142969D01*
X30648Y143038D01*
X30676Y143108D01*
X30699Y143179D01*
X30720Y143251D01*
X30736Y143324D01*
X30749Y143398D01*
X30759Y143473D01*
X30764Y143548D01*
X30766Y143623D01*
X29743Y145055D02*
X29605Y145120D01*
X29465Y145182D01*
X29323Y145240D01*
X29180Y145295D01*
X29036Y145346D01*
X28891Y145394D01*
X28744Y145437D01*
X28597Y145477D01*
X28448Y145514D01*
X28298Y145546D01*
X28148Y145575D01*
X27997Y145600D01*
X27846Y145621D01*
X27694Y145638D01*
X27541Y145652D01*
X27389Y145661D01*
X27236Y145667D01*
X27083Y145669D01*
X29743Y145055D02*
X29813Y145029D01*
X29883Y144999D01*
X29950Y144966D01*
X30016Y144930D01*
X30080Y144891D01*
X30142Y144848D01*
X30201Y144802D01*
X30259Y144754D01*
X30313Y144703D01*
X30366Y144649D01*
X30415Y144592D01*
X30462Y144533D01*
X30505Y144472D01*
X30546Y144409D01*
X30583Y144344D01*
X30618Y144277D01*
X30648Y144208D01*
X30676Y144138D01*
X30699Y144067D01*
X30720Y143995D01*
X30736Y143922D01*
X30749Y143848D01*
X30759Y143773D01*
X30764Y143698D01*
X30766Y143623D01*
X29129Y141986D02*
X25037Y145260D01*
D122*
X47625Y86106D02*
X47625Y78486D01*
D123*
X51610Y96474D02*
X51610Y98111D01*
X51610Y96474D02*
X51608Y96396D01*
X51603Y96318D01*
X51593Y96241D01*
X51580Y96164D01*
X51564Y96088D01*
X51544Y96013D01*
X51520Y95939D01*
X51493Y95866D01*
X51462Y95794D01*
X51428Y95724D01*
X51391Y95656D01*
X51350Y95589D01*
X51306Y95524D01*
X51260Y95462D01*
X51210Y95402D01*
X51158Y95344D01*
X51103Y95289D01*
X51045Y95237D01*
X50985Y95187D01*
X50923Y95141D01*
X50858Y95097D01*
X50792Y95056D01*
X50723Y95019D01*
X50653Y94985D01*
X50581Y94954D01*
X50508Y94927D01*
X50434Y94903D01*
X50359Y94883D01*
X50283Y94867D01*
X50206Y94854D01*
X50129Y94844D01*
X50051Y94839D01*
X49973Y94837D01*
X45881Y94837D01*
X45801Y94839D01*
X45721Y94845D01*
X45641Y94855D01*
X45562Y94868D01*
X45483Y94886D01*
X45406Y94907D01*
X45330Y94933D01*
X45255Y94962D01*
X45181Y94994D01*
X45109Y95030D01*
X45039Y95070D01*
X44972Y95113D01*
X44906Y95159D01*
X44843Y95209D01*
X44782Y95261D01*
X44723Y95316D01*
X44668Y95375D01*
X44616Y95435D01*
X44566Y95499D01*
X44520Y95564D01*
X44477Y95632D01*
X44437Y95702D01*
X44401Y95774D01*
X44369Y95848D01*
X44340Y95922D01*
X44315Y95999D01*
X44293Y96076D01*
X44275Y96155D01*
X44262Y96234D01*
X44252Y96313D01*
X44246Y96394D01*
X44244Y96474D01*
X44244Y98111D01*
X49564Y100956D02*
X49475Y100958D01*
X49386Y100964D01*
X49297Y100974D01*
X49209Y100987D01*
X49121Y101004D01*
X49034Y101026D01*
X48949Y101051D01*
X48864Y101079D01*
X48781Y101112D01*
X48699Y101148D01*
X48619Y101187D01*
X48541Y101230D01*
X48465Y101276D01*
X48390Y101326D01*
X48318Y101379D01*
X48249Y101435D01*
X48182Y101494D01*
X48117Y101555D01*
X48056Y101620D01*
X47997Y101687D01*
X47941Y101756D01*
X47888Y101828D01*
X47838Y101903D01*
X47792Y101979D01*
X47749Y102057D01*
X47710Y102137D01*
X47674Y102219D01*
X47641Y102302D01*
X47613Y102387D01*
X47588Y102472D01*
X47566Y102559D01*
X47549Y102647D01*
X47536Y102735D01*
X47526Y102824D01*
X47520Y102913D01*
X47518Y103002D01*
X47520Y103091D01*
X47526Y103180D01*
X47536Y103269D01*
X47549Y103357D01*
X47566Y103445D01*
X47588Y103532D01*
X47613Y103617D01*
X47641Y103702D01*
X47674Y103785D01*
X47710Y103867D01*
X47749Y103947D01*
X47792Y104025D01*
X47838Y104101D01*
X47888Y104176D01*
X47941Y104248D01*
X47997Y104317D01*
X48056Y104384D01*
X48117Y104449D01*
X48182Y104510D01*
X48249Y104569D01*
X48318Y104625D01*
X48390Y104678D01*
X48465Y104728D01*
X48541Y104774D01*
X48619Y104817D01*
X48699Y104856D01*
X48781Y104892D01*
X48864Y104925D01*
X48949Y104953D01*
X49034Y104978D01*
X49121Y105000D01*
X49209Y105017D01*
X49297Y105030D01*
X49386Y105040D01*
X49475Y105046D01*
X49564Y105048D01*
X49653Y105046D01*
X49742Y105040D01*
X49831Y105030D01*
X49919Y105017D01*
X50007Y105000D01*
X50094Y104978D01*
X50179Y104953D01*
X50264Y104925D01*
X50347Y104892D01*
X50429Y104856D01*
X50509Y104817D01*
X50587Y104774D01*
X50663Y104728D01*
X50738Y104678D01*
X50810Y104625D01*
X50879Y104569D01*
X50946Y104510D01*
X51011Y104449D01*
X51072Y104384D01*
X51131Y104317D01*
X51187Y104248D01*
X51240Y104176D01*
X51290Y104101D01*
X51336Y104025D01*
X51379Y103947D01*
X51418Y103867D01*
X51454Y103785D01*
X51487Y103702D01*
X51515Y103617D01*
X51540Y103532D01*
X51562Y103445D01*
X51579Y103357D01*
X51592Y103269D01*
X51602Y103180D01*
X51608Y103091D01*
X51610Y103002D01*
X51608Y102913D01*
X51602Y102824D01*
X51592Y102735D01*
X51579Y102647D01*
X51562Y102559D01*
X51540Y102472D01*
X51515Y102387D01*
X51487Y102302D01*
X51454Y102219D01*
X51418Y102137D01*
X51379Y102057D01*
X51336Y101979D01*
X51290Y101903D01*
X51240Y101828D01*
X51187Y101756D01*
X51131Y101687D01*
X51072Y101620D01*
X51011Y101555D01*
X50946Y101494D01*
X50879Y101435D01*
X50810Y101379D01*
X50738Y101326D01*
X50663Y101276D01*
X50587Y101230D01*
X50509Y101187D01*
X50429Y101148D01*
X50347Y101112D01*
X50264Y101079D01*
X50179Y101051D01*
X50094Y101026D01*
X50007Y101004D01*
X49919Y100987D01*
X49831Y100974D01*
X49742Y100964D01*
X49653Y100958D01*
X49564Y100956D01*
X45881Y101365D02*
X45802Y101367D01*
X45723Y101373D01*
X45644Y101382D01*
X45566Y101395D01*
X45489Y101413D01*
X45413Y101433D01*
X45338Y101458D01*
X45264Y101486D01*
X45191Y101517D01*
X45120Y101553D01*
X45051Y101591D01*
X44984Y101633D01*
X44919Y101678D01*
X44856Y101726D01*
X44795Y101777D01*
X44738Y101831D01*
X44682Y101887D01*
X44630Y101946D01*
X44580Y102008D01*
X44534Y102072D01*
X44490Y102138D01*
X44450Y102206D01*
X44414Y102276D01*
X44380Y102348D01*
X44350Y102422D01*
X44324Y102496D01*
X44301Y102572D01*
X44283Y102649D01*
X44267Y102726D01*
X44256Y102805D01*
X44248Y102883D01*
X44244Y102962D01*
X44244Y103042D01*
X44248Y103121D01*
X44256Y103199D01*
X44267Y103278D01*
X44283Y103355D01*
X44301Y103432D01*
X44324Y103508D01*
X44350Y103582D01*
X44380Y103656D01*
X44414Y103728D01*
X44450Y103798D01*
X44490Y103866D01*
X44534Y103932D01*
X44580Y103996D01*
X44630Y104058D01*
X44682Y104117D01*
X44738Y104173D01*
X44795Y104227D01*
X44856Y104278D01*
X44919Y104326D01*
X44984Y104371D01*
X45051Y104413D01*
X45120Y104451D01*
X45191Y104487D01*
X45264Y104518D01*
X45338Y104546D01*
X45413Y104571D01*
X45489Y104591D01*
X45566Y104609D01*
X45644Y104622D01*
X45723Y104631D01*
X45802Y104637D01*
X45881Y104639D01*
X45960Y104637D01*
X46039Y104631D01*
X46118Y104622D01*
X46196Y104609D01*
X46273Y104591D01*
X46349Y104571D01*
X46424Y104546D01*
X46498Y104518D01*
X46571Y104487D01*
X46642Y104451D01*
X46711Y104413D01*
X46778Y104371D01*
X46843Y104326D01*
X46906Y104278D01*
X46967Y104227D01*
X47024Y104173D01*
X47080Y104117D01*
X47132Y104058D01*
X47182Y103996D01*
X47228Y103932D01*
X47272Y103866D01*
X47312Y103798D01*
X47348Y103728D01*
X47382Y103656D01*
X47412Y103582D01*
X47438Y103508D01*
X47461Y103432D01*
X47479Y103355D01*
X47495Y103278D01*
X47506Y103199D01*
X47514Y103121D01*
X47518Y103042D01*
X47518Y102962D01*
X47514Y102883D01*
X47506Y102805D01*
X47495Y102726D01*
X47479Y102649D01*
X47461Y102572D01*
X47438Y102496D01*
X47412Y102422D01*
X47382Y102348D01*
X47348Y102276D01*
X47312Y102206D01*
X47272Y102138D01*
X47228Y102072D01*
X47182Y102008D01*
X47132Y101946D01*
X47080Y101887D01*
X47024Y101831D01*
X46967Y101777D01*
X46906Y101726D01*
X46843Y101678D01*
X46778Y101633D01*
X46711Y101591D01*
X46642Y101553D01*
X46571Y101517D01*
X46498Y101486D01*
X46424Y101458D01*
X46349Y101433D01*
X46273Y101413D01*
X46196Y101395D01*
X46118Y101382D01*
X46039Y101373D01*
X45960Y101367D01*
X45881Y101365D01*
D122*
X60325Y139319D02*
X60325Y146939D01*
D123*
X63310Y157561D02*
X63310Y159198D01*
X63310Y157561D02*
X63308Y157483D01*
X63303Y157405D01*
X63293Y157328D01*
X63280Y157251D01*
X63264Y157175D01*
X63244Y157100D01*
X63220Y157026D01*
X63193Y156953D01*
X63162Y156881D01*
X63128Y156811D01*
X63091Y156743D01*
X63050Y156676D01*
X63006Y156611D01*
X62960Y156549D01*
X62910Y156489D01*
X62858Y156431D01*
X62803Y156376D01*
X62745Y156324D01*
X62685Y156274D01*
X62623Y156228D01*
X62558Y156184D01*
X62492Y156143D01*
X62423Y156106D01*
X62353Y156072D01*
X62281Y156041D01*
X62208Y156014D01*
X62134Y155990D01*
X62059Y155970D01*
X61983Y155954D01*
X61906Y155941D01*
X61829Y155931D01*
X61751Y155926D01*
X61673Y155924D01*
X57580Y155924D01*
X57500Y155926D01*
X57420Y155932D01*
X57340Y155942D01*
X57261Y155955D01*
X57182Y155973D01*
X57105Y155994D01*
X57029Y156020D01*
X56954Y156049D01*
X56880Y156081D01*
X56808Y156117D01*
X56738Y156157D01*
X56671Y156200D01*
X56605Y156246D01*
X56542Y156296D01*
X56481Y156348D01*
X56422Y156403D01*
X56367Y156462D01*
X56315Y156522D01*
X56265Y156586D01*
X56219Y156651D01*
X56176Y156719D01*
X56136Y156789D01*
X56100Y156861D01*
X56068Y156935D01*
X56039Y157009D01*
X56014Y157086D01*
X55992Y157163D01*
X55974Y157242D01*
X55961Y157321D01*
X55951Y157400D01*
X55945Y157481D01*
X55943Y157561D01*
X55944Y157561D02*
X55944Y159198D01*
X57580Y162043D02*
X55944Y164089D01*
X63310Y164089D01*
X63310Y162043D02*
X63310Y166135D01*
X57580Y169358D02*
X55944Y171404D01*
X63310Y171404D01*
X63310Y169358D02*
X63310Y173450D01*
D124*
X-26313Y70763D02*
X-26313Y68263D01*
X-26313Y65763D01*
X-26313Y68263D02*
X-21313Y70763D01*
X-21313Y65763D02*
X-26313Y68263D01*
X-21313Y65763D02*
X-21313Y70763D01*
X-11313Y73263D02*
X-11313Y63263D01*
X-36313Y63263D01*
X-36313Y73263D01*
X-11313Y73263D01*
D123*
X-29144Y60450D02*
X-29144Y53084D01*
X-29144Y60450D02*
X-27098Y60450D01*
X-27009Y60448D01*
X-26920Y60442D01*
X-26831Y60432D01*
X-26743Y60419D01*
X-26655Y60402D01*
X-26568Y60380D01*
X-26483Y60355D01*
X-26398Y60327D01*
X-26315Y60294D01*
X-26233Y60258D01*
X-26153Y60219D01*
X-26075Y60176D01*
X-25999Y60130D01*
X-25924Y60080D01*
X-25852Y60027D01*
X-25783Y59971D01*
X-25716Y59912D01*
X-25651Y59851D01*
X-25590Y59786D01*
X-25531Y59719D01*
X-25475Y59650D01*
X-25422Y59578D01*
X-25372Y59503D01*
X-25326Y59427D01*
X-25283Y59349D01*
X-25244Y59269D01*
X-25208Y59187D01*
X-25175Y59104D01*
X-25147Y59019D01*
X-25122Y58934D01*
X-25100Y58847D01*
X-25083Y58759D01*
X-25070Y58671D01*
X-25060Y58582D01*
X-25054Y58493D01*
X-25052Y58404D01*
X-25052Y55130D01*
X-25054Y55041D01*
X-25060Y54952D01*
X-25070Y54863D01*
X-25083Y54775D01*
X-25100Y54687D01*
X-25122Y54600D01*
X-25147Y54515D01*
X-25175Y54430D01*
X-25208Y54347D01*
X-25244Y54265D01*
X-25283Y54185D01*
X-25326Y54107D01*
X-25372Y54031D01*
X-25422Y53956D01*
X-25475Y53884D01*
X-25531Y53815D01*
X-25590Y53748D01*
X-25651Y53683D01*
X-25716Y53622D01*
X-25783Y53563D01*
X-25852Y53507D01*
X-25924Y53454D01*
X-25999Y53404D01*
X-26075Y53358D01*
X-26153Y53315D01*
X-26233Y53276D01*
X-26315Y53240D01*
X-26398Y53207D01*
X-26483Y53179D01*
X-26568Y53154D01*
X-26655Y53132D01*
X-26743Y53115D01*
X-26831Y53102D01*
X-26920Y53092D01*
X-27009Y53086D01*
X-27098Y53084D01*
X-29144Y53084D01*
X-21585Y58813D02*
X-19539Y60450D01*
X-19539Y53084D01*
X-21585Y53084D02*
X-17493Y53084D01*
D121*
X100013Y158750D02*
X112713Y158750D01*
X119063Y152400D01*
X119063Y139700D01*
X112713Y133350D01*
X93663Y139700D02*
X93663Y152400D01*
X100013Y158750D01*
X93663Y139700D02*
X100013Y133350D01*
X112713Y133350D01*
D125*
X100536Y163640D02*
X100536Y179642D01*
X104981Y179642D01*
X105113Y179640D01*
X105244Y179634D01*
X105376Y179624D01*
X105507Y179611D01*
X105637Y179593D01*
X105767Y179572D01*
X105897Y179547D01*
X106025Y179518D01*
X106153Y179485D01*
X106279Y179448D01*
X106405Y179408D01*
X106529Y179364D01*
X106652Y179316D01*
X106773Y179265D01*
X106893Y179210D01*
X107011Y179152D01*
X107127Y179090D01*
X107241Y179024D01*
X107354Y178956D01*
X107464Y178884D01*
X107572Y178809D01*
X107678Y178730D01*
X107782Y178649D01*
X107883Y178564D01*
X107981Y178477D01*
X108077Y178386D01*
X108170Y178293D01*
X108261Y178197D01*
X108348Y178099D01*
X108433Y177998D01*
X108514Y177894D01*
X108593Y177788D01*
X108668Y177680D01*
X108740Y177570D01*
X108808Y177457D01*
X108874Y177343D01*
X108936Y177227D01*
X108994Y177109D01*
X109049Y176989D01*
X109100Y176868D01*
X109148Y176745D01*
X109192Y176621D01*
X109232Y176495D01*
X109269Y176369D01*
X109302Y176241D01*
X109331Y176113D01*
X109356Y175983D01*
X109377Y175853D01*
X109395Y175723D01*
X109408Y175592D01*
X109418Y175460D01*
X109424Y175329D01*
X109426Y175197D01*
X109424Y175065D01*
X109418Y174934D01*
X109408Y174802D01*
X109395Y174671D01*
X109377Y174541D01*
X109356Y174411D01*
X109331Y174281D01*
X109302Y174153D01*
X109269Y174025D01*
X109232Y173899D01*
X109192Y173773D01*
X109148Y173649D01*
X109100Y173526D01*
X109049Y173405D01*
X108994Y173285D01*
X108936Y173167D01*
X108874Y173051D01*
X108808Y172937D01*
X108740Y172824D01*
X108668Y172714D01*
X108593Y172606D01*
X108514Y172500D01*
X108433Y172396D01*
X108348Y172295D01*
X108261Y172197D01*
X108170Y172101D01*
X108077Y172008D01*
X107981Y171917D01*
X107883Y171830D01*
X107782Y171745D01*
X107678Y171664D01*
X107572Y171585D01*
X107464Y171510D01*
X107354Y171438D01*
X107241Y171370D01*
X107127Y171304D01*
X107011Y171242D01*
X106893Y171184D01*
X106773Y171129D01*
X106652Y171078D01*
X106529Y171030D01*
X106405Y170986D01*
X106279Y170946D01*
X106153Y170909D01*
X106025Y170876D01*
X105897Y170847D01*
X105767Y170822D01*
X105637Y170801D01*
X105507Y170783D01*
X105376Y170770D01*
X105244Y170760D01*
X105113Y170754D01*
X104981Y170752D01*
X100536Y170752D01*
X105870Y170752D02*
X109426Y163640D01*
D121*
X-79375Y163513D02*
X-79375Y176213D01*
X-79375Y163513D02*
X-85725Y157163D01*
X-98425Y157163D01*
X-104775Y163513D01*
X-85725Y157163D02*
X-79375Y150813D01*
X-79375Y138113D01*
X-85725Y131763D01*
X-98425Y131763D01*
X-104775Y138113D01*
X-104775Y150813D01*
X-98425Y157163D01*
X-98425Y182563D02*
X-85725Y182563D01*
X-79375Y176213D01*
X-98425Y182563D02*
X-104775Y176213D01*
X-104775Y163513D01*
X-85725Y131763D02*
X-79375Y125413D01*
X-79375Y112713D01*
X-85725Y106363D01*
X-98425Y106363D01*
X-104775Y112713D01*
X-104775Y125413D01*
X-98425Y131763D01*
D122*
X-3429Y65215D02*
X-3429Y58103D01*
D123*
X4159Y57928D02*
X11525Y57928D01*
X4159Y57928D02*
X4159Y59974D01*
X4161Y60063D01*
X4167Y60152D01*
X4177Y60241D01*
X4190Y60329D01*
X4207Y60417D01*
X4229Y60504D01*
X4254Y60589D01*
X4282Y60674D01*
X4315Y60757D01*
X4351Y60839D01*
X4390Y60919D01*
X4433Y60997D01*
X4479Y61073D01*
X4529Y61148D01*
X4582Y61220D01*
X4638Y61289D01*
X4697Y61356D01*
X4758Y61421D01*
X4823Y61482D01*
X4890Y61541D01*
X4959Y61597D01*
X5031Y61650D01*
X5106Y61700D01*
X5182Y61746D01*
X5260Y61789D01*
X5340Y61828D01*
X5422Y61864D01*
X5505Y61897D01*
X5590Y61925D01*
X5675Y61950D01*
X5762Y61972D01*
X5850Y61989D01*
X5938Y62002D01*
X6027Y62012D01*
X6116Y62018D01*
X6205Y62020D01*
X6294Y62018D01*
X6383Y62012D01*
X6472Y62002D01*
X6560Y61989D01*
X6648Y61972D01*
X6735Y61950D01*
X6820Y61925D01*
X6905Y61897D01*
X6988Y61864D01*
X7070Y61828D01*
X7150Y61789D01*
X7228Y61746D01*
X7304Y61700D01*
X7379Y61650D01*
X7451Y61597D01*
X7520Y61541D01*
X7587Y61482D01*
X7652Y61421D01*
X7713Y61356D01*
X7772Y61289D01*
X7828Y61220D01*
X7881Y61148D01*
X7931Y61073D01*
X7977Y60997D01*
X8020Y60919D01*
X8059Y60839D01*
X8095Y60757D01*
X8128Y60674D01*
X8156Y60589D01*
X8181Y60504D01*
X8203Y60417D01*
X8220Y60329D01*
X8233Y60241D01*
X8243Y60152D01*
X8249Y60063D01*
X8251Y59974D01*
X8252Y59974D02*
X8252Y57928D01*
X8252Y60383D02*
X11525Y62020D01*
X5796Y65192D02*
X4159Y67238D01*
X11525Y67238D01*
X11525Y65192D02*
X11525Y69284D01*
D122*
X254Y98298D02*
X254Y105410D01*
D123*
X-3191Y77163D02*
X4175Y77163D01*
X-3191Y77163D02*
X-3191Y79209D01*
X-3189Y79298D01*
X-3183Y79387D01*
X-3173Y79476D01*
X-3160Y79564D01*
X-3143Y79652D01*
X-3121Y79739D01*
X-3096Y79824D01*
X-3068Y79909D01*
X-3035Y79992D01*
X-2999Y80074D01*
X-2960Y80154D01*
X-2917Y80232D01*
X-2871Y80308D01*
X-2821Y80383D01*
X-2768Y80455D01*
X-2712Y80524D01*
X-2653Y80591D01*
X-2592Y80656D01*
X-2527Y80717D01*
X-2460Y80776D01*
X-2391Y80832D01*
X-2319Y80885D01*
X-2244Y80935D01*
X-2168Y80981D01*
X-2090Y81024D01*
X-2010Y81063D01*
X-1928Y81099D01*
X-1845Y81132D01*
X-1760Y81160D01*
X-1675Y81185D01*
X-1588Y81207D01*
X-1500Y81224D01*
X-1412Y81237D01*
X-1323Y81247D01*
X-1234Y81253D01*
X-1145Y81255D01*
X-1056Y81253D01*
X-967Y81247D01*
X-878Y81237D01*
X-790Y81224D01*
X-702Y81207D01*
X-615Y81185D01*
X-530Y81160D01*
X-445Y81132D01*
X-362Y81099D01*
X-280Y81063D01*
X-200Y81024D01*
X-122Y80981D01*
X-46Y80935D01*
X29Y80885D01*
X101Y80832D01*
X170Y80776D01*
X237Y80717D01*
X302Y80656D01*
X363Y80591D01*
X422Y80524D01*
X478Y80455D01*
X531Y80383D01*
X581Y80308D01*
X627Y80232D01*
X670Y80154D01*
X709Y80074D01*
X745Y79992D01*
X778Y79909D01*
X806Y79824D01*
X831Y79739D01*
X853Y79652D01*
X870Y79564D01*
X883Y79476D01*
X893Y79387D01*
X899Y79298D01*
X901Y79209D01*
X901Y77163D01*
X901Y79618D02*
X4175Y81255D01*
X2129Y84427D02*
X2040Y84429D01*
X1951Y84435D01*
X1862Y84445D01*
X1774Y84458D01*
X1686Y84475D01*
X1599Y84497D01*
X1514Y84522D01*
X1429Y84550D01*
X1346Y84583D01*
X1264Y84619D01*
X1184Y84658D01*
X1106Y84701D01*
X1030Y84747D01*
X955Y84797D01*
X883Y84850D01*
X814Y84906D01*
X747Y84965D01*
X682Y85026D01*
X621Y85091D01*
X562Y85158D01*
X506Y85227D01*
X453Y85299D01*
X403Y85374D01*
X357Y85450D01*
X314Y85528D01*
X275Y85608D01*
X239Y85690D01*
X206Y85773D01*
X178Y85858D01*
X153Y85943D01*
X131Y86030D01*
X114Y86118D01*
X101Y86206D01*
X91Y86295D01*
X85Y86384D01*
X83Y86473D01*
X85Y86562D01*
X91Y86651D01*
X101Y86740D01*
X114Y86828D01*
X131Y86916D01*
X153Y87003D01*
X178Y87088D01*
X206Y87173D01*
X239Y87256D01*
X275Y87338D01*
X314Y87418D01*
X357Y87496D01*
X403Y87572D01*
X453Y87647D01*
X506Y87719D01*
X562Y87788D01*
X621Y87855D01*
X682Y87920D01*
X747Y87981D01*
X814Y88040D01*
X883Y88096D01*
X955Y88149D01*
X1030Y88199D01*
X1106Y88245D01*
X1184Y88288D01*
X1264Y88327D01*
X1346Y88363D01*
X1429Y88396D01*
X1514Y88424D01*
X1599Y88449D01*
X1686Y88471D01*
X1774Y88488D01*
X1862Y88501D01*
X1951Y88511D01*
X2040Y88517D01*
X2129Y88519D01*
X2218Y88517D01*
X2307Y88511D01*
X2396Y88501D01*
X2484Y88488D01*
X2572Y88471D01*
X2659Y88449D01*
X2744Y88424D01*
X2829Y88396D01*
X2912Y88363D01*
X2994Y88327D01*
X3074Y88288D01*
X3152Y88245D01*
X3228Y88199D01*
X3303Y88149D01*
X3375Y88096D01*
X3444Y88040D01*
X3511Y87981D01*
X3576Y87920D01*
X3637Y87855D01*
X3696Y87788D01*
X3752Y87719D01*
X3805Y87647D01*
X3855Y87572D01*
X3901Y87496D01*
X3944Y87418D01*
X3983Y87338D01*
X4019Y87256D01*
X4052Y87173D01*
X4080Y87088D01*
X4105Y87003D01*
X4127Y86916D01*
X4144Y86828D01*
X4157Y86740D01*
X4167Y86651D01*
X4173Y86562D01*
X4175Y86473D01*
X4173Y86384D01*
X4167Y86295D01*
X4157Y86206D01*
X4144Y86118D01*
X4127Y86030D01*
X4105Y85943D01*
X4080Y85858D01*
X4052Y85773D01*
X4019Y85690D01*
X3983Y85608D01*
X3944Y85528D01*
X3901Y85450D01*
X3855Y85374D01*
X3805Y85299D01*
X3752Y85227D01*
X3696Y85158D01*
X3637Y85091D01*
X3576Y85026D01*
X3511Y84965D01*
X3444Y84906D01*
X3375Y84850D01*
X3303Y84797D01*
X3228Y84747D01*
X3152Y84701D01*
X3074Y84658D01*
X2994Y84619D01*
X2912Y84583D01*
X2829Y84550D01*
X2744Y84522D01*
X2659Y84497D01*
X2572Y84475D01*
X2484Y84458D01*
X2396Y84445D01*
X2307Y84435D01*
X2218Y84429D01*
X2129Y84427D01*
X-1554Y84836D02*
X-1633Y84838D01*
X-1712Y84844D01*
X-1791Y84853D01*
X-1869Y84866D01*
X-1946Y84884D01*
X-2022Y84904D01*
X-2097Y84929D01*
X-2171Y84957D01*
X-2244Y84988D01*
X-2315Y85024D01*
X-2384Y85062D01*
X-2451Y85104D01*
X-2516Y85149D01*
X-2579Y85197D01*
X-2640Y85248D01*
X-2697Y85302D01*
X-2753Y85358D01*
X-2805Y85417D01*
X-2855Y85479D01*
X-2901Y85543D01*
X-2945Y85609D01*
X-2985Y85677D01*
X-3021Y85747D01*
X-3055Y85819D01*
X-3085Y85893D01*
X-3111Y85967D01*
X-3134Y86043D01*
X-3152Y86120D01*
X-3168Y86197D01*
X-3179Y86276D01*
X-3187Y86354D01*
X-3191Y86433D01*
X-3191Y86513D01*
X-3187Y86592D01*
X-3179Y86670D01*
X-3168Y86749D01*
X-3152Y86826D01*
X-3134Y86903D01*
X-3111Y86979D01*
X-3085Y87053D01*
X-3055Y87127D01*
X-3021Y87199D01*
X-2985Y87269D01*
X-2945Y87337D01*
X-2901Y87403D01*
X-2855Y87467D01*
X-2805Y87529D01*
X-2753Y87588D01*
X-2697Y87644D01*
X-2640Y87698D01*
X-2579Y87749D01*
X-2516Y87797D01*
X-2451Y87842D01*
X-2384Y87884D01*
X-2315Y87922D01*
X-2244Y87958D01*
X-2171Y87989D01*
X-2097Y88017D01*
X-2022Y88042D01*
X-1946Y88062D01*
X-1869Y88080D01*
X-1791Y88093D01*
X-1712Y88102D01*
X-1633Y88108D01*
X-1554Y88110D01*
X-1475Y88108D01*
X-1396Y88102D01*
X-1317Y88093D01*
X-1239Y88080D01*
X-1162Y88062D01*
X-1086Y88042D01*
X-1011Y88017D01*
X-937Y87989D01*
X-864Y87958D01*
X-793Y87922D01*
X-724Y87884D01*
X-657Y87842D01*
X-592Y87797D01*
X-529Y87749D01*
X-468Y87698D01*
X-411Y87644D01*
X-355Y87588D01*
X-303Y87529D01*
X-253Y87467D01*
X-207Y87403D01*
X-163Y87337D01*
X-123Y87269D01*
X-87Y87199D01*
X-53Y87127D01*
X-23Y87053D01*
X3Y86979D01*
X26Y86903D01*
X44Y86826D01*
X60Y86749D01*
X71Y86670D01*
X79Y86592D01*
X83Y86513D01*
X83Y86433D01*
X79Y86354D01*
X71Y86276D01*
X60Y86197D01*
X44Y86120D01*
X26Y86043D01*
X3Y85967D01*
X-23Y85893D01*
X-53Y85819D01*
X-87Y85747D01*
X-123Y85677D01*
X-163Y85609D01*
X-207Y85543D01*
X-253Y85479D01*
X-303Y85417D01*
X-355Y85358D01*
X-411Y85302D01*
X-468Y85248D01*
X-529Y85197D01*
X-592Y85149D01*
X-657Y85104D01*
X-724Y85062D01*
X-793Y85024D01*
X-864Y84988D01*
X-937Y84957D01*
X-1011Y84929D01*
X-1086Y84904D01*
X-1162Y84884D01*
X-1239Y84866D01*
X-1317Y84853D01*
X-1396Y84844D01*
X-1475Y84838D01*
X-1554Y84836D01*
D122*
X14542Y98298D02*
X14542Y105410D01*
D123*
X17875Y77375D02*
X10509Y77375D01*
X10509Y79421D01*
X10511Y79510D01*
X10517Y79599D01*
X10527Y79688D01*
X10540Y79776D01*
X10557Y79864D01*
X10579Y79951D01*
X10604Y80036D01*
X10632Y80121D01*
X10665Y80204D01*
X10701Y80286D01*
X10740Y80366D01*
X10783Y80444D01*
X10829Y80520D01*
X10879Y80595D01*
X10932Y80667D01*
X10988Y80736D01*
X11047Y80803D01*
X11108Y80868D01*
X11173Y80929D01*
X11240Y80988D01*
X11309Y81044D01*
X11381Y81097D01*
X11456Y81147D01*
X11532Y81193D01*
X11610Y81236D01*
X11690Y81275D01*
X11772Y81311D01*
X11855Y81344D01*
X11940Y81372D01*
X12025Y81397D01*
X12112Y81419D01*
X12200Y81436D01*
X12288Y81449D01*
X12377Y81459D01*
X12466Y81465D01*
X12555Y81467D01*
X12644Y81465D01*
X12733Y81459D01*
X12822Y81449D01*
X12910Y81436D01*
X12998Y81419D01*
X13085Y81397D01*
X13170Y81372D01*
X13255Y81344D01*
X13338Y81311D01*
X13420Y81275D01*
X13500Y81236D01*
X13578Y81193D01*
X13654Y81147D01*
X13729Y81097D01*
X13801Y81044D01*
X13870Y80988D01*
X13937Y80929D01*
X14002Y80868D01*
X14063Y80803D01*
X14122Y80736D01*
X14178Y80667D01*
X14231Y80595D01*
X14281Y80520D01*
X14327Y80444D01*
X14370Y80366D01*
X14409Y80286D01*
X14445Y80204D01*
X14478Y80121D01*
X14506Y80036D01*
X14531Y79951D01*
X14553Y79864D01*
X14570Y79776D01*
X14583Y79688D01*
X14593Y79599D01*
X14599Y79510D01*
X14601Y79421D01*
X14602Y79421D02*
X14602Y77375D01*
X14602Y79830D02*
X17875Y81467D01*
X17875Y84639D02*
X17875Y87094D01*
X17873Y87172D01*
X17868Y87250D01*
X17858Y87327D01*
X17845Y87404D01*
X17829Y87480D01*
X17809Y87555D01*
X17785Y87629D01*
X17758Y87702D01*
X17727Y87774D01*
X17693Y87844D01*
X17656Y87913D01*
X17615Y87979D01*
X17571Y88044D01*
X17525Y88106D01*
X17475Y88166D01*
X17423Y88224D01*
X17368Y88279D01*
X17310Y88331D01*
X17250Y88381D01*
X17188Y88427D01*
X17123Y88471D01*
X17057Y88512D01*
X16988Y88549D01*
X16918Y88583D01*
X16846Y88614D01*
X16773Y88641D01*
X16699Y88665D01*
X16624Y88685D01*
X16548Y88701D01*
X16471Y88714D01*
X16394Y88724D01*
X16316Y88729D01*
X16238Y88731D01*
X15420Y88731D01*
X15340Y88729D01*
X15260Y88723D01*
X15180Y88713D01*
X15101Y88700D01*
X15022Y88682D01*
X14945Y88661D01*
X14869Y88635D01*
X14794Y88606D01*
X14720Y88574D01*
X14648Y88538D01*
X14578Y88498D01*
X14511Y88455D01*
X14445Y88409D01*
X14382Y88359D01*
X14321Y88307D01*
X14262Y88252D01*
X14207Y88193D01*
X14155Y88133D01*
X14105Y88069D01*
X14059Y88003D01*
X14016Y87936D01*
X13976Y87866D01*
X13940Y87794D01*
X13908Y87720D01*
X13879Y87646D01*
X13853Y87569D01*
X13832Y87492D01*
X13814Y87413D01*
X13801Y87334D01*
X13791Y87254D01*
X13785Y87174D01*
X13783Y87094D01*
X13783Y84639D01*
X10509Y84639D01*
X10509Y88731D01*
D122*
X-14034Y98298D02*
X-14034Y105410D01*
D123*
X-10509Y77163D02*
X-17875Y77163D01*
X-17875Y79209D01*
X-17873Y79298D01*
X-17867Y79387D01*
X-17857Y79476D01*
X-17844Y79564D01*
X-17827Y79652D01*
X-17805Y79739D01*
X-17780Y79824D01*
X-17752Y79909D01*
X-17719Y79992D01*
X-17683Y80074D01*
X-17644Y80154D01*
X-17601Y80232D01*
X-17555Y80308D01*
X-17505Y80383D01*
X-17452Y80455D01*
X-17396Y80524D01*
X-17337Y80591D01*
X-17276Y80656D01*
X-17211Y80717D01*
X-17144Y80776D01*
X-17075Y80832D01*
X-17003Y80885D01*
X-16928Y80935D01*
X-16852Y80981D01*
X-16774Y81024D01*
X-16694Y81063D01*
X-16612Y81099D01*
X-16529Y81132D01*
X-16444Y81160D01*
X-16359Y81185D01*
X-16272Y81207D01*
X-16184Y81224D01*
X-16096Y81237D01*
X-16007Y81247D01*
X-15918Y81253D01*
X-15829Y81255D01*
X-15740Y81253D01*
X-15651Y81247D01*
X-15562Y81237D01*
X-15474Y81224D01*
X-15386Y81207D01*
X-15299Y81185D01*
X-15214Y81160D01*
X-15129Y81132D01*
X-15046Y81099D01*
X-14964Y81063D01*
X-14884Y81024D01*
X-14806Y80981D01*
X-14730Y80935D01*
X-14655Y80885D01*
X-14583Y80832D01*
X-14514Y80776D01*
X-14447Y80717D01*
X-14382Y80656D01*
X-14321Y80591D01*
X-14262Y80524D01*
X-14206Y80455D01*
X-14153Y80383D01*
X-14103Y80308D01*
X-14057Y80232D01*
X-14014Y80154D01*
X-13975Y80074D01*
X-13939Y79992D01*
X-13906Y79909D01*
X-13878Y79824D01*
X-13853Y79739D01*
X-13831Y79652D01*
X-13814Y79564D01*
X-13801Y79476D01*
X-13791Y79387D01*
X-13785Y79298D01*
X-13783Y79209D01*
X-13783Y77163D01*
X-13783Y79618D02*
X-10509Y81255D01*
X-17057Y84427D02*
X-17875Y84427D01*
X-17875Y88519D01*
X-10509Y86473D01*
D122*
X28829Y98298D02*
X28829Y105410D01*
D123*
X25384Y77163D02*
X32750Y77163D01*
X25384Y77163D02*
X25384Y79209D01*
X25386Y79298D01*
X25392Y79387D01*
X25402Y79476D01*
X25415Y79564D01*
X25432Y79652D01*
X25454Y79739D01*
X25479Y79824D01*
X25507Y79909D01*
X25540Y79992D01*
X25576Y80074D01*
X25615Y80154D01*
X25658Y80232D01*
X25704Y80308D01*
X25754Y80383D01*
X25807Y80455D01*
X25863Y80524D01*
X25922Y80591D01*
X25983Y80656D01*
X26048Y80717D01*
X26115Y80776D01*
X26184Y80832D01*
X26256Y80885D01*
X26331Y80935D01*
X26407Y80981D01*
X26485Y81024D01*
X26565Y81063D01*
X26647Y81099D01*
X26730Y81132D01*
X26815Y81160D01*
X26900Y81185D01*
X26987Y81207D01*
X27075Y81224D01*
X27163Y81237D01*
X27252Y81247D01*
X27341Y81253D01*
X27430Y81255D01*
X27519Y81253D01*
X27608Y81247D01*
X27697Y81237D01*
X27785Y81224D01*
X27873Y81207D01*
X27960Y81185D01*
X28045Y81160D01*
X28130Y81132D01*
X28213Y81099D01*
X28295Y81063D01*
X28375Y81024D01*
X28453Y80981D01*
X28529Y80935D01*
X28604Y80885D01*
X28676Y80832D01*
X28745Y80776D01*
X28812Y80717D01*
X28877Y80656D01*
X28938Y80591D01*
X28997Y80524D01*
X29053Y80455D01*
X29106Y80383D01*
X29156Y80308D01*
X29202Y80232D01*
X29245Y80154D01*
X29284Y80074D01*
X29320Y79992D01*
X29353Y79909D01*
X29381Y79824D01*
X29406Y79739D01*
X29428Y79652D01*
X29445Y79564D01*
X29458Y79476D01*
X29468Y79387D01*
X29474Y79298D01*
X29476Y79209D01*
X29476Y77163D01*
X29476Y79618D02*
X32750Y81255D01*
X28658Y84427D02*
X28658Y86882D01*
X28660Y86960D01*
X28665Y87038D01*
X28675Y87115D01*
X28688Y87192D01*
X28704Y87268D01*
X28724Y87343D01*
X28748Y87417D01*
X28775Y87490D01*
X28806Y87562D01*
X28840Y87632D01*
X28877Y87701D01*
X28918Y87767D01*
X28962Y87832D01*
X29008Y87894D01*
X29058Y87954D01*
X29110Y88012D01*
X29165Y88067D01*
X29223Y88119D01*
X29283Y88169D01*
X29345Y88215D01*
X29410Y88259D01*
X29477Y88300D01*
X29545Y88337D01*
X29615Y88371D01*
X29687Y88402D01*
X29760Y88429D01*
X29834Y88453D01*
X29909Y88473D01*
X29985Y88489D01*
X30062Y88502D01*
X30139Y88512D01*
X30217Y88517D01*
X30295Y88519D01*
X30704Y88519D01*
X30793Y88517D01*
X30882Y88511D01*
X30971Y88501D01*
X31059Y88488D01*
X31147Y88471D01*
X31234Y88449D01*
X31319Y88424D01*
X31404Y88396D01*
X31487Y88363D01*
X31569Y88327D01*
X31649Y88288D01*
X31727Y88245D01*
X31803Y88199D01*
X31878Y88149D01*
X31950Y88096D01*
X32019Y88040D01*
X32086Y87981D01*
X32151Y87920D01*
X32212Y87855D01*
X32271Y87788D01*
X32327Y87719D01*
X32380Y87647D01*
X32430Y87572D01*
X32476Y87496D01*
X32519Y87418D01*
X32558Y87338D01*
X32594Y87256D01*
X32627Y87173D01*
X32655Y87088D01*
X32680Y87003D01*
X32702Y86916D01*
X32719Y86828D01*
X32732Y86740D01*
X32742Y86651D01*
X32748Y86562D01*
X32750Y86473D01*
X32748Y86384D01*
X32742Y86295D01*
X32732Y86206D01*
X32719Y86118D01*
X32702Y86030D01*
X32680Y85943D01*
X32655Y85858D01*
X32627Y85773D01*
X32594Y85690D01*
X32558Y85608D01*
X32519Y85528D01*
X32476Y85450D01*
X32430Y85374D01*
X32380Y85299D01*
X32327Y85227D01*
X32271Y85158D01*
X32212Y85091D01*
X32151Y85026D01*
X32086Y84965D01*
X32019Y84906D01*
X31950Y84850D01*
X31878Y84797D01*
X31803Y84747D01*
X31727Y84701D01*
X31649Y84658D01*
X31569Y84619D01*
X31487Y84583D01*
X31404Y84550D01*
X31319Y84522D01*
X31234Y84497D01*
X31147Y84475D01*
X31059Y84458D01*
X30971Y84445D01*
X30882Y84435D01*
X30793Y84429D01*
X30704Y84427D01*
X28658Y84427D01*
X28544Y84429D01*
X28430Y84435D01*
X28316Y84445D01*
X28202Y84459D01*
X28089Y84477D01*
X27977Y84499D01*
X27866Y84524D01*
X27756Y84554D01*
X27646Y84587D01*
X27538Y84624D01*
X27432Y84665D01*
X27326Y84710D01*
X27223Y84758D01*
X27121Y84810D01*
X27021Y84866D01*
X26923Y84924D01*
X26827Y84987D01*
X26734Y85052D01*
X26642Y85121D01*
X26554Y85193D01*
X26467Y85268D01*
X26384Y85346D01*
X26303Y85427D01*
X26225Y85510D01*
X26150Y85596D01*
X26078Y85685D01*
X26009Y85777D01*
X25944Y85870D01*
X25882Y85966D01*
X25823Y86064D01*
X25767Y86164D01*
X25715Y86266D01*
X25667Y86369D01*
X25622Y86474D01*
X25581Y86581D01*
X25544Y86689D01*
X25511Y86799D01*
X25481Y86909D01*
X25456Y87020D01*
X25434Y87132D01*
X25416Y87245D01*
X25402Y87359D01*
X25392Y87473D01*
X25386Y87587D01*
X25384Y87701D01*
D126*
X-15150Y178813D02*
X-15150Y182813D01*
X-6000Y182813D01*
X6000Y182813D02*
X15150Y182813D01*
X15150Y178813D01*
X-15150Y122813D02*
X-15150Y118813D01*
X-6000Y118813D01*
X15150Y118813D02*
X15150Y122813D01*
X15150Y118813D02*
X6000Y118813D01*
D127*
X-21000Y128313D03*
D128*
X-20998Y128269D01*
X-20992Y128226D01*
X-20983Y128184D01*
X-20970Y128142D01*
X-20953Y128102D01*
X-20933Y128063D01*
X-20910Y128026D01*
X-20883Y127992D01*
X-20854Y127959D01*
X-20821Y127930D01*
X-20787Y127903D01*
X-20750Y127880D01*
X-20711Y127860D01*
X-20671Y127843D01*
X-20629Y127830D01*
X-20587Y127821D01*
X-20544Y127815D01*
X-20500Y127813D01*
X-20456Y127815D01*
X-20413Y127821D01*
X-20371Y127830D01*
X-20329Y127843D01*
X-20289Y127860D01*
X-20250Y127880D01*
X-20213Y127903D01*
X-20179Y127930D01*
X-20146Y127959D01*
X-20117Y127992D01*
X-20090Y128026D01*
X-20067Y128063D01*
X-20047Y128102D01*
X-20030Y128142D01*
X-20017Y128184D01*
X-20008Y128226D01*
X-20002Y128269D01*
X-20000Y128313D01*
D127*
X-20000Y128313D03*
D128*
X-20002Y128357D01*
X-20008Y128400D01*
X-20017Y128442D01*
X-20030Y128484D01*
X-20047Y128524D01*
X-20067Y128563D01*
X-20090Y128600D01*
X-20117Y128634D01*
X-20146Y128667D01*
X-20179Y128696D01*
X-20213Y128723D01*
X-20250Y128746D01*
X-20289Y128766D01*
X-20329Y128783D01*
X-20371Y128796D01*
X-20413Y128805D01*
X-20456Y128811D01*
X-20500Y128813D01*
X-20544Y128811D01*
X-20587Y128805D01*
X-20629Y128796D01*
X-20671Y128783D01*
X-20711Y128766D01*
X-20750Y128746D01*
X-20787Y128723D01*
X-20821Y128696D01*
X-20854Y128667D01*
X-20883Y128634D01*
X-20910Y128600D01*
X-20933Y128563D01*
X-20953Y128524D01*
X-20970Y128484D01*
X-20983Y128442D01*
X-20992Y128400D01*
X-20998Y128357D01*
X-21000Y128313D01*
D123*
X-23763Y168403D02*
X-29083Y168403D01*
X-23763Y168403D02*
X-23674Y168405D01*
X-23585Y168411D01*
X-23496Y168421D01*
X-23408Y168434D01*
X-23320Y168451D01*
X-23233Y168473D01*
X-23148Y168498D01*
X-23063Y168526D01*
X-22980Y168559D01*
X-22898Y168595D01*
X-22818Y168634D01*
X-22740Y168677D01*
X-22664Y168723D01*
X-22589Y168773D01*
X-22517Y168826D01*
X-22448Y168882D01*
X-22381Y168941D01*
X-22316Y169002D01*
X-22255Y169067D01*
X-22196Y169134D01*
X-22140Y169203D01*
X-22087Y169275D01*
X-22037Y169350D01*
X-21991Y169426D01*
X-21948Y169504D01*
X-21909Y169584D01*
X-21873Y169666D01*
X-21840Y169749D01*
X-21812Y169834D01*
X-21787Y169919D01*
X-21765Y170006D01*
X-21748Y170094D01*
X-21735Y170182D01*
X-21725Y170271D01*
X-21719Y170360D01*
X-21717Y170449D01*
X-21719Y170538D01*
X-21725Y170627D01*
X-21735Y170716D01*
X-21748Y170804D01*
X-21765Y170892D01*
X-21787Y170979D01*
X-21812Y171064D01*
X-21840Y171149D01*
X-21873Y171232D01*
X-21909Y171314D01*
X-21948Y171394D01*
X-21991Y171472D01*
X-22037Y171548D01*
X-22087Y171623D01*
X-22140Y171695D01*
X-22196Y171764D01*
X-22255Y171831D01*
X-22316Y171896D01*
X-22381Y171957D01*
X-22448Y172016D01*
X-22517Y172072D01*
X-22589Y172125D01*
X-22664Y172175D01*
X-22740Y172221D01*
X-22818Y172264D01*
X-22898Y172303D01*
X-22980Y172339D01*
X-23063Y172372D01*
X-23148Y172400D01*
X-23233Y172425D01*
X-23320Y172447D01*
X-23408Y172464D01*
X-23496Y172477D01*
X-23585Y172487D01*
X-23674Y172493D01*
X-23763Y172495D01*
X-29083Y172495D01*
X-29084Y178212D02*
X-29082Y178297D01*
X-29076Y178382D01*
X-29066Y178466D01*
X-29053Y178550D01*
X-29035Y178634D01*
X-29014Y178716D01*
X-28989Y178797D01*
X-28960Y178877D01*
X-28927Y178956D01*
X-28891Y179033D01*
X-28851Y179108D01*
X-28808Y179182D01*
X-28762Y179253D01*
X-28712Y179322D01*
X-28659Y179389D01*
X-28603Y179453D01*
X-28544Y179514D01*
X-28483Y179573D01*
X-28419Y179629D01*
X-28352Y179682D01*
X-28283Y179732D01*
X-28212Y179778D01*
X-28138Y179821D01*
X-28063Y179861D01*
X-27986Y179897D01*
X-27907Y179930D01*
X-27827Y179959D01*
X-27746Y179984D01*
X-27664Y180005D01*
X-27580Y180023D01*
X-27496Y180036D01*
X-27412Y180046D01*
X-27327Y180052D01*
X-27242Y180054D01*
X-29083Y178212D02*
X-29081Y178116D01*
X-29075Y178020D01*
X-29065Y177925D01*
X-29052Y177830D01*
X-29034Y177735D01*
X-29013Y177642D01*
X-28988Y177549D01*
X-28959Y177458D01*
X-28927Y177367D01*
X-28891Y177278D01*
X-28851Y177191D01*
X-28808Y177105D01*
X-28762Y177021D01*
X-28712Y176939D01*
X-28658Y176859D01*
X-28602Y176782D01*
X-28542Y176707D01*
X-28480Y176634D01*
X-28414Y176564D01*
X-28346Y176496D01*
X-28275Y176431D01*
X-28202Y176370D01*
X-28126Y176311D01*
X-28047Y176255D01*
X-27967Y176203D01*
X-27884Y176154D01*
X-27800Y176108D01*
X-27714Y176066D01*
X-27626Y176028D01*
X-27537Y175993D01*
X-27446Y175961D01*
X-25810Y179440D02*
X-25869Y179500D01*
X-25931Y179557D01*
X-25995Y179612D01*
X-26062Y179663D01*
X-26131Y179712D01*
X-26201Y179758D01*
X-26274Y179801D01*
X-26348Y179841D01*
X-26424Y179877D01*
X-26502Y179910D01*
X-26581Y179940D01*
X-26661Y179967D01*
X-26742Y179990D01*
X-26824Y180009D01*
X-26906Y180025D01*
X-26990Y180038D01*
X-27074Y180047D01*
X-27158Y180052D01*
X-27242Y180054D01*
X-25809Y179440D02*
X-21717Y175962D01*
X-21717Y180054D01*
D122*
X-28321Y105410D02*
X-28321Y98298D01*
D123*
X-31369Y77163D02*
X-24003Y77163D01*
X-31369Y77163D02*
X-31369Y79209D01*
X-31367Y79298D01*
X-31361Y79387D01*
X-31351Y79476D01*
X-31338Y79564D01*
X-31321Y79652D01*
X-31299Y79739D01*
X-31274Y79824D01*
X-31246Y79909D01*
X-31213Y79992D01*
X-31177Y80074D01*
X-31138Y80154D01*
X-31095Y80232D01*
X-31049Y80308D01*
X-30999Y80383D01*
X-30946Y80455D01*
X-30890Y80524D01*
X-30831Y80591D01*
X-30770Y80656D01*
X-30705Y80717D01*
X-30638Y80776D01*
X-30569Y80832D01*
X-30497Y80885D01*
X-30422Y80935D01*
X-30346Y80981D01*
X-30268Y81024D01*
X-30188Y81063D01*
X-30106Y81099D01*
X-30023Y81132D01*
X-29938Y81160D01*
X-29853Y81185D01*
X-29766Y81207D01*
X-29678Y81224D01*
X-29590Y81237D01*
X-29501Y81247D01*
X-29412Y81253D01*
X-29323Y81255D01*
X-29234Y81253D01*
X-29145Y81247D01*
X-29056Y81237D01*
X-28968Y81224D01*
X-28880Y81207D01*
X-28793Y81185D01*
X-28708Y81160D01*
X-28623Y81132D01*
X-28540Y81099D01*
X-28458Y81063D01*
X-28378Y81024D01*
X-28300Y80981D01*
X-28224Y80935D01*
X-28149Y80885D01*
X-28077Y80832D01*
X-28008Y80776D01*
X-27941Y80717D01*
X-27876Y80656D01*
X-27815Y80591D01*
X-27756Y80524D01*
X-27700Y80455D01*
X-27647Y80383D01*
X-27597Y80308D01*
X-27551Y80232D01*
X-27508Y80154D01*
X-27469Y80074D01*
X-27433Y79992D01*
X-27400Y79909D01*
X-27372Y79824D01*
X-27347Y79739D01*
X-27325Y79652D01*
X-27308Y79564D01*
X-27295Y79476D01*
X-27285Y79387D01*
X-27279Y79298D01*
X-27277Y79209D01*
X-27277Y77163D01*
X-27277Y79618D02*
X-24003Y81255D01*
X-27277Y86064D02*
X-27277Y88519D01*
X-27277Y86064D02*
X-27279Y85986D01*
X-27284Y85908D01*
X-27294Y85831D01*
X-27307Y85754D01*
X-27323Y85678D01*
X-27343Y85603D01*
X-27367Y85529D01*
X-27394Y85456D01*
X-27425Y85384D01*
X-27459Y85314D01*
X-27496Y85245D01*
X-27537Y85179D01*
X-27581Y85114D01*
X-27627Y85052D01*
X-27677Y84992D01*
X-27729Y84934D01*
X-27784Y84879D01*
X-27842Y84827D01*
X-27902Y84777D01*
X-27964Y84731D01*
X-28029Y84687D01*
X-28096Y84646D01*
X-28164Y84609D01*
X-28234Y84575D01*
X-28306Y84544D01*
X-28379Y84517D01*
X-28453Y84493D01*
X-28528Y84473D01*
X-28604Y84457D01*
X-28681Y84444D01*
X-28758Y84434D01*
X-28836Y84429D01*
X-28914Y84427D01*
X-29323Y84427D01*
X-29412Y84429D01*
X-29501Y84435D01*
X-29590Y84445D01*
X-29678Y84458D01*
X-29766Y84475D01*
X-29853Y84497D01*
X-29938Y84522D01*
X-30023Y84550D01*
X-30106Y84583D01*
X-30188Y84619D01*
X-30268Y84658D01*
X-30346Y84701D01*
X-30422Y84747D01*
X-30497Y84797D01*
X-30569Y84850D01*
X-30638Y84906D01*
X-30705Y84965D01*
X-30770Y85026D01*
X-30831Y85091D01*
X-30890Y85158D01*
X-30946Y85227D01*
X-30999Y85299D01*
X-31049Y85374D01*
X-31095Y85450D01*
X-31138Y85528D01*
X-31177Y85608D01*
X-31213Y85690D01*
X-31246Y85773D01*
X-31274Y85858D01*
X-31299Y85943D01*
X-31321Y86030D01*
X-31338Y86118D01*
X-31351Y86206D01*
X-31361Y86295D01*
X-31367Y86384D01*
X-31369Y86473D01*
X-31367Y86562D01*
X-31361Y86651D01*
X-31351Y86740D01*
X-31338Y86828D01*
X-31321Y86916D01*
X-31299Y87003D01*
X-31274Y87088D01*
X-31246Y87173D01*
X-31213Y87256D01*
X-31177Y87338D01*
X-31138Y87418D01*
X-31095Y87496D01*
X-31049Y87572D01*
X-30999Y87647D01*
X-30946Y87719D01*
X-30890Y87788D01*
X-30831Y87855D01*
X-30770Y87920D01*
X-30705Y87981D01*
X-30638Y88040D01*
X-30569Y88096D01*
X-30497Y88149D01*
X-30422Y88199D01*
X-30346Y88245D01*
X-30268Y88288D01*
X-30188Y88327D01*
X-30106Y88363D01*
X-30023Y88396D01*
X-29938Y88424D01*
X-29853Y88449D01*
X-29766Y88471D01*
X-29678Y88488D01*
X-29590Y88501D01*
X-29501Y88511D01*
X-29412Y88517D01*
X-29323Y88519D01*
X-27277Y88519D01*
X-27165Y88517D01*
X-27054Y88511D01*
X-26942Y88502D01*
X-26831Y88489D01*
X-26721Y88471D01*
X-26611Y88451D01*
X-26502Y88426D01*
X-26394Y88398D01*
X-26287Y88366D01*
X-26181Y88330D01*
X-26076Y88291D01*
X-25973Y88248D01*
X-25871Y88202D01*
X-25771Y88152D01*
X-25672Y88099D01*
X-25576Y88042D01*
X-25481Y87983D01*
X-25389Y87920D01*
X-25299Y87854D01*
X-25211Y87785D01*
X-25125Y87713D01*
X-25042Y87638D01*
X-24962Y87560D01*
X-24884Y87480D01*
X-24809Y87397D01*
X-24737Y87311D01*
X-24668Y87223D01*
X-24602Y87133D01*
X-24539Y87041D01*
X-24480Y86946D01*
X-24423Y86850D01*
X-24370Y86751D01*
X-24320Y86651D01*
X-24274Y86549D01*
X-24231Y86446D01*
X-24192Y86341D01*
X-24156Y86235D01*
X-24124Y86128D01*
X-24096Y86020D01*
X-24071Y85911D01*
X-24051Y85801D01*
X-24033Y85691D01*
X-24020Y85580D01*
X-24011Y85468D01*
X-24005Y85357D01*
X-24003Y85245D01*
D122*
X3874Y203200D02*
X11494Y203200D01*
D123*
X-20952Y199612D02*
X-22588Y199612D01*
X-22666Y199614D01*
X-22744Y199619D01*
X-22821Y199629D01*
X-22898Y199642D01*
X-22974Y199658D01*
X-23049Y199678D01*
X-23123Y199702D01*
X-23196Y199729D01*
X-23268Y199760D01*
X-23338Y199794D01*
X-23407Y199831D01*
X-23473Y199872D01*
X-23538Y199916D01*
X-23600Y199962D01*
X-23660Y200012D01*
X-23718Y200064D01*
X-23773Y200119D01*
X-23825Y200177D01*
X-23875Y200237D01*
X-23921Y200299D01*
X-23965Y200364D01*
X-24006Y200431D01*
X-24043Y200499D01*
X-24077Y200569D01*
X-24108Y200641D01*
X-24135Y200714D01*
X-24159Y200788D01*
X-24179Y200863D01*
X-24195Y200939D01*
X-24208Y201016D01*
X-24218Y201093D01*
X-24223Y201171D01*
X-24225Y201249D01*
X-24225Y205341D01*
X-24223Y205419D01*
X-24218Y205497D01*
X-24208Y205574D01*
X-24195Y205651D01*
X-24179Y205727D01*
X-24159Y205802D01*
X-24135Y205876D01*
X-24108Y205949D01*
X-24077Y206021D01*
X-24043Y206091D01*
X-24006Y206160D01*
X-23965Y206226D01*
X-23921Y206291D01*
X-23875Y206353D01*
X-23825Y206413D01*
X-23773Y206471D01*
X-23718Y206526D01*
X-23660Y206578D01*
X-23600Y206628D01*
X-23538Y206674D01*
X-23473Y206718D01*
X-23407Y206759D01*
X-23338Y206796D01*
X-23268Y206830D01*
X-23196Y206861D01*
X-23123Y206888D01*
X-23049Y206912D01*
X-22974Y206932D01*
X-22898Y206948D01*
X-22821Y206961D01*
X-22744Y206971D01*
X-22666Y206976D01*
X-22588Y206978D01*
X-20952Y206978D01*
X-18106Y205341D02*
X-16060Y206978D01*
X-16060Y199612D01*
X-18106Y199612D02*
X-14014Y199612D01*
X-6698Y205137D02*
X-6700Y205222D01*
X-6706Y205307D01*
X-6716Y205391D01*
X-6729Y205475D01*
X-6747Y205559D01*
X-6768Y205641D01*
X-6793Y205722D01*
X-6822Y205802D01*
X-6855Y205881D01*
X-6891Y205958D01*
X-6931Y206033D01*
X-6974Y206107D01*
X-7020Y206178D01*
X-7070Y206247D01*
X-7123Y206314D01*
X-7179Y206378D01*
X-7238Y206439D01*
X-7299Y206498D01*
X-7363Y206554D01*
X-7430Y206607D01*
X-7499Y206657D01*
X-7570Y206703D01*
X-7644Y206746D01*
X-7719Y206786D01*
X-7796Y206822D01*
X-7875Y206855D01*
X-7955Y206884D01*
X-8036Y206909D01*
X-8118Y206930D01*
X-8202Y206948D01*
X-8286Y206961D01*
X-8370Y206971D01*
X-8455Y206977D01*
X-8540Y206979D01*
X-8540Y206978D02*
X-8636Y206976D01*
X-8732Y206970D01*
X-8827Y206960D01*
X-8922Y206947D01*
X-9017Y206929D01*
X-9110Y206908D01*
X-9203Y206883D01*
X-9294Y206854D01*
X-9385Y206822D01*
X-9474Y206786D01*
X-9561Y206746D01*
X-9647Y206703D01*
X-9731Y206657D01*
X-9813Y206607D01*
X-9893Y206553D01*
X-9970Y206497D01*
X-10045Y206437D01*
X-10118Y206375D01*
X-10188Y206309D01*
X-10256Y206241D01*
X-10321Y206170D01*
X-10382Y206097D01*
X-10441Y206021D01*
X-10497Y205942D01*
X-10549Y205862D01*
X-10598Y205779D01*
X-10644Y205695D01*
X-10686Y205609D01*
X-10724Y205521D01*
X-10759Y205432D01*
X-10791Y205341D01*
X-7313Y203705D02*
X-7253Y203764D01*
X-7196Y203826D01*
X-7141Y203890D01*
X-7090Y203957D01*
X-7041Y204026D01*
X-6995Y204096D01*
X-6952Y204169D01*
X-6912Y204243D01*
X-6876Y204319D01*
X-6843Y204397D01*
X-6813Y204476D01*
X-6786Y204556D01*
X-6763Y204637D01*
X-6744Y204719D01*
X-6728Y204801D01*
X-6715Y204885D01*
X-6706Y204969D01*
X-6701Y205053D01*
X-6699Y205137D01*
X-7313Y203704D02*
X-10791Y199612D01*
X-6699Y199612D01*
D122*
X-4763Y229299D02*
X-4763Y236919D01*
D123*
X-13081Y227492D02*
X-13081Y225855D01*
X-13083Y225777D01*
X-13088Y225699D01*
X-13098Y225622D01*
X-13111Y225545D01*
X-13127Y225469D01*
X-13147Y225394D01*
X-13171Y225320D01*
X-13198Y225247D01*
X-13229Y225175D01*
X-13263Y225105D01*
X-13300Y225037D01*
X-13341Y224970D01*
X-13385Y224905D01*
X-13431Y224843D01*
X-13481Y224783D01*
X-13533Y224725D01*
X-13588Y224670D01*
X-13646Y224618D01*
X-13706Y224568D01*
X-13768Y224522D01*
X-13833Y224478D01*
X-13899Y224437D01*
X-13968Y224400D01*
X-14038Y224366D01*
X-14110Y224335D01*
X-14183Y224308D01*
X-14257Y224284D01*
X-14332Y224264D01*
X-14408Y224248D01*
X-14485Y224235D01*
X-14562Y224225D01*
X-14640Y224220D01*
X-14718Y224218D01*
X-14718Y224219D02*
X-18810Y224219D01*
X-18810Y224218D02*
X-18888Y224220D01*
X-18966Y224225D01*
X-19043Y224235D01*
X-19120Y224248D01*
X-19196Y224264D01*
X-19271Y224284D01*
X-19345Y224308D01*
X-19418Y224335D01*
X-19490Y224366D01*
X-19560Y224400D01*
X-19629Y224437D01*
X-19695Y224478D01*
X-19760Y224522D01*
X-19822Y224568D01*
X-19882Y224618D01*
X-19940Y224670D01*
X-19995Y224725D01*
X-20047Y224783D01*
X-20097Y224843D01*
X-20143Y224905D01*
X-20187Y224970D01*
X-20228Y225037D01*
X-20265Y225105D01*
X-20299Y225175D01*
X-20330Y225247D01*
X-20357Y225320D01*
X-20381Y225394D01*
X-20401Y225469D01*
X-20417Y225545D01*
X-20430Y225622D01*
X-20440Y225699D01*
X-20445Y225777D01*
X-20447Y225855D01*
X-20447Y227492D01*
X-18810Y230338D02*
X-20447Y232384D01*
X-13081Y232384D01*
X-13081Y230338D02*
X-13081Y234430D01*
X-13081Y237653D02*
X-13081Y239699D01*
X-13083Y239788D01*
X-13089Y239877D01*
X-13099Y239966D01*
X-13112Y240054D01*
X-13129Y240142D01*
X-13151Y240229D01*
X-13176Y240314D01*
X-13204Y240399D01*
X-13237Y240482D01*
X-13273Y240564D01*
X-13312Y240644D01*
X-13355Y240722D01*
X-13401Y240798D01*
X-13451Y240873D01*
X-13504Y240945D01*
X-13560Y241014D01*
X-13619Y241081D01*
X-13680Y241146D01*
X-13745Y241207D01*
X-13812Y241266D01*
X-13881Y241322D01*
X-13953Y241375D01*
X-14028Y241425D01*
X-14104Y241471D01*
X-14182Y241514D01*
X-14262Y241553D01*
X-14344Y241589D01*
X-14427Y241622D01*
X-14512Y241650D01*
X-14597Y241675D01*
X-14684Y241697D01*
X-14772Y241714D01*
X-14860Y241727D01*
X-14949Y241737D01*
X-15038Y241743D01*
X-15127Y241745D01*
X-15216Y241743D01*
X-15305Y241737D01*
X-15394Y241727D01*
X-15482Y241714D01*
X-15570Y241697D01*
X-15657Y241675D01*
X-15742Y241650D01*
X-15827Y241622D01*
X-15910Y241589D01*
X-15992Y241553D01*
X-16072Y241514D01*
X-16150Y241471D01*
X-16226Y241425D01*
X-16301Y241375D01*
X-16373Y241322D01*
X-16442Y241266D01*
X-16509Y241207D01*
X-16574Y241146D01*
X-16635Y241081D01*
X-16694Y241014D01*
X-16750Y240945D01*
X-16803Y240873D01*
X-16853Y240798D01*
X-16899Y240722D01*
X-16942Y240644D01*
X-16981Y240564D01*
X-17017Y240482D01*
X-17050Y240399D01*
X-17078Y240314D01*
X-17103Y240229D01*
X-17125Y240142D01*
X-17142Y240054D01*
X-17155Y239966D01*
X-17165Y239877D01*
X-17171Y239788D01*
X-17173Y239699D01*
X-20447Y240108D02*
X-20447Y237653D01*
X-20447Y240108D02*
X-20445Y240187D01*
X-20439Y240266D01*
X-20430Y240345D01*
X-20417Y240423D01*
X-20399Y240500D01*
X-20379Y240576D01*
X-20354Y240651D01*
X-20326Y240725D01*
X-20295Y240798D01*
X-20259Y240869D01*
X-20221Y240938D01*
X-20179Y241005D01*
X-20134Y241070D01*
X-20086Y241133D01*
X-20035Y241194D01*
X-19981Y241251D01*
X-19925Y241307D01*
X-19866Y241359D01*
X-19804Y241409D01*
X-19740Y241455D01*
X-19674Y241499D01*
X-19606Y241539D01*
X-19536Y241575D01*
X-19464Y241609D01*
X-19390Y241639D01*
X-19316Y241665D01*
X-19240Y241688D01*
X-19163Y241706D01*
X-19086Y241722D01*
X-19007Y241733D01*
X-18929Y241741D01*
X-18850Y241745D01*
X-18770Y241745D01*
X-18691Y241741D01*
X-18613Y241733D01*
X-18534Y241722D01*
X-18457Y241706D01*
X-18380Y241688D01*
X-18304Y241665D01*
X-18230Y241639D01*
X-18156Y241609D01*
X-18084Y241575D01*
X-18014Y241539D01*
X-17946Y241499D01*
X-17880Y241455D01*
X-17816Y241409D01*
X-17754Y241359D01*
X-17695Y241307D01*
X-17639Y241251D01*
X-17585Y241194D01*
X-17534Y241133D01*
X-17486Y241070D01*
X-17441Y241005D01*
X-17399Y240938D01*
X-17361Y240869D01*
X-17325Y240798D01*
X-17294Y240725D01*
X-17266Y240651D01*
X-17241Y240576D01*
X-17221Y240500D01*
X-17203Y240423D01*
X-17190Y240345D01*
X-17181Y240266D01*
X-17175Y240187D01*
X-17173Y240108D01*
X-17173Y238471D01*
D126*
X40863Y154178D02*
X49403Y154178D01*
X49403Y141098D01*
X36323Y141098D01*
X36323Y149638D01*
X40863Y154178D01*
X35323Y154178D02*
X35325Y154241D01*
X35331Y154303D01*
X35341Y154365D01*
X35354Y154427D01*
X35372Y154487D01*
X35393Y154546D01*
X35418Y154604D01*
X35447Y154660D01*
X35479Y154714D01*
X35514Y154766D01*
X35552Y154815D01*
X35594Y154863D01*
X35638Y154907D01*
X35686Y154949D01*
X35735Y154987D01*
X35787Y155022D01*
X35841Y155054D01*
X35897Y155083D01*
X35955Y155108D01*
X36014Y155129D01*
X36074Y155147D01*
X36136Y155160D01*
X36198Y155170D01*
X36260Y155176D01*
X36323Y155178D01*
X36386Y155176D01*
X36448Y155170D01*
X36510Y155160D01*
X36572Y155147D01*
X36632Y155129D01*
X36691Y155108D01*
X36749Y155083D01*
X36805Y155054D01*
X36859Y155022D01*
X36911Y154987D01*
X36960Y154949D01*
X37008Y154907D01*
X37052Y154863D01*
X37094Y154815D01*
X37132Y154766D01*
X37167Y154714D01*
X37199Y154660D01*
X37228Y154604D01*
X37253Y154546D01*
X37274Y154487D01*
X37292Y154427D01*
X37305Y154365D01*
X37315Y154303D01*
X37321Y154241D01*
X37323Y154178D01*
X37321Y154115D01*
X37315Y154053D01*
X37305Y153991D01*
X37292Y153929D01*
X37274Y153869D01*
X37253Y153810D01*
X37228Y153752D01*
X37199Y153696D01*
X37167Y153642D01*
X37132Y153590D01*
X37094Y153541D01*
X37052Y153493D01*
X37008Y153449D01*
X36960Y153407D01*
X36911Y153369D01*
X36859Y153334D01*
X36805Y153302D01*
X36749Y153273D01*
X36691Y153248D01*
X36632Y153227D01*
X36572Y153209D01*
X36510Y153196D01*
X36448Y153186D01*
X36386Y153180D01*
X36323Y153178D01*
X36260Y153180D01*
X36198Y153186D01*
X36136Y153196D01*
X36074Y153209D01*
X36014Y153227D01*
X35955Y153248D01*
X35897Y153273D01*
X35841Y153302D01*
X35787Y153334D01*
X35735Y153369D01*
X35686Y153407D01*
X35638Y153449D01*
X35594Y153493D01*
X35552Y153541D01*
X35514Y153590D01*
X35479Y153642D01*
X35447Y153696D01*
X35418Y153752D01*
X35393Y153810D01*
X35372Y153869D01*
X35354Y153929D01*
X35341Y153991D01*
X35331Y154053D01*
X35325Y154115D01*
X35323Y154178D01*
D123*
X38624Y137033D02*
X38624Y131713D01*
X38626Y131624D01*
X38632Y131535D01*
X38642Y131446D01*
X38655Y131358D01*
X38672Y131270D01*
X38694Y131183D01*
X38719Y131098D01*
X38747Y131013D01*
X38780Y130930D01*
X38816Y130848D01*
X38855Y130768D01*
X38898Y130690D01*
X38944Y130614D01*
X38994Y130539D01*
X39047Y130467D01*
X39103Y130398D01*
X39162Y130331D01*
X39223Y130266D01*
X39288Y130205D01*
X39355Y130146D01*
X39424Y130090D01*
X39496Y130037D01*
X39571Y129987D01*
X39647Y129941D01*
X39725Y129898D01*
X39805Y129859D01*
X39887Y129823D01*
X39970Y129790D01*
X40055Y129762D01*
X40140Y129737D01*
X40227Y129715D01*
X40315Y129698D01*
X40403Y129685D01*
X40492Y129675D01*
X40581Y129669D01*
X40670Y129667D01*
X40759Y129669D01*
X40848Y129675D01*
X40937Y129685D01*
X41025Y129698D01*
X41113Y129715D01*
X41200Y129737D01*
X41285Y129762D01*
X41370Y129790D01*
X41453Y129823D01*
X41535Y129859D01*
X41615Y129898D01*
X41693Y129941D01*
X41769Y129987D01*
X41844Y130037D01*
X41916Y130090D01*
X41985Y130146D01*
X42052Y130205D01*
X42117Y130266D01*
X42178Y130331D01*
X42237Y130398D01*
X42293Y130467D01*
X42346Y130539D01*
X42396Y130614D01*
X42442Y130690D01*
X42485Y130768D01*
X42524Y130848D01*
X42560Y130930D01*
X42593Y131013D01*
X42621Y131098D01*
X42646Y131183D01*
X42668Y131270D01*
X42685Y131358D01*
X42698Y131446D01*
X42708Y131535D01*
X42714Y131624D01*
X42716Y131713D01*
X42717Y131713D02*
X42717Y137033D01*
X47820Y137033D02*
X46183Y131304D01*
X50276Y131304D01*
X49048Y132941D02*
X49048Y129667D01*
D127*
X5525Y212250D03*
D128*
X5527Y212206D01*
X5533Y212163D01*
X5542Y212121D01*
X5555Y212079D01*
X5572Y212039D01*
X5592Y212000D01*
X5615Y211963D01*
X5642Y211929D01*
X5671Y211896D01*
X5704Y211867D01*
X5738Y211840D01*
X5775Y211817D01*
X5814Y211797D01*
X5854Y211780D01*
X5896Y211767D01*
X5938Y211758D01*
X5981Y211752D01*
X6025Y211750D01*
X6069Y211752D01*
X6112Y211758D01*
X6154Y211767D01*
X6196Y211780D01*
X6236Y211797D01*
X6275Y211817D01*
X6312Y211840D01*
X6346Y211867D01*
X6379Y211896D01*
X6408Y211929D01*
X6435Y211963D01*
X6458Y212000D01*
X6478Y212039D01*
X6495Y212079D01*
X6508Y212121D01*
X6517Y212163D01*
X6523Y212206D01*
X6525Y212250D01*
D127*
X6525Y212250D03*
D128*
X6523Y212294D01*
X6517Y212337D01*
X6508Y212379D01*
X6495Y212421D01*
X6478Y212461D01*
X6458Y212500D01*
X6435Y212537D01*
X6408Y212571D01*
X6379Y212604D01*
X6346Y212633D01*
X6312Y212660D01*
X6275Y212683D01*
X6236Y212703D01*
X6196Y212720D01*
X6154Y212733D01*
X6112Y212742D01*
X6069Y212748D01*
X6025Y212750D01*
X5981Y212748D01*
X5938Y212742D01*
X5896Y212733D01*
X5854Y212720D01*
X5814Y212703D01*
X5775Y212683D01*
X5738Y212660D01*
X5704Y212633D01*
X5671Y212604D01*
X5642Y212571D01*
X5615Y212537D01*
X5592Y212500D01*
X5572Y212461D01*
X5555Y212421D01*
X5542Y212379D01*
X5533Y212337D01*
X5527Y212294D01*
X5525Y212250D01*
D123*
X3699Y235313D02*
X3699Y240633D01*
X3699Y235313D02*
X3701Y235224D01*
X3707Y235135D01*
X3717Y235046D01*
X3730Y234958D01*
X3747Y234870D01*
X3769Y234783D01*
X3794Y234698D01*
X3822Y234613D01*
X3855Y234530D01*
X3891Y234448D01*
X3930Y234368D01*
X3973Y234290D01*
X4019Y234214D01*
X4069Y234139D01*
X4122Y234067D01*
X4178Y233998D01*
X4237Y233931D01*
X4298Y233866D01*
X4363Y233805D01*
X4430Y233746D01*
X4499Y233690D01*
X4571Y233637D01*
X4646Y233587D01*
X4722Y233541D01*
X4800Y233498D01*
X4880Y233459D01*
X4962Y233423D01*
X5045Y233390D01*
X5130Y233362D01*
X5215Y233337D01*
X5302Y233315D01*
X5390Y233298D01*
X5478Y233285D01*
X5567Y233275D01*
X5656Y233269D01*
X5745Y233267D01*
X5834Y233269D01*
X5923Y233275D01*
X6012Y233285D01*
X6100Y233298D01*
X6188Y233315D01*
X6275Y233337D01*
X6360Y233362D01*
X6445Y233390D01*
X6528Y233423D01*
X6610Y233459D01*
X6690Y233498D01*
X6768Y233541D01*
X6844Y233587D01*
X6919Y233637D01*
X6991Y233690D01*
X7060Y233746D01*
X7127Y233805D01*
X7192Y233866D01*
X7253Y233931D01*
X7312Y233998D01*
X7368Y234067D01*
X7421Y234139D01*
X7471Y234214D01*
X7517Y234290D01*
X7560Y234368D01*
X7599Y234448D01*
X7635Y234530D01*
X7668Y234613D01*
X7696Y234698D01*
X7721Y234783D01*
X7743Y234870D01*
X7760Y234958D01*
X7773Y235046D01*
X7783Y235135D01*
X7789Y235224D01*
X7791Y235313D01*
X7792Y235313D02*
X7792Y240633D01*
X11258Y233267D02*
X13305Y233267D01*
X13394Y233269D01*
X13483Y233275D01*
X13572Y233285D01*
X13660Y233298D01*
X13748Y233315D01*
X13835Y233337D01*
X13920Y233362D01*
X14005Y233390D01*
X14088Y233423D01*
X14170Y233459D01*
X14250Y233498D01*
X14328Y233541D01*
X14404Y233587D01*
X14479Y233637D01*
X14551Y233690D01*
X14620Y233746D01*
X14687Y233805D01*
X14752Y233866D01*
X14813Y233931D01*
X14872Y233998D01*
X14928Y234067D01*
X14981Y234139D01*
X15031Y234214D01*
X15077Y234290D01*
X15120Y234368D01*
X15159Y234448D01*
X15195Y234530D01*
X15228Y234613D01*
X15256Y234698D01*
X15281Y234783D01*
X15303Y234870D01*
X15320Y234958D01*
X15333Y235046D01*
X15343Y235135D01*
X15349Y235224D01*
X15351Y235313D01*
X15349Y235402D01*
X15343Y235491D01*
X15333Y235580D01*
X15320Y235668D01*
X15303Y235756D01*
X15281Y235843D01*
X15256Y235928D01*
X15228Y236013D01*
X15195Y236096D01*
X15159Y236178D01*
X15120Y236258D01*
X15077Y236336D01*
X15031Y236412D01*
X14981Y236487D01*
X14928Y236559D01*
X14872Y236628D01*
X14813Y236695D01*
X14752Y236760D01*
X14687Y236821D01*
X14620Y236880D01*
X14551Y236936D01*
X14479Y236989D01*
X14404Y237039D01*
X14328Y237085D01*
X14250Y237128D01*
X14170Y237167D01*
X14088Y237203D01*
X14005Y237236D01*
X13920Y237264D01*
X13835Y237289D01*
X13748Y237311D01*
X13660Y237328D01*
X13572Y237341D01*
X13483Y237351D01*
X13394Y237357D01*
X13305Y237359D01*
X13714Y240633D02*
X11258Y240633D01*
X13714Y240633D02*
X13793Y240631D01*
X13872Y240625D01*
X13951Y240616D01*
X14029Y240603D01*
X14106Y240585D01*
X14182Y240565D01*
X14257Y240540D01*
X14331Y240512D01*
X14404Y240481D01*
X14475Y240445D01*
X14544Y240407D01*
X14611Y240365D01*
X14676Y240320D01*
X14739Y240272D01*
X14800Y240221D01*
X14857Y240167D01*
X14913Y240111D01*
X14965Y240052D01*
X15015Y239990D01*
X15061Y239926D01*
X15105Y239860D01*
X15145Y239792D01*
X15181Y239722D01*
X15215Y239650D01*
X15245Y239576D01*
X15271Y239502D01*
X15294Y239426D01*
X15312Y239349D01*
X15328Y239272D01*
X15339Y239193D01*
X15347Y239115D01*
X15351Y239036D01*
X15351Y238956D01*
X15347Y238877D01*
X15339Y238799D01*
X15328Y238720D01*
X15312Y238643D01*
X15294Y238566D01*
X15271Y238490D01*
X15245Y238416D01*
X15215Y238342D01*
X15181Y238270D01*
X15145Y238200D01*
X15105Y238132D01*
X15061Y238066D01*
X15015Y238002D01*
X14965Y237940D01*
X14913Y237881D01*
X14857Y237825D01*
X14800Y237771D01*
X14739Y237720D01*
X14676Y237672D01*
X14611Y237627D01*
X14544Y237585D01*
X14475Y237547D01*
X14404Y237511D01*
X14331Y237480D01*
X14257Y237452D01*
X14182Y237427D01*
X14106Y237407D01*
X14029Y237389D01*
X13951Y237376D01*
X13872Y237367D01*
X13793Y237361D01*
X13714Y237359D01*
X12077Y237359D01*
D122*
X37846Y208090D02*
X37846Y200978D01*
D123*
X44742Y200038D02*
X52108Y200038D01*
X44742Y200038D02*
X44742Y202084D01*
X44744Y202173D01*
X44750Y202262D01*
X44760Y202351D01*
X44773Y202439D01*
X44790Y202527D01*
X44812Y202614D01*
X44837Y202699D01*
X44865Y202784D01*
X44898Y202867D01*
X44934Y202949D01*
X44973Y203029D01*
X45016Y203107D01*
X45062Y203183D01*
X45112Y203258D01*
X45165Y203330D01*
X45221Y203399D01*
X45280Y203466D01*
X45341Y203531D01*
X45406Y203592D01*
X45473Y203651D01*
X45542Y203707D01*
X45614Y203760D01*
X45689Y203810D01*
X45765Y203856D01*
X45843Y203899D01*
X45923Y203938D01*
X46005Y203974D01*
X46088Y204007D01*
X46173Y204035D01*
X46258Y204060D01*
X46345Y204082D01*
X46433Y204099D01*
X46521Y204112D01*
X46610Y204122D01*
X46699Y204128D01*
X46788Y204130D01*
X46877Y204128D01*
X46966Y204122D01*
X47055Y204112D01*
X47143Y204099D01*
X47231Y204082D01*
X47318Y204060D01*
X47403Y204035D01*
X47488Y204007D01*
X47571Y203974D01*
X47653Y203938D01*
X47733Y203899D01*
X47811Y203856D01*
X47887Y203810D01*
X47962Y203760D01*
X48034Y203707D01*
X48103Y203651D01*
X48170Y203592D01*
X48235Y203531D01*
X48296Y203466D01*
X48355Y203399D01*
X48411Y203330D01*
X48464Y203258D01*
X48514Y203183D01*
X48560Y203107D01*
X48603Y203029D01*
X48642Y202949D01*
X48678Y202867D01*
X48711Y202784D01*
X48739Y202699D01*
X48764Y202614D01*
X48786Y202527D01*
X48803Y202439D01*
X48816Y202351D01*
X48826Y202262D01*
X48832Y202173D01*
X48834Y202084D01*
X48834Y200038D01*
X48834Y202493D02*
X52108Y204130D01*
X50471Y207302D02*
X44742Y208939D01*
X50471Y207302D02*
X50471Y211394D01*
X48834Y210166D02*
X52108Y210166D01*
D122*
X-33592Y209677D02*
X-33592Y202565D01*
D123*
X-41554Y196863D02*
X-48920Y196863D01*
X-48920Y198909D01*
X-48918Y198998D01*
X-48912Y199087D01*
X-48902Y199176D01*
X-48889Y199264D01*
X-48872Y199352D01*
X-48850Y199439D01*
X-48825Y199524D01*
X-48797Y199609D01*
X-48764Y199692D01*
X-48728Y199774D01*
X-48689Y199854D01*
X-48646Y199932D01*
X-48600Y200008D01*
X-48550Y200083D01*
X-48497Y200155D01*
X-48441Y200224D01*
X-48382Y200291D01*
X-48321Y200356D01*
X-48256Y200417D01*
X-48189Y200476D01*
X-48120Y200532D01*
X-48048Y200585D01*
X-47973Y200635D01*
X-47897Y200681D01*
X-47819Y200724D01*
X-47739Y200763D01*
X-47657Y200799D01*
X-47574Y200832D01*
X-47489Y200860D01*
X-47404Y200885D01*
X-47317Y200907D01*
X-47229Y200924D01*
X-47141Y200937D01*
X-47052Y200947D01*
X-46963Y200953D01*
X-46874Y200955D01*
X-46785Y200953D01*
X-46696Y200947D01*
X-46607Y200937D01*
X-46519Y200924D01*
X-46431Y200907D01*
X-46344Y200885D01*
X-46259Y200860D01*
X-46174Y200832D01*
X-46091Y200799D01*
X-46009Y200763D01*
X-45929Y200724D01*
X-45851Y200681D01*
X-45775Y200635D01*
X-45700Y200585D01*
X-45628Y200532D01*
X-45559Y200476D01*
X-45492Y200417D01*
X-45427Y200356D01*
X-45366Y200291D01*
X-45307Y200224D01*
X-45251Y200155D01*
X-45198Y200083D01*
X-45148Y200008D01*
X-45102Y199932D01*
X-45059Y199854D01*
X-45020Y199774D01*
X-44984Y199692D01*
X-44951Y199609D01*
X-44923Y199524D01*
X-44898Y199439D01*
X-44876Y199352D01*
X-44859Y199264D01*
X-44846Y199176D01*
X-44836Y199087D01*
X-44830Y198998D01*
X-44828Y198909D01*
X-44828Y196863D01*
X-44828Y199318D02*
X-41554Y200955D01*
X-47283Y204127D02*
X-48920Y206173D01*
X-41554Y206173D01*
X-41554Y204127D02*
X-41554Y208219D01*
X-47283Y211442D02*
X-48920Y213488D01*
X-41554Y213488D01*
X-41554Y211442D02*
X-41554Y215534D01*
D122*
X-33719Y142875D02*
X-26099Y142875D01*
D123*
X-35271Y149416D02*
X-36908Y149416D01*
X-36908Y149415D02*
X-36986Y149417D01*
X-37064Y149422D01*
X-37141Y149432D01*
X-37218Y149445D01*
X-37294Y149461D01*
X-37369Y149481D01*
X-37443Y149505D01*
X-37516Y149532D01*
X-37588Y149563D01*
X-37658Y149597D01*
X-37727Y149634D01*
X-37793Y149675D01*
X-37858Y149719D01*
X-37920Y149765D01*
X-37980Y149815D01*
X-38038Y149867D01*
X-38093Y149922D01*
X-38145Y149980D01*
X-38195Y150040D01*
X-38241Y150102D01*
X-38285Y150167D01*
X-38326Y150234D01*
X-38363Y150302D01*
X-38397Y150372D01*
X-38428Y150444D01*
X-38455Y150517D01*
X-38479Y150591D01*
X-38499Y150666D01*
X-38515Y150742D01*
X-38528Y150819D01*
X-38538Y150896D01*
X-38543Y150974D01*
X-38545Y151052D01*
X-38545Y155145D01*
X-38543Y155223D01*
X-38538Y155301D01*
X-38528Y155378D01*
X-38515Y155455D01*
X-38499Y155531D01*
X-38479Y155606D01*
X-38455Y155680D01*
X-38428Y155753D01*
X-38397Y155825D01*
X-38363Y155895D01*
X-38326Y155964D01*
X-38285Y156030D01*
X-38241Y156095D01*
X-38195Y156157D01*
X-38145Y156217D01*
X-38093Y156275D01*
X-38038Y156330D01*
X-37980Y156382D01*
X-37920Y156432D01*
X-37858Y156478D01*
X-37793Y156522D01*
X-37727Y156563D01*
X-37658Y156600D01*
X-37588Y156634D01*
X-37516Y156665D01*
X-37443Y156692D01*
X-37369Y156716D01*
X-37294Y156736D01*
X-37218Y156752D01*
X-37141Y156765D01*
X-37064Y156775D01*
X-36986Y156780D01*
X-36908Y156782D01*
X-35271Y156782D01*
X-32426Y155145D02*
X-30380Y156782D01*
X-30380Y149416D01*
X-32426Y149416D02*
X-28334Y149416D01*
X-25111Y153508D02*
X-22655Y153508D01*
X-22575Y153506D01*
X-22495Y153500D01*
X-22415Y153490D01*
X-22336Y153477D01*
X-22257Y153459D01*
X-22180Y153438D01*
X-22104Y153412D01*
X-22029Y153383D01*
X-21955Y153351D01*
X-21883Y153315D01*
X-21813Y153275D01*
X-21746Y153232D01*
X-21680Y153186D01*
X-21617Y153136D01*
X-21556Y153084D01*
X-21497Y153029D01*
X-21442Y152970D01*
X-21390Y152910D01*
X-21340Y152846D01*
X-21294Y152780D01*
X-21251Y152713D01*
X-21211Y152643D01*
X-21175Y152571D01*
X-21143Y152497D01*
X-21114Y152423D01*
X-21088Y152346D01*
X-21067Y152269D01*
X-21049Y152190D01*
X-21036Y152111D01*
X-21026Y152031D01*
X-21020Y151951D01*
X-21018Y151871D01*
X-21019Y151871D02*
X-21019Y151462D01*
X-21021Y151373D01*
X-21027Y151284D01*
X-21037Y151195D01*
X-21050Y151107D01*
X-21067Y151019D01*
X-21089Y150932D01*
X-21114Y150847D01*
X-21142Y150762D01*
X-21175Y150679D01*
X-21211Y150597D01*
X-21250Y150517D01*
X-21293Y150439D01*
X-21339Y150363D01*
X-21389Y150288D01*
X-21442Y150216D01*
X-21498Y150147D01*
X-21557Y150080D01*
X-21618Y150015D01*
X-21683Y149954D01*
X-21750Y149895D01*
X-21819Y149839D01*
X-21891Y149786D01*
X-21966Y149736D01*
X-22042Y149690D01*
X-22120Y149647D01*
X-22200Y149608D01*
X-22282Y149572D01*
X-22365Y149539D01*
X-22450Y149511D01*
X-22535Y149486D01*
X-22622Y149464D01*
X-22710Y149447D01*
X-22798Y149434D01*
X-22887Y149424D01*
X-22976Y149418D01*
X-23065Y149416D01*
X-23154Y149418D01*
X-23243Y149424D01*
X-23332Y149434D01*
X-23420Y149447D01*
X-23508Y149464D01*
X-23595Y149486D01*
X-23680Y149511D01*
X-23765Y149539D01*
X-23848Y149572D01*
X-23930Y149608D01*
X-24010Y149647D01*
X-24088Y149690D01*
X-24164Y149736D01*
X-24239Y149786D01*
X-24311Y149839D01*
X-24380Y149895D01*
X-24447Y149954D01*
X-24512Y150015D01*
X-24573Y150080D01*
X-24632Y150147D01*
X-24688Y150216D01*
X-24741Y150288D01*
X-24791Y150363D01*
X-24837Y150439D01*
X-24880Y150517D01*
X-24919Y150597D01*
X-24955Y150679D01*
X-24988Y150762D01*
X-25016Y150847D01*
X-25041Y150932D01*
X-25063Y151019D01*
X-25080Y151107D01*
X-25093Y151195D01*
X-25103Y151284D01*
X-25109Y151373D01*
X-25111Y151462D01*
X-25111Y153508D01*
X-25109Y153620D01*
X-25103Y153731D01*
X-25094Y153843D01*
X-25081Y153954D01*
X-25063Y154064D01*
X-25043Y154174D01*
X-25018Y154283D01*
X-24990Y154391D01*
X-24958Y154498D01*
X-24922Y154604D01*
X-24883Y154709D01*
X-24840Y154812D01*
X-24794Y154914D01*
X-24744Y155014D01*
X-24691Y155113D01*
X-24634Y155209D01*
X-24575Y155304D01*
X-24512Y155396D01*
X-24446Y155486D01*
X-24377Y155574D01*
X-24305Y155660D01*
X-24230Y155743D01*
X-24152Y155823D01*
X-24072Y155901D01*
X-23989Y155976D01*
X-23903Y156048D01*
X-23815Y156117D01*
X-23725Y156183D01*
X-23633Y156246D01*
X-23538Y156305D01*
X-23442Y156362D01*
X-23343Y156415D01*
X-23243Y156465D01*
X-23141Y156511D01*
X-23038Y156554D01*
X-22933Y156593D01*
X-22827Y156629D01*
X-22720Y156661D01*
X-22612Y156689D01*
X-22503Y156714D01*
X-22393Y156734D01*
X-22283Y156752D01*
X-22172Y156765D01*
X-22060Y156774D01*
X-21949Y156780D01*
X-21837Y156782D01*
D122*
X3874Y193675D02*
X11494Y193675D01*
D123*
X-20158Y189294D02*
X-21795Y189294D01*
X-21795Y189293D02*
X-21873Y189295D01*
X-21951Y189300D01*
X-22028Y189310D01*
X-22105Y189323D01*
X-22181Y189339D01*
X-22256Y189359D01*
X-22330Y189383D01*
X-22403Y189410D01*
X-22475Y189441D01*
X-22545Y189475D01*
X-22614Y189512D01*
X-22680Y189553D01*
X-22745Y189597D01*
X-22807Y189643D01*
X-22867Y189693D01*
X-22925Y189745D01*
X-22980Y189800D01*
X-23032Y189858D01*
X-23082Y189918D01*
X-23128Y189980D01*
X-23172Y190045D01*
X-23213Y190112D01*
X-23250Y190180D01*
X-23284Y190250D01*
X-23315Y190322D01*
X-23342Y190395D01*
X-23366Y190469D01*
X-23386Y190544D01*
X-23402Y190620D01*
X-23415Y190697D01*
X-23425Y190774D01*
X-23430Y190852D01*
X-23432Y190930D01*
X-23432Y195023D01*
X-23430Y195101D01*
X-23425Y195179D01*
X-23415Y195256D01*
X-23402Y195333D01*
X-23386Y195409D01*
X-23366Y195484D01*
X-23342Y195558D01*
X-23315Y195631D01*
X-23284Y195703D01*
X-23250Y195773D01*
X-23213Y195842D01*
X-23172Y195908D01*
X-23128Y195973D01*
X-23082Y196035D01*
X-23032Y196095D01*
X-22980Y196153D01*
X-22925Y196208D01*
X-22867Y196260D01*
X-22807Y196310D01*
X-22745Y196356D01*
X-22680Y196400D01*
X-22614Y196441D01*
X-22545Y196478D01*
X-22475Y196512D01*
X-22403Y196543D01*
X-22330Y196570D01*
X-22256Y196594D01*
X-22181Y196614D01*
X-22105Y196630D01*
X-22028Y196643D01*
X-21951Y196653D01*
X-21873Y196658D01*
X-21795Y196660D01*
X-20158Y196660D01*
X-17312Y195023D02*
X-15266Y196660D01*
X-15266Y189294D01*
X-17312Y189294D02*
X-13220Y189294D01*
X-9997Y195841D02*
X-9997Y196660D01*
X-5905Y196660D01*
X-7951Y189294D01*
D122*
X28448Y228346D02*
X35560Y228346D01*
D129*
X23763Y235623D02*
X23763Y242735D01*
X25738Y242735D01*
X25738Y242736D02*
X25825Y242734D01*
X25913Y242728D01*
X26000Y242719D01*
X26086Y242705D01*
X26172Y242688D01*
X26256Y242667D01*
X26340Y242642D01*
X26423Y242613D01*
X26504Y242581D01*
X26584Y242546D01*
X26662Y242507D01*
X26739Y242464D01*
X26813Y242418D01*
X26885Y242369D01*
X26955Y242317D01*
X27023Y242261D01*
X27088Y242203D01*
X27151Y242142D01*
X27210Y242078D01*
X27267Y242011D01*
X27321Y241943D01*
X27372Y241871D01*
X27419Y241798D01*
X27464Y241723D01*
X27505Y241645D01*
X27542Y241566D01*
X27576Y241486D01*
X27606Y241404D01*
X27633Y241321D01*
X27656Y241236D01*
X27675Y241151D01*
X27690Y241065D01*
X27702Y240978D01*
X27710Y240891D01*
X27714Y240804D01*
X27714Y240716D01*
X27710Y240629D01*
X27702Y240542D01*
X27690Y240455D01*
X27675Y240369D01*
X27656Y240284D01*
X27633Y240199D01*
X27606Y240116D01*
X27576Y240034D01*
X27542Y239954D01*
X27505Y239875D01*
X27464Y239797D01*
X27419Y239722D01*
X27372Y239649D01*
X27321Y239577D01*
X27267Y239509D01*
X27210Y239442D01*
X27151Y239378D01*
X27088Y239317D01*
X27023Y239259D01*
X26955Y239203D01*
X26885Y239151D01*
X26813Y239102D01*
X26739Y239056D01*
X26662Y239013D01*
X26584Y238974D01*
X26504Y238939D01*
X26423Y238907D01*
X26340Y238878D01*
X26256Y238853D01*
X26172Y238832D01*
X26086Y238815D01*
X26000Y238801D01*
X25913Y238792D01*
X25825Y238786D01*
X25738Y238784D01*
X23763Y238784D01*
X26133Y238784D02*
X27714Y235623D01*
X30580Y241155D02*
X32556Y242735D01*
X32556Y235623D01*
X34531Y235623D02*
X30580Y235623D01*
X39611Y242735D02*
X39693Y242733D01*
X39775Y242727D01*
X39857Y242718D01*
X39938Y242705D01*
X40018Y242688D01*
X40098Y242667D01*
X40176Y242643D01*
X40253Y242615D01*
X40329Y242584D01*
X40404Y242549D01*
X40476Y242510D01*
X40547Y242469D01*
X40616Y242424D01*
X40682Y242376D01*
X40747Y242325D01*
X40809Y242271D01*
X40868Y242214D01*
X40925Y242155D01*
X40979Y242093D01*
X41030Y242028D01*
X41078Y241962D01*
X41123Y241893D01*
X41164Y241822D01*
X41203Y241750D01*
X41238Y241675D01*
X41269Y241599D01*
X41297Y241522D01*
X41321Y241444D01*
X41342Y241364D01*
X41359Y241284D01*
X41372Y241203D01*
X41381Y241121D01*
X41387Y241039D01*
X41389Y240957D01*
X39611Y242735D02*
X39518Y242733D01*
X39426Y242727D01*
X39334Y242718D01*
X39242Y242705D01*
X39151Y242688D01*
X39061Y242668D01*
X38971Y242644D01*
X38883Y242616D01*
X38795Y242584D01*
X38710Y242550D01*
X38625Y242511D01*
X38543Y242470D01*
X38462Y242425D01*
X38382Y242376D01*
X38305Y242325D01*
X38230Y242271D01*
X38158Y242213D01*
X38088Y242153D01*
X38020Y242089D01*
X37955Y242024D01*
X37892Y241955D01*
X37833Y241884D01*
X37776Y241811D01*
X37722Y241735D01*
X37672Y241658D01*
X37624Y241578D01*
X37580Y241497D01*
X37540Y241413D01*
X37502Y241329D01*
X37468Y241242D01*
X37438Y241155D01*
X40797Y239574D02*
X40858Y239635D01*
X40916Y239698D01*
X40971Y239764D01*
X41024Y239832D01*
X41073Y239903D01*
X41118Y239975D01*
X41161Y240050D01*
X41200Y240126D01*
X41236Y240205D01*
X41268Y240284D01*
X41296Y240365D01*
X41321Y240448D01*
X41342Y240531D01*
X41359Y240615D01*
X41373Y240700D01*
X41382Y240785D01*
X41388Y240871D01*
X41390Y240957D01*
X40797Y239574D02*
X37438Y235623D01*
X41389Y235623D01*
M02*
