G04 EAGLE Gerber RS-274X export*
G75*
%MOMM*%
%FSLAX34Y34*%
%LPD*%
%INSolderpaste Top*%
%IPPOS*%
%AMOC8*
5,1,8,0,0,1.08239X$1,22.5*%
G01*
%ADD10R,0.900000X0.700000*%
%ADD11R,1.000000X1.100000*%
%ADD12R,0.800000X0.800000*%
%ADD13R,0.200000X0.100000*%
%ADD14R,0.515000X0.500000*%
%ADD15R,0.500000X0.535000*%
%ADD16R,1.200000X2.316000*%
%ADD17R,0.700000X0.900000*%
%ADD18C,0.208000*%
%ADD19R,0.280000X0.530000*%


D10*
X26988Y152250D03*
X26988Y165250D03*
X47625Y76050D03*
X47625Y89050D03*
D11*
X60325Y151375D03*
X60325Y134375D03*
D12*
X-16313Y68263D03*
X-31313Y68263D03*
D10*
X-3175Y55413D03*
X-3175Y68413D03*
X0Y108100D03*
X0Y95100D03*
X14288Y108100D03*
X14288Y95100D03*
X-14288Y108100D03*
X-14288Y95100D03*
X28575Y108100D03*
X28575Y95100D03*
D13*
X-9000Y125313D03*
D14*
X-10580Y128313D03*
X-10580Y135813D03*
X-10580Y143313D03*
X-10580Y150813D03*
X-10580Y158313D03*
X-10580Y165813D03*
X-10580Y173313D03*
D15*
X0Y124133D03*
D16*
X0Y150813D03*
D15*
X0Y177493D03*
D14*
X10580Y128313D03*
X10580Y135813D03*
X10580Y143313D03*
X10580Y150813D03*
X10580Y158313D03*
X10580Y165813D03*
X10580Y173313D03*
D10*
X-28575Y108100D03*
X-28575Y95100D03*
D17*
X1438Y203200D03*
X14438Y203200D03*
D10*
X-4763Y226863D03*
X-4763Y239863D03*
D18*
X40863Y149638D03*
X44863Y149638D03*
X40863Y145638D03*
X44863Y145638D03*
D19*
X5525Y218850D03*
X9525Y218850D03*
X13525Y218850D03*
X13525Y225650D03*
X9525Y225650D03*
X5525Y225650D03*
D10*
X38100Y198288D03*
X38100Y211288D03*
X-33338Y199875D03*
X-33338Y212875D03*
D17*
X-23663Y142875D03*
X-36663Y142875D03*
X1438Y193675D03*
X14438Y193675D03*
X38250Y228600D03*
X25250Y228600D03*
M02*
