G04 EAGLE Gerber RS-274X export*
G75*
%MOMM*%
%FSLAX34Y34*%
%LPD*%
%INTop Copper*%
%IPPOS*%
%AMOC8*
5,1,8,0,0,1.08239X$1,22.5*%
G01*
%ADD10R,0.800000X0.800000*%
%ADD11R,1.000000X1.100000*%
%ADD12R,1.100000X1.000000*%
%ADD13C,0.499997*%
%ADD14C,1.000000*%
%ADD15R,0.500000X0.500000*%
%ADD16R,1.500000X1.300000*%
%ADD17C,0.756400*%
%ADD18C,0.304800*%

G36*
X278630Y195708D02*
X278630Y195708D01*
X278658Y195706D01*
X278726Y195728D01*
X278797Y195742D01*
X278820Y195758D01*
X278847Y195767D01*
X278902Y195814D01*
X278961Y195855D01*
X278976Y195879D01*
X278998Y195897D01*
X279029Y195962D01*
X279068Y196022D01*
X279073Y196050D01*
X279085Y196076D01*
X279094Y196177D01*
X279101Y196219D01*
X279099Y196229D01*
X279100Y196242D01*
X279043Y196957D01*
X327165Y196957D01*
X327177Y196967D01*
X327176Y196968D01*
X327177Y196969D01*
X327177Y197041D01*
X327242Y197106D01*
X327243Y197110D01*
X327243Y197111D01*
X327246Y197113D01*
X327362Y198517D01*
X327359Y198521D01*
X327361Y198524D01*
X327265Y198684D01*
X327430Y199334D01*
X327429Y199335D01*
X327430Y199336D01*
X327485Y200003D01*
X327627Y200123D01*
X327628Y200128D01*
X327631Y200130D01*
X328000Y201586D01*
X328000Y201587D01*
X328000Y201588D01*
X327998Y201591D01*
X328000Y201594D01*
X327932Y201767D01*
X328201Y202381D01*
X328201Y202382D01*
X328202Y202383D01*
X328366Y203032D01*
X328526Y203127D01*
X328528Y203132D01*
X328531Y203133D01*
X329135Y204509D01*
X329134Y204511D01*
X329135Y204512D01*
X329134Y204514D01*
X329135Y204516D01*
X329097Y204698D01*
X329464Y205259D01*
X329464Y205261D01*
X329465Y205261D01*
X329734Y205874D01*
X329907Y205942D01*
X329909Y205946D01*
X329913Y205947D01*
X330735Y207205D01*
X330734Y207208D01*
X330736Y207210D01*
X330735Y207211D01*
X330737Y207212D01*
X330729Y207398D01*
X331183Y207891D01*
X331183Y207892D01*
X331184Y207892D01*
X331550Y208453D01*
X331733Y208491D01*
X331735Y208495D01*
X331739Y208495D01*
X332757Y209601D01*
X332757Y209605D01*
X332760Y209607D01*
X332783Y209792D01*
X333311Y210203D01*
X333312Y210205D01*
X333313Y210205D01*
X333767Y210698D01*
X333953Y210705D01*
X333956Y210709D01*
X333959Y210708D01*
X335145Y211631D01*
X335146Y211635D01*
X335150Y211637D01*
X335203Y211815D01*
X335792Y212134D01*
X335792Y212136D01*
X335793Y212135D01*
X336322Y212547D01*
X336507Y212524D01*
X336511Y212526D01*
X336514Y212525D01*
X337836Y213240D01*
X337837Y213245D01*
X337841Y213246D01*
X337923Y213413D01*
X338556Y213630D01*
X338557Y213632D01*
X338558Y213631D01*
X339147Y213950D01*
X339326Y213897D01*
X339330Y213899D01*
X339333Y213897D01*
X340754Y214385D01*
X340757Y214389D01*
X340760Y214389D01*
X340868Y214541D01*
X341529Y214651D01*
X341530Y214652D01*
X341531Y214652D01*
X342165Y214869D01*
X342332Y214787D01*
X342336Y214789D01*
X342339Y214786D01*
X343821Y215034D01*
X343824Y215037D01*
X343828Y215037D01*
X343959Y215169D01*
X344629Y215169D01*
X344630Y215170D01*
X344631Y215169D01*
X345292Y215279D01*
X345444Y215171D01*
X345448Y215171D01*
X345451Y215169D01*
X346953Y215169D01*
X346957Y215172D01*
X346960Y215171D01*
X347112Y215279D01*
X347773Y215169D01*
X347774Y215170D01*
X347775Y215169D01*
X348445Y215169D01*
X348576Y215037D01*
X348581Y215037D01*
X348583Y215034D01*
X350065Y214786D01*
X350069Y214789D01*
X350072Y214787D01*
X350239Y214869D01*
X350873Y214652D01*
X350874Y214652D01*
X350875Y214651D01*
X351536Y214541D01*
X351644Y214389D01*
X351648Y214388D01*
X351650Y214385D01*
X353071Y213897D01*
X353075Y213899D01*
X353078Y213897D01*
X353257Y213950D01*
X353846Y213631D01*
X353847Y213631D01*
X353848Y213630D01*
X354481Y213413D01*
X354563Y213246D01*
X354567Y213244D01*
X354568Y213240D01*
X355890Y212525D01*
X355894Y212526D01*
X355897Y212524D01*
X356082Y212547D01*
X356611Y212135D01*
X356612Y212135D01*
X356612Y212134D01*
X357201Y211815D01*
X357254Y211637D01*
X357258Y211634D01*
X357259Y211631D01*
X358445Y210708D01*
X358449Y210708D01*
X358451Y210705D01*
X358637Y210698D01*
X359091Y210205D01*
X359093Y210205D01*
X359093Y210203D01*
X359177Y210138D01*
X359182Y210138D01*
X359184Y210136D01*
X359188Y210139D01*
X359193Y210139D01*
X359599Y210545D01*
X359599Y210549D01*
X359602Y210552D01*
X359601Y210553D01*
X359602Y210554D01*
X359602Y213742D01*
X362711Y216851D01*
X367107Y216851D01*
X370216Y213742D01*
X370216Y209346D01*
X367107Y206237D01*
X363919Y206237D01*
X363915Y206233D01*
X363910Y206234D01*
X362946Y205269D01*
X362945Y205257D01*
X362944Y205254D01*
X363307Y204698D01*
X363269Y204516D01*
X363269Y204515D01*
X363271Y204512D01*
X363269Y204509D01*
X363873Y203133D01*
X363877Y203131D01*
X363878Y203127D01*
X364038Y203032D01*
X364202Y202383D01*
X364203Y202382D01*
X364203Y202381D01*
X364472Y201767D01*
X364404Y201594D01*
X364405Y201591D01*
X364404Y201590D01*
X364405Y201588D01*
X364404Y201586D01*
X364773Y200130D01*
X364777Y200127D01*
X364777Y200123D01*
X364919Y200003D01*
X364974Y199336D01*
X364975Y199335D01*
X364974Y199334D01*
X365139Y198684D01*
X365043Y198524D01*
X365044Y198522D01*
X365043Y198522D01*
X365044Y198521D01*
X365044Y198520D01*
X365042Y198517D01*
X365158Y197113D01*
X365162Y197110D01*
X365162Y197106D01*
X365227Y197041D01*
X365227Y196969D01*
X365237Y196957D01*
X365238Y196958D01*
X365239Y196957D01*
X413361Y196957D01*
X413304Y196242D01*
X413308Y196213D01*
X413303Y196185D01*
X413320Y196116D01*
X413328Y196044D01*
X413343Y196020D01*
X413349Y195992D01*
X413392Y195934D01*
X413428Y195872D01*
X413450Y195855D01*
X413467Y195832D01*
X413529Y195795D01*
X413586Y195752D01*
X413614Y195745D01*
X413638Y195730D01*
X413738Y195714D01*
X413779Y195703D01*
X413789Y195705D01*
X413802Y195703D01*
X432802Y195703D01*
X432878Y195718D01*
X432956Y195727D01*
X432975Y195738D01*
X432997Y195742D01*
X433061Y195786D01*
X433129Y195825D01*
X433145Y195844D01*
X433161Y195855D01*
X433185Y195893D01*
X433235Y195953D01*
X442735Y212453D01*
X442744Y212480D01*
X442760Y212504D01*
X442775Y212574D01*
X442798Y212642D01*
X442795Y212670D01*
X442801Y212698D01*
X442788Y212769D01*
X442782Y212840D01*
X442769Y212865D01*
X442763Y212893D01*
X442723Y212953D01*
X442690Y213016D01*
X442668Y213034D01*
X442652Y213058D01*
X442569Y213116D01*
X442537Y213143D01*
X442526Y213146D01*
X442516Y213153D01*
X441888Y213450D01*
X465940Y255110D01*
X465940Y255113D01*
X465942Y255115D01*
X465939Y255118D01*
X465937Y255126D01*
X465936Y255126D01*
X465936Y255127D01*
X465862Y255169D01*
X465839Y255258D01*
X465834Y255261D01*
X465834Y255265D01*
X464679Y256066D01*
X464675Y256066D01*
X464673Y256068D01*
X464486Y256066D01*
X464007Y256533D01*
X464005Y256533D01*
X464005Y256535D01*
X463455Y256917D01*
X463422Y257100D01*
X463418Y257103D01*
X463418Y257106D01*
X462344Y258153D01*
X462339Y258153D01*
X462338Y258156D01*
X462153Y258184D01*
X461757Y258724D01*
X461756Y258725D01*
X461756Y258726D01*
X461276Y259193D01*
X461273Y259379D01*
X461270Y259383D01*
X461271Y259386D01*
X460384Y260595D01*
X460379Y260596D01*
X460378Y260600D01*
X460201Y260658D01*
X459899Y261256D01*
X459898Y261256D01*
X459898Y261257D01*
X459502Y261797D01*
X459530Y261981D01*
X459527Y261985D01*
X459529Y261989D01*
X458852Y263327D01*
X458848Y263329D01*
X458847Y263332D01*
X458682Y263419D01*
X458483Y264058D01*
X458482Y264059D01*
X458482Y264060D01*
X458180Y264658D01*
X458238Y264835D01*
X458236Y264839D01*
X458238Y264842D01*
X457792Y266274D01*
X457788Y266276D01*
X457787Y266280D01*
X457639Y266392D01*
X457547Y267056D01*
X457546Y267057D01*
X457547Y267058D01*
X457347Y267697D01*
X457434Y267862D01*
X457433Y267863D01*
X457434Y267864D01*
X457433Y267865D01*
X457433Y267866D01*
X457435Y267869D01*
X457230Y269355D01*
X457227Y269358D01*
X457227Y269361D01*
X457099Y269497D01*
X457118Y270166D01*
X457117Y270167D01*
X457118Y270168D01*
X457026Y270832D01*
X457139Y270980D01*
X457138Y270985D01*
X457141Y270987D01*
X457183Y272486D01*
X457180Y272490D01*
X457181Y272493D01*
X457077Y272648D01*
X457206Y273305D01*
X457206Y273306D01*
X457207Y273307D01*
X457225Y273977D01*
X457361Y274105D01*
X457361Y274109D01*
X457364Y274111D01*
X457653Y275582D01*
X457650Y275586D01*
X457652Y275590D01*
X457575Y275759D01*
X457810Y276386D01*
X457810Y276387D01*
X457810Y276388D01*
X457811Y276388D01*
X457940Y277046D01*
X458094Y277150D01*
X458095Y277154D01*
X458099Y277155D01*
X458625Y278559D01*
X458625Y278560D01*
X458624Y278564D01*
X458626Y278567D01*
X458578Y278747D01*
X458592Y278772D01*
X458592Y278774D01*
X458593Y278775D01*
X458594Y278776D01*
X458591Y278780D01*
X458589Y278787D01*
X458585Y278786D01*
X458582Y278790D01*
X457788Y278790D01*
X457783Y278786D01*
X457779Y278786D01*
X455525Y276532D01*
X451128Y276532D01*
X448020Y279640D01*
X448020Y284037D01*
X451128Y287145D01*
X455525Y287145D01*
X457779Y284891D01*
X457785Y284890D01*
X457786Y284888D01*
X457787Y284888D01*
X457788Y284887D01*
X462823Y284887D01*
X462828Y284891D01*
X462832Y284891D01*
X462910Y284986D01*
X463095Y285004D01*
X463098Y285007D01*
X463102Y285006D01*
X464234Y285991D01*
X464234Y285995D01*
X464237Y285997D01*
X464281Y286178D01*
X464852Y286528D01*
X464852Y286530D01*
X464853Y286529D01*
X465359Y286969D01*
X465544Y286956D01*
X465548Y286959D01*
X465551Y286958D01*
X466830Y287742D01*
X466831Y287747D01*
X466834Y287748D01*
X466907Y287919D01*
X467528Y288171D01*
X467528Y288172D01*
X467530Y288172D01*
X468100Y288522D01*
X468281Y288479D01*
X468285Y288481D01*
X468289Y288480D01*
X469678Y289043D01*
X469680Y289047D01*
X469684Y289048D01*
X469784Y289205D01*
X470438Y289351D01*
X470438Y289352D01*
X470439Y289351D01*
X471060Y289603D01*
X471232Y289531D01*
X471236Y289532D01*
X471239Y289530D01*
X472703Y289857D01*
X472705Y289861D01*
X472709Y289861D01*
X472833Y289999D01*
X473502Y290036D01*
X473503Y290037D01*
X473504Y290036D01*
X474158Y290182D01*
X474315Y290082D01*
X474319Y290083D01*
X474320Y290081D01*
X474321Y290081D01*
X474322Y290080D01*
X475819Y290162D01*
X475822Y290165D01*
X475823Y290165D01*
X475826Y290165D01*
X475972Y290281D01*
X476637Y290207D01*
X476638Y290208D01*
X476639Y290207D01*
X477308Y290243D01*
X477447Y290119D01*
X477452Y290119D01*
X477454Y290116D01*
X478944Y289950D01*
X478948Y289953D01*
X478951Y289951D01*
X479114Y290042D01*
X479758Y289859D01*
X479760Y289860D01*
X479760Y289859D01*
X480426Y289785D01*
X480542Y289639D01*
X480547Y289639D01*
X480548Y289635D01*
X481991Y289226D01*
X481995Y289228D01*
X481998Y289227D01*
X482174Y289289D01*
X482779Y289003D01*
X482781Y289004D01*
X482781Y289002D01*
X483426Y288820D01*
X483516Y288657D01*
X483521Y288656D01*
X483522Y288652D01*
X484792Y288052D01*
X484794Y288052D01*
X484795Y288052D01*
X484799Y288052D01*
X484801Y288051D01*
X484890Y288075D01*
X484941Y288045D01*
X484956Y288048D01*
X484956Y288049D01*
X484957Y288049D01*
X509010Y329711D01*
X509618Y329291D01*
X509645Y329280D01*
X509667Y329261D01*
X509736Y329241D01*
X509801Y329213D01*
X509830Y329213D01*
X509858Y329205D01*
X509929Y329213D01*
X510000Y329213D01*
X510027Y329224D01*
X510056Y329227D01*
X510118Y329262D01*
X510183Y329290D01*
X510204Y329310D01*
X510229Y329325D01*
X510292Y329402D01*
X510322Y329432D01*
X510326Y329442D01*
X510335Y329453D01*
X519835Y345953D01*
X519845Y345985D01*
X519854Y345998D01*
X519858Y346022D01*
X519859Y346026D01*
X519890Y346096D01*
X519890Y346120D01*
X519898Y346142D01*
X519892Y346218D01*
X519893Y346295D01*
X519883Y346319D01*
X519882Y346340D01*
X519861Y346379D01*
X519835Y346451D01*
X510335Y362951D01*
X510316Y362973D01*
X510303Y362999D01*
X510250Y363047D01*
X510203Y363100D01*
X510177Y363113D01*
X510156Y363132D01*
X510088Y363155D01*
X510024Y363186D01*
X509995Y363188D01*
X509968Y363197D01*
X509896Y363192D01*
X509825Y363195D01*
X509798Y363185D01*
X509769Y363183D01*
X509679Y363141D01*
X509639Y363126D01*
X509631Y363119D01*
X509618Y363113D01*
X509010Y362693D01*
X484957Y404355D01*
X484949Y404357D01*
X484948Y404359D01*
X484945Y404359D01*
X484942Y404360D01*
X484942Y404359D01*
X484941Y404359D01*
X484890Y404329D01*
X484801Y404353D01*
X484796Y404351D01*
X484792Y404352D01*
X483522Y403752D01*
X483520Y403748D01*
X483516Y403747D01*
X483426Y403584D01*
X482781Y403402D01*
X482780Y403400D01*
X482779Y403401D01*
X482174Y403115D01*
X481998Y403177D01*
X481997Y403177D01*
X481992Y403177D01*
X481991Y403178D01*
X480548Y402769D01*
X480546Y402765D01*
X480542Y402765D01*
X480426Y402619D01*
X479760Y402545D01*
X479760Y402544D01*
X479759Y402544D01*
X479758Y402545D01*
X479114Y402362D01*
X478951Y402453D01*
X478947Y402452D01*
X478944Y402454D01*
X477454Y402288D01*
X477451Y402285D01*
X477447Y402285D01*
X477308Y402161D01*
X476639Y402197D01*
X476638Y402196D01*
X476637Y402197D01*
X475972Y402123D01*
X475826Y402239D01*
X475822Y402239D01*
X475819Y402242D01*
X474322Y402324D01*
X474318Y402321D01*
X474315Y402322D01*
X474158Y402222D01*
X473504Y402368D01*
X473503Y402367D01*
X473502Y402368D01*
X472833Y402405D01*
X472709Y402543D01*
X472704Y402544D01*
X472703Y402547D01*
X471239Y402874D01*
X471235Y402872D01*
X471232Y402873D01*
X471060Y402801D01*
X470439Y403053D01*
X470438Y403052D01*
X470438Y403053D01*
X469784Y403199D01*
X469684Y403356D01*
X469680Y403358D01*
X469678Y403361D01*
X468289Y403924D01*
X468284Y403923D01*
X468281Y403925D01*
X468100Y403882D01*
X467530Y404232D01*
X467528Y404232D01*
X467528Y404233D01*
X466907Y404485D01*
X466834Y404656D01*
X466830Y404658D01*
X466829Y404662D01*
X466442Y404900D01*
X466439Y404899D01*
X466437Y404901D01*
X466433Y404898D01*
X466426Y404897D01*
X466427Y404892D01*
X466424Y404889D01*
X466424Y402479D01*
X466427Y402475D01*
X466427Y402471D01*
X468682Y400216D01*
X468682Y395820D01*
X465573Y392711D01*
X461177Y392711D01*
X458068Y395820D01*
X458068Y400216D01*
X460323Y402471D01*
X460323Y402476D01*
X460326Y402479D01*
X460326Y410547D01*
X460323Y410551D01*
X460323Y410555D01*
X460058Y410876D01*
X460076Y411061D01*
X460074Y411065D01*
X460075Y411068D01*
X459324Y412367D01*
X459320Y412368D01*
X459319Y412371D01*
X459149Y412448D01*
X458914Y413076D01*
X458913Y413076D01*
X458913Y413078D01*
X458578Y413657D01*
X458626Y413837D01*
X458624Y413841D01*
X458625Y413845D01*
X458099Y415249D01*
X458095Y415251D01*
X458094Y415254D01*
X457940Y415358D01*
X457811Y416016D01*
X457810Y416017D01*
X457810Y416018D01*
X457575Y416645D01*
X457652Y416814D01*
X457651Y416819D01*
X457652Y416820D01*
X457652Y416821D01*
X457653Y416822D01*
X457364Y418293D01*
X457361Y418296D01*
X457361Y418299D01*
X457225Y418427D01*
X457207Y419097D01*
X457206Y419098D01*
X457206Y419099D01*
X457077Y419756D01*
X457181Y419911D01*
X457181Y419915D01*
X457183Y419918D01*
X457141Y421417D01*
X457138Y421420D01*
X457139Y421424D01*
X457026Y421572D01*
X457118Y422236D01*
X457117Y422237D01*
X457118Y422238D01*
X457099Y422907D01*
X457227Y423043D01*
X457227Y423047D01*
X457230Y423049D01*
X457435Y424535D01*
X457433Y424539D01*
X457434Y424542D01*
X457347Y424707D01*
X457547Y425346D01*
X457546Y425348D01*
X457547Y425348D01*
X457639Y426012D01*
X457787Y426124D01*
X457788Y426129D01*
X457792Y426130D01*
X458238Y427562D01*
X458238Y427563D01*
X458239Y427564D01*
X458236Y427566D01*
X458238Y427569D01*
X458180Y427746D01*
X458482Y428344D01*
X458482Y428345D01*
X458483Y428346D01*
X458682Y428985D01*
X458847Y429072D01*
X458849Y429076D01*
X458852Y429077D01*
X459529Y430415D01*
X459528Y430417D01*
X459529Y430417D01*
X459528Y430418D01*
X459527Y430420D01*
X459530Y430423D01*
X459502Y430607D01*
X459898Y431147D01*
X459898Y431148D01*
X459899Y431148D01*
X460201Y431746D01*
X460378Y431804D01*
X460380Y431808D01*
X460384Y431809D01*
X461271Y433018D01*
X461271Y433022D01*
X461273Y433025D01*
X461276Y433211D01*
X461756Y433678D01*
X461756Y433680D01*
X461757Y433680D01*
X462153Y434220D01*
X462338Y434248D01*
X462340Y434251D01*
X462344Y434251D01*
X463418Y435298D01*
X463419Y435302D01*
X463422Y435304D01*
X463455Y435487D01*
X464005Y435869D01*
X464005Y435871D01*
X464006Y435871D01*
X464486Y436338D01*
X464673Y436336D01*
X464676Y436339D01*
X464679Y436338D01*
X465834Y437139D01*
X465835Y437144D01*
X465839Y437146D01*
X465862Y437235D01*
X465936Y437277D01*
X465941Y437292D01*
X465940Y437293D01*
X465940Y437294D01*
X441888Y478954D01*
X442516Y479251D01*
X442538Y479268D01*
X442565Y479278D01*
X442617Y479327D01*
X442675Y479370D01*
X442689Y479395D01*
X442710Y479414D01*
X442739Y479480D01*
X442775Y479542D01*
X442778Y479570D01*
X442790Y479596D01*
X442791Y479668D01*
X442800Y479739D01*
X442792Y479766D01*
X442793Y479795D01*
X442757Y479890D01*
X442746Y479930D01*
X442739Y479939D01*
X442735Y479951D01*
X433235Y496451D01*
X433183Y496510D01*
X433137Y496572D01*
X433118Y496583D01*
X433103Y496600D01*
X433033Y496634D01*
X432966Y496674D01*
X432942Y496678D01*
X432924Y496686D01*
X432879Y496688D01*
X432802Y496701D01*
X413802Y496701D01*
X413774Y496696D01*
X413746Y496698D01*
X413678Y496676D01*
X413607Y496662D01*
X413584Y496646D01*
X413557Y496637D01*
X413502Y496590D01*
X413443Y496549D01*
X413428Y496525D01*
X413407Y496507D01*
X413375Y496442D01*
X413336Y496382D01*
X413331Y496354D01*
X413319Y496328D01*
X413310Y496227D01*
X413303Y496185D01*
X413305Y496175D01*
X413304Y496162D01*
X413361Y495447D01*
X365239Y495447D01*
X365227Y495437D01*
X365228Y495436D01*
X365227Y495435D01*
X365227Y495363D01*
X365162Y495298D01*
X365161Y495293D01*
X365158Y495291D01*
X365042Y493887D01*
X365045Y493883D01*
X365043Y493880D01*
X365139Y493720D01*
X364974Y493070D01*
X364975Y493069D01*
X364974Y493068D01*
X364919Y492401D01*
X364777Y492281D01*
X364776Y492276D01*
X364773Y492274D01*
X364404Y490818D01*
X364406Y490813D01*
X364404Y490810D01*
X364472Y490637D01*
X364203Y490023D01*
X364203Y490022D01*
X364202Y490021D01*
X364038Y489372D01*
X363878Y489277D01*
X363876Y489272D01*
X363873Y489271D01*
X363269Y487895D01*
X363271Y487891D01*
X363269Y487888D01*
X363307Y487706D01*
X362940Y487145D01*
X362941Y487143D01*
X362939Y487143D01*
X362670Y486530D01*
X362497Y486462D01*
X362495Y486458D01*
X362491Y486457D01*
X361669Y485199D01*
X361670Y485195D01*
X361667Y485192D01*
X361675Y485006D01*
X361221Y484513D01*
X361221Y484512D01*
X361220Y484512D01*
X360854Y483951D01*
X360671Y483913D01*
X360669Y483909D01*
X360665Y483909D01*
X359647Y482803D01*
X359647Y482799D01*
X359644Y482797D01*
X359621Y482612D01*
X359093Y482201D01*
X359092Y482199D01*
X359091Y482199D01*
X358637Y481706D01*
X358530Y481702D01*
X358451Y481699D01*
X358448Y481696D01*
X358445Y481696D01*
X357259Y480773D01*
X357258Y480769D01*
X357254Y480767D01*
X357201Y480589D01*
X356612Y480270D01*
X356612Y480268D01*
X356611Y480269D01*
X356082Y479857D01*
X355897Y479880D01*
X355893Y479878D01*
X355890Y479879D01*
X354568Y479164D01*
X354567Y479159D01*
X354563Y479158D01*
X354481Y478991D01*
X353848Y478774D01*
X353847Y478772D01*
X353846Y478773D01*
X353257Y478454D01*
X353078Y478507D01*
X353074Y478505D01*
X353071Y478507D01*
X351650Y478019D01*
X351647Y478015D01*
X351644Y478015D01*
X351536Y477863D01*
X350875Y477753D01*
X350874Y477752D01*
X350873Y477752D01*
X350239Y477535D01*
X350072Y477617D01*
X350068Y477615D01*
X350065Y477618D01*
X348583Y477370D01*
X348580Y477367D01*
X348576Y477367D01*
X348445Y477235D01*
X347775Y477235D01*
X347773Y477234D01*
X347773Y477235D01*
X347112Y477125D01*
X346960Y477233D01*
X346956Y477233D01*
X346953Y477235D01*
X345451Y477235D01*
X345447Y477232D01*
X345444Y477233D01*
X345292Y477125D01*
X344631Y477235D01*
X344630Y477234D01*
X344629Y477235D01*
X343959Y477235D01*
X343828Y477367D01*
X343823Y477367D01*
X343821Y477370D01*
X342339Y477618D01*
X342335Y477615D01*
X342332Y477617D01*
X342165Y477535D01*
X341531Y477752D01*
X341530Y477752D01*
X341529Y477753D01*
X340868Y477863D01*
X340760Y478015D01*
X340756Y478016D01*
X340754Y478019D01*
X339333Y478507D01*
X339329Y478505D01*
X339326Y478507D01*
X339147Y478454D01*
X338558Y478773D01*
X338557Y478773D01*
X338556Y478774D01*
X338395Y478829D01*
X338388Y478826D01*
X338383Y478826D01*
X337085Y477528D01*
X337085Y477522D01*
X337082Y477520D01*
X337082Y474331D01*
X333973Y471223D01*
X329577Y471223D01*
X326468Y474331D01*
X326468Y478728D01*
X329577Y481836D01*
X332765Y481836D01*
X332769Y481840D01*
X332773Y481840D01*
X333202Y482268D01*
X333203Y482272D01*
X333204Y482273D01*
X333203Y482275D01*
X333203Y482284D01*
X333201Y482284D01*
X333201Y482286D01*
X332783Y482612D01*
X332760Y482797D01*
X332756Y482800D01*
X332757Y482803D01*
X331739Y483909D01*
X331734Y483910D01*
X331733Y483913D01*
X331550Y483951D01*
X331184Y484512D01*
X331183Y484512D01*
X331183Y484513D01*
X330729Y485006D01*
X330737Y485192D01*
X330734Y485196D01*
X330735Y485199D01*
X329913Y486457D01*
X329908Y486458D01*
X329907Y486462D01*
X329734Y486530D01*
X329465Y487143D01*
X329463Y487144D01*
X329464Y487145D01*
X329097Y487706D01*
X329135Y487888D01*
X329133Y487892D01*
X329135Y487895D01*
X328531Y489271D01*
X328527Y489273D01*
X328526Y489277D01*
X328366Y489372D01*
X328202Y490021D01*
X328201Y490022D01*
X328201Y490023D01*
X327932Y490637D01*
X328000Y490810D01*
X327998Y490815D01*
X328000Y490818D01*
X327631Y492274D01*
X327627Y492277D01*
X327627Y492281D01*
X327485Y492401D01*
X327430Y493068D01*
X327429Y493069D01*
X327430Y493070D01*
X327265Y493720D01*
X327361Y493880D01*
X327360Y493884D01*
X327362Y493887D01*
X327246Y495291D01*
X327242Y495294D01*
X327242Y495298D01*
X327177Y495363D01*
X327177Y495435D01*
X327167Y495447D01*
X327166Y495446D01*
X327165Y495447D01*
X279043Y495447D01*
X279100Y496162D01*
X279096Y496191D01*
X279101Y496219D01*
X279084Y496288D01*
X279076Y496360D01*
X279062Y496384D01*
X279055Y496412D01*
X279012Y496470D01*
X278977Y496532D01*
X278954Y496549D01*
X278937Y496572D01*
X278875Y496609D01*
X278818Y496652D01*
X278790Y496659D01*
X278766Y496674D01*
X278666Y496690D01*
X278625Y496701D01*
X278615Y496699D01*
X278602Y496701D01*
X259602Y496701D01*
X259526Y496686D01*
X259448Y496677D01*
X259429Y496666D01*
X259407Y496662D01*
X259343Y496618D01*
X259275Y496579D01*
X259259Y496560D01*
X259243Y496549D01*
X259219Y496511D01*
X259169Y496451D01*
X249669Y479951D01*
X249660Y479924D01*
X249644Y479900D01*
X249629Y479830D01*
X249606Y479762D01*
X249609Y479734D01*
X249603Y479706D01*
X249617Y479636D01*
X249622Y479564D01*
X249635Y479539D01*
X249641Y479511D01*
X249681Y479451D01*
X249714Y479388D01*
X249736Y479370D01*
X249752Y479346D01*
X249835Y479288D01*
X249867Y479261D01*
X249878Y479258D01*
X249889Y479251D01*
X250516Y478954D01*
X226464Y437294D01*
X226467Y437278D01*
X226468Y437278D01*
X226468Y437277D01*
X226542Y437235D01*
X226565Y437146D01*
X226570Y437143D01*
X226570Y437139D01*
X227725Y436338D01*
X227729Y436338D01*
X227731Y436336D01*
X227918Y436338D01*
X228398Y435871D01*
X228399Y435871D01*
X228399Y435869D01*
X228949Y435487D01*
X228982Y435304D01*
X228986Y435301D01*
X228986Y435298D01*
X230060Y434251D01*
X230065Y434251D01*
X230066Y434248D01*
X230251Y434220D01*
X230647Y433680D01*
X230648Y433679D01*
X230648Y433678D01*
X231128Y433211D01*
X231131Y433025D01*
X231134Y433021D01*
X231133Y433018D01*
X232020Y431809D01*
X232025Y431808D01*
X232026Y431804D01*
X232203Y431746D01*
X232505Y431148D01*
X232506Y431148D01*
X232506Y431147D01*
X232902Y430607D01*
X232874Y430423D01*
X232876Y430420D01*
X232875Y430420D01*
X232877Y430419D01*
X232875Y430415D01*
X233552Y429077D01*
X233556Y429075D01*
X233557Y429072D01*
X233722Y428985D01*
X233921Y428346D01*
X233922Y428345D01*
X233922Y428344D01*
X234224Y427746D01*
X234166Y427569D01*
X234166Y427568D01*
X234165Y427567D01*
X234167Y427565D01*
X234166Y427562D01*
X234612Y426130D01*
X234616Y426128D01*
X234617Y426124D01*
X234765Y426012D01*
X234857Y425348D01*
X234858Y425347D01*
X234857Y425346D01*
X235057Y424707D01*
X234970Y424542D01*
X234971Y424538D01*
X234969Y424535D01*
X235174Y423049D01*
X235177Y423046D01*
X235177Y423043D01*
X235305Y422907D01*
X235286Y422238D01*
X235287Y422237D01*
X235286Y422236D01*
X235378Y421572D01*
X235265Y421424D01*
X235266Y421421D01*
X235264Y421419D01*
X235264Y421418D01*
X235263Y421417D01*
X235221Y419918D01*
X235224Y419914D01*
X235223Y419911D01*
X235327Y419756D01*
X235198Y419099D01*
X235198Y419098D01*
X235197Y419097D01*
X235179Y418427D01*
X235043Y418299D01*
X235043Y418295D01*
X235040Y418293D01*
X234751Y416822D01*
X234754Y416818D01*
X234752Y416814D01*
X234829Y416645D01*
X234594Y416018D01*
X234594Y416016D01*
X234593Y416016D01*
X234464Y415358D01*
X234310Y415254D01*
X234309Y415250D01*
X234305Y415249D01*
X233779Y413845D01*
X233780Y413840D01*
X233780Y413839D01*
X233779Y413839D01*
X233779Y413838D01*
X233778Y413837D01*
X233826Y413657D01*
X233491Y413078D01*
X233491Y413076D01*
X233490Y413076D01*
X233255Y412448D01*
X233085Y412371D01*
X233083Y412367D01*
X233080Y412367D01*
X232329Y411068D01*
X232330Y411064D01*
X232328Y411061D01*
X232346Y410876D01*
X231919Y410359D01*
X231919Y410358D01*
X231918Y410358D01*
X231583Y409778D01*
X231403Y409729D01*
X231400Y409726D01*
X231397Y409726D01*
X230443Y408569D01*
X230443Y408565D01*
X230440Y408562D01*
X230427Y408376D01*
X229922Y407937D01*
X229921Y407935D01*
X229920Y407935D01*
X229494Y407418D01*
X229309Y407400D01*
X229306Y407397D01*
X229302Y407398D01*
X228170Y406413D01*
X228170Y406409D01*
X228167Y406407D01*
X228123Y406226D01*
X227552Y405876D01*
X227552Y405874D01*
X227551Y405875D01*
X227045Y405435D01*
X226860Y405448D01*
X226856Y405445D01*
X226853Y405446D01*
X225574Y404662D01*
X225573Y404657D01*
X225570Y404656D01*
X225497Y404485D01*
X224876Y404233D01*
X224876Y404232D01*
X224874Y404232D01*
X224304Y403882D01*
X224123Y403925D01*
X224119Y403923D01*
X224115Y403924D01*
X222726Y403361D01*
X222724Y403357D01*
X222720Y403356D01*
X222620Y403199D01*
X221966Y403053D01*
X221966Y403052D01*
X221965Y403053D01*
X221344Y402801D01*
X221172Y402873D01*
X221168Y402872D01*
X221165Y402874D01*
X219701Y402547D01*
X219699Y402543D01*
X219695Y402543D01*
X219571Y402405D01*
X218902Y402368D01*
X218901Y402367D01*
X218900Y402368D01*
X218246Y402222D01*
X218089Y402322D01*
X218084Y402321D01*
X218082Y402324D01*
X217068Y402268D01*
X217056Y402257D01*
X217057Y402257D01*
X217056Y402256D01*
X217056Y398771D01*
X217060Y398766D01*
X217060Y398762D01*
X219314Y396508D01*
X219314Y392111D01*
X216206Y389003D01*
X211810Y389003D01*
X208701Y392111D01*
X208701Y396508D01*
X210955Y398762D01*
X210956Y398768D01*
X210959Y398771D01*
X210959Y403014D01*
X210952Y403022D01*
X210950Y403025D01*
X210413Y403178D01*
X210412Y403177D01*
X210407Y403177D01*
X210406Y403177D01*
X210230Y403115D01*
X209625Y403401D01*
X209623Y403400D01*
X209623Y403402D01*
X208978Y403584D01*
X208888Y403747D01*
X208883Y403748D01*
X208882Y403752D01*
X207612Y404352D01*
X207607Y404351D01*
X207603Y404353D01*
X207514Y404329D01*
X207463Y404359D01*
X207461Y404359D01*
X207460Y404359D01*
X207456Y404359D01*
X207454Y404357D01*
X207448Y404356D01*
X207448Y404355D01*
X207447Y404355D01*
X183394Y362693D01*
X182786Y363113D01*
X182759Y363124D01*
X182737Y363143D01*
X182668Y363163D01*
X182603Y363191D01*
X182574Y363191D01*
X182546Y363199D01*
X182475Y363191D01*
X182404Y363192D01*
X182377Y363180D01*
X182348Y363177D01*
X182286Y363142D01*
X182221Y363114D01*
X182200Y363094D01*
X182175Y363079D01*
X182112Y363002D01*
X182082Y362972D01*
X182078Y362962D01*
X182069Y362951D01*
X172569Y346451D01*
X172545Y346378D01*
X172514Y346308D01*
X172514Y346284D01*
X172506Y346262D01*
X172513Y346186D01*
X172512Y346109D01*
X172521Y346085D01*
X172522Y346064D01*
X172543Y346025D01*
X172562Y345973D01*
X172563Y345967D01*
X172565Y345965D01*
X172569Y345953D01*
X182069Y329453D01*
X182088Y329431D01*
X182101Y329405D01*
X182154Y329357D01*
X182201Y329304D01*
X182227Y329291D01*
X182249Y329272D01*
X182316Y329249D01*
X182380Y329218D01*
X182409Y329217D01*
X182436Y329207D01*
X182508Y329212D01*
X182579Y329209D01*
X182606Y329219D01*
X182635Y329221D01*
X182725Y329263D01*
X182765Y329278D01*
X182773Y329285D01*
X182786Y329291D01*
X183394Y329711D01*
X207447Y288049D01*
X207462Y288044D01*
X207462Y288045D01*
X207463Y288045D01*
X207514Y288075D01*
X207603Y288051D01*
X207605Y288052D01*
X207609Y288052D01*
X207610Y288052D01*
X207612Y288052D01*
X208882Y288652D01*
X208884Y288656D01*
X208888Y288657D01*
X208978Y288820D01*
X209623Y289002D01*
X209624Y289004D01*
X209625Y289003D01*
X210230Y289289D01*
X210406Y289227D01*
X210410Y289228D01*
X210413Y289226D01*
X211856Y289635D01*
X211858Y289639D01*
X211862Y289639D01*
X211978Y289785D01*
X212644Y289859D01*
X212645Y289860D01*
X212646Y289859D01*
X213290Y290042D01*
X213453Y289951D01*
X213457Y289952D01*
X213460Y289950D01*
X214950Y290116D01*
X214953Y290119D01*
X214957Y290119D01*
X215096Y290243D01*
X215765Y290207D01*
X215766Y290208D01*
X215767Y290207D01*
X216432Y290281D01*
X216578Y290165D01*
X216582Y290165D01*
X216585Y290162D01*
X218082Y290080D01*
X218083Y290081D01*
X218084Y290081D01*
X218086Y290083D01*
X218089Y290082D01*
X218246Y290182D01*
X218900Y290036D01*
X218901Y290037D01*
X218902Y290036D01*
X219571Y289999D01*
X219695Y289861D01*
X219700Y289860D01*
X219701Y289857D01*
X221165Y289530D01*
X221169Y289532D01*
X221172Y289531D01*
X221344Y289603D01*
X221965Y289351D01*
X221966Y289352D01*
X221966Y289351D01*
X222620Y289205D01*
X222720Y289048D01*
X222724Y289046D01*
X222726Y289043D01*
X224115Y288480D01*
X224120Y288481D01*
X224123Y288479D01*
X224304Y288522D01*
X224874Y288172D01*
X224876Y288172D01*
X224876Y288171D01*
X225497Y287919D01*
X225570Y287748D01*
X225574Y287746D01*
X225575Y287742D01*
X226853Y286958D01*
X226857Y286959D01*
X226860Y286956D01*
X227045Y286969D01*
X227551Y286529D01*
X227552Y286529D01*
X227552Y286528D01*
X228123Y286178D01*
X228167Y285997D01*
X228170Y285994D01*
X228171Y285991D01*
X229302Y285006D01*
X229307Y285006D01*
X229309Y285004D01*
X229494Y284986D01*
X229920Y284469D01*
X229922Y284469D01*
X229922Y284467D01*
X230427Y284028D01*
X230440Y283842D01*
X230443Y283839D01*
X230443Y283835D01*
X231397Y282678D01*
X231401Y282678D01*
X231403Y282674D01*
X231583Y282626D01*
X231918Y282046D01*
X231920Y282046D01*
X231919Y282045D01*
X232346Y281528D01*
X232328Y281343D01*
X232330Y281339D01*
X232329Y281336D01*
X233080Y280037D01*
X233084Y280036D01*
X233085Y280033D01*
X233255Y279956D01*
X233490Y279328D01*
X233491Y279328D01*
X233491Y279326D01*
X233826Y278747D01*
X233778Y278567D01*
X233780Y278564D01*
X233779Y278563D01*
X233780Y278562D01*
X233779Y278559D01*
X234305Y277155D01*
X234309Y277153D01*
X234310Y277150D01*
X234464Y277046D01*
X234593Y276388D01*
X234594Y276387D01*
X234594Y276386D01*
X234829Y275759D01*
X234752Y275590D01*
X234753Y275585D01*
X234751Y275582D01*
X235040Y274111D01*
X235043Y274108D01*
X235043Y274105D01*
X235179Y273977D01*
X235197Y273307D01*
X235198Y273306D01*
X235198Y273305D01*
X235327Y272648D01*
X235223Y272493D01*
X235223Y272489D01*
X235221Y272487D01*
X235221Y272486D01*
X235263Y270987D01*
X235266Y270984D01*
X235265Y270980D01*
X235271Y270973D01*
X235278Y270971D01*
X235281Y270968D01*
X237398Y270968D01*
X237402Y270972D01*
X237406Y270971D01*
X239661Y273226D01*
X244057Y273226D01*
X246118Y271165D01*
X246122Y271165D01*
X246125Y271162D01*
X246128Y271165D01*
X246133Y271164D01*
X246134Y271170D01*
X246138Y271174D01*
X246138Y281149D01*
X246134Y281153D01*
X246134Y281157D01*
X243880Y283412D01*
X243880Y287808D01*
X246046Y289974D01*
X246046Y289979D01*
X246049Y289982D01*
X246049Y306635D01*
X246039Y306647D01*
X246038Y306646D01*
X246037Y306647D01*
X244466Y306647D01*
X243573Y307540D01*
X243573Y316803D01*
X244466Y317696D01*
X253729Y317696D01*
X254623Y316803D01*
X254623Y307540D01*
X253729Y306647D01*
X252159Y306647D01*
X252147Y306637D01*
X252147Y306636D01*
X252147Y306635D01*
X252147Y290160D01*
X252150Y290156D01*
X252150Y290151D01*
X254493Y287808D01*
X254493Y283412D01*
X252239Y281157D01*
X252239Y281153D01*
X252239Y281152D01*
X252235Y281149D01*
X252235Y231252D01*
X252239Y231248D01*
X252239Y231244D01*
X255503Y227979D01*
X255509Y227979D01*
X255512Y227976D01*
X258700Y227976D01*
X261809Y224867D01*
X261809Y220471D01*
X258700Y217362D01*
X254304Y217362D01*
X251195Y220471D01*
X251195Y223659D01*
X251191Y223664D01*
X251192Y223668D01*
X246138Y228721D01*
X246138Y264665D01*
X246135Y264668D01*
X246135Y264672D01*
X246131Y264672D01*
X246128Y264677D01*
X246123Y264673D01*
X246118Y264673D01*
X244057Y262612D01*
X239661Y262612D01*
X237406Y264867D01*
X237401Y264867D01*
X237399Y264869D01*
X237398Y264870D01*
X234183Y264870D01*
X234176Y264864D01*
X234172Y264862D01*
X234166Y264842D01*
X234168Y264838D01*
X234166Y264835D01*
X234224Y264658D01*
X233922Y264060D01*
X233922Y264059D01*
X233921Y264058D01*
X233722Y263419D01*
X233557Y263332D01*
X233555Y263328D01*
X233552Y263327D01*
X232875Y261989D01*
X232877Y261984D01*
X232874Y261981D01*
X232902Y261797D01*
X232506Y261257D01*
X232506Y261256D01*
X232505Y261256D01*
X232203Y260658D01*
X232026Y260600D01*
X232024Y260596D01*
X232020Y260595D01*
X231133Y259386D01*
X231133Y259382D01*
X231131Y259379D01*
X231128Y259193D01*
X230648Y258726D01*
X230648Y258724D01*
X230647Y258724D01*
X230251Y258184D01*
X230066Y258156D01*
X230064Y258153D01*
X230060Y258153D01*
X228986Y257106D01*
X228985Y257102D01*
X228984Y257101D01*
X228982Y257100D01*
X228949Y256917D01*
X228399Y256535D01*
X228399Y256533D01*
X228397Y256533D01*
X227918Y256066D01*
X227731Y256068D01*
X227728Y256065D01*
X227725Y256066D01*
X226570Y255265D01*
X226569Y255260D01*
X226565Y255258D01*
X226542Y255169D01*
X226468Y255127D01*
X226466Y255121D01*
X226462Y255118D01*
X226464Y255115D01*
X226463Y255112D01*
X226464Y255111D01*
X226464Y255110D01*
X250516Y213450D01*
X249889Y213153D01*
X249866Y213136D01*
X249839Y213126D01*
X249787Y213077D01*
X249729Y213034D01*
X249715Y213009D01*
X249694Y212990D01*
X249665Y212924D01*
X249629Y212862D01*
X249626Y212834D01*
X249614Y212808D01*
X249613Y212736D01*
X249604Y212665D01*
X249612Y212638D01*
X249612Y212609D01*
X249647Y212514D01*
X249658Y212474D01*
X249665Y212465D01*
X249669Y212453D01*
X259169Y195953D01*
X259221Y195895D01*
X259267Y195832D01*
X259286Y195821D01*
X259301Y195804D01*
X259371Y195770D01*
X259438Y195730D01*
X259463Y195726D01*
X259480Y195718D01*
X259525Y195716D01*
X259602Y195703D01*
X278602Y195703D01*
X278630Y195708D01*
G37*
%LPC*%
G36*
X318282Y276529D02*
X318282Y276529D01*
X302831Y291980D01*
X302831Y307057D01*
X302827Y307061D01*
X302827Y307066D01*
X300573Y309320D01*
X300573Y313716D01*
X303681Y316825D01*
X308078Y316825D01*
X311186Y313716D01*
X311186Y309320D01*
X308932Y307066D01*
X308931Y307060D01*
X308928Y307058D01*
X308929Y307057D01*
X308928Y307057D01*
X308928Y294511D01*
X308932Y294507D01*
X308932Y294502D01*
X320804Y282630D01*
X320810Y282630D01*
X320812Y282627D01*
X348262Y282627D01*
X348266Y282630D01*
X348270Y282630D01*
X354487Y288847D01*
X354488Y288853D01*
X354491Y288856D01*
X354491Y292379D01*
X354480Y292390D01*
X354479Y292390D01*
X351908Y292390D01*
X351015Y293284D01*
X351015Y305547D01*
X351908Y306440D01*
X354479Y306440D01*
X354491Y306450D01*
X354490Y306451D01*
X354491Y306452D01*
X354491Y325724D01*
X354487Y325728D01*
X354487Y325732D01*
X353906Y326313D01*
X353900Y326314D01*
X353898Y326317D01*
X351058Y326317D01*
X350198Y327177D01*
X350182Y327178D01*
X350182Y327177D01*
X350181Y327177D01*
X349321Y326317D01*
X343058Y326317D01*
X342198Y327177D01*
X342182Y327178D01*
X342182Y327177D01*
X342181Y327177D01*
X341321Y326317D01*
X341250Y326317D01*
X341238Y326307D01*
X341239Y326306D01*
X341238Y326305D01*
X341238Y308213D01*
X341242Y308209D01*
X341242Y308205D01*
X342143Y307304D01*
X342148Y307303D01*
X342151Y307300D01*
X345339Y307300D01*
X348448Y304191D01*
X348448Y299795D01*
X347455Y298802D01*
X347455Y298798D01*
X347453Y298797D01*
X347452Y298795D01*
X347454Y298792D01*
X347454Y298786D01*
X347460Y298786D01*
X347463Y298782D01*
X348650Y298782D01*
X349543Y297889D01*
X349543Y285626D01*
X348650Y284732D01*
X337386Y284732D01*
X336493Y285625D01*
X336493Y297889D01*
X337386Y298782D01*
X338819Y298782D01*
X338822Y298785D01*
X338826Y298784D01*
X338827Y298789D01*
X338831Y298792D01*
X338827Y298797D01*
X338828Y298802D01*
X337835Y299795D01*
X337835Y302984D01*
X337831Y302988D01*
X337831Y302992D01*
X335141Y305682D01*
X335141Y326305D01*
X335130Y326317D01*
X335129Y326316D01*
X335129Y326317D01*
X335058Y326317D01*
X334165Y327210D01*
X334165Y333473D01*
X335025Y334333D01*
X335026Y334349D01*
X335024Y334349D01*
X335025Y334350D01*
X334165Y335210D01*
X334165Y341473D01*
X335025Y342333D01*
X335025Y342341D01*
X335026Y342342D01*
X335025Y342343D01*
X335026Y342349D01*
X335024Y342349D01*
X335025Y342350D01*
X334165Y343210D01*
X334165Y343361D01*
X334154Y343373D01*
X334153Y343372D01*
X334153Y343373D01*
X321666Y343373D01*
X321655Y343362D01*
X321655Y343361D01*
X321655Y340790D01*
X320761Y339897D01*
X308498Y339897D01*
X307605Y340790D01*
X307605Y343361D01*
X307595Y343373D01*
X307594Y343372D01*
X307593Y343373D01*
X306999Y343373D01*
X306994Y343369D01*
X306990Y343369D01*
X304449Y340828D01*
X304448Y340822D01*
X304445Y340819D01*
X304445Y336490D01*
X304449Y336486D01*
X304449Y336481D01*
X306703Y334227D01*
X306703Y329831D01*
X303595Y326722D01*
X300025Y326722D01*
X300022Y326719D01*
X300018Y326720D01*
X300018Y326715D01*
X300014Y326712D01*
X300017Y326707D01*
X300017Y326702D01*
X300848Y325870D01*
X300848Y321474D01*
X297740Y318365D01*
X293344Y318365D01*
X291089Y320620D01*
X291083Y320620D01*
X291081Y320623D01*
X285991Y320623D01*
X285979Y320613D01*
X285980Y320612D01*
X285979Y320612D01*
X285979Y317261D01*
X285086Y316368D01*
X273823Y316368D01*
X272930Y317261D01*
X272930Y329524D01*
X273823Y330418D01*
X285086Y330418D01*
X285979Y329524D01*
X285979Y326733D01*
X285990Y326721D01*
X285991Y326722D01*
X285991Y326721D01*
X291081Y326721D01*
X291085Y326725D01*
X291089Y326724D01*
X291277Y326912D01*
X291277Y326916D01*
X291280Y326919D01*
X291279Y326920D01*
X291280Y326920D01*
X291280Y343420D01*
X293070Y345209D01*
X303589Y355729D01*
X305379Y357518D01*
X322655Y357518D01*
X322779Y357394D01*
X322785Y357394D01*
X322788Y357390D01*
X334153Y357390D01*
X334164Y357401D01*
X334164Y357402D01*
X334165Y357402D01*
X334165Y357473D01*
X335058Y358366D01*
X341321Y358366D01*
X342214Y357473D01*
X342214Y351210D01*
X341354Y350350D01*
X341354Y350346D01*
X341351Y350343D01*
X341353Y350340D01*
X341353Y350334D01*
X341354Y350334D01*
X341354Y350333D01*
X342214Y349473D01*
X342214Y343210D01*
X341354Y342350D01*
X341354Y342346D01*
X341352Y342345D01*
X341354Y342344D01*
X341353Y342334D01*
X341354Y342334D01*
X341354Y342333D01*
X342214Y341473D01*
X342214Y335210D01*
X341354Y334350D01*
X341353Y334334D01*
X341354Y334334D01*
X341354Y334333D01*
X342181Y333506D01*
X342197Y333505D01*
X342197Y333507D01*
X342198Y333506D01*
X343058Y334366D01*
X343129Y334366D01*
X343140Y334377D01*
X343140Y334378D01*
X343141Y334378D01*
X343141Y337927D01*
X346603Y341389D01*
X350153Y341389D01*
X350164Y341400D01*
X350164Y341401D01*
X350165Y341401D01*
X350165Y341473D01*
X351025Y342333D01*
X351025Y342341D01*
X351026Y342342D01*
X351025Y342343D01*
X351026Y342349D01*
X351024Y342349D01*
X351025Y342350D01*
X350165Y343210D01*
X350165Y349473D01*
X351025Y350333D01*
X351025Y350337D01*
X351028Y350340D01*
X351025Y350343D01*
X351026Y350349D01*
X351024Y350349D01*
X351025Y350350D01*
X350165Y351210D01*
X350165Y351281D01*
X350154Y351293D01*
X350153Y351292D01*
X350153Y351293D01*
X346807Y351293D01*
X343141Y354959D01*
X343141Y358305D01*
X343130Y358317D01*
X343129Y358316D01*
X343129Y358317D01*
X343058Y358317D01*
X342165Y359210D01*
X342165Y365473D01*
X342461Y365770D01*
X342461Y365774D01*
X342463Y365775D01*
X342461Y365777D01*
X342462Y365785D01*
X342461Y365785D01*
X342461Y365786D01*
X341196Y367051D01*
X341191Y367052D01*
X341188Y367054D01*
X341188Y367055D01*
X323413Y367055D01*
X316585Y373882D01*
X316585Y396754D01*
X323184Y403353D01*
X324173Y403353D01*
X324185Y403363D01*
X324184Y403364D01*
X324185Y403365D01*
X324185Y408439D01*
X325078Y409332D01*
X341341Y409332D01*
X342235Y408439D01*
X342235Y404368D01*
X342245Y404357D01*
X342246Y404357D01*
X342247Y404356D01*
X347666Y404356D01*
X347678Y404367D01*
X347677Y404368D01*
X347678Y404368D01*
X347678Y406541D01*
X348571Y407434D01*
X359835Y407434D01*
X360728Y406541D01*
X360728Y394278D01*
X359835Y393385D01*
X348571Y393385D01*
X347678Y394278D01*
X347678Y398247D01*
X347668Y398259D01*
X347667Y398258D01*
X347666Y398259D01*
X342247Y398259D01*
X342235Y398249D01*
X342235Y398248D01*
X342235Y398247D01*
X342235Y394176D01*
X341342Y393283D01*
X325078Y393283D01*
X324185Y394176D01*
X324185Y395702D01*
X324182Y395705D01*
X324183Y395709D01*
X324178Y395710D01*
X324175Y395714D01*
X324170Y395710D01*
X324165Y395710D01*
X322686Y394231D01*
X322686Y394227D01*
X322683Y394225D01*
X322684Y394225D01*
X322682Y394223D01*
X322682Y376413D01*
X322686Y376409D01*
X322686Y376405D01*
X325935Y373156D01*
X325940Y373155D01*
X325941Y373154D01*
X325943Y373152D01*
X343718Y373152D01*
X349238Y367632D01*
X349238Y366378D01*
X349248Y366367D01*
X349249Y366367D01*
X349250Y366366D01*
X349321Y366366D01*
X350214Y365473D01*
X350214Y359210D01*
X349321Y358317D01*
X349250Y358317D01*
X349238Y358307D01*
X349239Y358306D01*
X349238Y358305D01*
X349238Y357490D01*
X349242Y357486D01*
X349242Y357482D01*
X349329Y357394D01*
X349335Y357394D01*
X349338Y357390D01*
X350153Y357390D01*
X350164Y357401D01*
X350164Y357402D01*
X350165Y357402D01*
X350165Y357473D01*
X351058Y358366D01*
X357321Y358366D01*
X358214Y357473D01*
X358214Y351210D01*
X357354Y350350D01*
X357354Y350346D01*
X357351Y350343D01*
X357353Y350340D01*
X357353Y350334D01*
X357354Y350334D01*
X357354Y350333D01*
X358214Y349473D01*
X358214Y343210D01*
X357354Y342350D01*
X357354Y342346D01*
X357352Y342345D01*
X357354Y342344D01*
X357353Y342334D01*
X357354Y342334D01*
X357354Y342333D01*
X358214Y341473D01*
X358214Y335210D01*
X357354Y334350D01*
X357353Y334334D01*
X357354Y334334D01*
X357354Y334333D01*
X358214Y333473D01*
X358214Y330633D01*
X358218Y330629D01*
X358218Y330625D01*
X358799Y330044D01*
X360588Y328254D01*
X360588Y306452D01*
X360599Y306440D01*
X360599Y306441D01*
X360600Y306440D01*
X363171Y306440D01*
X364064Y305547D01*
X364064Y293284D01*
X363171Y292390D01*
X360600Y292390D01*
X360588Y292380D01*
X360589Y292379D01*
X360588Y292379D01*
X360588Y286325D01*
X350792Y276529D01*
X318282Y276529D01*
G37*
%LPD*%
G36*
X363231Y195709D02*
X363231Y195709D01*
X363260Y195706D01*
X363327Y195728D01*
X363397Y195742D01*
X363421Y195759D01*
X363449Y195768D01*
X363502Y195815D01*
X363561Y195855D01*
X363577Y195879D01*
X363599Y195899D01*
X363630Y195963D01*
X363668Y196022D01*
X363673Y196051D01*
X363685Y196077D01*
X363694Y196177D01*
X363701Y196219D01*
X363698Y196229D01*
X363700Y196243D01*
X363468Y199041D01*
X363458Y199075D01*
X363454Y199123D01*
X362765Y201844D01*
X362750Y201876D01*
X362738Y201922D01*
X361610Y204494D01*
X361590Y204522D01*
X361571Y204566D01*
X360035Y206917D01*
X360011Y206941D01*
X359985Y206982D01*
X358083Y209047D01*
X358055Y209068D01*
X358022Y209103D01*
X355807Y210828D01*
X355776Y210843D01*
X355738Y210873D01*
X353268Y212209D01*
X353235Y212219D01*
X353193Y212242D01*
X352007Y212650D01*
X350553Y213149D01*
X350537Y213154D01*
X350503Y213159D01*
X350457Y213174D01*
X347688Y213636D01*
X347653Y213635D01*
X347606Y213643D01*
X344798Y213643D01*
X344764Y213636D01*
X344716Y213636D01*
X341947Y213174D01*
X341914Y213162D01*
X341867Y213154D01*
X339211Y212242D01*
X339181Y212225D01*
X339136Y212209D01*
X336666Y210873D01*
X336640Y210851D01*
X336597Y210828D01*
X334382Y209103D01*
X334359Y209077D01*
X334321Y209047D01*
X332419Y206982D01*
X332401Y206952D01*
X332369Y206917D01*
X330833Y204566D01*
X330820Y204534D01*
X330794Y204494D01*
X329666Y201922D01*
X329659Y201889D01*
X329656Y201882D01*
X329650Y201873D01*
X329649Y201867D01*
X329639Y201844D01*
X328950Y199123D01*
X328948Y199088D01*
X328936Y199041D01*
X328704Y196243D01*
X328708Y196214D01*
X328703Y196185D01*
X328720Y196116D01*
X328728Y196046D01*
X328742Y196020D01*
X328749Y195992D01*
X328791Y195935D01*
X328826Y195873D01*
X328850Y195855D01*
X328867Y195832D01*
X328928Y195796D01*
X328985Y195753D01*
X329013Y195745D01*
X329038Y195730D01*
X329136Y195714D01*
X329177Y195703D01*
X329188Y195705D01*
X329202Y195703D01*
X363202Y195703D01*
X363231Y195709D01*
G37*
G36*
X347640Y478768D02*
X347640Y478768D01*
X347688Y478768D01*
X350457Y479230D01*
X350490Y479242D01*
X350537Y479250D01*
X353193Y480162D01*
X353223Y480179D01*
X353268Y480195D01*
X355738Y481531D01*
X355764Y481553D01*
X355807Y481576D01*
X358022Y483301D01*
X358045Y483327D01*
X358083Y483357D01*
X359985Y485422D01*
X360003Y485452D01*
X360035Y485487D01*
X361571Y487838D01*
X361584Y487870D01*
X361610Y487910D01*
X362738Y490482D01*
X362745Y490515D01*
X362765Y490560D01*
X363454Y493281D01*
X363456Y493316D01*
X363468Y493363D01*
X363700Y496161D01*
X363696Y496190D01*
X363701Y496219D01*
X363685Y496288D01*
X363676Y496358D01*
X363662Y496384D01*
X363655Y496412D01*
X363613Y496469D01*
X363578Y496531D01*
X363554Y496549D01*
X363537Y496572D01*
X363476Y496608D01*
X363419Y496651D01*
X363391Y496659D01*
X363366Y496674D01*
X363268Y496690D01*
X363227Y496701D01*
X363216Y496699D01*
X363202Y496701D01*
X329202Y496701D01*
X329173Y496695D01*
X329144Y496698D01*
X329077Y496676D01*
X329007Y496662D01*
X328983Y496645D01*
X328955Y496636D01*
X328902Y496589D01*
X328843Y496549D01*
X328828Y496525D01*
X328806Y496505D01*
X328774Y496441D01*
X328736Y496382D01*
X328731Y496353D01*
X328719Y496327D01*
X328710Y496227D01*
X328703Y496185D01*
X328706Y496175D01*
X328704Y496161D01*
X328936Y493363D01*
X328946Y493329D01*
X328950Y493281D01*
X329639Y490560D01*
X329654Y490528D01*
X329666Y490482D01*
X330794Y487910D01*
X330814Y487882D01*
X330833Y487838D01*
X332369Y485487D01*
X332393Y485463D01*
X332419Y485422D01*
X334321Y483357D01*
X334349Y483336D01*
X334382Y483301D01*
X336597Y481576D01*
X336628Y481561D01*
X336666Y481531D01*
X339136Y480195D01*
X339169Y480185D01*
X339211Y480162D01*
X341867Y479250D01*
X341901Y479246D01*
X341947Y479230D01*
X344716Y478768D01*
X344751Y478769D01*
X344798Y478761D01*
X347606Y478761D01*
X347640Y478768D01*
G37*
G36*
X224809Y256012D02*
X224809Y256012D01*
X224880Y256009D01*
X224907Y256019D01*
X224936Y256021D01*
X225026Y256063D01*
X225066Y256078D01*
X225074Y256086D01*
X225087Y256092D01*
X227390Y257691D01*
X227414Y257717D01*
X227454Y257744D01*
X229463Y259701D01*
X229482Y259730D01*
X229517Y259763D01*
X231176Y262024D01*
X231191Y262055D01*
X231220Y262094D01*
X232484Y264597D01*
X232493Y264631D01*
X232515Y264674D01*
X233351Y267351D01*
X233354Y267385D01*
X233369Y267431D01*
X233752Y270210D01*
X233750Y270244D01*
X233756Y270292D01*
X233677Y273095D01*
X233669Y273129D01*
X233668Y273177D01*
X233129Y275929D01*
X233115Y275961D01*
X233106Y276009D01*
X232121Y278634D01*
X232106Y278659D01*
X232101Y278679D01*
X232093Y278690D01*
X232086Y278709D01*
X230682Y281137D01*
X230659Y281163D01*
X230635Y281205D01*
X228851Y283368D01*
X228824Y283390D01*
X228793Y283427D01*
X226677Y285268D01*
X226647Y285285D01*
X226611Y285317D01*
X224220Y286784D01*
X224188Y286795D01*
X224147Y286821D01*
X221548Y287874D01*
X221514Y287881D01*
X221469Y287899D01*
X218732Y288510D01*
X218697Y288511D01*
X218650Y288522D01*
X215850Y288674D01*
X215816Y288669D01*
X215768Y288672D01*
X212980Y288362D01*
X212947Y288351D01*
X212899Y288346D01*
X210201Y287581D01*
X210171Y287565D01*
X210124Y287552D01*
X207589Y286353D01*
X207565Y286336D01*
X207538Y286326D01*
X207486Y286277D01*
X207429Y286234D01*
X207415Y286209D01*
X207394Y286189D01*
X207365Y286124D01*
X207329Y286063D01*
X207326Y286034D01*
X207314Y286007D01*
X207313Y285936D01*
X207304Y285865D01*
X207312Y285837D01*
X207312Y285808D01*
X207346Y285715D01*
X207358Y285674D01*
X207365Y285665D01*
X207370Y285652D01*
X224370Y256252D01*
X224389Y256230D01*
X224402Y256204D01*
X224455Y256156D01*
X224502Y256103D01*
X224528Y256091D01*
X224550Y256071D01*
X224617Y256048D01*
X224681Y256018D01*
X224710Y256016D01*
X224738Y256007D01*
X224809Y256012D01*
G37*
G36*
X476588Y403735D02*
X476588Y403735D01*
X476636Y403732D01*
X479424Y404042D01*
X479457Y404053D01*
X479505Y404058D01*
X482203Y404823D01*
X482233Y404839D01*
X482280Y404852D01*
X484815Y406051D01*
X484839Y406068D01*
X484866Y406078D01*
X484918Y406127D01*
X484975Y406170D01*
X484989Y406195D01*
X485011Y406215D01*
X485039Y406280D01*
X485075Y406342D01*
X485078Y406370D01*
X485090Y406397D01*
X485091Y406468D01*
X485100Y406539D01*
X485092Y406567D01*
X485092Y406596D01*
X485058Y406689D01*
X485046Y406730D01*
X485039Y406739D01*
X485034Y406752D01*
X468034Y436152D01*
X468015Y436174D01*
X468002Y436200D01*
X467949Y436248D01*
X467902Y436301D01*
X467876Y436313D01*
X467854Y436333D01*
X467787Y436356D01*
X467723Y436386D01*
X467694Y436388D01*
X467666Y436397D01*
X467595Y436392D01*
X467524Y436395D01*
X467497Y436385D01*
X467468Y436383D01*
X467378Y436341D01*
X467338Y436326D01*
X467330Y436318D01*
X467317Y436312D01*
X465014Y434713D01*
X464990Y434688D01*
X464950Y434660D01*
X462941Y432703D01*
X462922Y432674D01*
X462887Y432641D01*
X461228Y430380D01*
X461213Y430349D01*
X461184Y430310D01*
X459920Y427807D01*
X459911Y427773D01*
X459889Y427730D01*
X459053Y425053D01*
X459050Y425019D01*
X459035Y424973D01*
X458652Y422194D01*
X458654Y422160D01*
X458648Y422112D01*
X458727Y419309D01*
X458735Y419275D01*
X458736Y419227D01*
X459275Y416475D01*
X459289Y416443D01*
X459298Y416395D01*
X460283Y413770D01*
X460301Y413740D01*
X460318Y413695D01*
X461722Y411267D01*
X461745Y411241D01*
X461769Y411200D01*
X463553Y409036D01*
X463580Y409014D01*
X463611Y408977D01*
X465727Y407136D01*
X465757Y407119D01*
X465793Y407088D01*
X468184Y405620D01*
X468216Y405609D01*
X468257Y405583D01*
X470856Y404530D01*
X470890Y404523D01*
X470935Y404505D01*
X473672Y403894D01*
X473707Y403893D01*
X473754Y403882D01*
X476554Y403730D01*
X476588Y403735D01*
G37*
G36*
X467628Y256013D02*
X467628Y256013D01*
X467699Y256012D01*
X467726Y256023D01*
X467755Y256027D01*
X467817Y256061D01*
X467882Y256089D01*
X467903Y256110D01*
X467928Y256124D01*
X467991Y256200D01*
X468021Y256231D01*
X468025Y256241D01*
X468034Y256252D01*
X485034Y285652D01*
X485043Y285680D01*
X485060Y285704D01*
X485075Y285773D01*
X485097Y285841D01*
X485095Y285870D01*
X485101Y285898D01*
X485088Y285968D01*
X485082Y286039D01*
X485069Y286065D01*
X485063Y286093D01*
X485023Y286152D01*
X484991Y286215D01*
X484968Y286234D01*
X484952Y286258D01*
X484870Y286315D01*
X484837Y286342D01*
X484827Y286345D01*
X484815Y286353D01*
X482280Y287552D01*
X482246Y287560D01*
X482203Y287581D01*
X479505Y288346D01*
X479470Y288348D01*
X479424Y288362D01*
X476636Y288672D01*
X476602Y288669D01*
X476554Y288674D01*
X473754Y288522D01*
X473720Y288513D01*
X473672Y288510D01*
X470935Y287899D01*
X470903Y287885D01*
X470856Y287874D01*
X468257Y286821D01*
X468228Y286802D01*
X468184Y286784D01*
X465793Y285317D01*
X465768Y285293D01*
X465727Y285268D01*
X463611Y283427D01*
X463590Y283400D01*
X463553Y283368D01*
X461769Y281205D01*
X461753Y281174D01*
X461722Y281137D01*
X460318Y278709D01*
X460307Y278676D01*
X460300Y278663D01*
X460290Y278649D01*
X460290Y278646D01*
X460283Y278634D01*
X459298Y276009D01*
X459292Y275974D01*
X459275Y275929D01*
X458736Y273177D01*
X458736Y273143D01*
X458727Y273095D01*
X458648Y270292D01*
X458654Y270258D01*
X458652Y270210D01*
X459035Y267431D01*
X459047Y267399D01*
X459053Y267351D01*
X459889Y264674D01*
X459906Y264643D01*
X459920Y264597D01*
X461184Y262094D01*
X461206Y262067D01*
X461228Y262024D01*
X462887Y259763D01*
X462913Y259740D01*
X462941Y259701D01*
X464950Y257744D01*
X464979Y257725D01*
X465014Y257691D01*
X467317Y256092D01*
X467344Y256080D01*
X467367Y256062D01*
X467435Y256041D01*
X467500Y256013D01*
X467529Y256013D01*
X467557Y256005D01*
X467628Y256013D01*
G37*
G36*
X218650Y403882D02*
X218650Y403882D01*
X218684Y403891D01*
X218732Y403894D01*
X221469Y404505D01*
X221501Y404519D01*
X221548Y404530D01*
X224147Y405583D01*
X224176Y405602D01*
X224220Y405620D01*
X226611Y407088D01*
X226636Y407111D01*
X226677Y407136D01*
X228793Y408977D01*
X228814Y409004D01*
X228851Y409036D01*
X230635Y411200D01*
X230651Y411230D01*
X230682Y411267D01*
X232086Y413695D01*
X232097Y413728D01*
X232121Y413770D01*
X233106Y416395D01*
X233112Y416430D01*
X233129Y416475D01*
X233668Y419227D01*
X233668Y419262D01*
X233677Y419309D01*
X233756Y422112D01*
X233751Y422146D01*
X233752Y422194D01*
X233369Y424973D01*
X233357Y425005D01*
X233351Y425053D01*
X232515Y427730D01*
X232498Y427761D01*
X232484Y427807D01*
X231220Y430310D01*
X231198Y430337D01*
X231176Y430380D01*
X229517Y432641D01*
X229491Y432664D01*
X229463Y432703D01*
X227454Y434660D01*
X227425Y434679D01*
X227390Y434713D01*
X225087Y436312D01*
X225060Y436324D01*
X225037Y436342D01*
X224969Y436363D01*
X224904Y436391D01*
X224875Y436391D01*
X224847Y436399D01*
X224776Y436391D01*
X224705Y436392D01*
X224678Y436381D01*
X224649Y436377D01*
X224587Y436343D01*
X224522Y436315D01*
X224501Y436294D01*
X224476Y436280D01*
X224413Y436204D01*
X224383Y436173D01*
X224379Y436163D01*
X224370Y436152D01*
X207370Y406752D01*
X207361Y406724D01*
X207344Y406700D01*
X207329Y406631D01*
X207307Y406563D01*
X207309Y406534D01*
X207303Y406506D01*
X207316Y406436D01*
X207322Y406365D01*
X207335Y406339D01*
X207341Y406311D01*
X207381Y406252D01*
X207413Y406189D01*
X207436Y406170D01*
X207452Y406146D01*
X207534Y406089D01*
X207567Y406062D01*
X207577Y406059D01*
X207589Y406051D01*
X210124Y404852D01*
X210158Y404844D01*
X210201Y404823D01*
X212899Y404058D01*
X212934Y404056D01*
X212980Y404042D01*
X215768Y403732D01*
X215802Y403735D01*
X215850Y403730D01*
X218650Y403882D01*
G37*
%LPC*%
G36*
X238891Y351098D02*
X238891Y351098D01*
X237997Y351991D01*
X237997Y363255D01*
X238891Y364148D01*
X251154Y364148D01*
X252047Y363255D01*
X252047Y360684D01*
X252057Y360672D01*
X252058Y360673D01*
X252059Y360672D01*
X266751Y360672D01*
X266756Y360675D01*
X266760Y360675D01*
X268263Y362179D01*
X272660Y362179D01*
X275768Y359070D01*
X275768Y354674D01*
X272660Y351565D01*
X268263Y351565D01*
X265258Y354571D01*
X265252Y354571D01*
X265249Y354574D01*
X252059Y354574D01*
X252047Y354564D01*
X252048Y354563D01*
X252047Y354562D01*
X252047Y351991D01*
X251154Y351098D01*
X238891Y351098D01*
G37*
%LPD*%
%LPC*%
G36*
X383538Y438849D02*
X383538Y438849D01*
X380429Y441958D01*
X380429Y446354D01*
X383538Y449463D01*
X386726Y449463D01*
X386730Y449466D01*
X386735Y449466D01*
X387510Y450241D01*
X390463Y450241D01*
X390474Y450252D01*
X390475Y450253D01*
X390475Y451360D01*
X392832Y453717D01*
X407166Y453717D01*
X409524Y451360D01*
X409524Y443025D01*
X407166Y440668D01*
X392832Y440668D01*
X391063Y442437D01*
X391059Y442437D01*
X391056Y442440D01*
X391055Y442439D01*
X391052Y442437D01*
X391047Y442438D01*
X391047Y442433D01*
X391043Y442429D01*
X391043Y442428D01*
X391043Y441958D01*
X387934Y438849D01*
X383538Y438849D01*
G37*
%LPD*%
%LPC*%
G36*
X441476Y364263D02*
X441476Y364263D01*
X438368Y367372D01*
X438368Y371768D01*
X440331Y373731D01*
X440331Y373735D01*
X440334Y373738D01*
X440331Y373741D01*
X440332Y373747D01*
X440326Y373747D01*
X440322Y373751D01*
X438743Y373751D01*
X436385Y376109D01*
X436385Y384443D01*
X438743Y386801D01*
X453077Y386801D01*
X455434Y384443D01*
X455434Y376109D01*
X453077Y373751D01*
X448970Y373751D01*
X448959Y373741D01*
X448959Y373740D01*
X448958Y373739D01*
X448958Y371796D01*
X448962Y371792D01*
X448962Y371787D01*
X448981Y371768D01*
X448981Y367372D01*
X445873Y364263D01*
X441476Y364263D01*
G37*
%LPD*%
%LPC*%
G36*
X440676Y316397D02*
X440676Y316397D01*
X437568Y319506D01*
X437568Y323902D01*
X440676Y327010D01*
X443865Y327010D01*
X443869Y327014D01*
X443873Y327014D01*
X451429Y334570D01*
X452456Y334570D01*
X452468Y334580D01*
X452467Y334581D01*
X452468Y334581D01*
X452468Y337652D01*
X453361Y338546D01*
X464624Y338546D01*
X465518Y337652D01*
X465518Y325389D01*
X464624Y324496D01*
X453361Y324496D01*
X452468Y325389D01*
X452468Y326957D01*
X452465Y326960D01*
X452466Y326964D01*
X452461Y326965D01*
X452458Y326969D01*
X452456Y326968D01*
X452455Y326968D01*
X452452Y326965D01*
X452448Y326965D01*
X448185Y322702D01*
X448184Y322698D01*
X448182Y322696D01*
X448182Y322695D01*
X448181Y322694D01*
X448181Y319506D01*
X445073Y316397D01*
X440676Y316397D01*
G37*
%LPD*%
%LPC*%
G36*
X272842Y438534D02*
X272842Y438534D01*
X270485Y440892D01*
X270485Y449226D01*
X272843Y451583D01*
X287177Y451583D01*
X289534Y449226D01*
X289534Y448579D01*
X289537Y448576D01*
X289537Y448572D01*
X289541Y448571D01*
X289545Y448567D01*
X289549Y448571D01*
X289555Y448571D01*
X291400Y450416D01*
X295797Y450416D01*
X298905Y447308D01*
X298905Y442911D01*
X295797Y439803D01*
X291400Y439803D01*
X289555Y441649D01*
X289551Y441649D01*
X289548Y441652D01*
X289547Y441651D01*
X289547Y441652D01*
X289546Y441652D01*
X289544Y441649D01*
X289539Y441650D01*
X289539Y441645D01*
X289534Y441641D01*
X289535Y441641D01*
X289534Y441640D01*
X289534Y440892D01*
X287177Y438534D01*
X272842Y438534D01*
G37*
%LPD*%
%LPC*%
G36*
X272842Y413134D02*
X272842Y413134D01*
X270485Y415492D01*
X270485Y415923D01*
X270482Y415926D01*
X270482Y415930D01*
X270478Y415930D01*
X270474Y415935D01*
X270470Y415931D01*
X270465Y415931D01*
X268885Y414352D01*
X264489Y414352D01*
X261381Y417461D01*
X261381Y421857D01*
X264489Y424966D01*
X268885Y424966D01*
X270465Y423386D01*
X270469Y423386D01*
X270471Y423383D01*
X270475Y423386D01*
X270480Y423385D01*
X270481Y423391D01*
X270485Y423395D01*
X270485Y423826D01*
X272843Y426183D01*
X287177Y426183D01*
X289534Y423826D01*
X289534Y415492D01*
X287177Y413134D01*
X272842Y413134D01*
G37*
%LPD*%
%LPC*%
G36*
X244466Y321647D02*
X244466Y321647D01*
X243573Y322540D01*
X243573Y328380D01*
X243569Y328384D01*
X243570Y328388D01*
X241973Y329985D01*
X241973Y334086D01*
X241963Y334098D01*
X241962Y334097D01*
X241961Y334098D01*
X238891Y334098D01*
X237997Y334991D01*
X237997Y346255D01*
X238891Y347148D01*
X251154Y347148D01*
X252047Y346255D01*
X252047Y334991D01*
X251154Y334098D01*
X248083Y334098D01*
X248071Y334088D01*
X248072Y334087D01*
X248071Y334086D01*
X248071Y332708D01*
X248081Y332697D01*
X248082Y332697D01*
X248083Y332696D01*
X253729Y332696D01*
X254623Y331803D01*
X254623Y322540D01*
X253729Y321647D01*
X244466Y321647D01*
G37*
%LPD*%
%LPC*%
G36*
X475411Y348160D02*
X475411Y348160D01*
X472302Y351268D01*
X472302Y354457D01*
X472298Y354461D01*
X472299Y354465D01*
X465838Y360925D01*
X465833Y360926D01*
X465830Y360929D01*
X458554Y360929D01*
X458550Y360925D01*
X458546Y360925D01*
X456291Y358671D01*
X451895Y358671D01*
X448786Y361779D01*
X448786Y366176D01*
X451895Y369284D01*
X456291Y369284D01*
X458546Y367030D01*
X458551Y367029D01*
X458554Y367026D01*
X468361Y367026D01*
X476610Y358777D01*
X476616Y358776D01*
X476619Y358773D01*
X479807Y358773D01*
X482916Y355665D01*
X482916Y351268D01*
X479807Y348160D01*
X475411Y348160D01*
G37*
%LPD*%
%LPC*%
G36*
X346798Y217362D02*
X346798Y217362D01*
X343689Y220471D01*
X343689Y224867D01*
X346798Y227976D01*
X351194Y227976D01*
X353438Y225732D01*
X353444Y225731D01*
X353447Y225728D01*
X371914Y225728D01*
X371918Y225732D01*
X371922Y225732D01*
X374179Y227989D01*
X378575Y227989D01*
X381684Y224880D01*
X381684Y220484D01*
X378575Y217375D01*
X374179Y217375D01*
X371927Y219627D01*
X371921Y219627D01*
X371919Y219631D01*
X353467Y219631D01*
X353463Y219627D01*
X353459Y219627D01*
X351194Y217362D01*
X346798Y217362D01*
G37*
%LPD*%
D10*
X249098Y327172D03*
X249098Y312172D03*
D11*
X458993Y331521D03*
X475993Y331521D03*
D12*
X245022Y340623D03*
X245022Y357623D03*
D13*
X274510Y422159D02*
X285510Y422159D01*
X285510Y417159D01*
X274510Y417159D01*
X274510Y422159D01*
X274510Y421909D02*
X285510Y421909D01*
X285510Y442559D02*
X274510Y442559D01*
X274510Y447559D01*
X285510Y447559D01*
X285510Y442559D01*
X285510Y447309D02*
X274510Y447309D01*
X394499Y444692D02*
X405499Y444692D01*
X394499Y444692D02*
X394499Y449692D01*
X405499Y449692D01*
X405499Y444692D01*
X405499Y449442D02*
X394499Y449442D01*
X440410Y377776D02*
X451410Y377776D01*
X440410Y377776D02*
X440410Y382776D01*
X451410Y382776D01*
X451410Y377776D01*
X451410Y382526D02*
X440410Y382526D01*
D14*
X428802Y489302D03*
X511402Y346202D03*
X428802Y203102D03*
X263602Y203102D03*
X181002Y346202D03*
X263602Y489302D03*
X470102Y417702D03*
X470102Y274702D03*
X346202Y203102D03*
X222302Y274702D03*
X222302Y417702D03*
X346202Y489302D03*
D15*
X354189Y362342D03*
X354189Y354342D03*
X354189Y346342D03*
X354189Y338342D03*
X354189Y330342D03*
X346189Y330342D03*
X338189Y330342D03*
X338189Y338342D03*
X338189Y346342D03*
X338189Y354342D03*
X338189Y362342D03*
X346189Y362342D03*
D11*
X354203Y383409D03*
X354203Y400409D03*
D16*
X333210Y382308D03*
X333210Y401308D03*
D11*
X357539Y299415D03*
X374539Y299415D03*
X279455Y323393D03*
X262455Y323393D03*
D12*
X314630Y346422D03*
X314630Y329422D03*
D11*
X343018Y291757D03*
X326018Y291757D03*
D17*
X348996Y222669D03*
D18*
X349006Y222679D01*
X376375Y222679D02*
X376377Y222682D01*
D17*
X376377Y222682D03*
D18*
X376375Y222679D02*
X349006Y222679D01*
X249187Y285610D02*
X249098Y285699D01*
D17*
X249187Y285610D03*
D18*
X249098Y285699D02*
X249098Y312172D01*
X249187Y229984D02*
X256502Y222669D01*
X249187Y229984D02*
X249187Y285610D01*
D17*
X256502Y222669D03*
X477609Y353466D03*
D18*
X467098Y363978D01*
X454093Y363978D01*
D17*
X454093Y363978D03*
D18*
X326018Y291757D02*
X314630Y303145D01*
X314630Y329422D01*
D17*
X314630Y303145D03*
X396621Y384937D03*
D18*
X396621Y376174D01*
X382789Y362342D01*
X314630Y329422D02*
X312899Y329422D01*
X295669Y312191D02*
X271945Y312191D01*
X262455Y321682D01*
X262455Y323393D01*
X295669Y312191D02*
X312899Y329422D01*
X303528Y362342D02*
X338189Y362342D01*
D17*
X308178Y398894D03*
D18*
X428802Y422932D02*
X428802Y489302D01*
X396621Y390754D02*
X396621Y384937D01*
X475993Y331521D02*
X496721Y331521D01*
X511402Y346202D01*
X251785Y348671D02*
X183471Y348671D01*
X181002Y346202D01*
X374539Y299415D02*
X374539Y257365D01*
X401721Y230183D01*
X428802Y203102D01*
X290683Y230183D02*
X263602Y203102D01*
X290683Y230183D02*
X401721Y230183D01*
X443887Y299415D02*
X475993Y331521D01*
X443887Y299415D02*
X374539Y299415D01*
X396624Y390754D02*
X428802Y422932D01*
X396624Y390754D02*
X396621Y390754D01*
X308178Y466951D02*
X285827Y489302D01*
X263602Y489302D01*
X308178Y466951D02*
X308178Y398894D01*
X251785Y348671D02*
X262455Y338001D01*
X262455Y323393D01*
X279187Y338001D02*
X303528Y362342D01*
X279187Y338001D02*
X262455Y338001D01*
X308178Y366992D02*
X308178Y398894D01*
X308178Y366992D02*
X303528Y362342D01*
X366319Y362318D02*
X374539Y354098D01*
X366319Y362318D02*
X354213Y362318D01*
X354189Y362342D01*
X374539Y354098D02*
X374539Y299415D01*
X366342Y362342D02*
X382789Y362342D01*
X366342Y362342D02*
X366319Y362318D01*
X354189Y362342D02*
X354189Y383396D01*
X354203Y383409D01*
X334298Y383396D02*
X333210Y382308D01*
X334298Y383396D02*
X354189Y383396D01*
X406451Y466951D02*
X428802Y489302D01*
X406451Y466951D02*
X308178Y466951D01*
D17*
X241859Y267919D03*
D18*
X229085Y267919D01*
X222302Y274702D01*
D17*
X214008Y394310D03*
D18*
X214008Y409408D01*
X222302Y417702D01*
D17*
X270461Y356872D03*
D18*
X269710Y357623D01*
X245022Y357623D01*
X245022Y340623D02*
X245022Y331247D01*
X249098Y327172D01*
D17*
X442874Y321704D03*
D18*
X452692Y331521D01*
X458993Y331521D01*
D17*
X331775Y476529D03*
D18*
X344547Y489302D01*
X346202Y489302D01*
X388772Y447192D02*
X399999Y447192D01*
X388772Y447192D02*
X385736Y444156D01*
D17*
X385736Y444156D03*
D18*
X445910Y380276D02*
X445910Y371805D01*
X443675Y369570D01*
D17*
X443675Y369570D03*
X453327Y281838D03*
D18*
X462966Y281838D01*
X470102Y274702D01*
D17*
X364909Y211544D03*
D18*
X356467Y203102D01*
X346202Y203102D01*
D17*
X463375Y398018D03*
D18*
X463375Y410975D01*
X470102Y417702D01*
X280010Y419659D02*
X266687Y419659D01*
D17*
X266687Y419659D03*
D18*
X280010Y445059D02*
X293548Y445059D01*
X293599Y445110D01*
D17*
X293599Y445110D03*
X343141Y301993D03*
D18*
X343141Y291880D01*
X343018Y291757D01*
X343141Y301993D02*
X338189Y306945D01*
X338189Y330342D01*
X338189Y354342D02*
X321520Y354342D01*
X321392Y354470D01*
X306641Y354470D01*
X294329Y342157D01*
X294329Y324885D01*
X295542Y323672D01*
D17*
X295542Y323672D03*
D18*
X279734Y323672D02*
X279455Y323393D01*
X279734Y323672D02*
X295542Y323672D01*
X314630Y346422D02*
X338109Y346422D01*
X338189Y346342D01*
D17*
X301396Y332029D03*
D18*
X301396Y342087D01*
X305731Y346422D02*
X314630Y346422D01*
X305731Y346422D02*
X301396Y342087D01*
X354189Y330342D02*
X357539Y326992D01*
X357539Y299415D01*
X357539Y287588D01*
X349529Y279578D01*
X319545Y279578D01*
X305880Y293243D01*
X305880Y311518D01*
D17*
X305880Y311518D03*
D18*
X354189Y346342D02*
X354189Y354342D01*
X354189Y346342D02*
X354189Y338342D01*
X346189Y336664D02*
X346189Y330342D01*
X346189Y336664D02*
X347866Y338341D01*
X354188Y338341D01*
X354189Y338342D01*
X346189Y356222D02*
X346189Y362342D01*
X348070Y354342D02*
X354189Y354342D01*
X348070Y354342D02*
X346189Y356222D01*
X346189Y366370D02*
X342456Y370103D01*
X346189Y366370D02*
X346189Y362342D01*
X354101Y400308D02*
X354203Y400409D01*
X342456Y370103D02*
X324676Y370103D01*
X319634Y375145D01*
X319634Y395491D01*
X324447Y400304D01*
X333206Y400304D01*
X333210Y401308D01*
X353101Y401308D01*
X354101Y400308D01*
M02*
