G04 EAGLE Gerber RS-274X export*
G75*
%MOMM*%
%FSLAX34Y34*%
%LPD*%
%INBottom Copper*%
%IPPOS*%
%AMOC8*
5,1,8,0,0,1.08239X$1,22.5*%
G01*
%ADD10R,1.000000X1.100000*%
%ADD11R,1.500000X1.300000*%
%ADD12C,0.124994*%
%ADD13R,5.699988X5.699988*%
%ADD14R,1.399997X0.400000*%
%ADD15R,1.300000X1.500000*%
%ADD16R,1.100000X1.000000*%
%ADD17C,0.499997*%
%ADD18C,1.000000*%
%ADD19C,0.304800*%
%ADD20C,0.756400*%

G36*
X278630Y195708D02*
X278630Y195708D01*
X278658Y195706D01*
X278726Y195728D01*
X278797Y195742D01*
X278820Y195758D01*
X278847Y195767D01*
X278902Y195814D01*
X278961Y195855D01*
X278976Y195879D01*
X278998Y195897D01*
X279029Y195962D01*
X279068Y196022D01*
X279073Y196050D01*
X279085Y196076D01*
X279094Y196177D01*
X279101Y196219D01*
X279099Y196229D01*
X279100Y196242D01*
X279043Y196957D01*
X327165Y196957D01*
X327177Y196967D01*
X327176Y196968D01*
X327177Y196969D01*
X327177Y197041D01*
X327242Y197106D01*
X327243Y197110D01*
X327243Y197111D01*
X327246Y197113D01*
X327362Y198517D01*
X327359Y198521D01*
X327361Y198524D01*
X327265Y198684D01*
X327430Y199334D01*
X327429Y199335D01*
X327430Y199336D01*
X327485Y200003D01*
X327627Y200123D01*
X327628Y200128D01*
X327631Y200130D01*
X328000Y201586D01*
X328000Y201587D01*
X328000Y201588D01*
X327998Y201591D01*
X328000Y201594D01*
X327932Y201767D01*
X328201Y202381D01*
X328201Y202382D01*
X328202Y202383D01*
X328366Y203032D01*
X328526Y203127D01*
X328528Y203132D01*
X328531Y203133D01*
X329135Y204509D01*
X329134Y204511D01*
X329135Y204512D01*
X329134Y204514D01*
X329135Y204516D01*
X329097Y204698D01*
X329464Y205259D01*
X329463Y205261D01*
X329465Y205261D01*
X329734Y205874D01*
X329907Y205942D01*
X329909Y205946D01*
X329913Y205947D01*
X330735Y207205D01*
X330734Y207208D01*
X330736Y207210D01*
X330735Y207211D01*
X330737Y207212D01*
X330729Y207398D01*
X331183Y207891D01*
X331183Y207892D01*
X331184Y207892D01*
X331550Y208453D01*
X331733Y208491D01*
X331735Y208495D01*
X331739Y208495D01*
X332757Y209601D01*
X332757Y209605D01*
X332760Y209607D01*
X332783Y209792D01*
X333311Y210203D01*
X333312Y210205D01*
X333313Y210205D01*
X333767Y210698D01*
X333953Y210705D01*
X333956Y210708D01*
X333960Y210708D01*
X335145Y211631D01*
X335146Y211635D01*
X335150Y211637D01*
X335203Y211815D01*
X335792Y212134D01*
X335792Y212136D01*
X335793Y212135D01*
X336322Y212547D01*
X336507Y212524D01*
X336511Y212526D01*
X336514Y212525D01*
X337836Y213240D01*
X337837Y213245D01*
X337841Y213246D01*
X337923Y213413D01*
X338556Y213630D01*
X338557Y213632D01*
X338558Y213631D01*
X339147Y213950D01*
X339326Y213897D01*
X339330Y213899D01*
X339333Y213897D01*
X340754Y214385D01*
X340757Y214389D01*
X340760Y214389D01*
X340868Y214541D01*
X341529Y214651D01*
X341530Y214652D01*
X341531Y214652D01*
X342165Y214869D01*
X342332Y214787D01*
X342336Y214789D01*
X342339Y214786D01*
X343821Y215034D01*
X343824Y215037D01*
X343828Y215037D01*
X343959Y215169D01*
X344629Y215169D01*
X344630Y215170D01*
X344631Y215169D01*
X345292Y215279D01*
X345444Y215171D01*
X345448Y215171D01*
X345451Y215169D01*
X346953Y215169D01*
X346957Y215172D01*
X346960Y215171D01*
X347112Y215279D01*
X347773Y215169D01*
X347774Y215170D01*
X347775Y215169D01*
X348445Y215169D01*
X348576Y215037D01*
X348581Y215037D01*
X348583Y215034D01*
X350065Y214786D01*
X350069Y214789D01*
X350072Y214787D01*
X350239Y214869D01*
X350873Y214652D01*
X350874Y214652D01*
X350875Y214651D01*
X351536Y214541D01*
X351644Y214389D01*
X351648Y214388D01*
X351650Y214385D01*
X352777Y213998D01*
X352785Y214001D01*
X352789Y214001D01*
X360650Y221861D01*
X360650Y221866D01*
X360653Y221869D01*
X360653Y221870D01*
X360653Y307084D01*
X360651Y307087D01*
X360651Y307092D01*
X360647Y307092D01*
X360643Y307096D01*
X360639Y307092D01*
X360633Y307093D01*
X360217Y306677D01*
X357187Y306677D01*
X355927Y307936D01*
X355927Y315467D01*
X357187Y316727D01*
X360217Y316727D01*
X361194Y315751D01*
X361209Y315750D01*
X361209Y315751D01*
X361210Y315751D01*
X362187Y316727D01*
X365217Y316727D01*
X366194Y315751D01*
X366209Y315750D01*
X366209Y315751D01*
X366210Y315751D01*
X367187Y316727D01*
X370217Y316727D01*
X371194Y315751D01*
X371209Y315750D01*
X371209Y315751D01*
X371210Y315751D01*
X372187Y316727D01*
X375217Y316727D01*
X376477Y315467D01*
X376477Y313244D01*
X376480Y313240D01*
X376480Y313235D01*
X376751Y312965D01*
X376751Y284829D01*
X376754Y284825D01*
X376754Y284820D01*
X377633Y283942D01*
X377637Y283941D01*
X377640Y283938D01*
X377643Y283941D01*
X377649Y283941D01*
X377649Y283946D01*
X377653Y283950D01*
X377653Y315915D01*
X377643Y315927D01*
X377642Y315927D01*
X377641Y315927D01*
X376937Y315927D01*
X375677Y317187D01*
X375677Y320217D01*
X376653Y321194D01*
X376654Y321198D01*
X376657Y321201D01*
X376654Y321204D01*
X376654Y321209D01*
X376653Y321209D01*
X376653Y321210D01*
X375677Y322187D01*
X375677Y325217D01*
X376653Y326194D01*
X376654Y326202D01*
X376655Y326203D01*
X376654Y326203D01*
X376654Y326209D01*
X376653Y326209D01*
X376653Y326210D01*
X375677Y327187D01*
X375677Y330217D01*
X376653Y331194D01*
X376654Y331209D01*
X376653Y331209D01*
X376653Y331210D01*
X375677Y332187D01*
X375677Y335217D01*
X376653Y336194D01*
X376654Y336209D01*
X376653Y336209D01*
X376653Y336210D01*
X375677Y337187D01*
X375677Y340217D01*
X376653Y341194D01*
X376654Y341209D01*
X376653Y341209D01*
X376653Y341210D01*
X375677Y342187D01*
X375677Y345217D01*
X376653Y346194D01*
X376654Y346197D01*
X376654Y346198D01*
X376654Y346209D01*
X376653Y346209D01*
X376653Y346210D01*
X375677Y347187D01*
X375677Y350217D01*
X376653Y351194D01*
X376654Y351198D01*
X376656Y351200D01*
X376654Y351202D01*
X376654Y351209D01*
X376653Y351209D01*
X376653Y351210D01*
X375677Y352187D01*
X375677Y355217D01*
X376653Y356194D01*
X376654Y356200D01*
X376656Y356201D01*
X376654Y356204D01*
X376654Y356209D01*
X376653Y356209D01*
X376653Y356210D01*
X375677Y357187D01*
X375677Y360217D01*
X376653Y361194D01*
X376654Y361209D01*
X376653Y361209D01*
X376653Y361210D01*
X375677Y362187D01*
X375677Y365217D01*
X376653Y366194D01*
X376654Y366209D01*
X376653Y366209D01*
X376653Y366210D01*
X375677Y367187D01*
X375677Y370217D01*
X376653Y371194D01*
X376654Y371209D01*
X376653Y371209D01*
X376653Y371210D01*
X375677Y372187D01*
X375677Y374410D01*
X375674Y374415D01*
X375674Y374419D01*
X374419Y375674D01*
X374413Y375674D01*
X374410Y375677D01*
X372187Y375677D01*
X370927Y376937D01*
X370927Y379160D01*
X370924Y379165D01*
X370924Y379169D01*
X370653Y379439D01*
X370653Y389185D01*
X375614Y394146D01*
X375614Y394150D01*
X375615Y394151D01*
X375615Y394152D01*
X375617Y394154D01*
X375617Y402494D01*
X376510Y403387D01*
X388774Y403387D01*
X389653Y402508D01*
X389669Y402507D01*
X389669Y402508D01*
X389670Y402508D01*
X390448Y403285D01*
X402711Y403285D01*
X403604Y402392D01*
X403604Y391129D01*
X402711Y390236D01*
X399640Y390236D01*
X399628Y390226D01*
X399629Y390225D01*
X399628Y390224D01*
X399628Y389440D01*
X399632Y389436D01*
X399631Y389431D01*
X401928Y387135D01*
X401928Y382739D01*
X398819Y379630D01*
X394423Y379630D01*
X391314Y382739D01*
X391314Y387135D01*
X393527Y389348D01*
X393527Y389352D01*
X393527Y389353D01*
X393530Y389356D01*
X393530Y390224D01*
X393520Y390236D01*
X393519Y390235D01*
X393519Y390236D01*
X390448Y390236D01*
X389568Y391115D01*
X389552Y391116D01*
X389552Y391115D01*
X389551Y391115D01*
X388774Y390338D01*
X380434Y390338D01*
X380429Y390334D01*
X380425Y390334D01*
X376754Y386663D01*
X376754Y386659D01*
X376752Y386657D01*
X376753Y386656D01*
X376751Y386655D01*
X376751Y381970D01*
X376754Y381966D01*
X376754Y381961D01*
X382235Y376480D01*
X382241Y376480D01*
X382244Y376477D01*
X384468Y376477D01*
X385727Y375217D01*
X385727Y372187D01*
X384751Y371210D01*
X384750Y371195D01*
X384751Y371195D01*
X384751Y371194D01*
X385727Y370217D01*
X385727Y367187D01*
X384751Y366210D01*
X384750Y366195D01*
X384751Y366195D01*
X384751Y366194D01*
X385727Y365217D01*
X385727Y362187D01*
X384751Y361210D01*
X384750Y361207D01*
X384750Y361206D01*
X384750Y361195D01*
X384751Y361195D01*
X384751Y361194D01*
X385727Y360217D01*
X385727Y357187D01*
X385311Y356771D01*
X385311Y356767D01*
X385309Y356766D01*
X385309Y356765D01*
X385308Y356764D01*
X385311Y356761D01*
X385310Y356755D01*
X385316Y356755D01*
X385320Y356751D01*
X386305Y356751D01*
X386309Y356754D01*
X386314Y356754D01*
X387130Y357571D01*
X387130Y357576D01*
X387133Y357579D01*
X387133Y371328D01*
X388923Y373118D01*
X391547Y375741D01*
X394663Y375741D01*
X394667Y375745D01*
X394672Y375745D01*
X395144Y376217D01*
X410407Y376217D01*
X411300Y375324D01*
X411300Y370061D01*
X410407Y369168D01*
X395144Y369168D01*
X394672Y369640D01*
X394666Y369641D01*
X394663Y369644D01*
X394077Y369644D01*
X394073Y369640D01*
X394069Y369640D01*
X393234Y368806D01*
X393234Y368801D01*
X393231Y368799D01*
X393231Y368798D01*
X393231Y355048D01*
X391441Y353259D01*
X389954Y351771D01*
X389953Y351767D01*
X389950Y351764D01*
X389953Y351761D01*
X389953Y351755D01*
X389958Y351755D01*
X389962Y351751D01*
X394672Y351751D01*
X394677Y351754D01*
X394681Y351754D01*
X395144Y352217D01*
X410407Y352217D01*
X411300Y351324D01*
X411300Y346705D01*
X411311Y346694D01*
X411312Y346694D01*
X411312Y346693D01*
X413919Y346693D01*
X413924Y346697D01*
X413928Y346697D01*
X415604Y348373D01*
X415801Y348373D01*
X415805Y348377D01*
X415809Y348377D01*
X419085Y351652D01*
X419085Y351658D01*
X419088Y351661D01*
X419088Y360001D01*
X419981Y360894D01*
X430682Y360894D01*
X430686Y360898D01*
X430690Y360897D01*
X438364Y368571D01*
X438365Y368577D01*
X438368Y368580D01*
X438368Y371768D01*
X440331Y373731D01*
X440331Y373735D01*
X440334Y373738D01*
X440331Y373741D01*
X440332Y373747D01*
X440326Y373747D01*
X440322Y373751D01*
X438743Y373751D01*
X436385Y376109D01*
X436385Y384443D01*
X438743Y386801D01*
X453077Y386801D01*
X455434Y384443D01*
X455434Y376109D01*
X453077Y373751D01*
X449047Y373751D01*
X449035Y373741D01*
X449035Y373740D01*
X449035Y373739D01*
X449035Y370619D01*
X448985Y370569D01*
X448984Y370563D01*
X448981Y370560D01*
X448981Y367372D01*
X445873Y364263D01*
X442684Y364263D01*
X442680Y364260D01*
X442676Y364260D01*
X432141Y353725D01*
X432141Y353721D01*
X432141Y353720D01*
X432138Y353717D01*
X432138Y347738D01*
X431245Y346844D01*
X422905Y346844D01*
X422901Y346841D01*
X422896Y346841D01*
X419877Y343822D01*
X419877Y343818D01*
X419874Y343815D01*
X419877Y343812D01*
X419876Y343806D01*
X419882Y343806D01*
X419886Y343801D01*
X433761Y343801D01*
X434654Y342908D01*
X434654Y338837D01*
X434665Y338826D01*
X434666Y338826D01*
X434666Y338825D01*
X441159Y338825D01*
X441171Y338836D01*
X441170Y338837D01*
X441171Y338837D01*
X441171Y341365D01*
X442064Y342258D01*
X454327Y342258D01*
X455220Y341365D01*
X455220Y330102D01*
X454327Y329209D01*
X442064Y329209D01*
X441171Y330102D01*
X441171Y332716D01*
X441161Y332728D01*
X441160Y332727D01*
X441159Y332728D01*
X434666Y332728D01*
X434654Y332718D01*
X434655Y332717D01*
X434654Y332716D01*
X434654Y328645D01*
X433761Y327752D01*
X417498Y327752D01*
X416605Y328645D01*
X416605Y330269D01*
X416594Y330281D01*
X416594Y330280D01*
X416593Y330281D01*
X411806Y330281D01*
X411795Y330271D01*
X411795Y330270D01*
X411794Y330269D01*
X411794Y327198D01*
X410901Y326305D01*
X399936Y326305D01*
X399924Y326295D01*
X399925Y326294D01*
X399924Y326293D01*
X399924Y323367D01*
X399934Y323355D01*
X399935Y323355D01*
X399936Y323355D01*
X410901Y323355D01*
X411794Y322462D01*
X411794Y319391D01*
X411805Y319379D01*
X411806Y319379D01*
X416593Y319379D01*
X416605Y319389D01*
X416604Y319390D01*
X416605Y319391D01*
X416605Y323908D01*
X417498Y324801D01*
X433761Y324801D01*
X434654Y323908D01*
X434654Y319837D01*
X434665Y319826D01*
X434666Y319826D01*
X434666Y319825D01*
X436680Y319825D01*
X436684Y319829D01*
X436688Y319829D01*
X437564Y320705D01*
X437564Y320709D01*
X437567Y320711D01*
X437566Y320712D01*
X437568Y320713D01*
X437568Y323902D01*
X440676Y327010D01*
X445073Y327010D01*
X448181Y323902D01*
X448181Y320073D01*
X448184Y320070D01*
X448184Y320066D01*
X448188Y320066D01*
X448192Y320061D01*
X448196Y320065D01*
X448202Y320065D01*
X460587Y332450D01*
X460587Y332455D01*
X460590Y332458D01*
X460590Y393293D01*
X460586Y393297D01*
X460587Y393301D01*
X458068Y395820D01*
X458068Y400216D01*
X461177Y403325D01*
X465573Y403325D01*
X467136Y401762D01*
X467140Y401762D01*
X467143Y401759D01*
X467146Y401761D01*
X467151Y401761D01*
X467152Y401767D01*
X467156Y401770D01*
X467156Y404376D01*
X467150Y404382D01*
X467149Y404387D01*
X466907Y404485D01*
X466834Y404656D01*
X466830Y404658D01*
X466829Y404662D01*
X465551Y405446D01*
X465547Y405445D01*
X465544Y405448D01*
X465359Y405435D01*
X464853Y405874D01*
X464852Y405874D01*
X464852Y405876D01*
X464281Y406226D01*
X464237Y406407D01*
X464234Y406410D01*
X464233Y406414D01*
X463102Y407398D01*
X463097Y407398D01*
X463095Y407400D01*
X462910Y407418D01*
X462484Y407935D01*
X462482Y407935D01*
X462482Y407937D01*
X461977Y408376D01*
X461964Y408562D01*
X461961Y408565D01*
X461961Y408569D01*
X461007Y409726D01*
X461003Y409726D01*
X461001Y409730D01*
X460821Y409778D01*
X460486Y410358D01*
X460484Y410358D01*
X460485Y410359D01*
X460058Y410876D01*
X460076Y411061D01*
X460074Y411065D01*
X460075Y411068D01*
X459324Y412367D01*
X459320Y412368D01*
X459319Y412371D01*
X459149Y412448D01*
X458914Y413076D01*
X458913Y413076D01*
X458913Y413078D01*
X458578Y413657D01*
X458626Y413837D01*
X458624Y413841D01*
X458625Y413845D01*
X458099Y415249D01*
X458095Y415251D01*
X458094Y415254D01*
X457940Y415358D01*
X457811Y416016D01*
X457810Y416017D01*
X457810Y416018D01*
X457575Y416645D01*
X457652Y416814D01*
X457651Y416819D01*
X457652Y416820D01*
X457652Y416821D01*
X457653Y416822D01*
X457364Y418293D01*
X457361Y418296D01*
X457361Y418299D01*
X457225Y418427D01*
X457207Y419097D01*
X457206Y419098D01*
X457206Y419099D01*
X457077Y419756D01*
X457181Y419911D01*
X457181Y419915D01*
X457183Y419918D01*
X457141Y421417D01*
X457138Y421420D01*
X457139Y421424D01*
X457026Y421572D01*
X457118Y422236D01*
X457117Y422237D01*
X457118Y422238D01*
X457099Y422907D01*
X457227Y423043D01*
X457227Y423047D01*
X457230Y423049D01*
X457435Y424535D01*
X457433Y424539D01*
X457434Y424542D01*
X457347Y424707D01*
X457547Y425346D01*
X457546Y425348D01*
X457547Y425348D01*
X457639Y426012D01*
X457787Y426124D01*
X457788Y426129D01*
X457792Y426130D01*
X458238Y427562D01*
X458238Y427563D01*
X458239Y427564D01*
X458237Y427566D01*
X458238Y427569D01*
X458180Y427746D01*
X458482Y428344D01*
X458482Y428345D01*
X458483Y428346D01*
X458682Y428985D01*
X458847Y429072D01*
X458849Y429076D01*
X458852Y429077D01*
X459529Y430415D01*
X459528Y430417D01*
X459529Y430417D01*
X459528Y430418D01*
X459527Y430420D01*
X459530Y430423D01*
X459502Y430607D01*
X459898Y431147D01*
X459898Y431148D01*
X459899Y431148D01*
X460201Y431746D01*
X460378Y431804D01*
X460380Y431808D01*
X460384Y431809D01*
X461271Y433018D01*
X461271Y433022D01*
X461273Y433025D01*
X461276Y433211D01*
X461756Y433678D01*
X461756Y433680D01*
X461757Y433680D01*
X462153Y434220D01*
X462338Y434248D01*
X462340Y434251D01*
X462344Y434251D01*
X463418Y435298D01*
X463419Y435302D01*
X463422Y435304D01*
X463455Y435487D01*
X464005Y435869D01*
X464005Y435871D01*
X464007Y435871D01*
X464486Y436338D01*
X464673Y436336D01*
X464676Y436339D01*
X464679Y436338D01*
X465834Y437139D01*
X465835Y437144D01*
X465839Y437146D01*
X465862Y437235D01*
X465936Y437277D01*
X465941Y437292D01*
X465940Y437293D01*
X465940Y437294D01*
X441888Y478954D01*
X442516Y479251D01*
X442538Y479268D01*
X442565Y479278D01*
X442617Y479327D01*
X442675Y479370D01*
X442689Y479395D01*
X442710Y479414D01*
X442739Y479480D01*
X442775Y479542D01*
X442778Y479570D01*
X442790Y479596D01*
X442791Y479668D01*
X442800Y479739D01*
X442792Y479766D01*
X442793Y479795D01*
X442757Y479890D01*
X442746Y479930D01*
X442739Y479939D01*
X442735Y479951D01*
X433235Y496451D01*
X433183Y496510D01*
X433137Y496572D01*
X433118Y496583D01*
X433103Y496600D01*
X433033Y496634D01*
X432966Y496674D01*
X432942Y496678D01*
X432924Y496686D01*
X432879Y496688D01*
X432802Y496701D01*
X413802Y496701D01*
X413774Y496696D01*
X413746Y496698D01*
X413678Y496676D01*
X413607Y496662D01*
X413584Y496646D01*
X413557Y496637D01*
X413502Y496590D01*
X413443Y496549D01*
X413428Y496525D01*
X413407Y496507D01*
X413375Y496442D01*
X413336Y496382D01*
X413331Y496354D01*
X413319Y496328D01*
X413310Y496227D01*
X413303Y496185D01*
X413305Y496175D01*
X413304Y496162D01*
X413361Y495447D01*
X365239Y495447D01*
X365227Y495437D01*
X365228Y495436D01*
X365227Y495435D01*
X365227Y495363D01*
X365162Y495298D01*
X365161Y495293D01*
X365158Y495291D01*
X365042Y493887D01*
X365045Y493883D01*
X365043Y493880D01*
X365139Y493720D01*
X364974Y493070D01*
X364975Y493069D01*
X364974Y493068D01*
X364919Y492401D01*
X364777Y492281D01*
X364776Y492276D01*
X364773Y492274D01*
X364404Y490818D01*
X364406Y490813D01*
X364404Y490810D01*
X364472Y490637D01*
X364203Y490023D01*
X364203Y490022D01*
X364202Y490021D01*
X364038Y489372D01*
X363878Y489277D01*
X363876Y489272D01*
X363873Y489271D01*
X363269Y487895D01*
X363271Y487891D01*
X363269Y487888D01*
X363307Y487706D01*
X362940Y487145D01*
X362941Y487143D01*
X362939Y487143D01*
X362670Y486530D01*
X362497Y486462D01*
X362495Y486458D01*
X362491Y486457D01*
X361669Y485199D01*
X361670Y485195D01*
X361667Y485192D01*
X361675Y485006D01*
X361221Y484513D01*
X361221Y484512D01*
X361220Y484512D01*
X360854Y483951D01*
X360671Y483913D01*
X360669Y483909D01*
X360665Y483909D01*
X359647Y482803D01*
X359647Y482799D01*
X359644Y482797D01*
X359621Y482612D01*
X359093Y482201D01*
X359092Y482199D01*
X359091Y482199D01*
X358637Y481706D01*
X358531Y481702D01*
X358530Y481702D01*
X358451Y481699D01*
X358448Y481695D01*
X358445Y481696D01*
X357259Y480773D01*
X357258Y480769D01*
X357254Y480767D01*
X357201Y480589D01*
X356612Y480270D01*
X356612Y480268D01*
X356611Y480269D01*
X356082Y479857D01*
X355897Y479880D01*
X355893Y479878D01*
X355890Y479879D01*
X354568Y479164D01*
X354567Y479159D01*
X354563Y479158D01*
X354481Y478991D01*
X353848Y478774D01*
X353847Y478772D01*
X353846Y478773D01*
X353257Y478454D01*
X353078Y478507D01*
X353074Y478505D01*
X353071Y478507D01*
X351650Y478019D01*
X351647Y478015D01*
X351644Y478015D01*
X351536Y477863D01*
X350875Y477753D01*
X350874Y477752D01*
X350873Y477752D01*
X350239Y477535D01*
X350072Y477617D01*
X350068Y477615D01*
X350065Y477618D01*
X349261Y477483D01*
X349252Y477473D01*
X349251Y477472D01*
X349251Y475698D01*
X336754Y463202D01*
X336754Y463196D01*
X336751Y463193D01*
X336751Y385320D01*
X336754Y385317D01*
X336753Y385312D01*
X336757Y385312D01*
X336761Y385308D01*
X336765Y385312D01*
X336771Y385311D01*
X337187Y385727D01*
X340217Y385727D01*
X341194Y384751D01*
X341209Y384750D01*
X341209Y384751D01*
X341210Y384751D01*
X342187Y385727D01*
X345217Y385727D01*
X346194Y384751D01*
X346209Y384750D01*
X346209Y384751D01*
X346210Y384751D01*
X347187Y385727D01*
X350217Y385727D01*
X350633Y385311D01*
X350637Y385311D01*
X350640Y385308D01*
X350643Y385311D01*
X350649Y385310D01*
X350649Y385316D01*
X350653Y385320D01*
X350653Y414718D01*
X366771Y430836D01*
X379199Y430836D01*
X379211Y430846D01*
X379211Y430847D01*
X379211Y430848D01*
X379211Y433918D01*
X380104Y434812D01*
X382675Y434812D01*
X382687Y434822D01*
X382686Y434823D01*
X382687Y434824D01*
X382687Y439695D01*
X382683Y439699D01*
X382684Y439703D01*
X380429Y441958D01*
X380429Y446354D01*
X383538Y449463D01*
X386726Y449463D01*
X386730Y449466D01*
X386735Y449466D01*
X387510Y450241D01*
X390463Y450241D01*
X390474Y450252D01*
X390475Y450253D01*
X390475Y451360D01*
X392832Y453717D01*
X407166Y453717D01*
X409524Y451360D01*
X409524Y443025D01*
X407166Y440668D01*
X392832Y440668D01*
X391063Y442437D01*
X391059Y442437D01*
X391056Y442440D01*
X391055Y442439D01*
X391052Y442437D01*
X391047Y442438D01*
X391047Y442433D01*
X391043Y442429D01*
X391043Y442428D01*
X391043Y441958D01*
X388788Y439703D01*
X388788Y439698D01*
X388785Y439695D01*
X388785Y434824D01*
X388795Y434812D01*
X388796Y434812D01*
X388797Y434812D01*
X391367Y434812D01*
X392261Y433918D01*
X392261Y421655D01*
X391368Y420762D01*
X380104Y420762D01*
X379211Y421655D01*
X379211Y424726D01*
X379201Y424738D01*
X379200Y424737D01*
X379199Y424738D01*
X369301Y424738D01*
X369297Y424734D01*
X369293Y424735D01*
X356754Y412196D01*
X356754Y412192D01*
X356753Y412191D01*
X356754Y412190D01*
X356751Y412188D01*
X356751Y379439D01*
X356480Y379169D01*
X356480Y379163D01*
X356477Y379160D01*
X356477Y376937D01*
X355217Y375677D01*
X352187Y375677D01*
X351210Y376653D01*
X351195Y376654D01*
X351195Y376653D01*
X351194Y376653D01*
X350217Y375677D01*
X347187Y375677D01*
X346210Y376653D01*
X346195Y376654D01*
X346195Y376653D01*
X346194Y376653D01*
X345217Y375677D01*
X342187Y375677D01*
X341210Y376653D01*
X341195Y376654D01*
X341195Y376653D01*
X341194Y376653D01*
X340217Y375677D01*
X337187Y375677D01*
X336210Y376653D01*
X336195Y376654D01*
X336195Y376653D01*
X336194Y376653D01*
X335217Y375677D01*
X332187Y375677D01*
X331210Y376653D01*
X331195Y376654D01*
X331195Y376653D01*
X331194Y376653D01*
X330217Y375677D01*
X327187Y375677D01*
X326210Y376653D01*
X326195Y376654D01*
X326195Y376653D01*
X326194Y376653D01*
X325217Y375677D01*
X322187Y375677D01*
X321210Y376653D01*
X321195Y376654D01*
X321195Y376653D01*
X321194Y376653D01*
X320217Y375677D01*
X317187Y375677D01*
X315927Y376937D01*
X315927Y379160D01*
X315924Y379165D01*
X315924Y379169D01*
X315653Y379439D01*
X315653Y431832D01*
X315650Y431836D01*
X315650Y431841D01*
X305433Y442057D01*
X305427Y442058D01*
X305425Y442061D01*
X298060Y442061D01*
X298055Y442057D01*
X298051Y442057D01*
X295797Y439803D01*
X291400Y439803D01*
X289555Y441649D01*
X289551Y441649D01*
X289548Y441652D01*
X289547Y441651D01*
X289547Y441652D01*
X289546Y441652D01*
X289544Y441649D01*
X289539Y441650D01*
X289539Y441645D01*
X289534Y441641D01*
X289535Y441641D01*
X289534Y441640D01*
X289534Y440892D01*
X287177Y438534D01*
X272842Y438534D01*
X270485Y440892D01*
X270485Y449226D01*
X272843Y451583D01*
X287177Y451583D01*
X289534Y449226D01*
X289534Y448579D01*
X289537Y448576D01*
X289537Y448572D01*
X289541Y448571D01*
X289545Y448567D01*
X289549Y448571D01*
X289555Y448571D01*
X291400Y450416D01*
X295797Y450416D01*
X298051Y448162D01*
X298057Y448161D01*
X298060Y448158D01*
X307955Y448158D01*
X321751Y434363D01*
X321751Y385320D01*
X321754Y385317D01*
X321753Y385312D01*
X321757Y385312D01*
X321761Y385308D01*
X321765Y385312D01*
X321771Y385311D01*
X322187Y385727D01*
X325217Y385727D01*
X325633Y385311D01*
X325637Y385311D01*
X325640Y385308D01*
X325643Y385311D01*
X325649Y385310D01*
X325649Y385316D01*
X325653Y385320D01*
X325653Y474719D01*
X326465Y475531D01*
X326465Y475536D01*
X326468Y475539D01*
X326468Y478728D01*
X329577Y481836D01*
X333620Y481836D01*
X333623Y481839D01*
X333627Y481838D01*
X333627Y481843D01*
X333632Y481847D01*
X333628Y481851D01*
X333629Y481856D01*
X333313Y482199D01*
X333311Y482199D01*
X333311Y482201D01*
X332783Y482612D01*
X332760Y482797D01*
X332756Y482800D01*
X332757Y482803D01*
X331739Y483909D01*
X331734Y483910D01*
X331733Y483913D01*
X331550Y483951D01*
X331184Y484512D01*
X331183Y484512D01*
X331183Y484513D01*
X330729Y485006D01*
X330737Y485192D01*
X330734Y485196D01*
X330735Y485199D01*
X329913Y486457D01*
X329908Y486458D01*
X329907Y486462D01*
X329734Y486530D01*
X329465Y487143D01*
X329463Y487144D01*
X329464Y487145D01*
X329097Y487706D01*
X329135Y487888D01*
X329133Y487892D01*
X329135Y487895D01*
X328531Y489271D01*
X328527Y489273D01*
X328526Y489277D01*
X328366Y489372D01*
X328202Y490021D01*
X328201Y490022D01*
X328201Y490023D01*
X327932Y490637D01*
X328000Y490810D01*
X327998Y490815D01*
X328000Y490818D01*
X327631Y492274D01*
X327627Y492277D01*
X327627Y492281D01*
X327485Y492401D01*
X327430Y493068D01*
X327429Y493069D01*
X327430Y493070D01*
X327265Y493720D01*
X327361Y493880D01*
X327360Y493884D01*
X327362Y493887D01*
X327246Y495291D01*
X327242Y495294D01*
X327242Y495298D01*
X327177Y495363D01*
X327177Y495435D01*
X327167Y495447D01*
X327166Y495446D01*
X327165Y495447D01*
X279043Y495447D01*
X279100Y496162D01*
X279096Y496191D01*
X279101Y496219D01*
X279084Y496288D01*
X279076Y496360D01*
X279062Y496384D01*
X279055Y496412D01*
X279012Y496470D01*
X278977Y496532D01*
X278954Y496549D01*
X278937Y496572D01*
X278875Y496609D01*
X278818Y496652D01*
X278790Y496659D01*
X278766Y496674D01*
X278666Y496690D01*
X278625Y496701D01*
X278615Y496699D01*
X278602Y496701D01*
X259602Y496701D01*
X259526Y496686D01*
X259448Y496677D01*
X259429Y496666D01*
X259407Y496662D01*
X259343Y496618D01*
X259275Y496579D01*
X259259Y496560D01*
X259243Y496549D01*
X259219Y496511D01*
X259169Y496451D01*
X249669Y479951D01*
X249660Y479924D01*
X249644Y479900D01*
X249629Y479830D01*
X249606Y479762D01*
X249609Y479734D01*
X249603Y479706D01*
X249617Y479636D01*
X249622Y479564D01*
X249635Y479539D01*
X249641Y479511D01*
X249681Y479451D01*
X249714Y479388D01*
X249736Y479370D01*
X249752Y479346D01*
X249835Y479288D01*
X249867Y479261D01*
X249878Y479258D01*
X249889Y479251D01*
X250516Y478954D01*
X226464Y437294D01*
X226467Y437278D01*
X226468Y437278D01*
X226468Y437277D01*
X226542Y437235D01*
X226565Y437146D01*
X226570Y437143D01*
X226570Y437139D01*
X227725Y436338D01*
X227729Y436338D01*
X227731Y436336D01*
X227918Y436338D01*
X228397Y435871D01*
X228399Y435871D01*
X228399Y435869D01*
X228949Y435487D01*
X228982Y435304D01*
X228986Y435301D01*
X228986Y435298D01*
X230060Y434251D01*
X230065Y434251D01*
X230066Y434248D01*
X230251Y434220D01*
X230647Y433680D01*
X230648Y433679D01*
X230648Y433678D01*
X231128Y433211D01*
X231131Y433025D01*
X231134Y433021D01*
X231133Y433018D01*
X232020Y431809D01*
X232025Y431808D01*
X232026Y431804D01*
X232203Y431746D01*
X232505Y431148D01*
X232506Y431148D01*
X232506Y431147D01*
X232902Y430607D01*
X232874Y430423D01*
X232876Y430420D01*
X232875Y430420D01*
X232877Y430419D01*
X232875Y430415D01*
X233552Y429077D01*
X233556Y429075D01*
X233557Y429072D01*
X233722Y428985D01*
X233921Y428346D01*
X233922Y428345D01*
X233922Y428344D01*
X234224Y427746D01*
X234166Y427569D01*
X234166Y427568D01*
X234165Y427567D01*
X234167Y427565D01*
X234166Y427562D01*
X234612Y426130D01*
X234616Y426128D01*
X234617Y426124D01*
X234765Y426012D01*
X234857Y425348D01*
X234858Y425347D01*
X234857Y425346D01*
X235057Y424707D01*
X234970Y424542D01*
X234971Y424538D01*
X234969Y424535D01*
X235174Y423049D01*
X235177Y423046D01*
X235177Y423043D01*
X235305Y422907D01*
X235286Y422238D01*
X235287Y422237D01*
X235286Y422236D01*
X235378Y421572D01*
X235265Y421424D01*
X235266Y421421D01*
X235264Y421419D01*
X235264Y421418D01*
X235263Y421417D01*
X235221Y419918D01*
X235224Y419914D01*
X235223Y419911D01*
X235327Y419756D01*
X235198Y419099D01*
X235198Y419098D01*
X235197Y419097D01*
X235179Y418427D01*
X235043Y418299D01*
X235043Y418295D01*
X235040Y418293D01*
X234751Y416822D01*
X234754Y416818D01*
X234752Y416814D01*
X234829Y416645D01*
X234594Y416018D01*
X234594Y416016D01*
X234593Y416016D01*
X234464Y415358D01*
X234310Y415254D01*
X234309Y415250D01*
X234305Y415249D01*
X233779Y413845D01*
X233780Y413840D01*
X233780Y413839D01*
X233779Y413839D01*
X233779Y413838D01*
X233778Y413837D01*
X233826Y413657D01*
X233491Y413078D01*
X233491Y413076D01*
X233490Y413076D01*
X233255Y412448D01*
X233085Y412371D01*
X233083Y412367D01*
X233080Y412367D01*
X232329Y411068D01*
X232330Y411064D01*
X232328Y411061D01*
X232346Y410876D01*
X231919Y410359D01*
X231919Y410358D01*
X231918Y410358D01*
X231583Y409778D01*
X231403Y409730D01*
X231400Y409726D01*
X231397Y409726D01*
X230443Y408569D01*
X230443Y408565D01*
X230440Y408562D01*
X230427Y408376D01*
X229922Y407937D01*
X229921Y407935D01*
X229920Y407935D01*
X229494Y407418D01*
X229309Y407400D01*
X229306Y407397D01*
X229302Y407398D01*
X228171Y406413D01*
X228170Y406409D01*
X228167Y406407D01*
X228123Y406226D01*
X227552Y405876D01*
X227552Y405874D01*
X227551Y405875D01*
X227045Y405435D01*
X226860Y405448D01*
X226856Y405445D01*
X226853Y405446D01*
X225575Y404662D01*
X225573Y404657D01*
X225570Y404656D01*
X225497Y404485D01*
X225230Y404376D01*
X225226Y404368D01*
X225223Y404365D01*
X225223Y394638D01*
X225226Y394633D01*
X225226Y394629D01*
X265134Y354721D01*
X265138Y354721D01*
X265141Y354717D01*
X265144Y354720D01*
X265150Y354720D01*
X265150Y354726D01*
X265155Y354729D01*
X265155Y359070D01*
X266717Y360633D01*
X266718Y360637D01*
X266721Y360640D01*
X266718Y360643D01*
X266718Y360649D01*
X266713Y360649D01*
X266709Y360653D01*
X263050Y360653D01*
X256374Y367329D01*
X256374Y418013D01*
X261068Y422708D01*
X262226Y422708D01*
X262230Y422711D01*
X262235Y422711D01*
X264489Y424966D01*
X268885Y424966D01*
X270465Y423386D01*
X270469Y423386D01*
X270471Y423383D01*
X270475Y423386D01*
X270480Y423385D01*
X270481Y423391D01*
X270485Y423395D01*
X270485Y423826D01*
X272843Y426183D01*
X287177Y426183D01*
X289534Y423826D01*
X289534Y415492D01*
X287177Y413134D01*
X272842Y413134D01*
X270485Y415492D01*
X270485Y415923D01*
X270482Y415926D01*
X270482Y415930D01*
X270478Y415930D01*
X270474Y415935D01*
X270470Y415931D01*
X270465Y415931D01*
X268885Y414352D01*
X264489Y414352D01*
X262921Y415920D01*
X262905Y415921D01*
X262905Y415920D01*
X262904Y415920D01*
X262475Y415491D01*
X262475Y415487D01*
X262474Y415486D01*
X262474Y415485D01*
X262472Y415483D01*
X262472Y369860D01*
X262475Y369856D01*
X262475Y369851D01*
X265572Y366754D01*
X265578Y366754D01*
X265581Y366751D01*
X312965Y366751D01*
X313235Y366480D01*
X313241Y366480D01*
X313244Y366477D01*
X315467Y366477D01*
X316727Y365217D01*
X316727Y362187D01*
X315751Y361210D01*
X315750Y361207D01*
X315750Y361206D01*
X315750Y361195D01*
X315751Y361195D01*
X315751Y361194D01*
X316727Y360217D01*
X316727Y357187D01*
X315751Y356210D01*
X315750Y356206D01*
X315748Y356204D01*
X315750Y356202D01*
X315750Y356195D01*
X315751Y356195D01*
X315751Y356194D01*
X316727Y355217D01*
X316727Y352187D01*
X315751Y351210D01*
X315750Y351205D01*
X315748Y351203D01*
X315750Y351200D01*
X315750Y351195D01*
X315751Y351195D01*
X315751Y351194D01*
X316727Y350217D01*
X316727Y347187D01*
X315751Y346210D01*
X315750Y346201D01*
X315750Y346195D01*
X315751Y346195D01*
X315751Y346194D01*
X316727Y345217D01*
X316727Y342187D01*
X315751Y341210D01*
X315750Y341195D01*
X315751Y341195D01*
X315751Y341194D01*
X316727Y340217D01*
X316727Y337187D01*
X315751Y336210D01*
X315750Y336195D01*
X315751Y336195D01*
X315751Y336194D01*
X316727Y335217D01*
X316727Y332187D01*
X315751Y331210D01*
X315750Y331195D01*
X315751Y331195D01*
X315751Y331194D01*
X316727Y330217D01*
X316727Y327187D01*
X315751Y326210D01*
X315750Y326207D01*
X315749Y326206D01*
X315750Y326204D01*
X315750Y326195D01*
X315751Y326195D01*
X315751Y326194D01*
X316727Y325217D01*
X316727Y322187D01*
X315751Y321210D01*
X315750Y321206D01*
X315747Y321204D01*
X315750Y321201D01*
X315750Y321195D01*
X315751Y321195D01*
X315751Y321194D01*
X316727Y320217D01*
X316727Y317187D01*
X315467Y315927D01*
X313244Y315927D01*
X313239Y315924D01*
X313235Y315924D01*
X312965Y315653D01*
X310203Y315653D01*
X310199Y315650D01*
X310195Y315650D01*
X309732Y315187D01*
X309731Y315171D01*
X309732Y315171D01*
X309732Y315170D01*
X311186Y313716D01*
X311186Y309320D01*
X308078Y306212D01*
X303681Y306212D01*
X302150Y307743D01*
X302146Y307743D01*
X302143Y307746D01*
X302140Y307743D01*
X302134Y307744D01*
X302134Y307738D01*
X302130Y307734D01*
X302130Y306188D01*
X302140Y306176D01*
X302141Y306177D01*
X302142Y306176D01*
X310151Y306176D01*
X310155Y306180D01*
X310159Y306180D01*
X312432Y308452D01*
X315620Y308452D01*
X315624Y308456D01*
X315628Y308456D01*
X315650Y308477D01*
X315650Y308483D01*
X315653Y308485D01*
X315653Y312965D01*
X315924Y313235D01*
X315924Y313241D01*
X315927Y313244D01*
X315927Y315467D01*
X317187Y316727D01*
X320217Y316727D01*
X321477Y315467D01*
X321477Y313244D01*
X321480Y313240D01*
X321480Y313235D01*
X321751Y312965D01*
X321751Y305955D01*
X319940Y304144D01*
X319940Y304138D01*
X319937Y304136D01*
X319937Y300947D01*
X316828Y297839D01*
X312432Y297839D01*
X310195Y300075D01*
X310189Y300075D01*
X310187Y300079D01*
X302142Y300079D01*
X302130Y300068D01*
X302131Y300067D01*
X302130Y300067D01*
X302130Y296996D01*
X301237Y296103D01*
X289974Y296103D01*
X289080Y296996D01*
X289080Y300067D01*
X289070Y300078D01*
X289069Y300078D01*
X289068Y300079D01*
X282137Y300079D01*
X282126Y300068D01*
X282126Y300067D01*
X282126Y297478D01*
X281232Y296585D01*
X264969Y296585D01*
X264076Y297478D01*
X264076Y311741D01*
X264969Y312635D01*
X281232Y312635D01*
X282126Y311741D01*
X282126Y306188D01*
X282136Y306176D01*
X282137Y306177D01*
X282137Y306176D01*
X289068Y306176D01*
X289080Y306186D01*
X289080Y306187D01*
X289080Y306188D01*
X289080Y309259D01*
X289974Y310152D01*
X300561Y310152D01*
X300573Y310162D01*
X300572Y310163D01*
X300573Y310164D01*
X300573Y313716D01*
X302827Y315971D01*
X302828Y315977D01*
X302831Y315979D01*
X302831Y316909D01*
X305883Y319961D01*
X306525Y320603D01*
X306525Y320607D01*
X306529Y320610D01*
X306526Y320613D01*
X306526Y320619D01*
X306521Y320619D01*
X306517Y320623D01*
X300003Y320623D01*
X299998Y320620D01*
X299994Y320620D01*
X297740Y318365D01*
X293344Y318365D01*
X290235Y321474D01*
X290235Y325870D01*
X293344Y328979D01*
X296913Y328979D01*
X296916Y328982D01*
X296920Y328981D01*
X296920Y328986D01*
X296924Y328989D01*
X296921Y328994D01*
X296921Y328999D01*
X296090Y329831D01*
X296090Y334227D01*
X299198Y337336D01*
X303595Y337336D01*
X306657Y334273D01*
X306661Y334273D01*
X306664Y334270D01*
X306667Y334273D01*
X306673Y334272D01*
X306673Y334278D01*
X306677Y334282D01*
X306677Y335217D01*
X307653Y336194D01*
X307654Y336209D01*
X307653Y336209D01*
X307653Y336210D01*
X306677Y337187D01*
X306677Y340217D01*
X307093Y340633D01*
X307093Y340637D01*
X307096Y340640D01*
X307093Y340643D01*
X307094Y340649D01*
X307088Y340649D01*
X307084Y340653D01*
X263352Y340653D01*
X215006Y388999D01*
X215001Y389000D01*
X214998Y389003D01*
X211810Y389003D01*
X208701Y392111D01*
X208701Y396508D01*
X211810Y399616D01*
X216206Y399616D01*
X219105Y396717D01*
X219109Y396717D01*
X219112Y396714D01*
X219115Y396717D01*
X219120Y396716D01*
X219121Y396722D01*
X219125Y396726D01*
X219125Y402368D01*
X219115Y402380D01*
X219114Y402379D01*
X219112Y402380D01*
X218902Y402368D01*
X218901Y402367D01*
X218900Y402368D01*
X218246Y402222D01*
X218089Y402322D01*
X218084Y402321D01*
X218082Y402324D01*
X216585Y402242D01*
X216581Y402239D01*
X216578Y402239D01*
X216432Y402123D01*
X215767Y402197D01*
X215766Y402196D01*
X215765Y402197D01*
X215096Y402161D01*
X214957Y402285D01*
X214952Y402285D01*
X214950Y402288D01*
X213460Y402454D01*
X213456Y402451D01*
X213453Y402453D01*
X213290Y402362D01*
X212646Y402545D01*
X212645Y402544D01*
X212644Y402544D01*
X212644Y402545D01*
X211978Y402619D01*
X211862Y402765D01*
X211857Y402765D01*
X211856Y402769D01*
X210413Y403178D01*
X210412Y403177D01*
X210407Y403177D01*
X210406Y403177D01*
X210230Y403115D01*
X209625Y403401D01*
X209623Y403400D01*
X209623Y403402D01*
X208978Y403584D01*
X208888Y403747D01*
X208883Y403748D01*
X208882Y403752D01*
X207612Y404352D01*
X207607Y404351D01*
X207603Y404353D01*
X207514Y404329D01*
X207463Y404359D01*
X207461Y404358D01*
X207460Y404359D01*
X207456Y404359D01*
X207454Y404357D01*
X207448Y404356D01*
X207448Y404355D01*
X207447Y404355D01*
X183394Y362693D01*
X182786Y363113D01*
X182759Y363124D01*
X182737Y363143D01*
X182668Y363163D01*
X182603Y363191D01*
X182574Y363191D01*
X182546Y363199D01*
X182475Y363191D01*
X182404Y363192D01*
X182377Y363180D01*
X182348Y363177D01*
X182286Y363142D01*
X182221Y363114D01*
X182200Y363094D01*
X182175Y363079D01*
X182112Y363002D01*
X182082Y362972D01*
X182078Y362962D01*
X182069Y362951D01*
X172569Y346451D01*
X172545Y346378D01*
X172514Y346308D01*
X172514Y346284D01*
X172506Y346262D01*
X172513Y346186D01*
X172512Y346109D01*
X172521Y346085D01*
X172522Y346064D01*
X172543Y346025D01*
X172562Y345973D01*
X172563Y345967D01*
X172565Y345965D01*
X172569Y345953D01*
X182069Y329453D01*
X182088Y329431D01*
X182101Y329405D01*
X182154Y329357D01*
X182201Y329304D01*
X182227Y329291D01*
X182249Y329272D01*
X182316Y329249D01*
X182380Y329218D01*
X182409Y329217D01*
X182436Y329207D01*
X182508Y329212D01*
X182579Y329209D01*
X182606Y329219D01*
X182635Y329221D01*
X182725Y329263D01*
X182765Y329278D01*
X182773Y329285D01*
X182786Y329291D01*
X183394Y329711D01*
X207447Y288049D01*
X207462Y288044D01*
X207462Y288045D01*
X207463Y288045D01*
X207514Y288075D01*
X207603Y288051D01*
X207605Y288052D01*
X207609Y288052D01*
X207610Y288052D01*
X207612Y288052D01*
X208882Y288652D01*
X208884Y288656D01*
X208888Y288657D01*
X208978Y288820D01*
X209623Y289002D01*
X209624Y289004D01*
X209625Y289003D01*
X210230Y289289D01*
X210406Y289227D01*
X210410Y289228D01*
X210413Y289226D01*
X211856Y289635D01*
X211858Y289639D01*
X211862Y289639D01*
X211978Y289785D01*
X212644Y289859D01*
X212645Y289860D01*
X212646Y289859D01*
X213290Y290042D01*
X213453Y289951D01*
X213457Y289952D01*
X213460Y289950D01*
X214950Y290116D01*
X214953Y290119D01*
X214957Y290119D01*
X215096Y290243D01*
X215765Y290207D01*
X215766Y290208D01*
X215767Y290207D01*
X216432Y290281D01*
X216578Y290165D01*
X216582Y290165D01*
X216585Y290162D01*
X218082Y290080D01*
X218083Y290081D01*
X218084Y290081D01*
X218086Y290083D01*
X218089Y290082D01*
X218246Y290182D01*
X218900Y290036D01*
X218901Y290037D01*
X218902Y290036D01*
X219571Y289999D01*
X219695Y289861D01*
X219700Y289860D01*
X219701Y289857D01*
X221165Y289530D01*
X221169Y289532D01*
X221172Y289531D01*
X221344Y289603D01*
X221965Y289351D01*
X221966Y289352D01*
X221966Y289351D01*
X222620Y289205D01*
X222720Y289048D01*
X222724Y289046D01*
X222726Y289043D01*
X224115Y288480D01*
X224120Y288481D01*
X224123Y288479D01*
X224304Y288522D01*
X224874Y288172D01*
X224876Y288172D01*
X224876Y288171D01*
X225497Y287919D01*
X225570Y287748D01*
X225574Y287746D01*
X225575Y287742D01*
X226853Y286958D01*
X226857Y286959D01*
X226860Y286956D01*
X227045Y286969D01*
X227551Y286529D01*
X227552Y286529D01*
X227552Y286528D01*
X228123Y286178D01*
X228167Y285997D01*
X228170Y285994D01*
X228171Y285991D01*
X229302Y285006D01*
X229307Y285006D01*
X229309Y285004D01*
X229494Y284986D01*
X229920Y284469D01*
X229922Y284469D01*
X229922Y284467D01*
X230427Y284028D01*
X230440Y283842D01*
X230443Y283839D01*
X230443Y283835D01*
X231397Y282678D01*
X231401Y282678D01*
X231403Y282674D01*
X231583Y282626D01*
X231918Y282046D01*
X231920Y282046D01*
X231919Y282045D01*
X232346Y281528D01*
X232328Y281343D01*
X232330Y281339D01*
X232329Y281336D01*
X233080Y280037D01*
X233084Y280036D01*
X233085Y280033D01*
X233255Y279956D01*
X233490Y279328D01*
X233491Y279328D01*
X233491Y279326D01*
X233826Y278747D01*
X233778Y278567D01*
X233780Y278564D01*
X233779Y278563D01*
X233780Y278562D01*
X233779Y278559D01*
X234008Y277948D01*
X234016Y277944D01*
X234019Y277940D01*
X312981Y277940D01*
X312985Y277944D01*
X312989Y277944D01*
X325650Y290604D01*
X325650Y290610D01*
X325653Y290612D01*
X325653Y312965D01*
X325924Y313235D01*
X325924Y313241D01*
X325927Y313244D01*
X325927Y315467D01*
X327187Y316727D01*
X330217Y316727D01*
X331194Y315751D01*
X331209Y315750D01*
X331209Y315751D01*
X331210Y315751D01*
X332187Y316727D01*
X335217Y316727D01*
X336194Y315751D01*
X336209Y315750D01*
X336209Y315751D01*
X336210Y315751D01*
X337187Y316727D01*
X340217Y316727D01*
X341194Y315751D01*
X341209Y315750D01*
X341209Y315751D01*
X341210Y315751D01*
X342187Y316727D01*
X345217Y316727D01*
X346477Y315467D01*
X346477Y307936D01*
X345598Y307058D01*
X345597Y307042D01*
X345598Y307042D01*
X345598Y307041D01*
X348448Y304191D01*
X348448Y299795D01*
X345339Y296687D01*
X340943Y296687D01*
X337835Y299795D01*
X337835Y302984D01*
X337831Y302988D01*
X337831Y302992D01*
X337443Y303380D01*
X336699Y304124D01*
X336695Y304125D01*
X336692Y304128D01*
X336689Y304125D01*
X336683Y304125D01*
X336683Y304120D01*
X336678Y304116D01*
X336678Y286544D01*
X315005Y264870D01*
X246320Y264870D01*
X246316Y264867D01*
X246311Y264867D01*
X244057Y262612D01*
X239661Y262612D01*
X236552Y265721D01*
X236552Y270117D01*
X238257Y271822D01*
X238257Y271826D01*
X238258Y271827D01*
X238261Y271829D01*
X238258Y271832D01*
X238258Y271838D01*
X238252Y271839D01*
X238249Y271843D01*
X235251Y271843D01*
X235239Y271832D01*
X235240Y271831D01*
X235239Y271830D01*
X235263Y270987D01*
X235266Y270984D01*
X235265Y270980D01*
X235378Y270832D01*
X235286Y270168D01*
X235287Y270167D01*
X235286Y270166D01*
X235305Y269497D01*
X235177Y269361D01*
X235177Y269357D01*
X235174Y269355D01*
X234969Y267869D01*
X234970Y267867D01*
X234971Y267865D01*
X234970Y267862D01*
X235057Y267697D01*
X234857Y267058D01*
X234858Y267056D01*
X234857Y267056D01*
X234765Y266392D01*
X234617Y266280D01*
X234616Y266275D01*
X234612Y266274D01*
X234166Y264842D01*
X234168Y264838D01*
X234166Y264835D01*
X234224Y264658D01*
X233922Y264060D01*
X233922Y264059D01*
X233921Y264058D01*
X233722Y263419D01*
X233557Y263332D01*
X233555Y263328D01*
X233552Y263327D01*
X232875Y261989D01*
X232877Y261984D01*
X232874Y261981D01*
X232902Y261797D01*
X232506Y261257D01*
X232506Y261256D01*
X232505Y261256D01*
X232203Y260658D01*
X232026Y260600D01*
X232024Y260596D01*
X232020Y260595D01*
X231133Y259386D01*
X231133Y259382D01*
X231131Y259379D01*
X231128Y259193D01*
X230648Y258726D01*
X230648Y258724D01*
X230647Y258724D01*
X230251Y258184D01*
X230066Y258156D01*
X230064Y258153D01*
X230060Y258153D01*
X228986Y257106D01*
X228985Y257102D01*
X228984Y257101D01*
X228982Y257100D01*
X228949Y256917D01*
X228399Y256535D01*
X228399Y256533D01*
X228398Y256533D01*
X227918Y256066D01*
X227731Y256068D01*
X227728Y256065D01*
X227725Y256066D01*
X226570Y255265D01*
X226569Y255260D01*
X226565Y255258D01*
X226542Y255169D01*
X226468Y255127D01*
X226466Y255121D01*
X226462Y255118D01*
X226464Y255115D01*
X226463Y255112D01*
X226464Y255111D01*
X226464Y255110D01*
X250516Y213450D01*
X249889Y213153D01*
X249866Y213136D01*
X249839Y213126D01*
X249787Y213077D01*
X249729Y213034D01*
X249715Y213009D01*
X249694Y212990D01*
X249665Y212924D01*
X249629Y212862D01*
X249626Y212834D01*
X249614Y212808D01*
X249613Y212736D01*
X249604Y212665D01*
X249612Y212638D01*
X249612Y212609D01*
X249647Y212514D01*
X249658Y212474D01*
X249665Y212465D01*
X249669Y212453D01*
X259169Y195953D01*
X259221Y195895D01*
X259267Y195832D01*
X259286Y195821D01*
X259301Y195804D01*
X259371Y195770D01*
X259438Y195730D01*
X259463Y195726D01*
X259480Y195718D01*
X259525Y195716D01*
X259602Y195703D01*
X278602Y195703D01*
X278630Y195708D01*
G37*
G36*
X432878Y195718D02*
X432878Y195718D01*
X432956Y195727D01*
X432975Y195738D01*
X432997Y195742D01*
X433061Y195786D01*
X433129Y195825D01*
X433145Y195844D01*
X433161Y195855D01*
X433185Y195893D01*
X433235Y195953D01*
X442735Y212453D01*
X442744Y212480D01*
X442760Y212504D01*
X442775Y212574D01*
X442798Y212642D01*
X442795Y212670D01*
X442801Y212698D01*
X442788Y212769D01*
X442782Y212840D01*
X442769Y212865D01*
X442763Y212893D01*
X442723Y212953D01*
X442690Y213016D01*
X442668Y213034D01*
X442652Y213058D01*
X442569Y213116D01*
X442537Y213143D01*
X442526Y213146D01*
X442516Y213153D01*
X441888Y213450D01*
X465940Y255110D01*
X465940Y255113D01*
X465942Y255115D01*
X465939Y255118D01*
X465937Y255126D01*
X465936Y255126D01*
X465936Y255127D01*
X465862Y255169D01*
X465839Y255258D01*
X465834Y255261D01*
X465834Y255265D01*
X464679Y256066D01*
X464675Y256066D01*
X464673Y256068D01*
X464486Y256066D01*
X464006Y256533D01*
X464005Y256533D01*
X464005Y256535D01*
X463455Y256917D01*
X463422Y257100D01*
X463418Y257103D01*
X463418Y257106D01*
X462344Y258153D01*
X462339Y258153D01*
X462338Y258156D01*
X462153Y258184D01*
X461757Y258724D01*
X461756Y258725D01*
X461756Y258726D01*
X461276Y259193D01*
X461273Y259379D01*
X461270Y259383D01*
X461271Y259386D01*
X460384Y260595D01*
X460379Y260596D01*
X460378Y260600D01*
X460201Y260658D01*
X459899Y261256D01*
X459898Y261256D01*
X459898Y261257D01*
X459502Y261797D01*
X459530Y261981D01*
X459527Y261985D01*
X459529Y261989D01*
X458852Y263327D01*
X458848Y263329D01*
X458847Y263332D01*
X458682Y263419D01*
X458483Y264058D01*
X458482Y264059D01*
X458482Y264060D01*
X458180Y264658D01*
X458238Y264835D01*
X458236Y264839D01*
X458238Y264842D01*
X457792Y266274D01*
X457788Y266276D01*
X457787Y266280D01*
X457639Y266392D01*
X457547Y267056D01*
X457546Y267057D01*
X457547Y267058D01*
X457347Y267697D01*
X457434Y267862D01*
X457433Y267863D01*
X457434Y267864D01*
X457433Y267865D01*
X457433Y267866D01*
X457435Y267869D01*
X457230Y269355D01*
X457227Y269358D01*
X457227Y269361D01*
X457099Y269497D01*
X457118Y270166D01*
X457117Y270167D01*
X457118Y270168D01*
X457026Y270832D01*
X457139Y270980D01*
X457138Y270985D01*
X457141Y270987D01*
X457157Y271551D01*
X457147Y271563D01*
X457146Y271562D01*
X457145Y271563D01*
X381388Y271563D01*
X379599Y273353D01*
X371771Y281180D01*
X371767Y281181D01*
X371764Y281184D01*
X371761Y281181D01*
X371755Y281181D01*
X371755Y281176D01*
X371751Y281172D01*
X371751Y214074D01*
X370219Y212543D01*
X370219Y212539D01*
X370217Y212537D01*
X370218Y212536D01*
X370216Y212534D01*
X370216Y209346D01*
X367107Y206237D01*
X362711Y206237D01*
X361689Y207259D01*
X361685Y207259D01*
X361683Y207262D01*
X361679Y207259D01*
X361674Y207260D01*
X361673Y207254D01*
X361669Y207251D01*
X361667Y207212D01*
X361670Y207208D01*
X361669Y207205D01*
X362491Y205947D01*
X362496Y205946D01*
X362497Y205942D01*
X362670Y205874D01*
X362939Y205261D01*
X362941Y205260D01*
X362940Y205259D01*
X363307Y204698D01*
X363269Y204516D01*
X363269Y204515D01*
X363271Y204512D01*
X363269Y204509D01*
X363873Y203133D01*
X363877Y203131D01*
X363878Y203127D01*
X364038Y203032D01*
X364202Y202383D01*
X364203Y202382D01*
X364203Y202381D01*
X364472Y201767D01*
X364404Y201594D01*
X364405Y201591D01*
X364404Y201590D01*
X364405Y201588D01*
X364404Y201586D01*
X364773Y200130D01*
X364777Y200127D01*
X364777Y200123D01*
X364919Y200003D01*
X364974Y199335D01*
X364975Y199335D01*
X364974Y199334D01*
X365139Y198684D01*
X365043Y198524D01*
X365044Y198522D01*
X365043Y198522D01*
X365044Y198521D01*
X365044Y198520D01*
X365042Y198517D01*
X365158Y197113D01*
X365162Y197110D01*
X365162Y197106D01*
X365227Y197041D01*
X365227Y196969D01*
X365237Y196957D01*
X365238Y196958D01*
X365239Y196957D01*
X413361Y196957D01*
X413304Y196242D01*
X413308Y196213D01*
X413303Y196185D01*
X413320Y196116D01*
X413328Y196044D01*
X413343Y196020D01*
X413349Y195992D01*
X413392Y195934D01*
X413428Y195872D01*
X413450Y195855D01*
X413467Y195832D01*
X413529Y195795D01*
X413586Y195752D01*
X413614Y195745D01*
X413638Y195730D01*
X413738Y195714D01*
X413779Y195703D01*
X413789Y195705D01*
X413802Y195703D01*
X432802Y195703D01*
X432878Y195718D01*
G37*
G36*
X458287Y277667D02*
X458287Y277667D01*
X458291Y277669D01*
X458625Y278559D01*
X458625Y278560D01*
X458624Y278564D01*
X458626Y278567D01*
X458578Y278747D01*
X458913Y279326D01*
X458913Y279328D01*
X458914Y279328D01*
X459149Y279956D01*
X459319Y280033D01*
X459321Y280037D01*
X459324Y280037D01*
X460075Y281336D01*
X460074Y281340D01*
X460076Y281341D01*
X460076Y281342D01*
X460076Y281343D01*
X460058Y281528D01*
X460485Y282045D01*
X460485Y282046D01*
X460486Y282046D01*
X460821Y282626D01*
X461001Y282674D01*
X461004Y282678D01*
X461007Y282678D01*
X461961Y283835D01*
X461961Y283840D01*
X461964Y283842D01*
X461977Y284028D01*
X462482Y284467D01*
X462483Y284469D01*
X462484Y284469D01*
X462910Y284986D01*
X463095Y285004D01*
X463098Y285007D01*
X463102Y285006D01*
X464233Y285991D01*
X464234Y285995D01*
X464237Y285997D01*
X464281Y286178D01*
X464852Y286528D01*
X464852Y286530D01*
X464853Y286529D01*
X465359Y286969D01*
X465544Y286956D01*
X465548Y286959D01*
X465551Y286958D01*
X466829Y287742D01*
X466831Y287747D01*
X466834Y287748D01*
X466907Y287919D01*
X467528Y288171D01*
X467528Y288172D01*
X467530Y288172D01*
X468100Y288522D01*
X468281Y288479D01*
X468285Y288481D01*
X468289Y288480D01*
X469678Y289043D01*
X469680Y289047D01*
X469684Y289048D01*
X469784Y289205D01*
X470438Y289351D01*
X470438Y289352D01*
X470439Y289351D01*
X471060Y289603D01*
X471232Y289531D01*
X471236Y289532D01*
X471239Y289530D01*
X472703Y289857D01*
X472705Y289861D01*
X472709Y289861D01*
X472833Y289999D01*
X473502Y290036D01*
X473503Y290037D01*
X473504Y290036D01*
X474158Y290182D01*
X474315Y290082D01*
X474319Y290083D01*
X474320Y290081D01*
X474321Y290081D01*
X474322Y290080D01*
X475819Y290162D01*
X475822Y290165D01*
X475823Y290165D01*
X475826Y290165D01*
X475972Y290281D01*
X476637Y290207D01*
X476638Y290208D01*
X476639Y290207D01*
X477308Y290243D01*
X477447Y290119D01*
X477452Y290119D01*
X477454Y290116D01*
X478944Y289950D01*
X478948Y289953D01*
X478951Y289951D01*
X479114Y290042D01*
X479758Y289859D01*
X479760Y289860D01*
X479760Y289859D01*
X480426Y289785D01*
X480542Y289639D01*
X480547Y289639D01*
X480548Y289635D01*
X481991Y289226D01*
X481995Y289228D01*
X481998Y289227D01*
X482174Y289289D01*
X482779Y289003D01*
X482781Y289004D01*
X482781Y289002D01*
X483426Y288820D01*
X483516Y288657D01*
X483521Y288656D01*
X483522Y288652D01*
X484792Y288052D01*
X484794Y288052D01*
X484795Y288052D01*
X484799Y288052D01*
X484801Y288051D01*
X484890Y288075D01*
X484941Y288045D01*
X484956Y288048D01*
X484956Y288049D01*
X484957Y288049D01*
X509010Y329711D01*
X509618Y329291D01*
X509645Y329280D01*
X509667Y329261D01*
X509736Y329241D01*
X509801Y329213D01*
X509830Y329213D01*
X509858Y329205D01*
X509929Y329213D01*
X510000Y329213D01*
X510027Y329224D01*
X510056Y329227D01*
X510118Y329262D01*
X510183Y329290D01*
X510204Y329310D01*
X510229Y329325D01*
X510292Y329402D01*
X510322Y329432D01*
X510326Y329442D01*
X510335Y329453D01*
X519835Y345953D01*
X519845Y345985D01*
X519854Y345998D01*
X519858Y346022D01*
X519859Y346026D01*
X519890Y346096D01*
X519890Y346120D01*
X519898Y346142D01*
X519892Y346218D01*
X519893Y346295D01*
X519883Y346319D01*
X519882Y346340D01*
X519861Y346379D01*
X519835Y346451D01*
X510335Y362951D01*
X510316Y362973D01*
X510303Y362999D01*
X510250Y363047D01*
X510203Y363100D01*
X510177Y363113D01*
X510156Y363132D01*
X510088Y363155D01*
X510024Y363186D01*
X509995Y363188D01*
X509968Y363197D01*
X509896Y363192D01*
X509825Y363195D01*
X509798Y363185D01*
X509769Y363183D01*
X509679Y363141D01*
X509639Y363126D01*
X509631Y363119D01*
X509618Y363113D01*
X509010Y362693D01*
X484957Y404355D01*
X484949Y404357D01*
X484948Y404359D01*
X484945Y404359D01*
X484942Y404360D01*
X484942Y404359D01*
X484941Y404359D01*
X484890Y404329D01*
X484801Y404353D01*
X484796Y404351D01*
X484792Y404352D01*
X483522Y403752D01*
X483520Y403748D01*
X483516Y403747D01*
X483426Y403584D01*
X482781Y403401D01*
X482780Y403400D01*
X482779Y403401D01*
X482174Y403115D01*
X481998Y403177D01*
X481997Y403177D01*
X481992Y403177D01*
X481991Y403178D01*
X480548Y402769D01*
X480546Y402765D01*
X480542Y402765D01*
X480426Y402619D01*
X479760Y402545D01*
X479760Y402544D01*
X479759Y402544D01*
X479758Y402545D01*
X479114Y402362D01*
X478951Y402453D01*
X478947Y402452D01*
X478944Y402454D01*
X477454Y402288D01*
X477451Y402285D01*
X477447Y402285D01*
X477308Y402161D01*
X476639Y402197D01*
X476638Y402196D01*
X476637Y402197D01*
X475972Y402123D01*
X475826Y402239D01*
X475822Y402239D01*
X475819Y402242D01*
X474322Y402324D01*
X474318Y402321D01*
X474315Y402322D01*
X474158Y402222D01*
X473504Y402368D01*
X473503Y402367D01*
X473502Y402368D01*
X473266Y402381D01*
X473254Y402371D01*
X473255Y402370D01*
X473254Y402369D01*
X473254Y329267D01*
X428502Y284516D01*
X428259Y284273D01*
X428258Y284268D01*
X428255Y284266D01*
X428258Y284262D01*
X428258Y284257D01*
X428263Y284256D01*
X428267Y284252D01*
X448230Y284252D01*
X448235Y284256D01*
X448239Y284256D01*
X451128Y287145D01*
X455525Y287145D01*
X458633Y284037D01*
X458633Y279640D01*
X456674Y277681D01*
X456674Y277677D01*
X456671Y277674D01*
X456674Y277671D01*
X456673Y277665D01*
X456679Y277665D01*
X456683Y277661D01*
X458280Y277661D01*
X458287Y277667D01*
G37*
%LPC*%
G36*
X310439Y370653D02*
X310439Y370653D01*
X310169Y370924D01*
X310163Y370924D01*
X310160Y370927D01*
X307936Y370927D01*
X306677Y372187D01*
X306677Y374410D01*
X306673Y374415D01*
X306674Y374419D01*
X306104Y374989D01*
X306098Y374989D01*
X306095Y374992D01*
X302988Y374992D01*
X302977Y374982D01*
X302977Y374981D01*
X302977Y374980D01*
X302977Y372409D01*
X302083Y371516D01*
X289820Y371516D01*
X288927Y372409D01*
X288927Y383672D01*
X289820Y384566D01*
X292891Y384566D01*
X292903Y384576D01*
X292903Y384577D01*
X292903Y384578D01*
X292903Y389858D01*
X292893Y389869D01*
X292892Y389869D01*
X292891Y389870D01*
X289691Y389870D01*
X288798Y390763D01*
X288798Y407026D01*
X289691Y407919D01*
X303954Y407919D01*
X304847Y407026D01*
X304847Y403097D01*
X304850Y403094D01*
X304850Y403090D01*
X304854Y403089D01*
X304858Y403085D01*
X304862Y403089D01*
X304868Y403089D01*
X305980Y404201D01*
X310376Y404201D01*
X313485Y401092D01*
X313485Y396696D01*
X310376Y393588D01*
X305980Y393588D01*
X304868Y394700D01*
X304864Y394700D01*
X304861Y394703D01*
X304858Y394701D01*
X304852Y394701D01*
X304852Y394695D01*
X304847Y394692D01*
X304847Y390763D01*
X303954Y389870D01*
X299012Y389870D01*
X299001Y389859D01*
X299001Y389858D01*
X299001Y384578D01*
X299011Y384566D01*
X299012Y384566D01*
X302083Y384566D01*
X302977Y383672D01*
X302977Y381102D01*
X302987Y381090D01*
X302988Y381090D01*
X308626Y381090D01*
X310415Y379300D01*
X313235Y376480D01*
X313241Y376480D01*
X313244Y376477D01*
X315467Y376477D01*
X316727Y375217D01*
X316727Y372187D01*
X315467Y370927D01*
X313244Y370927D01*
X313239Y370924D01*
X313235Y370924D01*
X312965Y370653D01*
X310439Y370653D01*
G37*
%LPD*%
G36*
X363231Y195709D02*
X363231Y195709D01*
X363260Y195706D01*
X363327Y195728D01*
X363397Y195742D01*
X363421Y195759D01*
X363449Y195768D01*
X363502Y195815D01*
X363561Y195855D01*
X363577Y195879D01*
X363599Y195899D01*
X363630Y195963D01*
X363668Y196022D01*
X363673Y196051D01*
X363685Y196077D01*
X363694Y196177D01*
X363701Y196219D01*
X363698Y196229D01*
X363700Y196243D01*
X363468Y199041D01*
X363458Y199075D01*
X363454Y199123D01*
X362765Y201844D01*
X362750Y201876D01*
X362738Y201922D01*
X361610Y204494D01*
X361590Y204522D01*
X361571Y204566D01*
X360035Y206917D01*
X360011Y206941D01*
X359985Y206982D01*
X358083Y209047D01*
X358055Y209068D01*
X358022Y209103D01*
X355807Y210828D01*
X355776Y210843D01*
X355738Y210873D01*
X353268Y212209D01*
X353235Y212219D01*
X353193Y212242D01*
X352007Y212650D01*
X350553Y213149D01*
X350537Y213154D01*
X350503Y213159D01*
X350457Y213174D01*
X347688Y213636D01*
X347653Y213635D01*
X347606Y213643D01*
X344798Y213643D01*
X344764Y213636D01*
X344716Y213636D01*
X341947Y213174D01*
X341914Y213162D01*
X341867Y213154D01*
X339211Y212242D01*
X339181Y212225D01*
X339136Y212209D01*
X336666Y210873D01*
X336640Y210851D01*
X336597Y210828D01*
X334382Y209103D01*
X334359Y209077D01*
X334321Y209047D01*
X332419Y206982D01*
X332401Y206952D01*
X332369Y206917D01*
X330833Y204566D01*
X330820Y204534D01*
X330794Y204494D01*
X329666Y201922D01*
X329659Y201889D01*
X329656Y201882D01*
X329650Y201873D01*
X329649Y201867D01*
X329639Y201844D01*
X328950Y199123D01*
X328948Y199088D01*
X328936Y199041D01*
X328704Y196243D01*
X328708Y196214D01*
X328703Y196185D01*
X328720Y196116D01*
X328728Y196046D01*
X328742Y196020D01*
X328749Y195992D01*
X328791Y195935D01*
X328826Y195873D01*
X328850Y195855D01*
X328867Y195832D01*
X328928Y195796D01*
X328985Y195753D01*
X329013Y195745D01*
X329038Y195730D01*
X329136Y195714D01*
X329177Y195703D01*
X329188Y195705D01*
X329202Y195703D01*
X363202Y195703D01*
X363231Y195709D01*
G37*
G36*
X347640Y478768D02*
X347640Y478768D01*
X347688Y478768D01*
X350457Y479230D01*
X350490Y479242D01*
X350537Y479250D01*
X353193Y480162D01*
X353223Y480179D01*
X353268Y480195D01*
X355738Y481531D01*
X355764Y481553D01*
X355807Y481576D01*
X358022Y483301D01*
X358045Y483327D01*
X358083Y483357D01*
X359985Y485422D01*
X360003Y485452D01*
X360035Y485487D01*
X361571Y487838D01*
X361584Y487870D01*
X361610Y487910D01*
X362738Y490482D01*
X362745Y490515D01*
X362765Y490560D01*
X363454Y493281D01*
X363456Y493316D01*
X363468Y493363D01*
X363700Y496161D01*
X363696Y496190D01*
X363701Y496219D01*
X363685Y496288D01*
X363676Y496358D01*
X363662Y496384D01*
X363655Y496412D01*
X363613Y496469D01*
X363578Y496531D01*
X363554Y496549D01*
X363537Y496572D01*
X363476Y496608D01*
X363419Y496651D01*
X363391Y496659D01*
X363366Y496674D01*
X363268Y496690D01*
X363227Y496701D01*
X363216Y496699D01*
X363202Y496701D01*
X329202Y496701D01*
X329173Y496695D01*
X329144Y496698D01*
X329077Y496676D01*
X329007Y496662D01*
X328983Y496645D01*
X328955Y496636D01*
X328902Y496589D01*
X328843Y496549D01*
X328828Y496525D01*
X328806Y496505D01*
X328774Y496441D01*
X328736Y496382D01*
X328731Y496353D01*
X328719Y496327D01*
X328710Y496227D01*
X328703Y496185D01*
X328706Y496175D01*
X328704Y496161D01*
X328936Y493363D01*
X328946Y493329D01*
X328950Y493281D01*
X329639Y490560D01*
X329654Y490528D01*
X329666Y490482D01*
X330794Y487910D01*
X330814Y487882D01*
X330833Y487838D01*
X332369Y485487D01*
X332393Y485463D01*
X332419Y485422D01*
X334321Y483357D01*
X334349Y483336D01*
X334382Y483301D01*
X336597Y481576D01*
X336628Y481561D01*
X336666Y481531D01*
X339136Y480195D01*
X339169Y480185D01*
X339211Y480162D01*
X341867Y479250D01*
X341901Y479246D01*
X341947Y479230D01*
X344716Y478768D01*
X344751Y478769D01*
X344798Y478761D01*
X347606Y478761D01*
X347640Y478768D01*
G37*
G36*
X224809Y256012D02*
X224809Y256012D01*
X224880Y256009D01*
X224907Y256019D01*
X224936Y256021D01*
X225026Y256063D01*
X225066Y256078D01*
X225074Y256086D01*
X225087Y256092D01*
X227390Y257691D01*
X227414Y257717D01*
X227454Y257744D01*
X229463Y259701D01*
X229482Y259730D01*
X229517Y259763D01*
X231176Y262024D01*
X231191Y262055D01*
X231220Y262094D01*
X232484Y264597D01*
X232493Y264631D01*
X232515Y264674D01*
X233351Y267351D01*
X233354Y267385D01*
X233369Y267431D01*
X233752Y270210D01*
X233750Y270244D01*
X233756Y270292D01*
X233677Y273095D01*
X233669Y273129D01*
X233668Y273177D01*
X233129Y275929D01*
X233115Y275961D01*
X233106Y276009D01*
X232121Y278634D01*
X232106Y278659D01*
X232101Y278679D01*
X232093Y278690D01*
X232086Y278709D01*
X230682Y281137D01*
X230659Y281163D01*
X230635Y281205D01*
X228851Y283368D01*
X228824Y283390D01*
X228793Y283427D01*
X226677Y285268D01*
X226647Y285285D01*
X226611Y285317D01*
X224220Y286784D01*
X224188Y286795D01*
X224147Y286821D01*
X221548Y287874D01*
X221514Y287881D01*
X221469Y287899D01*
X218732Y288510D01*
X218697Y288511D01*
X218650Y288522D01*
X215850Y288674D01*
X215816Y288669D01*
X215768Y288672D01*
X212980Y288362D01*
X212947Y288351D01*
X212899Y288346D01*
X210201Y287581D01*
X210171Y287565D01*
X210124Y287552D01*
X207589Y286353D01*
X207565Y286336D01*
X207538Y286326D01*
X207486Y286277D01*
X207429Y286234D01*
X207415Y286209D01*
X207394Y286189D01*
X207365Y286124D01*
X207329Y286063D01*
X207326Y286034D01*
X207314Y286007D01*
X207313Y285936D01*
X207304Y285865D01*
X207312Y285837D01*
X207312Y285808D01*
X207346Y285715D01*
X207358Y285674D01*
X207365Y285665D01*
X207370Y285652D01*
X224370Y256252D01*
X224389Y256230D01*
X224402Y256204D01*
X224455Y256156D01*
X224502Y256103D01*
X224528Y256091D01*
X224550Y256071D01*
X224617Y256048D01*
X224681Y256018D01*
X224710Y256016D01*
X224738Y256007D01*
X224809Y256012D01*
G37*
G36*
X476588Y403735D02*
X476588Y403735D01*
X476636Y403732D01*
X479424Y404042D01*
X479457Y404053D01*
X479505Y404058D01*
X482203Y404823D01*
X482233Y404839D01*
X482280Y404852D01*
X484815Y406051D01*
X484839Y406068D01*
X484866Y406078D01*
X484918Y406127D01*
X484975Y406170D01*
X484989Y406195D01*
X485011Y406215D01*
X485039Y406280D01*
X485075Y406342D01*
X485078Y406370D01*
X485090Y406397D01*
X485091Y406468D01*
X485100Y406539D01*
X485092Y406567D01*
X485092Y406596D01*
X485058Y406689D01*
X485046Y406730D01*
X485039Y406739D01*
X485034Y406752D01*
X468034Y436152D01*
X468015Y436174D01*
X468002Y436200D01*
X467949Y436248D01*
X467902Y436301D01*
X467876Y436313D01*
X467854Y436333D01*
X467787Y436356D01*
X467723Y436386D01*
X467694Y436388D01*
X467666Y436397D01*
X467595Y436392D01*
X467524Y436395D01*
X467497Y436385D01*
X467468Y436383D01*
X467378Y436341D01*
X467338Y436326D01*
X467330Y436318D01*
X467317Y436312D01*
X465014Y434713D01*
X464990Y434688D01*
X464950Y434660D01*
X462941Y432703D01*
X462922Y432674D01*
X462887Y432641D01*
X461228Y430380D01*
X461213Y430349D01*
X461184Y430310D01*
X459920Y427807D01*
X459911Y427773D01*
X459889Y427730D01*
X459053Y425053D01*
X459050Y425019D01*
X459035Y424973D01*
X458652Y422194D01*
X458654Y422160D01*
X458648Y422112D01*
X458727Y419309D01*
X458735Y419275D01*
X458736Y419227D01*
X459275Y416475D01*
X459289Y416443D01*
X459298Y416395D01*
X460283Y413770D01*
X460301Y413740D01*
X460318Y413695D01*
X461722Y411267D01*
X461745Y411241D01*
X461769Y411200D01*
X463553Y409036D01*
X463580Y409014D01*
X463611Y408977D01*
X465727Y407136D01*
X465757Y407119D01*
X465793Y407088D01*
X468184Y405620D01*
X468216Y405609D01*
X468257Y405583D01*
X470856Y404530D01*
X470890Y404523D01*
X470935Y404505D01*
X473672Y403894D01*
X473707Y403893D01*
X473754Y403882D01*
X476554Y403730D01*
X476588Y403735D01*
G37*
G36*
X467628Y256013D02*
X467628Y256013D01*
X467699Y256012D01*
X467726Y256023D01*
X467755Y256027D01*
X467817Y256061D01*
X467882Y256089D01*
X467903Y256110D01*
X467928Y256124D01*
X467991Y256200D01*
X468021Y256231D01*
X468025Y256241D01*
X468034Y256252D01*
X485034Y285652D01*
X485043Y285680D01*
X485060Y285704D01*
X485075Y285773D01*
X485097Y285841D01*
X485095Y285870D01*
X485101Y285898D01*
X485088Y285968D01*
X485082Y286039D01*
X485069Y286065D01*
X485063Y286093D01*
X485023Y286152D01*
X484991Y286215D01*
X484968Y286234D01*
X484952Y286258D01*
X484870Y286315D01*
X484837Y286342D01*
X484827Y286345D01*
X484815Y286353D01*
X482280Y287552D01*
X482246Y287560D01*
X482203Y287581D01*
X479505Y288346D01*
X479470Y288348D01*
X479424Y288362D01*
X476636Y288672D01*
X476602Y288669D01*
X476554Y288674D01*
X473754Y288522D01*
X473720Y288513D01*
X473672Y288510D01*
X470935Y287899D01*
X470903Y287885D01*
X470856Y287874D01*
X468257Y286821D01*
X468228Y286802D01*
X468184Y286784D01*
X465793Y285317D01*
X465768Y285293D01*
X465727Y285268D01*
X463611Y283427D01*
X463590Y283400D01*
X463553Y283368D01*
X461769Y281205D01*
X461753Y281174D01*
X461722Y281137D01*
X460318Y278709D01*
X460307Y278676D01*
X460300Y278663D01*
X460290Y278649D01*
X460290Y278646D01*
X460283Y278634D01*
X459298Y276009D01*
X459292Y275974D01*
X459275Y275929D01*
X458736Y273177D01*
X458736Y273143D01*
X458727Y273095D01*
X458648Y270292D01*
X458654Y270258D01*
X458652Y270210D01*
X459035Y267431D01*
X459047Y267399D01*
X459053Y267351D01*
X459889Y264674D01*
X459906Y264643D01*
X459920Y264597D01*
X461184Y262094D01*
X461206Y262067D01*
X461228Y262024D01*
X462887Y259763D01*
X462913Y259740D01*
X462941Y259701D01*
X464950Y257744D01*
X464979Y257725D01*
X465014Y257691D01*
X467317Y256092D01*
X467344Y256080D01*
X467367Y256062D01*
X467435Y256041D01*
X467500Y256013D01*
X467529Y256013D01*
X467557Y256005D01*
X467628Y256013D01*
G37*
G36*
X218650Y403882D02*
X218650Y403882D01*
X218684Y403891D01*
X218732Y403894D01*
X221469Y404505D01*
X221501Y404519D01*
X221548Y404530D01*
X224147Y405583D01*
X224176Y405602D01*
X224220Y405620D01*
X226611Y407088D01*
X226636Y407111D01*
X226677Y407136D01*
X228793Y408977D01*
X228814Y409004D01*
X228851Y409036D01*
X230635Y411200D01*
X230651Y411230D01*
X230682Y411267D01*
X232086Y413695D01*
X232097Y413728D01*
X232121Y413770D01*
X233106Y416395D01*
X233112Y416430D01*
X233129Y416475D01*
X233668Y419227D01*
X233668Y419262D01*
X233677Y419309D01*
X233756Y422112D01*
X233751Y422146D01*
X233752Y422194D01*
X233369Y424973D01*
X233357Y425005D01*
X233351Y425053D01*
X232515Y427730D01*
X232498Y427761D01*
X232484Y427807D01*
X231220Y430310D01*
X231198Y430337D01*
X231176Y430380D01*
X229517Y432641D01*
X229491Y432664D01*
X229463Y432703D01*
X227454Y434660D01*
X227425Y434679D01*
X227390Y434713D01*
X225087Y436312D01*
X225060Y436324D01*
X225037Y436342D01*
X224969Y436363D01*
X224904Y436391D01*
X224875Y436391D01*
X224847Y436399D01*
X224776Y436391D01*
X224705Y436392D01*
X224678Y436381D01*
X224649Y436377D01*
X224587Y436343D01*
X224522Y436315D01*
X224501Y436294D01*
X224476Y436280D01*
X224413Y436204D01*
X224383Y436173D01*
X224379Y436163D01*
X224370Y436152D01*
X207370Y406752D01*
X207361Y406724D01*
X207344Y406700D01*
X207329Y406631D01*
X207307Y406563D01*
X207309Y406534D01*
X207303Y406506D01*
X207316Y406436D01*
X207322Y406365D01*
X207335Y406339D01*
X207341Y406311D01*
X207381Y406252D01*
X207413Y406189D01*
X207436Y406170D01*
X207452Y406146D01*
X207534Y406089D01*
X207567Y406062D01*
X207577Y406059D01*
X207589Y406051D01*
X210124Y404852D01*
X210158Y404844D01*
X210201Y404823D01*
X212899Y404058D01*
X212934Y404056D01*
X212980Y404042D01*
X215768Y403732D01*
X215802Y403735D01*
X215850Y403730D01*
X218650Y403882D01*
G37*
D10*
X425613Y353869D03*
X425613Y370869D03*
D11*
X425630Y316777D03*
X425630Y335777D03*
D12*
X377827Y373077D02*
X377827Y374327D01*
X383577Y374327D01*
X383577Y373077D01*
X377827Y373077D01*
X377827Y374264D02*
X383577Y374264D01*
X377827Y369327D02*
X377827Y368077D01*
X377827Y369327D02*
X383577Y369327D01*
X383577Y368077D01*
X377827Y368077D01*
X377827Y369264D02*
X383577Y369264D01*
X377827Y364327D02*
X377827Y363077D01*
X377827Y364327D02*
X383577Y364327D01*
X383577Y363077D01*
X377827Y363077D01*
X377827Y364264D02*
X383577Y364264D01*
X377827Y359327D02*
X377827Y358077D01*
X377827Y359327D02*
X383577Y359327D01*
X383577Y358077D01*
X377827Y358077D01*
X377827Y359264D02*
X383577Y359264D01*
X377827Y354327D02*
X377827Y353077D01*
X377827Y354327D02*
X383577Y354327D01*
X383577Y353077D01*
X377827Y353077D01*
X377827Y354264D02*
X383577Y354264D01*
X377827Y349327D02*
X377827Y348077D01*
X377827Y349327D02*
X383577Y349327D01*
X383577Y348077D01*
X377827Y348077D01*
X377827Y349264D02*
X383577Y349264D01*
X377827Y344327D02*
X377827Y343077D01*
X377827Y344327D02*
X383577Y344327D01*
X383577Y343077D01*
X377827Y343077D01*
X377827Y344264D02*
X383577Y344264D01*
X377827Y339327D02*
X377827Y338077D01*
X377827Y339327D02*
X383577Y339327D01*
X383577Y338077D01*
X377827Y338077D01*
X377827Y339264D02*
X383577Y339264D01*
X377827Y334327D02*
X377827Y333077D01*
X377827Y334327D02*
X383577Y334327D01*
X383577Y333077D01*
X377827Y333077D01*
X377827Y334264D02*
X383577Y334264D01*
X377827Y329327D02*
X377827Y328077D01*
X377827Y329327D02*
X383577Y329327D01*
X383577Y328077D01*
X377827Y328077D01*
X377827Y329264D02*
X383577Y329264D01*
X377827Y324327D02*
X377827Y323077D01*
X377827Y324327D02*
X383577Y324327D01*
X383577Y323077D01*
X377827Y323077D01*
X377827Y324264D02*
X383577Y324264D01*
X377827Y319327D02*
X377827Y318077D01*
X377827Y319327D02*
X383577Y319327D01*
X383577Y318077D01*
X377827Y318077D01*
X377827Y319264D02*
X383577Y319264D01*
X374327Y314577D02*
X373077Y314577D01*
X374327Y314577D02*
X374327Y308827D01*
X373077Y308827D01*
X373077Y314577D01*
X373077Y310014D02*
X374327Y310014D01*
X374327Y311201D02*
X373077Y311201D01*
X373077Y312388D02*
X374327Y312388D01*
X374327Y313575D02*
X373077Y313575D01*
X369327Y314577D02*
X368077Y314577D01*
X369327Y314577D02*
X369327Y308827D01*
X368077Y308827D01*
X368077Y314577D01*
X368077Y310014D02*
X369327Y310014D01*
X369327Y311201D02*
X368077Y311201D01*
X368077Y312388D02*
X369327Y312388D01*
X369327Y313575D02*
X368077Y313575D01*
X364327Y314577D02*
X363077Y314577D01*
X364327Y314577D02*
X364327Y308827D01*
X363077Y308827D01*
X363077Y314577D01*
X363077Y310014D02*
X364327Y310014D01*
X364327Y311201D02*
X363077Y311201D01*
X363077Y312388D02*
X364327Y312388D01*
X364327Y313575D02*
X363077Y313575D01*
X359327Y314577D02*
X358077Y314577D01*
X359327Y314577D02*
X359327Y308827D01*
X358077Y308827D01*
X358077Y314577D01*
X358077Y310014D02*
X359327Y310014D01*
X359327Y311201D02*
X358077Y311201D01*
X358077Y312388D02*
X359327Y312388D01*
X359327Y313575D02*
X358077Y313575D01*
X354327Y314577D02*
X353077Y314577D01*
X354327Y314577D02*
X354327Y308827D01*
X353077Y308827D01*
X353077Y314577D01*
X353077Y310014D02*
X354327Y310014D01*
X354327Y311201D02*
X353077Y311201D01*
X353077Y312388D02*
X354327Y312388D01*
X354327Y313575D02*
X353077Y313575D01*
X349327Y314577D02*
X348077Y314577D01*
X349327Y314577D02*
X349327Y308827D01*
X348077Y308827D01*
X348077Y314577D01*
X348077Y310014D02*
X349327Y310014D01*
X349327Y311201D02*
X348077Y311201D01*
X348077Y312388D02*
X349327Y312388D01*
X349327Y313575D02*
X348077Y313575D01*
X344327Y314577D02*
X343077Y314577D01*
X344327Y314577D02*
X344327Y308827D01*
X343077Y308827D01*
X343077Y314577D01*
X343077Y310014D02*
X344327Y310014D01*
X344327Y311201D02*
X343077Y311201D01*
X343077Y312388D02*
X344327Y312388D01*
X344327Y313575D02*
X343077Y313575D01*
X339327Y314577D02*
X338077Y314577D01*
X339327Y314577D02*
X339327Y308827D01*
X338077Y308827D01*
X338077Y314577D01*
X338077Y310014D02*
X339327Y310014D01*
X339327Y311201D02*
X338077Y311201D01*
X338077Y312388D02*
X339327Y312388D01*
X339327Y313575D02*
X338077Y313575D01*
X334327Y314577D02*
X333077Y314577D01*
X334327Y314577D02*
X334327Y308827D01*
X333077Y308827D01*
X333077Y314577D01*
X333077Y310014D02*
X334327Y310014D01*
X334327Y311201D02*
X333077Y311201D01*
X333077Y312388D02*
X334327Y312388D01*
X334327Y313575D02*
X333077Y313575D01*
X329327Y314577D02*
X328077Y314577D01*
X329327Y314577D02*
X329327Y308827D01*
X328077Y308827D01*
X328077Y314577D01*
X328077Y310014D02*
X329327Y310014D01*
X329327Y311201D02*
X328077Y311201D01*
X328077Y312388D02*
X329327Y312388D01*
X329327Y313575D02*
X328077Y313575D01*
X324327Y314577D02*
X323077Y314577D01*
X324327Y314577D02*
X324327Y308827D01*
X323077Y308827D01*
X323077Y314577D01*
X323077Y310014D02*
X324327Y310014D01*
X324327Y311201D02*
X323077Y311201D01*
X323077Y312388D02*
X324327Y312388D01*
X324327Y313575D02*
X323077Y313575D01*
X319327Y314577D02*
X318077Y314577D01*
X319327Y314577D02*
X319327Y308827D01*
X318077Y308827D01*
X318077Y314577D01*
X318077Y310014D02*
X319327Y310014D01*
X319327Y311201D02*
X318077Y311201D01*
X318077Y312388D02*
X319327Y312388D01*
X319327Y313575D02*
X318077Y313575D01*
X314577Y318077D02*
X314577Y319327D01*
X314577Y318077D02*
X308827Y318077D01*
X308827Y319327D01*
X314577Y319327D01*
X314577Y319264D02*
X308827Y319264D01*
X314577Y323077D02*
X314577Y324327D01*
X314577Y323077D02*
X308827Y323077D01*
X308827Y324327D01*
X314577Y324327D01*
X314577Y324264D02*
X308827Y324264D01*
X314577Y328077D02*
X314577Y329327D01*
X314577Y328077D02*
X308827Y328077D01*
X308827Y329327D01*
X314577Y329327D01*
X314577Y329264D02*
X308827Y329264D01*
X314577Y333077D02*
X314577Y334327D01*
X314577Y333077D02*
X308827Y333077D01*
X308827Y334327D01*
X314577Y334327D01*
X314577Y334264D02*
X308827Y334264D01*
X314577Y338077D02*
X314577Y339327D01*
X314577Y338077D02*
X308827Y338077D01*
X308827Y339327D01*
X314577Y339327D01*
X314577Y339264D02*
X308827Y339264D01*
X314577Y343077D02*
X314577Y344327D01*
X314577Y343077D02*
X308827Y343077D01*
X308827Y344327D01*
X314577Y344327D01*
X314577Y344264D02*
X308827Y344264D01*
X314577Y348077D02*
X314577Y349327D01*
X314577Y348077D02*
X308827Y348077D01*
X308827Y349327D01*
X314577Y349327D01*
X314577Y349264D02*
X308827Y349264D01*
X314577Y353077D02*
X314577Y354327D01*
X314577Y353077D02*
X308827Y353077D01*
X308827Y354327D01*
X314577Y354327D01*
X314577Y354264D02*
X308827Y354264D01*
X314577Y358077D02*
X314577Y359327D01*
X314577Y358077D02*
X308827Y358077D01*
X308827Y359327D01*
X314577Y359327D01*
X314577Y359264D02*
X308827Y359264D01*
X314577Y363077D02*
X314577Y364327D01*
X314577Y363077D02*
X308827Y363077D01*
X308827Y364327D01*
X314577Y364327D01*
X314577Y364264D02*
X308827Y364264D01*
X314577Y368077D02*
X314577Y369327D01*
X314577Y368077D02*
X308827Y368077D01*
X308827Y369327D01*
X314577Y369327D01*
X314577Y369264D02*
X308827Y369264D01*
X314577Y373077D02*
X314577Y374327D01*
X314577Y373077D02*
X308827Y373077D01*
X308827Y374327D01*
X314577Y374327D01*
X314577Y374264D02*
X308827Y374264D01*
X318077Y377827D02*
X319327Y377827D01*
X318077Y377827D02*
X318077Y383577D01*
X319327Y383577D01*
X319327Y377827D01*
X319327Y379014D02*
X318077Y379014D01*
X318077Y380201D02*
X319327Y380201D01*
X319327Y381388D02*
X318077Y381388D01*
X318077Y382575D02*
X319327Y382575D01*
X323077Y377827D02*
X324327Y377827D01*
X323077Y377827D02*
X323077Y383577D01*
X324327Y383577D01*
X324327Y377827D01*
X324327Y379014D02*
X323077Y379014D01*
X323077Y380201D02*
X324327Y380201D01*
X324327Y381388D02*
X323077Y381388D01*
X323077Y382575D02*
X324327Y382575D01*
X328077Y377827D02*
X329327Y377827D01*
X328077Y377827D02*
X328077Y383577D01*
X329327Y383577D01*
X329327Y377827D01*
X329327Y379014D02*
X328077Y379014D01*
X328077Y380201D02*
X329327Y380201D01*
X329327Y381388D02*
X328077Y381388D01*
X328077Y382575D02*
X329327Y382575D01*
X333077Y377827D02*
X334327Y377827D01*
X333077Y377827D02*
X333077Y383577D01*
X334327Y383577D01*
X334327Y377827D01*
X334327Y379014D02*
X333077Y379014D01*
X333077Y380201D02*
X334327Y380201D01*
X334327Y381388D02*
X333077Y381388D01*
X333077Y382575D02*
X334327Y382575D01*
X338077Y377827D02*
X339327Y377827D01*
X338077Y377827D02*
X338077Y383577D01*
X339327Y383577D01*
X339327Y377827D01*
X339327Y379014D02*
X338077Y379014D01*
X338077Y380201D02*
X339327Y380201D01*
X339327Y381388D02*
X338077Y381388D01*
X338077Y382575D02*
X339327Y382575D01*
X343077Y377827D02*
X344327Y377827D01*
X343077Y377827D02*
X343077Y383577D01*
X344327Y383577D01*
X344327Y377827D01*
X344327Y379014D02*
X343077Y379014D01*
X343077Y380201D02*
X344327Y380201D01*
X344327Y381388D02*
X343077Y381388D01*
X343077Y382575D02*
X344327Y382575D01*
X348077Y377827D02*
X349327Y377827D01*
X348077Y377827D02*
X348077Y383577D01*
X349327Y383577D01*
X349327Y377827D01*
X349327Y379014D02*
X348077Y379014D01*
X348077Y380201D02*
X349327Y380201D01*
X349327Y381388D02*
X348077Y381388D01*
X348077Y382575D02*
X349327Y382575D01*
X353077Y377827D02*
X354327Y377827D01*
X353077Y377827D02*
X353077Y383577D01*
X354327Y383577D01*
X354327Y377827D01*
X354327Y379014D02*
X353077Y379014D01*
X353077Y380201D02*
X354327Y380201D01*
X354327Y381388D02*
X353077Y381388D01*
X353077Y382575D02*
X354327Y382575D01*
X358077Y377827D02*
X359327Y377827D01*
X358077Y377827D02*
X358077Y383577D01*
X359327Y383577D01*
X359327Y377827D01*
X359327Y379014D02*
X358077Y379014D01*
X358077Y380201D02*
X359327Y380201D01*
X359327Y381388D02*
X358077Y381388D01*
X358077Y382575D02*
X359327Y382575D01*
X363077Y377827D02*
X364327Y377827D01*
X363077Y377827D02*
X363077Y383577D01*
X364327Y383577D01*
X364327Y377827D01*
X364327Y379014D02*
X363077Y379014D01*
X363077Y380201D02*
X364327Y380201D01*
X364327Y381388D02*
X363077Y381388D01*
X363077Y382575D02*
X364327Y382575D01*
X368077Y377827D02*
X369327Y377827D01*
X368077Y377827D02*
X368077Y383577D01*
X369327Y383577D01*
X369327Y377827D01*
X369327Y379014D02*
X368077Y379014D01*
X368077Y380201D02*
X369327Y380201D01*
X369327Y381388D02*
X368077Y381388D01*
X368077Y382575D02*
X369327Y382575D01*
X373077Y377827D02*
X374327Y377827D01*
X373077Y377827D02*
X373077Y383577D01*
X374327Y383577D01*
X374327Y377827D01*
X374327Y379014D02*
X373077Y379014D01*
X373077Y380201D02*
X374327Y380201D01*
X374327Y381388D02*
X373077Y381388D01*
X373077Y382575D02*
X374327Y382575D01*
D13*
X346202Y346202D03*
D14*
X402776Y372693D03*
X402776Y360693D03*
X402776Y348693D03*
D10*
X402736Y427787D03*
X385736Y427787D03*
D15*
X296823Y398894D03*
X277823Y398894D03*
D11*
X273101Y304610D03*
X273101Y285610D03*
D10*
X405270Y316330D03*
X405270Y333330D03*
D16*
X295952Y378041D03*
X278952Y378041D03*
D10*
X295605Y303127D03*
X295605Y286127D03*
D16*
X382642Y396862D03*
X365642Y396862D03*
X396579Y396761D03*
X413579Y396761D03*
X448196Y352734D03*
X448196Y335734D03*
D17*
X285510Y417159D02*
X274510Y417159D01*
X274510Y422159D01*
X285510Y422159D01*
X285510Y417159D01*
X285510Y421909D02*
X274510Y421909D01*
X274510Y447559D02*
X285510Y447559D01*
X285510Y442559D01*
X274510Y442559D01*
X274510Y447559D01*
X274510Y447309D02*
X285510Y447309D01*
X394499Y449692D02*
X405499Y449692D01*
X405499Y444692D01*
X394499Y444692D01*
X394499Y449692D01*
X394499Y449442D02*
X405499Y449442D01*
X440410Y382776D02*
X451410Y382776D01*
X451410Y377776D01*
X440410Y377776D01*
X440410Y382776D01*
X440410Y382526D02*
X451410Y382526D01*
D18*
X428802Y489302D03*
X511402Y346202D03*
X428802Y203102D03*
X263602Y203102D03*
X181002Y346202D03*
X263602Y489302D03*
X470102Y417702D03*
X470102Y274702D03*
X346202Y203102D03*
X222302Y274702D03*
X222302Y417702D03*
X346202Y489302D03*
D19*
X358702Y358702D02*
X346202Y346202D01*
X358702Y358702D02*
X358702Y380702D01*
X348702Y326684D02*
X348702Y311702D01*
X348702Y326684D02*
X346088Y329298D01*
X346088Y346088D01*
X346202Y346202D01*
X323702Y368702D01*
X311702Y368702D01*
X348702Y311702D02*
X353702Y311702D01*
X323702Y311702D02*
X323702Y323702D01*
X346202Y346202D01*
X358702Y380702D02*
X363702Y380702D01*
X368702Y380702D01*
X358702Y389922D02*
X365642Y396862D01*
X358702Y389922D02*
X358702Y380702D01*
X402776Y360693D02*
X415437Y360693D01*
X425613Y370869D01*
X425613Y389702D01*
X418554Y396761D01*
X413579Y396761D01*
X402695Y407645D01*
X425613Y389702D02*
X428802Y392890D01*
X311702Y368702D02*
X282186Y368702D01*
X278952Y371936D02*
X278952Y378041D01*
X278952Y371936D02*
X282186Y368702D01*
X278952Y378041D02*
X277823Y379170D01*
X277823Y398894D01*
X365642Y396862D02*
X376424Y407645D01*
X402695Y407645D01*
X353702Y311702D02*
X353702Y303675D01*
X359130Y298247D01*
X359130Y232803D01*
X348996Y222669D01*
D20*
X348996Y222669D03*
X376377Y222682D03*
D19*
X409222Y222682D01*
X428802Y203102D01*
X323702Y296003D02*
X323702Y311702D01*
X323702Y296003D02*
X313792Y286093D01*
X295640Y286093D01*
X295605Y286127D01*
X273618Y286127D01*
X273101Y285610D01*
X277823Y398894D02*
X277823Y407159D01*
X287579Y410210D02*
X292862Y415493D01*
X292862Y426656D01*
X287490Y432029D02*
X271412Y432029D01*
X263602Y439838D01*
X263602Y489302D01*
X280873Y410210D02*
X277823Y407159D01*
X280873Y410210D02*
X287579Y410210D01*
X292862Y426656D02*
X287490Y432029D01*
X454093Y363978D02*
X457772Y367656D01*
X454093Y363978D02*
X448196Y358080D01*
X448196Y352734D01*
X457772Y367656D02*
X457772Y385661D01*
X450542Y392890D01*
X428802Y392890D01*
X428422Y432791D02*
X428422Y488922D01*
X428802Y489302D01*
X241594Y285610D02*
X181002Y346202D01*
X241594Y285610D02*
X249187Y285610D01*
X273101Y285610D01*
D20*
X249187Y285610D03*
D19*
X256502Y210202D02*
X263602Y203102D01*
X256502Y210202D02*
X256502Y222669D01*
D20*
X256502Y222669D03*
D19*
X348996Y222669D01*
X504138Y353466D02*
X511402Y346202D01*
X504138Y353466D02*
X477609Y353466D01*
D20*
X477609Y353466D03*
X454093Y363978D03*
D19*
X423418Y427787D02*
X428422Y432791D01*
X423418Y427787D02*
X402736Y427787D01*
X402736Y407685D01*
X402695Y407645D01*
X373702Y380702D02*
X380702Y373702D01*
X373702Y380702D02*
X373702Y387922D01*
X382642Y396862D01*
X382744Y396761D01*
X396579Y396761D01*
X311702Y373702D02*
X307363Y378041D01*
X295952Y378041D01*
X295952Y398024D01*
X296823Y398894D01*
X295605Y303127D02*
X314612Y303127D01*
X314630Y303145D01*
D20*
X314630Y303145D03*
D19*
X318702Y307218D01*
X318702Y311702D01*
X295605Y303127D02*
X274583Y303127D01*
X273101Y304610D01*
X396579Y384979D02*
X396579Y396761D01*
X396579Y384979D02*
X396621Y384937D01*
D20*
X396621Y384937D03*
X308178Y398894D03*
D19*
X296823Y398894D01*
D20*
X241859Y267919D03*
D19*
X333630Y311630D02*
X333702Y311702D01*
X333630Y311630D02*
X333630Y287806D01*
X313742Y267919D01*
X241859Y267919D01*
X264615Y343702D02*
X311702Y343702D01*
X264615Y343702D02*
X214008Y394310D01*
D20*
X214008Y394310D03*
D19*
X328702Y311702D02*
X328702Y289345D01*
X314249Y274892D01*
X222492Y274892D01*
X222302Y274702D01*
X266842Y348702D02*
X311702Y348702D01*
X266842Y348702D02*
X222174Y393370D01*
X222174Y417574D01*
X222302Y417702D01*
X273631Y353702D02*
X311702Y353702D01*
X273631Y353702D02*
X270461Y356872D01*
D20*
X270461Y356872D03*
D19*
X380702Y333702D02*
X381130Y333274D01*
X390767Y333274D01*
X396875Y327166D01*
X396875Y319900D02*
X400545Y316230D01*
X405170Y316230D01*
X405270Y316330D01*
X396875Y319900D02*
X396875Y327166D01*
X405270Y316330D02*
X425183Y316330D01*
X425630Y316777D01*
X437947Y316777D01*
X442874Y321704D01*
D20*
X442874Y321704D03*
D19*
X328702Y380702D02*
X328702Y473457D01*
X331775Y476529D01*
D20*
X331775Y476529D03*
D19*
X333702Y464461D02*
X333702Y380702D01*
X346202Y476961D02*
X346202Y489302D01*
X346202Y476961D02*
X333702Y464461D01*
X380702Y353702D02*
X387573Y353702D01*
X390182Y356311D01*
X390182Y370065D01*
X392809Y372693D02*
X402776Y372693D01*
X392809Y372693D02*
X390182Y370065D01*
X380702Y348702D02*
X402766Y348702D01*
X402776Y348693D01*
X353702Y380702D02*
X353702Y413456D01*
X368033Y427787D01*
X385736Y427787D01*
X385736Y444156D01*
X388772Y447192D02*
X399999Y447192D01*
X388772Y447192D02*
X385736Y444156D01*
D20*
X385736Y444156D03*
D19*
X380702Y343702D02*
X394456Y343702D01*
X394513Y343645D01*
X416867Y345325D02*
X417069Y345325D01*
X425613Y353869D01*
X415187Y343645D02*
X394513Y343645D01*
X415187Y343645D02*
X416867Y345325D01*
X425613Y353869D02*
X427974Y353869D01*
X443675Y369570D01*
X445986Y371881D01*
X445986Y380200D01*
X445910Y380276D01*
D20*
X443675Y369570D03*
D19*
X392107Y338702D02*
X380702Y338702D01*
X397479Y333330D02*
X405270Y333330D01*
X397479Y333330D02*
X392107Y338702D01*
X405270Y333330D02*
X423183Y333330D01*
X425630Y335777D01*
X448153Y335777D01*
X448196Y335734D01*
X380702Y318702D02*
X380702Y284410D01*
X383908Y281203D01*
X452692Y281203D01*
X453327Y281838D01*
D20*
X453327Y281838D03*
D19*
X368702Y311702D02*
X368702Y215337D01*
X364909Y211544D01*
D20*
X364909Y211544D03*
D19*
X363702Y220602D02*
X363702Y311702D01*
X363702Y220602D02*
X346202Y203102D01*
X380702Y328702D02*
X388873Y328702D01*
X392189Y325387D01*
X392189Y292887D01*
X393713Y291363D01*
X423812Y291363D01*
X463639Y331191D01*
X463639Y397754D01*
X463375Y398018D01*
D20*
X463375Y398018D03*
D19*
X385580Y323702D02*
X380702Y323702D01*
X385580Y323702D02*
X387604Y321678D01*
X387604Y288976D01*
X390804Y285776D01*
X425450Y285776D02*
X470205Y330530D01*
X470205Y417599D01*
X470102Y417702D01*
X425450Y285776D02*
X390804Y285776D01*
X311702Y363702D02*
X264313Y363702D01*
X259423Y368592D01*
X259423Y416751D01*
X262331Y419659D02*
X266687Y419659D01*
X280010Y419659D01*
X262331Y419659D02*
X259423Y416751D01*
D20*
X266687Y419659D03*
D19*
X318702Y433100D02*
X318702Y380702D01*
X318702Y433100D02*
X309207Y442595D01*
X306692Y445110D01*
X293599Y445110D01*
X280060Y445110D01*
X280010Y445059D01*
D20*
X293599Y445110D03*
D19*
X338702Y311702D02*
X338702Y306433D01*
X343141Y301993D01*
D20*
X343141Y301993D03*
X295542Y323672D03*
D19*
X311672Y323672D01*
X311702Y323702D01*
X311702Y328702D02*
X304723Y328702D01*
X301396Y332029D01*
D20*
X301396Y332029D03*
X305880Y311518D03*
D19*
X305880Y315646D02*
X308936Y318702D01*
X305880Y315646D02*
X305880Y311518D01*
X308936Y318702D02*
X311702Y318702D01*
X373702Y311702D02*
X373702Y283561D01*
X382651Y274612D01*
X470012Y274612D01*
X470102Y274702D01*
M02*
