G04 EAGLE Gerber RS-274X export*
G75*
%MOMM*%
%FSLAX34Y34*%
%LPD*%
%INSilkscreen Top*%
%IPPOS*%
%AMOC8*
5,1,8,0,0,1.08239X$1,22.5*%
G01*
%ADD10C,0.101600*%
%ADD11C,0.152400*%
%ADD12R,0.014731X0.014731*%
%ADD13R,0.147319X0.014731*%
%ADD14R,0.265175X0.014731*%
%ADD15R,0.383031X0.014731*%
%ADD16R,0.515619X0.014731*%
%ADD17R,0.633475X0.014731*%
%ADD18R,0.751331X0.014731*%
%ADD19R,0.883919X0.014731*%
%ADD20R,1.001775X0.014731*%
%ADD21R,1.119631X0.014731*%
%ADD22R,1.134363X0.014731*%
%ADD23R,1.149094X0.014731*%
%ADD24R,1.163825X0.014731*%
%ADD25R,1.178556X0.014731*%
%ADD26R,1.193288X0.014731*%
%ADD27R,1.222756X0.014731*%
%ADD28R,1.237488X0.014731*%
%ADD29R,1.266950X0.014731*%
%ADD30R,1.281681X0.014731*%
%ADD31R,1.311144X0.014731*%
%ADD32R,1.325881X0.014731*%
%ADD33R,1.355344X0.014731*%
%ADD34R,1.370075X0.014731*%
%ADD35R,1.384806X0.014731*%
%ADD36R,1.399538X0.014731*%
%ADD37R,1.414275X0.014731*%
%ADD38R,1.443738X0.014731*%
%ADD39R,1.458469X0.014731*%
%ADD40R,1.487931X0.014731*%
%ADD41R,1.502663X0.014731*%
%ADD42R,1.517394X0.014731*%
%ADD43R,1.532125X0.014731*%
%ADD44R,1.546856X0.014731*%
%ADD45R,1.576319X0.014731*%
%ADD46R,1.605788X0.014731*%
%ADD47R,1.620519X0.014731*%
%ADD48R,1.649981X0.014731*%
%ADD49R,1.664713X0.014731*%
%ADD50R,1.694175X0.014731*%
%ADD51R,1.708913X0.014731*%
%ADD52R,1.738375X0.014731*%
%ADD53R,1.753106X0.014731*%
%ADD54R,1.767838X0.014731*%
%ADD55R,1.782569X0.014731*%
%ADD56R,1.797306X0.014731*%
%ADD57R,0.117856X0.014731*%
%ADD58R,1.826769X0.014731*%
%ADD59R,0.235713X0.014731*%
%ADD60R,0.353569X0.014731*%
%ADD61R,1.856231X0.014731*%
%ADD62R,0.486156X0.014731*%
%ADD63R,1.870963X0.014731*%
%ADD64R,0.604013X0.014731*%
%ADD65R,0.721869X0.014731*%
%ADD66R,1.885694X0.014731*%
%ADD67R,0.839719X0.014731*%
%ADD68R,0.972306X0.014731*%
%ADD69R,1.090169X0.014731*%
%ADD70R,1.208025X0.014731*%
%ADD71R,1.252219X0.014731*%
%ADD72R,1.296412X0.014731*%
%ADD73R,1.340612X0.014731*%
%ADD74R,1.826763X0.014731*%
%ADD75R,1.414269X0.014731*%
%ADD76R,1.812031X0.014731*%
%ADD77R,1.429000X0.014731*%
%ADD78R,1.458462X0.014731*%
%ADD79R,1.473200X0.014731*%
%ADD80R,1.723644X0.014731*%
%ADD81R,1.694181X0.014731*%
%ADD82R,1.679450X0.014731*%
%ADD83R,1.561594X0.014731*%
%ADD84R,1.576325X0.014731*%
%ADD85R,1.591056X0.014731*%
%ADD86R,1.635250X0.014731*%
%ADD87R,1.561588X0.014731*%
%ADD88R,1.443731X0.014731*%
%ADD89R,1.797300X0.014731*%
%ADD90R,1.841500X0.014731*%
%ADD91R,1.311150X0.014731*%
%ADD92R,1.296419X0.014731*%
%ADD93R,1.193294X0.014731*%
%ADD94R,0.957575X0.014731*%
%ADD95R,0.589281X0.014731*%
%ADD96R,0.471425X0.014731*%
%ADD97R,0.220975X0.014731*%
%ADD98R,1.812038X0.014731*%
%ADD99R,0.103119X0.014731*%
%ADD100R,0.029463X0.014731*%
%ADD101R,0.162050X0.014731*%
%ADD102R,0.397763X0.014731*%
%ADD103R,0.648206X0.014731*%
%ADD104R,1.679444X0.014731*%
%ADD105R,1.016506X0.014731*%
%ADD106R,1.104900X0.014731*%
%ADD107R,1.222750X0.014731*%
%ADD108R,1.429006X0.014731*%
%ADD109R,1.208019X0.014731*%
%ADD110R,0.987044X0.014731*%
%ADD111R,0.854456X0.014731*%
%ADD112R,0.618744X0.014731*%
%ADD113R,0.500888X0.014731*%
%ADD114R,0.368300X0.014731*%
%ADD115R,0.132587X0.014731*%
%ADD116R,1.664719X0.014731*%
%ADD117R,1.075438X0.014731*%
%ADD118R,0.942844X0.014731*%
%ADD119R,0.707131X0.014731*%
%ADD120R,0.456694X0.014731*%
%ADD121R,0.088388X0.014731*%
%ADD122C,0.127000*%
%ADD123C,0.076200*%
%ADD124C,0.150000*%


D10*
X403428Y475532D02*
X406086Y473670D01*
X406180Y473607D01*
X406276Y473547D01*
X406374Y473490D01*
X406474Y473437D01*
X406576Y473387D01*
X406680Y473341D01*
X406785Y473299D01*
X406891Y473260D01*
X406999Y473225D01*
X407108Y473194D01*
X407218Y473166D01*
X407329Y473143D01*
X407440Y473123D01*
X407552Y473107D01*
X407665Y473095D01*
X407778Y473087D01*
X407891Y473083D01*
X408005Y473083D01*
X408118Y473087D01*
X408231Y473095D01*
X408344Y473107D01*
X408456Y473123D01*
X408567Y473143D01*
X408678Y473166D01*
X408788Y473194D01*
X408897Y473225D01*
X409005Y473260D01*
X409111Y473299D01*
X409216Y473341D01*
X409320Y473387D01*
X409422Y473437D01*
X409522Y473490D01*
X409620Y473547D01*
X409716Y473607D01*
X409810Y473670D01*
X409901Y473737D01*
X409991Y473806D01*
X410078Y473879D01*
X410162Y473955D01*
X410243Y474034D01*
X410322Y474115D01*
X410398Y474199D01*
X410471Y474286D01*
X410540Y474376D01*
X410607Y474467D01*
X410670Y474561D01*
X410730Y474657D01*
X410787Y474755D01*
X410840Y474855D01*
X410890Y474957D01*
X410936Y475061D01*
X410978Y475166D01*
X411017Y475272D01*
X411052Y475380D01*
X411083Y475489D01*
X411111Y475599D01*
X411134Y475710D01*
X411154Y475821D01*
X411170Y475933D01*
X411182Y476046D01*
X411190Y476159D01*
X411194Y476272D01*
X411194Y476386D01*
X411190Y476499D01*
X411182Y476612D01*
X411170Y476725D01*
X411154Y476837D01*
X411134Y476948D01*
X411111Y477059D01*
X411083Y477169D01*
X411052Y477278D01*
X411017Y477386D01*
X410978Y477492D01*
X410936Y477597D01*
X410890Y477701D01*
X410840Y477803D01*
X410787Y477903D01*
X410730Y478001D01*
X410670Y478097D01*
X410607Y478191D01*
X410540Y478282D01*
X410471Y478372D01*
X410398Y478459D01*
X410322Y478543D01*
X410243Y478624D01*
X410162Y478703D01*
X410078Y478779D01*
X409991Y478852D01*
X409902Y478921D01*
X409810Y478988D01*
X413320Y482869D02*
X410129Y485103D01*
X413319Y482869D02*
X413400Y482809D01*
X413479Y482747D01*
X413556Y482681D01*
X413630Y482613D01*
X413701Y482542D01*
X413769Y482468D01*
X413835Y482391D01*
X413897Y482312D01*
X413957Y482231D01*
X414013Y482147D01*
X414066Y482062D01*
X414115Y481974D01*
X414161Y481885D01*
X414204Y481793D01*
X414243Y481700D01*
X414278Y481606D01*
X414310Y481511D01*
X414338Y481414D01*
X414362Y481316D01*
X414382Y481218D01*
X414399Y481118D01*
X414411Y481018D01*
X414420Y480918D01*
X414425Y480818D01*
X414426Y480717D01*
X414423Y480616D01*
X414416Y480516D01*
X414405Y480416D01*
X414391Y480316D01*
X414372Y480217D01*
X414350Y480119D01*
X414324Y480022D01*
X414294Y479925D01*
X414261Y479831D01*
X414224Y479737D01*
X414183Y479645D01*
X414138Y479554D01*
X414091Y479466D01*
X414039Y479379D01*
X413985Y479295D01*
X413927Y479212D01*
X413866Y479132D01*
X413802Y479054D01*
X413735Y478979D01*
X413666Y478906D01*
X413593Y478837D01*
X413518Y478770D01*
X413440Y478706D01*
X413360Y478645D01*
X413277Y478587D01*
X413193Y478533D01*
X413106Y478481D01*
X413018Y478434D01*
X412927Y478389D01*
X412835Y478348D01*
X412741Y478311D01*
X412647Y478278D01*
X412550Y478248D01*
X412453Y478222D01*
X412355Y478200D01*
X412256Y478181D01*
X412156Y478167D01*
X412056Y478156D01*
X411956Y478149D01*
X411855Y478146D01*
X411754Y478147D01*
X411654Y478152D01*
X411554Y478161D01*
X411454Y478173D01*
X411354Y478190D01*
X411256Y478210D01*
X411158Y478234D01*
X411061Y478262D01*
X410966Y478294D01*
X410872Y478329D01*
X410779Y478368D01*
X410687Y478411D01*
X410598Y478457D01*
X410510Y478506D01*
X410425Y478559D01*
X410341Y478615D01*
X408214Y480105D01*
X418960Y478919D02*
X415449Y467114D01*
X425341Y474452D01*
X422153Y462420D02*
X424812Y460558D01*
X424906Y460495D01*
X425002Y460435D01*
X425100Y460378D01*
X425200Y460325D01*
X425302Y460275D01*
X425406Y460229D01*
X425511Y460187D01*
X425617Y460148D01*
X425725Y460113D01*
X425834Y460082D01*
X425944Y460054D01*
X426055Y460031D01*
X426166Y460011D01*
X426278Y459995D01*
X426391Y459983D01*
X426504Y459975D01*
X426617Y459971D01*
X426731Y459971D01*
X426844Y459975D01*
X426957Y459983D01*
X427070Y459995D01*
X427182Y460011D01*
X427293Y460031D01*
X427404Y460054D01*
X427514Y460082D01*
X427623Y460113D01*
X427731Y460148D01*
X427837Y460187D01*
X427942Y460229D01*
X428046Y460275D01*
X428148Y460325D01*
X428248Y460378D01*
X428346Y460435D01*
X428442Y460495D01*
X428536Y460558D01*
X428627Y460625D01*
X428717Y460694D01*
X428804Y460767D01*
X428888Y460843D01*
X428969Y460922D01*
X429048Y461003D01*
X429124Y461087D01*
X429197Y461174D01*
X429266Y461264D01*
X429333Y461355D01*
X429396Y461449D01*
X429456Y461545D01*
X429513Y461643D01*
X429566Y461743D01*
X429616Y461845D01*
X429662Y461949D01*
X429704Y462054D01*
X429743Y462160D01*
X429778Y462268D01*
X429809Y462377D01*
X429837Y462487D01*
X429860Y462598D01*
X429880Y462709D01*
X429896Y462821D01*
X429908Y462934D01*
X429916Y463047D01*
X429920Y463160D01*
X429920Y463274D01*
X429916Y463387D01*
X429908Y463500D01*
X429896Y463613D01*
X429880Y463725D01*
X429860Y463836D01*
X429837Y463947D01*
X429809Y464057D01*
X429778Y464166D01*
X429743Y464274D01*
X429704Y464380D01*
X429662Y464485D01*
X429616Y464589D01*
X429566Y464691D01*
X429513Y464791D01*
X429456Y464889D01*
X429396Y464985D01*
X429333Y465079D01*
X429266Y465170D01*
X429197Y465260D01*
X429124Y465347D01*
X429048Y465431D01*
X428969Y465512D01*
X428888Y465591D01*
X428804Y465667D01*
X428717Y465740D01*
X428628Y465809D01*
X428536Y465876D01*
X432045Y469757D02*
X428855Y471991D01*
X432045Y469757D02*
X432126Y469697D01*
X432205Y469635D01*
X432282Y469569D01*
X432356Y469501D01*
X432427Y469430D01*
X432495Y469356D01*
X432561Y469279D01*
X432623Y469200D01*
X432683Y469119D01*
X432739Y469035D01*
X432792Y468950D01*
X432841Y468862D01*
X432887Y468773D01*
X432930Y468681D01*
X432969Y468588D01*
X433004Y468494D01*
X433036Y468399D01*
X433064Y468302D01*
X433088Y468204D01*
X433108Y468106D01*
X433125Y468006D01*
X433137Y467906D01*
X433146Y467806D01*
X433151Y467706D01*
X433152Y467605D01*
X433149Y467504D01*
X433142Y467404D01*
X433131Y467304D01*
X433117Y467204D01*
X433098Y467105D01*
X433076Y467007D01*
X433050Y466910D01*
X433020Y466813D01*
X432987Y466719D01*
X432950Y466625D01*
X432909Y466533D01*
X432864Y466442D01*
X432817Y466354D01*
X432765Y466267D01*
X432711Y466183D01*
X432653Y466100D01*
X432592Y466020D01*
X432528Y465942D01*
X432461Y465867D01*
X432392Y465794D01*
X432319Y465725D01*
X432244Y465658D01*
X432166Y465594D01*
X432086Y465533D01*
X432003Y465475D01*
X431919Y465421D01*
X431832Y465369D01*
X431744Y465322D01*
X431653Y465277D01*
X431561Y465236D01*
X431467Y465199D01*
X431373Y465166D01*
X431276Y465136D01*
X431179Y465110D01*
X431081Y465088D01*
X430982Y465069D01*
X430882Y465055D01*
X430782Y465044D01*
X430682Y465037D01*
X430581Y465034D01*
X430480Y465035D01*
X430380Y465040D01*
X430280Y465049D01*
X430180Y465061D01*
X430080Y465078D01*
X429982Y465098D01*
X429884Y465122D01*
X429787Y465150D01*
X429692Y465182D01*
X429598Y465217D01*
X429505Y465256D01*
X429413Y465299D01*
X429324Y465345D01*
X429236Y465394D01*
X429151Y465447D01*
X429067Y465503D01*
X426940Y466993D01*
X497242Y334770D02*
X497242Y331524D01*
X497242Y334770D02*
X497240Y334883D01*
X497234Y334996D01*
X497224Y335109D01*
X497210Y335222D01*
X497193Y335334D01*
X497171Y335445D01*
X497146Y335555D01*
X497116Y335665D01*
X497083Y335773D01*
X497046Y335880D01*
X497006Y335986D01*
X496961Y336090D01*
X496913Y336193D01*
X496862Y336294D01*
X496807Y336393D01*
X496749Y336490D01*
X496687Y336585D01*
X496622Y336678D01*
X496554Y336768D01*
X496483Y336856D01*
X496408Y336942D01*
X496331Y337025D01*
X496251Y337105D01*
X496168Y337182D01*
X496082Y337257D01*
X495994Y337328D01*
X495904Y337396D01*
X495811Y337461D01*
X495716Y337523D01*
X495619Y337581D01*
X495520Y337636D01*
X495419Y337687D01*
X495316Y337735D01*
X495212Y337780D01*
X495106Y337820D01*
X494999Y337857D01*
X494891Y337890D01*
X494781Y337920D01*
X494671Y337945D01*
X494560Y337967D01*
X494448Y337984D01*
X494335Y337998D01*
X494222Y338008D01*
X494109Y338014D01*
X493996Y338016D01*
X493883Y338014D01*
X493770Y338008D01*
X493657Y337998D01*
X493544Y337984D01*
X493432Y337967D01*
X493321Y337945D01*
X493211Y337920D01*
X493101Y337890D01*
X492993Y337857D01*
X492886Y337820D01*
X492780Y337780D01*
X492676Y337735D01*
X492573Y337687D01*
X492472Y337636D01*
X492373Y337581D01*
X492276Y337523D01*
X492181Y337461D01*
X492088Y337396D01*
X491998Y337328D01*
X491910Y337257D01*
X491824Y337182D01*
X491741Y337105D01*
X491661Y337025D01*
X491584Y336942D01*
X491509Y336856D01*
X491438Y336768D01*
X491370Y336678D01*
X491305Y336585D01*
X491243Y336490D01*
X491185Y336393D01*
X491130Y336294D01*
X491079Y336193D01*
X491031Y336090D01*
X490986Y335986D01*
X490946Y335880D01*
X490909Y335773D01*
X490876Y335665D01*
X490846Y335555D01*
X490821Y335445D01*
X490799Y335334D01*
X490782Y335222D01*
X490768Y335109D01*
X490758Y334996D01*
X490752Y334883D01*
X490750Y334770D01*
X485558Y335419D02*
X485558Y331524D01*
X485558Y335419D02*
X485560Y335520D01*
X485566Y335620D01*
X485576Y335720D01*
X485589Y335820D01*
X485607Y335919D01*
X485628Y336018D01*
X485653Y336115D01*
X485682Y336212D01*
X485715Y336307D01*
X485751Y336401D01*
X485791Y336493D01*
X485834Y336584D01*
X485881Y336673D01*
X485931Y336760D01*
X485985Y336846D01*
X486042Y336929D01*
X486102Y337009D01*
X486165Y337088D01*
X486232Y337164D01*
X486301Y337237D01*
X486373Y337307D01*
X486447Y337375D01*
X486524Y337440D01*
X486604Y337501D01*
X486686Y337560D01*
X486770Y337615D01*
X486856Y337667D01*
X486944Y337716D01*
X487034Y337761D01*
X487126Y337803D01*
X487219Y337841D01*
X487314Y337875D01*
X487409Y337906D01*
X487506Y337933D01*
X487604Y337956D01*
X487703Y337976D01*
X487803Y337991D01*
X487903Y338003D01*
X488003Y338011D01*
X488104Y338015D01*
X488204Y338015D01*
X488305Y338011D01*
X488405Y338003D01*
X488505Y337991D01*
X488605Y337976D01*
X488704Y337956D01*
X488802Y337933D01*
X488899Y337906D01*
X488994Y337875D01*
X489089Y337841D01*
X489182Y337803D01*
X489274Y337761D01*
X489364Y337716D01*
X489452Y337667D01*
X489538Y337615D01*
X489622Y337560D01*
X489704Y337501D01*
X489784Y337440D01*
X489861Y337375D01*
X489935Y337307D01*
X490007Y337237D01*
X490076Y337164D01*
X490143Y337088D01*
X490206Y337009D01*
X490266Y336929D01*
X490323Y336846D01*
X490377Y336760D01*
X490427Y336673D01*
X490474Y336584D01*
X490517Y336493D01*
X490557Y336401D01*
X490593Y336307D01*
X490626Y336212D01*
X490655Y336115D01*
X490680Y336018D01*
X490701Y335919D01*
X490719Y335820D01*
X490732Y335720D01*
X490742Y335620D01*
X490748Y335520D01*
X490750Y335419D01*
X490751Y335419D02*
X490751Y332823D01*
X485558Y342305D02*
X497242Y346200D01*
X485558Y350095D01*
X497242Y354384D02*
X497242Y357630D01*
X497240Y357743D01*
X497234Y357856D01*
X497224Y357969D01*
X497210Y358082D01*
X497193Y358194D01*
X497171Y358305D01*
X497146Y358415D01*
X497116Y358525D01*
X497083Y358633D01*
X497046Y358740D01*
X497006Y358846D01*
X496961Y358950D01*
X496913Y359053D01*
X496862Y359154D01*
X496807Y359253D01*
X496749Y359350D01*
X496687Y359445D01*
X496622Y359538D01*
X496554Y359628D01*
X496483Y359716D01*
X496408Y359802D01*
X496331Y359885D01*
X496251Y359965D01*
X496168Y360042D01*
X496082Y360117D01*
X495994Y360188D01*
X495904Y360256D01*
X495811Y360321D01*
X495716Y360383D01*
X495619Y360441D01*
X495520Y360496D01*
X495419Y360547D01*
X495316Y360595D01*
X495212Y360640D01*
X495106Y360680D01*
X494999Y360717D01*
X494891Y360750D01*
X494781Y360780D01*
X494671Y360805D01*
X494560Y360827D01*
X494448Y360844D01*
X494335Y360858D01*
X494222Y360868D01*
X494109Y360874D01*
X493996Y360876D01*
X493883Y360874D01*
X493770Y360868D01*
X493657Y360858D01*
X493544Y360844D01*
X493432Y360827D01*
X493321Y360805D01*
X493211Y360780D01*
X493101Y360750D01*
X492993Y360717D01*
X492886Y360680D01*
X492780Y360640D01*
X492676Y360595D01*
X492573Y360547D01*
X492472Y360496D01*
X492373Y360441D01*
X492276Y360383D01*
X492181Y360321D01*
X492088Y360256D01*
X491998Y360188D01*
X491910Y360117D01*
X491824Y360042D01*
X491741Y359965D01*
X491661Y359885D01*
X491584Y359802D01*
X491509Y359716D01*
X491438Y359628D01*
X491370Y359538D01*
X491305Y359445D01*
X491243Y359350D01*
X491185Y359253D01*
X491130Y359154D01*
X491079Y359053D01*
X491031Y358950D01*
X490986Y358846D01*
X490946Y358740D01*
X490909Y358633D01*
X490876Y358525D01*
X490846Y358415D01*
X490821Y358305D01*
X490799Y358194D01*
X490782Y358082D01*
X490768Y357969D01*
X490758Y357856D01*
X490752Y357743D01*
X490750Y357630D01*
X485558Y358279D02*
X485558Y354384D01*
X485558Y358279D02*
X485560Y358380D01*
X485566Y358480D01*
X485576Y358580D01*
X485589Y358680D01*
X485607Y358779D01*
X485628Y358878D01*
X485653Y358975D01*
X485682Y359072D01*
X485715Y359167D01*
X485751Y359261D01*
X485791Y359353D01*
X485834Y359444D01*
X485881Y359533D01*
X485931Y359620D01*
X485985Y359706D01*
X486042Y359789D01*
X486102Y359869D01*
X486165Y359948D01*
X486232Y360024D01*
X486301Y360097D01*
X486373Y360167D01*
X486447Y360235D01*
X486524Y360300D01*
X486604Y360361D01*
X486686Y360420D01*
X486770Y360475D01*
X486856Y360527D01*
X486944Y360576D01*
X487034Y360621D01*
X487126Y360663D01*
X487219Y360701D01*
X487314Y360735D01*
X487409Y360766D01*
X487506Y360793D01*
X487604Y360816D01*
X487703Y360836D01*
X487803Y360851D01*
X487903Y360863D01*
X488003Y360871D01*
X488104Y360875D01*
X488204Y360875D01*
X488305Y360871D01*
X488405Y360863D01*
X488505Y360851D01*
X488605Y360836D01*
X488704Y360816D01*
X488802Y360793D01*
X488899Y360766D01*
X488994Y360735D01*
X489089Y360701D01*
X489182Y360663D01*
X489274Y360621D01*
X489364Y360576D01*
X489452Y360527D01*
X489538Y360475D01*
X489622Y360420D01*
X489704Y360361D01*
X489784Y360300D01*
X489861Y360235D01*
X489935Y360167D01*
X490007Y360097D01*
X490076Y360024D01*
X490143Y359948D01*
X490206Y359869D01*
X490266Y359789D01*
X490323Y359706D01*
X490377Y359620D01*
X490427Y359533D01*
X490474Y359444D01*
X490517Y359353D01*
X490557Y359261D01*
X490593Y359167D01*
X490626Y359072D01*
X490655Y358975D01*
X490680Y358878D01*
X490701Y358779D01*
X490719Y358680D01*
X490732Y358580D01*
X490742Y358480D01*
X490748Y358380D01*
X490750Y358279D01*
X490751Y358279D02*
X490751Y355683D01*
X412788Y209159D02*
X410129Y207297D01*
X412788Y209158D02*
X412879Y209225D01*
X412969Y209294D01*
X413056Y209367D01*
X413140Y209443D01*
X413221Y209522D01*
X413300Y209603D01*
X413376Y209687D01*
X413449Y209774D01*
X413518Y209864D01*
X413585Y209955D01*
X413648Y210049D01*
X413708Y210145D01*
X413765Y210243D01*
X413818Y210343D01*
X413868Y210445D01*
X413914Y210549D01*
X413956Y210654D01*
X413995Y210760D01*
X414030Y210868D01*
X414061Y210977D01*
X414089Y211087D01*
X414112Y211198D01*
X414132Y211309D01*
X414148Y211421D01*
X414160Y211534D01*
X414168Y211647D01*
X414172Y211760D01*
X414172Y211874D01*
X414168Y211987D01*
X414160Y212100D01*
X414148Y212213D01*
X414132Y212325D01*
X414112Y212436D01*
X414089Y212547D01*
X414061Y212657D01*
X414030Y212766D01*
X413995Y212874D01*
X413956Y212980D01*
X413914Y213085D01*
X413868Y213189D01*
X413818Y213291D01*
X413765Y213391D01*
X413708Y213489D01*
X413648Y213585D01*
X413585Y213679D01*
X413518Y213770D01*
X413449Y213860D01*
X413376Y213947D01*
X413300Y214031D01*
X413221Y214112D01*
X413140Y214191D01*
X413056Y214267D01*
X412969Y214340D01*
X412880Y214409D01*
X412788Y214476D01*
X412694Y214539D01*
X412598Y214599D01*
X412500Y214656D01*
X412400Y214709D01*
X412298Y214759D01*
X412194Y214805D01*
X412089Y214847D01*
X411983Y214886D01*
X411875Y214921D01*
X411766Y214952D01*
X411656Y214980D01*
X411545Y215003D01*
X411434Y215023D01*
X411322Y215039D01*
X411209Y215051D01*
X411096Y215059D01*
X410983Y215063D01*
X410869Y215063D01*
X410756Y215059D01*
X410643Y215051D01*
X410530Y215039D01*
X410418Y215023D01*
X410307Y215003D01*
X410196Y214980D01*
X410086Y214952D01*
X409977Y214921D01*
X409869Y214886D01*
X409763Y214847D01*
X409658Y214805D01*
X409554Y214759D01*
X409452Y214709D01*
X409352Y214656D01*
X409254Y214599D01*
X409158Y214539D01*
X409064Y214476D01*
X406618Y219102D02*
X403428Y216868D01*
X406618Y219102D02*
X406702Y219158D01*
X406787Y219211D01*
X406875Y219260D01*
X406964Y219306D01*
X407056Y219349D01*
X407149Y219388D01*
X407243Y219423D01*
X407338Y219455D01*
X407435Y219483D01*
X407533Y219507D01*
X407631Y219527D01*
X407731Y219544D01*
X407831Y219556D01*
X407931Y219565D01*
X408032Y219570D01*
X408132Y219571D01*
X408233Y219568D01*
X408333Y219561D01*
X408433Y219550D01*
X408533Y219536D01*
X408632Y219517D01*
X408730Y219495D01*
X408827Y219469D01*
X408924Y219439D01*
X409019Y219406D01*
X409112Y219369D01*
X409204Y219328D01*
X409295Y219283D01*
X409383Y219236D01*
X409470Y219184D01*
X409554Y219130D01*
X409637Y219072D01*
X409717Y219011D01*
X409795Y218947D01*
X409870Y218880D01*
X409943Y218811D01*
X410012Y218738D01*
X410079Y218663D01*
X410143Y218585D01*
X410204Y218505D01*
X410262Y218422D01*
X410316Y218338D01*
X410368Y218251D01*
X410415Y218163D01*
X410460Y218072D01*
X410501Y217980D01*
X410538Y217886D01*
X410571Y217792D01*
X410601Y217695D01*
X410627Y217598D01*
X410649Y217500D01*
X410668Y217401D01*
X410682Y217301D01*
X410693Y217201D01*
X410700Y217101D01*
X410703Y217000D01*
X410702Y216900D01*
X410697Y216799D01*
X410688Y216699D01*
X410676Y216599D01*
X410659Y216499D01*
X410639Y216401D01*
X410615Y216303D01*
X410587Y216206D01*
X410555Y216111D01*
X410520Y216017D01*
X410481Y215924D01*
X410438Y215832D01*
X410392Y215743D01*
X410343Y215655D01*
X410290Y215570D01*
X410234Y215486D01*
X410174Y215405D01*
X410112Y215326D01*
X410046Y215249D01*
X409978Y215175D01*
X409907Y215104D01*
X409833Y215036D01*
X409756Y214970D01*
X409677Y214908D01*
X409596Y214848D01*
X407470Y213359D01*
X412259Y223052D02*
X422151Y215714D01*
X418639Y227519D01*
X428855Y220409D02*
X431514Y222270D01*
X431605Y222337D01*
X431695Y222406D01*
X431782Y222479D01*
X431866Y222555D01*
X431947Y222634D01*
X432026Y222715D01*
X432102Y222799D01*
X432175Y222886D01*
X432244Y222976D01*
X432311Y223067D01*
X432374Y223161D01*
X432434Y223257D01*
X432491Y223355D01*
X432544Y223455D01*
X432594Y223557D01*
X432640Y223661D01*
X432682Y223766D01*
X432721Y223872D01*
X432756Y223980D01*
X432787Y224089D01*
X432815Y224199D01*
X432838Y224310D01*
X432858Y224421D01*
X432874Y224533D01*
X432886Y224646D01*
X432894Y224759D01*
X432898Y224872D01*
X432898Y224986D01*
X432894Y225099D01*
X432886Y225212D01*
X432874Y225325D01*
X432858Y225437D01*
X432838Y225548D01*
X432815Y225659D01*
X432787Y225769D01*
X432756Y225878D01*
X432721Y225986D01*
X432682Y226092D01*
X432640Y226197D01*
X432594Y226301D01*
X432544Y226403D01*
X432491Y226503D01*
X432434Y226601D01*
X432374Y226697D01*
X432311Y226791D01*
X432244Y226882D01*
X432175Y226972D01*
X432102Y227059D01*
X432026Y227143D01*
X431947Y227224D01*
X431866Y227303D01*
X431782Y227379D01*
X431695Y227452D01*
X431606Y227521D01*
X431514Y227588D01*
X431420Y227651D01*
X431324Y227711D01*
X431226Y227768D01*
X431126Y227821D01*
X431024Y227871D01*
X430920Y227917D01*
X430815Y227959D01*
X430709Y227998D01*
X430601Y228033D01*
X430492Y228064D01*
X430382Y228092D01*
X430271Y228115D01*
X430160Y228135D01*
X430048Y228151D01*
X429935Y228163D01*
X429822Y228171D01*
X429709Y228175D01*
X429595Y228175D01*
X429482Y228171D01*
X429369Y228163D01*
X429256Y228151D01*
X429144Y228135D01*
X429033Y228115D01*
X428922Y228092D01*
X428812Y228064D01*
X428703Y228033D01*
X428595Y227998D01*
X428489Y227959D01*
X428384Y227917D01*
X428280Y227871D01*
X428178Y227821D01*
X428078Y227768D01*
X427980Y227711D01*
X427884Y227651D01*
X427790Y227588D01*
X425344Y232214D02*
X422153Y229980D01*
X425344Y232214D02*
X425428Y232270D01*
X425513Y232323D01*
X425601Y232372D01*
X425690Y232418D01*
X425782Y232461D01*
X425875Y232500D01*
X425969Y232535D01*
X426064Y232567D01*
X426161Y232595D01*
X426259Y232619D01*
X426357Y232639D01*
X426457Y232656D01*
X426557Y232668D01*
X426657Y232677D01*
X426758Y232682D01*
X426858Y232683D01*
X426959Y232680D01*
X427059Y232673D01*
X427159Y232662D01*
X427259Y232648D01*
X427358Y232629D01*
X427456Y232607D01*
X427553Y232581D01*
X427650Y232551D01*
X427745Y232518D01*
X427838Y232481D01*
X427930Y232440D01*
X428021Y232395D01*
X428109Y232348D01*
X428196Y232296D01*
X428280Y232242D01*
X428363Y232184D01*
X428443Y232123D01*
X428521Y232059D01*
X428596Y231992D01*
X428669Y231923D01*
X428738Y231850D01*
X428805Y231775D01*
X428869Y231697D01*
X428930Y231617D01*
X428988Y231534D01*
X429042Y231450D01*
X429094Y231363D01*
X429141Y231275D01*
X429186Y231184D01*
X429227Y231092D01*
X429264Y230998D01*
X429297Y230904D01*
X429327Y230807D01*
X429353Y230710D01*
X429375Y230612D01*
X429394Y230513D01*
X429408Y230413D01*
X429419Y230313D01*
X429426Y230213D01*
X429429Y230112D01*
X429428Y230012D01*
X429423Y229911D01*
X429414Y229811D01*
X429402Y229711D01*
X429385Y229611D01*
X429365Y229513D01*
X429341Y229415D01*
X429313Y229318D01*
X429281Y229223D01*
X429246Y229129D01*
X429207Y229036D01*
X429164Y228944D01*
X429118Y228855D01*
X429069Y228767D01*
X429016Y228682D01*
X428960Y228598D01*
X428900Y228517D01*
X428838Y228438D01*
X428772Y228361D01*
X428704Y228287D01*
X428633Y228216D01*
X428559Y228148D01*
X428482Y228082D01*
X428403Y228020D01*
X428322Y227960D01*
X426195Y226471D01*
X260886Y222270D02*
X258228Y224132D01*
X260886Y222270D02*
X260980Y222207D01*
X261076Y222147D01*
X261174Y222090D01*
X261274Y222037D01*
X261376Y221987D01*
X261480Y221941D01*
X261585Y221899D01*
X261691Y221860D01*
X261799Y221825D01*
X261908Y221794D01*
X262018Y221766D01*
X262129Y221743D01*
X262240Y221723D01*
X262352Y221707D01*
X262465Y221695D01*
X262578Y221687D01*
X262691Y221683D01*
X262805Y221683D01*
X262918Y221687D01*
X263031Y221695D01*
X263144Y221707D01*
X263256Y221723D01*
X263367Y221743D01*
X263478Y221766D01*
X263588Y221794D01*
X263697Y221825D01*
X263805Y221860D01*
X263911Y221899D01*
X264016Y221941D01*
X264120Y221987D01*
X264222Y222037D01*
X264322Y222090D01*
X264420Y222147D01*
X264516Y222207D01*
X264610Y222270D01*
X264701Y222337D01*
X264791Y222406D01*
X264878Y222479D01*
X264962Y222555D01*
X265043Y222634D01*
X265122Y222715D01*
X265198Y222799D01*
X265271Y222886D01*
X265340Y222976D01*
X265407Y223067D01*
X265470Y223161D01*
X265530Y223257D01*
X265587Y223355D01*
X265640Y223455D01*
X265690Y223557D01*
X265736Y223661D01*
X265778Y223766D01*
X265817Y223872D01*
X265852Y223980D01*
X265883Y224089D01*
X265911Y224199D01*
X265934Y224310D01*
X265954Y224421D01*
X265970Y224533D01*
X265982Y224646D01*
X265990Y224759D01*
X265994Y224872D01*
X265994Y224986D01*
X265990Y225099D01*
X265982Y225212D01*
X265970Y225325D01*
X265954Y225437D01*
X265934Y225548D01*
X265911Y225659D01*
X265883Y225769D01*
X265852Y225878D01*
X265817Y225986D01*
X265778Y226092D01*
X265736Y226197D01*
X265690Y226301D01*
X265640Y226403D01*
X265587Y226503D01*
X265530Y226601D01*
X265470Y226697D01*
X265407Y226791D01*
X265340Y226882D01*
X265271Y226972D01*
X265198Y227059D01*
X265122Y227143D01*
X265043Y227224D01*
X264962Y227303D01*
X264878Y227379D01*
X264791Y227452D01*
X264702Y227521D01*
X264610Y227588D01*
X268120Y231469D02*
X264929Y233703D01*
X268119Y231469D02*
X268200Y231409D01*
X268279Y231347D01*
X268356Y231281D01*
X268430Y231213D01*
X268501Y231142D01*
X268569Y231068D01*
X268635Y230991D01*
X268697Y230912D01*
X268757Y230831D01*
X268813Y230747D01*
X268866Y230662D01*
X268915Y230574D01*
X268961Y230485D01*
X269004Y230393D01*
X269043Y230300D01*
X269078Y230206D01*
X269110Y230111D01*
X269138Y230014D01*
X269162Y229916D01*
X269182Y229818D01*
X269199Y229718D01*
X269211Y229618D01*
X269220Y229518D01*
X269225Y229418D01*
X269226Y229317D01*
X269223Y229216D01*
X269216Y229116D01*
X269205Y229016D01*
X269191Y228916D01*
X269172Y228817D01*
X269150Y228719D01*
X269124Y228622D01*
X269094Y228525D01*
X269061Y228431D01*
X269024Y228337D01*
X268983Y228245D01*
X268938Y228154D01*
X268891Y228066D01*
X268839Y227979D01*
X268785Y227895D01*
X268727Y227812D01*
X268666Y227732D01*
X268602Y227654D01*
X268535Y227579D01*
X268466Y227506D01*
X268393Y227437D01*
X268318Y227370D01*
X268240Y227306D01*
X268160Y227245D01*
X268077Y227187D01*
X267993Y227133D01*
X267906Y227081D01*
X267818Y227034D01*
X267727Y226989D01*
X267635Y226948D01*
X267541Y226911D01*
X267447Y226878D01*
X267350Y226848D01*
X267253Y226822D01*
X267155Y226800D01*
X267056Y226781D01*
X266956Y226767D01*
X266856Y226756D01*
X266756Y226749D01*
X266655Y226746D01*
X266554Y226747D01*
X266454Y226752D01*
X266354Y226761D01*
X266254Y226773D01*
X266154Y226790D01*
X266056Y226810D01*
X265958Y226834D01*
X265861Y226862D01*
X265766Y226894D01*
X265672Y226929D01*
X265579Y226968D01*
X265487Y227011D01*
X265398Y227057D01*
X265310Y227106D01*
X265225Y227159D01*
X265141Y227215D01*
X263014Y228705D01*
X273760Y227519D02*
X270249Y215714D01*
X280141Y223052D01*
X276953Y211020D02*
X279612Y209158D01*
X279706Y209095D01*
X279802Y209035D01*
X279900Y208978D01*
X280000Y208925D01*
X280102Y208875D01*
X280206Y208829D01*
X280311Y208787D01*
X280417Y208748D01*
X280525Y208713D01*
X280634Y208682D01*
X280744Y208654D01*
X280855Y208631D01*
X280966Y208611D01*
X281078Y208595D01*
X281191Y208583D01*
X281304Y208575D01*
X281417Y208571D01*
X281531Y208571D01*
X281644Y208575D01*
X281757Y208583D01*
X281870Y208595D01*
X281982Y208611D01*
X282093Y208631D01*
X282204Y208654D01*
X282314Y208682D01*
X282423Y208713D01*
X282531Y208748D01*
X282637Y208787D01*
X282742Y208829D01*
X282846Y208875D01*
X282948Y208925D01*
X283048Y208978D01*
X283146Y209035D01*
X283242Y209095D01*
X283336Y209158D01*
X283427Y209225D01*
X283517Y209294D01*
X283604Y209367D01*
X283688Y209443D01*
X283769Y209522D01*
X283848Y209603D01*
X283924Y209687D01*
X283997Y209774D01*
X284066Y209864D01*
X284133Y209955D01*
X284196Y210049D01*
X284256Y210145D01*
X284313Y210243D01*
X284366Y210343D01*
X284416Y210445D01*
X284462Y210549D01*
X284504Y210654D01*
X284543Y210760D01*
X284578Y210868D01*
X284609Y210977D01*
X284637Y211087D01*
X284660Y211198D01*
X284680Y211309D01*
X284696Y211421D01*
X284708Y211534D01*
X284716Y211647D01*
X284720Y211760D01*
X284720Y211874D01*
X284716Y211987D01*
X284708Y212100D01*
X284696Y212213D01*
X284680Y212325D01*
X284660Y212436D01*
X284637Y212547D01*
X284609Y212657D01*
X284578Y212766D01*
X284543Y212874D01*
X284504Y212980D01*
X284462Y213085D01*
X284416Y213189D01*
X284366Y213291D01*
X284313Y213391D01*
X284256Y213489D01*
X284196Y213585D01*
X284133Y213679D01*
X284066Y213770D01*
X283997Y213860D01*
X283924Y213947D01*
X283848Y214031D01*
X283769Y214112D01*
X283688Y214191D01*
X283604Y214267D01*
X283517Y214340D01*
X283428Y214409D01*
X283336Y214476D01*
X286845Y218357D02*
X283655Y220591D01*
X286845Y218357D02*
X286926Y218297D01*
X287005Y218235D01*
X287082Y218169D01*
X287156Y218101D01*
X287227Y218030D01*
X287295Y217956D01*
X287361Y217879D01*
X287423Y217800D01*
X287483Y217719D01*
X287539Y217635D01*
X287592Y217550D01*
X287641Y217462D01*
X287687Y217373D01*
X287730Y217281D01*
X287769Y217188D01*
X287804Y217094D01*
X287836Y216999D01*
X287864Y216902D01*
X287888Y216804D01*
X287908Y216706D01*
X287925Y216606D01*
X287937Y216506D01*
X287946Y216406D01*
X287951Y216306D01*
X287952Y216205D01*
X287949Y216104D01*
X287942Y216004D01*
X287931Y215904D01*
X287917Y215804D01*
X287898Y215705D01*
X287876Y215607D01*
X287850Y215510D01*
X287820Y215413D01*
X287787Y215319D01*
X287750Y215225D01*
X287709Y215133D01*
X287664Y215042D01*
X287617Y214954D01*
X287565Y214867D01*
X287511Y214783D01*
X287453Y214700D01*
X287392Y214620D01*
X287328Y214542D01*
X287261Y214467D01*
X287192Y214394D01*
X287119Y214325D01*
X287044Y214258D01*
X286966Y214194D01*
X286886Y214133D01*
X286803Y214075D01*
X286719Y214021D01*
X286632Y213969D01*
X286544Y213922D01*
X286453Y213877D01*
X286361Y213836D01*
X286267Y213799D01*
X286173Y213766D01*
X286076Y213736D01*
X285979Y213710D01*
X285881Y213688D01*
X285782Y213669D01*
X285682Y213655D01*
X285582Y213644D01*
X285482Y213637D01*
X285381Y213634D01*
X285280Y213635D01*
X285180Y213640D01*
X285080Y213649D01*
X284980Y213661D01*
X284880Y213678D01*
X284782Y213698D01*
X284684Y213722D01*
X284587Y213750D01*
X284492Y213782D01*
X284398Y213817D01*
X284305Y213856D01*
X284213Y213899D01*
X284124Y213945D01*
X284036Y213994D01*
X283951Y214047D01*
X283867Y214103D01*
X281740Y215593D01*
X206842Y331524D02*
X206842Y334770D01*
X206840Y334883D01*
X206834Y334996D01*
X206824Y335109D01*
X206810Y335222D01*
X206793Y335334D01*
X206771Y335445D01*
X206746Y335555D01*
X206716Y335665D01*
X206683Y335773D01*
X206646Y335880D01*
X206606Y335986D01*
X206561Y336090D01*
X206513Y336193D01*
X206462Y336294D01*
X206407Y336393D01*
X206349Y336490D01*
X206287Y336585D01*
X206222Y336678D01*
X206154Y336768D01*
X206083Y336856D01*
X206008Y336942D01*
X205931Y337025D01*
X205851Y337105D01*
X205768Y337182D01*
X205682Y337257D01*
X205594Y337328D01*
X205504Y337396D01*
X205411Y337461D01*
X205316Y337523D01*
X205219Y337581D01*
X205120Y337636D01*
X205019Y337687D01*
X204916Y337735D01*
X204812Y337780D01*
X204706Y337820D01*
X204599Y337857D01*
X204491Y337890D01*
X204381Y337920D01*
X204271Y337945D01*
X204160Y337967D01*
X204048Y337984D01*
X203935Y337998D01*
X203822Y338008D01*
X203709Y338014D01*
X203596Y338016D01*
X203483Y338014D01*
X203370Y338008D01*
X203257Y337998D01*
X203144Y337984D01*
X203032Y337967D01*
X202921Y337945D01*
X202811Y337920D01*
X202701Y337890D01*
X202593Y337857D01*
X202486Y337820D01*
X202380Y337780D01*
X202276Y337735D01*
X202173Y337687D01*
X202072Y337636D01*
X201973Y337581D01*
X201876Y337523D01*
X201781Y337461D01*
X201688Y337396D01*
X201598Y337328D01*
X201510Y337257D01*
X201424Y337182D01*
X201341Y337105D01*
X201261Y337025D01*
X201184Y336942D01*
X201109Y336856D01*
X201038Y336768D01*
X200970Y336678D01*
X200905Y336585D01*
X200843Y336490D01*
X200785Y336393D01*
X200730Y336294D01*
X200679Y336193D01*
X200631Y336090D01*
X200586Y335986D01*
X200546Y335880D01*
X200509Y335773D01*
X200476Y335665D01*
X200446Y335555D01*
X200421Y335445D01*
X200399Y335334D01*
X200382Y335222D01*
X200368Y335109D01*
X200358Y334996D01*
X200352Y334883D01*
X200350Y334770D01*
X195158Y335419D02*
X195158Y331524D01*
X195158Y335419D02*
X195160Y335520D01*
X195166Y335620D01*
X195176Y335720D01*
X195189Y335820D01*
X195207Y335919D01*
X195228Y336018D01*
X195253Y336115D01*
X195282Y336212D01*
X195315Y336307D01*
X195351Y336401D01*
X195391Y336493D01*
X195434Y336584D01*
X195481Y336673D01*
X195531Y336760D01*
X195585Y336846D01*
X195642Y336929D01*
X195702Y337009D01*
X195765Y337088D01*
X195832Y337164D01*
X195901Y337237D01*
X195973Y337307D01*
X196047Y337375D01*
X196124Y337440D01*
X196204Y337501D01*
X196286Y337560D01*
X196370Y337615D01*
X196456Y337667D01*
X196544Y337716D01*
X196634Y337761D01*
X196726Y337803D01*
X196819Y337841D01*
X196914Y337875D01*
X197009Y337906D01*
X197106Y337933D01*
X197204Y337956D01*
X197303Y337976D01*
X197403Y337991D01*
X197503Y338003D01*
X197603Y338011D01*
X197704Y338015D01*
X197804Y338015D01*
X197905Y338011D01*
X198005Y338003D01*
X198105Y337991D01*
X198205Y337976D01*
X198304Y337956D01*
X198402Y337933D01*
X198499Y337906D01*
X198594Y337875D01*
X198689Y337841D01*
X198782Y337803D01*
X198874Y337761D01*
X198964Y337716D01*
X199052Y337667D01*
X199138Y337615D01*
X199222Y337560D01*
X199304Y337501D01*
X199384Y337440D01*
X199461Y337375D01*
X199535Y337307D01*
X199607Y337237D01*
X199676Y337164D01*
X199743Y337088D01*
X199806Y337009D01*
X199866Y336929D01*
X199923Y336846D01*
X199977Y336760D01*
X200027Y336673D01*
X200074Y336584D01*
X200117Y336493D01*
X200157Y336401D01*
X200193Y336307D01*
X200226Y336212D01*
X200255Y336115D01*
X200280Y336018D01*
X200301Y335919D01*
X200319Y335820D01*
X200332Y335720D01*
X200342Y335620D01*
X200348Y335520D01*
X200350Y335419D01*
X200351Y335419D02*
X200351Y332823D01*
X195158Y342305D02*
X206842Y346200D01*
X195158Y350095D01*
X206842Y354384D02*
X206842Y357630D01*
X206840Y357743D01*
X206834Y357856D01*
X206824Y357969D01*
X206810Y358082D01*
X206793Y358194D01*
X206771Y358305D01*
X206746Y358415D01*
X206716Y358525D01*
X206683Y358633D01*
X206646Y358740D01*
X206606Y358846D01*
X206561Y358950D01*
X206513Y359053D01*
X206462Y359154D01*
X206407Y359253D01*
X206349Y359350D01*
X206287Y359445D01*
X206222Y359538D01*
X206154Y359628D01*
X206083Y359716D01*
X206008Y359802D01*
X205931Y359885D01*
X205851Y359965D01*
X205768Y360042D01*
X205682Y360117D01*
X205594Y360188D01*
X205504Y360256D01*
X205411Y360321D01*
X205316Y360383D01*
X205219Y360441D01*
X205120Y360496D01*
X205019Y360547D01*
X204916Y360595D01*
X204812Y360640D01*
X204706Y360680D01*
X204599Y360717D01*
X204491Y360750D01*
X204381Y360780D01*
X204271Y360805D01*
X204160Y360827D01*
X204048Y360844D01*
X203935Y360858D01*
X203822Y360868D01*
X203709Y360874D01*
X203596Y360876D01*
X203483Y360874D01*
X203370Y360868D01*
X203257Y360858D01*
X203144Y360844D01*
X203032Y360827D01*
X202921Y360805D01*
X202811Y360780D01*
X202701Y360750D01*
X202593Y360717D01*
X202486Y360680D01*
X202380Y360640D01*
X202276Y360595D01*
X202173Y360547D01*
X202072Y360496D01*
X201973Y360441D01*
X201876Y360383D01*
X201781Y360321D01*
X201688Y360256D01*
X201598Y360188D01*
X201510Y360117D01*
X201424Y360042D01*
X201341Y359965D01*
X201261Y359885D01*
X201184Y359802D01*
X201109Y359716D01*
X201038Y359628D01*
X200970Y359538D01*
X200905Y359445D01*
X200843Y359350D01*
X200785Y359253D01*
X200730Y359154D01*
X200679Y359053D01*
X200631Y358950D01*
X200586Y358846D01*
X200546Y358740D01*
X200509Y358633D01*
X200476Y358525D01*
X200446Y358415D01*
X200421Y358305D01*
X200399Y358194D01*
X200382Y358082D01*
X200368Y357969D01*
X200358Y357856D01*
X200352Y357743D01*
X200350Y357630D01*
X195158Y358279D02*
X195158Y354384D01*
X195158Y358279D02*
X195160Y358380D01*
X195166Y358480D01*
X195176Y358580D01*
X195189Y358680D01*
X195207Y358779D01*
X195228Y358878D01*
X195253Y358975D01*
X195282Y359072D01*
X195315Y359167D01*
X195351Y359261D01*
X195391Y359353D01*
X195434Y359444D01*
X195481Y359533D01*
X195531Y359620D01*
X195585Y359706D01*
X195642Y359789D01*
X195702Y359869D01*
X195765Y359948D01*
X195832Y360024D01*
X195901Y360097D01*
X195973Y360167D01*
X196047Y360235D01*
X196124Y360300D01*
X196204Y360361D01*
X196286Y360420D01*
X196370Y360475D01*
X196456Y360527D01*
X196544Y360576D01*
X196634Y360621D01*
X196726Y360663D01*
X196819Y360701D01*
X196914Y360735D01*
X197009Y360766D01*
X197106Y360793D01*
X197204Y360816D01*
X197303Y360836D01*
X197403Y360851D01*
X197503Y360863D01*
X197603Y360871D01*
X197704Y360875D01*
X197804Y360875D01*
X197905Y360871D01*
X198005Y360863D01*
X198105Y360851D01*
X198205Y360836D01*
X198304Y360816D01*
X198402Y360793D01*
X198499Y360766D01*
X198594Y360735D01*
X198689Y360701D01*
X198782Y360663D01*
X198874Y360621D01*
X198964Y360576D01*
X199052Y360527D01*
X199138Y360475D01*
X199222Y360420D01*
X199304Y360361D01*
X199384Y360300D01*
X199461Y360235D01*
X199535Y360167D01*
X199607Y360097D01*
X199676Y360024D01*
X199743Y359948D01*
X199806Y359869D01*
X199866Y359789D01*
X199923Y359706D01*
X199977Y359620D01*
X200027Y359533D01*
X200074Y359444D01*
X200117Y359353D01*
X200157Y359261D01*
X200193Y359167D01*
X200226Y359072D01*
X200255Y358975D01*
X200280Y358878D01*
X200301Y358779D01*
X200319Y358680D01*
X200332Y358580D01*
X200342Y358480D01*
X200348Y358380D01*
X200350Y358279D01*
X200351Y358279D02*
X200351Y355683D01*
X264929Y458697D02*
X267588Y460559D01*
X267588Y460558D02*
X267679Y460625D01*
X267769Y460694D01*
X267856Y460767D01*
X267940Y460843D01*
X268021Y460922D01*
X268100Y461003D01*
X268176Y461087D01*
X268249Y461174D01*
X268318Y461264D01*
X268385Y461355D01*
X268448Y461449D01*
X268508Y461545D01*
X268565Y461643D01*
X268618Y461743D01*
X268668Y461845D01*
X268714Y461949D01*
X268756Y462054D01*
X268795Y462160D01*
X268830Y462268D01*
X268861Y462377D01*
X268889Y462487D01*
X268912Y462598D01*
X268932Y462709D01*
X268948Y462821D01*
X268960Y462934D01*
X268968Y463047D01*
X268972Y463160D01*
X268972Y463274D01*
X268968Y463387D01*
X268960Y463500D01*
X268948Y463613D01*
X268932Y463725D01*
X268912Y463836D01*
X268889Y463947D01*
X268861Y464057D01*
X268830Y464166D01*
X268795Y464274D01*
X268756Y464380D01*
X268714Y464485D01*
X268668Y464589D01*
X268618Y464691D01*
X268565Y464791D01*
X268508Y464889D01*
X268448Y464985D01*
X268385Y465079D01*
X268318Y465170D01*
X268249Y465260D01*
X268176Y465347D01*
X268100Y465431D01*
X268021Y465512D01*
X267940Y465591D01*
X267856Y465667D01*
X267769Y465740D01*
X267680Y465809D01*
X267588Y465876D01*
X267494Y465939D01*
X267398Y465999D01*
X267300Y466056D01*
X267200Y466109D01*
X267098Y466159D01*
X266994Y466205D01*
X266889Y466247D01*
X266783Y466286D01*
X266675Y466321D01*
X266566Y466352D01*
X266456Y466380D01*
X266345Y466403D01*
X266234Y466423D01*
X266122Y466439D01*
X266009Y466451D01*
X265896Y466459D01*
X265783Y466463D01*
X265669Y466463D01*
X265556Y466459D01*
X265443Y466451D01*
X265330Y466439D01*
X265218Y466423D01*
X265107Y466403D01*
X264996Y466380D01*
X264886Y466352D01*
X264777Y466321D01*
X264669Y466286D01*
X264563Y466247D01*
X264458Y466205D01*
X264354Y466159D01*
X264252Y466109D01*
X264152Y466056D01*
X264054Y465999D01*
X263958Y465939D01*
X263864Y465876D01*
X261418Y470502D02*
X258228Y468268D01*
X261418Y470502D02*
X261502Y470558D01*
X261587Y470611D01*
X261675Y470660D01*
X261764Y470706D01*
X261856Y470749D01*
X261949Y470788D01*
X262043Y470823D01*
X262138Y470855D01*
X262235Y470883D01*
X262333Y470907D01*
X262431Y470927D01*
X262531Y470944D01*
X262631Y470956D01*
X262731Y470965D01*
X262832Y470970D01*
X262932Y470971D01*
X263033Y470968D01*
X263133Y470961D01*
X263233Y470950D01*
X263333Y470936D01*
X263432Y470917D01*
X263530Y470895D01*
X263627Y470869D01*
X263724Y470839D01*
X263819Y470806D01*
X263912Y470769D01*
X264004Y470728D01*
X264095Y470683D01*
X264183Y470636D01*
X264270Y470584D01*
X264354Y470530D01*
X264437Y470472D01*
X264517Y470411D01*
X264595Y470347D01*
X264670Y470280D01*
X264743Y470211D01*
X264812Y470138D01*
X264879Y470063D01*
X264943Y469985D01*
X265004Y469905D01*
X265062Y469822D01*
X265116Y469738D01*
X265168Y469651D01*
X265215Y469563D01*
X265260Y469472D01*
X265301Y469380D01*
X265338Y469286D01*
X265371Y469192D01*
X265401Y469095D01*
X265427Y468998D01*
X265449Y468900D01*
X265468Y468801D01*
X265482Y468701D01*
X265493Y468601D01*
X265500Y468501D01*
X265503Y468400D01*
X265502Y468300D01*
X265497Y468199D01*
X265488Y468099D01*
X265476Y467999D01*
X265459Y467899D01*
X265439Y467801D01*
X265415Y467703D01*
X265387Y467606D01*
X265355Y467511D01*
X265320Y467417D01*
X265281Y467324D01*
X265238Y467232D01*
X265192Y467143D01*
X265143Y467055D01*
X265090Y466970D01*
X265034Y466886D01*
X264974Y466805D01*
X264912Y466726D01*
X264846Y466649D01*
X264778Y466575D01*
X264707Y466504D01*
X264633Y466436D01*
X264556Y466370D01*
X264477Y466308D01*
X264396Y466248D01*
X262270Y464759D01*
X267059Y474452D02*
X276951Y467114D01*
X273439Y478919D01*
X283655Y471809D02*
X286314Y473670D01*
X286405Y473737D01*
X286495Y473806D01*
X286582Y473879D01*
X286666Y473955D01*
X286747Y474034D01*
X286826Y474115D01*
X286902Y474199D01*
X286975Y474286D01*
X287044Y474376D01*
X287111Y474467D01*
X287174Y474561D01*
X287234Y474657D01*
X287291Y474755D01*
X287344Y474855D01*
X287394Y474957D01*
X287440Y475061D01*
X287482Y475166D01*
X287521Y475272D01*
X287556Y475380D01*
X287587Y475489D01*
X287615Y475599D01*
X287638Y475710D01*
X287658Y475821D01*
X287674Y475933D01*
X287686Y476046D01*
X287694Y476159D01*
X287698Y476272D01*
X287698Y476386D01*
X287694Y476499D01*
X287686Y476612D01*
X287674Y476725D01*
X287658Y476837D01*
X287638Y476948D01*
X287615Y477059D01*
X287587Y477169D01*
X287556Y477278D01*
X287521Y477386D01*
X287482Y477492D01*
X287440Y477597D01*
X287394Y477701D01*
X287344Y477803D01*
X287291Y477903D01*
X287234Y478001D01*
X287174Y478097D01*
X287111Y478191D01*
X287044Y478282D01*
X286975Y478372D01*
X286902Y478459D01*
X286826Y478543D01*
X286747Y478624D01*
X286666Y478703D01*
X286582Y478779D01*
X286495Y478852D01*
X286406Y478921D01*
X286314Y478988D01*
X286220Y479051D01*
X286124Y479111D01*
X286026Y479168D01*
X285926Y479221D01*
X285824Y479271D01*
X285720Y479317D01*
X285615Y479359D01*
X285509Y479398D01*
X285401Y479433D01*
X285292Y479464D01*
X285182Y479492D01*
X285071Y479515D01*
X284960Y479535D01*
X284848Y479551D01*
X284735Y479563D01*
X284622Y479571D01*
X284509Y479575D01*
X284395Y479575D01*
X284282Y479571D01*
X284169Y479563D01*
X284056Y479551D01*
X283944Y479535D01*
X283833Y479515D01*
X283722Y479492D01*
X283612Y479464D01*
X283503Y479433D01*
X283395Y479398D01*
X283289Y479359D01*
X283184Y479317D01*
X283080Y479271D01*
X282978Y479221D01*
X282878Y479168D01*
X282780Y479111D01*
X282684Y479051D01*
X282590Y478988D01*
X280144Y483614D02*
X276953Y481380D01*
X280144Y483614D02*
X280228Y483670D01*
X280313Y483723D01*
X280401Y483772D01*
X280490Y483818D01*
X280582Y483861D01*
X280675Y483900D01*
X280769Y483935D01*
X280864Y483967D01*
X280961Y483995D01*
X281059Y484019D01*
X281157Y484039D01*
X281257Y484056D01*
X281357Y484068D01*
X281457Y484077D01*
X281558Y484082D01*
X281658Y484083D01*
X281759Y484080D01*
X281859Y484073D01*
X281959Y484062D01*
X282059Y484048D01*
X282158Y484029D01*
X282256Y484007D01*
X282353Y483981D01*
X282450Y483951D01*
X282545Y483918D01*
X282638Y483881D01*
X282730Y483840D01*
X282821Y483795D01*
X282909Y483748D01*
X282996Y483696D01*
X283080Y483642D01*
X283163Y483584D01*
X283243Y483523D01*
X283321Y483459D01*
X283396Y483392D01*
X283469Y483323D01*
X283538Y483250D01*
X283605Y483175D01*
X283669Y483097D01*
X283730Y483017D01*
X283788Y482934D01*
X283842Y482850D01*
X283894Y482763D01*
X283941Y482675D01*
X283986Y482584D01*
X284027Y482492D01*
X284064Y482398D01*
X284097Y482304D01*
X284127Y482207D01*
X284153Y482110D01*
X284175Y482012D01*
X284194Y481913D01*
X284208Y481813D01*
X284219Y481713D01*
X284226Y481613D01*
X284229Y481512D01*
X284228Y481412D01*
X284223Y481311D01*
X284214Y481211D01*
X284202Y481111D01*
X284185Y481011D01*
X284165Y480913D01*
X284141Y480815D01*
X284113Y480718D01*
X284081Y480623D01*
X284046Y480529D01*
X284007Y480436D01*
X283964Y480344D01*
X283918Y480255D01*
X283869Y480167D01*
X283816Y480082D01*
X283760Y479998D01*
X283700Y479917D01*
X283638Y479838D01*
X283572Y479761D01*
X283504Y479687D01*
X283433Y479616D01*
X283359Y479548D01*
X283282Y479482D01*
X283203Y479420D01*
X283122Y479360D01*
X280995Y477871D01*
D11*
X428679Y416399D02*
X428679Y398619D01*
X428679Y416399D02*
X433618Y416399D01*
X433758Y416397D01*
X433897Y416391D01*
X434037Y416381D01*
X434176Y416367D01*
X434315Y416350D01*
X434453Y416328D01*
X434590Y416302D01*
X434727Y416273D01*
X434863Y416240D01*
X434997Y416203D01*
X435131Y416162D01*
X435263Y416117D01*
X435395Y416068D01*
X435524Y416016D01*
X435652Y415961D01*
X435779Y415901D01*
X435904Y415838D01*
X436027Y415772D01*
X436148Y415702D01*
X436267Y415629D01*
X436384Y415552D01*
X436498Y415472D01*
X436611Y415389D01*
X436721Y415303D01*
X436828Y415213D01*
X436933Y415121D01*
X437035Y415026D01*
X437135Y414928D01*
X437232Y414827D01*
X437326Y414723D01*
X437416Y414617D01*
X437504Y414508D01*
X437589Y414397D01*
X437670Y414283D01*
X437749Y414168D01*
X437824Y414050D01*
X437895Y413930D01*
X437963Y413807D01*
X438028Y413684D01*
X438089Y413558D01*
X438147Y413430D01*
X438201Y413302D01*
X438251Y413171D01*
X438298Y413039D01*
X438341Y412906D01*
X438380Y412772D01*
X438415Y412637D01*
X438446Y412501D01*
X438474Y412363D01*
X438497Y412226D01*
X438517Y412087D01*
X438533Y411948D01*
X438545Y411809D01*
X438553Y411670D01*
X438557Y411530D01*
X438557Y411390D01*
X438553Y411250D01*
X438545Y411111D01*
X438533Y410972D01*
X438517Y410833D01*
X438497Y410694D01*
X438474Y410557D01*
X438446Y410419D01*
X438415Y410283D01*
X438380Y410148D01*
X438341Y410014D01*
X438298Y409881D01*
X438251Y409749D01*
X438201Y409618D01*
X438147Y409490D01*
X438089Y409362D01*
X438028Y409236D01*
X437963Y409113D01*
X437895Y408991D01*
X437824Y408870D01*
X437749Y408752D01*
X437670Y408637D01*
X437589Y408523D01*
X437504Y408412D01*
X437416Y408303D01*
X437326Y408197D01*
X437232Y408093D01*
X437135Y407992D01*
X437035Y407894D01*
X436933Y407799D01*
X436828Y407707D01*
X436721Y407617D01*
X436611Y407531D01*
X436498Y407448D01*
X436384Y407368D01*
X436267Y407291D01*
X436148Y407218D01*
X436027Y407148D01*
X435904Y407082D01*
X435779Y407019D01*
X435652Y406959D01*
X435524Y406904D01*
X435395Y406852D01*
X435263Y406803D01*
X435131Y406758D01*
X434997Y406717D01*
X434863Y406680D01*
X434727Y406647D01*
X434590Y406618D01*
X434453Y406592D01*
X434315Y406570D01*
X434176Y406553D01*
X434037Y406539D01*
X433897Y406529D01*
X433758Y406523D01*
X433618Y406521D01*
X428679Y406521D01*
X444674Y412447D02*
X449613Y416399D01*
X449613Y398619D01*
X444674Y398619D02*
X454552Y398619D01*
X412653Y285082D02*
X412653Y267302D01*
X412653Y285082D02*
X417592Y285082D01*
X417732Y285080D01*
X417871Y285074D01*
X418011Y285064D01*
X418150Y285050D01*
X418289Y285033D01*
X418427Y285011D01*
X418564Y284985D01*
X418701Y284956D01*
X418837Y284923D01*
X418971Y284886D01*
X419105Y284845D01*
X419237Y284800D01*
X419369Y284751D01*
X419498Y284699D01*
X419626Y284644D01*
X419753Y284584D01*
X419878Y284521D01*
X420001Y284455D01*
X420122Y284385D01*
X420241Y284312D01*
X420358Y284235D01*
X420472Y284155D01*
X420585Y284072D01*
X420695Y283986D01*
X420802Y283896D01*
X420907Y283804D01*
X421009Y283709D01*
X421109Y283611D01*
X421206Y283510D01*
X421300Y283406D01*
X421390Y283300D01*
X421478Y283191D01*
X421563Y283080D01*
X421644Y282966D01*
X421723Y282851D01*
X421798Y282733D01*
X421869Y282613D01*
X421937Y282490D01*
X422002Y282367D01*
X422063Y282241D01*
X422121Y282113D01*
X422175Y281985D01*
X422225Y281854D01*
X422272Y281722D01*
X422315Y281589D01*
X422354Y281455D01*
X422389Y281320D01*
X422420Y281184D01*
X422448Y281046D01*
X422471Y280909D01*
X422491Y280770D01*
X422507Y280631D01*
X422519Y280492D01*
X422527Y280353D01*
X422531Y280213D01*
X422531Y280073D01*
X422527Y279933D01*
X422519Y279794D01*
X422507Y279655D01*
X422491Y279516D01*
X422471Y279377D01*
X422448Y279240D01*
X422420Y279102D01*
X422389Y278966D01*
X422354Y278831D01*
X422315Y278697D01*
X422272Y278564D01*
X422225Y278432D01*
X422175Y278301D01*
X422121Y278173D01*
X422063Y278045D01*
X422002Y277919D01*
X421937Y277796D01*
X421869Y277674D01*
X421798Y277553D01*
X421723Y277435D01*
X421644Y277320D01*
X421563Y277206D01*
X421478Y277095D01*
X421390Y276986D01*
X421300Y276880D01*
X421206Y276776D01*
X421109Y276675D01*
X421009Y276577D01*
X420907Y276482D01*
X420802Y276390D01*
X420695Y276300D01*
X420585Y276214D01*
X420472Y276131D01*
X420358Y276051D01*
X420241Y275974D01*
X420122Y275901D01*
X420001Y275831D01*
X419878Y275765D01*
X419753Y275702D01*
X419626Y275642D01*
X419498Y275587D01*
X419369Y275535D01*
X419237Y275486D01*
X419105Y275441D01*
X418971Y275400D01*
X418837Y275363D01*
X418701Y275330D01*
X418564Y275301D01*
X418427Y275275D01*
X418289Y275253D01*
X418150Y275236D01*
X418011Y275222D01*
X417871Y275212D01*
X417732Y275206D01*
X417592Y275204D01*
X412653Y275204D01*
X434081Y285082D02*
X434213Y285080D01*
X434344Y285074D01*
X434476Y285064D01*
X434607Y285051D01*
X434737Y285033D01*
X434867Y285012D01*
X434997Y284987D01*
X435125Y284958D01*
X435253Y284925D01*
X435379Y284888D01*
X435505Y284848D01*
X435629Y284804D01*
X435752Y284756D01*
X435873Y284705D01*
X435993Y284650D01*
X436111Y284592D01*
X436227Y284530D01*
X436341Y284464D01*
X436454Y284396D01*
X436564Y284324D01*
X436672Y284249D01*
X436778Y284170D01*
X436882Y284089D01*
X436983Y284004D01*
X437081Y283917D01*
X437177Y283826D01*
X437270Y283733D01*
X437361Y283637D01*
X437448Y283539D01*
X437533Y283438D01*
X437614Y283334D01*
X437693Y283228D01*
X437768Y283120D01*
X437840Y283010D01*
X437908Y282897D01*
X437974Y282783D01*
X438036Y282667D01*
X438094Y282549D01*
X438149Y282429D01*
X438200Y282308D01*
X438248Y282185D01*
X438292Y282061D01*
X438332Y281935D01*
X438369Y281809D01*
X438402Y281681D01*
X438431Y281553D01*
X438456Y281423D01*
X438477Y281293D01*
X438495Y281163D01*
X438508Y281032D01*
X438518Y280900D01*
X438524Y280769D01*
X438526Y280637D01*
X434081Y285082D02*
X433931Y285080D01*
X433782Y285074D01*
X433633Y285064D01*
X433484Y285051D01*
X433335Y285033D01*
X433187Y285012D01*
X433039Y284986D01*
X432893Y284957D01*
X432747Y284924D01*
X432602Y284887D01*
X432458Y284846D01*
X432315Y284802D01*
X432173Y284754D01*
X432033Y284702D01*
X431894Y284647D01*
X431756Y284588D01*
X431621Y284525D01*
X431486Y284459D01*
X431354Y284389D01*
X431224Y284316D01*
X431095Y284239D01*
X430968Y284159D01*
X430844Y284076D01*
X430722Y283990D01*
X430602Y283900D01*
X430485Y283807D01*
X430370Y283712D01*
X430257Y283613D01*
X430147Y283511D01*
X430040Y283407D01*
X429936Y283300D01*
X429834Y283190D01*
X429736Y283077D01*
X429640Y282962D01*
X429548Y282844D01*
X429458Y282724D01*
X429372Y282602D01*
X429289Y282478D01*
X429209Y282351D01*
X429133Y282223D01*
X429060Y282092D01*
X428990Y281959D01*
X428924Y281825D01*
X428862Y281689D01*
X428803Y281552D01*
X428747Y281413D01*
X428696Y281272D01*
X428648Y281131D01*
X437043Y277180D02*
X437139Y277273D01*
X437231Y277369D01*
X437321Y277468D01*
X437408Y277569D01*
X437493Y277672D01*
X437574Y277777D01*
X437652Y277885D01*
X437727Y277995D01*
X437800Y278107D01*
X437869Y278221D01*
X437935Y278337D01*
X437997Y278455D01*
X438056Y278574D01*
X438112Y278695D01*
X438165Y278818D01*
X438214Y278942D01*
X438259Y279067D01*
X438302Y279194D01*
X438340Y279321D01*
X438375Y279450D01*
X438406Y279579D01*
X438434Y279710D01*
X438458Y279841D01*
X438479Y279973D01*
X438495Y280105D01*
X438508Y280238D01*
X438518Y280371D01*
X438523Y280504D01*
X438525Y280637D01*
X437044Y277180D02*
X428648Y267302D01*
X438526Y267302D01*
X450896Y274216D02*
X450896Y280143D01*
X450896Y274216D02*
X454353Y269771D01*
X450896Y274216D02*
X447439Y269771D01*
X450896Y274216D02*
X456329Y276192D01*
X450896Y274216D02*
X445463Y276192D01*
X333264Y233490D02*
X333264Y215710D01*
X333264Y233490D02*
X338203Y233490D01*
X338343Y233488D01*
X338482Y233482D01*
X338622Y233472D01*
X338761Y233458D01*
X338900Y233441D01*
X339038Y233419D01*
X339175Y233393D01*
X339312Y233364D01*
X339448Y233331D01*
X339582Y233294D01*
X339716Y233253D01*
X339848Y233208D01*
X339980Y233159D01*
X340109Y233107D01*
X340237Y233052D01*
X340364Y232992D01*
X340489Y232929D01*
X340612Y232863D01*
X340733Y232793D01*
X340852Y232720D01*
X340969Y232643D01*
X341083Y232563D01*
X341196Y232480D01*
X341306Y232394D01*
X341413Y232304D01*
X341518Y232212D01*
X341620Y232117D01*
X341720Y232019D01*
X341817Y231918D01*
X341911Y231814D01*
X342001Y231708D01*
X342089Y231599D01*
X342174Y231488D01*
X342255Y231374D01*
X342334Y231259D01*
X342409Y231141D01*
X342480Y231021D01*
X342548Y230898D01*
X342613Y230775D01*
X342674Y230649D01*
X342732Y230521D01*
X342786Y230393D01*
X342836Y230262D01*
X342883Y230130D01*
X342926Y229997D01*
X342965Y229863D01*
X343000Y229728D01*
X343031Y229592D01*
X343059Y229454D01*
X343082Y229317D01*
X343102Y229178D01*
X343118Y229039D01*
X343130Y228900D01*
X343138Y228761D01*
X343142Y228621D01*
X343142Y228481D01*
X343138Y228341D01*
X343130Y228202D01*
X343118Y228063D01*
X343102Y227924D01*
X343082Y227785D01*
X343059Y227648D01*
X343031Y227510D01*
X343000Y227374D01*
X342965Y227239D01*
X342926Y227105D01*
X342883Y226972D01*
X342836Y226840D01*
X342786Y226709D01*
X342732Y226581D01*
X342674Y226453D01*
X342613Y226327D01*
X342548Y226204D01*
X342480Y226082D01*
X342409Y225961D01*
X342334Y225843D01*
X342255Y225728D01*
X342174Y225614D01*
X342089Y225503D01*
X342001Y225394D01*
X341911Y225288D01*
X341817Y225184D01*
X341720Y225083D01*
X341620Y224985D01*
X341518Y224890D01*
X341413Y224798D01*
X341306Y224708D01*
X341196Y224622D01*
X341083Y224539D01*
X340969Y224459D01*
X340852Y224382D01*
X340733Y224309D01*
X340612Y224239D01*
X340489Y224173D01*
X340364Y224110D01*
X340237Y224050D01*
X340109Y223995D01*
X339980Y223943D01*
X339848Y223894D01*
X339716Y223849D01*
X339582Y223808D01*
X339448Y223771D01*
X339312Y223738D01*
X339175Y223709D01*
X339038Y223683D01*
X338900Y223661D01*
X338761Y223644D01*
X338622Y223630D01*
X338482Y223620D01*
X338343Y223614D01*
X338203Y223612D01*
X333264Y223612D01*
X349259Y215710D02*
X354198Y215710D01*
X354338Y215712D01*
X354477Y215718D01*
X354617Y215728D01*
X354756Y215742D01*
X354895Y215759D01*
X355033Y215781D01*
X355170Y215807D01*
X355307Y215836D01*
X355443Y215869D01*
X355577Y215906D01*
X355711Y215947D01*
X355843Y215992D01*
X355975Y216041D01*
X356104Y216093D01*
X356232Y216148D01*
X356359Y216208D01*
X356484Y216271D01*
X356607Y216337D01*
X356728Y216407D01*
X356847Y216480D01*
X356964Y216557D01*
X357078Y216637D01*
X357191Y216720D01*
X357301Y216806D01*
X357408Y216896D01*
X357513Y216988D01*
X357615Y217083D01*
X357715Y217181D01*
X357812Y217282D01*
X357906Y217386D01*
X357996Y217492D01*
X358084Y217601D01*
X358169Y217712D01*
X358250Y217826D01*
X358329Y217941D01*
X358404Y218059D01*
X358475Y218180D01*
X358543Y218302D01*
X358608Y218425D01*
X358669Y218551D01*
X358727Y218679D01*
X358781Y218807D01*
X358831Y218938D01*
X358878Y219070D01*
X358921Y219203D01*
X358960Y219337D01*
X358995Y219472D01*
X359026Y219608D01*
X359054Y219746D01*
X359077Y219883D01*
X359097Y220022D01*
X359113Y220161D01*
X359125Y220300D01*
X359133Y220439D01*
X359137Y220579D01*
X359137Y220719D01*
X359133Y220859D01*
X359125Y220998D01*
X359113Y221137D01*
X359097Y221276D01*
X359077Y221415D01*
X359054Y221552D01*
X359026Y221690D01*
X358995Y221826D01*
X358960Y221961D01*
X358921Y222095D01*
X358878Y222228D01*
X358831Y222360D01*
X358781Y222491D01*
X358727Y222619D01*
X358669Y222747D01*
X358608Y222873D01*
X358543Y222996D01*
X358475Y223119D01*
X358404Y223239D01*
X358329Y223357D01*
X358250Y223472D01*
X358169Y223586D01*
X358084Y223697D01*
X357996Y223806D01*
X357906Y223912D01*
X357812Y224016D01*
X357715Y224117D01*
X357615Y224215D01*
X357513Y224310D01*
X357408Y224402D01*
X357301Y224492D01*
X357191Y224578D01*
X357078Y224661D01*
X356964Y224741D01*
X356847Y224818D01*
X356728Y224891D01*
X356607Y224961D01*
X356484Y225027D01*
X356359Y225090D01*
X356232Y225150D01*
X356104Y225205D01*
X355975Y225257D01*
X355843Y225306D01*
X355711Y225351D01*
X355577Y225392D01*
X355443Y225429D01*
X355307Y225462D01*
X355170Y225491D01*
X355033Y225517D01*
X354895Y225539D01*
X354756Y225556D01*
X354617Y225570D01*
X354477Y225580D01*
X354338Y225586D01*
X354198Y225588D01*
X355185Y233490D02*
X349259Y233490D01*
X355185Y233490D02*
X355309Y233488D01*
X355433Y233482D01*
X355557Y233472D01*
X355680Y233459D01*
X355803Y233441D01*
X355925Y233420D01*
X356047Y233395D01*
X356168Y233366D01*
X356287Y233333D01*
X356406Y233297D01*
X356523Y233256D01*
X356639Y233213D01*
X356754Y233165D01*
X356867Y233114D01*
X356979Y233059D01*
X357088Y233001D01*
X357196Y232940D01*
X357302Y232875D01*
X357406Y232807D01*
X357507Y232735D01*
X357607Y232661D01*
X357703Y232583D01*
X357798Y232503D01*
X357890Y232419D01*
X357979Y232333D01*
X358065Y232244D01*
X358149Y232152D01*
X358229Y232057D01*
X358307Y231961D01*
X358381Y231861D01*
X358453Y231760D01*
X358521Y231656D01*
X358586Y231550D01*
X358647Y231442D01*
X358705Y231333D01*
X358760Y231221D01*
X358811Y231108D01*
X358859Y230993D01*
X358902Y230877D01*
X358943Y230760D01*
X358979Y230641D01*
X359012Y230522D01*
X359041Y230401D01*
X359066Y230279D01*
X359087Y230157D01*
X359105Y230034D01*
X359118Y229911D01*
X359128Y229787D01*
X359134Y229663D01*
X359136Y229539D01*
X359134Y229415D01*
X359128Y229291D01*
X359118Y229167D01*
X359105Y229044D01*
X359087Y228921D01*
X359066Y228799D01*
X359041Y228677D01*
X359012Y228556D01*
X358979Y228437D01*
X358943Y228318D01*
X358902Y228201D01*
X358859Y228085D01*
X358811Y227970D01*
X358760Y227857D01*
X358705Y227745D01*
X358647Y227636D01*
X358586Y227528D01*
X358521Y227422D01*
X358453Y227318D01*
X358381Y227217D01*
X358307Y227117D01*
X358229Y227021D01*
X358149Y226926D01*
X358065Y226834D01*
X357979Y226745D01*
X357890Y226659D01*
X357798Y226575D01*
X357703Y226495D01*
X357607Y226417D01*
X357507Y226343D01*
X357406Y226271D01*
X357302Y226203D01*
X357196Y226138D01*
X357088Y226077D01*
X356979Y226019D01*
X356867Y225964D01*
X356754Y225913D01*
X356639Y225865D01*
X356523Y225822D01*
X356406Y225781D01*
X356287Y225745D01*
X356168Y225712D01*
X356047Y225683D01*
X355925Y225658D01*
X355803Y225637D01*
X355680Y225619D01*
X355557Y225606D01*
X355433Y225596D01*
X355309Y225590D01*
X355185Y225588D01*
X351234Y225588D01*
X235956Y264775D02*
X235956Y282555D01*
X240895Y282555D01*
X241035Y282553D01*
X241174Y282547D01*
X241314Y282537D01*
X241453Y282523D01*
X241592Y282506D01*
X241730Y282484D01*
X241867Y282458D01*
X242004Y282429D01*
X242140Y282396D01*
X242274Y282359D01*
X242408Y282318D01*
X242540Y282273D01*
X242672Y282224D01*
X242801Y282172D01*
X242929Y282117D01*
X243056Y282057D01*
X243181Y281994D01*
X243304Y281928D01*
X243425Y281858D01*
X243544Y281785D01*
X243661Y281708D01*
X243775Y281628D01*
X243888Y281545D01*
X243998Y281459D01*
X244105Y281369D01*
X244210Y281277D01*
X244312Y281182D01*
X244412Y281084D01*
X244509Y280983D01*
X244603Y280879D01*
X244693Y280773D01*
X244781Y280664D01*
X244866Y280553D01*
X244947Y280439D01*
X245026Y280324D01*
X245101Y280206D01*
X245172Y280086D01*
X245240Y279963D01*
X245305Y279840D01*
X245366Y279714D01*
X245424Y279586D01*
X245478Y279458D01*
X245528Y279327D01*
X245575Y279195D01*
X245618Y279062D01*
X245657Y278928D01*
X245692Y278793D01*
X245723Y278657D01*
X245751Y278519D01*
X245774Y278382D01*
X245794Y278243D01*
X245810Y278104D01*
X245822Y277965D01*
X245830Y277826D01*
X245834Y277686D01*
X245834Y277546D01*
X245830Y277406D01*
X245822Y277267D01*
X245810Y277128D01*
X245794Y276989D01*
X245774Y276850D01*
X245751Y276713D01*
X245723Y276575D01*
X245692Y276439D01*
X245657Y276304D01*
X245618Y276170D01*
X245575Y276037D01*
X245528Y275905D01*
X245478Y275774D01*
X245424Y275646D01*
X245366Y275518D01*
X245305Y275392D01*
X245240Y275269D01*
X245172Y275147D01*
X245101Y275026D01*
X245026Y274908D01*
X244947Y274793D01*
X244866Y274679D01*
X244781Y274568D01*
X244693Y274459D01*
X244603Y274353D01*
X244509Y274249D01*
X244412Y274148D01*
X244312Y274050D01*
X244210Y273955D01*
X244105Y273863D01*
X243998Y273773D01*
X243888Y273687D01*
X243775Y273604D01*
X243661Y273524D01*
X243544Y273447D01*
X243425Y273374D01*
X243304Y273304D01*
X243181Y273238D01*
X243056Y273175D01*
X242929Y273115D01*
X242801Y273060D01*
X242672Y273008D01*
X242540Y272959D01*
X242408Y272914D01*
X242274Y272873D01*
X242140Y272836D01*
X242004Y272803D01*
X241867Y272774D01*
X241730Y272748D01*
X241592Y272726D01*
X241453Y272709D01*
X241314Y272695D01*
X241174Y272685D01*
X241035Y272679D01*
X240895Y272677D01*
X235956Y272677D01*
X251951Y268726D02*
X255902Y282555D01*
X251951Y268726D02*
X261829Y268726D01*
X258865Y272677D02*
X258865Y264775D01*
X234419Y395698D02*
X234419Y413478D01*
X239358Y413478D01*
X239498Y413476D01*
X239637Y413470D01*
X239777Y413460D01*
X239916Y413446D01*
X240055Y413429D01*
X240193Y413407D01*
X240330Y413381D01*
X240467Y413352D01*
X240603Y413319D01*
X240737Y413282D01*
X240871Y413241D01*
X241003Y413196D01*
X241135Y413147D01*
X241264Y413095D01*
X241392Y413040D01*
X241519Y412980D01*
X241644Y412917D01*
X241767Y412851D01*
X241888Y412781D01*
X242007Y412708D01*
X242124Y412631D01*
X242238Y412551D01*
X242351Y412468D01*
X242461Y412382D01*
X242568Y412292D01*
X242673Y412200D01*
X242775Y412105D01*
X242875Y412007D01*
X242972Y411906D01*
X243066Y411802D01*
X243156Y411696D01*
X243244Y411587D01*
X243329Y411476D01*
X243410Y411362D01*
X243489Y411247D01*
X243564Y411129D01*
X243635Y411009D01*
X243703Y410886D01*
X243768Y410763D01*
X243829Y410637D01*
X243887Y410509D01*
X243941Y410381D01*
X243991Y410250D01*
X244038Y410118D01*
X244081Y409985D01*
X244120Y409851D01*
X244155Y409716D01*
X244186Y409580D01*
X244214Y409442D01*
X244237Y409305D01*
X244257Y409166D01*
X244273Y409027D01*
X244285Y408888D01*
X244293Y408749D01*
X244297Y408609D01*
X244297Y408469D01*
X244293Y408329D01*
X244285Y408190D01*
X244273Y408051D01*
X244257Y407912D01*
X244237Y407773D01*
X244214Y407636D01*
X244186Y407498D01*
X244155Y407362D01*
X244120Y407227D01*
X244081Y407093D01*
X244038Y406960D01*
X243991Y406828D01*
X243941Y406697D01*
X243887Y406569D01*
X243829Y406441D01*
X243768Y406315D01*
X243703Y406192D01*
X243635Y406070D01*
X243564Y405949D01*
X243489Y405831D01*
X243410Y405716D01*
X243329Y405602D01*
X243244Y405491D01*
X243156Y405382D01*
X243066Y405276D01*
X242972Y405172D01*
X242875Y405071D01*
X242775Y404973D01*
X242673Y404878D01*
X242568Y404786D01*
X242461Y404696D01*
X242351Y404610D01*
X242238Y404527D01*
X242124Y404447D01*
X242007Y404370D01*
X241888Y404297D01*
X241767Y404227D01*
X241644Y404161D01*
X241519Y404098D01*
X241392Y404038D01*
X241264Y403983D01*
X241135Y403931D01*
X241003Y403882D01*
X240871Y403837D01*
X240737Y403796D01*
X240603Y403759D01*
X240467Y403726D01*
X240330Y403697D01*
X240193Y403671D01*
X240055Y403649D01*
X239916Y403632D01*
X239777Y403618D01*
X239637Y403608D01*
X239498Y403602D01*
X239358Y403600D01*
X234419Y403600D01*
X250414Y395698D02*
X256341Y395698D01*
X256465Y395700D01*
X256589Y395706D01*
X256713Y395716D01*
X256836Y395729D01*
X256959Y395747D01*
X257081Y395768D01*
X257203Y395793D01*
X257324Y395822D01*
X257443Y395855D01*
X257562Y395891D01*
X257679Y395932D01*
X257795Y395975D01*
X257910Y396023D01*
X258023Y396074D01*
X258135Y396129D01*
X258244Y396187D01*
X258352Y396248D01*
X258458Y396313D01*
X258562Y396381D01*
X258663Y396453D01*
X258763Y396527D01*
X258859Y396605D01*
X258954Y396685D01*
X259046Y396769D01*
X259135Y396855D01*
X259221Y396944D01*
X259305Y397036D01*
X259385Y397131D01*
X259463Y397227D01*
X259537Y397327D01*
X259609Y397428D01*
X259677Y397532D01*
X259742Y397638D01*
X259803Y397746D01*
X259861Y397855D01*
X259916Y397967D01*
X259967Y398080D01*
X260015Y398195D01*
X260058Y398311D01*
X260099Y398428D01*
X260135Y398547D01*
X260168Y398666D01*
X260197Y398787D01*
X260222Y398909D01*
X260243Y399031D01*
X260261Y399154D01*
X260274Y399277D01*
X260284Y399401D01*
X260290Y399525D01*
X260292Y399649D01*
X260292Y401624D01*
X260290Y401748D01*
X260284Y401872D01*
X260274Y401996D01*
X260261Y402119D01*
X260243Y402242D01*
X260222Y402364D01*
X260197Y402486D01*
X260168Y402607D01*
X260135Y402726D01*
X260099Y402845D01*
X260058Y402962D01*
X260015Y403078D01*
X259967Y403193D01*
X259916Y403306D01*
X259861Y403418D01*
X259803Y403527D01*
X259742Y403635D01*
X259677Y403741D01*
X259609Y403845D01*
X259537Y403946D01*
X259463Y404046D01*
X259385Y404142D01*
X259305Y404237D01*
X259221Y404329D01*
X259135Y404418D01*
X259046Y404504D01*
X258954Y404588D01*
X258859Y404668D01*
X258763Y404746D01*
X258663Y404820D01*
X258562Y404892D01*
X258458Y404960D01*
X258352Y405025D01*
X258244Y405086D01*
X258135Y405144D01*
X258023Y405199D01*
X257910Y405250D01*
X257795Y405298D01*
X257679Y405341D01*
X257562Y405382D01*
X257443Y405418D01*
X257324Y405451D01*
X257203Y405480D01*
X257081Y405505D01*
X256959Y405526D01*
X256836Y405544D01*
X256713Y405557D01*
X256589Y405567D01*
X256465Y405573D01*
X256341Y405575D01*
X250414Y405575D01*
X250414Y413478D01*
X260292Y413478D01*
X333264Y458910D02*
X333264Y476690D01*
X338203Y476690D01*
X338343Y476688D01*
X338482Y476682D01*
X338622Y476672D01*
X338761Y476658D01*
X338900Y476641D01*
X339038Y476619D01*
X339175Y476593D01*
X339312Y476564D01*
X339448Y476531D01*
X339582Y476494D01*
X339716Y476453D01*
X339848Y476408D01*
X339980Y476359D01*
X340109Y476307D01*
X340237Y476252D01*
X340364Y476192D01*
X340489Y476129D01*
X340612Y476063D01*
X340733Y475993D01*
X340852Y475920D01*
X340969Y475843D01*
X341083Y475763D01*
X341196Y475680D01*
X341306Y475594D01*
X341413Y475504D01*
X341518Y475412D01*
X341620Y475317D01*
X341720Y475219D01*
X341817Y475118D01*
X341911Y475014D01*
X342001Y474908D01*
X342089Y474799D01*
X342174Y474688D01*
X342255Y474574D01*
X342334Y474459D01*
X342409Y474341D01*
X342480Y474221D01*
X342548Y474098D01*
X342613Y473975D01*
X342674Y473849D01*
X342732Y473721D01*
X342786Y473593D01*
X342836Y473462D01*
X342883Y473330D01*
X342926Y473197D01*
X342965Y473063D01*
X343000Y472928D01*
X343031Y472792D01*
X343059Y472654D01*
X343082Y472517D01*
X343102Y472378D01*
X343118Y472239D01*
X343130Y472100D01*
X343138Y471961D01*
X343142Y471821D01*
X343142Y471681D01*
X343138Y471541D01*
X343130Y471402D01*
X343118Y471263D01*
X343102Y471124D01*
X343082Y470985D01*
X343059Y470848D01*
X343031Y470710D01*
X343000Y470574D01*
X342965Y470439D01*
X342926Y470305D01*
X342883Y470172D01*
X342836Y470040D01*
X342786Y469909D01*
X342732Y469781D01*
X342674Y469653D01*
X342613Y469527D01*
X342548Y469404D01*
X342480Y469282D01*
X342409Y469161D01*
X342334Y469043D01*
X342255Y468928D01*
X342174Y468814D01*
X342089Y468703D01*
X342001Y468594D01*
X341911Y468488D01*
X341817Y468384D01*
X341720Y468283D01*
X341620Y468185D01*
X341518Y468090D01*
X341413Y467998D01*
X341306Y467908D01*
X341196Y467822D01*
X341083Y467739D01*
X340969Y467659D01*
X340852Y467582D01*
X340733Y467509D01*
X340612Y467439D01*
X340489Y467373D01*
X340364Y467310D01*
X340237Y467250D01*
X340109Y467195D01*
X339980Y467143D01*
X339848Y467094D01*
X339716Y467049D01*
X339582Y467008D01*
X339448Y466971D01*
X339312Y466938D01*
X339175Y466909D01*
X339038Y466883D01*
X338900Y466861D01*
X338761Y466844D01*
X338622Y466830D01*
X338482Y466820D01*
X338343Y466814D01*
X338203Y466812D01*
X333264Y466812D01*
X349259Y468788D02*
X355185Y468788D01*
X355309Y468786D01*
X355433Y468780D01*
X355557Y468770D01*
X355680Y468757D01*
X355803Y468739D01*
X355925Y468718D01*
X356047Y468693D01*
X356168Y468664D01*
X356287Y468631D01*
X356406Y468595D01*
X356523Y468554D01*
X356639Y468511D01*
X356754Y468463D01*
X356867Y468412D01*
X356979Y468357D01*
X357088Y468299D01*
X357196Y468238D01*
X357302Y468173D01*
X357406Y468105D01*
X357507Y468033D01*
X357607Y467959D01*
X357703Y467881D01*
X357798Y467801D01*
X357890Y467717D01*
X357979Y467631D01*
X358065Y467542D01*
X358149Y467450D01*
X358229Y467355D01*
X358307Y467259D01*
X358381Y467159D01*
X358453Y467058D01*
X358521Y466954D01*
X358586Y466848D01*
X358647Y466740D01*
X358705Y466631D01*
X358760Y466519D01*
X358811Y466406D01*
X358859Y466291D01*
X358902Y466175D01*
X358943Y466058D01*
X358979Y465939D01*
X359012Y465820D01*
X359041Y465699D01*
X359066Y465577D01*
X359087Y465455D01*
X359105Y465332D01*
X359118Y465209D01*
X359128Y465085D01*
X359134Y464961D01*
X359136Y464837D01*
X359136Y463849D01*
X359137Y463849D02*
X359135Y463709D01*
X359129Y463570D01*
X359119Y463430D01*
X359105Y463291D01*
X359088Y463152D01*
X359066Y463014D01*
X359040Y462877D01*
X359011Y462740D01*
X358978Y462604D01*
X358941Y462470D01*
X358900Y462336D01*
X358855Y462204D01*
X358806Y462072D01*
X358754Y461943D01*
X358699Y461815D01*
X358639Y461688D01*
X358576Y461563D01*
X358510Y461440D01*
X358440Y461319D01*
X358367Y461200D01*
X358290Y461083D01*
X358210Y460969D01*
X358127Y460856D01*
X358041Y460746D01*
X357951Y460639D01*
X357859Y460534D01*
X357764Y460432D01*
X357666Y460332D01*
X357565Y460235D01*
X357461Y460141D01*
X357355Y460051D01*
X357246Y459963D01*
X357135Y459878D01*
X357021Y459797D01*
X356906Y459718D01*
X356788Y459643D01*
X356668Y459572D01*
X356545Y459504D01*
X356422Y459439D01*
X356296Y459378D01*
X356168Y459320D01*
X356040Y459266D01*
X355909Y459216D01*
X355777Y459169D01*
X355644Y459126D01*
X355510Y459087D01*
X355375Y459052D01*
X355239Y459021D01*
X355101Y458993D01*
X354964Y458970D01*
X354825Y458950D01*
X354686Y458934D01*
X354547Y458922D01*
X354408Y458914D01*
X354268Y458910D01*
X354128Y458910D01*
X353988Y458914D01*
X353849Y458922D01*
X353710Y458934D01*
X353571Y458950D01*
X353432Y458970D01*
X353295Y458993D01*
X353157Y459021D01*
X353021Y459052D01*
X352886Y459087D01*
X352752Y459126D01*
X352619Y459169D01*
X352487Y459216D01*
X352356Y459266D01*
X352228Y459320D01*
X352100Y459378D01*
X351974Y459439D01*
X351851Y459504D01*
X351729Y459572D01*
X351608Y459643D01*
X351490Y459718D01*
X351375Y459797D01*
X351261Y459878D01*
X351150Y459963D01*
X351041Y460051D01*
X350935Y460141D01*
X350831Y460235D01*
X350730Y460332D01*
X350632Y460432D01*
X350537Y460534D01*
X350445Y460639D01*
X350355Y460746D01*
X350269Y460856D01*
X350186Y460969D01*
X350106Y461083D01*
X350029Y461200D01*
X349956Y461319D01*
X349886Y461440D01*
X349820Y461563D01*
X349757Y461688D01*
X349697Y461815D01*
X349642Y461943D01*
X349590Y462072D01*
X349541Y462204D01*
X349496Y462336D01*
X349455Y462470D01*
X349418Y462604D01*
X349385Y462740D01*
X349356Y462877D01*
X349330Y463014D01*
X349308Y463152D01*
X349291Y463291D01*
X349277Y463430D01*
X349267Y463570D01*
X349261Y463709D01*
X349259Y463849D01*
X349259Y468788D01*
X349261Y468982D01*
X349269Y469176D01*
X349280Y469369D01*
X349297Y469563D01*
X349318Y469755D01*
X349345Y469947D01*
X349375Y470139D01*
X349411Y470330D01*
X349451Y470519D01*
X349496Y470708D01*
X349545Y470896D01*
X349599Y471082D01*
X349658Y471267D01*
X349721Y471450D01*
X349788Y471632D01*
X349861Y471812D01*
X349937Y471990D01*
X350018Y472167D01*
X350103Y472341D01*
X350192Y472513D01*
X350286Y472683D01*
X350383Y472850D01*
X350485Y473016D01*
X350591Y473178D01*
X350700Y473338D01*
X350814Y473495D01*
X350931Y473650D01*
X351053Y473801D01*
X351178Y473949D01*
X351306Y474095D01*
X351438Y474237D01*
X351573Y474376D01*
X351712Y474511D01*
X351854Y474643D01*
X352000Y474771D01*
X352148Y474896D01*
X352299Y475018D01*
X352454Y475135D01*
X352611Y475249D01*
X352771Y475358D01*
X352933Y475464D01*
X353099Y475566D01*
X353266Y475663D01*
X353436Y475757D01*
X353608Y475846D01*
X353782Y475931D01*
X353959Y476012D01*
X354137Y476088D01*
X354317Y476161D01*
X354499Y476228D01*
X354682Y476291D01*
X354867Y476350D01*
X355053Y476404D01*
X355241Y476453D01*
X355430Y476498D01*
X355619Y476538D01*
X355810Y476574D01*
X356002Y476604D01*
X356194Y476631D01*
X356386Y476652D01*
X356580Y476669D01*
X356773Y476680D01*
X356967Y476688D01*
X357161Y476690D01*
D12*
X341462Y240899D03*
D13*
X340947Y241046D03*
D14*
X340357Y241193D03*
D15*
X339916Y241341D03*
D16*
X339400Y241488D03*
D17*
X338958Y241635D03*
D18*
X338369Y241783D03*
D19*
X337853Y241930D03*
D20*
X337411Y242077D03*
D21*
X336969Y242225D03*
D22*
X336895Y242372D03*
D23*
X336969Y242519D03*
D24*
X337043Y242667D03*
D25*
X336969Y242814D03*
D26*
X337043Y242961D03*
D27*
X337043Y243108D03*
D28*
X337116Y243256D03*
X337116Y243403D03*
D29*
X337116Y243550D03*
D30*
X337190Y243698D03*
D31*
X337190Y243845D03*
X337190Y243992D03*
D32*
X337264Y244140D03*
D33*
X337264Y244287D03*
D34*
X337337Y244434D03*
D35*
X337264Y244582D03*
D36*
X337337Y244729D03*
D37*
X337411Y244876D03*
D38*
X337411Y245024D03*
X337411Y245171D03*
D39*
X337485Y245318D03*
D40*
X337485Y245466D03*
D41*
X337558Y245613D03*
D42*
X337485Y245760D03*
D43*
X337558Y245908D03*
D44*
X337632Y246055D03*
D45*
X337632Y246202D03*
X337632Y246350D03*
D46*
X337632Y246497D03*
D47*
X337706Y246644D03*
X337706Y246791D03*
D48*
X337706Y246939D03*
D49*
X337779Y247086D03*
D50*
X337779Y247233D03*
X337779Y247381D03*
D51*
X337853Y247528D03*
D52*
X337853Y247675D03*
D53*
X337927Y247823D03*
D54*
X337853Y247970D03*
D55*
X337927Y248117D03*
D56*
X338000Y248265D03*
D57*
X358478Y248265D03*
D58*
X338000Y248412D03*
D59*
X357889Y248412D03*
D58*
X338000Y248559D03*
D60*
X357447Y248559D03*
D61*
X338000Y248707D03*
D62*
X356931Y248707D03*
D63*
X338074Y248854D03*
D64*
X356489Y248854D03*
D63*
X338074Y249001D03*
D65*
X355900Y249001D03*
D66*
X338000Y249149D03*
D67*
X355458Y249149D03*
D66*
X338000Y249296D03*
D68*
X354942Y249296D03*
D63*
X337927Y249443D03*
D69*
X354500Y249443D03*
D66*
X337853Y249591D03*
D21*
X354353Y249591D03*
D66*
X337853Y249738D03*
D23*
X354353Y249738D03*
D66*
X337706Y249885D03*
D24*
X354427Y249885D03*
D66*
X337706Y250033D03*
D25*
X354500Y250033D03*
D63*
X337632Y250180D03*
D26*
X354427Y250180D03*
D66*
X337558Y250327D03*
D70*
X354500Y250327D03*
D66*
X337558Y250474D03*
D28*
X354500Y250474D03*
D66*
X337411Y250622D03*
D71*
X354574Y250622D03*
D66*
X337411Y250769D03*
D71*
X354574Y250769D03*
D63*
X337337Y250916D03*
D30*
X354574Y250916D03*
D66*
X337264Y251064D03*
D72*
X354648Y251064D03*
D66*
X337264Y251211D03*
D32*
X354648Y251211D03*
D66*
X337116Y251358D03*
D32*
X354648Y251358D03*
D66*
X337116Y251506D03*
D73*
X354721Y251506D03*
D63*
X337043Y251653D03*
D34*
X354721Y251653D03*
D61*
X337116Y251800D03*
D35*
X354795Y251800D03*
D61*
X337116Y251948D03*
D36*
X354721Y251948D03*
D74*
X337116Y252095D03*
D75*
X354795Y252095D03*
D76*
X337190Y252242D03*
D77*
X354868Y252242D03*
D55*
X337190Y252390D03*
D78*
X354868Y252390D03*
D55*
X337190Y252537D03*
D78*
X354868Y252537D03*
D54*
X337264Y252684D03*
D79*
X354942Y252684D03*
D52*
X337264Y252832D03*
D41*
X354942Y252832D03*
D80*
X337337Y252979D03*
D41*
X354942Y252979D03*
D51*
X337264Y253126D03*
D43*
X354942Y253126D03*
D81*
X337337Y253274D03*
D44*
X355016Y253274D03*
D82*
X337411Y253421D03*
D83*
X355089Y253421D03*
D48*
X337411Y253568D03*
D84*
X355016Y253568D03*
D48*
X337411Y253716D03*
D85*
X355089Y253716D03*
D86*
X337485Y253863D03*
D47*
X355089Y253863D03*
D46*
X337485Y254010D03*
D86*
X355163Y254010D03*
D46*
X337485Y254157D03*
D86*
X355163Y254157D03*
D84*
X337485Y254305D03*
D49*
X355163Y254305D03*
D87*
X337558Y254452D03*
D82*
X355237Y254452D03*
D44*
X337632Y254599D03*
D51*
X355237Y254599D03*
D43*
X337558Y254747D03*
D51*
X355237Y254747D03*
D42*
X337632Y254894D03*
D80*
X355310Y254894D03*
D40*
X337632Y255041D03*
D53*
X355310Y255041D03*
D79*
X337706Y255189D03*
D54*
X355384Y255189D03*
D79*
X337706Y255336D03*
D55*
X355310Y255336D03*
D88*
X337706Y255483D03*
D89*
X355384Y255483D03*
D77*
X337779Y255631D03*
D76*
X355458Y255631D03*
D36*
X337779Y255778D03*
D90*
X355458Y255778D03*
D36*
X337779Y255925D03*
D90*
X355458Y255925D03*
D35*
X337853Y256073D03*
D63*
X355458Y256073D03*
D33*
X337853Y256220D03*
D66*
X355531Y256220D03*
D73*
X337927Y256367D03*
D63*
X355458Y256367D03*
D32*
X337853Y256515D03*
D66*
X355384Y256515D03*
D91*
X337927Y256662D03*
D66*
X355384Y256662D03*
D92*
X338000Y256809D03*
D63*
X355310Y256809D03*
D29*
X338000Y256957D03*
D66*
X355237Y256957D03*
D29*
X338000Y257104D03*
D66*
X355237Y257104D03*
D71*
X338074Y257251D03*
D66*
X355089Y257251D03*
D27*
X338074Y257399D03*
D66*
X355089Y257399D03*
D70*
X338148Y257546D03*
D63*
X355016Y257546D03*
D93*
X338074Y257693D03*
D66*
X354942Y257693D03*
D25*
X338148Y257840D03*
D66*
X354942Y257840D03*
D24*
X338221Y257988D03*
D66*
X354795Y257988D03*
D23*
X338148Y258135D03*
D66*
X354795Y258135D03*
D22*
X338221Y258282D03*
D63*
X354721Y258282D03*
D69*
X338148Y258430D03*
D66*
X354648Y258430D03*
D94*
X337632Y258577D03*
D66*
X354648Y258577D03*
D67*
X337043Y258724D03*
D66*
X354500Y258724D03*
D65*
X336601Y258872D03*
D66*
X354500Y258872D03*
D95*
X336085Y259019D03*
D61*
X354500Y259019D03*
D96*
X335643Y259166D03*
D90*
X354574Y259166D03*
D60*
X335054Y259314D03*
D90*
X354574Y259314D03*
D97*
X334538Y259461D03*
D98*
X354574Y259461D03*
D99*
X334096Y259608D03*
D56*
X354648Y259608D03*
D100*
X343893Y259756D03*
D55*
X354574Y259756D03*
D101*
X343378Y259903D03*
D54*
X354648Y259903D03*
D14*
X342862Y260050D03*
D53*
X354721Y260050D03*
D102*
X342346Y260198D03*
D80*
X354721Y260198D03*
D16*
X341904Y260345D03*
D80*
X354721Y260345D03*
D103*
X341389Y260492D03*
D81*
X354721Y260492D03*
D18*
X340873Y260640D03*
D104*
X354795Y260640D03*
D19*
X340357Y260787D03*
D49*
X354868Y260787D03*
D105*
X339842Y260934D03*
D48*
X354795Y260934D03*
D106*
X339400Y261082D03*
D86*
X354868Y261082D03*
D22*
X339400Y261229D03*
D47*
X354942Y261229D03*
D23*
X339474Y261376D03*
D85*
X354942Y261376D03*
D24*
X339547Y261523D03*
D85*
X354942Y261523D03*
D25*
X339474Y261671D03*
D87*
X354942Y261671D03*
D26*
X339547Y261818D03*
D44*
X355016Y261818D03*
D107*
X339547Y261965D03*
D43*
X355089Y261965D03*
D28*
X339621Y262113D03*
D42*
X355016Y262113D03*
D28*
X339621Y262260D03*
D41*
X355089Y262260D03*
D29*
X339621Y262407D03*
D79*
X355089Y262407D03*
D30*
X339695Y262555D03*
D39*
X355163Y262555D03*
D31*
X339695Y262702D03*
D39*
X355163Y262702D03*
D31*
X339695Y262849D03*
D108*
X355163Y262849D03*
D32*
X339768Y262997D03*
D75*
X355237Y262997D03*
D33*
X339768Y263144D03*
D35*
X355237Y263144D03*
D34*
X339842Y263291D03*
D35*
X355237Y263291D03*
X339768Y263439D03*
D34*
X355310Y263439D03*
D36*
X339842Y263586D03*
D73*
X355310Y263586D03*
D75*
X339916Y263733D03*
D73*
X355310Y263733D03*
D38*
X339916Y263881D03*
D91*
X355310Y263881D03*
D38*
X339916Y264028D03*
D72*
X355384Y264028D03*
D79*
X339916Y264175D03*
D30*
X355458Y264175D03*
D40*
X339989Y264323D03*
D29*
X355384Y264323D03*
D41*
X340063Y264470D03*
D71*
X355458Y264470D03*
D42*
X339989Y264617D03*
D27*
X355458Y264617D03*
D43*
X340063Y264765D03*
D109*
X355531Y264765D03*
D87*
X340063Y264912D03*
D109*
X355531Y264912D03*
D45*
X340136Y265059D03*
D25*
X355531Y265059D03*
D45*
X340136Y265206D03*
D24*
X355605Y265206D03*
D46*
X340136Y265354D03*
D23*
X355679Y265354D03*
D47*
X340210Y265501D03*
D22*
X355605Y265501D03*
D47*
X340210Y265648D03*
D106*
X355605Y265648D03*
D48*
X340210Y265796D03*
D110*
X355163Y265796D03*
D49*
X340284Y265943D03*
D111*
X354648Y265943D03*
D50*
X340284Y266090D03*
D18*
X354132Y266090D03*
D50*
X340284Y266238D03*
D112*
X353616Y266238D03*
D51*
X340357Y266385D03*
D113*
X353174Y266385D03*
D52*
X340357Y266532D03*
D114*
X352659Y266532D03*
D53*
X340431Y266680D03*
D14*
X352143Y266680D03*
D54*
X340357Y266827D03*
D115*
X351627Y266827D03*
D55*
X340431Y266974D03*
D12*
X351185Y266974D03*
D56*
X340505Y267122D03*
D58*
X340505Y267269D03*
X340505Y267416D03*
D61*
X340505Y267564D03*
D63*
X340578Y267711D03*
X340578Y267858D03*
D66*
X340505Y268006D03*
X340505Y268153D03*
X340357Y268300D03*
X340357Y268448D03*
D63*
X340284Y268595D03*
D66*
X340210Y268742D03*
X340210Y268889D03*
X340063Y269037D03*
X340063Y269184D03*
D63*
X339989Y269331D03*
D66*
X339916Y269479D03*
X339916Y269626D03*
D63*
X339842Y269773D03*
D66*
X339768Y269921D03*
X339768Y270068D03*
X339621Y270215D03*
X339621Y270363D03*
D63*
X339547Y270510D03*
D61*
X339621Y270657D03*
X339621Y270805D03*
D74*
X339621Y270952D03*
D76*
X339695Y271099D03*
D55*
X339695Y271247D03*
X339695Y271394D03*
D54*
X339768Y271541D03*
D52*
X339768Y271689D03*
D80*
X339842Y271836D03*
D51*
X339768Y271983D03*
D81*
X339842Y272131D03*
D82*
X339916Y272278D03*
D116*
X339842Y272425D03*
D48*
X339916Y272572D03*
D47*
X339916Y272720D03*
D46*
X339989Y272867D03*
X339989Y273014D03*
D84*
X339989Y273162D03*
D87*
X340063Y273309D03*
D43*
X340063Y273456D03*
X340063Y273604D03*
D42*
X340136Y273751D03*
D40*
X340136Y273898D03*
D79*
X340210Y274046D03*
X340210Y274193D03*
D88*
X340210Y274340D03*
D77*
X340284Y274488D03*
D36*
X340284Y274635D03*
X340284Y274782D03*
D35*
X340357Y274930D03*
D33*
X340357Y275077D03*
D73*
X340431Y275224D03*
D32*
X340357Y275372D03*
D91*
X340431Y275519D03*
D92*
X340505Y275666D03*
D29*
X340505Y275814D03*
X340505Y275961D03*
D28*
X340505Y276108D03*
D27*
X340578Y276255D03*
D70*
X340652Y276403D03*
D93*
X340578Y276550D03*
D25*
X340652Y276697D03*
D23*
X340652Y276845D03*
X340652Y276992D03*
D22*
X340726Y277139D03*
D117*
X340578Y277287D03*
D118*
X340063Y277434D03*
D67*
X339547Y277581D03*
D119*
X339032Y277729D03*
D95*
X338590Y277876D03*
D120*
X338074Y278023D03*
D60*
X337558Y278171D03*
D97*
X337043Y278318D03*
D121*
X336527Y278465D03*
D122*
X249098Y317172D02*
X246598Y317172D01*
X249098Y317172D02*
X251598Y317172D01*
X249098Y317172D02*
X246598Y322172D01*
X251598Y322172D02*
X249098Y317172D01*
X251598Y322172D02*
X246598Y322172D01*
X244098Y332172D02*
X254098Y332172D01*
X254098Y307172D01*
X244098Y307172D01*
X244098Y332172D01*
D123*
X241553Y309209D02*
X232155Y309209D01*
X232155Y311820D01*
X232154Y311820D02*
X232156Y311920D01*
X232162Y312020D01*
X232171Y312119D01*
X232185Y312219D01*
X232202Y312317D01*
X232223Y312415D01*
X232247Y312512D01*
X232276Y312608D01*
X232308Y312703D01*
X232343Y312796D01*
X232382Y312888D01*
X232425Y312979D01*
X232471Y313067D01*
X232521Y313154D01*
X232573Y313239D01*
X232629Y313322D01*
X232688Y313403D01*
X232751Y313481D01*
X232816Y313557D01*
X232884Y313631D01*
X232954Y313701D01*
X233028Y313769D01*
X233104Y313834D01*
X233182Y313897D01*
X233263Y313956D01*
X233346Y314012D01*
X233431Y314064D01*
X233518Y314114D01*
X233606Y314160D01*
X233697Y314203D01*
X233789Y314242D01*
X233882Y314277D01*
X233977Y314309D01*
X234073Y314338D01*
X234170Y314362D01*
X234268Y314383D01*
X234366Y314400D01*
X234466Y314414D01*
X234565Y314423D01*
X234665Y314429D01*
X234765Y314431D01*
X238942Y314431D01*
X239042Y314429D01*
X239142Y314423D01*
X239241Y314414D01*
X239341Y314400D01*
X239439Y314383D01*
X239537Y314362D01*
X239634Y314338D01*
X239730Y314309D01*
X239825Y314277D01*
X239918Y314242D01*
X240010Y314203D01*
X240101Y314160D01*
X240189Y314114D01*
X240276Y314064D01*
X240361Y314012D01*
X240444Y313956D01*
X240525Y313897D01*
X240603Y313834D01*
X240679Y313769D01*
X240753Y313701D01*
X240823Y313631D01*
X240891Y313557D01*
X240956Y313481D01*
X241019Y313403D01*
X241078Y313322D01*
X241134Y313239D01*
X241186Y313154D01*
X241236Y313067D01*
X241282Y312979D01*
X241325Y312888D01*
X241364Y312796D01*
X241399Y312703D01*
X241431Y312608D01*
X241460Y312512D01*
X241484Y312415D01*
X241505Y312317D01*
X241522Y312219D01*
X241536Y312119D01*
X241545Y312020D01*
X241551Y311920D01*
X241553Y311820D01*
X241553Y309209D01*
X234243Y318658D02*
X232155Y321269D01*
X241553Y321269D01*
X241553Y323879D02*
X241553Y318658D01*
X456190Y319964D02*
X456190Y310566D01*
X456190Y319964D02*
X460367Y319964D01*
X460367Y315787D02*
X456190Y315787D01*
X464228Y315787D02*
X466839Y315787D01*
X466940Y315785D01*
X467041Y315779D01*
X467142Y315769D01*
X467242Y315756D01*
X467342Y315738D01*
X467441Y315717D01*
X467539Y315691D01*
X467636Y315662D01*
X467732Y315630D01*
X467826Y315593D01*
X467919Y315553D01*
X468011Y315509D01*
X468100Y315462D01*
X468188Y315411D01*
X468274Y315357D01*
X468357Y315300D01*
X468439Y315240D01*
X468517Y315176D01*
X468594Y315110D01*
X468667Y315040D01*
X468738Y314968D01*
X468806Y314893D01*
X468871Y314815D01*
X468933Y314735D01*
X468992Y314653D01*
X469048Y314568D01*
X469100Y314481D01*
X469149Y314393D01*
X469195Y314302D01*
X469236Y314210D01*
X469275Y314116D01*
X469309Y314021D01*
X469340Y313925D01*
X469367Y313827D01*
X469391Y313729D01*
X469410Y313629D01*
X469426Y313529D01*
X469438Y313429D01*
X469446Y313328D01*
X469450Y313227D01*
X469450Y313125D01*
X469446Y313024D01*
X469438Y312923D01*
X469426Y312823D01*
X469410Y312723D01*
X469391Y312623D01*
X469367Y312525D01*
X469340Y312427D01*
X469309Y312331D01*
X469275Y312236D01*
X469236Y312142D01*
X469195Y312050D01*
X469149Y311959D01*
X469100Y311871D01*
X469048Y311784D01*
X468992Y311699D01*
X468933Y311617D01*
X468871Y311537D01*
X468806Y311459D01*
X468738Y311384D01*
X468667Y311312D01*
X468594Y311242D01*
X468517Y311176D01*
X468439Y311112D01*
X468357Y311052D01*
X468274Y310995D01*
X468188Y310941D01*
X468100Y310890D01*
X468011Y310843D01*
X467919Y310799D01*
X467826Y310759D01*
X467732Y310722D01*
X467636Y310690D01*
X467539Y310661D01*
X467441Y310635D01*
X467342Y310614D01*
X467242Y310596D01*
X467142Y310583D01*
X467041Y310573D01*
X466940Y310567D01*
X466839Y310565D01*
X466839Y310566D02*
X464228Y310566D01*
X464228Y319964D01*
X466839Y319964D01*
X466839Y319963D02*
X466929Y319961D01*
X467018Y319955D01*
X467108Y319946D01*
X467197Y319932D01*
X467285Y319915D01*
X467372Y319894D01*
X467459Y319869D01*
X467544Y319840D01*
X467628Y319808D01*
X467710Y319773D01*
X467791Y319733D01*
X467870Y319691D01*
X467947Y319645D01*
X468022Y319595D01*
X468095Y319543D01*
X468166Y319487D01*
X468234Y319429D01*
X468299Y319367D01*
X468362Y319303D01*
X468422Y319236D01*
X468479Y319167D01*
X468533Y319095D01*
X468584Y319021D01*
X468632Y318945D01*
X468676Y318867D01*
X468717Y318787D01*
X468755Y318705D01*
X468789Y318622D01*
X468819Y318537D01*
X468846Y318451D01*
X468869Y318365D01*
X468888Y318277D01*
X468903Y318188D01*
X468915Y318099D01*
X468923Y318010D01*
X468927Y317920D01*
X468927Y317830D01*
X468923Y317740D01*
X468915Y317651D01*
X468903Y317562D01*
X468888Y317473D01*
X468869Y317385D01*
X468846Y317299D01*
X468819Y317213D01*
X468789Y317128D01*
X468755Y317045D01*
X468717Y316963D01*
X468676Y316883D01*
X468632Y316805D01*
X468584Y316729D01*
X468533Y316655D01*
X468479Y316583D01*
X468422Y316514D01*
X468362Y316447D01*
X468299Y316383D01*
X468234Y316321D01*
X468166Y316263D01*
X468095Y316207D01*
X468022Y316155D01*
X467947Y316105D01*
X467870Y316059D01*
X467791Y316017D01*
X467710Y315977D01*
X467628Y315942D01*
X467544Y315910D01*
X467459Y315881D01*
X467372Y315856D01*
X467285Y315835D01*
X467197Y315818D01*
X467108Y315804D01*
X467018Y315795D01*
X466929Y315789D01*
X466839Y315787D01*
X472936Y317875D02*
X475547Y319964D01*
X475547Y310566D01*
X478157Y310566D02*
X472936Y310566D01*
X248997Y366611D02*
X239599Y366611D01*
X239599Y369221D01*
X239601Y369322D01*
X239607Y369423D01*
X239617Y369524D01*
X239630Y369624D01*
X239648Y369724D01*
X239669Y369823D01*
X239695Y369921D01*
X239724Y370018D01*
X239756Y370114D01*
X239793Y370208D01*
X239833Y370301D01*
X239877Y370393D01*
X239924Y370482D01*
X239975Y370570D01*
X240029Y370656D01*
X240086Y370739D01*
X240146Y370821D01*
X240210Y370899D01*
X240276Y370976D01*
X240346Y371049D01*
X240418Y371120D01*
X240493Y371188D01*
X240571Y371253D01*
X240651Y371315D01*
X240733Y371374D01*
X240818Y371430D01*
X240905Y371482D01*
X240993Y371531D01*
X241084Y371577D01*
X241176Y371618D01*
X241270Y371657D01*
X241365Y371691D01*
X241461Y371722D01*
X241559Y371749D01*
X241657Y371773D01*
X241757Y371792D01*
X241857Y371808D01*
X241957Y371820D01*
X242058Y371828D01*
X242159Y371832D01*
X242261Y371832D01*
X242362Y371828D01*
X242463Y371820D01*
X242563Y371808D01*
X242663Y371792D01*
X242763Y371773D01*
X242861Y371749D01*
X242959Y371722D01*
X243055Y371691D01*
X243150Y371657D01*
X243244Y371618D01*
X243336Y371577D01*
X243427Y371531D01*
X243516Y371482D01*
X243602Y371430D01*
X243687Y371374D01*
X243769Y371315D01*
X243849Y371253D01*
X243927Y371188D01*
X244002Y371120D01*
X244074Y371049D01*
X244144Y370976D01*
X244210Y370899D01*
X244274Y370821D01*
X244334Y370739D01*
X244391Y370656D01*
X244445Y370570D01*
X244496Y370482D01*
X244543Y370393D01*
X244587Y370301D01*
X244627Y370208D01*
X244664Y370114D01*
X244696Y370018D01*
X244725Y369921D01*
X244751Y369823D01*
X244772Y369724D01*
X244790Y369624D01*
X244803Y369524D01*
X244813Y369423D01*
X244819Y369322D01*
X244821Y369221D01*
X244820Y369221D02*
X244820Y366611D01*
X244820Y369744D02*
X248997Y371832D01*
X241688Y375698D02*
X239599Y378308D01*
X248997Y378308D01*
X248997Y375698D02*
X248997Y380919D01*
D11*
X291567Y411696D02*
X291567Y429476D01*
X296506Y429476D01*
X296645Y429474D01*
X296783Y429468D01*
X296921Y429459D01*
X297059Y429445D01*
X297196Y429428D01*
X297333Y429406D01*
X297470Y429381D01*
X297605Y429352D01*
X297740Y429319D01*
X297873Y429283D01*
X298006Y429243D01*
X298137Y429199D01*
X298267Y429151D01*
X298396Y429100D01*
X298523Y429045D01*
X298649Y428987D01*
X298773Y428925D01*
X298895Y428860D01*
X299015Y428791D01*
X299134Y428719D01*
X299250Y428644D01*
X299364Y428565D01*
X299476Y428483D01*
X299585Y428398D01*
X299693Y428311D01*
X299797Y428220D01*
X299899Y428126D01*
X299998Y428029D01*
X300095Y427930D01*
X300189Y427828D01*
X300280Y427724D01*
X300367Y427616D01*
X300452Y427507D01*
X300534Y427395D01*
X300613Y427281D01*
X300688Y427165D01*
X300760Y427046D01*
X300829Y426926D01*
X300894Y426804D01*
X300956Y426680D01*
X301014Y426554D01*
X301069Y426427D01*
X301120Y426298D01*
X301168Y426168D01*
X301212Y426037D01*
X301252Y425904D01*
X301288Y425771D01*
X301321Y425636D01*
X301350Y425501D01*
X301375Y425364D01*
X301397Y425227D01*
X301414Y425090D01*
X301428Y424952D01*
X301437Y424814D01*
X301443Y424676D01*
X301445Y424537D01*
X301444Y424537D02*
X301444Y416635D01*
X301445Y416635D02*
X301443Y416496D01*
X301437Y416358D01*
X301428Y416220D01*
X301414Y416082D01*
X301397Y415945D01*
X301375Y415808D01*
X301350Y415671D01*
X301321Y415536D01*
X301288Y415401D01*
X301252Y415268D01*
X301212Y415135D01*
X301168Y415004D01*
X301120Y414874D01*
X301069Y414745D01*
X301014Y414618D01*
X300956Y414492D01*
X300894Y414368D01*
X300829Y414246D01*
X300760Y414126D01*
X300688Y414007D01*
X300613Y413891D01*
X300534Y413777D01*
X300452Y413665D01*
X300367Y413556D01*
X300280Y413448D01*
X300189Y413344D01*
X300095Y413242D01*
X299998Y413143D01*
X299899Y413046D01*
X299797Y412952D01*
X299693Y412861D01*
X299585Y412774D01*
X299476Y412689D01*
X299364Y412607D01*
X299250Y412528D01*
X299134Y412453D01*
X299015Y412381D01*
X298895Y412312D01*
X298773Y412247D01*
X298649Y412185D01*
X298523Y412127D01*
X298396Y412072D01*
X298267Y412021D01*
X298137Y411973D01*
X298006Y411929D01*
X297873Y411889D01*
X297740Y411853D01*
X297605Y411820D01*
X297470Y411791D01*
X297333Y411766D01*
X297196Y411744D01*
X297059Y411727D01*
X296921Y411713D01*
X296783Y411704D01*
X296645Y411698D01*
X296506Y411696D01*
X291567Y411696D01*
X296838Y436093D02*
X300790Y436093D01*
X296838Y436093D02*
X296714Y436095D01*
X296590Y436101D01*
X296466Y436111D01*
X296343Y436124D01*
X296220Y436142D01*
X296098Y436163D01*
X295976Y436188D01*
X295855Y436217D01*
X295736Y436250D01*
X295617Y436286D01*
X295500Y436327D01*
X295384Y436370D01*
X295269Y436418D01*
X295156Y436469D01*
X295044Y436524D01*
X294935Y436582D01*
X294827Y436643D01*
X294721Y436708D01*
X294617Y436776D01*
X294516Y436848D01*
X294416Y436922D01*
X294320Y437000D01*
X294225Y437080D01*
X294133Y437164D01*
X294044Y437250D01*
X293958Y437339D01*
X293874Y437431D01*
X293794Y437526D01*
X293716Y437622D01*
X293642Y437722D01*
X293570Y437823D01*
X293502Y437927D01*
X293437Y438033D01*
X293376Y438141D01*
X293318Y438250D01*
X293263Y438362D01*
X293212Y438475D01*
X293164Y438590D01*
X293121Y438706D01*
X293080Y438823D01*
X293044Y438942D01*
X293011Y439061D01*
X292982Y439182D01*
X292957Y439304D01*
X292936Y439426D01*
X292918Y439549D01*
X292905Y439672D01*
X292895Y439796D01*
X292889Y439920D01*
X292887Y440044D01*
X292887Y449921D01*
X292889Y450045D01*
X292895Y450169D01*
X292905Y450293D01*
X292918Y450416D01*
X292936Y450539D01*
X292957Y450661D01*
X292982Y450783D01*
X293011Y450904D01*
X293044Y451023D01*
X293080Y451142D01*
X293121Y451259D01*
X293164Y451375D01*
X293212Y451490D01*
X293263Y451603D01*
X293318Y451715D01*
X293376Y451824D01*
X293437Y451932D01*
X293502Y452038D01*
X293570Y452142D01*
X293642Y452243D01*
X293716Y452343D01*
X293794Y452439D01*
X293874Y452534D01*
X293958Y452626D01*
X294044Y452715D01*
X294133Y452801D01*
X294225Y452885D01*
X294320Y452965D01*
X294416Y453043D01*
X294516Y453117D01*
X294617Y453189D01*
X294721Y453257D01*
X294827Y453322D01*
X294935Y453383D01*
X295044Y453441D01*
X295156Y453496D01*
X295269Y453547D01*
X295384Y453595D01*
X295500Y453638D01*
X295617Y453679D01*
X295736Y453715D01*
X295855Y453748D01*
X295976Y453777D01*
X296098Y453802D01*
X296220Y453823D01*
X296343Y453841D01*
X296466Y453854D01*
X296590Y453864D01*
X296714Y453870D01*
X296838Y453872D01*
X296838Y453873D02*
X300790Y453873D01*
X413410Y448155D02*
X418349Y448155D01*
X418489Y448153D01*
X418628Y448147D01*
X418768Y448137D01*
X418907Y448123D01*
X419046Y448106D01*
X419184Y448084D01*
X419321Y448058D01*
X419458Y448029D01*
X419594Y447996D01*
X419728Y447959D01*
X419862Y447918D01*
X419994Y447873D01*
X420126Y447824D01*
X420255Y447772D01*
X420383Y447717D01*
X420510Y447657D01*
X420635Y447594D01*
X420758Y447528D01*
X420879Y447458D01*
X420998Y447385D01*
X421115Y447308D01*
X421229Y447228D01*
X421342Y447145D01*
X421452Y447059D01*
X421559Y446969D01*
X421664Y446877D01*
X421766Y446782D01*
X421866Y446684D01*
X421963Y446583D01*
X422057Y446479D01*
X422147Y446373D01*
X422235Y446264D01*
X422320Y446153D01*
X422401Y446039D01*
X422480Y445924D01*
X422555Y445806D01*
X422626Y445686D01*
X422694Y445563D01*
X422759Y445440D01*
X422820Y445314D01*
X422878Y445186D01*
X422932Y445058D01*
X422982Y444927D01*
X423029Y444795D01*
X423072Y444662D01*
X423111Y444528D01*
X423146Y444393D01*
X423177Y444257D01*
X423205Y444119D01*
X423228Y443982D01*
X423248Y443843D01*
X423264Y443704D01*
X423276Y443565D01*
X423284Y443426D01*
X423288Y443286D01*
X423288Y443146D01*
X423284Y443006D01*
X423276Y442867D01*
X423264Y442728D01*
X423248Y442589D01*
X423228Y442450D01*
X423205Y442313D01*
X423177Y442175D01*
X423146Y442039D01*
X423111Y441904D01*
X423072Y441770D01*
X423029Y441637D01*
X422982Y441505D01*
X422932Y441374D01*
X422878Y441246D01*
X422820Y441118D01*
X422759Y440992D01*
X422694Y440869D01*
X422626Y440747D01*
X422555Y440626D01*
X422480Y440508D01*
X422401Y440393D01*
X422320Y440279D01*
X422235Y440168D01*
X422147Y440059D01*
X422057Y439953D01*
X421963Y439849D01*
X421866Y439748D01*
X421766Y439650D01*
X421664Y439555D01*
X421559Y439463D01*
X421452Y439373D01*
X421342Y439287D01*
X421229Y439204D01*
X421115Y439124D01*
X420998Y439047D01*
X420879Y438974D01*
X420758Y438904D01*
X420635Y438838D01*
X420510Y438775D01*
X420383Y438715D01*
X420255Y438660D01*
X420126Y438608D01*
X419994Y438559D01*
X419862Y438514D01*
X419728Y438473D01*
X419594Y438436D01*
X419458Y438403D01*
X419321Y438374D01*
X419184Y438348D01*
X419046Y438326D01*
X418907Y438309D01*
X418768Y438295D01*
X418628Y438285D01*
X418489Y438279D01*
X418349Y438277D01*
X413410Y438277D01*
X413410Y456057D01*
X418349Y456057D01*
X418473Y456055D01*
X418597Y456049D01*
X418721Y456039D01*
X418844Y456026D01*
X418967Y456008D01*
X419089Y455987D01*
X419211Y455962D01*
X419332Y455933D01*
X419451Y455900D01*
X419570Y455864D01*
X419687Y455823D01*
X419803Y455780D01*
X419918Y455732D01*
X420031Y455681D01*
X420143Y455626D01*
X420252Y455568D01*
X420360Y455507D01*
X420466Y455442D01*
X420570Y455374D01*
X420671Y455302D01*
X420771Y455228D01*
X420867Y455150D01*
X420962Y455070D01*
X421054Y454986D01*
X421143Y454900D01*
X421229Y454811D01*
X421313Y454719D01*
X421393Y454624D01*
X421471Y454528D01*
X421545Y454428D01*
X421617Y454327D01*
X421685Y454223D01*
X421750Y454117D01*
X421811Y454009D01*
X421869Y453900D01*
X421924Y453788D01*
X421975Y453675D01*
X422023Y453560D01*
X422066Y453444D01*
X422107Y453327D01*
X422143Y453208D01*
X422176Y453089D01*
X422205Y452968D01*
X422230Y452846D01*
X422251Y452724D01*
X422269Y452601D01*
X422282Y452478D01*
X422292Y452354D01*
X422298Y452230D01*
X422300Y452106D01*
X422298Y451982D01*
X422292Y451858D01*
X422282Y451734D01*
X422269Y451611D01*
X422251Y451488D01*
X422230Y451366D01*
X422205Y451244D01*
X422176Y451123D01*
X422143Y451004D01*
X422107Y450885D01*
X422066Y450768D01*
X422023Y450652D01*
X421975Y450537D01*
X421924Y450424D01*
X421869Y450312D01*
X421811Y450203D01*
X421750Y450095D01*
X421685Y449989D01*
X421617Y449885D01*
X421545Y449784D01*
X421471Y449684D01*
X421393Y449588D01*
X421313Y449493D01*
X421229Y449401D01*
X421143Y449312D01*
X421054Y449226D01*
X420962Y449142D01*
X420867Y449062D01*
X420771Y448984D01*
X420671Y448910D01*
X420570Y448838D01*
X420466Y448770D01*
X420360Y448705D01*
X420252Y448644D01*
X420143Y448586D01*
X420031Y448531D01*
X419918Y448480D01*
X419803Y448432D01*
X419687Y448389D01*
X419570Y448348D01*
X419451Y448312D01*
X419332Y448279D01*
X419211Y448250D01*
X419089Y448225D01*
X418967Y448204D01*
X418844Y448186D01*
X418721Y448173D01*
X418597Y448163D01*
X418473Y448157D01*
X418349Y448155D01*
X458102Y389674D02*
X458102Y371894D01*
X458102Y389674D02*
X463041Y389674D01*
X463181Y389672D01*
X463320Y389666D01*
X463460Y389656D01*
X463599Y389642D01*
X463738Y389625D01*
X463876Y389603D01*
X464013Y389577D01*
X464150Y389548D01*
X464286Y389515D01*
X464420Y389478D01*
X464554Y389437D01*
X464686Y389392D01*
X464818Y389343D01*
X464947Y389291D01*
X465075Y389236D01*
X465202Y389176D01*
X465327Y389113D01*
X465450Y389047D01*
X465571Y388977D01*
X465690Y388904D01*
X465807Y388827D01*
X465921Y388747D01*
X466034Y388664D01*
X466144Y388578D01*
X466251Y388488D01*
X466356Y388396D01*
X466458Y388301D01*
X466558Y388203D01*
X466655Y388102D01*
X466749Y387998D01*
X466839Y387892D01*
X466927Y387783D01*
X467012Y387672D01*
X467093Y387558D01*
X467172Y387443D01*
X467247Y387325D01*
X467318Y387205D01*
X467386Y387082D01*
X467451Y386959D01*
X467512Y386833D01*
X467570Y386705D01*
X467624Y386577D01*
X467674Y386446D01*
X467721Y386314D01*
X467764Y386181D01*
X467803Y386047D01*
X467838Y385912D01*
X467869Y385776D01*
X467897Y385638D01*
X467920Y385501D01*
X467940Y385362D01*
X467956Y385223D01*
X467968Y385084D01*
X467976Y384945D01*
X467980Y384805D01*
X467980Y384665D01*
X467976Y384525D01*
X467968Y384386D01*
X467956Y384247D01*
X467940Y384108D01*
X467920Y383969D01*
X467897Y383832D01*
X467869Y383694D01*
X467838Y383558D01*
X467803Y383423D01*
X467764Y383289D01*
X467721Y383156D01*
X467674Y383024D01*
X467624Y382893D01*
X467570Y382765D01*
X467512Y382637D01*
X467451Y382511D01*
X467386Y382388D01*
X467318Y382266D01*
X467247Y382145D01*
X467172Y382027D01*
X467093Y381912D01*
X467012Y381798D01*
X466927Y381687D01*
X466839Y381578D01*
X466749Y381472D01*
X466655Y381368D01*
X466558Y381267D01*
X466458Y381169D01*
X466356Y381074D01*
X466251Y380982D01*
X466144Y380892D01*
X466034Y380806D01*
X465921Y380723D01*
X465807Y380643D01*
X465690Y380566D01*
X465571Y380493D01*
X465450Y380423D01*
X465327Y380357D01*
X465202Y380294D01*
X465075Y380234D01*
X464947Y380179D01*
X464818Y380127D01*
X464686Y380078D01*
X464554Y380033D01*
X464420Y379992D01*
X464286Y379955D01*
X464150Y379922D01*
X464013Y379893D01*
X463876Y379867D01*
X463738Y379845D01*
X463599Y379828D01*
X463460Y379814D01*
X463320Y379804D01*
X463181Y379798D01*
X463041Y379796D01*
X458102Y379796D01*
X464028Y379796D02*
X467979Y371894D01*
D122*
X358189Y324342D02*
X334189Y324342D01*
X358189Y324342D02*
X358189Y368342D01*
X334189Y368342D01*
X334189Y324342D01*
D124*
X360399Y362572D02*
X360401Y362626D01*
X360407Y362680D01*
X360417Y362733D01*
X360430Y362786D01*
X360447Y362837D01*
X360468Y362887D01*
X360493Y362935D01*
X360521Y362982D01*
X360552Y363026D01*
X360586Y363068D01*
X360623Y363107D01*
X360663Y363144D01*
X360706Y363177D01*
X360751Y363208D01*
X360798Y363235D01*
X360846Y363258D01*
X360897Y363278D01*
X360948Y363295D01*
X361001Y363307D01*
X361054Y363316D01*
X361108Y363321D01*
X361163Y363322D01*
X361217Y363319D01*
X361270Y363312D01*
X361323Y363301D01*
X361376Y363287D01*
X361427Y363269D01*
X361476Y363247D01*
X361524Y363222D01*
X361570Y363193D01*
X361614Y363161D01*
X361655Y363126D01*
X361693Y363088D01*
X361729Y363047D01*
X361762Y363004D01*
X361792Y362959D01*
X361818Y362911D01*
X361841Y362862D01*
X361860Y362811D01*
X361875Y362760D01*
X361887Y362707D01*
X361895Y362653D01*
X361899Y362599D01*
X361899Y362545D01*
X361895Y362491D01*
X361887Y362437D01*
X361875Y362384D01*
X361860Y362333D01*
X361841Y362282D01*
X361818Y362233D01*
X361792Y362185D01*
X361762Y362140D01*
X361729Y362097D01*
X361693Y362056D01*
X361655Y362018D01*
X361614Y361983D01*
X361570Y361951D01*
X361524Y361922D01*
X361476Y361897D01*
X361427Y361875D01*
X361376Y361857D01*
X361323Y361843D01*
X361270Y361832D01*
X361217Y361825D01*
X361163Y361822D01*
X361108Y361823D01*
X361054Y361828D01*
X361001Y361837D01*
X360948Y361849D01*
X360897Y361866D01*
X360846Y361886D01*
X360798Y361909D01*
X360751Y361936D01*
X360706Y361967D01*
X360663Y362000D01*
X360623Y362037D01*
X360586Y362076D01*
X360552Y362118D01*
X360521Y362162D01*
X360493Y362209D01*
X360468Y362257D01*
X360447Y362307D01*
X360430Y362358D01*
X360417Y362411D01*
X360407Y362464D01*
X360401Y362518D01*
X360399Y362572D01*
D123*
X327852Y353769D02*
X321065Y353769D01*
X327852Y353768D02*
X327953Y353770D01*
X328054Y353776D01*
X328155Y353786D01*
X328255Y353799D01*
X328355Y353817D01*
X328454Y353838D01*
X328552Y353864D01*
X328649Y353893D01*
X328745Y353925D01*
X328839Y353962D01*
X328932Y354002D01*
X329024Y354046D01*
X329113Y354093D01*
X329201Y354144D01*
X329287Y354198D01*
X329370Y354255D01*
X329452Y354315D01*
X329530Y354379D01*
X329607Y354445D01*
X329680Y354515D01*
X329751Y354587D01*
X329819Y354662D01*
X329884Y354740D01*
X329946Y354820D01*
X330005Y354902D01*
X330061Y354987D01*
X330113Y355074D01*
X330162Y355162D01*
X330208Y355253D01*
X330249Y355345D01*
X330288Y355439D01*
X330322Y355534D01*
X330353Y355630D01*
X330380Y355728D01*
X330404Y355826D01*
X330423Y355926D01*
X330439Y356026D01*
X330451Y356126D01*
X330459Y356227D01*
X330463Y356328D01*
X330463Y356430D01*
X330459Y356531D01*
X330451Y356632D01*
X330439Y356732D01*
X330423Y356832D01*
X330404Y356932D01*
X330380Y357030D01*
X330353Y357128D01*
X330322Y357224D01*
X330288Y357319D01*
X330249Y357413D01*
X330208Y357505D01*
X330162Y357596D01*
X330113Y357684D01*
X330061Y357771D01*
X330005Y357856D01*
X329946Y357938D01*
X329884Y358018D01*
X329819Y358096D01*
X329751Y358171D01*
X329680Y358243D01*
X329607Y358313D01*
X329530Y358379D01*
X329452Y358443D01*
X329370Y358503D01*
X329287Y358560D01*
X329201Y358614D01*
X329113Y358665D01*
X329024Y358712D01*
X328932Y358756D01*
X328839Y358796D01*
X328745Y358833D01*
X328649Y358865D01*
X328552Y358894D01*
X328454Y358920D01*
X328355Y358941D01*
X328255Y358959D01*
X328155Y358972D01*
X328054Y358982D01*
X327953Y358988D01*
X327852Y358990D01*
X321065Y358990D01*
X321064Y366089D02*
X321066Y366184D01*
X321072Y366278D01*
X321081Y366372D01*
X321094Y366466D01*
X321111Y366559D01*
X321132Y366651D01*
X321157Y366743D01*
X321185Y366833D01*
X321217Y366922D01*
X321252Y367010D01*
X321291Y367096D01*
X321333Y367181D01*
X321379Y367264D01*
X321428Y367345D01*
X321480Y367424D01*
X321535Y367501D01*
X321594Y367575D01*
X321655Y367647D01*
X321719Y367717D01*
X321786Y367784D01*
X321856Y367848D01*
X321928Y367909D01*
X322002Y367968D01*
X322079Y368023D01*
X322158Y368075D01*
X322239Y368124D01*
X322322Y368170D01*
X322407Y368212D01*
X322493Y368251D01*
X322581Y368286D01*
X322670Y368318D01*
X322760Y368346D01*
X322852Y368371D01*
X322944Y368392D01*
X323037Y368409D01*
X323131Y368422D01*
X323225Y368431D01*
X323319Y368437D01*
X323414Y368439D01*
X321065Y366089D02*
X321067Y365981D01*
X321073Y365872D01*
X321083Y365764D01*
X321096Y365657D01*
X321114Y365550D01*
X321135Y365443D01*
X321160Y365338D01*
X321189Y365233D01*
X321221Y365130D01*
X321258Y365028D01*
X321298Y364927D01*
X321341Y364828D01*
X321388Y364730D01*
X321439Y364634D01*
X321493Y364540D01*
X321550Y364448D01*
X321611Y364358D01*
X321675Y364270D01*
X321741Y364185D01*
X321811Y364102D01*
X321884Y364022D01*
X321960Y363944D01*
X322038Y363869D01*
X322119Y363797D01*
X322203Y363728D01*
X322289Y363662D01*
X322377Y363599D01*
X322468Y363540D01*
X322560Y363483D01*
X322655Y363430D01*
X322752Y363381D01*
X322850Y363335D01*
X322949Y363292D01*
X323051Y363253D01*
X323153Y363218D01*
X325242Y367656D02*
X325173Y367725D01*
X325102Y367791D01*
X325029Y367855D01*
X324953Y367916D01*
X324874Y367974D01*
X324794Y368028D01*
X324711Y368080D01*
X324627Y368128D01*
X324541Y368174D01*
X324453Y368215D01*
X324363Y368254D01*
X324272Y368289D01*
X324180Y368320D01*
X324087Y368348D01*
X323993Y368372D01*
X323898Y368392D01*
X323802Y368409D01*
X323705Y368422D01*
X323608Y368431D01*
X323511Y368437D01*
X323414Y368439D01*
X325242Y367656D02*
X330463Y363218D01*
X330463Y368439D01*
X374587Y382985D02*
X374587Y385074D01*
X374586Y382985D02*
X374584Y382896D01*
X374578Y382808D01*
X374569Y382720D01*
X374556Y382632D01*
X374539Y382545D01*
X374519Y382459D01*
X374494Y382374D01*
X374467Y382289D01*
X374435Y382206D01*
X374401Y382125D01*
X374362Y382045D01*
X374321Y381967D01*
X374276Y381890D01*
X374228Y381816D01*
X374177Y381743D01*
X374123Y381673D01*
X374065Y381606D01*
X374005Y381540D01*
X373943Y381478D01*
X373877Y381418D01*
X373810Y381360D01*
X373740Y381306D01*
X373667Y381255D01*
X373593Y381207D01*
X373516Y381162D01*
X373438Y381121D01*
X373358Y381082D01*
X373277Y381048D01*
X373194Y381016D01*
X373109Y380989D01*
X373024Y380964D01*
X372938Y380944D01*
X372851Y380927D01*
X372763Y380914D01*
X372675Y380905D01*
X372587Y380899D01*
X372498Y380897D01*
X367277Y380897D01*
X367277Y380896D02*
X367186Y380898D01*
X367095Y380904D01*
X367004Y380914D01*
X366914Y380928D01*
X366825Y380946D01*
X366736Y380967D01*
X366649Y380993D01*
X366563Y381022D01*
X366478Y381055D01*
X366394Y381092D01*
X366312Y381132D01*
X366233Y381176D01*
X366155Y381223D01*
X366079Y381274D01*
X366005Y381328D01*
X365934Y381385D01*
X365866Y381445D01*
X365800Y381508D01*
X365737Y381574D01*
X365677Y381642D01*
X365620Y381713D01*
X365566Y381787D01*
X365515Y381863D01*
X365468Y381940D01*
X365424Y382020D01*
X365384Y382102D01*
X365347Y382186D01*
X365314Y382270D01*
X365285Y382357D01*
X365259Y382444D01*
X365238Y382533D01*
X365220Y382622D01*
X365206Y382712D01*
X365196Y382803D01*
X365190Y382894D01*
X365188Y382985D01*
X365189Y382985D02*
X365189Y385074D01*
X367277Y388542D02*
X365189Y391153D01*
X374587Y391153D01*
X374587Y388542D02*
X374587Y393764D01*
X369888Y397686D02*
X369703Y397688D01*
X369518Y397695D01*
X369334Y397706D01*
X369150Y397721D01*
X368966Y397741D01*
X368782Y397765D01*
X368600Y397794D01*
X368418Y397827D01*
X368237Y397864D01*
X368057Y397906D01*
X367877Y397952D01*
X367699Y398002D01*
X367523Y398056D01*
X367347Y398115D01*
X367173Y398177D01*
X367001Y398244D01*
X366830Y398315D01*
X366661Y398390D01*
X366494Y398469D01*
X366493Y398469D02*
X366413Y398499D01*
X366334Y398532D01*
X366257Y398569D01*
X366181Y398609D01*
X366107Y398652D01*
X366035Y398698D01*
X365966Y398748D01*
X365898Y398800D01*
X365833Y398856D01*
X365770Y398914D01*
X365711Y398976D01*
X365653Y399039D01*
X365599Y399106D01*
X365548Y399174D01*
X365500Y399245D01*
X365455Y399318D01*
X365413Y399392D01*
X365375Y399469D01*
X365340Y399547D01*
X365308Y399626D01*
X365280Y399707D01*
X365256Y399789D01*
X365235Y399873D01*
X365218Y399956D01*
X365205Y400041D01*
X365196Y400126D01*
X365190Y400211D01*
X365188Y400297D01*
X365190Y400383D01*
X365196Y400468D01*
X365205Y400553D01*
X365218Y400638D01*
X365235Y400721D01*
X365256Y400805D01*
X365280Y400887D01*
X365308Y400968D01*
X365340Y401047D01*
X365375Y401125D01*
X365413Y401202D01*
X365455Y401276D01*
X365500Y401349D01*
X365548Y401420D01*
X365599Y401488D01*
X365653Y401555D01*
X365711Y401618D01*
X365770Y401680D01*
X365833Y401738D01*
X365898Y401794D01*
X365966Y401846D01*
X366035Y401896D01*
X366107Y401942D01*
X366181Y401985D01*
X366257Y402025D01*
X366334Y402062D01*
X366413Y402095D01*
X366493Y402125D01*
X366494Y402125D02*
X366661Y402204D01*
X366830Y402279D01*
X367001Y402350D01*
X367173Y402417D01*
X367347Y402479D01*
X367523Y402538D01*
X367699Y402592D01*
X367877Y402642D01*
X368057Y402688D01*
X368237Y402730D01*
X368418Y402767D01*
X368600Y402800D01*
X368782Y402829D01*
X368966Y402853D01*
X369150Y402873D01*
X369334Y402888D01*
X369518Y402899D01*
X369703Y402906D01*
X369888Y402908D01*
X369888Y397686D02*
X370073Y397688D01*
X370258Y397695D01*
X370442Y397706D01*
X370626Y397721D01*
X370810Y397741D01*
X370994Y397765D01*
X371176Y397794D01*
X371358Y397827D01*
X371539Y397864D01*
X371719Y397906D01*
X371899Y397952D01*
X372077Y398002D01*
X372253Y398056D01*
X372429Y398115D01*
X372603Y398177D01*
X372775Y398244D01*
X372946Y398315D01*
X373115Y398390D01*
X373282Y398469D01*
X373362Y398499D01*
X373441Y398532D01*
X373518Y398569D01*
X373594Y398609D01*
X373668Y398652D01*
X373740Y398698D01*
X373809Y398748D01*
X373877Y398801D01*
X373942Y398856D01*
X374005Y398915D01*
X374064Y398976D01*
X374122Y399039D01*
X374176Y399106D01*
X374227Y399174D01*
X374275Y399245D01*
X374320Y399318D01*
X374362Y399392D01*
X374400Y399469D01*
X374435Y399547D01*
X374467Y399626D01*
X374495Y399707D01*
X374519Y399789D01*
X374540Y399873D01*
X374557Y399956D01*
X374570Y400041D01*
X374579Y400126D01*
X374585Y400211D01*
X374587Y400297D01*
X373282Y402125D02*
X373115Y402204D01*
X372946Y402279D01*
X372775Y402350D01*
X372603Y402417D01*
X372429Y402479D01*
X372253Y402538D01*
X372077Y402592D01*
X371899Y402642D01*
X371719Y402688D01*
X371539Y402730D01*
X371358Y402767D01*
X371176Y402800D01*
X370994Y402829D01*
X370810Y402853D01*
X370626Y402873D01*
X370442Y402888D01*
X370258Y402899D01*
X370073Y402906D01*
X369888Y402908D01*
X373282Y402125D02*
X373362Y402095D01*
X373441Y402062D01*
X373518Y402025D01*
X373594Y401985D01*
X373668Y401942D01*
X373740Y401896D01*
X373809Y401846D01*
X373877Y401794D01*
X373942Y401738D01*
X374005Y401680D01*
X374064Y401618D01*
X374122Y401555D01*
X374176Y401488D01*
X374227Y401420D01*
X374275Y401349D01*
X374320Y401276D01*
X374362Y401202D01*
X374400Y401125D01*
X374435Y401047D01*
X374467Y400968D01*
X374495Y400887D01*
X374519Y400805D01*
X374540Y400721D01*
X374557Y400638D01*
X374570Y400553D01*
X374579Y400468D01*
X374585Y400383D01*
X374587Y400297D01*
X372498Y398209D02*
X367277Y402385D01*
D11*
X343383Y371653D02*
X323253Y371653D01*
D123*
X322148Y382199D02*
X322148Y384288D01*
X322148Y382199D02*
X322146Y382110D01*
X322140Y382022D01*
X322131Y381934D01*
X322118Y381846D01*
X322101Y381759D01*
X322081Y381673D01*
X322056Y381588D01*
X322029Y381503D01*
X321997Y381420D01*
X321963Y381339D01*
X321924Y381259D01*
X321883Y381181D01*
X321838Y381104D01*
X321790Y381030D01*
X321739Y380957D01*
X321685Y380887D01*
X321627Y380820D01*
X321567Y380754D01*
X321505Y380692D01*
X321439Y380632D01*
X321372Y380574D01*
X321302Y380520D01*
X321229Y380469D01*
X321155Y380421D01*
X321078Y380376D01*
X321000Y380335D01*
X320920Y380296D01*
X320839Y380262D01*
X320756Y380230D01*
X320671Y380203D01*
X320586Y380178D01*
X320500Y380158D01*
X320413Y380141D01*
X320325Y380128D01*
X320237Y380119D01*
X320149Y380113D01*
X320060Y380111D01*
X314839Y380111D01*
X314839Y380110D02*
X314748Y380112D01*
X314657Y380118D01*
X314566Y380128D01*
X314476Y380142D01*
X314387Y380160D01*
X314298Y380181D01*
X314211Y380207D01*
X314125Y380236D01*
X314040Y380269D01*
X313956Y380306D01*
X313874Y380346D01*
X313795Y380390D01*
X313717Y380437D01*
X313641Y380488D01*
X313567Y380542D01*
X313496Y380599D01*
X313428Y380659D01*
X313362Y380722D01*
X313299Y380788D01*
X313239Y380856D01*
X313182Y380927D01*
X313128Y381001D01*
X313077Y381077D01*
X313030Y381154D01*
X312986Y381234D01*
X312946Y381316D01*
X312909Y381400D01*
X312876Y381484D01*
X312847Y381571D01*
X312821Y381658D01*
X312800Y381747D01*
X312782Y381836D01*
X312768Y381926D01*
X312758Y382017D01*
X312752Y382108D01*
X312750Y382199D01*
X312750Y384288D01*
X314839Y387757D02*
X312750Y390367D01*
X322148Y390367D01*
X322148Y387757D02*
X322148Y392978D01*
X314839Y396901D02*
X312750Y399511D01*
X322148Y399511D01*
X322148Y396901D02*
X322148Y402122D01*
X354526Y319654D02*
X354526Y310256D01*
X354526Y319654D02*
X357136Y319654D01*
X357237Y319652D01*
X357338Y319646D01*
X357439Y319636D01*
X357539Y319623D01*
X357639Y319605D01*
X357738Y319584D01*
X357836Y319558D01*
X357933Y319529D01*
X358029Y319497D01*
X358123Y319460D01*
X358216Y319420D01*
X358308Y319376D01*
X358397Y319329D01*
X358485Y319278D01*
X358571Y319224D01*
X358654Y319167D01*
X358736Y319107D01*
X358814Y319043D01*
X358891Y318977D01*
X358964Y318907D01*
X359035Y318835D01*
X359103Y318760D01*
X359168Y318682D01*
X359230Y318602D01*
X359289Y318520D01*
X359345Y318435D01*
X359397Y318348D01*
X359446Y318260D01*
X359492Y318169D01*
X359533Y318077D01*
X359572Y317983D01*
X359606Y317888D01*
X359637Y317792D01*
X359664Y317694D01*
X359688Y317596D01*
X359707Y317496D01*
X359723Y317396D01*
X359735Y317296D01*
X359743Y317195D01*
X359747Y317094D01*
X359747Y316992D01*
X359743Y316891D01*
X359735Y316790D01*
X359723Y316690D01*
X359707Y316590D01*
X359688Y316490D01*
X359664Y316392D01*
X359637Y316294D01*
X359606Y316198D01*
X359572Y316103D01*
X359533Y316009D01*
X359492Y315917D01*
X359446Y315826D01*
X359397Y315738D01*
X359345Y315651D01*
X359289Y315566D01*
X359230Y315484D01*
X359168Y315404D01*
X359103Y315326D01*
X359035Y315251D01*
X358964Y315179D01*
X358891Y315109D01*
X358814Y315043D01*
X358736Y314979D01*
X358654Y314919D01*
X358571Y314862D01*
X358485Y314808D01*
X358397Y314757D01*
X358308Y314710D01*
X358216Y314666D01*
X358123Y314626D01*
X358029Y314589D01*
X357933Y314557D01*
X357836Y314528D01*
X357738Y314502D01*
X357639Y314481D01*
X357539Y314463D01*
X357439Y314450D01*
X357338Y314440D01*
X357237Y314434D01*
X357136Y314432D01*
X357136Y314433D02*
X354526Y314433D01*
X357658Y314433D02*
X359747Y310256D01*
X363612Y312344D02*
X365701Y319654D01*
X363612Y312344D02*
X368834Y312344D01*
X367267Y310256D02*
X367267Y314433D01*
X263309Y312616D02*
X263309Y303218D01*
X263309Y312616D02*
X265920Y312616D01*
X266021Y312614D01*
X266122Y312608D01*
X266223Y312598D01*
X266323Y312585D01*
X266423Y312567D01*
X266522Y312546D01*
X266620Y312520D01*
X266717Y312491D01*
X266813Y312459D01*
X266907Y312422D01*
X267000Y312382D01*
X267092Y312338D01*
X267181Y312291D01*
X267269Y312240D01*
X267355Y312186D01*
X267438Y312129D01*
X267520Y312069D01*
X267598Y312005D01*
X267675Y311939D01*
X267748Y311869D01*
X267819Y311797D01*
X267887Y311722D01*
X267952Y311644D01*
X268014Y311564D01*
X268073Y311482D01*
X268129Y311397D01*
X268181Y311310D01*
X268230Y311222D01*
X268276Y311131D01*
X268317Y311039D01*
X268356Y310945D01*
X268390Y310850D01*
X268421Y310754D01*
X268448Y310656D01*
X268472Y310558D01*
X268491Y310458D01*
X268507Y310358D01*
X268519Y310258D01*
X268527Y310157D01*
X268531Y310056D01*
X268531Y309954D01*
X268527Y309853D01*
X268519Y309752D01*
X268507Y309652D01*
X268491Y309552D01*
X268472Y309452D01*
X268448Y309354D01*
X268421Y309256D01*
X268390Y309160D01*
X268356Y309065D01*
X268317Y308971D01*
X268276Y308879D01*
X268230Y308788D01*
X268181Y308700D01*
X268129Y308613D01*
X268073Y308528D01*
X268014Y308446D01*
X267952Y308366D01*
X267887Y308288D01*
X267819Y308213D01*
X267748Y308141D01*
X267675Y308071D01*
X267598Y308005D01*
X267520Y307941D01*
X267438Y307881D01*
X267355Y307824D01*
X267269Y307770D01*
X267181Y307719D01*
X267092Y307672D01*
X267000Y307628D01*
X266907Y307588D01*
X266813Y307551D01*
X266717Y307519D01*
X266620Y307490D01*
X266522Y307464D01*
X266423Y307443D01*
X266323Y307425D01*
X266223Y307412D01*
X266122Y307402D01*
X266021Y307396D01*
X265920Y307394D01*
X265920Y307395D02*
X263309Y307395D01*
X266442Y307395D02*
X268530Y303218D01*
X272396Y303218D02*
X275529Y303218D01*
X275618Y303220D01*
X275706Y303226D01*
X275794Y303235D01*
X275882Y303248D01*
X275969Y303265D01*
X276055Y303285D01*
X276140Y303310D01*
X276225Y303337D01*
X276308Y303369D01*
X276389Y303403D01*
X276469Y303442D01*
X276547Y303483D01*
X276624Y303528D01*
X276698Y303576D01*
X276771Y303627D01*
X276841Y303681D01*
X276908Y303739D01*
X276974Y303799D01*
X277036Y303861D01*
X277096Y303927D01*
X277154Y303994D01*
X277208Y304064D01*
X277259Y304137D01*
X277307Y304211D01*
X277352Y304288D01*
X277393Y304366D01*
X277432Y304446D01*
X277466Y304527D01*
X277498Y304610D01*
X277525Y304695D01*
X277550Y304780D01*
X277570Y304866D01*
X277587Y304953D01*
X277600Y305041D01*
X277609Y305129D01*
X277615Y305217D01*
X277617Y305306D01*
X277617Y306350D01*
X277615Y306439D01*
X277609Y306527D01*
X277600Y306615D01*
X277587Y306703D01*
X277570Y306790D01*
X277550Y306876D01*
X277525Y306961D01*
X277498Y307046D01*
X277466Y307129D01*
X277432Y307210D01*
X277393Y307290D01*
X277352Y307368D01*
X277307Y307445D01*
X277259Y307519D01*
X277208Y307592D01*
X277154Y307662D01*
X277096Y307729D01*
X277036Y307795D01*
X276974Y307857D01*
X276908Y307917D01*
X276841Y307975D01*
X276771Y308029D01*
X276698Y308080D01*
X276624Y308128D01*
X276547Y308173D01*
X276469Y308214D01*
X276389Y308253D01*
X276308Y308287D01*
X276225Y308319D01*
X276140Y308346D01*
X276055Y308371D01*
X275969Y308391D01*
X275882Y308408D01*
X275794Y308421D01*
X275706Y308430D01*
X275618Y308436D01*
X275529Y308438D01*
X275529Y308439D02*
X272396Y308439D01*
X272396Y312616D01*
X277617Y312616D01*
X294505Y322991D02*
X303903Y322991D01*
X294505Y322991D02*
X294505Y325602D01*
X294507Y325703D01*
X294513Y325804D01*
X294523Y325905D01*
X294536Y326005D01*
X294554Y326105D01*
X294575Y326204D01*
X294601Y326302D01*
X294630Y326399D01*
X294662Y326495D01*
X294699Y326589D01*
X294739Y326682D01*
X294783Y326774D01*
X294830Y326863D01*
X294881Y326951D01*
X294935Y327037D01*
X294992Y327120D01*
X295052Y327202D01*
X295116Y327280D01*
X295182Y327357D01*
X295252Y327430D01*
X295324Y327501D01*
X295399Y327569D01*
X295477Y327634D01*
X295557Y327696D01*
X295639Y327755D01*
X295724Y327811D01*
X295811Y327863D01*
X295899Y327912D01*
X295990Y327958D01*
X296082Y327999D01*
X296176Y328038D01*
X296271Y328072D01*
X296367Y328103D01*
X296465Y328130D01*
X296563Y328154D01*
X296663Y328173D01*
X296763Y328189D01*
X296863Y328201D01*
X296964Y328209D01*
X297065Y328213D01*
X297167Y328213D01*
X297268Y328209D01*
X297369Y328201D01*
X297469Y328189D01*
X297569Y328173D01*
X297669Y328154D01*
X297767Y328130D01*
X297865Y328103D01*
X297961Y328072D01*
X298056Y328038D01*
X298150Y327999D01*
X298242Y327958D01*
X298333Y327912D01*
X298422Y327863D01*
X298508Y327811D01*
X298593Y327755D01*
X298675Y327696D01*
X298755Y327634D01*
X298833Y327569D01*
X298908Y327501D01*
X298980Y327430D01*
X299050Y327357D01*
X299116Y327280D01*
X299180Y327202D01*
X299240Y327120D01*
X299297Y327037D01*
X299351Y326951D01*
X299402Y326863D01*
X299449Y326774D01*
X299493Y326682D01*
X299533Y326589D01*
X299570Y326495D01*
X299602Y326399D01*
X299631Y326302D01*
X299657Y326204D01*
X299678Y326105D01*
X299696Y326005D01*
X299709Y325905D01*
X299719Y325804D01*
X299725Y325703D01*
X299727Y325602D01*
X299727Y322991D01*
X299727Y326124D02*
X303903Y328213D01*
X298682Y332078D02*
X298682Y335211D01*
X298683Y335211D02*
X298685Y335300D01*
X298691Y335388D01*
X298700Y335476D01*
X298713Y335564D01*
X298730Y335651D01*
X298750Y335737D01*
X298775Y335822D01*
X298802Y335907D01*
X298834Y335990D01*
X298868Y336071D01*
X298907Y336151D01*
X298948Y336229D01*
X298993Y336306D01*
X299041Y336380D01*
X299092Y336453D01*
X299146Y336523D01*
X299204Y336590D01*
X299264Y336656D01*
X299326Y336718D01*
X299392Y336778D01*
X299459Y336836D01*
X299529Y336890D01*
X299602Y336941D01*
X299676Y336989D01*
X299753Y337034D01*
X299831Y337075D01*
X299911Y337114D01*
X299992Y337148D01*
X300075Y337180D01*
X300160Y337207D01*
X300245Y337232D01*
X300331Y337252D01*
X300418Y337269D01*
X300506Y337282D01*
X300594Y337291D01*
X300682Y337297D01*
X300771Y337299D01*
X301293Y337299D01*
X301293Y337300D02*
X301394Y337298D01*
X301495Y337292D01*
X301596Y337282D01*
X301696Y337269D01*
X301796Y337251D01*
X301895Y337230D01*
X301993Y337204D01*
X302090Y337175D01*
X302186Y337143D01*
X302280Y337106D01*
X302373Y337066D01*
X302465Y337022D01*
X302554Y336975D01*
X302642Y336924D01*
X302728Y336870D01*
X302811Y336813D01*
X302893Y336753D01*
X302971Y336689D01*
X303048Y336623D01*
X303121Y336553D01*
X303192Y336481D01*
X303260Y336406D01*
X303325Y336328D01*
X303387Y336248D01*
X303446Y336166D01*
X303502Y336081D01*
X303554Y335994D01*
X303603Y335906D01*
X303649Y335815D01*
X303690Y335723D01*
X303729Y335629D01*
X303763Y335534D01*
X303794Y335438D01*
X303821Y335340D01*
X303845Y335242D01*
X303864Y335142D01*
X303880Y335042D01*
X303892Y334942D01*
X303900Y334841D01*
X303904Y334740D01*
X303904Y334638D01*
X303900Y334537D01*
X303892Y334436D01*
X303880Y334336D01*
X303864Y334236D01*
X303845Y334136D01*
X303821Y334038D01*
X303794Y333940D01*
X303763Y333844D01*
X303729Y333749D01*
X303690Y333655D01*
X303649Y333563D01*
X303603Y333472D01*
X303554Y333384D01*
X303502Y333297D01*
X303446Y333212D01*
X303387Y333130D01*
X303325Y333050D01*
X303260Y332972D01*
X303192Y332897D01*
X303121Y332825D01*
X303048Y332755D01*
X302971Y332689D01*
X302893Y332625D01*
X302811Y332565D01*
X302728Y332508D01*
X302642Y332454D01*
X302554Y332403D01*
X302465Y332356D01*
X302373Y332312D01*
X302280Y332272D01*
X302186Y332235D01*
X302090Y332203D01*
X301993Y332174D01*
X301895Y332148D01*
X301796Y332127D01*
X301696Y332109D01*
X301596Y332096D01*
X301495Y332086D01*
X301394Y332080D01*
X301293Y332078D01*
X298682Y332078D01*
X298553Y332080D01*
X298425Y332086D01*
X298297Y332096D01*
X298169Y332110D01*
X298041Y332127D01*
X297914Y332149D01*
X297788Y332175D01*
X297663Y332204D01*
X297539Y332237D01*
X297416Y332275D01*
X297294Y332315D01*
X297173Y332360D01*
X297054Y332408D01*
X296936Y332460D01*
X296820Y332516D01*
X296706Y332575D01*
X296594Y332638D01*
X296483Y332704D01*
X296375Y332773D01*
X296269Y332846D01*
X296165Y332922D01*
X296063Y333001D01*
X295964Y333083D01*
X295868Y333168D01*
X295774Y333256D01*
X295683Y333347D01*
X295595Y333441D01*
X295510Y333537D01*
X295428Y333636D01*
X295349Y333738D01*
X295273Y333842D01*
X295200Y333948D01*
X295131Y334056D01*
X295065Y334166D01*
X295002Y334279D01*
X294943Y334393D01*
X294887Y334509D01*
X294835Y334627D01*
X294787Y334746D01*
X294742Y334867D01*
X294702Y334989D01*
X294664Y335112D01*
X294631Y335236D01*
X294602Y335361D01*
X294576Y335487D01*
X294554Y335614D01*
X294537Y335742D01*
X294523Y335870D01*
X294513Y335998D01*
X294507Y336126D01*
X294505Y336255D01*
X322153Y312009D02*
X322153Y302611D01*
X322153Y312009D02*
X324764Y312009D01*
X324865Y312007D01*
X324966Y312001D01*
X325067Y311991D01*
X325167Y311978D01*
X325267Y311960D01*
X325366Y311939D01*
X325464Y311913D01*
X325561Y311884D01*
X325657Y311852D01*
X325751Y311815D01*
X325844Y311775D01*
X325936Y311731D01*
X326025Y311684D01*
X326113Y311633D01*
X326199Y311579D01*
X326282Y311522D01*
X326364Y311462D01*
X326442Y311398D01*
X326519Y311332D01*
X326592Y311262D01*
X326663Y311190D01*
X326731Y311115D01*
X326796Y311037D01*
X326858Y310957D01*
X326917Y310875D01*
X326973Y310790D01*
X327025Y310703D01*
X327074Y310615D01*
X327120Y310524D01*
X327161Y310432D01*
X327200Y310338D01*
X327234Y310243D01*
X327265Y310147D01*
X327292Y310049D01*
X327316Y309951D01*
X327335Y309851D01*
X327351Y309751D01*
X327363Y309651D01*
X327371Y309550D01*
X327375Y309449D01*
X327375Y309347D01*
X327371Y309246D01*
X327363Y309145D01*
X327351Y309045D01*
X327335Y308945D01*
X327316Y308845D01*
X327292Y308747D01*
X327265Y308649D01*
X327234Y308553D01*
X327200Y308458D01*
X327161Y308364D01*
X327120Y308272D01*
X327074Y308181D01*
X327025Y308093D01*
X326973Y308006D01*
X326917Y307921D01*
X326858Y307839D01*
X326796Y307759D01*
X326731Y307681D01*
X326663Y307606D01*
X326592Y307534D01*
X326519Y307464D01*
X326442Y307398D01*
X326364Y307334D01*
X326282Y307274D01*
X326199Y307217D01*
X326113Y307163D01*
X326025Y307112D01*
X325936Y307065D01*
X325844Y307021D01*
X325751Y306981D01*
X325657Y306944D01*
X325561Y306912D01*
X325464Y306883D01*
X325366Y306857D01*
X325267Y306836D01*
X325167Y306818D01*
X325067Y306805D01*
X324966Y306795D01*
X324865Y306789D01*
X324764Y306787D01*
X322153Y306787D01*
X325286Y306787D02*
X327374Y302611D01*
X331240Y310964D02*
X331240Y312009D01*
X336461Y312009D01*
X333851Y302611D01*
M02*
