G04 EAGLE Gerber RS-274X export*
G75*
%MOMM*%
%FSLAX34Y34*%
%LPD*%
%INSilkscreen Bottom*%
%IPPOS*%
%AMOC8*
5,1,8,0,0,1.08239X$1,22.5*%
G01*
%ADD10C,0.152400*%
%ADD11C,0.101600*%
%ADD12C,0.076200*%
%ADD13C,0.127000*%
%ADD14C,0.254000*%


D10*
X423225Y448155D02*
X418286Y448155D01*
X418146Y448153D01*
X418007Y448147D01*
X417867Y448137D01*
X417728Y448123D01*
X417589Y448106D01*
X417451Y448084D01*
X417314Y448058D01*
X417177Y448029D01*
X417041Y447996D01*
X416907Y447959D01*
X416773Y447918D01*
X416641Y447873D01*
X416509Y447824D01*
X416380Y447772D01*
X416252Y447717D01*
X416125Y447657D01*
X416000Y447594D01*
X415877Y447528D01*
X415756Y447458D01*
X415637Y447385D01*
X415520Y447308D01*
X415406Y447228D01*
X415293Y447145D01*
X415183Y447059D01*
X415076Y446969D01*
X414971Y446877D01*
X414869Y446782D01*
X414769Y446684D01*
X414672Y446583D01*
X414578Y446479D01*
X414488Y446373D01*
X414400Y446264D01*
X414315Y446153D01*
X414234Y446039D01*
X414155Y445924D01*
X414080Y445806D01*
X414009Y445686D01*
X413941Y445563D01*
X413876Y445440D01*
X413815Y445314D01*
X413757Y445186D01*
X413703Y445058D01*
X413653Y444927D01*
X413606Y444795D01*
X413563Y444662D01*
X413524Y444528D01*
X413489Y444393D01*
X413458Y444257D01*
X413430Y444119D01*
X413407Y443982D01*
X413387Y443843D01*
X413371Y443704D01*
X413359Y443565D01*
X413351Y443426D01*
X413347Y443286D01*
X413347Y443146D01*
X413351Y443006D01*
X413359Y442867D01*
X413371Y442728D01*
X413387Y442589D01*
X413407Y442450D01*
X413430Y442313D01*
X413458Y442175D01*
X413489Y442039D01*
X413524Y441904D01*
X413563Y441770D01*
X413606Y441637D01*
X413653Y441505D01*
X413703Y441374D01*
X413757Y441246D01*
X413815Y441118D01*
X413876Y440992D01*
X413941Y440869D01*
X414009Y440747D01*
X414080Y440626D01*
X414155Y440508D01*
X414234Y440393D01*
X414315Y440279D01*
X414400Y440168D01*
X414488Y440059D01*
X414578Y439953D01*
X414672Y439849D01*
X414769Y439748D01*
X414869Y439650D01*
X414971Y439555D01*
X415076Y439463D01*
X415183Y439373D01*
X415293Y439287D01*
X415406Y439204D01*
X415520Y439124D01*
X415637Y439047D01*
X415756Y438974D01*
X415877Y438904D01*
X416000Y438838D01*
X416125Y438775D01*
X416252Y438715D01*
X416380Y438660D01*
X416509Y438608D01*
X416641Y438559D01*
X416773Y438514D01*
X416907Y438473D01*
X417041Y438436D01*
X417177Y438403D01*
X417314Y438374D01*
X417451Y438348D01*
X417589Y438326D01*
X417728Y438309D01*
X417867Y438295D01*
X418007Y438285D01*
X418146Y438279D01*
X418286Y438277D01*
X423225Y438277D01*
X423225Y456057D01*
X418286Y456057D01*
X418162Y456055D01*
X418038Y456049D01*
X417914Y456039D01*
X417791Y456026D01*
X417668Y456008D01*
X417546Y455987D01*
X417424Y455962D01*
X417303Y455933D01*
X417184Y455900D01*
X417065Y455864D01*
X416948Y455823D01*
X416832Y455780D01*
X416717Y455732D01*
X416604Y455681D01*
X416492Y455626D01*
X416383Y455568D01*
X416275Y455507D01*
X416169Y455442D01*
X416065Y455374D01*
X415964Y455302D01*
X415864Y455228D01*
X415768Y455150D01*
X415673Y455070D01*
X415581Y454986D01*
X415492Y454900D01*
X415406Y454811D01*
X415322Y454719D01*
X415242Y454624D01*
X415164Y454528D01*
X415090Y454428D01*
X415018Y454327D01*
X414950Y454223D01*
X414885Y454117D01*
X414824Y454009D01*
X414766Y453900D01*
X414711Y453788D01*
X414660Y453675D01*
X414612Y453560D01*
X414569Y453444D01*
X414528Y453327D01*
X414492Y453208D01*
X414459Y453089D01*
X414430Y452968D01*
X414405Y452846D01*
X414384Y452724D01*
X414366Y452601D01*
X414353Y452478D01*
X414343Y452354D01*
X414337Y452230D01*
X414335Y452106D01*
X414337Y451982D01*
X414343Y451858D01*
X414353Y451734D01*
X414366Y451611D01*
X414384Y451488D01*
X414405Y451366D01*
X414430Y451244D01*
X414459Y451123D01*
X414492Y451004D01*
X414528Y450885D01*
X414569Y450768D01*
X414612Y450652D01*
X414660Y450537D01*
X414711Y450424D01*
X414766Y450312D01*
X414824Y450203D01*
X414885Y450095D01*
X414950Y449989D01*
X415018Y449885D01*
X415090Y449784D01*
X415164Y449684D01*
X415242Y449588D01*
X415322Y449493D01*
X415406Y449401D01*
X415492Y449312D01*
X415581Y449226D01*
X415673Y449142D01*
X415768Y449062D01*
X415864Y448984D01*
X415964Y448910D01*
X416065Y448838D01*
X416169Y448770D01*
X416275Y448705D01*
X416383Y448644D01*
X416492Y448586D01*
X416604Y448531D01*
X416717Y448480D01*
X416832Y448432D01*
X416948Y448389D01*
X417065Y448348D01*
X417184Y448312D01*
X417303Y448279D01*
X417424Y448250D01*
X417546Y448225D01*
X417668Y448204D01*
X417791Y448186D01*
X417914Y448173D01*
X418038Y448163D01*
X418162Y448157D01*
X418286Y448155D01*
X467789Y389788D02*
X467789Y372008D01*
X467789Y389788D02*
X462850Y389788D01*
X462850Y389789D02*
X462710Y389787D01*
X462571Y389781D01*
X462431Y389771D01*
X462292Y389757D01*
X462153Y389740D01*
X462015Y389718D01*
X461878Y389692D01*
X461741Y389663D01*
X461605Y389630D01*
X461471Y389593D01*
X461337Y389552D01*
X461205Y389507D01*
X461073Y389458D01*
X460944Y389406D01*
X460816Y389351D01*
X460689Y389291D01*
X460564Y389228D01*
X460441Y389162D01*
X460320Y389092D01*
X460201Y389019D01*
X460084Y388942D01*
X459970Y388862D01*
X459857Y388779D01*
X459747Y388693D01*
X459640Y388603D01*
X459535Y388511D01*
X459433Y388416D01*
X459333Y388318D01*
X459236Y388217D01*
X459142Y388113D01*
X459052Y388007D01*
X458964Y387898D01*
X458879Y387787D01*
X458798Y387673D01*
X458719Y387558D01*
X458644Y387440D01*
X458573Y387320D01*
X458505Y387197D01*
X458440Y387074D01*
X458379Y386948D01*
X458321Y386820D01*
X458267Y386692D01*
X458217Y386561D01*
X458170Y386429D01*
X458127Y386296D01*
X458088Y386162D01*
X458053Y386027D01*
X458022Y385891D01*
X457994Y385753D01*
X457971Y385616D01*
X457951Y385477D01*
X457935Y385338D01*
X457923Y385199D01*
X457915Y385060D01*
X457911Y384920D01*
X457911Y384780D01*
X457915Y384640D01*
X457923Y384501D01*
X457935Y384362D01*
X457951Y384223D01*
X457971Y384084D01*
X457994Y383947D01*
X458022Y383809D01*
X458053Y383673D01*
X458088Y383538D01*
X458127Y383404D01*
X458170Y383271D01*
X458217Y383139D01*
X458267Y383008D01*
X458321Y382880D01*
X458379Y382752D01*
X458440Y382626D01*
X458505Y382503D01*
X458573Y382381D01*
X458644Y382260D01*
X458719Y382142D01*
X458798Y382027D01*
X458879Y381913D01*
X458964Y381802D01*
X459052Y381693D01*
X459142Y381587D01*
X459236Y381483D01*
X459333Y381382D01*
X459433Y381284D01*
X459535Y381189D01*
X459640Y381097D01*
X459747Y381007D01*
X459857Y380921D01*
X459970Y380838D01*
X460084Y380758D01*
X460201Y380681D01*
X460320Y380608D01*
X460441Y380538D01*
X460564Y380472D01*
X460689Y380409D01*
X460816Y380349D01*
X460944Y380294D01*
X461073Y380242D01*
X461205Y380193D01*
X461337Y380148D01*
X461471Y380107D01*
X461605Y380070D01*
X461741Y380037D01*
X461878Y380008D01*
X462015Y379982D01*
X462153Y379960D01*
X462292Y379943D01*
X462431Y379929D01*
X462571Y379919D01*
X462710Y379913D01*
X462850Y379911D01*
X467789Y379911D01*
X461862Y379911D02*
X457911Y372008D01*
X301025Y411645D02*
X301025Y429425D01*
X296086Y429425D01*
X295947Y429423D01*
X295809Y429417D01*
X295671Y429408D01*
X295533Y429394D01*
X295396Y429377D01*
X295259Y429355D01*
X295122Y429330D01*
X294987Y429301D01*
X294852Y429268D01*
X294719Y429232D01*
X294586Y429192D01*
X294455Y429148D01*
X294325Y429100D01*
X294196Y429049D01*
X294069Y428994D01*
X293943Y428936D01*
X293819Y428874D01*
X293697Y428809D01*
X293577Y428740D01*
X293458Y428668D01*
X293342Y428593D01*
X293228Y428514D01*
X293116Y428432D01*
X293007Y428347D01*
X292899Y428260D01*
X292795Y428169D01*
X292693Y428075D01*
X292594Y427978D01*
X292497Y427879D01*
X292403Y427777D01*
X292312Y427673D01*
X292225Y427565D01*
X292140Y427456D01*
X292058Y427344D01*
X291979Y427230D01*
X291904Y427114D01*
X291832Y426995D01*
X291763Y426875D01*
X291698Y426753D01*
X291636Y426629D01*
X291578Y426503D01*
X291523Y426376D01*
X291472Y426247D01*
X291424Y426117D01*
X291380Y425986D01*
X291340Y425853D01*
X291304Y425720D01*
X291271Y425585D01*
X291242Y425450D01*
X291217Y425313D01*
X291195Y425176D01*
X291178Y425039D01*
X291164Y424901D01*
X291155Y424763D01*
X291149Y424625D01*
X291147Y424486D01*
X291147Y416584D01*
X291149Y416445D01*
X291155Y416307D01*
X291164Y416169D01*
X291178Y416031D01*
X291195Y415894D01*
X291217Y415757D01*
X291242Y415620D01*
X291271Y415485D01*
X291304Y415350D01*
X291340Y415217D01*
X291380Y415084D01*
X291424Y414953D01*
X291472Y414823D01*
X291523Y414694D01*
X291578Y414567D01*
X291636Y414441D01*
X291698Y414317D01*
X291763Y414195D01*
X291832Y414075D01*
X291904Y413956D01*
X291979Y413840D01*
X292058Y413726D01*
X292140Y413614D01*
X292225Y413505D01*
X292312Y413397D01*
X292403Y413293D01*
X292497Y413191D01*
X292594Y413092D01*
X292693Y412995D01*
X292795Y412901D01*
X292899Y412810D01*
X293007Y412723D01*
X293116Y412638D01*
X293228Y412556D01*
X293342Y412477D01*
X293458Y412402D01*
X293577Y412330D01*
X293697Y412261D01*
X293819Y412196D01*
X293943Y412134D01*
X294069Y412076D01*
X294196Y412021D01*
X294325Y411970D01*
X294455Y411922D01*
X294586Y411878D01*
X294719Y411838D01*
X294852Y411802D01*
X294987Y411769D01*
X295122Y411740D01*
X295259Y411715D01*
X295396Y411693D01*
X295533Y411676D01*
X295671Y411662D01*
X295809Y411653D01*
X295947Y411647D01*
X296086Y411645D01*
X301025Y411645D01*
X297080Y436270D02*
X293129Y436270D01*
X297080Y436271D02*
X297204Y436273D01*
X297328Y436279D01*
X297452Y436289D01*
X297575Y436302D01*
X297698Y436320D01*
X297820Y436341D01*
X297942Y436366D01*
X298063Y436395D01*
X298182Y436428D01*
X298301Y436464D01*
X298418Y436505D01*
X298534Y436548D01*
X298649Y436596D01*
X298762Y436647D01*
X298874Y436702D01*
X298983Y436760D01*
X299091Y436821D01*
X299197Y436886D01*
X299301Y436954D01*
X299402Y437026D01*
X299502Y437100D01*
X299598Y437178D01*
X299693Y437258D01*
X299785Y437342D01*
X299874Y437428D01*
X299960Y437517D01*
X300044Y437609D01*
X300124Y437704D01*
X300202Y437800D01*
X300276Y437900D01*
X300348Y438001D01*
X300416Y438105D01*
X300481Y438211D01*
X300542Y438319D01*
X300600Y438428D01*
X300655Y438540D01*
X300706Y438653D01*
X300754Y438768D01*
X300797Y438884D01*
X300838Y439001D01*
X300874Y439120D01*
X300907Y439239D01*
X300936Y439360D01*
X300961Y439482D01*
X300982Y439604D01*
X301000Y439727D01*
X301013Y439850D01*
X301023Y439974D01*
X301029Y440098D01*
X301031Y440222D01*
X301031Y450099D01*
X301029Y450223D01*
X301023Y450347D01*
X301013Y450471D01*
X301000Y450594D01*
X300982Y450717D01*
X300961Y450839D01*
X300936Y450961D01*
X300907Y451082D01*
X300874Y451201D01*
X300838Y451320D01*
X300797Y451437D01*
X300754Y451553D01*
X300706Y451668D01*
X300655Y451781D01*
X300600Y451893D01*
X300542Y452002D01*
X300481Y452110D01*
X300416Y452216D01*
X300348Y452320D01*
X300276Y452421D01*
X300202Y452521D01*
X300124Y452617D01*
X300044Y452712D01*
X299960Y452804D01*
X299874Y452893D01*
X299785Y452979D01*
X299693Y453063D01*
X299598Y453143D01*
X299502Y453221D01*
X299402Y453295D01*
X299301Y453367D01*
X299197Y453435D01*
X299091Y453500D01*
X298983Y453561D01*
X298874Y453619D01*
X298762Y453674D01*
X298649Y453725D01*
X298535Y453773D01*
X298418Y453816D01*
X298301Y453857D01*
X298182Y453893D01*
X298063Y453926D01*
X297942Y453955D01*
X297820Y453980D01*
X297698Y454001D01*
X297575Y454019D01*
X297452Y454032D01*
X297328Y454042D01*
X297204Y454048D01*
X297080Y454050D01*
X293129Y454050D01*
D11*
X426501Y467300D02*
X428096Y466183D01*
X426501Y467300D02*
X422778Y461983D01*
X425968Y459749D01*
X426051Y459694D01*
X426135Y459642D01*
X426222Y459593D01*
X426310Y459547D01*
X426400Y459505D01*
X426492Y459466D01*
X426585Y459431D01*
X426679Y459399D01*
X426774Y459371D01*
X426871Y459347D01*
X426968Y459326D01*
X427066Y459310D01*
X427165Y459296D01*
X427264Y459287D01*
X427363Y459282D01*
X427463Y459280D01*
X427562Y459282D01*
X427661Y459288D01*
X427760Y459298D01*
X427859Y459311D01*
X427957Y459329D01*
X428054Y459350D01*
X428150Y459374D01*
X428246Y459403D01*
X428340Y459435D01*
X428433Y459470D01*
X428524Y459509D01*
X428614Y459552D01*
X428702Y459598D01*
X428788Y459647D01*
X428873Y459700D01*
X428955Y459756D01*
X429035Y459815D01*
X429113Y459877D01*
X429188Y459942D01*
X429261Y460009D01*
X429331Y460080D01*
X429399Y460153D01*
X429463Y460229D01*
X429525Y460307D01*
X429584Y460387D01*
X433307Y465704D01*
X433362Y465787D01*
X433414Y465871D01*
X433463Y465958D01*
X433509Y466046D01*
X433551Y466136D01*
X433590Y466228D01*
X433625Y466321D01*
X433657Y466415D01*
X433685Y466510D01*
X433709Y466607D01*
X433730Y466704D01*
X433746Y466802D01*
X433760Y466901D01*
X433769Y467000D01*
X433774Y467099D01*
X433776Y467199D01*
X433774Y467298D01*
X433768Y467397D01*
X433758Y467496D01*
X433745Y467595D01*
X433727Y467693D01*
X433706Y467790D01*
X433682Y467886D01*
X433653Y467982D01*
X433621Y468076D01*
X433586Y468169D01*
X433547Y468260D01*
X433504Y468350D01*
X433458Y468438D01*
X433409Y468524D01*
X433356Y468609D01*
X433300Y468691D01*
X433241Y468771D01*
X433179Y468849D01*
X433114Y468924D01*
X433047Y468997D01*
X432976Y469067D01*
X432903Y469135D01*
X432827Y469199D01*
X432749Y469261D01*
X432669Y469320D01*
X432670Y469320D02*
X429479Y471554D01*
X424810Y474824D02*
X418108Y465253D01*
X412791Y468976D02*
X424810Y474824D01*
X419492Y478547D02*
X412791Y468976D01*
X408121Y472246D02*
X414822Y481817D01*
X412164Y483678D01*
X412164Y483679D02*
X412070Y483742D01*
X411974Y483802D01*
X411876Y483859D01*
X411776Y483912D01*
X411674Y483962D01*
X411570Y484008D01*
X411465Y484050D01*
X411359Y484089D01*
X411251Y484124D01*
X411142Y484155D01*
X411032Y484183D01*
X410921Y484206D01*
X410810Y484226D01*
X410698Y484242D01*
X410585Y484254D01*
X410472Y484262D01*
X410359Y484266D01*
X410245Y484266D01*
X410132Y484262D01*
X410019Y484254D01*
X409906Y484242D01*
X409794Y484226D01*
X409683Y484206D01*
X409572Y484183D01*
X409462Y484155D01*
X409353Y484124D01*
X409245Y484089D01*
X409139Y484050D01*
X409034Y484008D01*
X408930Y483962D01*
X408828Y483912D01*
X408728Y483859D01*
X408630Y483802D01*
X408534Y483742D01*
X408440Y483679D01*
X408349Y483612D01*
X408259Y483543D01*
X408172Y483470D01*
X408088Y483394D01*
X408007Y483315D01*
X407928Y483234D01*
X407852Y483150D01*
X407779Y483063D01*
X407710Y482974D01*
X407643Y482882D01*
X407644Y482881D02*
X404665Y478628D01*
X404602Y478534D01*
X404542Y478438D01*
X404485Y478340D01*
X404432Y478240D01*
X404382Y478138D01*
X404336Y478034D01*
X404294Y477929D01*
X404255Y477823D01*
X404220Y477715D01*
X404189Y477606D01*
X404161Y477496D01*
X404138Y477385D01*
X404118Y477274D01*
X404102Y477162D01*
X404090Y477049D01*
X404082Y476936D01*
X404078Y476823D01*
X404078Y476709D01*
X404082Y476596D01*
X404090Y476483D01*
X404102Y476370D01*
X404118Y476258D01*
X404138Y476147D01*
X404161Y476036D01*
X404189Y475926D01*
X404220Y475817D01*
X404255Y475709D01*
X404294Y475603D01*
X404336Y475498D01*
X404382Y475394D01*
X404432Y475292D01*
X404485Y475192D01*
X404542Y475094D01*
X404602Y474998D01*
X404665Y474904D01*
X404732Y474812D01*
X404801Y474723D01*
X404874Y474636D01*
X404950Y474552D01*
X405029Y474471D01*
X405110Y474392D01*
X405194Y474316D01*
X405281Y474243D01*
X405371Y474174D01*
X405462Y474107D01*
X408121Y472246D01*
X492049Y337254D02*
X492049Y335306D01*
X492049Y337254D02*
X485558Y337254D01*
X485558Y333359D01*
X485560Y333260D01*
X485566Y333160D01*
X485575Y333061D01*
X485588Y332963D01*
X485605Y332865D01*
X485626Y332767D01*
X485651Y332671D01*
X485679Y332576D01*
X485711Y332482D01*
X485746Y332389D01*
X485785Y332297D01*
X485828Y332207D01*
X485873Y332119D01*
X485923Y332032D01*
X485975Y331948D01*
X486031Y331865D01*
X486089Y331785D01*
X486151Y331707D01*
X486216Y331632D01*
X486284Y331559D01*
X486354Y331489D01*
X486427Y331421D01*
X486502Y331356D01*
X486580Y331294D01*
X486660Y331236D01*
X486743Y331180D01*
X486827Y331128D01*
X486914Y331078D01*
X487002Y331033D01*
X487092Y330990D01*
X487184Y330951D01*
X487277Y330916D01*
X487371Y330884D01*
X487466Y330856D01*
X487562Y330831D01*
X487660Y330810D01*
X487758Y330793D01*
X487856Y330780D01*
X487955Y330771D01*
X488055Y330765D01*
X488154Y330763D01*
X494646Y330763D01*
X494745Y330765D01*
X494845Y330771D01*
X494944Y330780D01*
X495042Y330793D01*
X495140Y330810D01*
X495238Y330831D01*
X495334Y330856D01*
X495429Y330884D01*
X495523Y330916D01*
X495616Y330951D01*
X495708Y330990D01*
X495798Y331033D01*
X495886Y331078D01*
X495973Y331128D01*
X496057Y331180D01*
X496140Y331236D01*
X496220Y331294D01*
X496298Y331356D01*
X496373Y331421D01*
X496446Y331489D01*
X496516Y331559D01*
X496584Y331632D01*
X496649Y331707D01*
X496711Y331785D01*
X496769Y331865D01*
X496825Y331948D01*
X496877Y332032D01*
X496927Y332119D01*
X496972Y332207D01*
X497015Y332297D01*
X497054Y332389D01*
X497089Y332481D01*
X497121Y332576D01*
X497149Y332671D01*
X497174Y332767D01*
X497195Y332865D01*
X497212Y332963D01*
X497225Y333061D01*
X497234Y333160D01*
X497240Y333260D01*
X497242Y333359D01*
X497242Y337254D01*
X497242Y342954D02*
X485558Y342954D01*
X485558Y349446D02*
X497242Y342954D01*
X497242Y349446D02*
X485558Y349446D01*
X485558Y355146D02*
X497242Y355146D01*
X497242Y358392D01*
X497240Y358505D01*
X497234Y358618D01*
X497224Y358731D01*
X497210Y358844D01*
X497193Y358956D01*
X497171Y359067D01*
X497146Y359177D01*
X497116Y359287D01*
X497083Y359395D01*
X497046Y359502D01*
X497006Y359608D01*
X496961Y359712D01*
X496913Y359815D01*
X496862Y359916D01*
X496807Y360015D01*
X496749Y360112D01*
X496687Y360207D01*
X496622Y360300D01*
X496554Y360390D01*
X496483Y360478D01*
X496408Y360564D01*
X496331Y360647D01*
X496251Y360727D01*
X496168Y360804D01*
X496082Y360879D01*
X495994Y360950D01*
X495904Y361018D01*
X495811Y361083D01*
X495716Y361145D01*
X495619Y361203D01*
X495520Y361258D01*
X495419Y361309D01*
X495316Y361357D01*
X495212Y361402D01*
X495106Y361442D01*
X494999Y361479D01*
X494891Y361512D01*
X494781Y361542D01*
X494671Y361567D01*
X494560Y361589D01*
X494448Y361606D01*
X494335Y361620D01*
X494222Y361630D01*
X494109Y361636D01*
X493996Y361638D01*
X488804Y361638D01*
X488691Y361636D01*
X488578Y361630D01*
X488465Y361620D01*
X488352Y361606D01*
X488240Y361589D01*
X488129Y361567D01*
X488019Y361542D01*
X487909Y361512D01*
X487801Y361479D01*
X487694Y361442D01*
X487588Y361402D01*
X487484Y361357D01*
X487381Y361309D01*
X487280Y361258D01*
X487181Y361203D01*
X487084Y361145D01*
X486989Y361083D01*
X486896Y361018D01*
X486806Y360950D01*
X486718Y360879D01*
X486632Y360804D01*
X486549Y360727D01*
X486469Y360647D01*
X486392Y360564D01*
X486317Y360478D01*
X486246Y360390D01*
X486178Y360300D01*
X486113Y360207D01*
X486051Y360112D01*
X485993Y360015D01*
X485938Y359916D01*
X485887Y359815D01*
X485839Y359712D01*
X485794Y359608D01*
X485754Y359502D01*
X485717Y359395D01*
X485684Y359287D01*
X485654Y359177D01*
X485629Y359067D01*
X485607Y358956D01*
X485590Y358844D01*
X485576Y358731D01*
X485566Y358618D01*
X485560Y358505D01*
X485558Y358392D01*
X485558Y355146D01*
X427351Y227280D02*
X425756Y226163D01*
X429479Y220846D01*
X432670Y223080D01*
X432669Y223080D02*
X432749Y223139D01*
X432827Y223201D01*
X432903Y223265D01*
X432976Y223333D01*
X433047Y223403D01*
X433114Y223476D01*
X433179Y223551D01*
X433241Y223629D01*
X433300Y223709D01*
X433356Y223791D01*
X433409Y223876D01*
X433458Y223962D01*
X433504Y224050D01*
X433547Y224140D01*
X433586Y224231D01*
X433621Y224324D01*
X433653Y224418D01*
X433682Y224514D01*
X433706Y224610D01*
X433727Y224707D01*
X433745Y224805D01*
X433758Y224904D01*
X433768Y225003D01*
X433774Y225102D01*
X433776Y225201D01*
X433774Y225301D01*
X433769Y225400D01*
X433759Y225499D01*
X433746Y225598D01*
X433730Y225696D01*
X433709Y225793D01*
X433685Y225890D01*
X433657Y225985D01*
X433625Y226079D01*
X433590Y226172D01*
X433551Y226264D01*
X433509Y226354D01*
X433463Y226442D01*
X433414Y226529D01*
X433362Y226613D01*
X433307Y226696D01*
X429584Y232013D01*
X429525Y232093D01*
X429463Y232171D01*
X429399Y232247D01*
X429331Y232320D01*
X429261Y232391D01*
X429188Y232458D01*
X429113Y232523D01*
X429035Y232585D01*
X428955Y232644D01*
X428873Y232700D01*
X428788Y232753D01*
X428702Y232802D01*
X428614Y232848D01*
X428524Y232891D01*
X428433Y232930D01*
X428340Y232965D01*
X428246Y232997D01*
X428150Y233026D01*
X428054Y233050D01*
X427957Y233071D01*
X427859Y233089D01*
X427760Y233102D01*
X427661Y233112D01*
X427562Y233118D01*
X427463Y233120D01*
X427363Y233118D01*
X427264Y233113D01*
X427165Y233104D01*
X427066Y233090D01*
X426968Y233074D01*
X426871Y233053D01*
X426774Y233029D01*
X426679Y233001D01*
X426585Y232969D01*
X426492Y232934D01*
X426400Y232895D01*
X426310Y232853D01*
X426222Y232807D01*
X426135Y232758D01*
X426051Y232706D01*
X425968Y232651D01*
X422778Y230417D01*
X418108Y227147D02*
X424809Y217576D01*
X419492Y213853D02*
X418108Y227147D01*
X412791Y223424D02*
X419492Y213853D01*
X414822Y210583D02*
X408121Y220154D01*
X405462Y218292D01*
X405462Y218293D02*
X405371Y218226D01*
X405281Y218157D01*
X405194Y218084D01*
X405110Y218008D01*
X405029Y217929D01*
X404950Y217848D01*
X404874Y217764D01*
X404801Y217677D01*
X404732Y217588D01*
X404665Y217496D01*
X404602Y217402D01*
X404542Y217306D01*
X404485Y217208D01*
X404432Y217108D01*
X404382Y217006D01*
X404336Y216902D01*
X404294Y216797D01*
X404255Y216691D01*
X404220Y216583D01*
X404189Y216474D01*
X404161Y216364D01*
X404138Y216253D01*
X404118Y216142D01*
X404102Y216030D01*
X404090Y215917D01*
X404082Y215804D01*
X404078Y215691D01*
X404078Y215577D01*
X404082Y215464D01*
X404090Y215351D01*
X404102Y215238D01*
X404118Y215126D01*
X404138Y215015D01*
X404161Y214904D01*
X404189Y214794D01*
X404220Y214685D01*
X404255Y214577D01*
X404294Y214471D01*
X404336Y214366D01*
X404382Y214262D01*
X404432Y214160D01*
X404485Y214060D01*
X404542Y213962D01*
X404602Y213866D01*
X404665Y213772D01*
X407644Y209518D01*
X407643Y209518D02*
X407710Y209427D01*
X407779Y209337D01*
X407852Y209250D01*
X407928Y209166D01*
X408007Y209085D01*
X408088Y209006D01*
X408172Y208930D01*
X408259Y208857D01*
X408349Y208788D01*
X408440Y208721D01*
X408534Y208658D01*
X408630Y208598D01*
X408728Y208541D01*
X408828Y208488D01*
X408930Y208438D01*
X409034Y208392D01*
X409139Y208350D01*
X409245Y208311D01*
X409353Y208276D01*
X409462Y208245D01*
X409572Y208217D01*
X409683Y208194D01*
X409794Y208174D01*
X409906Y208158D01*
X410019Y208146D01*
X410132Y208138D01*
X410245Y208134D01*
X410359Y208134D01*
X410472Y208138D01*
X410585Y208146D01*
X410698Y208158D01*
X410810Y208174D01*
X410921Y208194D01*
X411032Y208217D01*
X411142Y208245D01*
X411251Y208276D01*
X411359Y208311D01*
X411465Y208350D01*
X411570Y208392D01*
X411674Y208438D01*
X411776Y208488D01*
X411876Y208541D01*
X411974Y208598D01*
X412070Y208658D01*
X412164Y208721D01*
X414822Y210583D01*
X282896Y214783D02*
X281301Y215900D01*
X277578Y210583D01*
X280768Y208349D01*
X280851Y208294D01*
X280935Y208242D01*
X281022Y208193D01*
X281110Y208147D01*
X281200Y208105D01*
X281292Y208066D01*
X281385Y208031D01*
X281479Y207999D01*
X281574Y207971D01*
X281671Y207947D01*
X281768Y207926D01*
X281866Y207910D01*
X281965Y207896D01*
X282064Y207887D01*
X282163Y207882D01*
X282263Y207880D01*
X282362Y207882D01*
X282461Y207888D01*
X282560Y207898D01*
X282659Y207911D01*
X282757Y207929D01*
X282854Y207950D01*
X282950Y207974D01*
X283046Y208003D01*
X283140Y208035D01*
X283233Y208070D01*
X283324Y208109D01*
X283414Y208152D01*
X283502Y208198D01*
X283588Y208247D01*
X283673Y208300D01*
X283755Y208356D01*
X283835Y208415D01*
X283913Y208477D01*
X283988Y208542D01*
X284061Y208609D01*
X284131Y208680D01*
X284199Y208753D01*
X284263Y208829D01*
X284325Y208907D01*
X284384Y208987D01*
X288107Y214304D01*
X288162Y214387D01*
X288214Y214471D01*
X288263Y214558D01*
X288309Y214646D01*
X288351Y214736D01*
X288390Y214828D01*
X288425Y214921D01*
X288457Y215015D01*
X288485Y215110D01*
X288509Y215207D01*
X288530Y215304D01*
X288546Y215402D01*
X288560Y215501D01*
X288569Y215600D01*
X288574Y215699D01*
X288576Y215799D01*
X288574Y215898D01*
X288568Y215997D01*
X288558Y216096D01*
X288545Y216195D01*
X288527Y216293D01*
X288506Y216390D01*
X288482Y216486D01*
X288453Y216582D01*
X288421Y216676D01*
X288386Y216769D01*
X288347Y216860D01*
X288304Y216950D01*
X288258Y217038D01*
X288209Y217124D01*
X288156Y217209D01*
X288100Y217291D01*
X288041Y217371D01*
X287979Y217449D01*
X287914Y217524D01*
X287847Y217597D01*
X287776Y217667D01*
X287703Y217735D01*
X287627Y217799D01*
X287549Y217861D01*
X287469Y217920D01*
X287470Y217920D02*
X284279Y220154D01*
X279610Y223424D02*
X272908Y213853D01*
X267591Y217576D02*
X279610Y223424D01*
X274292Y227147D02*
X267591Y217576D01*
X262921Y220846D02*
X269622Y230417D01*
X266964Y232278D01*
X266964Y232279D02*
X266870Y232342D01*
X266774Y232402D01*
X266676Y232459D01*
X266576Y232512D01*
X266474Y232562D01*
X266370Y232608D01*
X266265Y232650D01*
X266159Y232689D01*
X266051Y232724D01*
X265942Y232755D01*
X265832Y232783D01*
X265721Y232806D01*
X265610Y232826D01*
X265498Y232842D01*
X265385Y232854D01*
X265272Y232862D01*
X265159Y232866D01*
X265045Y232866D01*
X264932Y232862D01*
X264819Y232854D01*
X264706Y232842D01*
X264594Y232826D01*
X264483Y232806D01*
X264372Y232783D01*
X264262Y232755D01*
X264153Y232724D01*
X264045Y232689D01*
X263939Y232650D01*
X263834Y232608D01*
X263730Y232562D01*
X263628Y232512D01*
X263528Y232459D01*
X263430Y232402D01*
X263334Y232342D01*
X263240Y232279D01*
X263149Y232212D01*
X263059Y232143D01*
X262972Y232070D01*
X262888Y231994D01*
X262807Y231915D01*
X262728Y231834D01*
X262652Y231750D01*
X262579Y231663D01*
X262510Y231574D01*
X262443Y231482D01*
X262444Y231481D02*
X259465Y227228D01*
X259402Y227134D01*
X259342Y227038D01*
X259285Y226940D01*
X259232Y226840D01*
X259182Y226738D01*
X259136Y226634D01*
X259094Y226529D01*
X259055Y226423D01*
X259020Y226315D01*
X258989Y226206D01*
X258961Y226096D01*
X258938Y225985D01*
X258918Y225874D01*
X258902Y225762D01*
X258890Y225649D01*
X258882Y225536D01*
X258878Y225423D01*
X258878Y225309D01*
X258882Y225196D01*
X258890Y225083D01*
X258902Y224970D01*
X258918Y224858D01*
X258938Y224747D01*
X258961Y224636D01*
X258989Y224526D01*
X259020Y224417D01*
X259055Y224309D01*
X259094Y224203D01*
X259136Y224098D01*
X259182Y223994D01*
X259232Y223892D01*
X259285Y223792D01*
X259342Y223694D01*
X259402Y223598D01*
X259465Y223504D01*
X259532Y223412D01*
X259601Y223323D01*
X259674Y223236D01*
X259750Y223152D01*
X259829Y223071D01*
X259910Y222992D01*
X259994Y222916D01*
X260081Y222843D01*
X260171Y222774D01*
X260262Y222707D01*
X262921Y220846D01*
X201649Y335306D02*
X201649Y337254D01*
X195158Y337254D01*
X195158Y333359D01*
X195160Y333260D01*
X195166Y333160D01*
X195175Y333061D01*
X195188Y332963D01*
X195205Y332865D01*
X195226Y332767D01*
X195251Y332671D01*
X195279Y332576D01*
X195311Y332482D01*
X195346Y332389D01*
X195385Y332297D01*
X195428Y332207D01*
X195473Y332119D01*
X195523Y332032D01*
X195575Y331948D01*
X195631Y331865D01*
X195689Y331785D01*
X195751Y331707D01*
X195816Y331632D01*
X195884Y331559D01*
X195954Y331489D01*
X196027Y331421D01*
X196102Y331356D01*
X196180Y331294D01*
X196260Y331236D01*
X196343Y331180D01*
X196427Y331128D01*
X196514Y331078D01*
X196602Y331033D01*
X196692Y330990D01*
X196784Y330951D01*
X196877Y330916D01*
X196971Y330884D01*
X197066Y330856D01*
X197162Y330831D01*
X197260Y330810D01*
X197358Y330793D01*
X197456Y330780D01*
X197555Y330771D01*
X197655Y330765D01*
X197754Y330763D01*
X204246Y330763D01*
X204345Y330765D01*
X204445Y330771D01*
X204544Y330780D01*
X204642Y330793D01*
X204740Y330810D01*
X204838Y330831D01*
X204934Y330856D01*
X205029Y330884D01*
X205123Y330916D01*
X205216Y330951D01*
X205308Y330990D01*
X205398Y331033D01*
X205486Y331078D01*
X205573Y331128D01*
X205657Y331180D01*
X205740Y331236D01*
X205820Y331294D01*
X205898Y331356D01*
X205973Y331421D01*
X206046Y331489D01*
X206116Y331559D01*
X206184Y331632D01*
X206249Y331707D01*
X206311Y331785D01*
X206369Y331865D01*
X206425Y331948D01*
X206477Y332032D01*
X206527Y332119D01*
X206572Y332207D01*
X206615Y332297D01*
X206654Y332389D01*
X206689Y332481D01*
X206721Y332576D01*
X206749Y332671D01*
X206774Y332767D01*
X206795Y332865D01*
X206812Y332963D01*
X206825Y333061D01*
X206834Y333160D01*
X206840Y333260D01*
X206842Y333359D01*
X206842Y337254D01*
X206842Y342954D02*
X195158Y342954D01*
X195158Y349446D02*
X206842Y342954D01*
X206842Y349446D02*
X195158Y349446D01*
X195158Y355146D02*
X206842Y355146D01*
X206842Y358392D01*
X206840Y358505D01*
X206834Y358618D01*
X206824Y358731D01*
X206810Y358844D01*
X206793Y358956D01*
X206771Y359067D01*
X206746Y359177D01*
X206716Y359287D01*
X206683Y359395D01*
X206646Y359502D01*
X206606Y359608D01*
X206561Y359712D01*
X206513Y359815D01*
X206462Y359916D01*
X206407Y360015D01*
X206349Y360112D01*
X206287Y360207D01*
X206222Y360300D01*
X206154Y360390D01*
X206083Y360478D01*
X206008Y360564D01*
X205931Y360647D01*
X205851Y360727D01*
X205768Y360804D01*
X205682Y360879D01*
X205594Y360950D01*
X205504Y361018D01*
X205411Y361083D01*
X205316Y361145D01*
X205219Y361203D01*
X205120Y361258D01*
X205019Y361309D01*
X204916Y361357D01*
X204812Y361402D01*
X204706Y361442D01*
X204599Y361479D01*
X204491Y361512D01*
X204381Y361542D01*
X204271Y361567D01*
X204160Y361589D01*
X204048Y361606D01*
X203935Y361620D01*
X203822Y361630D01*
X203709Y361636D01*
X203596Y361638D01*
X198404Y361638D01*
X198291Y361636D01*
X198178Y361630D01*
X198065Y361620D01*
X197952Y361606D01*
X197840Y361589D01*
X197729Y361567D01*
X197619Y361542D01*
X197509Y361512D01*
X197401Y361479D01*
X197294Y361442D01*
X197188Y361402D01*
X197084Y361357D01*
X196981Y361309D01*
X196880Y361258D01*
X196781Y361203D01*
X196684Y361145D01*
X196589Y361083D01*
X196496Y361018D01*
X196406Y360950D01*
X196318Y360879D01*
X196232Y360804D01*
X196149Y360727D01*
X196069Y360647D01*
X195992Y360564D01*
X195917Y360478D01*
X195846Y360390D01*
X195778Y360300D01*
X195713Y360207D01*
X195651Y360112D01*
X195593Y360015D01*
X195538Y359916D01*
X195487Y359815D01*
X195439Y359712D01*
X195394Y359608D01*
X195354Y359502D01*
X195317Y359395D01*
X195284Y359287D01*
X195254Y359177D01*
X195229Y359067D01*
X195207Y358956D01*
X195190Y358844D01*
X195176Y358731D01*
X195166Y358618D01*
X195160Y358505D01*
X195158Y358392D01*
X195158Y355146D01*
X280556Y477563D02*
X282151Y478680D01*
X280556Y477563D02*
X284279Y472246D01*
X287470Y474480D01*
X287469Y474480D02*
X287549Y474539D01*
X287627Y474601D01*
X287703Y474665D01*
X287776Y474733D01*
X287847Y474803D01*
X287914Y474876D01*
X287979Y474951D01*
X288041Y475029D01*
X288100Y475109D01*
X288156Y475191D01*
X288209Y475276D01*
X288258Y475362D01*
X288304Y475450D01*
X288347Y475540D01*
X288386Y475631D01*
X288421Y475724D01*
X288453Y475818D01*
X288482Y475914D01*
X288506Y476010D01*
X288527Y476107D01*
X288545Y476205D01*
X288558Y476304D01*
X288568Y476403D01*
X288574Y476502D01*
X288576Y476601D01*
X288574Y476701D01*
X288569Y476800D01*
X288559Y476899D01*
X288546Y476998D01*
X288530Y477096D01*
X288509Y477193D01*
X288485Y477290D01*
X288457Y477385D01*
X288425Y477479D01*
X288390Y477572D01*
X288351Y477664D01*
X288309Y477754D01*
X288263Y477842D01*
X288214Y477929D01*
X288162Y478013D01*
X288107Y478096D01*
X284384Y483413D01*
X284325Y483493D01*
X284263Y483571D01*
X284199Y483647D01*
X284131Y483720D01*
X284061Y483791D01*
X283988Y483858D01*
X283913Y483923D01*
X283835Y483985D01*
X283755Y484044D01*
X283673Y484100D01*
X283588Y484153D01*
X283502Y484202D01*
X283414Y484248D01*
X283324Y484291D01*
X283233Y484330D01*
X283140Y484365D01*
X283046Y484397D01*
X282950Y484426D01*
X282854Y484450D01*
X282757Y484471D01*
X282659Y484489D01*
X282560Y484502D01*
X282461Y484512D01*
X282362Y484518D01*
X282263Y484520D01*
X282163Y484518D01*
X282064Y484513D01*
X281965Y484504D01*
X281866Y484490D01*
X281768Y484474D01*
X281671Y484453D01*
X281574Y484429D01*
X281479Y484401D01*
X281385Y484369D01*
X281292Y484334D01*
X281200Y484295D01*
X281110Y484253D01*
X281022Y484207D01*
X280935Y484158D01*
X280851Y484106D01*
X280768Y484051D01*
X277578Y481817D01*
X272908Y478547D02*
X279609Y468976D01*
X274292Y465253D02*
X272908Y478547D01*
X267591Y474824D02*
X274292Y465253D01*
X269622Y461983D02*
X262921Y471554D01*
X260262Y469692D01*
X260262Y469693D02*
X260171Y469626D01*
X260081Y469557D01*
X259994Y469484D01*
X259910Y469408D01*
X259829Y469329D01*
X259750Y469248D01*
X259674Y469164D01*
X259601Y469077D01*
X259532Y468988D01*
X259465Y468896D01*
X259402Y468802D01*
X259342Y468706D01*
X259285Y468608D01*
X259232Y468508D01*
X259182Y468406D01*
X259136Y468302D01*
X259094Y468197D01*
X259055Y468091D01*
X259020Y467983D01*
X258989Y467874D01*
X258961Y467764D01*
X258938Y467653D01*
X258918Y467542D01*
X258902Y467430D01*
X258890Y467317D01*
X258882Y467204D01*
X258878Y467091D01*
X258878Y466977D01*
X258882Y466864D01*
X258890Y466751D01*
X258902Y466638D01*
X258918Y466526D01*
X258938Y466415D01*
X258961Y466304D01*
X258989Y466194D01*
X259020Y466085D01*
X259055Y465977D01*
X259094Y465871D01*
X259136Y465766D01*
X259182Y465662D01*
X259232Y465560D01*
X259285Y465460D01*
X259342Y465362D01*
X259402Y465266D01*
X259465Y465172D01*
X262444Y460918D01*
X262443Y460918D02*
X262510Y460827D01*
X262579Y460737D01*
X262652Y460650D01*
X262728Y460566D01*
X262807Y460485D01*
X262888Y460406D01*
X262972Y460330D01*
X263059Y460257D01*
X263149Y460188D01*
X263240Y460121D01*
X263334Y460058D01*
X263430Y459998D01*
X263528Y459941D01*
X263628Y459888D01*
X263730Y459838D01*
X263834Y459792D01*
X263939Y459750D01*
X264045Y459711D01*
X264153Y459676D01*
X264262Y459645D01*
X264372Y459617D01*
X264483Y459594D01*
X264594Y459574D01*
X264706Y459558D01*
X264819Y459546D01*
X264932Y459538D01*
X265045Y459534D01*
X265159Y459534D01*
X265272Y459538D01*
X265385Y459546D01*
X265498Y459558D01*
X265610Y459574D01*
X265721Y459594D01*
X265832Y459617D01*
X265942Y459645D01*
X266051Y459676D01*
X266159Y459711D01*
X266265Y459750D01*
X266370Y459792D01*
X266474Y459838D01*
X266576Y459888D01*
X266676Y459941D01*
X266774Y459998D01*
X266870Y460058D01*
X266964Y460121D01*
X269622Y461983D01*
D10*
X454565Y416310D02*
X454565Y398530D01*
X454565Y416310D02*
X449626Y416310D01*
X449486Y416308D01*
X449347Y416302D01*
X449207Y416292D01*
X449068Y416278D01*
X448929Y416261D01*
X448791Y416239D01*
X448654Y416213D01*
X448517Y416184D01*
X448381Y416151D01*
X448247Y416114D01*
X448113Y416073D01*
X447981Y416028D01*
X447849Y415979D01*
X447720Y415927D01*
X447592Y415872D01*
X447465Y415812D01*
X447340Y415749D01*
X447217Y415683D01*
X447096Y415613D01*
X446977Y415540D01*
X446860Y415463D01*
X446746Y415383D01*
X446633Y415300D01*
X446523Y415214D01*
X446416Y415124D01*
X446311Y415032D01*
X446209Y414937D01*
X446109Y414839D01*
X446012Y414738D01*
X445918Y414634D01*
X445828Y414528D01*
X445740Y414419D01*
X445655Y414308D01*
X445574Y414194D01*
X445495Y414079D01*
X445420Y413961D01*
X445349Y413841D01*
X445281Y413718D01*
X445216Y413595D01*
X445155Y413469D01*
X445097Y413341D01*
X445043Y413213D01*
X444993Y413082D01*
X444946Y412950D01*
X444903Y412817D01*
X444864Y412683D01*
X444829Y412548D01*
X444798Y412412D01*
X444770Y412274D01*
X444747Y412137D01*
X444727Y411998D01*
X444711Y411859D01*
X444699Y411720D01*
X444691Y411581D01*
X444687Y411441D01*
X444687Y411301D01*
X444691Y411161D01*
X444699Y411022D01*
X444711Y410883D01*
X444727Y410744D01*
X444747Y410605D01*
X444770Y410468D01*
X444798Y410330D01*
X444829Y410194D01*
X444864Y410059D01*
X444903Y409925D01*
X444946Y409792D01*
X444993Y409660D01*
X445043Y409529D01*
X445097Y409401D01*
X445155Y409273D01*
X445216Y409147D01*
X445281Y409024D01*
X445349Y408902D01*
X445420Y408781D01*
X445495Y408663D01*
X445574Y408548D01*
X445655Y408434D01*
X445740Y408323D01*
X445828Y408214D01*
X445918Y408108D01*
X446012Y408004D01*
X446109Y407903D01*
X446209Y407805D01*
X446311Y407710D01*
X446416Y407618D01*
X446523Y407528D01*
X446633Y407442D01*
X446746Y407359D01*
X446860Y407279D01*
X446977Y407202D01*
X447096Y407129D01*
X447217Y407059D01*
X447340Y406993D01*
X447465Y406930D01*
X447592Y406870D01*
X447720Y406815D01*
X447849Y406763D01*
X447981Y406714D01*
X448113Y406669D01*
X448247Y406628D01*
X448381Y406591D01*
X448517Y406558D01*
X448654Y406529D01*
X448791Y406503D01*
X448929Y406481D01*
X449068Y406464D01*
X449207Y406450D01*
X449347Y406440D01*
X449486Y406434D01*
X449626Y406432D01*
X454565Y406432D01*
X438570Y412358D02*
X433631Y416310D01*
X433631Y398530D01*
X438570Y398530D02*
X428692Y398530D01*
X456341Y285107D02*
X456341Y267327D01*
X456341Y285107D02*
X451402Y285107D01*
X451402Y285108D02*
X451262Y285106D01*
X451123Y285100D01*
X450983Y285090D01*
X450844Y285076D01*
X450705Y285059D01*
X450567Y285037D01*
X450430Y285011D01*
X450293Y284982D01*
X450157Y284949D01*
X450023Y284912D01*
X449889Y284871D01*
X449757Y284826D01*
X449625Y284777D01*
X449496Y284725D01*
X449368Y284670D01*
X449241Y284610D01*
X449116Y284547D01*
X448993Y284481D01*
X448872Y284411D01*
X448753Y284338D01*
X448636Y284261D01*
X448522Y284181D01*
X448409Y284098D01*
X448299Y284012D01*
X448192Y283922D01*
X448087Y283830D01*
X447985Y283735D01*
X447885Y283637D01*
X447788Y283536D01*
X447694Y283432D01*
X447604Y283326D01*
X447516Y283217D01*
X447431Y283106D01*
X447350Y282992D01*
X447271Y282877D01*
X447196Y282759D01*
X447125Y282639D01*
X447057Y282516D01*
X446992Y282393D01*
X446931Y282267D01*
X446873Y282139D01*
X446819Y282011D01*
X446769Y281880D01*
X446722Y281748D01*
X446679Y281615D01*
X446640Y281481D01*
X446605Y281346D01*
X446574Y281210D01*
X446546Y281072D01*
X446523Y280935D01*
X446503Y280796D01*
X446487Y280657D01*
X446475Y280518D01*
X446467Y280379D01*
X446463Y280239D01*
X446463Y280099D01*
X446467Y279959D01*
X446475Y279820D01*
X446487Y279681D01*
X446503Y279542D01*
X446523Y279403D01*
X446546Y279266D01*
X446574Y279128D01*
X446605Y278992D01*
X446640Y278857D01*
X446679Y278723D01*
X446722Y278590D01*
X446769Y278458D01*
X446819Y278327D01*
X446873Y278199D01*
X446931Y278071D01*
X446992Y277945D01*
X447057Y277822D01*
X447125Y277700D01*
X447196Y277579D01*
X447271Y277461D01*
X447350Y277346D01*
X447431Y277232D01*
X447516Y277121D01*
X447604Y277012D01*
X447694Y276906D01*
X447788Y276802D01*
X447885Y276701D01*
X447985Y276603D01*
X448087Y276508D01*
X448192Y276416D01*
X448299Y276326D01*
X448409Y276240D01*
X448522Y276157D01*
X448636Y276077D01*
X448753Y276000D01*
X448872Y275927D01*
X448993Y275857D01*
X449116Y275791D01*
X449241Y275728D01*
X449368Y275668D01*
X449496Y275613D01*
X449625Y275561D01*
X449757Y275512D01*
X449889Y275467D01*
X450023Y275426D01*
X450157Y275389D01*
X450293Y275356D01*
X450430Y275327D01*
X450567Y275301D01*
X450705Y275279D01*
X450844Y275262D01*
X450983Y275248D01*
X451123Y275238D01*
X451262Y275232D01*
X451402Y275230D01*
X456341Y275230D01*
X434913Y285107D02*
X434781Y285105D01*
X434650Y285099D01*
X434518Y285089D01*
X434387Y285076D01*
X434257Y285058D01*
X434127Y285037D01*
X433997Y285012D01*
X433869Y284983D01*
X433741Y284950D01*
X433615Y284913D01*
X433489Y284873D01*
X433365Y284829D01*
X433242Y284781D01*
X433121Y284730D01*
X433001Y284675D01*
X432883Y284617D01*
X432767Y284555D01*
X432653Y284489D01*
X432540Y284421D01*
X432430Y284349D01*
X432322Y284274D01*
X432216Y284195D01*
X432112Y284114D01*
X432011Y284029D01*
X431913Y283942D01*
X431817Y283851D01*
X431724Y283758D01*
X431633Y283662D01*
X431546Y283564D01*
X431461Y283463D01*
X431380Y283359D01*
X431301Y283253D01*
X431226Y283145D01*
X431154Y283035D01*
X431086Y282922D01*
X431020Y282808D01*
X430958Y282692D01*
X430900Y282574D01*
X430845Y282454D01*
X430794Y282333D01*
X430746Y282210D01*
X430702Y282086D01*
X430662Y281960D01*
X430625Y281834D01*
X430592Y281706D01*
X430563Y281578D01*
X430538Y281448D01*
X430517Y281318D01*
X430499Y281188D01*
X430486Y281057D01*
X430476Y280925D01*
X430470Y280794D01*
X430468Y280662D01*
X434913Y285108D02*
X435063Y285106D01*
X435212Y285100D01*
X435361Y285090D01*
X435510Y285077D01*
X435659Y285059D01*
X435807Y285038D01*
X435955Y285012D01*
X436101Y284983D01*
X436247Y284950D01*
X436392Y284913D01*
X436536Y284872D01*
X436679Y284828D01*
X436821Y284780D01*
X436961Y284728D01*
X437100Y284673D01*
X437238Y284614D01*
X437373Y284551D01*
X437508Y284485D01*
X437640Y284415D01*
X437770Y284342D01*
X437899Y284265D01*
X438026Y284185D01*
X438150Y284102D01*
X438272Y284016D01*
X438392Y283926D01*
X438509Y283833D01*
X438624Y283738D01*
X438737Y283639D01*
X438847Y283537D01*
X438954Y283433D01*
X439058Y283326D01*
X439160Y283216D01*
X439258Y283103D01*
X439354Y282988D01*
X439446Y282870D01*
X439536Y282750D01*
X439622Y282628D01*
X439705Y282504D01*
X439785Y282377D01*
X439861Y282249D01*
X439934Y282118D01*
X440004Y281985D01*
X440070Y281851D01*
X440132Y281715D01*
X440191Y281578D01*
X440247Y281439D01*
X440298Y281298D01*
X440346Y281157D01*
X431951Y277205D02*
X431855Y277298D01*
X431763Y277394D01*
X431673Y277493D01*
X431586Y277594D01*
X431502Y277697D01*
X431420Y277802D01*
X431342Y277910D01*
X431267Y278020D01*
X431194Y278132D01*
X431125Y278246D01*
X431059Y278362D01*
X430997Y278480D01*
X430938Y278599D01*
X430882Y278720D01*
X430829Y278843D01*
X430780Y278967D01*
X430735Y279092D01*
X430692Y279219D01*
X430654Y279346D01*
X430619Y279475D01*
X430588Y279604D01*
X430560Y279735D01*
X430536Y279866D01*
X430515Y279998D01*
X430499Y280130D01*
X430486Y280263D01*
X430476Y280396D01*
X430471Y280529D01*
X430469Y280662D01*
X431950Y277205D02*
X440346Y267327D01*
X430468Y267327D01*
X418099Y274242D02*
X418099Y280169D01*
X418099Y274242D02*
X414641Y269797D01*
X418099Y274242D02*
X421556Y269797D01*
X418099Y274242D02*
X412666Y276217D01*
X418099Y274242D02*
X423531Y276217D01*
X359136Y233490D02*
X359136Y215710D01*
X359136Y233490D02*
X354198Y233490D01*
X354058Y233488D01*
X353919Y233482D01*
X353779Y233472D01*
X353640Y233458D01*
X353501Y233441D01*
X353363Y233419D01*
X353226Y233393D01*
X353089Y233364D01*
X352953Y233331D01*
X352819Y233294D01*
X352685Y233253D01*
X352553Y233208D01*
X352421Y233159D01*
X352292Y233107D01*
X352164Y233052D01*
X352037Y232992D01*
X351912Y232929D01*
X351789Y232863D01*
X351668Y232793D01*
X351549Y232720D01*
X351432Y232643D01*
X351318Y232563D01*
X351205Y232480D01*
X351095Y232394D01*
X350988Y232304D01*
X350883Y232212D01*
X350781Y232117D01*
X350681Y232019D01*
X350584Y231918D01*
X350490Y231814D01*
X350400Y231708D01*
X350312Y231599D01*
X350227Y231488D01*
X350146Y231374D01*
X350067Y231259D01*
X349992Y231141D01*
X349921Y231021D01*
X349853Y230898D01*
X349788Y230775D01*
X349727Y230649D01*
X349669Y230521D01*
X349615Y230393D01*
X349565Y230262D01*
X349518Y230130D01*
X349475Y229997D01*
X349436Y229863D01*
X349401Y229728D01*
X349370Y229592D01*
X349342Y229454D01*
X349319Y229317D01*
X349299Y229178D01*
X349283Y229039D01*
X349271Y228900D01*
X349263Y228761D01*
X349259Y228621D01*
X349259Y228481D01*
X349263Y228341D01*
X349271Y228202D01*
X349283Y228063D01*
X349299Y227924D01*
X349319Y227785D01*
X349342Y227648D01*
X349370Y227510D01*
X349401Y227374D01*
X349436Y227239D01*
X349475Y227105D01*
X349518Y226972D01*
X349565Y226840D01*
X349615Y226709D01*
X349669Y226581D01*
X349727Y226453D01*
X349788Y226327D01*
X349853Y226204D01*
X349921Y226081D01*
X349992Y225961D01*
X350067Y225843D01*
X350146Y225728D01*
X350227Y225614D01*
X350312Y225503D01*
X350400Y225394D01*
X350490Y225288D01*
X350584Y225184D01*
X350681Y225083D01*
X350781Y224985D01*
X350883Y224890D01*
X350988Y224798D01*
X351095Y224708D01*
X351205Y224622D01*
X351318Y224539D01*
X351432Y224459D01*
X351549Y224382D01*
X351668Y224309D01*
X351789Y224239D01*
X351912Y224173D01*
X352037Y224110D01*
X352164Y224050D01*
X352292Y223995D01*
X352421Y223943D01*
X352553Y223894D01*
X352685Y223849D01*
X352819Y223808D01*
X352953Y223771D01*
X353089Y223738D01*
X353226Y223709D01*
X353363Y223683D01*
X353501Y223661D01*
X353640Y223644D01*
X353779Y223630D01*
X353919Y223620D01*
X354058Y223614D01*
X354198Y223612D01*
X359136Y223612D01*
X343141Y215710D02*
X338202Y215710D01*
X338062Y215712D01*
X337923Y215718D01*
X337783Y215728D01*
X337644Y215742D01*
X337505Y215759D01*
X337367Y215781D01*
X337230Y215807D01*
X337093Y215836D01*
X336957Y215869D01*
X336823Y215906D01*
X336689Y215947D01*
X336557Y215992D01*
X336425Y216041D01*
X336296Y216093D01*
X336168Y216148D01*
X336041Y216208D01*
X335916Y216271D01*
X335793Y216337D01*
X335672Y216407D01*
X335553Y216480D01*
X335436Y216557D01*
X335322Y216637D01*
X335209Y216720D01*
X335099Y216806D01*
X334992Y216896D01*
X334887Y216988D01*
X334785Y217083D01*
X334685Y217181D01*
X334588Y217282D01*
X334494Y217386D01*
X334404Y217492D01*
X334316Y217601D01*
X334231Y217712D01*
X334150Y217826D01*
X334071Y217941D01*
X333996Y218059D01*
X333925Y218179D01*
X333857Y218302D01*
X333792Y218425D01*
X333731Y218551D01*
X333673Y218679D01*
X333619Y218807D01*
X333569Y218938D01*
X333522Y219070D01*
X333479Y219203D01*
X333440Y219337D01*
X333405Y219472D01*
X333374Y219608D01*
X333346Y219746D01*
X333323Y219883D01*
X333303Y220022D01*
X333287Y220161D01*
X333275Y220300D01*
X333267Y220439D01*
X333263Y220579D01*
X333263Y220719D01*
X333267Y220859D01*
X333275Y220998D01*
X333287Y221137D01*
X333303Y221276D01*
X333323Y221415D01*
X333346Y221552D01*
X333374Y221690D01*
X333405Y221826D01*
X333440Y221961D01*
X333479Y222095D01*
X333522Y222228D01*
X333569Y222360D01*
X333619Y222491D01*
X333673Y222619D01*
X333731Y222747D01*
X333792Y222873D01*
X333857Y222996D01*
X333925Y223119D01*
X333996Y223239D01*
X334071Y223357D01*
X334150Y223472D01*
X334231Y223586D01*
X334316Y223697D01*
X334404Y223806D01*
X334494Y223912D01*
X334588Y224016D01*
X334685Y224117D01*
X334785Y224215D01*
X334887Y224310D01*
X334992Y224402D01*
X335099Y224492D01*
X335209Y224578D01*
X335322Y224661D01*
X335436Y224741D01*
X335553Y224818D01*
X335672Y224891D01*
X335793Y224961D01*
X335916Y225027D01*
X336041Y225090D01*
X336168Y225150D01*
X336296Y225205D01*
X336425Y225257D01*
X336557Y225306D01*
X336689Y225351D01*
X336823Y225392D01*
X336957Y225429D01*
X337093Y225462D01*
X337230Y225491D01*
X337367Y225517D01*
X337505Y225539D01*
X337644Y225556D01*
X337783Y225570D01*
X337923Y225580D01*
X338062Y225586D01*
X338202Y225588D01*
X337215Y233490D02*
X343141Y233490D01*
X337215Y233490D02*
X337091Y233488D01*
X336967Y233482D01*
X336843Y233472D01*
X336720Y233459D01*
X336597Y233441D01*
X336475Y233420D01*
X336353Y233395D01*
X336232Y233366D01*
X336113Y233333D01*
X335994Y233297D01*
X335877Y233256D01*
X335761Y233213D01*
X335646Y233165D01*
X335533Y233114D01*
X335421Y233059D01*
X335312Y233001D01*
X335204Y232940D01*
X335098Y232875D01*
X334994Y232807D01*
X334893Y232735D01*
X334793Y232661D01*
X334697Y232583D01*
X334602Y232503D01*
X334510Y232419D01*
X334421Y232333D01*
X334335Y232244D01*
X334251Y232152D01*
X334171Y232057D01*
X334093Y231961D01*
X334019Y231861D01*
X333947Y231760D01*
X333879Y231656D01*
X333814Y231550D01*
X333753Y231442D01*
X333695Y231333D01*
X333640Y231221D01*
X333589Y231108D01*
X333541Y230993D01*
X333498Y230877D01*
X333457Y230760D01*
X333421Y230641D01*
X333388Y230522D01*
X333359Y230401D01*
X333334Y230279D01*
X333313Y230157D01*
X333295Y230034D01*
X333282Y229911D01*
X333272Y229787D01*
X333266Y229663D01*
X333264Y229539D01*
X333266Y229415D01*
X333272Y229291D01*
X333282Y229167D01*
X333295Y229044D01*
X333313Y228921D01*
X333334Y228799D01*
X333359Y228677D01*
X333388Y228556D01*
X333421Y228437D01*
X333457Y228318D01*
X333498Y228201D01*
X333541Y228085D01*
X333589Y227970D01*
X333640Y227857D01*
X333695Y227745D01*
X333753Y227636D01*
X333814Y227528D01*
X333879Y227422D01*
X333947Y227318D01*
X334019Y227217D01*
X334093Y227117D01*
X334171Y227021D01*
X334251Y226926D01*
X334335Y226834D01*
X334421Y226745D01*
X334510Y226659D01*
X334602Y226575D01*
X334697Y226495D01*
X334793Y226417D01*
X334893Y226343D01*
X334994Y226271D01*
X335098Y226203D01*
X335204Y226138D01*
X335312Y226077D01*
X335421Y226019D01*
X335533Y225964D01*
X335646Y225913D01*
X335761Y225865D01*
X335877Y225822D01*
X335994Y225781D01*
X336113Y225745D01*
X336232Y225712D01*
X336353Y225683D01*
X336475Y225658D01*
X336597Y225637D01*
X336720Y225619D01*
X336843Y225606D01*
X336967Y225596D01*
X337091Y225590D01*
X337215Y225588D01*
X341166Y225588D01*
X261943Y264902D02*
X261943Y282682D01*
X257004Y282682D01*
X256864Y282680D01*
X256725Y282674D01*
X256585Y282664D01*
X256446Y282650D01*
X256307Y282633D01*
X256169Y282611D01*
X256032Y282585D01*
X255895Y282556D01*
X255759Y282523D01*
X255625Y282486D01*
X255491Y282445D01*
X255359Y282400D01*
X255227Y282351D01*
X255098Y282299D01*
X254970Y282244D01*
X254843Y282184D01*
X254718Y282121D01*
X254595Y282055D01*
X254474Y281985D01*
X254355Y281912D01*
X254238Y281835D01*
X254124Y281755D01*
X254011Y281672D01*
X253901Y281586D01*
X253794Y281496D01*
X253689Y281404D01*
X253587Y281309D01*
X253487Y281211D01*
X253390Y281110D01*
X253296Y281006D01*
X253206Y280900D01*
X253118Y280791D01*
X253033Y280680D01*
X252952Y280566D01*
X252873Y280451D01*
X252798Y280333D01*
X252727Y280213D01*
X252659Y280090D01*
X252594Y279967D01*
X252533Y279841D01*
X252475Y279713D01*
X252421Y279585D01*
X252371Y279454D01*
X252324Y279322D01*
X252281Y279189D01*
X252242Y279055D01*
X252207Y278920D01*
X252176Y278784D01*
X252148Y278646D01*
X252125Y278509D01*
X252105Y278370D01*
X252089Y278231D01*
X252077Y278092D01*
X252069Y277953D01*
X252065Y277813D01*
X252065Y277673D01*
X252069Y277533D01*
X252077Y277394D01*
X252089Y277255D01*
X252105Y277116D01*
X252125Y276977D01*
X252148Y276840D01*
X252176Y276702D01*
X252207Y276566D01*
X252242Y276431D01*
X252281Y276297D01*
X252324Y276164D01*
X252371Y276032D01*
X252421Y275901D01*
X252475Y275773D01*
X252533Y275645D01*
X252594Y275519D01*
X252659Y275396D01*
X252727Y275274D01*
X252798Y275153D01*
X252873Y275035D01*
X252952Y274920D01*
X253033Y274806D01*
X253118Y274695D01*
X253206Y274586D01*
X253296Y274480D01*
X253390Y274376D01*
X253487Y274275D01*
X253587Y274177D01*
X253689Y274082D01*
X253794Y273990D01*
X253901Y273900D01*
X254011Y273814D01*
X254124Y273731D01*
X254238Y273651D01*
X254355Y273574D01*
X254474Y273501D01*
X254595Y273431D01*
X254718Y273365D01*
X254843Y273302D01*
X254970Y273242D01*
X255098Y273187D01*
X255227Y273135D01*
X255359Y273086D01*
X255491Y273041D01*
X255625Y273000D01*
X255759Y272963D01*
X255895Y272930D01*
X256032Y272901D01*
X256169Y272875D01*
X256307Y272853D01*
X256446Y272836D01*
X256585Y272822D01*
X256725Y272812D01*
X256864Y272806D01*
X257004Y272804D01*
X261943Y272804D01*
X245948Y268853D02*
X241997Y282682D01*
X245948Y268853D02*
X236070Y268853D01*
X239033Y272804D02*
X239033Y264902D01*
X260317Y395698D02*
X260317Y413478D01*
X255378Y413478D01*
X255238Y413476D01*
X255099Y413470D01*
X254959Y413460D01*
X254820Y413446D01*
X254681Y413429D01*
X254543Y413407D01*
X254406Y413381D01*
X254269Y413352D01*
X254133Y413319D01*
X253999Y413282D01*
X253865Y413241D01*
X253733Y413196D01*
X253601Y413147D01*
X253472Y413095D01*
X253344Y413040D01*
X253217Y412980D01*
X253092Y412917D01*
X252969Y412851D01*
X252848Y412781D01*
X252729Y412708D01*
X252612Y412631D01*
X252498Y412551D01*
X252385Y412468D01*
X252275Y412382D01*
X252168Y412292D01*
X252063Y412200D01*
X251961Y412105D01*
X251861Y412007D01*
X251764Y411906D01*
X251670Y411802D01*
X251580Y411696D01*
X251492Y411587D01*
X251407Y411476D01*
X251326Y411362D01*
X251247Y411247D01*
X251172Y411129D01*
X251101Y411009D01*
X251033Y410886D01*
X250968Y410763D01*
X250907Y410637D01*
X250849Y410509D01*
X250795Y410381D01*
X250745Y410250D01*
X250698Y410118D01*
X250655Y409985D01*
X250616Y409851D01*
X250581Y409716D01*
X250550Y409580D01*
X250522Y409442D01*
X250499Y409305D01*
X250479Y409166D01*
X250463Y409027D01*
X250451Y408888D01*
X250443Y408749D01*
X250439Y408609D01*
X250439Y408469D01*
X250443Y408329D01*
X250451Y408190D01*
X250463Y408051D01*
X250479Y407912D01*
X250499Y407773D01*
X250522Y407636D01*
X250550Y407498D01*
X250581Y407362D01*
X250616Y407227D01*
X250655Y407093D01*
X250698Y406960D01*
X250745Y406828D01*
X250795Y406697D01*
X250849Y406569D01*
X250907Y406441D01*
X250968Y406315D01*
X251033Y406192D01*
X251101Y406070D01*
X251172Y405949D01*
X251247Y405831D01*
X251326Y405716D01*
X251407Y405602D01*
X251492Y405491D01*
X251580Y405382D01*
X251670Y405276D01*
X251764Y405172D01*
X251861Y405071D01*
X251961Y404973D01*
X252063Y404878D01*
X252168Y404786D01*
X252275Y404696D01*
X252385Y404610D01*
X252498Y404527D01*
X252612Y404447D01*
X252729Y404370D01*
X252848Y404297D01*
X252969Y404227D01*
X253092Y404161D01*
X253217Y404098D01*
X253344Y404038D01*
X253472Y403983D01*
X253601Y403931D01*
X253733Y403882D01*
X253865Y403837D01*
X253999Y403796D01*
X254133Y403759D01*
X254269Y403726D01*
X254406Y403697D01*
X254543Y403671D01*
X254681Y403649D01*
X254820Y403632D01*
X254959Y403618D01*
X255099Y403608D01*
X255238Y403602D01*
X255378Y403600D01*
X260317Y403600D01*
X244322Y395698D02*
X238396Y395698D01*
X238272Y395700D01*
X238148Y395706D01*
X238024Y395716D01*
X237901Y395729D01*
X237778Y395747D01*
X237656Y395768D01*
X237534Y395793D01*
X237413Y395822D01*
X237294Y395855D01*
X237175Y395891D01*
X237058Y395932D01*
X236942Y395975D01*
X236827Y396023D01*
X236714Y396074D01*
X236602Y396129D01*
X236493Y396187D01*
X236385Y396248D01*
X236279Y396313D01*
X236175Y396381D01*
X236074Y396453D01*
X235974Y396527D01*
X235878Y396605D01*
X235783Y396685D01*
X235691Y396769D01*
X235602Y396855D01*
X235516Y396944D01*
X235432Y397036D01*
X235352Y397131D01*
X235274Y397227D01*
X235200Y397327D01*
X235128Y397428D01*
X235060Y397532D01*
X234995Y397638D01*
X234934Y397746D01*
X234876Y397855D01*
X234821Y397967D01*
X234770Y398080D01*
X234722Y398195D01*
X234679Y398311D01*
X234638Y398428D01*
X234602Y398547D01*
X234569Y398666D01*
X234540Y398787D01*
X234515Y398909D01*
X234494Y399031D01*
X234476Y399154D01*
X234463Y399277D01*
X234453Y399401D01*
X234447Y399525D01*
X234445Y399649D01*
X234445Y401624D01*
X234447Y401748D01*
X234453Y401872D01*
X234463Y401996D01*
X234476Y402119D01*
X234494Y402242D01*
X234515Y402364D01*
X234540Y402486D01*
X234569Y402607D01*
X234602Y402726D01*
X234638Y402845D01*
X234679Y402962D01*
X234722Y403078D01*
X234770Y403193D01*
X234821Y403306D01*
X234876Y403418D01*
X234934Y403527D01*
X234995Y403635D01*
X235060Y403741D01*
X235128Y403845D01*
X235200Y403946D01*
X235274Y404046D01*
X235352Y404142D01*
X235432Y404237D01*
X235516Y404329D01*
X235602Y404418D01*
X235691Y404504D01*
X235783Y404588D01*
X235878Y404668D01*
X235974Y404746D01*
X236074Y404820D01*
X236175Y404892D01*
X236279Y404960D01*
X236385Y405025D01*
X236493Y405086D01*
X236602Y405144D01*
X236714Y405199D01*
X236827Y405250D01*
X236942Y405298D01*
X237058Y405341D01*
X237175Y405382D01*
X237294Y405418D01*
X237413Y405451D01*
X237534Y405480D01*
X237656Y405505D01*
X237778Y405526D01*
X237901Y405544D01*
X238024Y405557D01*
X238148Y405567D01*
X238272Y405573D01*
X238396Y405575D01*
X244322Y405575D01*
X244322Y413478D01*
X234445Y413478D01*
X359136Y458910D02*
X359136Y476690D01*
X354198Y476690D01*
X354058Y476688D01*
X353919Y476682D01*
X353779Y476672D01*
X353640Y476658D01*
X353501Y476641D01*
X353363Y476619D01*
X353226Y476593D01*
X353089Y476564D01*
X352953Y476531D01*
X352819Y476494D01*
X352685Y476453D01*
X352553Y476408D01*
X352421Y476359D01*
X352292Y476307D01*
X352164Y476252D01*
X352037Y476192D01*
X351912Y476129D01*
X351789Y476063D01*
X351668Y475993D01*
X351549Y475920D01*
X351432Y475843D01*
X351318Y475763D01*
X351205Y475680D01*
X351095Y475594D01*
X350988Y475504D01*
X350883Y475412D01*
X350781Y475317D01*
X350681Y475219D01*
X350584Y475118D01*
X350490Y475014D01*
X350400Y474908D01*
X350312Y474799D01*
X350227Y474688D01*
X350146Y474574D01*
X350067Y474459D01*
X349992Y474341D01*
X349921Y474221D01*
X349853Y474098D01*
X349788Y473975D01*
X349727Y473849D01*
X349669Y473721D01*
X349615Y473593D01*
X349565Y473462D01*
X349518Y473330D01*
X349475Y473197D01*
X349436Y473063D01*
X349401Y472928D01*
X349370Y472792D01*
X349342Y472654D01*
X349319Y472517D01*
X349299Y472378D01*
X349283Y472239D01*
X349271Y472100D01*
X349263Y471961D01*
X349259Y471821D01*
X349259Y471681D01*
X349263Y471541D01*
X349271Y471402D01*
X349283Y471263D01*
X349299Y471124D01*
X349319Y470985D01*
X349342Y470848D01*
X349370Y470710D01*
X349401Y470574D01*
X349436Y470439D01*
X349475Y470305D01*
X349518Y470172D01*
X349565Y470040D01*
X349615Y469909D01*
X349669Y469781D01*
X349727Y469653D01*
X349788Y469527D01*
X349853Y469404D01*
X349921Y469282D01*
X349992Y469161D01*
X350067Y469043D01*
X350146Y468928D01*
X350227Y468814D01*
X350312Y468703D01*
X350400Y468594D01*
X350490Y468488D01*
X350584Y468384D01*
X350681Y468283D01*
X350781Y468185D01*
X350883Y468090D01*
X350988Y467998D01*
X351095Y467908D01*
X351205Y467822D01*
X351318Y467739D01*
X351432Y467659D01*
X351549Y467582D01*
X351668Y467509D01*
X351789Y467439D01*
X351912Y467373D01*
X352037Y467310D01*
X352164Y467250D01*
X352292Y467195D01*
X352421Y467143D01*
X352553Y467094D01*
X352685Y467049D01*
X352819Y467008D01*
X352953Y466971D01*
X353089Y466938D01*
X353226Y466909D01*
X353363Y466883D01*
X353501Y466861D01*
X353640Y466844D01*
X353779Y466830D01*
X353919Y466820D01*
X354058Y466814D01*
X354198Y466812D01*
X359136Y466812D01*
X343141Y468788D02*
X337215Y468788D01*
X337091Y468786D01*
X336967Y468780D01*
X336843Y468770D01*
X336720Y468757D01*
X336597Y468739D01*
X336475Y468718D01*
X336353Y468693D01*
X336232Y468664D01*
X336113Y468631D01*
X335994Y468595D01*
X335877Y468554D01*
X335761Y468511D01*
X335646Y468463D01*
X335533Y468412D01*
X335421Y468357D01*
X335312Y468299D01*
X335204Y468238D01*
X335098Y468173D01*
X334994Y468105D01*
X334893Y468033D01*
X334793Y467959D01*
X334697Y467881D01*
X334602Y467801D01*
X334510Y467717D01*
X334421Y467631D01*
X334335Y467542D01*
X334251Y467450D01*
X334171Y467355D01*
X334093Y467259D01*
X334019Y467159D01*
X333947Y467058D01*
X333879Y466954D01*
X333814Y466848D01*
X333753Y466740D01*
X333695Y466631D01*
X333640Y466519D01*
X333589Y466406D01*
X333541Y466291D01*
X333498Y466175D01*
X333457Y466058D01*
X333421Y465939D01*
X333388Y465820D01*
X333359Y465699D01*
X333334Y465577D01*
X333313Y465455D01*
X333295Y465332D01*
X333282Y465209D01*
X333272Y465085D01*
X333266Y464961D01*
X333264Y464837D01*
X333264Y463849D01*
X333263Y463849D02*
X333265Y463709D01*
X333271Y463570D01*
X333281Y463430D01*
X333295Y463291D01*
X333312Y463152D01*
X333334Y463014D01*
X333360Y462877D01*
X333389Y462740D01*
X333422Y462604D01*
X333459Y462470D01*
X333500Y462336D01*
X333545Y462204D01*
X333594Y462072D01*
X333646Y461943D01*
X333701Y461815D01*
X333761Y461688D01*
X333824Y461563D01*
X333890Y461440D01*
X333960Y461319D01*
X334033Y461200D01*
X334110Y461083D01*
X334190Y460969D01*
X334273Y460856D01*
X334359Y460746D01*
X334449Y460639D01*
X334541Y460534D01*
X334636Y460432D01*
X334734Y460332D01*
X334835Y460235D01*
X334939Y460141D01*
X335045Y460051D01*
X335154Y459963D01*
X335265Y459878D01*
X335379Y459797D01*
X335494Y459718D01*
X335612Y459643D01*
X335733Y459572D01*
X335855Y459504D01*
X335978Y459439D01*
X336104Y459378D01*
X336232Y459320D01*
X336360Y459266D01*
X336491Y459216D01*
X336623Y459169D01*
X336756Y459126D01*
X336890Y459087D01*
X337025Y459052D01*
X337161Y459021D01*
X337299Y458993D01*
X337436Y458970D01*
X337575Y458950D01*
X337714Y458934D01*
X337853Y458922D01*
X337992Y458914D01*
X338132Y458910D01*
X338272Y458910D01*
X338412Y458914D01*
X338551Y458922D01*
X338690Y458934D01*
X338829Y458950D01*
X338968Y458970D01*
X339105Y458993D01*
X339243Y459021D01*
X339379Y459052D01*
X339514Y459087D01*
X339648Y459126D01*
X339781Y459169D01*
X339913Y459216D01*
X340044Y459266D01*
X340172Y459320D01*
X340300Y459378D01*
X340426Y459439D01*
X340549Y459504D01*
X340672Y459572D01*
X340792Y459643D01*
X340910Y459718D01*
X341025Y459797D01*
X341139Y459878D01*
X341250Y459963D01*
X341359Y460051D01*
X341465Y460141D01*
X341569Y460235D01*
X341670Y460332D01*
X341768Y460432D01*
X341863Y460534D01*
X341955Y460639D01*
X342045Y460746D01*
X342131Y460856D01*
X342214Y460969D01*
X342294Y461083D01*
X342371Y461200D01*
X342444Y461319D01*
X342514Y461440D01*
X342580Y461563D01*
X342643Y461688D01*
X342703Y461815D01*
X342758Y461943D01*
X342810Y462072D01*
X342859Y462204D01*
X342904Y462336D01*
X342945Y462470D01*
X342982Y462604D01*
X343015Y462740D01*
X343044Y462877D01*
X343070Y463014D01*
X343092Y463152D01*
X343109Y463291D01*
X343123Y463430D01*
X343133Y463570D01*
X343139Y463709D01*
X343141Y463849D01*
X343141Y468788D01*
X343139Y468982D01*
X343131Y469176D01*
X343120Y469369D01*
X343103Y469563D01*
X343082Y469755D01*
X343055Y469947D01*
X343025Y470139D01*
X342989Y470330D01*
X342949Y470519D01*
X342904Y470708D01*
X342855Y470896D01*
X342801Y471082D01*
X342742Y471267D01*
X342679Y471450D01*
X342612Y471632D01*
X342540Y471812D01*
X342463Y471990D01*
X342382Y472167D01*
X342297Y472341D01*
X342208Y472513D01*
X342114Y472683D01*
X342017Y472850D01*
X341915Y473016D01*
X341809Y473178D01*
X341700Y473338D01*
X341586Y473495D01*
X341469Y473650D01*
X341347Y473801D01*
X341222Y473949D01*
X341094Y474095D01*
X340962Y474237D01*
X340827Y474376D01*
X340688Y474511D01*
X340546Y474643D01*
X340400Y474771D01*
X340252Y474896D01*
X340101Y475017D01*
X339946Y475135D01*
X339789Y475249D01*
X339629Y475358D01*
X339467Y475464D01*
X339301Y475566D01*
X339134Y475663D01*
X338964Y475757D01*
X338792Y475846D01*
X338618Y475931D01*
X338441Y476012D01*
X338263Y476088D01*
X338083Y476160D01*
X337901Y476228D01*
X337718Y476291D01*
X337533Y476350D01*
X337347Y476404D01*
X337159Y476453D01*
X336970Y476498D01*
X336781Y476538D01*
X336590Y476574D01*
X336399Y476604D01*
X336206Y476631D01*
X336014Y476652D01*
X335820Y476669D01*
X335627Y476680D01*
X335433Y476688D01*
X335239Y476690D01*
X393575Y268493D02*
X393575Y250713D01*
X393575Y260591D02*
X383698Y260591D01*
X383698Y268493D02*
X383698Y250713D01*
X376267Y259603D02*
X376263Y259953D01*
X376250Y260302D01*
X376229Y260651D01*
X376200Y261000D01*
X376163Y261348D01*
X376117Y261695D01*
X376063Y262040D01*
X376001Y262384D01*
X375930Y262727D01*
X375851Y263068D01*
X375765Y263407D01*
X375670Y263743D01*
X375567Y264078D01*
X375456Y264409D01*
X375338Y264739D01*
X375211Y265065D01*
X375077Y265388D01*
X374935Y265707D01*
X374785Y266024D01*
X374745Y266137D01*
X374701Y266247D01*
X374653Y266357D01*
X374602Y266464D01*
X374547Y266570D01*
X374489Y266675D01*
X374427Y266777D01*
X374362Y266877D01*
X374294Y266975D01*
X374223Y267071D01*
X374148Y267164D01*
X374071Y267255D01*
X373991Y267343D01*
X373908Y267428D01*
X373822Y267511D01*
X373733Y267591D01*
X373642Y267668D01*
X373548Y267742D01*
X373452Y267813D01*
X373354Y267881D01*
X373254Y267945D01*
X373151Y268007D01*
X373047Y268064D01*
X372941Y268119D01*
X372833Y268170D01*
X372723Y268217D01*
X372612Y268261D01*
X372500Y268301D01*
X372386Y268337D01*
X372272Y268370D01*
X372156Y268399D01*
X372039Y268424D01*
X371922Y268445D01*
X371804Y268463D01*
X371685Y268476D01*
X371566Y268486D01*
X371447Y268492D01*
X371328Y268494D01*
X371328Y268493D02*
X371209Y268491D01*
X371090Y268485D01*
X370971Y268475D01*
X370852Y268462D01*
X370734Y268444D01*
X370617Y268423D01*
X370500Y268398D01*
X370384Y268369D01*
X370270Y268336D01*
X370156Y268300D01*
X370044Y268260D01*
X369933Y268216D01*
X369823Y268169D01*
X369715Y268118D01*
X369609Y268063D01*
X369505Y268006D01*
X369402Y267944D01*
X369302Y267880D01*
X369204Y267812D01*
X369108Y267741D01*
X369014Y267667D01*
X368923Y267590D01*
X368834Y267510D01*
X368749Y267427D01*
X368665Y267342D01*
X368585Y267254D01*
X368508Y267163D01*
X368433Y267070D01*
X368362Y266974D01*
X368294Y266876D01*
X368229Y266776D01*
X368167Y266674D01*
X368109Y266569D01*
X368054Y266464D01*
X368003Y266356D01*
X367955Y266246D01*
X367911Y266136D01*
X367871Y266023D01*
X367871Y266024D02*
X367721Y265707D01*
X367579Y265388D01*
X367445Y265065D01*
X367318Y264739D01*
X367200Y264409D01*
X367089Y264078D01*
X366986Y263743D01*
X366891Y263407D01*
X366805Y263068D01*
X366726Y262727D01*
X366655Y262384D01*
X366593Y262040D01*
X366539Y261695D01*
X366493Y261348D01*
X366456Y261000D01*
X366427Y260651D01*
X366406Y260302D01*
X366393Y259953D01*
X366389Y259603D01*
X376266Y259603D02*
X376262Y259253D01*
X376249Y258904D01*
X376228Y258555D01*
X376199Y258206D01*
X376162Y257858D01*
X376116Y257511D01*
X376062Y257166D01*
X376000Y256822D01*
X375929Y256479D01*
X375850Y256138D01*
X375764Y255799D01*
X375669Y255463D01*
X375566Y255128D01*
X375455Y254797D01*
X375337Y254468D01*
X375210Y254141D01*
X375076Y253818D01*
X374934Y253499D01*
X374784Y253183D01*
X374785Y253183D02*
X374745Y253070D01*
X374701Y252960D01*
X374653Y252850D01*
X374602Y252743D01*
X374547Y252637D01*
X374489Y252532D01*
X374427Y252430D01*
X374362Y252330D01*
X374294Y252232D01*
X374223Y252136D01*
X374148Y252043D01*
X374071Y251952D01*
X373991Y251864D01*
X373908Y251779D01*
X373822Y251696D01*
X373733Y251616D01*
X373642Y251539D01*
X373548Y251465D01*
X373452Y251394D01*
X373354Y251326D01*
X373254Y251262D01*
X373151Y251200D01*
X373047Y251143D01*
X372941Y251088D01*
X372833Y251037D01*
X372723Y250990D01*
X372612Y250946D01*
X372500Y250906D01*
X372386Y250870D01*
X372272Y250837D01*
X372156Y250808D01*
X372039Y250783D01*
X371922Y250762D01*
X371804Y250744D01*
X371685Y250731D01*
X371566Y250721D01*
X371447Y250715D01*
X371328Y250713D01*
X367871Y253183D02*
X367721Y253499D01*
X367579Y253818D01*
X367445Y254141D01*
X367318Y254468D01*
X367200Y254797D01*
X367089Y255128D01*
X366986Y255463D01*
X366891Y255799D01*
X366805Y256138D01*
X366726Y256479D01*
X366655Y256822D01*
X366593Y257166D01*
X366539Y257511D01*
X366493Y257858D01*
X366456Y258206D01*
X366427Y258555D01*
X366406Y258904D01*
X366393Y259253D01*
X366389Y259603D01*
X367871Y253183D02*
X367911Y253070D01*
X367955Y252960D01*
X368003Y252850D01*
X368054Y252742D01*
X368109Y252636D01*
X368167Y252532D01*
X368229Y252430D01*
X368294Y252330D01*
X368362Y252232D01*
X368433Y252136D01*
X368508Y252043D01*
X368585Y251952D01*
X368665Y251864D01*
X368749Y251779D01*
X368834Y251696D01*
X368923Y251616D01*
X369014Y251539D01*
X369108Y251465D01*
X369204Y251394D01*
X369302Y251326D01*
X369402Y251262D01*
X369505Y251200D01*
X369609Y251142D01*
X369715Y251088D01*
X369823Y251037D01*
X369933Y250990D01*
X370044Y250946D01*
X370156Y250906D01*
X370270Y250870D01*
X370384Y250837D01*
X370500Y250808D01*
X370617Y250783D01*
X370734Y250762D01*
X370852Y250744D01*
X370971Y250731D01*
X371090Y250721D01*
X371209Y250715D01*
X371328Y250713D01*
X375279Y254664D02*
X367377Y264542D01*
X359516Y255652D02*
X359514Y255792D01*
X359508Y255931D01*
X359498Y256071D01*
X359484Y256210D01*
X359467Y256349D01*
X359445Y256487D01*
X359419Y256624D01*
X359390Y256761D01*
X359357Y256897D01*
X359320Y257031D01*
X359279Y257165D01*
X359234Y257297D01*
X359185Y257429D01*
X359133Y257558D01*
X359078Y257686D01*
X359018Y257813D01*
X358955Y257938D01*
X358889Y258061D01*
X358819Y258182D01*
X358746Y258301D01*
X358669Y258418D01*
X358589Y258532D01*
X358506Y258645D01*
X358420Y258755D01*
X358330Y258862D01*
X358238Y258967D01*
X358143Y259069D01*
X358045Y259169D01*
X357944Y259266D01*
X357840Y259360D01*
X357734Y259450D01*
X357625Y259538D01*
X357514Y259623D01*
X357400Y259704D01*
X357285Y259783D01*
X357167Y259858D01*
X357047Y259929D01*
X356924Y259997D01*
X356801Y260062D01*
X356675Y260123D01*
X356547Y260181D01*
X356419Y260235D01*
X356288Y260285D01*
X356156Y260332D01*
X356023Y260375D01*
X355889Y260414D01*
X355754Y260449D01*
X355618Y260480D01*
X355480Y260508D01*
X355343Y260531D01*
X355204Y260551D01*
X355065Y260567D01*
X354926Y260579D01*
X354787Y260587D01*
X354647Y260591D01*
X354507Y260591D01*
X354367Y260587D01*
X354228Y260579D01*
X354089Y260567D01*
X353950Y260551D01*
X353811Y260531D01*
X353674Y260508D01*
X353536Y260480D01*
X353400Y260449D01*
X353265Y260414D01*
X353131Y260375D01*
X352998Y260332D01*
X352866Y260285D01*
X352735Y260235D01*
X352607Y260181D01*
X352479Y260123D01*
X352353Y260062D01*
X352230Y259997D01*
X352108Y259929D01*
X351987Y259858D01*
X351869Y259783D01*
X351754Y259704D01*
X351640Y259623D01*
X351529Y259538D01*
X351420Y259450D01*
X351314Y259360D01*
X351210Y259266D01*
X351109Y259169D01*
X351011Y259069D01*
X350916Y258967D01*
X350824Y258862D01*
X350734Y258755D01*
X350648Y258645D01*
X350565Y258532D01*
X350485Y258418D01*
X350408Y258301D01*
X350335Y258182D01*
X350265Y258061D01*
X350199Y257938D01*
X350136Y257813D01*
X350076Y257686D01*
X350021Y257558D01*
X349969Y257429D01*
X349920Y257297D01*
X349875Y257165D01*
X349834Y257031D01*
X349797Y256897D01*
X349764Y256761D01*
X349735Y256624D01*
X349709Y256487D01*
X349687Y256349D01*
X349670Y256210D01*
X349656Y256071D01*
X349646Y255931D01*
X349640Y255792D01*
X349638Y255652D01*
X349640Y255512D01*
X349646Y255373D01*
X349656Y255233D01*
X349670Y255094D01*
X349687Y254955D01*
X349709Y254817D01*
X349735Y254680D01*
X349764Y254543D01*
X349797Y254407D01*
X349834Y254273D01*
X349875Y254139D01*
X349920Y254007D01*
X349969Y253875D01*
X350021Y253746D01*
X350076Y253618D01*
X350136Y253491D01*
X350199Y253366D01*
X350265Y253243D01*
X350335Y253122D01*
X350408Y253003D01*
X350485Y252886D01*
X350565Y252772D01*
X350648Y252659D01*
X350734Y252549D01*
X350824Y252442D01*
X350916Y252337D01*
X351011Y252235D01*
X351109Y252135D01*
X351210Y252038D01*
X351314Y251944D01*
X351420Y251854D01*
X351529Y251766D01*
X351640Y251681D01*
X351754Y251600D01*
X351869Y251521D01*
X351987Y251446D01*
X352108Y251375D01*
X352230Y251307D01*
X352353Y251242D01*
X352479Y251181D01*
X352607Y251123D01*
X352735Y251069D01*
X352866Y251019D01*
X352998Y250972D01*
X353131Y250929D01*
X353265Y250890D01*
X353400Y250855D01*
X353536Y250824D01*
X353674Y250796D01*
X353811Y250773D01*
X353950Y250753D01*
X354089Y250737D01*
X354228Y250725D01*
X354367Y250717D01*
X354507Y250713D01*
X354647Y250713D01*
X354787Y250717D01*
X354926Y250725D01*
X355065Y250737D01*
X355204Y250753D01*
X355343Y250773D01*
X355480Y250796D01*
X355618Y250824D01*
X355754Y250855D01*
X355889Y250890D01*
X356023Y250929D01*
X356156Y250972D01*
X356288Y251019D01*
X356419Y251069D01*
X356547Y251123D01*
X356675Y251181D01*
X356801Y251242D01*
X356924Y251307D01*
X357047Y251375D01*
X357167Y251446D01*
X357285Y251521D01*
X357400Y251600D01*
X357514Y251681D01*
X357625Y251766D01*
X357734Y251854D01*
X357840Y251944D01*
X357944Y252038D01*
X358045Y252135D01*
X358143Y252235D01*
X358238Y252337D01*
X358330Y252442D01*
X358420Y252549D01*
X358506Y252659D01*
X358589Y252772D01*
X358669Y252886D01*
X358746Y253003D01*
X358819Y253122D01*
X358889Y253243D01*
X358955Y253366D01*
X359018Y253491D01*
X359078Y253618D01*
X359133Y253746D01*
X359185Y253875D01*
X359234Y254007D01*
X359279Y254139D01*
X359320Y254273D01*
X359357Y254407D01*
X359390Y254543D01*
X359419Y254680D01*
X359445Y254817D01*
X359467Y254955D01*
X359484Y255094D01*
X359498Y255233D01*
X359508Y255373D01*
X359514Y255512D01*
X359516Y255652D01*
X358528Y264542D02*
X358526Y264666D01*
X358520Y264790D01*
X358510Y264914D01*
X358497Y265037D01*
X358479Y265160D01*
X358458Y265282D01*
X358433Y265404D01*
X358404Y265525D01*
X358371Y265644D01*
X358335Y265763D01*
X358294Y265880D01*
X358251Y265996D01*
X358203Y266111D01*
X358152Y266224D01*
X358097Y266336D01*
X358039Y266445D01*
X357978Y266553D01*
X357913Y266659D01*
X357845Y266763D01*
X357773Y266864D01*
X357699Y266964D01*
X357621Y267060D01*
X357541Y267155D01*
X357457Y267247D01*
X357371Y267336D01*
X357282Y267422D01*
X357190Y267506D01*
X357095Y267586D01*
X356999Y267664D01*
X356899Y267738D01*
X356798Y267810D01*
X356694Y267878D01*
X356588Y267943D01*
X356480Y268004D01*
X356371Y268062D01*
X356259Y268117D01*
X356146Y268168D01*
X356031Y268216D01*
X355915Y268259D01*
X355798Y268300D01*
X355679Y268336D01*
X355560Y268369D01*
X355439Y268398D01*
X355317Y268423D01*
X355195Y268444D01*
X355072Y268462D01*
X354949Y268475D01*
X354825Y268485D01*
X354701Y268491D01*
X354577Y268493D01*
X354453Y268491D01*
X354329Y268485D01*
X354205Y268475D01*
X354082Y268462D01*
X353959Y268444D01*
X353837Y268423D01*
X353715Y268398D01*
X353594Y268369D01*
X353475Y268336D01*
X353356Y268300D01*
X353239Y268259D01*
X353123Y268216D01*
X353008Y268168D01*
X352895Y268117D01*
X352783Y268062D01*
X352674Y268004D01*
X352566Y267943D01*
X352460Y267878D01*
X352356Y267810D01*
X352255Y267738D01*
X352155Y267664D01*
X352059Y267586D01*
X351964Y267506D01*
X351872Y267422D01*
X351783Y267336D01*
X351697Y267247D01*
X351613Y267155D01*
X351533Y267060D01*
X351455Y266964D01*
X351381Y266864D01*
X351309Y266763D01*
X351241Y266659D01*
X351176Y266553D01*
X351115Y266445D01*
X351057Y266336D01*
X351002Y266224D01*
X350951Y266111D01*
X350903Y265996D01*
X350860Y265880D01*
X350819Y265763D01*
X350783Y265644D01*
X350750Y265525D01*
X350721Y265404D01*
X350696Y265282D01*
X350675Y265160D01*
X350657Y265037D01*
X350644Y264914D01*
X350634Y264790D01*
X350628Y264666D01*
X350626Y264542D01*
X350628Y264418D01*
X350634Y264294D01*
X350644Y264170D01*
X350657Y264047D01*
X350675Y263924D01*
X350696Y263802D01*
X350721Y263680D01*
X350750Y263559D01*
X350783Y263440D01*
X350819Y263321D01*
X350860Y263204D01*
X350903Y263088D01*
X350951Y262973D01*
X351002Y262860D01*
X351057Y262748D01*
X351115Y262639D01*
X351176Y262531D01*
X351241Y262425D01*
X351309Y262321D01*
X351381Y262220D01*
X351455Y262120D01*
X351533Y262024D01*
X351613Y261929D01*
X351697Y261837D01*
X351783Y261748D01*
X351872Y261662D01*
X351964Y261578D01*
X352059Y261498D01*
X352155Y261420D01*
X352255Y261346D01*
X352356Y261274D01*
X352460Y261206D01*
X352566Y261141D01*
X352674Y261080D01*
X352783Y261022D01*
X352895Y260967D01*
X353008Y260916D01*
X353123Y260868D01*
X353239Y260825D01*
X353356Y260784D01*
X353475Y260748D01*
X353594Y260715D01*
X353715Y260686D01*
X353837Y260661D01*
X353959Y260640D01*
X354082Y260622D01*
X354205Y260609D01*
X354329Y260599D01*
X354453Y260593D01*
X354577Y260591D01*
X354701Y260593D01*
X354825Y260599D01*
X354949Y260609D01*
X355072Y260622D01*
X355195Y260640D01*
X355317Y260661D01*
X355439Y260686D01*
X355560Y260715D01*
X355679Y260748D01*
X355798Y260784D01*
X355915Y260825D01*
X356031Y260868D01*
X356146Y260916D01*
X356259Y260967D01*
X356371Y261022D01*
X356480Y261080D01*
X356588Y261141D01*
X356694Y261206D01*
X356798Y261274D01*
X356899Y261346D01*
X356999Y261420D01*
X357095Y261498D01*
X357190Y261578D01*
X357282Y261662D01*
X357371Y261748D01*
X357457Y261837D01*
X357541Y261929D01*
X357621Y262024D01*
X357699Y262120D01*
X357773Y262220D01*
X357845Y262321D01*
X357913Y262425D01*
X357978Y262531D01*
X358039Y262639D01*
X358097Y262748D01*
X358152Y262860D01*
X358203Y262973D01*
X358251Y263088D01*
X358294Y263204D01*
X358335Y263321D01*
X358371Y263440D01*
X358404Y263559D01*
X358433Y263680D01*
X358458Y263802D01*
X358479Y263924D01*
X358497Y264047D01*
X358510Y264170D01*
X358520Y264294D01*
X358526Y264418D01*
X358528Y264542D01*
X342122Y268493D02*
X342122Y250713D01*
X342122Y268493D02*
X337183Y268493D01*
X337043Y268491D01*
X336904Y268485D01*
X336764Y268475D01*
X336625Y268461D01*
X336486Y268444D01*
X336348Y268422D01*
X336211Y268396D01*
X336074Y268367D01*
X335938Y268334D01*
X335804Y268297D01*
X335670Y268256D01*
X335538Y268211D01*
X335406Y268162D01*
X335277Y268110D01*
X335149Y268055D01*
X335022Y267995D01*
X334897Y267932D01*
X334774Y267866D01*
X334653Y267796D01*
X334534Y267723D01*
X334417Y267646D01*
X334303Y267566D01*
X334190Y267483D01*
X334080Y267397D01*
X333973Y267307D01*
X333868Y267215D01*
X333766Y267120D01*
X333666Y267022D01*
X333569Y266921D01*
X333475Y266817D01*
X333385Y266711D01*
X333297Y266602D01*
X333212Y266491D01*
X333131Y266377D01*
X333052Y266262D01*
X332977Y266144D01*
X332906Y266024D01*
X332838Y265901D01*
X332773Y265778D01*
X332712Y265652D01*
X332654Y265524D01*
X332600Y265396D01*
X332550Y265265D01*
X332503Y265133D01*
X332460Y265000D01*
X332421Y264866D01*
X332386Y264731D01*
X332355Y264595D01*
X332327Y264457D01*
X332304Y264320D01*
X332284Y264181D01*
X332268Y264042D01*
X332256Y263903D01*
X332248Y263764D01*
X332244Y263624D01*
X332244Y263484D01*
X332248Y263344D01*
X332256Y263205D01*
X332268Y263066D01*
X332284Y262927D01*
X332304Y262788D01*
X332327Y262651D01*
X332355Y262513D01*
X332386Y262377D01*
X332421Y262242D01*
X332460Y262108D01*
X332503Y261975D01*
X332550Y261843D01*
X332600Y261712D01*
X332654Y261584D01*
X332712Y261456D01*
X332773Y261330D01*
X332838Y261207D01*
X332906Y261084D01*
X332977Y260964D01*
X333052Y260846D01*
X333131Y260731D01*
X333212Y260617D01*
X333297Y260506D01*
X333385Y260397D01*
X333475Y260291D01*
X333569Y260187D01*
X333666Y260086D01*
X333766Y259988D01*
X333868Y259893D01*
X333973Y259801D01*
X334080Y259711D01*
X334190Y259625D01*
X334303Y259542D01*
X334417Y259462D01*
X334534Y259385D01*
X334653Y259312D01*
X334774Y259242D01*
X334897Y259176D01*
X335022Y259113D01*
X335149Y259053D01*
X335277Y258998D01*
X335406Y258946D01*
X335538Y258897D01*
X335670Y258852D01*
X335804Y258811D01*
X335938Y258774D01*
X336074Y258741D01*
X336211Y258712D01*
X336348Y258686D01*
X336486Y258664D01*
X336625Y258647D01*
X336764Y258633D01*
X336904Y258623D01*
X337043Y258617D01*
X337183Y258615D01*
X342122Y258615D01*
X336195Y258615D02*
X332244Y250713D01*
X325457Y260591D02*
X319530Y260591D01*
X319406Y260589D01*
X319282Y260583D01*
X319158Y260573D01*
X319035Y260560D01*
X318912Y260542D01*
X318790Y260521D01*
X318668Y260496D01*
X318547Y260467D01*
X318428Y260434D01*
X318309Y260398D01*
X318192Y260357D01*
X318076Y260314D01*
X317961Y260266D01*
X317848Y260215D01*
X317736Y260160D01*
X317627Y260102D01*
X317519Y260041D01*
X317413Y259976D01*
X317309Y259908D01*
X317208Y259836D01*
X317108Y259762D01*
X317012Y259684D01*
X316917Y259604D01*
X316825Y259520D01*
X316736Y259434D01*
X316650Y259345D01*
X316566Y259253D01*
X316486Y259158D01*
X316408Y259062D01*
X316334Y258962D01*
X316262Y258861D01*
X316194Y258757D01*
X316129Y258651D01*
X316068Y258543D01*
X316010Y258434D01*
X315955Y258322D01*
X315904Y258209D01*
X315856Y258094D01*
X315813Y257978D01*
X315772Y257861D01*
X315736Y257742D01*
X315703Y257623D01*
X315674Y257502D01*
X315649Y257380D01*
X315628Y257258D01*
X315610Y257135D01*
X315597Y257012D01*
X315587Y256888D01*
X315581Y256764D01*
X315579Y256640D01*
X315579Y255652D01*
X315581Y255512D01*
X315587Y255373D01*
X315597Y255233D01*
X315611Y255094D01*
X315628Y254955D01*
X315650Y254817D01*
X315676Y254680D01*
X315705Y254543D01*
X315738Y254407D01*
X315775Y254273D01*
X315816Y254139D01*
X315861Y254007D01*
X315910Y253875D01*
X315962Y253746D01*
X316017Y253618D01*
X316077Y253491D01*
X316140Y253366D01*
X316206Y253243D01*
X316276Y253122D01*
X316349Y253003D01*
X316426Y252886D01*
X316506Y252772D01*
X316589Y252659D01*
X316675Y252549D01*
X316765Y252442D01*
X316857Y252337D01*
X316952Y252235D01*
X317050Y252135D01*
X317151Y252038D01*
X317255Y251944D01*
X317361Y251854D01*
X317470Y251766D01*
X317581Y251681D01*
X317695Y251600D01*
X317810Y251521D01*
X317928Y251446D01*
X318049Y251375D01*
X318171Y251307D01*
X318294Y251242D01*
X318420Y251181D01*
X318548Y251123D01*
X318676Y251069D01*
X318807Y251019D01*
X318939Y250972D01*
X319072Y250929D01*
X319206Y250890D01*
X319341Y250855D01*
X319477Y250824D01*
X319615Y250796D01*
X319752Y250773D01*
X319891Y250753D01*
X320030Y250737D01*
X320169Y250725D01*
X320308Y250717D01*
X320448Y250713D01*
X320588Y250713D01*
X320728Y250717D01*
X320867Y250725D01*
X321006Y250737D01*
X321145Y250753D01*
X321284Y250773D01*
X321421Y250796D01*
X321559Y250824D01*
X321695Y250855D01*
X321830Y250890D01*
X321964Y250929D01*
X322097Y250972D01*
X322229Y251019D01*
X322360Y251069D01*
X322488Y251123D01*
X322616Y251181D01*
X322742Y251242D01*
X322865Y251307D01*
X322988Y251375D01*
X323108Y251446D01*
X323226Y251521D01*
X323341Y251600D01*
X323455Y251681D01*
X323566Y251766D01*
X323675Y251854D01*
X323781Y251944D01*
X323885Y252038D01*
X323986Y252135D01*
X324084Y252235D01*
X324179Y252337D01*
X324271Y252442D01*
X324361Y252549D01*
X324447Y252659D01*
X324530Y252772D01*
X324610Y252886D01*
X324687Y253003D01*
X324760Y253122D01*
X324830Y253243D01*
X324896Y253366D01*
X324959Y253491D01*
X325019Y253618D01*
X325074Y253746D01*
X325126Y253875D01*
X325175Y254007D01*
X325220Y254139D01*
X325261Y254273D01*
X325298Y254407D01*
X325331Y254543D01*
X325360Y254680D01*
X325386Y254817D01*
X325408Y254955D01*
X325425Y255094D01*
X325439Y255233D01*
X325449Y255373D01*
X325455Y255512D01*
X325457Y255652D01*
X325457Y260591D01*
X325455Y260785D01*
X325447Y260979D01*
X325436Y261172D01*
X325419Y261366D01*
X325398Y261558D01*
X325371Y261750D01*
X325341Y261942D01*
X325305Y262133D01*
X325265Y262322D01*
X325220Y262511D01*
X325171Y262699D01*
X325117Y262885D01*
X325058Y263070D01*
X324995Y263253D01*
X324928Y263435D01*
X324856Y263615D01*
X324779Y263793D01*
X324698Y263970D01*
X324613Y264144D01*
X324524Y264316D01*
X324430Y264486D01*
X324333Y264653D01*
X324231Y264819D01*
X324125Y264981D01*
X324016Y265141D01*
X323902Y265298D01*
X323785Y265453D01*
X323663Y265604D01*
X323538Y265752D01*
X323410Y265898D01*
X323278Y266040D01*
X323143Y266179D01*
X323004Y266314D01*
X322862Y266446D01*
X322716Y266574D01*
X322568Y266699D01*
X322417Y266820D01*
X322262Y266938D01*
X322105Y267052D01*
X321945Y267161D01*
X321783Y267267D01*
X321617Y267369D01*
X321450Y267466D01*
X321280Y267560D01*
X321108Y267649D01*
X320934Y267734D01*
X320757Y267815D01*
X320579Y267891D01*
X320399Y267963D01*
X320217Y268031D01*
X320034Y268094D01*
X319849Y268153D01*
X319663Y268207D01*
X319475Y268256D01*
X319286Y268301D01*
X319097Y268341D01*
X318906Y268377D01*
X318715Y268407D01*
X318522Y268434D01*
X318330Y268455D01*
X318136Y268472D01*
X317943Y268483D01*
X317749Y268491D01*
X317555Y268493D01*
X307224Y266024D02*
X307374Y265707D01*
X307516Y265388D01*
X307650Y265065D01*
X307777Y264739D01*
X307895Y264409D01*
X308006Y264078D01*
X308109Y263743D01*
X308204Y263407D01*
X308290Y263068D01*
X308369Y262727D01*
X308440Y262384D01*
X308502Y262040D01*
X308556Y261695D01*
X308602Y261348D01*
X308639Y261000D01*
X308668Y260651D01*
X308689Y260302D01*
X308702Y259953D01*
X308706Y259603D01*
X307225Y266024D02*
X307185Y266137D01*
X307141Y266247D01*
X307093Y266357D01*
X307042Y266464D01*
X306987Y266570D01*
X306929Y266675D01*
X306867Y266777D01*
X306802Y266877D01*
X306734Y266975D01*
X306663Y267071D01*
X306588Y267164D01*
X306511Y267255D01*
X306431Y267343D01*
X306348Y267428D01*
X306262Y267511D01*
X306173Y267591D01*
X306082Y267668D01*
X305988Y267742D01*
X305892Y267813D01*
X305794Y267881D01*
X305694Y267945D01*
X305591Y268007D01*
X305487Y268064D01*
X305381Y268119D01*
X305273Y268170D01*
X305163Y268217D01*
X305052Y268261D01*
X304940Y268301D01*
X304826Y268337D01*
X304712Y268370D01*
X304596Y268399D01*
X304479Y268424D01*
X304362Y268445D01*
X304244Y268463D01*
X304125Y268476D01*
X304006Y268486D01*
X303887Y268492D01*
X303768Y268494D01*
X303768Y268493D02*
X303649Y268491D01*
X303530Y268485D01*
X303411Y268475D01*
X303292Y268462D01*
X303174Y268444D01*
X303057Y268423D01*
X302940Y268398D01*
X302824Y268369D01*
X302710Y268336D01*
X302596Y268300D01*
X302484Y268260D01*
X302373Y268216D01*
X302263Y268169D01*
X302155Y268118D01*
X302049Y268063D01*
X301945Y268006D01*
X301842Y267944D01*
X301742Y267880D01*
X301644Y267812D01*
X301548Y267741D01*
X301454Y267667D01*
X301363Y267590D01*
X301274Y267510D01*
X301189Y267427D01*
X301105Y267342D01*
X301025Y267254D01*
X300948Y267163D01*
X300873Y267070D01*
X300802Y266974D01*
X300734Y266876D01*
X300669Y266776D01*
X300607Y266674D01*
X300549Y266569D01*
X300494Y266464D01*
X300443Y266356D01*
X300395Y266246D01*
X300351Y266136D01*
X300311Y266023D01*
X300311Y266024D02*
X300161Y265707D01*
X300019Y265388D01*
X299885Y265065D01*
X299758Y264739D01*
X299640Y264409D01*
X299529Y264078D01*
X299426Y263743D01*
X299331Y263407D01*
X299245Y263068D01*
X299166Y262727D01*
X299095Y262384D01*
X299033Y262040D01*
X298979Y261695D01*
X298933Y261348D01*
X298896Y261000D01*
X298867Y260651D01*
X298846Y260302D01*
X298833Y259953D01*
X298829Y259603D01*
X308706Y259603D02*
X308702Y259253D01*
X308689Y258904D01*
X308668Y258555D01*
X308639Y258206D01*
X308602Y257858D01*
X308556Y257511D01*
X308502Y257166D01*
X308440Y256822D01*
X308369Y256479D01*
X308290Y256138D01*
X308204Y255799D01*
X308109Y255463D01*
X308006Y255128D01*
X307895Y254797D01*
X307777Y254468D01*
X307650Y254141D01*
X307516Y253818D01*
X307374Y253499D01*
X307224Y253183D01*
X307225Y253183D02*
X307185Y253070D01*
X307141Y252960D01*
X307093Y252850D01*
X307042Y252743D01*
X306987Y252637D01*
X306929Y252532D01*
X306867Y252430D01*
X306802Y252330D01*
X306734Y252232D01*
X306663Y252136D01*
X306588Y252043D01*
X306511Y251952D01*
X306431Y251864D01*
X306348Y251779D01*
X306262Y251696D01*
X306173Y251616D01*
X306082Y251539D01*
X305988Y251465D01*
X305892Y251394D01*
X305794Y251326D01*
X305694Y251262D01*
X305591Y251200D01*
X305487Y251143D01*
X305381Y251088D01*
X305273Y251037D01*
X305163Y250990D01*
X305052Y250946D01*
X304940Y250906D01*
X304826Y250870D01*
X304712Y250837D01*
X304596Y250808D01*
X304479Y250783D01*
X304362Y250762D01*
X304244Y250744D01*
X304125Y250731D01*
X304006Y250721D01*
X303887Y250715D01*
X303768Y250713D01*
X300311Y253183D02*
X300161Y253499D01*
X300019Y253818D01*
X299885Y254141D01*
X299758Y254468D01*
X299640Y254797D01*
X299529Y255128D01*
X299426Y255463D01*
X299331Y255799D01*
X299245Y256138D01*
X299166Y256479D01*
X299095Y256822D01*
X299033Y257166D01*
X298979Y257511D01*
X298933Y257858D01*
X298896Y258206D01*
X298867Y258555D01*
X298846Y258904D01*
X298833Y259253D01*
X298829Y259603D01*
X300311Y253183D02*
X300351Y253070D01*
X300395Y252960D01*
X300443Y252850D01*
X300494Y252742D01*
X300549Y252636D01*
X300607Y252532D01*
X300669Y252430D01*
X300734Y252330D01*
X300802Y252232D01*
X300873Y252136D01*
X300948Y252043D01*
X301025Y251952D01*
X301105Y251864D01*
X301189Y251779D01*
X301274Y251696D01*
X301363Y251616D01*
X301454Y251539D01*
X301548Y251465D01*
X301644Y251394D01*
X301742Y251326D01*
X301842Y251262D01*
X301945Y251200D01*
X302049Y251142D01*
X302155Y251088D01*
X302263Y251037D01*
X302373Y250990D01*
X302484Y250946D01*
X302596Y250906D01*
X302710Y250870D01*
X302824Y250837D01*
X302940Y250808D01*
X303057Y250783D01*
X303174Y250762D01*
X303292Y250744D01*
X303411Y250731D01*
X303530Y250721D01*
X303649Y250715D01*
X303768Y250713D01*
X307719Y254664D02*
X299816Y264542D01*
D12*
X426772Y380884D02*
X428861Y380884D01*
X428950Y380886D01*
X429038Y380892D01*
X429126Y380901D01*
X429214Y380914D01*
X429301Y380931D01*
X429387Y380951D01*
X429472Y380976D01*
X429557Y381003D01*
X429640Y381035D01*
X429721Y381069D01*
X429801Y381108D01*
X429879Y381149D01*
X429956Y381194D01*
X430030Y381242D01*
X430103Y381293D01*
X430173Y381347D01*
X430240Y381405D01*
X430306Y381465D01*
X430368Y381527D01*
X430428Y381593D01*
X430486Y381660D01*
X430540Y381730D01*
X430591Y381803D01*
X430639Y381877D01*
X430684Y381954D01*
X430725Y382032D01*
X430764Y382112D01*
X430798Y382193D01*
X430830Y382276D01*
X430857Y382361D01*
X430882Y382446D01*
X430902Y382532D01*
X430919Y382619D01*
X430932Y382707D01*
X430941Y382795D01*
X430947Y382883D01*
X430949Y382972D01*
X430949Y388193D01*
X430947Y388282D01*
X430941Y388370D01*
X430932Y388458D01*
X430919Y388546D01*
X430902Y388633D01*
X430882Y388719D01*
X430857Y388804D01*
X430830Y388889D01*
X430798Y388972D01*
X430764Y389053D01*
X430725Y389133D01*
X430684Y389211D01*
X430639Y389288D01*
X430591Y389362D01*
X430540Y389435D01*
X430486Y389505D01*
X430428Y389572D01*
X430368Y389638D01*
X430306Y389700D01*
X430240Y389760D01*
X430173Y389818D01*
X430103Y389872D01*
X430030Y389923D01*
X429956Y389971D01*
X429879Y390016D01*
X429801Y390057D01*
X429721Y390096D01*
X429640Y390130D01*
X429557Y390162D01*
X429472Y390189D01*
X429387Y390214D01*
X429301Y390234D01*
X429214Y390251D01*
X429126Y390264D01*
X429038Y390273D01*
X428950Y390279D01*
X428861Y390281D01*
X428861Y390282D02*
X426772Y390282D01*
X423304Y383494D02*
X423302Y383595D01*
X423296Y383696D01*
X423286Y383797D01*
X423273Y383897D01*
X423255Y383997D01*
X423234Y384096D01*
X423208Y384194D01*
X423179Y384291D01*
X423147Y384387D01*
X423110Y384481D01*
X423070Y384574D01*
X423026Y384666D01*
X422979Y384755D01*
X422928Y384843D01*
X422874Y384929D01*
X422817Y385012D01*
X422757Y385094D01*
X422693Y385172D01*
X422627Y385249D01*
X422557Y385322D01*
X422485Y385393D01*
X422410Y385461D01*
X422332Y385526D01*
X422252Y385588D01*
X422170Y385647D01*
X422085Y385703D01*
X421999Y385755D01*
X421910Y385804D01*
X421819Y385850D01*
X421727Y385891D01*
X421633Y385930D01*
X421538Y385964D01*
X421442Y385995D01*
X421344Y386022D01*
X421246Y386046D01*
X421146Y386065D01*
X421046Y386081D01*
X420946Y386093D01*
X420845Y386101D01*
X420744Y386105D01*
X420642Y386105D01*
X420541Y386101D01*
X420440Y386093D01*
X420340Y386081D01*
X420240Y386065D01*
X420140Y386046D01*
X420042Y386022D01*
X419944Y385995D01*
X419848Y385964D01*
X419753Y385930D01*
X419659Y385891D01*
X419567Y385850D01*
X419476Y385804D01*
X419388Y385755D01*
X419301Y385703D01*
X419216Y385647D01*
X419134Y385588D01*
X419054Y385526D01*
X418976Y385461D01*
X418901Y385393D01*
X418829Y385322D01*
X418759Y385249D01*
X418693Y385172D01*
X418629Y385094D01*
X418569Y385012D01*
X418512Y384929D01*
X418458Y384843D01*
X418407Y384755D01*
X418360Y384666D01*
X418316Y384574D01*
X418276Y384481D01*
X418239Y384387D01*
X418207Y384291D01*
X418178Y384194D01*
X418152Y384096D01*
X418131Y383997D01*
X418113Y383897D01*
X418100Y383797D01*
X418090Y383696D01*
X418084Y383595D01*
X418082Y383494D01*
X418084Y383393D01*
X418090Y383292D01*
X418100Y383191D01*
X418113Y383091D01*
X418131Y382991D01*
X418152Y382892D01*
X418178Y382794D01*
X418207Y382697D01*
X418239Y382601D01*
X418276Y382507D01*
X418316Y382414D01*
X418360Y382322D01*
X418407Y382233D01*
X418458Y382145D01*
X418512Y382059D01*
X418569Y381976D01*
X418629Y381894D01*
X418693Y381816D01*
X418759Y381739D01*
X418829Y381666D01*
X418901Y381595D01*
X418976Y381527D01*
X419054Y381462D01*
X419134Y381400D01*
X419216Y381341D01*
X419301Y381285D01*
X419388Y381233D01*
X419476Y381184D01*
X419567Y381138D01*
X419659Y381097D01*
X419753Y381058D01*
X419848Y381024D01*
X419944Y380993D01*
X420042Y380966D01*
X420140Y380942D01*
X420240Y380923D01*
X420340Y380907D01*
X420440Y380895D01*
X420541Y380887D01*
X420642Y380883D01*
X420744Y380883D01*
X420845Y380887D01*
X420946Y380895D01*
X421046Y380907D01*
X421146Y380923D01*
X421246Y380942D01*
X421344Y380966D01*
X421442Y380993D01*
X421538Y381024D01*
X421633Y381058D01*
X421727Y381097D01*
X421819Y381138D01*
X421910Y381184D01*
X421998Y381233D01*
X422085Y381285D01*
X422170Y381341D01*
X422252Y381400D01*
X422332Y381462D01*
X422410Y381527D01*
X422485Y381595D01*
X422557Y381666D01*
X422627Y381739D01*
X422693Y381816D01*
X422757Y381894D01*
X422817Y381976D01*
X422874Y382059D01*
X422928Y382145D01*
X422979Y382233D01*
X423026Y382322D01*
X423070Y382414D01*
X423110Y382507D01*
X423147Y382601D01*
X423179Y382697D01*
X423208Y382794D01*
X423234Y382892D01*
X423255Y382991D01*
X423273Y383091D01*
X423286Y383191D01*
X423296Y383292D01*
X423302Y383393D01*
X423304Y383494D01*
X422781Y388193D02*
X422779Y388283D01*
X422773Y388372D01*
X422764Y388462D01*
X422750Y388551D01*
X422733Y388639D01*
X422712Y388726D01*
X422687Y388813D01*
X422658Y388898D01*
X422626Y388982D01*
X422591Y389064D01*
X422551Y389145D01*
X422509Y389224D01*
X422463Y389301D01*
X422413Y389376D01*
X422361Y389449D01*
X422305Y389520D01*
X422247Y389588D01*
X422185Y389653D01*
X422121Y389716D01*
X422054Y389776D01*
X421985Y389833D01*
X421913Y389887D01*
X421839Y389938D01*
X421763Y389986D01*
X421685Y390030D01*
X421605Y390071D01*
X421523Y390109D01*
X421440Y390143D01*
X421355Y390173D01*
X421269Y390200D01*
X421183Y390223D01*
X421095Y390242D01*
X421006Y390257D01*
X420917Y390269D01*
X420828Y390277D01*
X420738Y390281D01*
X420648Y390281D01*
X420558Y390277D01*
X420469Y390269D01*
X420380Y390257D01*
X420291Y390242D01*
X420203Y390223D01*
X420117Y390200D01*
X420031Y390173D01*
X419946Y390143D01*
X419863Y390109D01*
X419781Y390071D01*
X419701Y390030D01*
X419623Y389986D01*
X419547Y389938D01*
X419473Y389887D01*
X419401Y389833D01*
X419332Y389776D01*
X419265Y389716D01*
X419201Y389653D01*
X419139Y389588D01*
X419081Y389520D01*
X419025Y389449D01*
X418973Y389376D01*
X418923Y389301D01*
X418877Y389224D01*
X418835Y389145D01*
X418795Y389064D01*
X418760Y388982D01*
X418728Y388898D01*
X418699Y388813D01*
X418674Y388726D01*
X418653Y388639D01*
X418636Y388551D01*
X418622Y388462D01*
X418613Y388372D01*
X418607Y388283D01*
X418605Y388193D01*
X418607Y388103D01*
X418613Y388014D01*
X418622Y387924D01*
X418636Y387835D01*
X418653Y387747D01*
X418674Y387660D01*
X418699Y387573D01*
X418728Y387488D01*
X418760Y387404D01*
X418795Y387322D01*
X418835Y387241D01*
X418877Y387162D01*
X418923Y387085D01*
X418973Y387010D01*
X419025Y386937D01*
X419081Y386866D01*
X419139Y386798D01*
X419201Y386733D01*
X419265Y386670D01*
X419332Y386610D01*
X419401Y386553D01*
X419473Y386499D01*
X419547Y386448D01*
X419623Y386400D01*
X419701Y386356D01*
X419781Y386315D01*
X419863Y386277D01*
X419946Y386243D01*
X420031Y386213D01*
X420117Y386186D01*
X420203Y386163D01*
X420291Y386144D01*
X420380Y386129D01*
X420469Y386117D01*
X420558Y386109D01*
X420648Y386105D01*
X420738Y386105D01*
X420828Y386109D01*
X420917Y386117D01*
X421006Y386129D01*
X421095Y386144D01*
X421183Y386163D01*
X421269Y386186D01*
X421355Y386213D01*
X421440Y386243D01*
X421523Y386277D01*
X421605Y386315D01*
X421685Y386356D01*
X421763Y386400D01*
X421839Y386448D01*
X421913Y386499D01*
X421985Y386553D01*
X422054Y386610D01*
X422121Y386670D01*
X422185Y386733D01*
X422247Y386798D01*
X422305Y386866D01*
X422361Y386937D01*
X422413Y387010D01*
X422463Y387085D01*
X422509Y387162D01*
X422551Y387241D01*
X422591Y387322D01*
X422626Y387404D01*
X422658Y387488D01*
X422687Y387573D01*
X422712Y387660D01*
X422733Y387747D01*
X422750Y387835D01*
X422764Y387924D01*
X422773Y388014D01*
X422779Y388103D01*
X422781Y388193D01*
D10*
X415457Y306122D02*
X435586Y306122D01*
D12*
X429816Y293546D02*
X427727Y293546D01*
X429816Y293547D02*
X429905Y293549D01*
X429993Y293555D01*
X430081Y293564D01*
X430169Y293577D01*
X430256Y293594D01*
X430342Y293614D01*
X430427Y293639D01*
X430512Y293666D01*
X430595Y293698D01*
X430676Y293732D01*
X430756Y293771D01*
X430834Y293812D01*
X430911Y293857D01*
X430985Y293905D01*
X431058Y293956D01*
X431128Y294010D01*
X431195Y294068D01*
X431261Y294128D01*
X431323Y294190D01*
X431383Y294256D01*
X431441Y294323D01*
X431495Y294393D01*
X431546Y294466D01*
X431594Y294540D01*
X431639Y294617D01*
X431680Y294695D01*
X431719Y294775D01*
X431753Y294856D01*
X431785Y294939D01*
X431812Y295024D01*
X431837Y295109D01*
X431857Y295195D01*
X431874Y295282D01*
X431887Y295370D01*
X431896Y295458D01*
X431902Y295546D01*
X431904Y295635D01*
X431904Y300856D01*
X431902Y300945D01*
X431896Y301033D01*
X431887Y301121D01*
X431874Y301209D01*
X431857Y301296D01*
X431837Y301382D01*
X431812Y301467D01*
X431785Y301552D01*
X431753Y301635D01*
X431719Y301716D01*
X431680Y301796D01*
X431639Y301874D01*
X431594Y301951D01*
X431546Y302025D01*
X431495Y302098D01*
X431441Y302168D01*
X431383Y302235D01*
X431323Y302301D01*
X431261Y302363D01*
X431195Y302423D01*
X431128Y302481D01*
X431058Y302535D01*
X430985Y302586D01*
X430911Y302634D01*
X430834Y302679D01*
X430756Y302720D01*
X430676Y302759D01*
X430595Y302793D01*
X430512Y302825D01*
X430427Y302852D01*
X430342Y302877D01*
X430256Y302897D01*
X430169Y302914D01*
X430081Y302927D01*
X429993Y302936D01*
X429905Y302942D01*
X429816Y302944D01*
X427727Y302944D01*
X421387Y302945D02*
X421292Y302943D01*
X421198Y302937D01*
X421104Y302928D01*
X421010Y302915D01*
X420917Y302898D01*
X420825Y302877D01*
X420733Y302852D01*
X420643Y302824D01*
X420554Y302792D01*
X420466Y302757D01*
X420380Y302718D01*
X420295Y302676D01*
X420212Y302630D01*
X420131Y302581D01*
X420052Y302529D01*
X419975Y302474D01*
X419901Y302415D01*
X419829Y302354D01*
X419759Y302290D01*
X419692Y302223D01*
X419628Y302153D01*
X419567Y302081D01*
X419508Y302007D01*
X419453Y301930D01*
X419401Y301851D01*
X419352Y301770D01*
X419306Y301687D01*
X419264Y301602D01*
X419225Y301516D01*
X419190Y301428D01*
X419158Y301339D01*
X419130Y301249D01*
X419105Y301157D01*
X419084Y301065D01*
X419067Y300972D01*
X419054Y300878D01*
X419045Y300784D01*
X419039Y300690D01*
X419037Y300595D01*
X421387Y302944D02*
X421495Y302942D01*
X421604Y302936D01*
X421712Y302926D01*
X421819Y302913D01*
X421926Y302895D01*
X422033Y302874D01*
X422138Y302849D01*
X422243Y302820D01*
X422346Y302788D01*
X422448Y302751D01*
X422549Y302711D01*
X422648Y302668D01*
X422746Y302621D01*
X422842Y302570D01*
X422936Y302516D01*
X423028Y302459D01*
X423118Y302398D01*
X423206Y302334D01*
X423291Y302268D01*
X423374Y302198D01*
X423454Y302125D01*
X423532Y302049D01*
X423607Y301971D01*
X423679Y301890D01*
X423748Y301806D01*
X423814Y301720D01*
X423877Y301632D01*
X423936Y301541D01*
X423993Y301449D01*
X424046Y301354D01*
X424095Y301257D01*
X424141Y301159D01*
X424184Y301060D01*
X424223Y300958D01*
X424258Y300856D01*
X419820Y298767D02*
X419751Y298836D01*
X419685Y298907D01*
X419621Y298980D01*
X419560Y299056D01*
X419502Y299135D01*
X419448Y299215D01*
X419396Y299298D01*
X419348Y299382D01*
X419302Y299468D01*
X419261Y299556D01*
X419222Y299646D01*
X419187Y299737D01*
X419156Y299829D01*
X419128Y299922D01*
X419104Y300016D01*
X419084Y300111D01*
X419067Y300207D01*
X419054Y300304D01*
X419045Y300401D01*
X419039Y300498D01*
X419037Y300595D01*
X419821Y298767D02*
X424259Y293546D01*
X419038Y293546D01*
D13*
X381202Y376202D02*
X376202Y381202D01*
X311202Y311212D02*
X311202Y311202D01*
X385972Y373852D02*
X385974Y373941D01*
X385980Y374030D01*
X385990Y374119D01*
X386004Y374207D01*
X386021Y374294D01*
X386043Y374380D01*
X386069Y374466D01*
X386098Y374550D01*
X386131Y374633D01*
X386167Y374714D01*
X386208Y374794D01*
X386251Y374871D01*
X386298Y374947D01*
X386349Y375020D01*
X386402Y375091D01*
X386459Y375160D01*
X386519Y375226D01*
X386582Y375290D01*
X386647Y375350D01*
X386715Y375408D01*
X386786Y375462D01*
X386859Y375513D01*
X386934Y375561D01*
X387011Y375606D01*
X387090Y375647D01*
X387171Y375684D01*
X387253Y375718D01*
X387337Y375749D01*
X387422Y375775D01*
X387508Y375798D01*
X387595Y375816D01*
X387683Y375831D01*
X387772Y375842D01*
X387861Y375849D01*
X387950Y375852D01*
X388039Y375851D01*
X388128Y375846D01*
X388216Y375837D01*
X388305Y375824D01*
X388392Y375807D01*
X388479Y375787D01*
X388565Y375762D01*
X388649Y375734D01*
X388732Y375702D01*
X388814Y375666D01*
X388894Y375627D01*
X388972Y375584D01*
X389048Y375538D01*
X389122Y375488D01*
X389194Y375435D01*
X389263Y375379D01*
X389330Y375320D01*
X389394Y375258D01*
X389455Y375194D01*
X389514Y375126D01*
X389569Y375056D01*
X389621Y374984D01*
X389670Y374909D01*
X389715Y374833D01*
X389757Y374754D01*
X389795Y374674D01*
X389830Y374592D01*
X389861Y374508D01*
X389889Y374423D01*
X389912Y374337D01*
X389932Y374250D01*
X389948Y374163D01*
X389960Y374074D01*
X389968Y373986D01*
X389972Y373897D01*
X389972Y373807D01*
X389968Y373718D01*
X389960Y373630D01*
X389948Y373541D01*
X389932Y373454D01*
X389912Y373367D01*
X389889Y373281D01*
X389861Y373196D01*
X389830Y373112D01*
X389795Y373030D01*
X389757Y372950D01*
X389715Y372871D01*
X389670Y372795D01*
X389621Y372720D01*
X389569Y372648D01*
X389514Y372578D01*
X389455Y372510D01*
X389394Y372446D01*
X389330Y372384D01*
X389263Y372325D01*
X389194Y372269D01*
X389122Y372216D01*
X389048Y372166D01*
X388972Y372120D01*
X388894Y372077D01*
X388814Y372038D01*
X388732Y372002D01*
X388649Y371970D01*
X388565Y371942D01*
X388479Y371917D01*
X388392Y371897D01*
X388305Y371880D01*
X388216Y371867D01*
X388128Y371858D01*
X388039Y371853D01*
X387950Y371852D01*
X387861Y371855D01*
X387772Y371862D01*
X387683Y371873D01*
X387595Y371888D01*
X387508Y371906D01*
X387422Y371929D01*
X387337Y371955D01*
X387253Y371986D01*
X387171Y372020D01*
X387090Y372057D01*
X387011Y372098D01*
X386934Y372143D01*
X386859Y372191D01*
X386786Y372242D01*
X386715Y372296D01*
X386647Y372354D01*
X386582Y372414D01*
X386519Y372478D01*
X386459Y372544D01*
X386402Y372613D01*
X386349Y372684D01*
X386298Y372757D01*
X386251Y372833D01*
X386208Y372910D01*
X386167Y372990D01*
X386131Y373071D01*
X386098Y373154D01*
X386069Y373238D01*
X386043Y373324D01*
X386021Y373410D01*
X386004Y373497D01*
X385990Y373585D01*
X385980Y373674D01*
X385974Y373763D01*
X385972Y373852D01*
X311242Y381212D02*
X311242Y381222D01*
X315942Y381222D01*
X315902Y311212D02*
X311202Y311212D01*
X311242Y376522D02*
X311242Y381212D01*
X311192Y315902D02*
X311192Y311202D01*
X376522Y311202D02*
X381222Y311202D01*
X381222Y311192D02*
X381222Y315892D01*
D12*
X335916Y388207D02*
X335916Y394995D01*
X335916Y388207D02*
X335914Y388106D01*
X335908Y388005D01*
X335898Y387904D01*
X335885Y387804D01*
X335867Y387704D01*
X335846Y387605D01*
X335820Y387507D01*
X335791Y387410D01*
X335759Y387314D01*
X335722Y387220D01*
X335682Y387127D01*
X335638Y387035D01*
X335591Y386946D01*
X335540Y386858D01*
X335486Y386772D01*
X335429Y386689D01*
X335369Y386607D01*
X335305Y386529D01*
X335239Y386452D01*
X335169Y386379D01*
X335097Y386308D01*
X335022Y386240D01*
X334944Y386175D01*
X334864Y386113D01*
X334782Y386054D01*
X334697Y385998D01*
X334610Y385946D01*
X334522Y385897D01*
X334431Y385851D01*
X334339Y385810D01*
X334245Y385771D01*
X334150Y385737D01*
X334054Y385706D01*
X333956Y385679D01*
X333858Y385655D01*
X333758Y385636D01*
X333658Y385620D01*
X333558Y385608D01*
X333457Y385600D01*
X333356Y385596D01*
X333254Y385596D01*
X333153Y385600D01*
X333052Y385608D01*
X332952Y385620D01*
X332852Y385636D01*
X332752Y385655D01*
X332654Y385679D01*
X332556Y385706D01*
X332460Y385737D01*
X332365Y385771D01*
X332271Y385810D01*
X332179Y385851D01*
X332088Y385897D01*
X332000Y385946D01*
X331913Y385998D01*
X331828Y386054D01*
X331746Y386113D01*
X331666Y386175D01*
X331588Y386240D01*
X331513Y386308D01*
X331441Y386379D01*
X331371Y386452D01*
X331305Y386529D01*
X331241Y386607D01*
X331181Y386689D01*
X331124Y386772D01*
X331070Y386858D01*
X331019Y386946D01*
X330972Y387035D01*
X330928Y387127D01*
X330888Y387220D01*
X330851Y387314D01*
X330819Y387410D01*
X330790Y387507D01*
X330764Y387605D01*
X330743Y387704D01*
X330725Y387804D01*
X330712Y387904D01*
X330702Y388005D01*
X330696Y388106D01*
X330694Y388207D01*
X330695Y388207D02*
X330695Y394995D01*
X326467Y392906D02*
X323856Y394995D01*
X323856Y385597D01*
X321246Y385597D02*
X326467Y385597D01*
D14*
X392616Y378473D02*
X392616Y342913D01*
X412936Y342913D01*
X412936Y378473D01*
X392616Y378473D01*
D12*
X407674Y389674D02*
X413939Y380276D01*
X407674Y380276D02*
X413939Y389674D01*
X404273Y387586D02*
X401662Y389674D01*
X401662Y380276D01*
X399052Y380276D02*
X404273Y380276D01*
X375798Y423062D02*
X375798Y432460D01*
X373188Y432460D01*
X373188Y432461D02*
X373087Y432459D01*
X372986Y432453D01*
X372885Y432443D01*
X372785Y432430D01*
X372685Y432412D01*
X372586Y432391D01*
X372488Y432365D01*
X372391Y432336D01*
X372295Y432304D01*
X372201Y432267D01*
X372108Y432227D01*
X372016Y432183D01*
X371927Y432136D01*
X371839Y432085D01*
X371753Y432031D01*
X371670Y431974D01*
X371588Y431914D01*
X371510Y431850D01*
X371433Y431784D01*
X371360Y431714D01*
X371289Y431642D01*
X371221Y431567D01*
X371156Y431489D01*
X371094Y431409D01*
X371035Y431327D01*
X370979Y431242D01*
X370927Y431156D01*
X370878Y431067D01*
X370832Y430976D01*
X370791Y430884D01*
X370752Y430790D01*
X370718Y430695D01*
X370687Y430599D01*
X370660Y430501D01*
X370636Y430403D01*
X370617Y430303D01*
X370601Y430203D01*
X370589Y430103D01*
X370581Y430002D01*
X370577Y429901D01*
X370577Y429799D01*
X370581Y429698D01*
X370589Y429597D01*
X370601Y429497D01*
X370617Y429397D01*
X370636Y429297D01*
X370660Y429199D01*
X370687Y429101D01*
X370718Y429005D01*
X370752Y428910D01*
X370791Y428816D01*
X370832Y428724D01*
X370878Y428633D01*
X370927Y428545D01*
X370979Y428458D01*
X371035Y428373D01*
X371094Y428291D01*
X371156Y428211D01*
X371221Y428133D01*
X371289Y428058D01*
X371360Y427986D01*
X371433Y427916D01*
X371510Y427850D01*
X371588Y427786D01*
X371670Y427726D01*
X371753Y427669D01*
X371839Y427615D01*
X371927Y427564D01*
X372016Y427517D01*
X372108Y427473D01*
X372201Y427433D01*
X372295Y427396D01*
X372391Y427364D01*
X372488Y427335D01*
X372586Y427309D01*
X372685Y427288D01*
X372785Y427270D01*
X372885Y427257D01*
X372986Y427247D01*
X373087Y427241D01*
X373188Y427239D01*
X375798Y427239D01*
X372666Y427239D02*
X370577Y423062D01*
X366711Y423062D02*
X364101Y423062D01*
X364000Y423064D01*
X363899Y423070D01*
X363798Y423080D01*
X363698Y423093D01*
X363598Y423111D01*
X363499Y423132D01*
X363401Y423158D01*
X363304Y423187D01*
X363208Y423219D01*
X363114Y423256D01*
X363021Y423296D01*
X362929Y423340D01*
X362840Y423387D01*
X362752Y423438D01*
X362666Y423492D01*
X362583Y423549D01*
X362501Y423609D01*
X362423Y423673D01*
X362346Y423739D01*
X362273Y423809D01*
X362202Y423881D01*
X362134Y423956D01*
X362069Y424034D01*
X362007Y424114D01*
X361948Y424196D01*
X361892Y424281D01*
X361840Y424368D01*
X361791Y424456D01*
X361745Y424547D01*
X361704Y424639D01*
X361665Y424733D01*
X361631Y424828D01*
X361600Y424924D01*
X361573Y425022D01*
X361549Y425120D01*
X361530Y425220D01*
X361514Y425320D01*
X361502Y425420D01*
X361494Y425521D01*
X361490Y425622D01*
X361490Y425724D01*
X361494Y425825D01*
X361502Y425926D01*
X361514Y426026D01*
X361530Y426126D01*
X361549Y426226D01*
X361573Y426324D01*
X361600Y426422D01*
X361631Y426518D01*
X361665Y426613D01*
X361704Y426707D01*
X361745Y426799D01*
X361791Y426890D01*
X361840Y426979D01*
X361892Y427065D01*
X361948Y427150D01*
X362007Y427232D01*
X362069Y427312D01*
X362134Y427390D01*
X362202Y427465D01*
X362273Y427537D01*
X362346Y427607D01*
X362423Y427673D01*
X362501Y427737D01*
X362583Y427797D01*
X362666Y427854D01*
X362752Y427908D01*
X362840Y427959D01*
X362929Y428006D01*
X363021Y428050D01*
X363114Y428090D01*
X363208Y428127D01*
X363304Y428159D01*
X363401Y428188D01*
X363499Y428214D01*
X363598Y428235D01*
X363698Y428253D01*
X363798Y428266D01*
X363899Y428276D01*
X364000Y428282D01*
X364101Y428284D01*
X363579Y432460D02*
X366711Y432460D01*
X363579Y432460D02*
X363489Y432458D01*
X363400Y432452D01*
X363310Y432443D01*
X363221Y432429D01*
X363133Y432412D01*
X363046Y432391D01*
X362959Y432366D01*
X362874Y432337D01*
X362790Y432305D01*
X362708Y432270D01*
X362627Y432230D01*
X362548Y432188D01*
X362471Y432142D01*
X362396Y432092D01*
X362323Y432040D01*
X362252Y431984D01*
X362184Y431926D01*
X362119Y431864D01*
X362056Y431800D01*
X361996Y431733D01*
X361939Y431664D01*
X361885Y431592D01*
X361834Y431518D01*
X361786Y431442D01*
X361742Y431364D01*
X361701Y431284D01*
X361663Y431202D01*
X361629Y431119D01*
X361599Y431034D01*
X361572Y430948D01*
X361549Y430862D01*
X361530Y430774D01*
X361515Y430685D01*
X361503Y430596D01*
X361495Y430507D01*
X361491Y430417D01*
X361491Y430327D01*
X361495Y430237D01*
X361503Y430148D01*
X361515Y430059D01*
X361530Y429970D01*
X361549Y429882D01*
X361572Y429796D01*
X361599Y429710D01*
X361629Y429625D01*
X361663Y429542D01*
X361701Y429460D01*
X361742Y429380D01*
X361786Y429302D01*
X361834Y429226D01*
X361885Y429152D01*
X361939Y429080D01*
X361996Y429011D01*
X362056Y428944D01*
X362119Y428880D01*
X362184Y428818D01*
X362252Y428760D01*
X362323Y428704D01*
X362396Y428652D01*
X362471Y428602D01*
X362548Y428556D01*
X362627Y428514D01*
X362708Y428474D01*
X362790Y428439D01*
X362874Y428407D01*
X362959Y428378D01*
X363046Y428353D01*
X363133Y428332D01*
X363221Y428315D01*
X363310Y428301D01*
X363400Y428292D01*
X363489Y428286D01*
X363579Y428284D01*
X363579Y428283D02*
X365667Y428283D01*
D10*
X307477Y408851D02*
X307477Y388722D01*
D12*
X294391Y358178D02*
X292302Y358178D01*
X294391Y358178D02*
X294480Y358180D01*
X294568Y358186D01*
X294656Y358195D01*
X294744Y358208D01*
X294831Y358225D01*
X294917Y358245D01*
X295002Y358270D01*
X295087Y358297D01*
X295170Y358329D01*
X295251Y358363D01*
X295331Y358402D01*
X295409Y358443D01*
X295486Y358488D01*
X295560Y358536D01*
X295633Y358587D01*
X295703Y358641D01*
X295770Y358699D01*
X295836Y358759D01*
X295898Y358821D01*
X295958Y358887D01*
X296016Y358954D01*
X296070Y359024D01*
X296121Y359097D01*
X296169Y359171D01*
X296214Y359248D01*
X296255Y359326D01*
X296294Y359406D01*
X296328Y359487D01*
X296360Y359570D01*
X296387Y359655D01*
X296412Y359740D01*
X296432Y359826D01*
X296449Y359913D01*
X296462Y360001D01*
X296471Y360089D01*
X296477Y360177D01*
X296479Y360266D01*
X296479Y365488D01*
X296477Y365577D01*
X296471Y365665D01*
X296462Y365753D01*
X296449Y365841D01*
X296432Y365928D01*
X296412Y366014D01*
X296387Y366099D01*
X296360Y366184D01*
X296328Y366267D01*
X296294Y366348D01*
X296255Y366428D01*
X296214Y366506D01*
X296169Y366583D01*
X296121Y366657D01*
X296070Y366730D01*
X296016Y366800D01*
X295958Y366867D01*
X295898Y366933D01*
X295836Y366995D01*
X295770Y367055D01*
X295703Y367113D01*
X295633Y367167D01*
X295560Y367218D01*
X295486Y367266D01*
X295409Y367311D01*
X295331Y367352D01*
X295251Y367391D01*
X295170Y367425D01*
X295087Y367457D01*
X295002Y367484D01*
X294917Y367509D01*
X294831Y367529D01*
X294744Y367546D01*
X294656Y367559D01*
X294568Y367568D01*
X294480Y367574D01*
X294391Y367576D01*
X292302Y367576D01*
X286745Y367576D02*
X288834Y360266D01*
X283612Y360266D01*
X285179Y358178D02*
X285179Y362355D01*
D10*
X283274Y315265D02*
X263144Y315265D01*
D12*
X267691Y321174D02*
X267691Y323263D01*
X267691Y321174D02*
X267693Y321085D01*
X267699Y320997D01*
X267708Y320909D01*
X267721Y320821D01*
X267738Y320734D01*
X267758Y320648D01*
X267783Y320563D01*
X267810Y320478D01*
X267842Y320395D01*
X267876Y320314D01*
X267915Y320234D01*
X267956Y320156D01*
X268001Y320079D01*
X268049Y320005D01*
X268100Y319932D01*
X268154Y319862D01*
X268212Y319795D01*
X268272Y319729D01*
X268334Y319667D01*
X268400Y319607D01*
X268467Y319549D01*
X268537Y319495D01*
X268610Y319444D01*
X268684Y319396D01*
X268761Y319351D01*
X268839Y319310D01*
X268919Y319271D01*
X269000Y319237D01*
X269083Y319205D01*
X269168Y319178D01*
X269253Y319153D01*
X269339Y319133D01*
X269426Y319116D01*
X269514Y319103D01*
X269602Y319094D01*
X269690Y319088D01*
X269779Y319086D01*
X275000Y319086D01*
X275091Y319088D01*
X275182Y319094D01*
X275273Y319104D01*
X275363Y319118D01*
X275452Y319135D01*
X275540Y319157D01*
X275628Y319183D01*
X275714Y319212D01*
X275799Y319245D01*
X275882Y319282D01*
X275964Y319322D01*
X276044Y319366D01*
X276122Y319413D01*
X276198Y319464D01*
X276271Y319517D01*
X276342Y319574D01*
X276411Y319635D01*
X276476Y319698D01*
X276539Y319763D01*
X276599Y319832D01*
X276657Y319903D01*
X276710Y319976D01*
X276761Y320052D01*
X276808Y320130D01*
X276852Y320210D01*
X276892Y320292D01*
X276929Y320375D01*
X276962Y320460D01*
X276991Y320546D01*
X277017Y320634D01*
X277039Y320722D01*
X277056Y320811D01*
X277070Y320901D01*
X277080Y320992D01*
X277086Y321083D01*
X277088Y321174D01*
X277089Y321174D02*
X277089Y323263D01*
X277089Y326732D02*
X276044Y326732D01*
X277089Y326732D02*
X277089Y331953D01*
X267691Y329342D01*
X406659Y297599D02*
X408748Y297599D01*
X408748Y297600D02*
X408837Y297602D01*
X408925Y297608D01*
X409013Y297617D01*
X409101Y297630D01*
X409188Y297647D01*
X409274Y297667D01*
X409359Y297692D01*
X409444Y297719D01*
X409527Y297751D01*
X409608Y297785D01*
X409688Y297824D01*
X409766Y297865D01*
X409843Y297910D01*
X409917Y297958D01*
X409990Y298009D01*
X410060Y298063D01*
X410127Y298121D01*
X410193Y298181D01*
X410255Y298243D01*
X410315Y298309D01*
X410373Y298376D01*
X410427Y298446D01*
X410478Y298519D01*
X410526Y298593D01*
X410571Y298670D01*
X410612Y298748D01*
X410651Y298828D01*
X410685Y298909D01*
X410717Y298992D01*
X410744Y299077D01*
X410769Y299162D01*
X410789Y299248D01*
X410806Y299335D01*
X410819Y299423D01*
X410828Y299511D01*
X410834Y299599D01*
X410836Y299688D01*
X410836Y304909D01*
X410834Y304998D01*
X410828Y305086D01*
X410819Y305174D01*
X410806Y305262D01*
X410789Y305349D01*
X410769Y305435D01*
X410744Y305520D01*
X410717Y305605D01*
X410685Y305688D01*
X410651Y305769D01*
X410612Y305849D01*
X410571Y305927D01*
X410526Y306004D01*
X410478Y306078D01*
X410427Y306151D01*
X410373Y306221D01*
X410315Y306288D01*
X410255Y306354D01*
X410193Y306416D01*
X410127Y306476D01*
X410060Y306534D01*
X409990Y306588D01*
X409917Y306639D01*
X409843Y306687D01*
X409766Y306732D01*
X409688Y306773D01*
X409608Y306812D01*
X409527Y306846D01*
X409444Y306878D01*
X409359Y306905D01*
X409274Y306930D01*
X409188Y306950D01*
X409101Y306967D01*
X409013Y306980D01*
X408925Y306989D01*
X408837Y306995D01*
X408748Y306997D01*
X406659Y306997D01*
X403190Y304909D02*
X400580Y306997D01*
X400580Y297599D01*
X403190Y297599D02*
X397969Y297599D01*
X294763Y342811D02*
X292675Y342811D01*
X294763Y342812D02*
X294852Y342814D01*
X294940Y342820D01*
X295028Y342829D01*
X295116Y342842D01*
X295203Y342859D01*
X295289Y342879D01*
X295374Y342904D01*
X295459Y342931D01*
X295542Y342963D01*
X295623Y342997D01*
X295703Y343036D01*
X295781Y343077D01*
X295858Y343122D01*
X295932Y343170D01*
X296005Y343221D01*
X296075Y343275D01*
X296142Y343333D01*
X296208Y343393D01*
X296270Y343455D01*
X296330Y343521D01*
X296388Y343588D01*
X296442Y343658D01*
X296493Y343731D01*
X296541Y343805D01*
X296586Y343882D01*
X296627Y343960D01*
X296666Y344040D01*
X296700Y344121D01*
X296732Y344204D01*
X296759Y344289D01*
X296784Y344374D01*
X296804Y344460D01*
X296821Y344547D01*
X296834Y344635D01*
X296843Y344723D01*
X296849Y344811D01*
X296851Y344900D01*
X296851Y350121D01*
X296849Y350210D01*
X296843Y350298D01*
X296834Y350386D01*
X296821Y350474D01*
X296804Y350561D01*
X296784Y350647D01*
X296759Y350732D01*
X296732Y350817D01*
X296700Y350900D01*
X296666Y350981D01*
X296627Y351061D01*
X296586Y351139D01*
X296541Y351216D01*
X296493Y351290D01*
X296442Y351363D01*
X296388Y351433D01*
X296330Y351500D01*
X296270Y351566D01*
X296208Y351628D01*
X296142Y351688D01*
X296075Y351746D01*
X296005Y351800D01*
X295932Y351851D01*
X295858Y351899D01*
X295781Y351944D01*
X295703Y351985D01*
X295623Y352024D01*
X295542Y352058D01*
X295459Y352090D01*
X295374Y352117D01*
X295289Y352142D01*
X295203Y352162D01*
X295116Y352179D01*
X295028Y352192D01*
X294940Y352201D01*
X294852Y352207D01*
X294763Y352209D01*
X292675Y352209D01*
X289206Y342811D02*
X286595Y342811D01*
X286494Y342813D01*
X286393Y342819D01*
X286292Y342829D01*
X286192Y342842D01*
X286092Y342860D01*
X285993Y342881D01*
X285895Y342907D01*
X285798Y342936D01*
X285702Y342968D01*
X285608Y343005D01*
X285515Y343045D01*
X285423Y343089D01*
X285334Y343136D01*
X285246Y343187D01*
X285160Y343241D01*
X285077Y343298D01*
X284995Y343358D01*
X284917Y343422D01*
X284840Y343488D01*
X284767Y343558D01*
X284696Y343630D01*
X284628Y343705D01*
X284563Y343783D01*
X284501Y343863D01*
X284442Y343945D01*
X284386Y344030D01*
X284334Y344117D01*
X284285Y344205D01*
X284239Y344296D01*
X284198Y344388D01*
X284159Y344482D01*
X284125Y344577D01*
X284094Y344673D01*
X284067Y344771D01*
X284043Y344869D01*
X284024Y344969D01*
X284008Y345069D01*
X283996Y345169D01*
X283988Y345270D01*
X283984Y345371D01*
X283984Y345473D01*
X283988Y345574D01*
X283996Y345675D01*
X284008Y345775D01*
X284024Y345875D01*
X284043Y345975D01*
X284067Y346073D01*
X284094Y346171D01*
X284125Y346267D01*
X284159Y346362D01*
X284198Y346456D01*
X284239Y346548D01*
X284285Y346639D01*
X284334Y346728D01*
X284386Y346814D01*
X284442Y346899D01*
X284501Y346981D01*
X284563Y347061D01*
X284628Y347139D01*
X284696Y347214D01*
X284767Y347286D01*
X284840Y347356D01*
X284917Y347422D01*
X284995Y347486D01*
X285077Y347546D01*
X285160Y347603D01*
X285246Y347657D01*
X285334Y347708D01*
X285423Y347755D01*
X285515Y347799D01*
X285608Y347839D01*
X285702Y347876D01*
X285798Y347908D01*
X285895Y347937D01*
X285993Y347963D01*
X286092Y347984D01*
X286192Y348002D01*
X286292Y348015D01*
X286393Y348025D01*
X286494Y348031D01*
X286595Y348033D01*
X286073Y352209D02*
X289206Y352209D01*
X286073Y352209D02*
X285983Y352207D01*
X285894Y352201D01*
X285804Y352192D01*
X285715Y352178D01*
X285627Y352161D01*
X285540Y352140D01*
X285453Y352115D01*
X285368Y352086D01*
X285284Y352054D01*
X285202Y352019D01*
X285121Y351979D01*
X285042Y351937D01*
X284965Y351891D01*
X284890Y351841D01*
X284817Y351789D01*
X284746Y351733D01*
X284678Y351675D01*
X284613Y351613D01*
X284550Y351549D01*
X284490Y351482D01*
X284433Y351413D01*
X284379Y351341D01*
X284328Y351267D01*
X284280Y351191D01*
X284236Y351113D01*
X284195Y351033D01*
X284157Y350951D01*
X284123Y350868D01*
X284093Y350783D01*
X284066Y350697D01*
X284043Y350611D01*
X284024Y350523D01*
X284009Y350434D01*
X283997Y350345D01*
X283989Y350256D01*
X283985Y350166D01*
X283985Y350076D01*
X283989Y349986D01*
X283997Y349897D01*
X284009Y349808D01*
X284024Y349719D01*
X284043Y349631D01*
X284066Y349545D01*
X284093Y349459D01*
X284123Y349374D01*
X284157Y349291D01*
X284195Y349209D01*
X284236Y349129D01*
X284280Y349051D01*
X284328Y348975D01*
X284379Y348901D01*
X284433Y348829D01*
X284490Y348760D01*
X284550Y348693D01*
X284613Y348629D01*
X284678Y348567D01*
X284746Y348509D01*
X284817Y348453D01*
X284890Y348401D01*
X284965Y348351D01*
X285042Y348305D01*
X285121Y348263D01*
X285202Y348223D01*
X285284Y348188D01*
X285368Y348156D01*
X285453Y348127D01*
X285540Y348102D01*
X285627Y348081D01*
X285715Y348064D01*
X285804Y348050D01*
X285894Y348041D01*
X285983Y348035D01*
X286073Y348033D01*
X286073Y348032D02*
X288162Y348032D01*
X291567Y322704D02*
X291567Y320616D01*
X291569Y320527D01*
X291575Y320439D01*
X291584Y320351D01*
X291597Y320263D01*
X291614Y320176D01*
X291634Y320090D01*
X291659Y320005D01*
X291686Y319920D01*
X291718Y319837D01*
X291752Y319756D01*
X291791Y319676D01*
X291832Y319598D01*
X291877Y319521D01*
X291925Y319447D01*
X291976Y319374D01*
X292030Y319304D01*
X292088Y319237D01*
X292148Y319171D01*
X292210Y319109D01*
X292276Y319049D01*
X292343Y318991D01*
X292413Y318937D01*
X292486Y318886D01*
X292560Y318838D01*
X292637Y318793D01*
X292715Y318752D01*
X292795Y318713D01*
X292876Y318679D01*
X292959Y318647D01*
X293044Y318620D01*
X293129Y318595D01*
X293215Y318575D01*
X293302Y318558D01*
X293390Y318545D01*
X293478Y318536D01*
X293566Y318530D01*
X293655Y318528D01*
X293655Y318527D02*
X298876Y318527D01*
X298876Y318528D02*
X298967Y318530D01*
X299058Y318536D01*
X299149Y318546D01*
X299239Y318560D01*
X299328Y318577D01*
X299416Y318599D01*
X299504Y318625D01*
X299590Y318654D01*
X299675Y318687D01*
X299758Y318724D01*
X299840Y318764D01*
X299920Y318808D01*
X299998Y318855D01*
X300074Y318906D01*
X300147Y318959D01*
X300218Y319016D01*
X300287Y319077D01*
X300352Y319140D01*
X300415Y319205D01*
X300475Y319274D01*
X300533Y319345D01*
X300586Y319418D01*
X300637Y319494D01*
X300684Y319572D01*
X300728Y319652D01*
X300768Y319734D01*
X300805Y319817D01*
X300838Y319902D01*
X300867Y319988D01*
X300893Y320076D01*
X300915Y320164D01*
X300932Y320253D01*
X300946Y320343D01*
X300956Y320434D01*
X300962Y320525D01*
X300964Y320616D01*
X300965Y320616D02*
X300965Y322704D01*
X291567Y326173D02*
X291567Y329305D01*
X291569Y329394D01*
X291575Y329482D01*
X291584Y329570D01*
X291597Y329658D01*
X291614Y329745D01*
X291634Y329831D01*
X291659Y329916D01*
X291686Y330001D01*
X291718Y330084D01*
X291752Y330165D01*
X291791Y330245D01*
X291832Y330323D01*
X291877Y330400D01*
X291925Y330474D01*
X291976Y330547D01*
X292030Y330617D01*
X292088Y330684D01*
X292148Y330750D01*
X292210Y330812D01*
X292276Y330872D01*
X292343Y330930D01*
X292413Y330984D01*
X292486Y331035D01*
X292560Y331083D01*
X292637Y331128D01*
X292715Y331169D01*
X292795Y331208D01*
X292876Y331242D01*
X292959Y331274D01*
X293044Y331301D01*
X293129Y331326D01*
X293215Y331346D01*
X293302Y331363D01*
X293390Y331376D01*
X293478Y331385D01*
X293566Y331391D01*
X293655Y331393D01*
X293655Y331394D02*
X294699Y331394D01*
X294699Y331393D02*
X294788Y331391D01*
X294876Y331385D01*
X294964Y331376D01*
X295052Y331363D01*
X295139Y331346D01*
X295225Y331326D01*
X295310Y331301D01*
X295395Y331274D01*
X295478Y331242D01*
X295559Y331208D01*
X295639Y331169D01*
X295717Y331128D01*
X295794Y331083D01*
X295868Y331035D01*
X295941Y330984D01*
X296011Y330930D01*
X296078Y330872D01*
X296144Y330812D01*
X296206Y330750D01*
X296266Y330684D01*
X296324Y330617D01*
X296378Y330547D01*
X296429Y330474D01*
X296477Y330400D01*
X296522Y330323D01*
X296563Y330245D01*
X296602Y330165D01*
X296636Y330084D01*
X296668Y330001D01*
X296695Y329916D01*
X296720Y329831D01*
X296740Y329745D01*
X296757Y329658D01*
X296770Y329570D01*
X296779Y329482D01*
X296785Y329394D01*
X296787Y329305D01*
X296788Y329305D02*
X296788Y326173D01*
X300965Y326173D01*
X300965Y331394D01*
X377890Y406718D02*
X379978Y406718D01*
X380067Y406720D01*
X380155Y406726D01*
X380243Y406735D01*
X380331Y406748D01*
X380418Y406765D01*
X380504Y406785D01*
X380589Y406810D01*
X380674Y406837D01*
X380757Y406869D01*
X380838Y406903D01*
X380918Y406942D01*
X380996Y406983D01*
X381073Y407028D01*
X381147Y407076D01*
X381220Y407127D01*
X381290Y407181D01*
X381357Y407239D01*
X381423Y407299D01*
X381485Y407361D01*
X381545Y407427D01*
X381603Y407494D01*
X381657Y407564D01*
X381708Y407637D01*
X381756Y407711D01*
X381801Y407788D01*
X381842Y407866D01*
X381881Y407946D01*
X381915Y408027D01*
X381947Y408110D01*
X381974Y408195D01*
X381999Y408280D01*
X382019Y408366D01*
X382036Y408453D01*
X382049Y408541D01*
X382058Y408629D01*
X382064Y408717D01*
X382066Y408806D01*
X382067Y408806D02*
X382067Y414027D01*
X382066Y414027D02*
X382064Y414116D01*
X382058Y414204D01*
X382049Y414292D01*
X382036Y414380D01*
X382019Y414467D01*
X381999Y414553D01*
X381974Y414638D01*
X381947Y414723D01*
X381915Y414806D01*
X381881Y414887D01*
X381842Y414967D01*
X381801Y415045D01*
X381756Y415122D01*
X381708Y415196D01*
X381657Y415269D01*
X381603Y415339D01*
X381545Y415406D01*
X381485Y415472D01*
X381423Y415534D01*
X381357Y415594D01*
X381290Y415652D01*
X381220Y415706D01*
X381147Y415757D01*
X381073Y415805D01*
X380996Y415850D01*
X380918Y415891D01*
X380838Y415930D01*
X380757Y415964D01*
X380674Y415996D01*
X380589Y416023D01*
X380504Y416048D01*
X380418Y416068D01*
X380331Y416085D01*
X380243Y416098D01*
X380155Y416107D01*
X380067Y416113D01*
X379978Y416115D01*
X379978Y416116D02*
X377890Y416116D01*
X374421Y411939D02*
X371288Y411939D01*
X371288Y411938D02*
X371199Y411936D01*
X371111Y411930D01*
X371023Y411921D01*
X370935Y411908D01*
X370848Y411891D01*
X370762Y411871D01*
X370677Y411846D01*
X370592Y411819D01*
X370509Y411787D01*
X370428Y411753D01*
X370348Y411714D01*
X370270Y411673D01*
X370193Y411628D01*
X370119Y411580D01*
X370046Y411529D01*
X369976Y411475D01*
X369909Y411417D01*
X369843Y411357D01*
X369781Y411295D01*
X369721Y411229D01*
X369663Y411162D01*
X369609Y411092D01*
X369558Y411019D01*
X369510Y410945D01*
X369465Y410868D01*
X369424Y410790D01*
X369385Y410710D01*
X369351Y410629D01*
X369319Y410546D01*
X369292Y410461D01*
X369267Y410376D01*
X369247Y410290D01*
X369230Y410203D01*
X369217Y410115D01*
X369208Y410027D01*
X369202Y409939D01*
X369200Y409850D01*
X369200Y409328D01*
X369202Y409227D01*
X369208Y409126D01*
X369218Y409025D01*
X369231Y408925D01*
X369249Y408825D01*
X369270Y408726D01*
X369296Y408628D01*
X369325Y408531D01*
X369357Y408435D01*
X369394Y408341D01*
X369434Y408248D01*
X369478Y408156D01*
X369525Y408067D01*
X369576Y407979D01*
X369630Y407893D01*
X369687Y407810D01*
X369747Y407728D01*
X369811Y407650D01*
X369877Y407573D01*
X369947Y407500D01*
X370019Y407429D01*
X370094Y407361D01*
X370172Y407296D01*
X370252Y407234D01*
X370334Y407175D01*
X370419Y407119D01*
X370506Y407067D01*
X370594Y407018D01*
X370685Y406972D01*
X370777Y406931D01*
X370871Y406892D01*
X370966Y406858D01*
X371062Y406827D01*
X371160Y406800D01*
X371258Y406776D01*
X371358Y406757D01*
X371458Y406741D01*
X371558Y406729D01*
X371659Y406721D01*
X371760Y406717D01*
X371862Y406717D01*
X371963Y406721D01*
X372064Y406729D01*
X372164Y406741D01*
X372264Y406757D01*
X372364Y406776D01*
X372462Y406800D01*
X372560Y406827D01*
X372656Y406858D01*
X372751Y406892D01*
X372845Y406931D01*
X372937Y406972D01*
X373028Y407018D01*
X373116Y407067D01*
X373203Y407119D01*
X373288Y407175D01*
X373370Y407234D01*
X373450Y407296D01*
X373528Y407361D01*
X373603Y407429D01*
X373675Y407500D01*
X373745Y407573D01*
X373811Y407650D01*
X373875Y407728D01*
X373935Y407810D01*
X373992Y407893D01*
X374046Y407979D01*
X374097Y408067D01*
X374144Y408156D01*
X374188Y408248D01*
X374228Y408341D01*
X374265Y408435D01*
X374297Y408531D01*
X374326Y408628D01*
X374352Y408726D01*
X374373Y408825D01*
X374391Y408925D01*
X374404Y409025D01*
X374414Y409126D01*
X374420Y409227D01*
X374422Y409328D01*
X374421Y409328D02*
X374421Y411939D01*
X374419Y412065D01*
X374413Y412191D01*
X374404Y412317D01*
X374391Y412442D01*
X374373Y412567D01*
X374353Y412692D01*
X374328Y412816D01*
X374300Y412939D01*
X374268Y413061D01*
X374232Y413182D01*
X374193Y413302D01*
X374150Y413420D01*
X374103Y413537D01*
X374053Y413653D01*
X373999Y413768D01*
X373943Y413880D01*
X373882Y413991D01*
X373819Y414100D01*
X373752Y414207D01*
X373682Y414312D01*
X373608Y414415D01*
X373532Y414515D01*
X373453Y414613D01*
X373371Y414709D01*
X373285Y414802D01*
X373198Y414893D01*
X373107Y414980D01*
X373014Y415066D01*
X372918Y415148D01*
X372820Y415227D01*
X372720Y415303D01*
X372617Y415377D01*
X372512Y415447D01*
X372405Y415514D01*
X372296Y415577D01*
X372185Y415638D01*
X372073Y415694D01*
X371958Y415748D01*
X371842Y415798D01*
X371725Y415845D01*
X371607Y415888D01*
X371487Y415927D01*
X371366Y415963D01*
X371244Y415995D01*
X371121Y416023D01*
X370997Y416048D01*
X370872Y416068D01*
X370747Y416086D01*
X370622Y416099D01*
X370496Y416108D01*
X370370Y416114D01*
X370244Y416116D01*
X407125Y407200D02*
X409214Y407200D01*
X409214Y407201D02*
X409303Y407203D01*
X409391Y407209D01*
X409479Y407218D01*
X409567Y407231D01*
X409654Y407248D01*
X409740Y407268D01*
X409825Y407293D01*
X409910Y407320D01*
X409993Y407352D01*
X410074Y407386D01*
X410154Y407425D01*
X410232Y407466D01*
X410309Y407511D01*
X410383Y407559D01*
X410456Y407610D01*
X410526Y407664D01*
X410593Y407722D01*
X410659Y407782D01*
X410721Y407844D01*
X410781Y407910D01*
X410839Y407977D01*
X410893Y408047D01*
X410944Y408120D01*
X410992Y408194D01*
X411037Y408271D01*
X411078Y408349D01*
X411117Y408429D01*
X411151Y408510D01*
X411183Y408593D01*
X411210Y408678D01*
X411235Y408763D01*
X411255Y408849D01*
X411272Y408936D01*
X411285Y409024D01*
X411294Y409112D01*
X411300Y409200D01*
X411302Y409289D01*
X411302Y414510D01*
X411300Y414599D01*
X411294Y414687D01*
X411285Y414775D01*
X411272Y414863D01*
X411255Y414950D01*
X411235Y415036D01*
X411210Y415121D01*
X411183Y415206D01*
X411151Y415289D01*
X411117Y415370D01*
X411078Y415450D01*
X411037Y415528D01*
X410992Y415605D01*
X410944Y415679D01*
X410893Y415752D01*
X410839Y415822D01*
X410781Y415889D01*
X410721Y415955D01*
X410659Y416017D01*
X410593Y416077D01*
X410526Y416135D01*
X410456Y416189D01*
X410383Y416240D01*
X410309Y416288D01*
X410232Y416333D01*
X410154Y416374D01*
X410074Y416413D01*
X409993Y416447D01*
X409910Y416479D01*
X409825Y416506D01*
X409740Y416531D01*
X409654Y416551D01*
X409567Y416568D01*
X409479Y416581D01*
X409391Y416590D01*
X409303Y416596D01*
X409214Y416598D01*
X407125Y416598D01*
X401568Y411377D02*
X398435Y411377D01*
X401568Y411377D02*
X401657Y411379D01*
X401745Y411385D01*
X401833Y411394D01*
X401921Y411407D01*
X402008Y411424D01*
X402094Y411444D01*
X402179Y411469D01*
X402264Y411496D01*
X402347Y411528D01*
X402428Y411562D01*
X402508Y411601D01*
X402586Y411642D01*
X402663Y411687D01*
X402737Y411735D01*
X402810Y411786D01*
X402880Y411840D01*
X402947Y411898D01*
X403013Y411958D01*
X403075Y412020D01*
X403135Y412086D01*
X403193Y412153D01*
X403247Y412223D01*
X403298Y412296D01*
X403346Y412370D01*
X403391Y412447D01*
X403432Y412525D01*
X403471Y412605D01*
X403505Y412686D01*
X403537Y412769D01*
X403564Y412854D01*
X403589Y412939D01*
X403609Y413025D01*
X403626Y413112D01*
X403639Y413200D01*
X403648Y413288D01*
X403654Y413376D01*
X403656Y413465D01*
X403657Y413465D02*
X403657Y413988D01*
X403655Y414089D01*
X403649Y414190D01*
X403639Y414291D01*
X403626Y414391D01*
X403608Y414491D01*
X403587Y414590D01*
X403561Y414688D01*
X403532Y414785D01*
X403500Y414881D01*
X403463Y414975D01*
X403423Y415068D01*
X403379Y415160D01*
X403332Y415249D01*
X403281Y415337D01*
X403227Y415423D01*
X403170Y415506D01*
X403110Y415588D01*
X403046Y415666D01*
X402980Y415743D01*
X402910Y415816D01*
X402838Y415887D01*
X402763Y415955D01*
X402685Y416020D01*
X402605Y416082D01*
X402523Y416141D01*
X402438Y416197D01*
X402352Y416249D01*
X402263Y416298D01*
X402172Y416344D01*
X402080Y416385D01*
X401986Y416424D01*
X401891Y416458D01*
X401795Y416489D01*
X401697Y416516D01*
X401599Y416540D01*
X401499Y416559D01*
X401399Y416575D01*
X401299Y416587D01*
X401198Y416595D01*
X401097Y416599D01*
X400995Y416599D01*
X400894Y416595D01*
X400793Y416587D01*
X400693Y416575D01*
X400593Y416559D01*
X400493Y416540D01*
X400395Y416516D01*
X400297Y416489D01*
X400201Y416458D01*
X400106Y416424D01*
X400012Y416385D01*
X399920Y416344D01*
X399829Y416298D01*
X399741Y416249D01*
X399654Y416197D01*
X399569Y416141D01*
X399487Y416082D01*
X399407Y416020D01*
X399329Y415955D01*
X399254Y415887D01*
X399182Y415816D01*
X399112Y415743D01*
X399046Y415666D01*
X398982Y415588D01*
X398922Y415506D01*
X398865Y415423D01*
X398811Y415337D01*
X398760Y415249D01*
X398713Y415160D01*
X398669Y415068D01*
X398629Y414975D01*
X398592Y414881D01*
X398560Y414785D01*
X398531Y414688D01*
X398505Y414590D01*
X398484Y414491D01*
X398466Y414391D01*
X398453Y414291D01*
X398443Y414190D01*
X398437Y414089D01*
X398435Y413988D01*
X398435Y411377D01*
X398437Y411251D01*
X398443Y411125D01*
X398452Y410999D01*
X398465Y410874D01*
X398483Y410749D01*
X398503Y410624D01*
X398528Y410500D01*
X398556Y410377D01*
X398588Y410255D01*
X398624Y410134D01*
X398663Y410014D01*
X398706Y409896D01*
X398753Y409779D01*
X398803Y409663D01*
X398857Y409548D01*
X398913Y409436D01*
X398974Y409325D01*
X399037Y409216D01*
X399104Y409109D01*
X399174Y409004D01*
X399248Y408901D01*
X399324Y408801D01*
X399403Y408703D01*
X399485Y408607D01*
X399571Y408514D01*
X399658Y408423D01*
X399749Y408336D01*
X399842Y408250D01*
X399938Y408168D01*
X400036Y408089D01*
X400136Y408013D01*
X400239Y407939D01*
X400344Y407869D01*
X400451Y407802D01*
X400560Y407739D01*
X400671Y407678D01*
X400783Y407622D01*
X400898Y407568D01*
X401014Y407518D01*
X401131Y407471D01*
X401249Y407428D01*
X401369Y407389D01*
X401490Y407353D01*
X401612Y407321D01*
X401735Y407293D01*
X401859Y407268D01*
X401984Y407248D01*
X402109Y407230D01*
X402234Y407217D01*
X402360Y407208D01*
X402486Y407202D01*
X402612Y407200D01*
X443763Y312483D02*
X453161Y312483D01*
X453161Y315094D01*
X453162Y315094D02*
X453160Y315195D01*
X453154Y315296D01*
X453144Y315397D01*
X453131Y315497D01*
X453113Y315597D01*
X453092Y315696D01*
X453066Y315794D01*
X453037Y315891D01*
X453005Y315987D01*
X452968Y316081D01*
X452928Y316174D01*
X452884Y316266D01*
X452837Y316355D01*
X452786Y316443D01*
X452732Y316529D01*
X452675Y316612D01*
X452615Y316694D01*
X452551Y316772D01*
X452485Y316849D01*
X452415Y316922D01*
X452343Y316993D01*
X452268Y317061D01*
X452190Y317126D01*
X452110Y317188D01*
X452028Y317247D01*
X451943Y317303D01*
X451857Y317355D01*
X451768Y317404D01*
X451677Y317450D01*
X451585Y317491D01*
X451491Y317530D01*
X451396Y317564D01*
X451300Y317595D01*
X451202Y317622D01*
X451104Y317646D01*
X451004Y317665D01*
X450904Y317681D01*
X450804Y317693D01*
X450703Y317701D01*
X450602Y317705D01*
X450500Y317705D01*
X450399Y317701D01*
X450298Y317693D01*
X450198Y317681D01*
X450098Y317665D01*
X449998Y317646D01*
X449900Y317622D01*
X449802Y317595D01*
X449706Y317564D01*
X449611Y317530D01*
X449517Y317491D01*
X449425Y317450D01*
X449334Y317404D01*
X449246Y317355D01*
X449159Y317303D01*
X449074Y317247D01*
X448992Y317188D01*
X448912Y317126D01*
X448834Y317061D01*
X448759Y316993D01*
X448687Y316922D01*
X448617Y316849D01*
X448551Y316772D01*
X448487Y316694D01*
X448427Y316612D01*
X448370Y316529D01*
X448316Y316443D01*
X448265Y316355D01*
X448218Y316266D01*
X448174Y316174D01*
X448134Y316081D01*
X448097Y315987D01*
X448065Y315891D01*
X448036Y315794D01*
X448010Y315696D01*
X447989Y315597D01*
X447971Y315497D01*
X447958Y315397D01*
X447948Y315296D01*
X447942Y315195D01*
X447940Y315094D01*
X447940Y312483D01*
X447940Y315616D02*
X443763Y317705D01*
X450812Y326792D02*
X450907Y326790D01*
X451001Y326784D01*
X451095Y326775D01*
X451189Y326762D01*
X451282Y326745D01*
X451374Y326724D01*
X451466Y326699D01*
X451556Y326671D01*
X451645Y326639D01*
X451733Y326604D01*
X451819Y326565D01*
X451904Y326523D01*
X451987Y326477D01*
X452068Y326428D01*
X452147Y326376D01*
X452224Y326321D01*
X452298Y326262D01*
X452370Y326201D01*
X452440Y326137D01*
X452507Y326070D01*
X452571Y326000D01*
X452632Y325928D01*
X452691Y325854D01*
X452746Y325777D01*
X452798Y325698D01*
X452847Y325617D01*
X452893Y325534D01*
X452935Y325449D01*
X452974Y325363D01*
X453009Y325275D01*
X453041Y325186D01*
X453069Y325096D01*
X453094Y325004D01*
X453115Y324912D01*
X453132Y324819D01*
X453145Y324725D01*
X453154Y324631D01*
X453160Y324537D01*
X453162Y324442D01*
X453161Y324442D02*
X453159Y324334D01*
X453153Y324225D01*
X453143Y324117D01*
X453130Y324010D01*
X453112Y323903D01*
X453091Y323796D01*
X453066Y323691D01*
X453037Y323586D01*
X453005Y323483D01*
X452968Y323381D01*
X452928Y323280D01*
X452885Y323181D01*
X452838Y323083D01*
X452787Y322987D01*
X452733Y322893D01*
X452676Y322801D01*
X452615Y322711D01*
X452551Y322623D01*
X452485Y322538D01*
X452415Y322455D01*
X452342Y322375D01*
X452266Y322297D01*
X452188Y322222D01*
X452107Y322150D01*
X452023Y322081D01*
X451937Y322015D01*
X451849Y321952D01*
X451758Y321893D01*
X451666Y321836D01*
X451571Y321783D01*
X451475Y321734D01*
X451376Y321688D01*
X451277Y321645D01*
X451175Y321606D01*
X451073Y321571D01*
X448984Y326009D02*
X449053Y326078D01*
X449124Y326144D01*
X449197Y326208D01*
X449273Y326269D01*
X449352Y326327D01*
X449432Y326381D01*
X449515Y326433D01*
X449599Y326481D01*
X449685Y326527D01*
X449773Y326568D01*
X449863Y326607D01*
X449954Y326642D01*
X450046Y326673D01*
X450139Y326701D01*
X450233Y326725D01*
X450328Y326745D01*
X450424Y326762D01*
X450521Y326775D01*
X450618Y326784D01*
X450715Y326790D01*
X450812Y326792D01*
X448984Y326008D02*
X443763Y321570D01*
X443763Y326791D01*
M02*
