G04 EAGLE Gerber RS-274X export*
G75*
%MOMM*%
%FSLAX34Y34*%
%LPD*%
%INBottom Copper*%
%IPPOS*%
%AMOC8*
5,1,8,0,0,1.08239X$1,22.5*%
G01*
%ADD10R,1.300000X1.500000*%
%ADD11R,1.000000X1.100000*%
%ADD12R,1.500000X1.300000*%
%ADD13R,1.100000X1.000000*%
%ADD14P,1.649562X8X22.500000*%
%ADD15C,1.524000*%
%ADD16C,1.000000*%
%ADD17R,0.812800X0.254000*%
%ADD18R,0.254000X0.812800*%
%ADD19R,5.384800X5.384800*%
%ADD20R,1.399997X0.400000*%
%ADD21C,0.406400*%
%ADD22C,0.756400*%
%ADD23C,0.254000*%
%ADD24C,0.508000*%
%ADD25C,0.304800*%
%ADD26C,0.609600*%

G36*
X920396Y490437D02*
X920396Y490437D01*
X920423Y490435D01*
X920597Y490457D01*
X920770Y490475D01*
X920796Y490482D01*
X920822Y490486D01*
X920988Y490541D01*
X921155Y490593D01*
X921179Y490605D01*
X921204Y490614D01*
X921356Y490701D01*
X921509Y490784D01*
X921530Y490801D01*
X921553Y490815D01*
X921806Y491030D01*
X953040Y522264D01*
X953052Y522278D01*
X953065Y522289D01*
X953179Y522433D01*
X953295Y522575D01*
X953304Y522591D01*
X953315Y522605D01*
X953398Y522770D01*
X953484Y522931D01*
X953489Y522948D01*
X953497Y522964D01*
X953547Y523142D01*
X953599Y523317D01*
X953600Y523335D01*
X953605Y523352D01*
X953635Y523682D01*
X954177Y586404D01*
X954173Y586438D01*
X954176Y586471D01*
X954155Y586638D01*
X954140Y586805D01*
X954130Y586837D01*
X954126Y586871D01*
X954027Y587187D01*
X952911Y589929D01*
X952875Y589998D01*
X952847Y590070D01*
X952781Y590175D01*
X952723Y590285D01*
X952674Y590345D01*
X952632Y590411D01*
X952547Y590501D01*
X952468Y590597D01*
X952408Y590646D01*
X952354Y590703D01*
X952253Y590774D01*
X952157Y590852D01*
X952089Y590889D01*
X952025Y590934D01*
X951911Y590983D01*
X951802Y591041D01*
X951727Y591064D01*
X951656Y591095D01*
X951500Y591132D01*
X951416Y591157D01*
X951379Y591160D01*
X951333Y591171D01*
X950138Y591352D01*
X950071Y591355D01*
X949836Y591375D01*
X948948Y591375D01*
X948905Y591405D01*
X948791Y591455D01*
X948680Y591514D01*
X948607Y591536D01*
X948537Y591566D01*
X948378Y591604D01*
X948294Y591629D01*
X948258Y591632D01*
X948214Y591643D01*
X947357Y591772D01*
X947280Y591776D01*
X947205Y591789D01*
X947079Y591786D01*
X946954Y591792D01*
X946879Y591781D01*
X946802Y591779D01*
X946680Y591752D01*
X946570Y591735D01*
X945728Y591995D01*
X945662Y592008D01*
X945432Y592063D01*
X944555Y592195D01*
X944517Y592231D01*
X944411Y592298D01*
X944310Y592373D01*
X944241Y592405D01*
X944176Y592446D01*
X944025Y592507D01*
X943946Y592544D01*
X943911Y592552D01*
X943868Y592569D01*
X943040Y592825D01*
X942965Y592840D01*
X942892Y592865D01*
X942768Y592880D01*
X942645Y592905D01*
X942569Y592905D01*
X942493Y592915D01*
X942368Y592906D01*
X942256Y592906D01*
X941463Y593289D01*
X941399Y593312D01*
X941180Y593400D01*
X940332Y593661D01*
X940300Y593703D01*
X940205Y593784D01*
X940117Y593873D01*
X940053Y593916D01*
X939995Y593966D01*
X939855Y594048D01*
X939782Y594097D01*
X939749Y594110D01*
X939709Y594134D01*
X938928Y594510D01*
X938857Y594536D01*
X938788Y594571D01*
X938668Y594605D01*
X938550Y594648D01*
X938474Y594659D01*
X938401Y594680D01*
X938276Y594690D01*
X938166Y594707D01*
X937438Y595203D01*
X937378Y595236D01*
X937175Y595355D01*
X936376Y595740D01*
X936350Y595786D01*
X936268Y595881D01*
X936194Y595982D01*
X936138Y596033D01*
X936088Y596091D01*
X935961Y596194D01*
X935896Y596253D01*
X935866Y596271D01*
X935830Y596300D01*
X935114Y596789D01*
X935046Y596825D01*
X934984Y596870D01*
X934871Y596921D01*
X934760Y596982D01*
X934687Y597004D01*
X934618Y597036D01*
X934495Y597064D01*
X934389Y597097D01*
X933743Y597696D01*
X933690Y597737D01*
X933506Y597886D01*
X932773Y598386D01*
X932754Y598435D01*
X932688Y598541D01*
X932630Y598652D01*
X932581Y598711D01*
X932541Y598776D01*
X932430Y598896D01*
X932375Y598964D01*
X932348Y598987D01*
X932317Y599021D01*
X931681Y599611D01*
X931620Y599657D01*
X931566Y599710D01*
X931461Y599778D01*
X931361Y599854D01*
X931292Y599887D01*
X931228Y599929D01*
X931111Y599975D01*
X931011Y600023D01*
X930461Y600712D01*
X930415Y600760D01*
X930255Y600935D01*
X929605Y601539D01*
X929594Y601590D01*
X929544Y601705D01*
X929503Y601823D01*
X929464Y601889D01*
X929433Y601959D01*
X929342Y602095D01*
X929298Y602170D01*
X929274Y602196D01*
X929248Y602235D01*
X928708Y602912D01*
X928655Y602967D01*
X928608Y603028D01*
X928515Y603111D01*
X928427Y603201D01*
X928364Y603244D01*
X928307Y603295D01*
X928198Y603358D01*
X928106Y603420D01*
X927666Y604184D01*
X927627Y604238D01*
X927495Y604435D01*
X926942Y605129D01*
X926939Y605181D01*
X926906Y605302D01*
X926883Y605425D01*
X926855Y605496D01*
X926835Y605570D01*
X926765Y605717D01*
X926733Y605798D01*
X926713Y605828D01*
X926693Y605870D01*
X926260Y606621D01*
X926215Y606683D01*
X926179Y606750D01*
X926098Y606846D01*
X926025Y606948D01*
X925969Y607000D01*
X925920Y607058D01*
X925822Y607137D01*
X925741Y607213D01*
X925419Y608033D01*
X925388Y608093D01*
X925287Y608307D01*
X924844Y609075D01*
X924848Y609127D01*
X924835Y609252D01*
X924830Y609377D01*
X924812Y609451D01*
X924804Y609527D01*
X924757Y609684D01*
X924737Y609769D01*
X924722Y609801D01*
X924708Y609845D01*
X924392Y610652D01*
X924357Y610720D01*
X924331Y610792D01*
X924266Y610899D01*
X924209Y611011D01*
X924161Y611071D01*
X924121Y611136D01*
X924036Y611228D01*
X923967Y611315D01*
X923771Y612174D01*
X923749Y612238D01*
X923681Y612464D01*
X923357Y613290D01*
X923370Y613341D01*
X923375Y613466D01*
X923389Y613591D01*
X923382Y613667D01*
X923385Y613744D01*
X923362Y613905D01*
X923355Y613992D01*
X923345Y614026D01*
X923338Y614072D01*
X923146Y614917D01*
X923121Y614990D01*
X923106Y615065D01*
X923057Y615180D01*
X923018Y615299D01*
X922980Y615365D01*
X922950Y615436D01*
X922879Y615540D01*
X922824Y615636D01*
X922758Y616515D01*
X922747Y616581D01*
X922713Y616815D01*
X922516Y617680D01*
X922536Y617729D01*
X922559Y617851D01*
X922592Y617972D01*
X922597Y618049D01*
X922611Y618124D01*
X922612Y618287D01*
X922618Y618374D01*
X922613Y618410D01*
X922613Y618456D01*
X922549Y619320D01*
X922536Y619396D01*
X922532Y619472D01*
X922501Y619593D01*
X922479Y619717D01*
X922452Y619788D01*
X922433Y619862D01*
X922378Y619975D01*
X922338Y620079D01*
X922404Y620958D01*
X922402Y621026D01*
X922404Y621261D01*
X922338Y622146D01*
X922365Y622191D01*
X922406Y622309D01*
X922457Y622424D01*
X922473Y622499D01*
X922498Y622571D01*
X922524Y622733D01*
X922542Y622817D01*
X922543Y622853D01*
X922550Y622899D01*
X922615Y623763D01*
X922613Y623840D01*
X922621Y623916D01*
X922609Y624040D01*
X922605Y624166D01*
X922589Y624240D01*
X922581Y624316D01*
X922544Y624436D01*
X922520Y624545D01*
X922716Y625404D01*
X922724Y625471D01*
X922761Y625704D01*
X922828Y626589D01*
X922861Y626629D01*
X922920Y626740D01*
X922986Y626846D01*
X923014Y626917D01*
X923050Y626985D01*
X923099Y627141D01*
X923130Y627222D01*
X923136Y627258D01*
X923150Y627301D01*
X923343Y628147D01*
X923352Y628222D01*
X923371Y628297D01*
X923378Y628422D01*
X923393Y628546D01*
X923388Y628622D01*
X923391Y628699D01*
X923373Y628823D01*
X923365Y628934D01*
X923687Y629754D01*
X923705Y629819D01*
X923777Y630044D01*
X923974Y630909D01*
X924013Y630944D01*
X924088Y631045D01*
X924169Y631140D01*
X924207Y631206D01*
X924253Y631268D01*
X924324Y631414D01*
X924367Y631490D01*
X924378Y631524D01*
X924399Y631566D01*
X924716Y632372D01*
X924736Y632446D01*
X924766Y632517D01*
X924791Y632639D01*
X924825Y632760D01*
X924831Y632836D01*
X924846Y632911D01*
X924846Y633037D01*
X924855Y633148D01*
X925295Y633911D01*
X925323Y633972D01*
X925427Y634184D01*
X925752Y635010D01*
X925795Y635039D01*
X925884Y635127D01*
X925979Y635209D01*
X926026Y635269D01*
X926080Y635323D01*
X926173Y635457D01*
X926227Y635526D01*
X926243Y635558D01*
X926269Y635596D01*
X926703Y636347D01*
X926734Y636416D01*
X926774Y636482D01*
X926817Y636599D01*
X926869Y636713D01*
X926886Y636788D01*
X926912Y636860D01*
X926931Y636984D01*
X926956Y637093D01*
X927506Y637781D01*
X927542Y637838D01*
X927677Y638032D01*
X928121Y638800D01*
X928168Y638822D01*
X928269Y638897D01*
X928375Y638963D01*
X928431Y639016D01*
X928492Y639061D01*
X928592Y639167D01*
X928609Y639181D01*
X928620Y639195D01*
X928668Y639240D01*
X928688Y639269D01*
X928720Y639303D01*
X929260Y639980D01*
X929302Y640044D01*
X929351Y640103D01*
X929411Y640213D01*
X929479Y640318D01*
X929507Y640390D01*
X929544Y640457D01*
X929581Y640576D01*
X929622Y640680D01*
X930268Y641279D01*
X930312Y641329D01*
X930475Y641502D01*
X931028Y642195D01*
X931078Y642210D01*
X931189Y642268D01*
X931304Y642318D01*
X931367Y642362D01*
X931434Y642398D01*
X931563Y642499D01*
X931634Y642548D01*
X931659Y642574D01*
X931695Y642603D01*
X932331Y643192D01*
X932357Y643222D01*
X932383Y643244D01*
X932404Y643269D01*
X932439Y643300D01*
X932514Y643400D01*
X932598Y643494D01*
X932631Y643552D01*
X932636Y643557D01*
X932639Y643564D01*
X932682Y643621D01*
X932737Y643734D01*
X932793Y643830D01*
X933521Y644326D01*
X933572Y644369D01*
X933758Y644515D01*
X934409Y645119D01*
X934463Y645127D01*
X934580Y645168D01*
X934700Y645199D01*
X934770Y645234D01*
X934843Y645260D01*
X934975Y645335D01*
X935040Y645365D01*
X935047Y645371D01*
X935061Y645378D01*
X935090Y645400D01*
X935132Y645424D01*
X935140Y645429D01*
X935249Y645521D01*
X935363Y645606D01*
X935376Y645621D01*
X935380Y645623D01*
X935403Y645651D01*
X935448Y645688D01*
X935537Y645799D01*
X935632Y645905D01*
X935662Y645957D01*
X935699Y646003D01*
X935764Y646130D01*
X935837Y646252D01*
X935856Y646308D01*
X935883Y646361D01*
X935922Y646498D01*
X935969Y646632D01*
X935977Y646691D01*
X935993Y646748D01*
X936004Y646891D01*
X936024Y647031D01*
X936020Y647091D01*
X936024Y647150D01*
X936007Y647291D01*
X935999Y647433D01*
X935983Y647491D01*
X935976Y647550D01*
X935931Y647685D01*
X935895Y647822D01*
X935866Y647883D01*
X935850Y647932D01*
X935809Y648003D01*
X935753Y648122D01*
X918011Y678852D01*
X918639Y679149D01*
X918661Y679166D01*
X918688Y679176D01*
X918740Y679225D01*
X918798Y679268D01*
X918812Y679293D01*
X918833Y679312D01*
X918862Y679378D01*
X918898Y679440D01*
X918901Y679468D01*
X918913Y679494D01*
X918914Y679566D01*
X918923Y679637D01*
X918915Y679664D01*
X918916Y679693D01*
X918880Y679788D01*
X918869Y679828D01*
X918862Y679837D01*
X918858Y679849D01*
X909358Y696349D01*
X909306Y696408D01*
X909260Y696470D01*
X909241Y696481D01*
X909226Y696498D01*
X909156Y696532D01*
X909089Y696572D01*
X909065Y696576D01*
X909047Y696584D01*
X909002Y696586D01*
X908925Y696599D01*
X889925Y696599D01*
X889897Y696594D01*
X889869Y696596D01*
X889801Y696574D01*
X889730Y696560D01*
X889707Y696544D01*
X889680Y696535D01*
X889625Y696488D01*
X889566Y696447D01*
X889551Y696423D01*
X889530Y696405D01*
X889498Y696340D01*
X889459Y696280D01*
X889454Y696252D01*
X889442Y696226D01*
X889433Y696125D01*
X889426Y696083D01*
X889428Y696073D01*
X889427Y696060D01*
X889484Y695345D01*
X853948Y695345D01*
X853805Y695331D01*
X853660Y695325D01*
X853604Y695311D01*
X853547Y695305D01*
X853410Y695263D01*
X853269Y695229D01*
X853217Y695204D01*
X853162Y695187D01*
X853035Y695119D01*
X852905Y695057D01*
X852859Y695023D01*
X852808Y694995D01*
X852697Y694903D01*
X852582Y694817D01*
X852543Y694775D01*
X852499Y694738D01*
X852409Y694625D01*
X852312Y694518D01*
X852283Y694469D01*
X852247Y694424D01*
X852180Y694296D01*
X852107Y694172D01*
X852088Y694118D01*
X852061Y694067D01*
X852021Y693928D01*
X851974Y693792D01*
X851963Y693727D01*
X851950Y693680D01*
X851943Y693597D01*
X851922Y693464D01*
X851921Y693447D01*
X851923Y693371D01*
X851915Y693296D01*
X851917Y693279D01*
X851917Y693278D01*
X851918Y693270D01*
X851928Y693171D01*
X851931Y693045D01*
X851948Y692971D01*
X851955Y692895D01*
X851992Y692775D01*
X852017Y692667D01*
X851821Y691808D01*
X851817Y691775D01*
X851810Y691752D01*
X851805Y691697D01*
X851775Y691508D01*
X851709Y690623D01*
X851676Y690582D01*
X851617Y690471D01*
X851551Y690366D01*
X851523Y690294D01*
X851488Y690226D01*
X851438Y690071D01*
X851407Y689989D01*
X851401Y689954D01*
X851388Y689910D01*
X851195Y689067D01*
X851186Y688991D01*
X851167Y688917D01*
X851161Y688792D01*
X851145Y688668D01*
X851150Y688592D01*
X851147Y688515D01*
X851165Y688391D01*
X851173Y688280D01*
X850851Y687460D01*
X850833Y687395D01*
X850762Y687170D01*
X850565Y686304D01*
X850526Y686269D01*
X850451Y686169D01*
X850369Y686074D01*
X850332Y686007D01*
X850286Y685946D01*
X850215Y685799D01*
X850172Y685723D01*
X850161Y685689D01*
X850140Y685648D01*
X849824Y684843D01*
X849804Y684769D01*
X849774Y684699D01*
X849749Y684576D01*
X849715Y684455D01*
X849709Y684379D01*
X849694Y684304D01*
X849694Y684179D01*
X849686Y684067D01*
X849245Y683304D01*
X849218Y683244D01*
X849113Y683031D01*
X848789Y682205D01*
X848746Y682176D01*
X848657Y682087D01*
X848562Y682006D01*
X848515Y681946D01*
X848461Y681892D01*
X848368Y681757D01*
X848314Y681689D01*
X848298Y681657D01*
X848272Y681619D01*
X847840Y680870D01*
X847808Y680800D01*
X847768Y680735D01*
X847725Y680617D01*
X847674Y680503D01*
X847657Y680429D01*
X847630Y680357D01*
X847612Y680233D01*
X847587Y680124D01*
X847275Y679733D01*
X847218Y679645D01*
X847152Y679562D01*
X847109Y679476D01*
X847056Y679395D01*
X847018Y679297D01*
X846970Y679203D01*
X846944Y679110D01*
X846909Y679021D01*
X846890Y678917D01*
X846862Y678815D01*
X846855Y678719D01*
X846838Y678624D01*
X846840Y678519D01*
X846833Y678413D01*
X846845Y678318D01*
X846847Y678222D01*
X846870Y678119D01*
X846883Y678014D01*
X846914Y677923D01*
X846935Y677829D01*
X846978Y677732D01*
X847011Y677632D01*
X847059Y677549D01*
X847098Y677461D01*
X847159Y677375D01*
X847212Y677283D01*
X847287Y677195D01*
X847331Y677133D01*
X847374Y677092D01*
X847427Y677030D01*
X855230Y669227D01*
X855230Y584622D01*
X853984Y583375D01*
X853967Y583355D01*
X853946Y583337D01*
X853839Y583199D01*
X853729Y583064D01*
X853716Y583040D01*
X853700Y583019D01*
X853622Y582862D01*
X853540Y582708D01*
X853532Y582683D01*
X853520Y582658D01*
X853475Y582489D01*
X853425Y582322D01*
X853423Y582296D01*
X853416Y582270D01*
X853389Y581939D01*
X853389Y575633D01*
X852049Y574293D01*
X796163Y574293D01*
X796145Y574291D01*
X796127Y574293D01*
X795945Y574272D01*
X795762Y574253D01*
X795745Y574248D01*
X795728Y574246D01*
X795553Y574189D01*
X795377Y574135D01*
X795362Y574127D01*
X795345Y574121D01*
X795185Y574031D01*
X795023Y573943D01*
X795010Y573932D01*
X794994Y573923D01*
X794855Y573803D01*
X794714Y573686D01*
X794703Y573672D01*
X794689Y573660D01*
X794577Y573515D01*
X794462Y573372D01*
X794454Y573356D01*
X794443Y573342D01*
X794361Y573177D01*
X794276Y573015D01*
X794271Y572998D01*
X794263Y572982D01*
X794216Y572803D01*
X794165Y572628D01*
X794163Y572610D01*
X794159Y572593D01*
X794132Y572262D01*
X794132Y546384D01*
X792784Y545036D01*
X792772Y545022D01*
X792759Y545010D01*
X792645Y544866D01*
X792529Y544724D01*
X792520Y544709D01*
X792509Y544695D01*
X792426Y544530D01*
X792340Y544369D01*
X792335Y544352D01*
X792327Y544336D01*
X792277Y544158D01*
X792225Y543983D01*
X792224Y543965D01*
X792219Y543948D01*
X792205Y543765D01*
X792189Y543582D01*
X792191Y543564D01*
X792189Y543546D01*
X792212Y543364D01*
X792232Y543181D01*
X792238Y543164D01*
X792240Y543147D01*
X792298Y542973D01*
X792354Y542798D01*
X792362Y542782D01*
X792368Y542765D01*
X792460Y542606D01*
X792549Y542445D01*
X792560Y542432D01*
X792569Y542416D01*
X792784Y542163D01*
X794132Y540815D01*
X794132Y519938D01*
X794134Y519920D01*
X794132Y519902D01*
X794153Y519720D01*
X794172Y519537D01*
X794177Y519520D01*
X794179Y519503D01*
X794236Y519328D01*
X794290Y519152D01*
X794298Y519137D01*
X794304Y519120D01*
X794394Y518960D01*
X794482Y518798D01*
X794493Y518785D01*
X794502Y518769D01*
X794622Y518630D01*
X794739Y518489D01*
X794753Y518478D01*
X794765Y518464D01*
X794910Y518352D01*
X795053Y518237D01*
X795069Y518229D01*
X795083Y518218D01*
X795248Y518136D01*
X795410Y518051D01*
X795427Y518046D01*
X795443Y518038D01*
X795622Y517991D01*
X795797Y517940D01*
X795815Y517938D01*
X795832Y517934D01*
X796163Y517907D01*
X848487Y517907D01*
X848505Y517909D01*
X848523Y517907D01*
X848705Y517928D01*
X848888Y517947D01*
X848905Y517952D01*
X848922Y517954D01*
X849097Y518011D01*
X849273Y518065D01*
X849288Y518073D01*
X849305Y518079D01*
X849465Y518169D01*
X849627Y518257D01*
X849640Y518268D01*
X849656Y518277D01*
X849795Y518397D01*
X849936Y518514D01*
X849947Y518528D01*
X849961Y518540D01*
X850073Y518685D01*
X850188Y518828D01*
X850196Y518844D01*
X850207Y518858D01*
X850289Y519023D01*
X850374Y519185D01*
X850379Y519202D01*
X850387Y519218D01*
X850434Y519397D01*
X850485Y519572D01*
X850487Y519590D01*
X850491Y519607D01*
X850518Y519938D01*
X850518Y565821D01*
X851858Y567161D01*
X861880Y567161D01*
X862629Y566412D01*
X862642Y566401D01*
X862654Y566387D01*
X862799Y566273D01*
X862940Y566157D01*
X862956Y566149D01*
X862970Y566138D01*
X863134Y566054D01*
X863296Y565968D01*
X863313Y565963D01*
X863329Y565955D01*
X863506Y565906D01*
X863682Y565854D01*
X863700Y565852D01*
X863717Y565847D01*
X863900Y565834D01*
X864083Y565817D01*
X864101Y565819D01*
X864118Y565818D01*
X864300Y565841D01*
X864483Y565861D01*
X864500Y565866D01*
X864518Y565868D01*
X864691Y565927D01*
X864867Y565982D01*
X864883Y565991D01*
X864900Y565997D01*
X865058Y566088D01*
X865219Y566177D01*
X865233Y566189D01*
X865248Y566197D01*
X865501Y566412D01*
X868297Y569208D01*
X868681Y569367D01*
X868701Y569378D01*
X868722Y569385D01*
X868878Y569473D01*
X869036Y569557D01*
X869053Y569571D01*
X869073Y569582D01*
X869208Y569700D01*
X869346Y569814D01*
X869361Y569831D01*
X869377Y569846D01*
X869487Y569987D01*
X869600Y570126D01*
X869611Y570146D01*
X869624Y570164D01*
X869704Y570324D01*
X869787Y570483D01*
X869793Y570504D01*
X869803Y570524D01*
X869850Y570698D01*
X869900Y570869D01*
X869902Y570891D01*
X869908Y570913D01*
X869935Y571244D01*
X869935Y575090D01*
X869933Y575112D01*
X869935Y575134D01*
X869913Y575311D01*
X869895Y575490D01*
X869889Y575512D01*
X869886Y575534D01*
X869830Y575704D01*
X869777Y575875D01*
X869766Y575895D01*
X869759Y575916D01*
X869671Y576072D01*
X869585Y576229D01*
X869571Y576246D01*
X869560Y576266D01*
X869442Y576401D01*
X869328Y576538D01*
X869310Y576552D01*
X869296Y576569D01*
X869153Y576679D01*
X869014Y576791D01*
X868994Y576801D01*
X868976Y576815D01*
X868681Y576966D01*
X866512Y577865D01*
X864805Y579572D01*
X863881Y581802D01*
X863881Y584217D01*
X864805Y586447D01*
X866150Y587791D01*
X866167Y587812D01*
X866187Y587830D01*
X866294Y587967D01*
X866405Y588103D01*
X866417Y588127D01*
X866434Y588148D01*
X866512Y588305D01*
X866593Y588459D01*
X866601Y588484D01*
X866613Y588508D01*
X866658Y588677D01*
X866708Y588845D01*
X866710Y588871D01*
X866717Y588897D01*
X866745Y589228D01*
X866745Y617650D01*
X868084Y618990D01*
X882978Y618990D01*
X883595Y618373D01*
X883609Y618362D01*
X883620Y618349D01*
X883764Y618235D01*
X883906Y618118D01*
X883922Y618110D01*
X883936Y618099D01*
X884100Y618016D01*
X884262Y617930D01*
X884279Y617925D01*
X884295Y617917D01*
X884471Y617867D01*
X884648Y617815D01*
X884666Y617813D01*
X884683Y617809D01*
X884865Y617795D01*
X885049Y617778D01*
X885067Y617780D01*
X885084Y617779D01*
X885266Y617802D01*
X885449Y617822D01*
X885466Y617827D01*
X885484Y617829D01*
X885657Y617888D01*
X885833Y617943D01*
X885849Y617952D01*
X885865Y617958D01*
X886024Y618049D01*
X886185Y618138D01*
X886199Y618150D01*
X886214Y618159D01*
X886467Y618373D01*
X886571Y618477D01*
X886588Y618498D01*
X886609Y618515D01*
X886715Y618653D01*
X886826Y618788D01*
X886839Y618812D01*
X886855Y618834D01*
X886933Y618990D01*
X887015Y619144D01*
X887023Y619170D01*
X887035Y619194D01*
X887080Y619363D01*
X887130Y619530D01*
X887132Y619557D01*
X887139Y619583D01*
X887166Y619914D01*
X887166Y631653D01*
X888506Y632993D01*
X901400Y632993D01*
X902740Y631653D01*
X902740Y619070D01*
X902743Y619043D01*
X902741Y619016D01*
X902762Y618843D01*
X902780Y618669D01*
X902788Y618644D01*
X902791Y618617D01*
X902847Y618451D01*
X902898Y618284D01*
X902911Y618261D01*
X902919Y618235D01*
X903007Y618084D01*
X903090Y617930D01*
X903107Y617910D01*
X903120Y617886D01*
X903318Y617653D01*
X903318Y583293D01*
X903104Y583079D01*
X903087Y583058D01*
X903066Y583041D01*
X902960Y582903D01*
X902848Y582768D01*
X902836Y582744D01*
X902820Y582723D01*
X902742Y582567D01*
X902660Y582412D01*
X902652Y582386D01*
X902640Y582362D01*
X902595Y582193D01*
X902545Y582026D01*
X902543Y581999D01*
X902536Y581973D01*
X902509Y581643D01*
X902509Y559600D01*
X901169Y558260D01*
X901072Y558260D01*
X901054Y558258D01*
X901036Y558260D01*
X900854Y558238D01*
X900671Y558220D01*
X900654Y558215D01*
X900636Y558213D01*
X900462Y558156D01*
X900286Y558102D01*
X900271Y558094D01*
X900254Y558088D01*
X900093Y557998D01*
X899932Y557910D01*
X899919Y557899D01*
X899903Y557890D01*
X899764Y557770D01*
X899623Y557653D01*
X899612Y557639D01*
X899598Y557627D01*
X899485Y557482D01*
X899371Y557339D01*
X899362Y557323D01*
X899352Y557309D01*
X899270Y557144D01*
X899185Y556982D01*
X899180Y556964D01*
X899172Y556948D01*
X899124Y556770D01*
X899074Y556595D01*
X899072Y556577D01*
X899068Y556560D01*
X899041Y556229D01*
X899041Y553669D01*
X898383Y552081D01*
X897168Y550867D01*
X895581Y550209D01*
X895159Y550209D01*
X895141Y550207D01*
X895123Y550209D01*
X894941Y550187D01*
X894758Y550169D01*
X894741Y550164D01*
X894723Y550162D01*
X894549Y550105D01*
X894373Y550051D01*
X894357Y550043D01*
X894340Y550037D01*
X894180Y549947D01*
X894019Y549859D01*
X894005Y549848D01*
X893990Y549839D01*
X893851Y549719D01*
X893710Y549602D01*
X893699Y549588D01*
X893685Y549576D01*
X893573Y549431D01*
X893457Y549288D01*
X893449Y549272D01*
X893438Y549258D01*
X893356Y549093D01*
X893272Y548930D01*
X893267Y548913D01*
X893259Y548897D01*
X893211Y548719D01*
X893161Y548544D01*
X893159Y548526D01*
X893154Y548509D01*
X893127Y548178D01*
X893127Y545231D01*
X891788Y543891D01*
X881550Y543891D01*
X881524Y543889D01*
X881497Y543891D01*
X881323Y543869D01*
X881150Y543851D01*
X881124Y543844D01*
X881097Y543840D01*
X880932Y543785D01*
X880765Y543733D01*
X880741Y543721D01*
X880716Y543712D01*
X880564Y543625D01*
X880411Y543542D01*
X880390Y543525D01*
X880367Y543511D01*
X880114Y543296D01*
X874432Y537614D01*
X874421Y537601D01*
X874407Y537589D01*
X874293Y537445D01*
X874177Y537303D01*
X874169Y537287D01*
X874157Y537273D01*
X874074Y537109D01*
X873988Y536947D01*
X873983Y536930D01*
X873975Y536914D01*
X873926Y536737D01*
X873873Y536561D01*
X873872Y536544D01*
X873867Y536526D01*
X873854Y536343D01*
X873837Y536160D01*
X873839Y536143D01*
X873838Y536125D01*
X873861Y535943D01*
X873880Y535760D01*
X873886Y535743D01*
X873888Y535725D01*
X873946Y535552D01*
X874002Y535376D01*
X874011Y535361D01*
X874016Y535344D01*
X874108Y535184D01*
X874197Y535024D01*
X874208Y535010D01*
X874217Y534995D01*
X874432Y534742D01*
X880114Y529060D01*
X880135Y529043D01*
X880152Y529023D01*
X880290Y528916D01*
X880425Y528805D01*
X880449Y528792D01*
X880470Y528776D01*
X880627Y528698D01*
X880781Y528616D01*
X880807Y528609D01*
X880831Y528597D01*
X881000Y528551D01*
X881167Y528501D01*
X881194Y528499D01*
X881220Y528492D01*
X881550Y528465D01*
X891788Y528465D01*
X893021Y527232D01*
X893035Y527221D01*
X893046Y527207D01*
X893190Y527093D01*
X893332Y526977D01*
X893348Y526969D01*
X893362Y526957D01*
X893526Y526874D01*
X893688Y526788D01*
X893705Y526783D01*
X893721Y526775D01*
X893898Y526726D01*
X894074Y526673D01*
X894092Y526672D01*
X894109Y526667D01*
X894292Y526654D01*
X894475Y526637D01*
X894493Y526639D01*
X894510Y526638D01*
X894692Y526661D01*
X894875Y526680D01*
X894892Y526686D01*
X894910Y526688D01*
X895083Y526746D01*
X895259Y526802D01*
X895275Y526811D01*
X895292Y526816D01*
X895450Y526908D01*
X895611Y526997D01*
X895625Y527008D01*
X895640Y527017D01*
X895893Y527232D01*
X896358Y527697D01*
X899037Y530375D01*
X912226Y530375D01*
X912244Y530377D01*
X912261Y530376D01*
X912444Y530397D01*
X912626Y530415D01*
X912643Y530421D01*
X912661Y530423D01*
X912836Y530480D01*
X913011Y530534D01*
X913027Y530542D01*
X913044Y530548D01*
X913204Y530638D01*
X913365Y530725D01*
X913379Y530737D01*
X913395Y530745D01*
X913534Y530866D01*
X913675Y530983D01*
X913686Y530997D01*
X913699Y531009D01*
X913812Y531154D01*
X913927Y531297D01*
X913935Y531313D01*
X913946Y531327D01*
X914028Y531492D01*
X914112Y531654D01*
X914117Y531671D01*
X914125Y531687D01*
X914173Y531865D01*
X914224Y532041D01*
X914225Y532059D01*
X914230Y532076D01*
X914257Y532407D01*
X914257Y533266D01*
X915597Y534605D01*
X916902Y534605D01*
X916911Y534606D01*
X916920Y534606D01*
X917112Y534626D01*
X917303Y534645D01*
X917312Y534648D01*
X917320Y534649D01*
X917503Y534707D01*
X917688Y534764D01*
X917696Y534768D01*
X917704Y534770D01*
X917873Y534864D01*
X918042Y534955D01*
X918049Y534961D01*
X918057Y534965D01*
X918204Y535090D01*
X918351Y535213D01*
X918357Y535220D01*
X918364Y535226D01*
X918482Y535376D01*
X918603Y535527D01*
X918608Y535535D01*
X918613Y535542D01*
X918701Y535714D01*
X918789Y535884D01*
X918791Y535893D01*
X918796Y535901D01*
X918847Y536087D01*
X918900Y536271D01*
X918901Y536280D01*
X918904Y536289D01*
X918918Y536481D01*
X918933Y536672D01*
X918932Y536681D01*
X918933Y536690D01*
X918909Y536883D01*
X918886Y537072D01*
X918884Y537081D01*
X918882Y537090D01*
X918821Y537272D01*
X918762Y537455D01*
X918757Y537463D01*
X918754Y537471D01*
X918658Y537638D01*
X918564Y537806D01*
X918558Y537812D01*
X918553Y537820D01*
X918339Y538073D01*
X915209Y541203D01*
X915209Y549410D01*
X921012Y555213D01*
X929219Y555213D01*
X935022Y549410D01*
X935022Y541203D01*
X929394Y535575D01*
X929383Y535561D01*
X929369Y535549D01*
X929255Y535404D01*
X929139Y535263D01*
X929131Y535247D01*
X929119Y535233D01*
X929036Y535069D01*
X928951Y534908D01*
X928945Y534890D01*
X928937Y534874D01*
X928888Y534697D01*
X928836Y534522D01*
X928834Y534503D01*
X928829Y534486D01*
X928816Y534304D01*
X928799Y534121D01*
X928801Y534102D01*
X928800Y534084D01*
X928823Y533903D01*
X928830Y533834D01*
X928830Y520372D01*
X927491Y519032D01*
X915597Y519032D01*
X914257Y520372D01*
X914257Y521231D01*
X914255Y521249D01*
X914257Y521266D01*
X914235Y521449D01*
X914217Y521631D01*
X914212Y521648D01*
X914210Y521666D01*
X914153Y521841D01*
X914099Y522016D01*
X914090Y522032D01*
X914085Y522049D01*
X913995Y522209D01*
X913907Y522370D01*
X913896Y522384D01*
X913887Y522400D01*
X913767Y522539D01*
X913649Y522680D01*
X913636Y522691D01*
X913624Y522704D01*
X913479Y522817D01*
X913336Y522932D01*
X913320Y522940D01*
X913306Y522951D01*
X913141Y523033D01*
X912978Y523117D01*
X912961Y523122D01*
X912945Y523130D01*
X912767Y523178D01*
X912591Y523229D01*
X912574Y523230D01*
X912556Y523235D01*
X912226Y523262D01*
X902825Y523262D01*
X902798Y523259D01*
X902771Y523261D01*
X902598Y523239D01*
X902424Y523222D01*
X902399Y523214D01*
X902372Y523211D01*
X902206Y523155D01*
X902039Y523104D01*
X902016Y523091D01*
X901990Y523083D01*
X901839Y522995D01*
X901685Y522912D01*
X901665Y522895D01*
X901641Y522882D01*
X901388Y522667D01*
X893787Y515065D01*
X878355Y515065D01*
X878346Y515065D01*
X878337Y515065D01*
X878146Y515045D01*
X877955Y515026D01*
X877946Y515023D01*
X877937Y515022D01*
X877755Y514964D01*
X877570Y514907D01*
X877562Y514903D01*
X877553Y514900D01*
X877385Y514807D01*
X877216Y514716D01*
X877209Y514710D01*
X877201Y514706D01*
X877053Y514580D01*
X876906Y514458D01*
X876901Y514451D01*
X876894Y514445D01*
X876774Y514293D01*
X876654Y514144D01*
X876650Y514136D01*
X876644Y514129D01*
X876557Y513957D01*
X876469Y513787D01*
X876466Y513778D01*
X876462Y513770D01*
X876410Y513584D01*
X876357Y513400D01*
X876356Y513391D01*
X876354Y513382D01*
X876340Y513190D01*
X876324Y512999D01*
X876325Y512990D01*
X876325Y512981D01*
X876349Y512788D01*
X876371Y512599D01*
X876374Y512590D01*
X876375Y512581D01*
X876436Y512399D01*
X876496Y512216D01*
X876500Y512208D01*
X876503Y512200D01*
X876599Y512034D01*
X876694Y511865D01*
X876700Y511859D01*
X876704Y511851D01*
X876919Y511598D01*
X878667Y509850D01*
X879591Y507620D01*
X879591Y505205D01*
X878667Y502975D01*
X876960Y501268D01*
X875736Y500761D01*
X875724Y500754D01*
X875711Y500750D01*
X875547Y500660D01*
X875381Y500571D01*
X875370Y500562D01*
X875359Y500556D01*
X875216Y500434D01*
X875070Y500314D01*
X875062Y500304D01*
X875052Y500295D01*
X874936Y500148D01*
X874817Y500002D01*
X874811Y499990D01*
X874802Y499979D01*
X874717Y499811D01*
X874630Y499645D01*
X874626Y499632D01*
X874620Y499620D01*
X874569Y499439D01*
X874517Y499259D01*
X874515Y499245D01*
X874512Y499232D01*
X874498Y499044D01*
X874482Y498858D01*
X874483Y498844D01*
X874482Y498831D01*
X874506Y498643D01*
X874527Y498457D01*
X874531Y498445D01*
X874533Y498431D01*
X874593Y498253D01*
X874650Y498074D01*
X874657Y498062D01*
X874661Y498050D01*
X874755Y497887D01*
X874847Y497723D01*
X874855Y497712D01*
X874862Y497701D01*
X875077Y497448D01*
X881495Y491030D01*
X881516Y491013D01*
X881533Y490992D01*
X881671Y490885D01*
X881807Y490774D01*
X881830Y490762D01*
X881851Y490746D01*
X882008Y490668D01*
X882162Y490586D01*
X882188Y490578D01*
X882212Y490566D01*
X882381Y490521D01*
X882548Y490471D01*
X882575Y490469D01*
X882601Y490462D01*
X882931Y490435D01*
X920370Y490435D01*
X920396Y490437D01*
G37*
G36*
X679051Y497870D02*
X679051Y497870D01*
X679193Y497868D01*
X679252Y497879D01*
X679311Y497882D01*
X679449Y497916D01*
X679589Y497942D01*
X679652Y497967D01*
X679702Y497979D01*
X679776Y498014D01*
X679899Y498061D01*
X679925Y498074D01*
X679991Y498114D01*
X680062Y498146D01*
X680163Y498219D01*
X680269Y498283D01*
X680326Y498336D01*
X680389Y498381D01*
X680473Y498472D01*
X680556Y498548D01*
X681398Y498808D01*
X681460Y498834D01*
X681680Y498918D01*
X682480Y499303D01*
X682532Y499295D01*
X682656Y499299D01*
X682782Y499294D01*
X682858Y499306D01*
X682934Y499309D01*
X683093Y499344D01*
X683179Y499358D01*
X683213Y499371D01*
X683258Y499381D01*
X684086Y499636D01*
X684157Y499666D01*
X684231Y499686D01*
X684342Y499744D01*
X684457Y499792D01*
X684521Y499835D01*
X684589Y499870D01*
X684687Y499948D01*
X684779Y500011D01*
X685651Y500142D01*
X685716Y500158D01*
X685947Y500209D01*
X686795Y500470D01*
X686844Y500454D01*
X686968Y500440D01*
X687092Y500417D01*
X687168Y500417D01*
X687244Y500409D01*
X687407Y500420D01*
X687494Y500421D01*
X687530Y500428D01*
X687575Y500431D01*
X688433Y500560D01*
X688507Y500579D01*
X688583Y500588D01*
X688702Y500628D01*
X688823Y500659D01*
X688892Y500692D01*
X688964Y500717D01*
X689073Y500779D01*
X689174Y500827D01*
X690055Y500827D01*
X690122Y500834D01*
X690357Y500850D01*
X691235Y500982D01*
X691282Y500958D01*
X691402Y500926D01*
X691521Y500884D01*
X691597Y500873D01*
X691670Y500854D01*
X691833Y500840D01*
X691919Y500828D01*
X691955Y500830D01*
X692001Y500826D01*
X692868Y500826D01*
X692944Y500834D01*
X693021Y500832D01*
X693144Y500853D01*
X693269Y500866D01*
X693342Y500888D01*
X693417Y500902D01*
X693534Y500947D01*
X693640Y500980D01*
X694512Y500848D01*
X694579Y500845D01*
X694814Y500825D01*
X695702Y500825D01*
X695745Y500795D01*
X695859Y500745D01*
X695970Y500686D01*
X696043Y500664D01*
X696113Y500634D01*
X696272Y500596D01*
X696356Y500571D01*
X696392Y500568D01*
X696436Y500557D01*
X697293Y500428D01*
X697370Y500424D01*
X697445Y500411D01*
X697571Y500414D01*
X697696Y500408D01*
X697771Y500419D01*
X697848Y500421D01*
X697970Y500448D01*
X698080Y500465D01*
X698922Y500205D01*
X698988Y500192D01*
X699218Y500137D01*
X700095Y500005D01*
X700133Y499969D01*
X700239Y499902D01*
X700340Y499827D01*
X700409Y499795D01*
X700474Y499754D01*
X700625Y499693D01*
X700704Y499656D01*
X700739Y499648D01*
X700782Y499631D01*
X701610Y499375D01*
X701685Y499360D01*
X701758Y499335D01*
X701882Y499320D01*
X702005Y499295D01*
X702081Y499295D01*
X702157Y499285D01*
X702282Y499294D01*
X702394Y499294D01*
X703187Y498911D01*
X703251Y498888D01*
X703470Y498800D01*
X704362Y498525D01*
X704480Y498501D01*
X704595Y498468D01*
X704677Y498461D01*
X704756Y498445D01*
X704877Y498445D01*
X704997Y498435D01*
X705078Y498444D01*
X705159Y498444D01*
X705277Y498468D01*
X705397Y498482D01*
X705474Y498507D01*
X705554Y498523D01*
X705665Y498569D01*
X705779Y498607D01*
X705850Y498647D01*
X705925Y498678D01*
X706025Y498745D01*
X706130Y498805D01*
X706192Y498858D01*
X706259Y498903D01*
X706344Y498989D01*
X706435Y499068D01*
X706484Y499132D01*
X706542Y499190D01*
X706608Y499291D01*
X706681Y499386D01*
X706718Y499459D01*
X706762Y499527D01*
X706807Y499638D01*
X706861Y499746D01*
X706882Y499825D01*
X706912Y499901D01*
X706934Y500019D01*
X706965Y500135D01*
X706973Y500230D01*
X706985Y500296D01*
X706984Y500366D01*
X706992Y500466D01*
X706992Y535375D01*
X709820Y538203D01*
X726638Y555021D01*
X729465Y557848D01*
X741901Y557848D01*
X741914Y557850D01*
X741928Y557848D01*
X742114Y557869D01*
X742302Y557888D01*
X742314Y557892D01*
X742328Y557894D01*
X742507Y557951D01*
X742686Y558006D01*
X742698Y558013D01*
X742711Y558017D01*
X742876Y558109D01*
X743040Y558198D01*
X743051Y558207D01*
X743062Y558213D01*
X743206Y558336D01*
X743350Y558456D01*
X743358Y558466D01*
X743368Y558475D01*
X743485Y558623D01*
X743602Y558770D01*
X743608Y558781D01*
X743617Y558792D01*
X743701Y558961D01*
X743788Y559127D01*
X743791Y559140D01*
X743797Y559152D01*
X743847Y559333D01*
X743899Y559514D01*
X743900Y559527D01*
X743904Y559540D01*
X743917Y559728D01*
X743932Y559915D01*
X743930Y559928D01*
X743931Y559942D01*
X743907Y560129D01*
X743885Y560315D01*
X743881Y560328D01*
X743879Y560341D01*
X743778Y560657D01*
X742568Y563576D01*
X742568Y567518D01*
X744076Y571159D01*
X746863Y573945D01*
X750504Y575454D01*
X754446Y575454D01*
X758087Y573945D01*
X760556Y571477D01*
X760576Y571460D01*
X760594Y571439D01*
X760732Y571332D01*
X760867Y571221D01*
X760891Y571209D01*
X760912Y571193D01*
X761068Y571115D01*
X761223Y571033D01*
X761248Y571025D01*
X761272Y571013D01*
X761441Y570968D01*
X761609Y570918D01*
X761635Y570916D01*
X761661Y570909D01*
X761992Y570882D01*
X769798Y570882D01*
X769824Y570884D01*
X769851Y570882D01*
X770025Y570904D01*
X770198Y570922D01*
X770224Y570929D01*
X770250Y570933D01*
X770416Y570988D01*
X770583Y571040D01*
X770607Y571052D01*
X770632Y571061D01*
X770784Y571148D01*
X770937Y571231D01*
X770958Y571248D01*
X770981Y571262D01*
X771234Y571477D01*
X771920Y572163D01*
X776399Y572163D01*
X776416Y572165D01*
X776434Y572163D01*
X776617Y572184D01*
X776799Y572203D01*
X776816Y572208D01*
X776834Y572210D01*
X777009Y572267D01*
X777184Y572321D01*
X777200Y572329D01*
X777217Y572335D01*
X777377Y572425D01*
X777538Y572513D01*
X777552Y572524D01*
X777567Y572533D01*
X777707Y572653D01*
X777847Y572770D01*
X777859Y572784D01*
X777872Y572796D01*
X777985Y572941D01*
X778100Y573084D01*
X778108Y573100D01*
X778119Y573114D01*
X778201Y573279D01*
X778285Y573441D01*
X778290Y573458D01*
X778298Y573474D01*
X778346Y573652D01*
X778397Y573828D01*
X778398Y573846D01*
X778403Y573863D01*
X778430Y574194D01*
X778430Y583581D01*
X778428Y583599D01*
X778430Y583616D01*
X778408Y583799D01*
X778390Y583982D01*
X778385Y583999D01*
X778383Y584016D01*
X778326Y584191D01*
X778272Y584366D01*
X778263Y584382D01*
X778258Y584399D01*
X778167Y584559D01*
X778080Y584720D01*
X778069Y584734D01*
X778060Y584750D01*
X777940Y584889D01*
X777822Y585030D01*
X777808Y585041D01*
X777797Y585054D01*
X777652Y585167D01*
X777509Y585282D01*
X777493Y585290D01*
X777479Y585301D01*
X777314Y585383D01*
X777151Y585468D01*
X777134Y585472D01*
X777118Y585480D01*
X776940Y585528D01*
X776764Y585579D01*
X776747Y585580D01*
X776729Y585585D01*
X776399Y585612D01*
X761992Y585612D01*
X761965Y585609D01*
X761939Y585611D01*
X761765Y585590D01*
X761591Y585572D01*
X761566Y585564D01*
X761539Y585561D01*
X761373Y585505D01*
X761206Y585454D01*
X761183Y585441D01*
X761157Y585433D01*
X761006Y585346D01*
X760852Y585262D01*
X760832Y585245D01*
X760809Y585232D01*
X760556Y585017D01*
X758087Y582548D01*
X754446Y581040D01*
X750504Y581040D01*
X746863Y582548D01*
X744076Y585335D01*
X742568Y588976D01*
X742568Y592918D01*
X744076Y596559D01*
X746863Y599345D01*
X750504Y600854D01*
X754446Y600854D01*
X758087Y599345D01*
X760556Y596877D01*
X760576Y596860D01*
X760594Y596839D01*
X760732Y596732D01*
X760867Y596621D01*
X760891Y596609D01*
X760912Y596593D01*
X761068Y596515D01*
X761223Y596433D01*
X761248Y596425D01*
X761272Y596413D01*
X761441Y596368D01*
X761609Y596318D01*
X761635Y596316D01*
X761661Y596309D01*
X761992Y596282D01*
X776180Y596282D01*
X776207Y596284D01*
X776233Y596282D01*
X776407Y596304D01*
X776581Y596322D01*
X776606Y596329D01*
X776633Y596333D01*
X776799Y596388D01*
X776966Y596440D01*
X776989Y596452D01*
X777015Y596461D01*
X777166Y596548D01*
X777320Y596631D01*
X777340Y596648D01*
X777363Y596662D01*
X777616Y596877D01*
X778225Y597485D01*
X778242Y597505D01*
X778262Y597523D01*
X778369Y597661D01*
X778480Y597796D01*
X778492Y597820D01*
X778509Y597841D01*
X778587Y597998D01*
X778668Y598152D01*
X778676Y598177D01*
X778688Y598201D01*
X778733Y598371D01*
X778783Y598538D01*
X778785Y598564D01*
X778792Y598590D01*
X778820Y598921D01*
X778820Y604269D01*
X780159Y605609D01*
X793053Y605609D01*
X794393Y604269D01*
X794393Y592375D01*
X792481Y590462D01*
X792475Y590455D01*
X792468Y590450D01*
X792348Y590300D01*
X792226Y590151D01*
X792221Y590143D01*
X792216Y590136D01*
X792127Y589966D01*
X792037Y589795D01*
X792034Y589786D01*
X792030Y589779D01*
X791977Y589594D01*
X791922Y589409D01*
X791921Y589400D01*
X791919Y589392D01*
X791903Y589201D01*
X791886Y589008D01*
X791887Y588999D01*
X791886Y588990D01*
X791908Y588800D01*
X791929Y588608D01*
X791932Y588599D01*
X791933Y588591D01*
X791992Y588408D01*
X792051Y588224D01*
X792055Y588216D01*
X792058Y588208D01*
X792153Y588039D01*
X792245Y587872D01*
X792251Y587865D01*
X792256Y587857D01*
X792382Y587711D01*
X792506Y587565D01*
X792513Y587559D01*
X792519Y587552D01*
X792671Y587434D01*
X792822Y587315D01*
X792830Y587311D01*
X792837Y587306D01*
X793009Y587220D01*
X793181Y587133D01*
X793189Y587130D01*
X793197Y587126D01*
X793383Y587076D01*
X793569Y587025D01*
X793578Y587024D01*
X793586Y587022D01*
X793917Y586995D01*
X804234Y586995D01*
X804252Y586997D01*
X804270Y586995D01*
X804452Y587016D01*
X804635Y587035D01*
X804652Y587040D01*
X804669Y587042D01*
X804844Y587099D01*
X805020Y587153D01*
X805035Y587161D01*
X805052Y587167D01*
X805212Y587257D01*
X805374Y587345D01*
X805387Y587356D01*
X805403Y587365D01*
X805542Y587485D01*
X805683Y587602D01*
X805694Y587616D01*
X805708Y587628D01*
X805820Y587773D01*
X805935Y587916D01*
X805943Y587932D01*
X805954Y587946D01*
X806036Y588111D01*
X806121Y588273D01*
X806126Y588290D01*
X806134Y588306D01*
X806181Y588485D01*
X806232Y588660D01*
X806234Y588678D01*
X806238Y588695D01*
X806265Y589026D01*
X806265Y594941D01*
X806263Y594967D01*
X806265Y594994D01*
X806243Y595168D01*
X806225Y595342D01*
X806218Y595367D01*
X806214Y595394D01*
X806159Y595559D01*
X806107Y595726D01*
X806094Y595750D01*
X806086Y595775D01*
X805999Y595927D01*
X805932Y596050D01*
X805932Y608095D01*
X805930Y608121D01*
X805932Y608148D01*
X805910Y608322D01*
X805892Y608495D01*
X805885Y608521D01*
X805881Y608548D01*
X805826Y608713D01*
X805774Y608880D01*
X805761Y608904D01*
X805753Y608929D01*
X805666Y609081D01*
X805582Y609234D01*
X805565Y609255D01*
X805552Y609278D01*
X805337Y609531D01*
X776391Y638477D01*
X776371Y638494D01*
X776353Y638514D01*
X776215Y638621D01*
X776080Y638732D01*
X776056Y638745D01*
X776035Y638761D01*
X775878Y638839D01*
X775724Y638921D01*
X775699Y638928D01*
X775675Y638940D01*
X775505Y638986D01*
X775338Y639035D01*
X775312Y639038D01*
X775286Y639045D01*
X774955Y639072D01*
X729112Y639072D01*
X729085Y639069D01*
X729058Y639071D01*
X728884Y639049D01*
X728711Y639032D01*
X728686Y639024D01*
X728659Y639021D01*
X728493Y638965D01*
X728326Y638914D01*
X728303Y638901D01*
X728277Y638893D01*
X728126Y638805D01*
X727972Y638722D01*
X727952Y638705D01*
X727928Y638692D01*
X727675Y638477D01*
X721364Y632166D01*
X721330Y632124D01*
X721291Y632088D01*
X721203Y631969D01*
X721109Y631854D01*
X721084Y631807D01*
X721052Y631764D01*
X720990Y631630D01*
X720920Y631499D01*
X720905Y631447D01*
X720883Y631399D01*
X720848Y631255D01*
X720806Y631113D01*
X720801Y631059D01*
X720788Y631007D01*
X720783Y630860D01*
X720769Y630712D01*
X720775Y630658D01*
X720773Y630605D01*
X720805Y630385D01*
X720813Y630311D01*
X720817Y630296D01*
X720820Y630277D01*
X720873Y630044D01*
X720895Y629980D01*
X720963Y629754D01*
X721287Y628928D01*
X721275Y628877D01*
X721270Y628752D01*
X721256Y628628D01*
X721263Y628551D01*
X721260Y628475D01*
X721283Y628314D01*
X721291Y628226D01*
X721301Y628192D01*
X721307Y628147D01*
X721500Y627301D01*
X721525Y627229D01*
X721540Y627154D01*
X721589Y627039D01*
X721628Y626920D01*
X721667Y626853D01*
X721697Y626783D01*
X721767Y626680D01*
X721823Y626583D01*
X721889Y625704D01*
X721900Y625638D01*
X721934Y625404D01*
X722132Y624539D01*
X722112Y624490D01*
X722089Y624367D01*
X722056Y624247D01*
X722051Y624170D01*
X722037Y624095D01*
X722036Y623932D01*
X722030Y623845D01*
X722035Y623809D01*
X722035Y623763D01*
X722100Y622899D01*
X722113Y622823D01*
X722117Y622747D01*
X722148Y622626D01*
X722170Y622502D01*
X722198Y622431D01*
X722217Y622357D01*
X722271Y622244D01*
X722311Y622140D01*
X722246Y621261D01*
X722248Y621194D01*
X722246Y620958D01*
X722313Y620073D01*
X722286Y620028D01*
X722244Y619910D01*
X722194Y619795D01*
X722178Y619720D01*
X722153Y619648D01*
X722127Y619487D01*
X722109Y619402D01*
X722108Y619366D01*
X722101Y619320D01*
X722037Y618456D01*
X722038Y618379D01*
X722031Y618303D01*
X722043Y618178D01*
X722047Y618053D01*
X722063Y617979D01*
X722071Y617903D01*
X722108Y617783D01*
X722133Y617674D01*
X721937Y616815D01*
X721929Y616748D01*
X721892Y616515D01*
X721826Y615630D01*
X721793Y615589D01*
X721734Y615479D01*
X721667Y615373D01*
X721640Y615301D01*
X721604Y615234D01*
X721555Y615078D01*
X721524Y614996D01*
X721518Y614961D01*
X721504Y614917D01*
X721312Y614072D01*
X721302Y613996D01*
X721283Y613922D01*
X721277Y613797D01*
X721262Y613673D01*
X721267Y613596D01*
X721263Y613520D01*
X721282Y613396D01*
X721290Y613285D01*
X720969Y612464D01*
X720950Y612399D01*
X720879Y612174D01*
X720682Y611309D01*
X720643Y611274D01*
X720569Y611173D01*
X720487Y611078D01*
X720449Y611012D01*
X720404Y610950D01*
X720332Y610804D01*
X720289Y610728D01*
X720278Y610693D01*
X720258Y610652D01*
X719942Y609845D01*
X719921Y609771D01*
X719891Y609701D01*
X719866Y609578D01*
X719832Y609458D01*
X719827Y609381D01*
X719812Y609306D01*
X719811Y609181D01*
X719803Y609070D01*
X719363Y608307D01*
X719335Y608245D01*
X719231Y608033D01*
X718907Y607207D01*
X718864Y607178D01*
X718775Y607089D01*
X718680Y607008D01*
X718633Y606948D01*
X718579Y606894D01*
X718486Y606759D01*
X718432Y606690D01*
X718416Y606658D01*
X718390Y606621D01*
X717957Y605870D01*
X717925Y605800D01*
X717885Y605735D01*
X717843Y605617D01*
X717791Y605503D01*
X717774Y605428D01*
X717748Y605356D01*
X717729Y605233D01*
X717704Y605124D01*
X717155Y604435D01*
X717119Y604378D01*
X716984Y604184D01*
X716541Y603415D01*
X716493Y603393D01*
X716392Y603319D01*
X716286Y603252D01*
X716231Y603200D01*
X716169Y603154D01*
X716057Y603035D01*
X715994Y602975D01*
X715973Y602946D01*
X715942Y602912D01*
X715402Y602235D01*
X715360Y602170D01*
X715311Y602112D01*
X715251Y602001D01*
X715183Y601896D01*
X715155Y601825D01*
X715119Y601758D01*
X715082Y601638D01*
X715041Y601534D01*
X714395Y600935D01*
X714350Y600884D01*
X714189Y600712D01*
X713636Y600018D01*
X713586Y600004D01*
X713475Y599945D01*
X713360Y599895D01*
X713297Y599851D01*
X713229Y599816D01*
X713101Y599715D01*
X713030Y599665D01*
X713005Y599639D01*
X712969Y599611D01*
X712333Y599021D01*
X712283Y598963D01*
X712225Y598913D01*
X712150Y598813D01*
X712067Y598719D01*
X712029Y598653D01*
X711982Y598592D01*
X711928Y598479D01*
X711872Y598382D01*
X711144Y597886D01*
X711092Y597842D01*
X710907Y597696D01*
X710257Y597093D01*
X710205Y597085D01*
X710086Y597044D01*
X709966Y597012D01*
X709897Y596978D01*
X709825Y596953D01*
X709683Y596872D01*
X709605Y596833D01*
X709576Y596811D01*
X709536Y596789D01*
X708820Y596300D01*
X708761Y596251D01*
X708697Y596209D01*
X708608Y596122D01*
X708512Y596041D01*
X708464Y595982D01*
X708409Y595928D01*
X708338Y595825D01*
X708269Y595738D01*
X707475Y595355D01*
X707418Y595320D01*
X707212Y595203D01*
X706479Y594703D01*
X706427Y594704D01*
X706304Y594680D01*
X706179Y594667D01*
X706107Y594643D01*
X706031Y594629D01*
X705879Y594571D01*
X705796Y594544D01*
X705765Y594526D01*
X705722Y594510D01*
X704941Y594134D01*
X704876Y594094D01*
X704806Y594062D01*
X704704Y593989D01*
X704597Y593924D01*
X704541Y593872D01*
X704479Y593827D01*
X704394Y593735D01*
X704312Y593659D01*
X703470Y593400D01*
X703408Y593373D01*
X703187Y593289D01*
X702388Y592903D01*
X702337Y592912D01*
X702211Y592907D01*
X702086Y592912D01*
X702011Y592900D01*
X701934Y592897D01*
X701775Y592862D01*
X701689Y592848D01*
X701655Y592835D01*
X701610Y592825D01*
X700782Y592569D01*
X700711Y592540D01*
X700638Y592519D01*
X700526Y592462D01*
X700411Y592413D01*
X700348Y592370D01*
X700279Y592335D01*
X700182Y592257D01*
X700089Y592194D01*
X699218Y592063D01*
X699153Y592046D01*
X698922Y591995D01*
X698074Y591733D01*
X698025Y591749D01*
X697900Y591763D01*
X697777Y591787D01*
X697700Y591786D01*
X697624Y591795D01*
X697462Y591783D01*
X697374Y591783D01*
X697339Y591775D01*
X697293Y591772D01*
X696436Y591643D01*
X696362Y591624D01*
X696286Y591614D01*
X696168Y591574D01*
X696046Y591543D01*
X695977Y591510D01*
X695905Y591486D01*
X695796Y591423D01*
X695696Y591375D01*
X694814Y591375D01*
X694748Y591368D01*
X694512Y591352D01*
X693634Y591219D01*
X693587Y591242D01*
X693467Y591275D01*
X693348Y591316D01*
X693273Y591327D01*
X693199Y591347D01*
X693036Y591360D01*
X692950Y591372D01*
X692914Y591370D01*
X692868Y591374D01*
X692001Y591374D01*
X691925Y591366D01*
X691849Y591368D01*
X691725Y591346D01*
X691600Y591334D01*
X691527Y591311D01*
X691452Y591298D01*
X691336Y591252D01*
X691229Y591219D01*
X690357Y591350D01*
X690290Y591354D01*
X690055Y591373D01*
X689167Y591373D01*
X689125Y591403D01*
X689010Y591453D01*
X688899Y591512D01*
X688826Y591533D01*
X688756Y591564D01*
X688597Y591601D01*
X688513Y591626D01*
X688477Y591629D01*
X688433Y591640D01*
X687575Y591769D01*
X687499Y591773D01*
X687424Y591786D01*
X687298Y591783D01*
X687173Y591789D01*
X687098Y591778D01*
X687021Y591776D01*
X686899Y591748D01*
X686789Y591731D01*
X685947Y591991D01*
X685881Y592004D01*
X685651Y592058D01*
X684773Y592190D01*
X684735Y592226D01*
X684629Y592293D01*
X684529Y592367D01*
X684459Y592400D01*
X684394Y592441D01*
X684243Y592501D01*
X684164Y592538D01*
X684129Y592547D01*
X684086Y592564D01*
X683258Y592819D01*
X683183Y592834D01*
X683110Y592859D01*
X682986Y592874D01*
X682863Y592899D01*
X682787Y592899D01*
X682711Y592909D01*
X682586Y592899D01*
X682474Y592900D01*
X681680Y593282D01*
X681617Y593305D01*
X681398Y593392D01*
X680550Y593654D01*
X680517Y593696D01*
X680423Y593777D01*
X680334Y593865D01*
X680270Y593908D01*
X680212Y593958D01*
X680072Y594040D01*
X679999Y594089D01*
X679966Y594103D01*
X679925Y594126D01*
X679899Y594139D01*
X679765Y594187D01*
X679634Y594244D01*
X679576Y594256D01*
X679521Y594276D01*
X679380Y594298D01*
X679240Y594327D01*
X679181Y594328D01*
X679123Y594337D01*
X678980Y594330D01*
X678838Y594331D01*
X678779Y594320D01*
X678720Y594317D01*
X678582Y594282D01*
X678442Y594255D01*
X678387Y594233D01*
X678330Y594219D01*
X678201Y594157D01*
X678069Y594103D01*
X678020Y594071D01*
X677967Y594045D01*
X677853Y593959D01*
X677734Y593881D01*
X677692Y593839D01*
X677645Y593803D01*
X677550Y593697D01*
X677449Y593596D01*
X677410Y593541D01*
X677377Y593503D01*
X677335Y593432D01*
X677260Y593323D01*
X659517Y562591D01*
X658909Y563011D01*
X658882Y563022D01*
X658860Y563041D01*
X658791Y563061D01*
X658726Y563089D01*
X658697Y563089D01*
X658669Y563097D01*
X658598Y563089D01*
X658527Y563090D01*
X658500Y563078D01*
X658471Y563075D01*
X658409Y563040D01*
X658344Y563012D01*
X658323Y562992D01*
X658298Y562977D01*
X658235Y562900D01*
X658205Y562870D01*
X658201Y562860D01*
X658192Y562849D01*
X648692Y546349D01*
X648668Y546276D01*
X648637Y546206D01*
X648637Y546182D01*
X648629Y546160D01*
X648636Y546084D01*
X648635Y546007D01*
X648644Y545983D01*
X648645Y545962D01*
X648666Y545923D01*
X648685Y545871D01*
X648686Y545865D01*
X648688Y545863D01*
X648692Y545851D01*
X658192Y529351D01*
X658211Y529329D01*
X658224Y529303D01*
X658277Y529255D01*
X658324Y529202D01*
X658350Y529189D01*
X658372Y529170D01*
X658439Y529147D01*
X658503Y529116D01*
X658532Y529115D01*
X658559Y529105D01*
X658631Y529110D01*
X658702Y529107D01*
X658729Y529117D01*
X658758Y529119D01*
X658848Y529161D01*
X658888Y529176D01*
X658896Y529183D01*
X658909Y529189D01*
X659517Y529609D01*
X677260Y498877D01*
X677343Y498761D01*
X677420Y498640D01*
X677461Y498598D01*
X677495Y498549D01*
X677599Y498452D01*
X677698Y498349D01*
X677746Y498316D01*
X677790Y498275D01*
X677911Y498201D01*
X678028Y498119D01*
X678082Y498096D01*
X678133Y498064D01*
X678267Y498015D01*
X678397Y497958D01*
X678455Y497946D01*
X678511Y497926D01*
X678651Y497904D01*
X678791Y497874D01*
X678850Y497873D01*
X678909Y497864D01*
X679051Y497870D01*
G37*
G36*
X909001Y395616D02*
X909001Y395616D01*
X909079Y395625D01*
X909098Y395636D01*
X909120Y395640D01*
X909184Y395684D01*
X909252Y395723D01*
X909268Y395742D01*
X909284Y395753D01*
X909308Y395791D01*
X909358Y395851D01*
X918858Y412351D01*
X918867Y412378D01*
X918883Y412402D01*
X918898Y412472D01*
X918921Y412540D01*
X918918Y412568D01*
X918924Y412596D01*
X918911Y412667D01*
X918905Y412738D01*
X918892Y412763D01*
X918886Y412791D01*
X918846Y412851D01*
X918813Y412914D01*
X918791Y412932D01*
X918775Y412956D01*
X918692Y413014D01*
X918660Y413041D01*
X918649Y413044D01*
X918639Y413051D01*
X918011Y413348D01*
X935753Y444078D01*
X935812Y444210D01*
X935879Y444339D01*
X935895Y444393D01*
X935919Y444445D01*
X935951Y444586D01*
X935991Y444725D01*
X935996Y444782D01*
X936009Y444837D01*
X936013Y444982D01*
X936025Y445127D01*
X936018Y445183D01*
X936020Y445240D01*
X935995Y445383D01*
X935978Y445527D01*
X935961Y445581D01*
X935951Y445636D01*
X935899Y445772D01*
X935854Y445909D01*
X935826Y445959D01*
X935806Y446012D01*
X935728Y446134D01*
X935656Y446260D01*
X935619Y446303D01*
X935589Y446351D01*
X935488Y446456D01*
X935394Y446565D01*
X935347Y446603D01*
X935327Y446624D01*
X935322Y446628D01*
X935309Y446641D01*
X935241Y446689D01*
X935135Y446774D01*
X935127Y446779D01*
X935061Y446815D01*
X935000Y446859D01*
X934985Y446866D01*
X934978Y446870D01*
X934902Y446903D01*
X934885Y446911D01*
X934773Y446971D01*
X934702Y446993D01*
X934633Y447024D01*
X934509Y447053D01*
X934405Y447085D01*
X933758Y447685D01*
X933705Y447725D01*
X933521Y447874D01*
X932787Y448373D01*
X932769Y448422D01*
X932702Y448528D01*
X932644Y448639D01*
X932596Y448698D01*
X932555Y448763D01*
X932445Y448884D01*
X932390Y448951D01*
X932362Y448974D01*
X932331Y449008D01*
X931695Y449597D01*
X931634Y449644D01*
X931579Y449697D01*
X931474Y449765D01*
X931374Y449841D01*
X931305Y449874D01*
X931241Y449915D01*
X931125Y449961D01*
X931024Y450010D01*
X930475Y450698D01*
X930428Y450747D01*
X930268Y450921D01*
X929617Y451524D01*
X929606Y451575D01*
X929556Y451690D01*
X929515Y451808D01*
X929476Y451874D01*
X929445Y451944D01*
X929354Y452080D01*
X929310Y452155D01*
X929286Y452182D01*
X929260Y452220D01*
X928720Y452897D01*
X928666Y452952D01*
X928620Y453013D01*
X928526Y453096D01*
X928439Y453186D01*
X928376Y453229D01*
X928318Y453279D01*
X928209Y453342D01*
X928118Y453405D01*
X927677Y454168D01*
X927638Y454222D01*
X927506Y454419D01*
X926952Y455112D01*
X926949Y455165D01*
X926917Y455286D01*
X926893Y455409D01*
X926865Y455480D01*
X926845Y455553D01*
X926775Y455701D01*
X926742Y455782D01*
X926723Y455812D01*
X926703Y455853D01*
X926269Y456604D01*
X926225Y456666D01*
X926188Y456733D01*
X926107Y456829D01*
X926034Y456931D01*
X925978Y456983D01*
X925929Y457042D01*
X925831Y457120D01*
X925750Y457196D01*
X925427Y458016D01*
X925397Y458076D01*
X925295Y458289D01*
X924852Y459058D01*
X924856Y459110D01*
X924842Y459234D01*
X924838Y459359D01*
X924820Y459434D01*
X924811Y459510D01*
X924764Y459666D01*
X924744Y459751D01*
X924729Y459783D01*
X924716Y459828D01*
X924399Y460634D01*
X924364Y460702D01*
X924338Y460774D01*
X924272Y460881D01*
X924215Y460993D01*
X924167Y461053D01*
X924127Y461118D01*
X924042Y461210D01*
X923973Y461297D01*
X923777Y462156D01*
X923755Y462220D01*
X923687Y462446D01*
X923363Y463272D01*
X923375Y463323D01*
X923380Y463448D01*
X923394Y463572D01*
X923387Y463649D01*
X923390Y463725D01*
X923367Y463886D01*
X923359Y463974D01*
X923349Y464008D01*
X923343Y464053D01*
X923150Y464899D01*
X923125Y464971D01*
X923110Y465046D01*
X923061Y465162D01*
X923021Y465280D01*
X922983Y465347D01*
X922954Y465417D01*
X922883Y465521D01*
X922821Y465629D01*
X922807Y465645D01*
X922802Y465684D01*
X922784Y465740D01*
X922774Y465798D01*
X922722Y465931D01*
X922677Y466067D01*
X922648Y466118D01*
X922627Y466173D01*
X922550Y466293D01*
X922479Y466417D01*
X922441Y466462D01*
X922409Y466511D01*
X922310Y466614D01*
X922216Y466722D01*
X922170Y466758D01*
X922129Y466800D01*
X922011Y466881D01*
X921898Y466969D01*
X921846Y466995D01*
X921797Y467028D01*
X921666Y467084D01*
X921538Y467148D01*
X921481Y467163D01*
X921427Y467186D01*
X921287Y467216D01*
X921149Y467253D01*
X921082Y467258D01*
X921033Y467269D01*
X920950Y467269D01*
X920818Y467280D01*
X875465Y467280D01*
X872638Y470107D01*
X843593Y499151D01*
X843583Y499160D01*
X843574Y499170D01*
X843428Y499287D01*
X843282Y499406D01*
X843270Y499413D01*
X843260Y499421D01*
X843092Y499507D01*
X842926Y499595D01*
X842913Y499599D01*
X842901Y499605D01*
X842721Y499656D01*
X842540Y499710D01*
X842527Y499711D01*
X842514Y499715D01*
X842328Y499729D01*
X842139Y499746D01*
X842126Y499745D01*
X842113Y499746D01*
X841928Y499723D01*
X841739Y499703D01*
X841726Y499699D01*
X841713Y499697D01*
X841536Y499639D01*
X841355Y499581D01*
X841343Y499575D01*
X841331Y499571D01*
X841167Y499477D01*
X841003Y499386D01*
X840993Y499378D01*
X840981Y499371D01*
X840839Y499247D01*
X840696Y499126D01*
X840688Y499115D01*
X840678Y499107D01*
X840563Y498958D01*
X840446Y498810D01*
X840440Y498798D01*
X840432Y498787D01*
X840281Y498492D01*
X840079Y498007D01*
X838372Y496300D01*
X836142Y495376D01*
X833727Y495376D01*
X831497Y496300D01*
X829790Y498007D01*
X828866Y500237D01*
X828866Y502746D01*
X828877Y502782D01*
X828878Y502795D01*
X828882Y502808D01*
X828897Y502996D01*
X828915Y503183D01*
X828913Y503196D01*
X828915Y503210D01*
X828893Y503397D01*
X828873Y503583D01*
X828869Y503596D01*
X828868Y503609D01*
X828809Y503788D01*
X828754Y503967D01*
X828747Y503979D01*
X828743Y503992D01*
X828650Y504156D01*
X828560Y504321D01*
X828552Y504331D01*
X828545Y504343D01*
X828422Y504485D01*
X828301Y504629D01*
X828291Y504637D01*
X828282Y504648D01*
X828134Y504763D01*
X827986Y504880D01*
X827974Y504886D01*
X827964Y504894D01*
X827795Y504978D01*
X827628Y505064D01*
X827615Y505068D01*
X827603Y505074D01*
X827421Y505123D01*
X827241Y505174D01*
X827227Y505175D01*
X827214Y505178D01*
X826884Y505205D01*
X821297Y505205D01*
X821279Y505203D01*
X821261Y505205D01*
X821079Y505184D01*
X820896Y505165D01*
X820879Y505160D01*
X820861Y505158D01*
X820687Y505101D01*
X820511Y505047D01*
X820496Y505039D01*
X820479Y505033D01*
X820318Y504943D01*
X820157Y504855D01*
X820144Y504844D01*
X820128Y504835D01*
X819989Y504715D01*
X819848Y504598D01*
X819837Y504584D01*
X819823Y504572D01*
X819711Y504427D01*
X819596Y504284D01*
X819587Y504268D01*
X819577Y504254D01*
X819495Y504089D01*
X819410Y503927D01*
X819405Y503910D01*
X819397Y503894D01*
X819349Y503715D01*
X819299Y503540D01*
X819297Y503522D01*
X819293Y503505D01*
X819266Y503174D01*
X819266Y500443D01*
X818342Y498212D01*
X816635Y496505D01*
X814404Y495581D01*
X811990Y495581D01*
X811545Y495765D01*
X811532Y495769D01*
X811521Y495775D01*
X811340Y495827D01*
X811160Y495882D01*
X811147Y495883D01*
X811134Y495887D01*
X810945Y495902D01*
X810759Y495920D01*
X810746Y495919D01*
X810732Y495920D01*
X810546Y495898D01*
X810359Y495878D01*
X810346Y495874D01*
X810333Y495873D01*
X810155Y495815D01*
X809974Y495759D01*
X809963Y495752D01*
X809950Y495748D01*
X809786Y495656D01*
X809621Y495565D01*
X809611Y495557D01*
X809599Y495550D01*
X809457Y495427D01*
X809313Y495306D01*
X809305Y495296D01*
X809294Y495287D01*
X809180Y495139D01*
X809062Y494991D01*
X809056Y494979D01*
X809048Y494969D01*
X808964Y494801D01*
X808878Y494633D01*
X808874Y494620D01*
X808868Y494608D01*
X808819Y494426D01*
X808768Y494246D01*
X808767Y494232D01*
X808764Y494219D01*
X808737Y493889D01*
X808737Y441300D01*
X808739Y441274D01*
X808737Y441247D01*
X808759Y441073D01*
X808777Y440899D01*
X808784Y440874D01*
X808788Y440847D01*
X808843Y440682D01*
X808895Y440515D01*
X808908Y440491D01*
X808916Y440466D01*
X809003Y440314D01*
X809087Y440161D01*
X809104Y440140D01*
X809117Y440117D01*
X809332Y439864D01*
X811054Y438141D01*
X811054Y432651D01*
X811057Y432624D01*
X811055Y432597D01*
X811077Y432423D01*
X811094Y432250D01*
X811102Y432224D01*
X811106Y432198D01*
X811161Y432032D01*
X811213Y431865D01*
X811225Y431841D01*
X811234Y431816D01*
X811321Y431665D01*
X811404Y431511D01*
X811421Y431491D01*
X811435Y431467D01*
X811649Y431214D01*
X812389Y430475D01*
X813312Y428245D01*
X813312Y427165D01*
X813324Y427045D01*
X813327Y426925D01*
X813344Y426845D01*
X813352Y426764D01*
X813388Y426649D01*
X813414Y426532D01*
X813447Y426457D01*
X813471Y426379D01*
X813528Y426274D01*
X813576Y426164D01*
X813623Y426097D01*
X813662Y426025D01*
X813739Y425933D01*
X813808Y425835D01*
X813868Y425779D01*
X813920Y425716D01*
X814014Y425641D01*
X814101Y425558D01*
X814170Y425515D01*
X814234Y425464D01*
X814340Y425408D01*
X814442Y425345D01*
X814519Y425316D01*
X814591Y425278D01*
X814706Y425245D01*
X814819Y425203D01*
X814899Y425189D01*
X814978Y425167D01*
X815098Y425157D01*
X815216Y425138D01*
X815298Y425141D01*
X815379Y425134D01*
X815498Y425148D01*
X815618Y425152D01*
X815712Y425173D01*
X815779Y425181D01*
X815845Y425202D01*
X815942Y425224D01*
X816688Y425454D01*
X816738Y425438D01*
X816863Y425424D01*
X816986Y425400D01*
X817062Y425401D01*
X817138Y425392D01*
X817301Y425404D01*
X817388Y425404D01*
X817423Y425412D01*
X817469Y425415D01*
X818324Y425544D01*
X818398Y425563D01*
X818474Y425572D01*
X818593Y425612D01*
X818714Y425643D01*
X818783Y425676D01*
X818856Y425700D01*
X818965Y425763D01*
X819065Y425811D01*
X819946Y425811D01*
X820013Y425818D01*
X820249Y425834D01*
X821126Y425966D01*
X821173Y425943D01*
X821294Y425910D01*
X821412Y425869D01*
X821488Y425858D01*
X821562Y425838D01*
X821725Y425825D01*
X821811Y425813D01*
X821847Y425815D01*
X821893Y425811D01*
X822757Y425811D01*
X822833Y425819D01*
X822910Y425817D01*
X823033Y425839D01*
X823158Y425851D01*
X823231Y425874D01*
X823306Y425887D01*
X823423Y425932D01*
X823530Y425965D01*
X824401Y425834D01*
X824468Y425831D01*
X824704Y425811D01*
X825591Y425811D01*
X825634Y425781D01*
X825749Y425731D01*
X825859Y425672D01*
X825933Y425651D01*
X826003Y425620D01*
X826162Y425582D01*
X826245Y425558D01*
X826281Y425554D01*
X826326Y425544D01*
X827181Y425415D01*
X827257Y425411D01*
X827333Y425398D01*
X827458Y425401D01*
X827583Y425395D01*
X827658Y425406D01*
X827735Y425408D01*
X827857Y425436D01*
X827967Y425452D01*
X828810Y425192D01*
X828876Y425179D01*
X829106Y425125D01*
X829983Y424993D01*
X830021Y424957D01*
X830127Y424890D01*
X830227Y424815D01*
X830297Y424783D01*
X830361Y424742D01*
X830513Y424681D01*
X830592Y424644D01*
X830627Y424636D01*
X830669Y424619D01*
X831496Y424364D01*
X831571Y424349D01*
X831643Y424324D01*
X831768Y424309D01*
X831890Y424284D01*
X831967Y424284D01*
X832043Y424274D01*
X832168Y424283D01*
X832279Y424283D01*
X833073Y423901D01*
X833136Y423878D01*
X833356Y423790D01*
X834204Y423529D01*
X834236Y423487D01*
X834330Y423406D01*
X834419Y423317D01*
X834483Y423274D01*
X834540Y423224D01*
X834681Y423142D01*
X834754Y423093D01*
X834787Y423080D01*
X834827Y423056D01*
X835606Y422681D01*
X835678Y422655D01*
X835746Y422620D01*
X835866Y422586D01*
X835984Y422543D01*
X836060Y422532D01*
X836133Y422511D01*
X836258Y422502D01*
X836369Y422485D01*
X837097Y421989D01*
X837156Y421956D01*
X837360Y421837D01*
X838159Y421452D01*
X838184Y421406D01*
X838266Y421311D01*
X838340Y421210D01*
X838397Y421159D01*
X838447Y421101D01*
X838573Y420998D01*
X838638Y420940D01*
X838669Y420921D01*
X838705Y420892D01*
X839419Y420405D01*
X839486Y420368D01*
X839548Y420324D01*
X839663Y420272D01*
X839773Y420212D01*
X839846Y420190D01*
X839915Y420158D01*
X840038Y420130D01*
X840144Y420097D01*
X840790Y419498D01*
X840843Y419458D01*
X841027Y419309D01*
X841761Y418809D01*
X841779Y418760D01*
X841846Y418654D01*
X841904Y418543D01*
X841952Y418484D01*
X841993Y418419D01*
X842103Y418298D01*
X842158Y418231D01*
X842186Y418208D01*
X842217Y418174D01*
X842851Y417586D01*
X842912Y417540D01*
X842966Y417486D01*
X843072Y417418D01*
X843171Y417343D01*
X843240Y417309D01*
X843305Y417268D01*
X843421Y417222D01*
X843522Y417173D01*
X844071Y416484D01*
X844118Y416436D01*
X844278Y416262D01*
X844928Y415658D01*
X844939Y415607D01*
X844989Y415493D01*
X845030Y415374D01*
X845069Y415308D01*
X845100Y415238D01*
X845191Y415103D01*
X845235Y415027D01*
X845259Y415001D01*
X845285Y414963D01*
X845824Y414287D01*
X845877Y414232D01*
X845923Y414171D01*
X846017Y414088D01*
X846105Y413998D01*
X846168Y413955D01*
X846225Y413905D01*
X846334Y413842D01*
X846426Y413779D01*
X846866Y413016D01*
X846906Y412961D01*
X847037Y412765D01*
X847591Y412071D01*
X847594Y412019D01*
X847626Y411898D01*
X847649Y411775D01*
X847678Y411704D01*
X847698Y411630D01*
X847768Y411482D01*
X847800Y411402D01*
X847820Y411372D01*
X847840Y411330D01*
X848272Y410581D01*
X848317Y410519D01*
X848353Y410452D01*
X848434Y410356D01*
X848507Y410254D01*
X848563Y410202D01*
X848612Y410144D01*
X848710Y410065D01*
X848791Y409989D01*
X849113Y409169D01*
X849144Y409109D01*
X849245Y408896D01*
X849689Y408127D01*
X849684Y408075D01*
X849698Y407951D01*
X849703Y407825D01*
X849720Y407751D01*
X849729Y407675D01*
X849776Y407519D01*
X849796Y407434D01*
X849811Y407401D01*
X849824Y407357D01*
X850140Y406552D01*
X850175Y406484D01*
X850201Y406412D01*
X850267Y406306D01*
X850324Y406194D01*
X850372Y406134D01*
X850411Y406069D01*
X850496Y405977D01*
X850566Y405889D01*
X850762Y405030D01*
X850783Y404967D01*
X850851Y404740D01*
X851176Y403914D01*
X851163Y403864D01*
X851159Y403738D01*
X851144Y403614D01*
X851151Y403538D01*
X851148Y403461D01*
X851171Y403300D01*
X851179Y403213D01*
X851189Y403178D01*
X851195Y403133D01*
X851388Y402290D01*
X851412Y402217D01*
X851427Y402142D01*
X851476Y402027D01*
X851516Y401908D01*
X851554Y401842D01*
X851583Y401771D01*
X851654Y401668D01*
X851710Y401571D01*
X851775Y400692D01*
X851787Y400626D01*
X851821Y400392D01*
X852018Y399527D01*
X851999Y399480D01*
X851975Y399356D01*
X851942Y399235D01*
X851938Y399159D01*
X851923Y399085D01*
X851922Y398920D01*
X851920Y398895D01*
X851917Y398850D01*
X851917Y398846D01*
X851916Y398833D01*
X851921Y398798D01*
X851921Y398753D01*
X851922Y398736D01*
X851947Y398594D01*
X851964Y398451D01*
X851982Y398396D01*
X851992Y398339D01*
X852044Y398205D01*
X852089Y398068D01*
X852117Y398018D01*
X852138Y397964D01*
X852216Y397843D01*
X852286Y397717D01*
X852324Y397673D01*
X852355Y397625D01*
X852456Y397521D01*
X852550Y397412D01*
X852595Y397377D01*
X852635Y397336D01*
X852754Y397254D01*
X852868Y397166D01*
X852919Y397140D01*
X852967Y397107D01*
X853099Y397050D01*
X853228Y396986D01*
X853284Y396971D01*
X853337Y396949D01*
X853478Y396919D01*
X853617Y396882D01*
X853683Y396876D01*
X853731Y396866D01*
X853814Y396866D01*
X853948Y396855D01*
X889484Y396855D01*
X889427Y396140D01*
X889431Y396111D01*
X889426Y396083D01*
X889443Y396014D01*
X889451Y395942D01*
X889466Y395918D01*
X889472Y395890D01*
X889515Y395832D01*
X889551Y395770D01*
X889573Y395753D01*
X889590Y395730D01*
X889652Y395693D01*
X889709Y395650D01*
X889737Y395643D01*
X889761Y395628D01*
X889861Y395612D01*
X889902Y395601D01*
X889912Y395603D01*
X889925Y395601D01*
X908925Y395601D01*
X909001Y395616D01*
G37*
G36*
X754753Y395606D02*
X754753Y395606D01*
X754781Y395604D01*
X754849Y395626D01*
X754920Y395640D01*
X754943Y395656D01*
X754970Y395665D01*
X755025Y395712D01*
X755084Y395753D01*
X755099Y395777D01*
X755121Y395795D01*
X755152Y395860D01*
X755191Y395920D01*
X755196Y395948D01*
X755208Y395974D01*
X755217Y396075D01*
X755224Y396117D01*
X755222Y396127D01*
X755223Y396140D01*
X755166Y396855D01*
X790702Y396855D01*
X790845Y396869D01*
X790990Y396875D01*
X791046Y396889D01*
X791103Y396895D01*
X791240Y396937D01*
X791381Y396971D01*
X791433Y396996D01*
X791488Y397013D01*
X791615Y397081D01*
X791745Y397143D01*
X791791Y397177D01*
X791842Y397205D01*
X791953Y397297D01*
X792068Y397383D01*
X792107Y397425D01*
X792151Y397462D01*
X792241Y397575D01*
X792338Y397682D01*
X792367Y397731D01*
X792403Y397776D01*
X792470Y397904D01*
X792543Y398028D01*
X792562Y398082D01*
X792589Y398133D01*
X792629Y398272D01*
X792676Y398408D01*
X792687Y398473D01*
X792700Y398520D01*
X792707Y398603D01*
X792728Y398736D01*
X792729Y398753D01*
X792727Y398829D01*
X792735Y398904D01*
X792733Y398921D01*
X792733Y398922D01*
X792732Y398930D01*
X792722Y399029D01*
X792719Y399155D01*
X792702Y399229D01*
X792695Y399305D01*
X792658Y399425D01*
X792633Y399533D01*
X792829Y400392D01*
X792838Y400458D01*
X792852Y400550D01*
X792853Y400552D01*
X792853Y400555D01*
X792875Y400692D01*
X792941Y401577D01*
X792974Y401618D01*
X793033Y401729D01*
X793099Y401834D01*
X793127Y401906D01*
X793162Y401974D01*
X793212Y402129D01*
X793243Y402211D01*
X793249Y402246D01*
X793262Y402290D01*
X793455Y403133D01*
X793464Y403209D01*
X793483Y403283D01*
X793489Y403408D01*
X793505Y403532D01*
X793500Y403608D01*
X793503Y403685D01*
X793485Y403809D01*
X793477Y403920D01*
X793799Y404740D01*
X793817Y404805D01*
X793888Y405030D01*
X794085Y405896D01*
X794124Y405931D01*
X794199Y406031D01*
X794281Y406126D01*
X794318Y406193D01*
X794364Y406254D01*
X794435Y406401D01*
X794478Y406477D01*
X794489Y406511D01*
X794510Y406552D01*
X794826Y407357D01*
X794846Y407431D01*
X794876Y407501D01*
X794901Y407624D01*
X794935Y407745D01*
X794941Y407821D01*
X794956Y407896D01*
X794956Y408021D01*
X794964Y408132D01*
X795405Y408896D01*
X795433Y408957D01*
X795537Y409169D01*
X795861Y409995D01*
X795904Y410024D01*
X795993Y410113D01*
X796088Y410194D01*
X796135Y410254D01*
X796189Y410308D01*
X796282Y410443D01*
X796336Y410511D01*
X796352Y410543D01*
X796378Y410581D01*
X796810Y411330D01*
X796842Y411400D01*
X796882Y411465D01*
X796925Y411583D01*
X796976Y411697D01*
X796993Y411771D01*
X797020Y411843D01*
X797038Y411967D01*
X797063Y412076D01*
X797613Y412765D01*
X797649Y412821D01*
X797784Y413016D01*
X798058Y413491D01*
X798122Y413632D01*
X798192Y413771D01*
X798205Y413816D01*
X798224Y413858D01*
X798259Y414009D01*
X798300Y414159D01*
X798304Y414205D01*
X798314Y414250D01*
X798318Y414405D01*
X798330Y414560D01*
X798324Y414606D01*
X798325Y414653D01*
X798299Y414805D01*
X798279Y414960D01*
X798264Y415004D01*
X798256Y415050D01*
X798200Y415194D01*
X798151Y415341D01*
X798128Y415382D01*
X798111Y415425D01*
X798028Y415555D01*
X797950Y415690D01*
X797916Y415730D01*
X797894Y415764D01*
X797834Y415827D01*
X797735Y415943D01*
X796992Y416686D01*
X796925Y416741D01*
X796797Y416858D01*
X795773Y417648D01*
X795766Y417665D01*
X795734Y417758D01*
X795683Y417848D01*
X795640Y417942D01*
X795611Y417981D01*
X795611Y419271D01*
X795603Y419358D01*
X795595Y419530D01*
X795430Y420814D01*
X795436Y420830D01*
X795480Y420918D01*
X795507Y421019D01*
X795543Y421115D01*
X795559Y421212D01*
X795584Y421307D01*
X795595Y421433D01*
X795608Y421512D01*
X795606Y421566D01*
X795611Y421638D01*
X795611Y497159D01*
X795667Y497215D01*
X795684Y497236D01*
X795705Y497254D01*
X795812Y497392D01*
X795922Y497527D01*
X795935Y497551D01*
X795951Y497572D01*
X796029Y497729D01*
X796111Y497883D01*
X796119Y497908D01*
X796131Y497932D01*
X796176Y498102D01*
X796226Y498269D01*
X796228Y498295D01*
X796235Y498321D01*
X796262Y498652D01*
X796262Y503174D01*
X796260Y503192D01*
X796262Y503210D01*
X796241Y503391D01*
X796222Y503575D01*
X796217Y503592D01*
X796215Y503609D01*
X796158Y503784D01*
X796104Y503960D01*
X796096Y503975D01*
X796090Y503992D01*
X796000Y504152D01*
X795912Y504314D01*
X795901Y504327D01*
X795892Y504343D01*
X795772Y504482D01*
X795655Y504623D01*
X795641Y504634D01*
X795629Y504648D01*
X795484Y504760D01*
X795341Y504875D01*
X795325Y504883D01*
X795311Y504894D01*
X795146Y504976D01*
X794984Y505061D01*
X794967Y505066D01*
X794951Y505074D01*
X794772Y505121D01*
X794597Y505172D01*
X794579Y505174D01*
X794562Y505178D01*
X794231Y505205D01*
X792601Y505205D01*
X791261Y506545D01*
X791261Y513005D01*
X791259Y513023D01*
X791261Y513041D01*
X791240Y513223D01*
X791221Y513406D01*
X791216Y513423D01*
X791214Y513440D01*
X791157Y513615D01*
X791103Y513791D01*
X791095Y513806D01*
X791089Y513823D01*
X790999Y513983D01*
X790911Y514145D01*
X790900Y514158D01*
X790891Y514174D01*
X790771Y514313D01*
X790654Y514454D01*
X790640Y514465D01*
X790628Y514479D01*
X790483Y514591D01*
X790340Y514706D01*
X790324Y514714D01*
X790310Y514725D01*
X790145Y514807D01*
X789983Y514892D01*
X789966Y514897D01*
X789950Y514905D01*
X789771Y514952D01*
X789596Y515003D01*
X789578Y515005D01*
X789561Y515009D01*
X789230Y515036D01*
X787203Y515036D01*
X787177Y515034D01*
X787150Y515036D01*
X786976Y515014D01*
X786803Y514996D01*
X786777Y514989D01*
X786751Y514985D01*
X786585Y514930D01*
X786418Y514878D01*
X786394Y514865D01*
X786369Y514857D01*
X786217Y514770D01*
X786064Y514686D01*
X786043Y514669D01*
X786020Y514656D01*
X785767Y514441D01*
X783614Y512289D01*
X783614Y512288D01*
X783456Y512131D01*
X783436Y512106D01*
X783413Y512086D01*
X783309Y511951D01*
X783201Y511819D01*
X783187Y511792D01*
X783167Y511767D01*
X783016Y511472D01*
X782623Y510523D01*
X780916Y508816D01*
X778685Y507892D01*
X776271Y507892D01*
X774040Y508816D01*
X772333Y510523D01*
X771816Y511772D01*
X771809Y511784D01*
X771805Y511797D01*
X771715Y511961D01*
X771626Y512127D01*
X771617Y512138D01*
X771611Y512149D01*
X771489Y512292D01*
X771369Y512438D01*
X771359Y512446D01*
X771350Y512456D01*
X771203Y512573D01*
X771057Y512691D01*
X771045Y512698D01*
X771034Y512706D01*
X770866Y512791D01*
X770700Y512878D01*
X770687Y512882D01*
X770675Y512888D01*
X770493Y512939D01*
X770314Y512992D01*
X770300Y512993D01*
X770287Y512996D01*
X770099Y513010D01*
X769912Y513026D01*
X769899Y513025D01*
X769886Y513026D01*
X769697Y513002D01*
X769512Y512981D01*
X769500Y512977D01*
X769486Y512975D01*
X769307Y512915D01*
X769129Y512858D01*
X769117Y512851D01*
X769105Y512847D01*
X768941Y512753D01*
X768778Y512661D01*
X768768Y512653D01*
X768756Y512646D01*
X768503Y512431D01*
X764087Y508015D01*
X727446Y508015D01*
X727419Y508012D01*
X727392Y508014D01*
X727218Y507993D01*
X727045Y507975D01*
X727020Y507967D01*
X726993Y507964D01*
X726827Y507908D01*
X726660Y507857D01*
X726637Y507844D01*
X726611Y507836D01*
X726460Y507748D01*
X726306Y507665D01*
X726286Y507648D01*
X726262Y507635D01*
X726009Y507420D01*
X721559Y502970D01*
X721542Y502949D01*
X721522Y502931D01*
X721415Y502793D01*
X721304Y502658D01*
X721291Y502634D01*
X721275Y502613D01*
X721197Y502456D01*
X721115Y502302D01*
X721108Y502277D01*
X721096Y502253D01*
X721050Y502083D01*
X721000Y501916D01*
X720998Y501890D01*
X720991Y501864D01*
X720964Y501533D01*
X720964Y497939D01*
X720966Y497917D01*
X720964Y497895D01*
X720986Y497717D01*
X721004Y497539D01*
X721010Y497517D01*
X721013Y497495D01*
X721069Y497326D01*
X721122Y497154D01*
X721133Y497134D01*
X721140Y497113D01*
X721228Y496958D01*
X721314Y496800D01*
X721328Y496783D01*
X721339Y496763D01*
X721457Y496628D01*
X721571Y496491D01*
X721589Y496477D01*
X721603Y496460D01*
X721746Y496350D01*
X721885Y496238D01*
X721905Y496228D01*
X721923Y496214D01*
X722170Y496087D01*
X723885Y494372D01*
X724809Y492142D01*
X724809Y489727D01*
X723885Y487497D01*
X722178Y485790D01*
X721161Y485368D01*
X721021Y485293D01*
X720878Y485224D01*
X720844Y485198D01*
X720807Y485178D01*
X720684Y485077D01*
X720557Y484981D01*
X720529Y484949D01*
X720496Y484922D01*
X720396Y484798D01*
X720290Y484679D01*
X720269Y484642D01*
X720242Y484609D01*
X720169Y484468D01*
X720089Y484330D01*
X720073Y484285D01*
X720055Y484253D01*
X720031Y484169D01*
X719977Y484018D01*
X719871Y483623D01*
X719858Y483547D01*
X719837Y483474D01*
X719826Y483349D01*
X719806Y483225D01*
X719808Y483149D01*
X719802Y483073D01*
X719815Y482948D01*
X719820Y482823D01*
X719838Y482749D01*
X719846Y482673D01*
X719893Y482516D01*
X719913Y482431D01*
X719928Y482399D01*
X719942Y482355D01*
X720258Y481548D01*
X720293Y481480D01*
X720319Y481408D01*
X720384Y481301D01*
X720441Y481189D01*
X720489Y481129D01*
X720529Y481064D01*
X720614Y480972D01*
X720683Y480885D01*
X720879Y480026D01*
X720901Y479962D01*
X720969Y479736D01*
X721293Y478910D01*
X721280Y478859D01*
X721275Y478734D01*
X721261Y478609D01*
X721268Y478533D01*
X721265Y478456D01*
X721288Y478295D01*
X721295Y478208D01*
X721305Y478174D01*
X721312Y478128D01*
X721504Y477283D01*
X721529Y477210D01*
X721544Y477135D01*
X721593Y477020D01*
X721632Y476901D01*
X721670Y476835D01*
X721700Y476764D01*
X721771Y476660D01*
X721826Y476564D01*
X721892Y475685D01*
X721903Y475619D01*
X721937Y475385D01*
X722134Y474520D01*
X722114Y474471D01*
X722091Y474349D01*
X722058Y474228D01*
X722053Y474151D01*
X722039Y474076D01*
X722038Y473913D01*
X722032Y473826D01*
X722037Y473790D01*
X722037Y473744D01*
X722101Y472880D01*
X722114Y472804D01*
X722118Y472728D01*
X722149Y472607D01*
X722171Y472483D01*
X722199Y472412D01*
X722217Y472338D01*
X722271Y472225D01*
X722312Y472121D01*
X722246Y471242D01*
X722248Y471174D01*
X722246Y470939D01*
X722312Y470054D01*
X722285Y470009D01*
X722244Y469891D01*
X722193Y469776D01*
X722177Y469701D01*
X722152Y469629D01*
X722126Y469467D01*
X722108Y469383D01*
X722107Y469347D01*
X722100Y469301D01*
X722035Y468437D01*
X722037Y468360D01*
X722029Y468284D01*
X722041Y468160D01*
X722045Y468034D01*
X722061Y467960D01*
X722069Y467884D01*
X722106Y467764D01*
X722130Y467655D01*
X721934Y466796D01*
X721926Y466729D01*
X721889Y466496D01*
X721822Y465611D01*
X721789Y465571D01*
X721730Y465460D01*
X721664Y465354D01*
X721636Y465282D01*
X721600Y465215D01*
X721551Y465059D01*
X721520Y464978D01*
X721514Y464942D01*
X721500Y464899D01*
X721307Y464053D01*
X721298Y463978D01*
X721279Y463903D01*
X721272Y463778D01*
X721257Y463654D01*
X721262Y463578D01*
X721259Y463501D01*
X721277Y463377D01*
X721285Y463266D01*
X720963Y462446D01*
X720945Y462381D01*
X720873Y462156D01*
X720676Y461291D01*
X720637Y461256D01*
X720562Y461155D01*
X720481Y461060D01*
X720443Y460994D01*
X720397Y460932D01*
X720326Y460786D01*
X720283Y460710D01*
X720272Y460676D01*
X720251Y460634D01*
X719934Y459828D01*
X719914Y459754D01*
X719884Y459683D01*
X719859Y459561D01*
X719825Y459440D01*
X719819Y459364D01*
X719804Y459289D01*
X719804Y459163D01*
X719795Y459052D01*
X719355Y458289D01*
X719327Y458228D01*
X719223Y458016D01*
X718898Y457190D01*
X718855Y457161D01*
X718766Y457073D01*
X718671Y456991D01*
X718624Y456931D01*
X718570Y456877D01*
X718477Y456743D01*
X718423Y456674D01*
X718407Y456642D01*
X718381Y456604D01*
X717947Y455853D01*
X717916Y455784D01*
X717876Y455718D01*
X717833Y455601D01*
X717781Y455487D01*
X717764Y455412D01*
X717738Y455340D01*
X717719Y455216D01*
X717694Y455107D01*
X717144Y454419D01*
X717108Y454362D01*
X716973Y454168D01*
X716529Y453400D01*
X716482Y453378D01*
X716381Y453303D01*
X716275Y453237D01*
X716219Y453184D01*
X716158Y453139D01*
X716046Y453020D01*
X715982Y452960D01*
X715962Y452931D01*
X715930Y452897D01*
X715390Y452220D01*
X715348Y452156D01*
X715299Y452097D01*
X715239Y451987D01*
X715171Y451882D01*
X715143Y451811D01*
X715106Y451743D01*
X715069Y451624D01*
X715028Y451520D01*
X714382Y450921D01*
X714338Y450871D01*
X714175Y450698D01*
X713622Y450005D01*
X713572Y449990D01*
X713461Y449932D01*
X713346Y449882D01*
X713284Y449838D01*
X713216Y449802D01*
X713087Y449702D01*
X713016Y449652D01*
X712991Y449626D01*
X712955Y449597D01*
X712319Y449008D01*
X712268Y448951D01*
X712211Y448900D01*
X712136Y448800D01*
X712052Y448706D01*
X712014Y448640D01*
X711968Y448579D01*
X711914Y448467D01*
X711857Y448370D01*
X711129Y447874D01*
X711078Y447831D01*
X710892Y447685D01*
X710241Y447081D01*
X710192Y447075D01*
X710072Y447033D01*
X709950Y447001D01*
X709883Y446967D01*
X709811Y446943D01*
X709676Y446866D01*
X709610Y446835D01*
X709602Y446829D01*
X709589Y446822D01*
X709562Y446801D01*
X709523Y446779D01*
X709515Y446774D01*
X709404Y446681D01*
X709287Y446594D01*
X709274Y446579D01*
X709270Y446576D01*
X709248Y446551D01*
X709206Y446515D01*
X709115Y446403D01*
X709018Y446295D01*
X708989Y446246D01*
X708954Y446201D01*
X708887Y446073D01*
X708813Y445948D01*
X708795Y445894D01*
X708769Y445844D01*
X708729Y445705D01*
X708681Y445568D01*
X708673Y445511D01*
X708658Y445457D01*
X708646Y445312D01*
X708626Y445169D01*
X708630Y445112D01*
X708625Y445055D01*
X708642Y444911D01*
X708651Y444767D01*
X708666Y444712D01*
X708673Y444656D01*
X708718Y444518D01*
X708755Y444378D01*
X708783Y444319D01*
X708798Y444273D01*
X708839Y444201D01*
X708897Y444078D01*
X726639Y413348D01*
X726012Y413051D01*
X725989Y413034D01*
X725962Y413024D01*
X725910Y412975D01*
X725852Y412932D01*
X725838Y412907D01*
X725817Y412888D01*
X725788Y412822D01*
X725752Y412760D01*
X725749Y412732D01*
X725737Y412706D01*
X725736Y412634D01*
X725727Y412563D01*
X725735Y412536D01*
X725735Y412507D01*
X725770Y412412D01*
X725781Y412372D01*
X725788Y412363D01*
X725792Y412351D01*
X735292Y395851D01*
X735344Y395793D01*
X735390Y395730D01*
X735409Y395719D01*
X735424Y395702D01*
X735494Y395668D01*
X735561Y395628D01*
X735586Y395624D01*
X735603Y395616D01*
X735648Y395614D01*
X735725Y395601D01*
X754725Y395601D01*
X754753Y395606D01*
G37*
G36*
X828120Y586996D02*
X828120Y586996D01*
X828129Y586995D01*
X828321Y587016D01*
X828512Y587035D01*
X828520Y587037D01*
X828529Y587038D01*
X828712Y587096D01*
X828897Y587153D01*
X828905Y587157D01*
X828913Y587160D01*
X829082Y587253D01*
X829251Y587345D01*
X829258Y587350D01*
X829265Y587355D01*
X829412Y587479D01*
X829560Y587602D01*
X829566Y587609D01*
X829572Y587615D01*
X829691Y587765D01*
X829812Y587916D01*
X829817Y587924D01*
X829822Y587931D01*
X829909Y588103D01*
X829998Y588273D01*
X830000Y588282D01*
X830004Y588290D01*
X830056Y588476D01*
X830109Y588660D01*
X830110Y588669D01*
X830112Y588678D01*
X830127Y588871D01*
X830142Y589062D01*
X830141Y589070D01*
X830142Y589079D01*
X830117Y589272D01*
X830095Y589461D01*
X830093Y589470D01*
X830091Y589479D01*
X830031Y589660D01*
X829970Y589844D01*
X829966Y589852D01*
X829963Y589860D01*
X829868Y590026D01*
X829773Y590195D01*
X829767Y590202D01*
X829762Y590209D01*
X829548Y590462D01*
X827635Y592375D01*
X827635Y604269D01*
X828752Y605386D01*
X828763Y605399D01*
X828777Y605411D01*
X828890Y605555D01*
X829007Y605697D01*
X829015Y605713D01*
X829026Y605727D01*
X829109Y605891D01*
X829195Y606053D01*
X829200Y606070D01*
X829209Y606086D01*
X829258Y606263D01*
X829310Y606439D01*
X829312Y606456D01*
X829317Y606474D01*
X829330Y606657D01*
X829347Y606840D01*
X829345Y606857D01*
X829346Y606875D01*
X829323Y607057D01*
X829303Y607240D01*
X829298Y607257D01*
X829295Y607275D01*
X829237Y607448D01*
X829182Y607624D01*
X829173Y607639D01*
X829167Y607656D01*
X829076Y607815D01*
X828987Y607976D01*
X828975Y607990D01*
X828966Y608005D01*
X828752Y608258D01*
X827635Y609375D01*
X827635Y621269D01*
X828975Y622609D01*
X829580Y622609D01*
X829598Y622610D01*
X829615Y622609D01*
X829798Y622630D01*
X829981Y622649D01*
X829998Y622654D01*
X830015Y622656D01*
X830190Y622713D01*
X830365Y622767D01*
X830381Y622775D01*
X830398Y622781D01*
X830558Y622871D01*
X830719Y622958D01*
X830733Y622970D01*
X830749Y622979D01*
X830888Y623099D01*
X831029Y623216D01*
X831040Y623230D01*
X831053Y623242D01*
X831166Y623387D01*
X831281Y623530D01*
X831289Y623546D01*
X831300Y623560D01*
X831382Y623725D01*
X831467Y623887D01*
X831471Y623904D01*
X831479Y623920D01*
X831527Y624098D01*
X831578Y624274D01*
X831579Y624292D01*
X831584Y624309D01*
X831611Y624640D01*
X831611Y625021D01*
X831608Y625048D01*
X831610Y625075D01*
X831589Y625248D01*
X831571Y625422D01*
X831563Y625447D01*
X831560Y625474D01*
X831504Y625640D01*
X831453Y625807D01*
X831440Y625830D01*
X831432Y625856D01*
X831344Y626007D01*
X831261Y626161D01*
X831244Y626181D01*
X831231Y626205D01*
X831016Y626458D01*
X830277Y627197D01*
X829353Y629427D01*
X829353Y631842D01*
X830277Y634072D01*
X831984Y635779D01*
X834215Y636703D01*
X836629Y636703D01*
X838724Y635835D01*
X838737Y635831D01*
X838749Y635825D01*
X838929Y635773D01*
X839110Y635719D01*
X839123Y635717D01*
X839136Y635714D01*
X839324Y635698D01*
X839511Y635681D01*
X839524Y635682D01*
X839537Y635681D01*
X839724Y635703D01*
X839911Y635722D01*
X839924Y635726D01*
X839937Y635728D01*
X840116Y635786D01*
X840295Y635842D01*
X840307Y635848D01*
X840320Y635853D01*
X840484Y635945D01*
X840649Y636035D01*
X840659Y636044D01*
X840671Y636050D01*
X840813Y636173D01*
X840957Y636294D01*
X840965Y636305D01*
X840975Y636314D01*
X841090Y636461D01*
X841208Y636609D01*
X841214Y636621D01*
X841222Y636632D01*
X841306Y636800D01*
X841392Y636967D01*
X841395Y636980D01*
X841401Y636992D01*
X841450Y637174D01*
X841501Y637355D01*
X841502Y637368D01*
X841506Y637381D01*
X841533Y637712D01*
X841533Y657980D01*
X841530Y658007D01*
X841532Y658033D01*
X841510Y658207D01*
X841493Y658381D01*
X841485Y658406D01*
X841482Y658433D01*
X841426Y658599D01*
X841375Y658766D01*
X841362Y658789D01*
X841354Y658815D01*
X841266Y658966D01*
X841183Y659120D01*
X841166Y659140D01*
X841153Y659163D01*
X840938Y659416D01*
X840661Y659694D01*
X840640Y659711D01*
X840623Y659731D01*
X840485Y659838D01*
X840349Y659949D01*
X840326Y659961D01*
X840305Y659978D01*
X840148Y660056D01*
X839994Y660137D01*
X839968Y660145D01*
X839944Y660157D01*
X839775Y660203D01*
X839608Y660252D01*
X839581Y660255D01*
X839555Y660262D01*
X839225Y660289D01*
X838722Y660289D01*
X836491Y661213D01*
X834784Y662920D01*
X833860Y665150D01*
X833860Y665813D01*
X833848Y665933D01*
X833846Y666053D01*
X833828Y666133D01*
X833820Y666214D01*
X833785Y666329D01*
X833759Y666446D01*
X833726Y666521D01*
X833702Y666599D01*
X833645Y666704D01*
X833596Y666814D01*
X833549Y666881D01*
X833510Y666953D01*
X833434Y667045D01*
X833364Y667143D01*
X833305Y667199D01*
X833253Y667262D01*
X833159Y667337D01*
X833072Y667420D01*
X833003Y667463D01*
X832939Y667514D01*
X832832Y667570D01*
X832731Y667633D01*
X832654Y667662D01*
X832582Y667700D01*
X832466Y667733D01*
X832354Y667775D01*
X832273Y667789D01*
X832195Y667811D01*
X832075Y667821D01*
X831957Y667841D01*
X831875Y667838D01*
X831793Y667844D01*
X831674Y667830D01*
X831554Y667826D01*
X831460Y667805D01*
X831393Y667797D01*
X831328Y667776D01*
X831230Y667754D01*
X830669Y667581D01*
X830599Y667552D01*
X830525Y667531D01*
X830414Y667474D01*
X830298Y667425D01*
X830235Y667382D01*
X830167Y667347D01*
X830069Y667269D01*
X829977Y667206D01*
X829106Y667075D01*
X829041Y667059D01*
X828810Y667008D01*
X827962Y666746D01*
X827912Y666762D01*
X827787Y666776D01*
X827664Y666800D01*
X827588Y666799D01*
X827512Y666808D01*
X827349Y666796D01*
X827262Y666796D01*
X827227Y666788D01*
X827181Y666785D01*
X826326Y666656D01*
X826252Y666637D01*
X826176Y666628D01*
X826057Y666588D01*
X825936Y666557D01*
X825867Y666524D01*
X825794Y666500D01*
X825685Y666437D01*
X825585Y666389D01*
X824704Y666389D01*
X824637Y666382D01*
X824401Y666366D01*
X823524Y666234D01*
X823477Y666257D01*
X823356Y666290D01*
X823238Y666331D01*
X823162Y666342D01*
X823088Y666362D01*
X822925Y666375D01*
X822839Y666387D01*
X822803Y666385D01*
X822757Y666389D01*
X821893Y666389D01*
X821817Y666381D01*
X821740Y666383D01*
X821617Y666361D01*
X821492Y666349D01*
X821419Y666326D01*
X821344Y666313D01*
X821227Y666268D01*
X821120Y666235D01*
X820249Y666366D01*
X820182Y666369D01*
X819946Y666389D01*
X819059Y666389D01*
X819016Y666419D01*
X818901Y666469D01*
X818791Y666528D01*
X818717Y666549D01*
X818647Y666580D01*
X818488Y666618D01*
X818405Y666642D01*
X818369Y666646D01*
X818324Y666656D01*
X817469Y666785D01*
X817393Y666789D01*
X817317Y666802D01*
X817192Y666799D01*
X817067Y666805D01*
X816992Y666794D01*
X816915Y666792D01*
X816793Y666764D01*
X816683Y666748D01*
X815840Y667008D01*
X815774Y667021D01*
X815544Y667075D01*
X814667Y667207D01*
X814629Y667243D01*
X814523Y667310D01*
X814423Y667385D01*
X814353Y667417D01*
X814289Y667458D01*
X814137Y667519D01*
X814058Y667556D01*
X814023Y667564D01*
X813981Y667581D01*
X813154Y667836D01*
X813079Y667851D01*
X813007Y667876D01*
X812882Y667891D01*
X812760Y667916D01*
X812683Y667916D01*
X812607Y667926D01*
X812482Y667917D01*
X812371Y667917D01*
X811577Y668299D01*
X811514Y668322D01*
X811294Y668410D01*
X810446Y668671D01*
X810414Y668713D01*
X810320Y668794D01*
X810231Y668883D01*
X810167Y668926D01*
X810109Y668976D01*
X809969Y669058D01*
X809896Y669107D01*
X809863Y669120D01*
X809823Y669144D01*
X809044Y669519D01*
X808973Y669545D01*
X808904Y669580D01*
X808784Y669614D01*
X808666Y669657D01*
X808590Y669668D01*
X808517Y669689D01*
X808392Y669698D01*
X808282Y669715D01*
X807553Y670211D01*
X807494Y670244D01*
X807290Y670363D01*
X806491Y670748D01*
X806466Y670794D01*
X806384Y670889D01*
X806310Y670990D01*
X806253Y671041D01*
X806203Y671099D01*
X806077Y671202D01*
X806012Y671260D01*
X805981Y671279D01*
X805945Y671308D01*
X805231Y671795D01*
X805164Y671832D01*
X805102Y671876D01*
X804987Y671928D01*
X804877Y671988D01*
X804804Y672010D01*
X804735Y672042D01*
X804612Y672070D01*
X804506Y672103D01*
X803860Y672702D01*
X803806Y672743D01*
X803623Y672891D01*
X802889Y673391D01*
X802871Y673440D01*
X802804Y673546D01*
X802746Y673657D01*
X802698Y673716D01*
X802657Y673781D01*
X802547Y673901D01*
X802492Y673969D01*
X802464Y673992D01*
X802433Y674026D01*
X801799Y674614D01*
X801738Y674660D01*
X801684Y674714D01*
X801578Y674782D01*
X801478Y674857D01*
X801410Y674891D01*
X801345Y674932D01*
X801229Y674978D01*
X801128Y675027D01*
X800579Y675716D01*
X800532Y675764D01*
X800372Y675938D01*
X799722Y676542D01*
X799711Y676593D01*
X799661Y676708D01*
X799620Y676826D01*
X799581Y676892D01*
X799550Y676962D01*
X799460Y677097D01*
X799415Y677172D01*
X799391Y677199D01*
X799365Y677237D01*
X798826Y677913D01*
X798773Y677968D01*
X798727Y678029D01*
X798633Y678112D01*
X798545Y678202D01*
X798482Y678245D01*
X798425Y678295D01*
X798316Y678358D01*
X798224Y678421D01*
X797784Y679184D01*
X797744Y679239D01*
X797613Y679435D01*
X797059Y680129D01*
X797056Y680181D01*
X797024Y680302D01*
X797001Y680425D01*
X796972Y680496D01*
X796952Y680570D01*
X796882Y680718D01*
X796850Y680798D01*
X796830Y680828D01*
X796810Y680870D01*
X796378Y681619D01*
X796333Y681681D01*
X796297Y681748D01*
X796216Y681844D01*
X796143Y681946D01*
X796087Y681998D01*
X796038Y682056D01*
X795940Y682135D01*
X795859Y682211D01*
X795537Y683031D01*
X795506Y683091D01*
X795405Y683304D01*
X794961Y684073D01*
X794966Y684125D01*
X794952Y684249D01*
X794947Y684375D01*
X794930Y684449D01*
X794921Y684525D01*
X794874Y684681D01*
X794854Y684766D01*
X794839Y684799D01*
X794826Y684843D01*
X794510Y685648D01*
X794475Y685716D01*
X794449Y685788D01*
X794383Y685894D01*
X794326Y686006D01*
X794278Y686066D01*
X794239Y686131D01*
X794154Y686223D01*
X794084Y686310D01*
X793888Y687170D01*
X793867Y687234D01*
X793799Y687460D01*
X793474Y688286D01*
X793487Y688336D01*
X793491Y688462D01*
X793506Y688586D01*
X793499Y688662D01*
X793502Y688739D01*
X793479Y688900D01*
X793471Y688987D01*
X793461Y689022D01*
X793455Y689067D01*
X793262Y689910D01*
X793238Y689983D01*
X793223Y690058D01*
X793174Y690173D01*
X793134Y690292D01*
X793096Y690358D01*
X793067Y690429D01*
X792996Y690532D01*
X792940Y690629D01*
X792875Y691508D01*
X792863Y691573D01*
X792829Y691808D01*
X792632Y692673D01*
X792651Y692720D01*
X792675Y692844D01*
X792708Y692965D01*
X792712Y693041D01*
X792727Y693115D01*
X792728Y693280D01*
X792730Y693305D01*
X792733Y693350D01*
X792733Y693354D01*
X792734Y693367D01*
X792729Y693402D01*
X792729Y693447D01*
X792728Y693464D01*
X792703Y693606D01*
X792686Y693749D01*
X792668Y693804D01*
X792658Y693861D01*
X792606Y693995D01*
X792561Y694132D01*
X792533Y694182D01*
X792512Y694236D01*
X792434Y694357D01*
X792364Y694483D01*
X792326Y694527D01*
X792295Y694575D01*
X792195Y694678D01*
X792100Y694788D01*
X792055Y694823D01*
X792015Y694864D01*
X791896Y694946D01*
X791782Y695034D01*
X791731Y695060D01*
X791683Y695093D01*
X791551Y695150D01*
X791422Y695214D01*
X791366Y695229D01*
X791313Y695251D01*
X791172Y695281D01*
X791033Y695318D01*
X790967Y695324D01*
X790919Y695334D01*
X790836Y695334D01*
X790702Y695345D01*
X755166Y695345D01*
X755223Y696060D01*
X755219Y696089D01*
X755224Y696117D01*
X755207Y696186D01*
X755199Y696258D01*
X755185Y696282D01*
X755178Y696310D01*
X755135Y696368D01*
X755100Y696430D01*
X755077Y696447D01*
X755060Y696470D01*
X754998Y696507D01*
X754941Y696550D01*
X754913Y696557D01*
X754889Y696572D01*
X754789Y696588D01*
X754748Y696599D01*
X754738Y696597D01*
X754725Y696599D01*
X735725Y696599D01*
X735649Y696584D01*
X735571Y696575D01*
X735552Y696564D01*
X735530Y696560D01*
X735466Y696516D01*
X735398Y696477D01*
X735382Y696458D01*
X735366Y696447D01*
X735342Y696409D01*
X735292Y696349D01*
X725792Y679849D01*
X725783Y679822D01*
X725767Y679798D01*
X725752Y679728D01*
X725729Y679660D01*
X725732Y679632D01*
X725726Y679604D01*
X725740Y679534D01*
X725745Y679462D01*
X725758Y679437D01*
X725764Y679409D01*
X725804Y679349D01*
X725837Y679286D01*
X725859Y679268D01*
X725875Y679244D01*
X725958Y679186D01*
X725990Y679159D01*
X726001Y679156D01*
X726012Y679149D01*
X726639Y678852D01*
X712946Y655135D01*
X712889Y655010D01*
X712825Y654888D01*
X712807Y654826D01*
X712780Y654768D01*
X712749Y654634D01*
X712710Y654502D01*
X712704Y654438D01*
X712690Y654375D01*
X712686Y654238D01*
X712674Y654101D01*
X712681Y654037D01*
X712679Y653973D01*
X712702Y653838D01*
X712717Y653701D01*
X712737Y653640D01*
X712748Y653576D01*
X712797Y653448D01*
X712839Y653317D01*
X712870Y653261D01*
X712893Y653201D01*
X712967Y653085D01*
X713034Y652965D01*
X713075Y652916D01*
X713110Y652862D01*
X713206Y652762D01*
X713294Y652658D01*
X713344Y652618D01*
X713389Y652572D01*
X713502Y652493D01*
X713610Y652408D01*
X713667Y652379D01*
X713720Y652343D01*
X713847Y652288D01*
X713969Y652226D01*
X714031Y652209D01*
X714090Y652183D01*
X714225Y652155D01*
X714357Y652118D01*
X714421Y652113D01*
X714484Y652100D01*
X714621Y652099D01*
X714758Y652089D01*
X714822Y652097D01*
X714887Y652096D01*
X715022Y652122D01*
X715158Y652139D01*
X715219Y652160D01*
X715282Y652172D01*
X715409Y652223D01*
X715539Y652267D01*
X715595Y652299D01*
X715655Y652324D01*
X715769Y652400D01*
X715888Y652468D01*
X715945Y652516D01*
X715990Y652546D01*
X716047Y652603D01*
X716141Y652683D01*
X716474Y653016D01*
X718705Y653940D01*
X721119Y653940D01*
X723350Y653016D01*
X723692Y652674D01*
X723713Y652657D01*
X723730Y652636D01*
X723868Y652529D01*
X724003Y652419D01*
X724027Y652406D01*
X724048Y652390D01*
X724205Y652312D01*
X724359Y652230D01*
X724385Y652222D01*
X724409Y652210D01*
X724578Y652165D01*
X724745Y652115D01*
X724772Y652113D01*
X724798Y652106D01*
X725128Y652079D01*
X782365Y652079D01*
X819949Y614494D01*
X819949Y611337D01*
X818975Y610363D01*
X818958Y610342D01*
X818937Y610325D01*
X818830Y610187D01*
X818720Y610051D01*
X818707Y610028D01*
X818691Y610006D01*
X818613Y609850D01*
X818531Y609696D01*
X818523Y609670D01*
X818511Y609646D01*
X818466Y609477D01*
X818416Y609310D01*
X818414Y609283D01*
X818407Y609257D01*
X818380Y608926D01*
X818380Y589026D01*
X818382Y589008D01*
X818380Y588990D01*
X818401Y588808D01*
X818420Y588625D01*
X818425Y588608D01*
X818427Y588591D01*
X818484Y588416D01*
X818538Y588240D01*
X818546Y588225D01*
X818552Y588208D01*
X818642Y588048D01*
X818730Y587886D01*
X818741Y587873D01*
X818750Y587857D01*
X818870Y587718D01*
X818987Y587577D01*
X819001Y587566D01*
X819013Y587552D01*
X819158Y587440D01*
X819301Y587325D01*
X819317Y587317D01*
X819331Y587306D01*
X819496Y587224D01*
X819658Y587139D01*
X819675Y587134D01*
X819691Y587126D01*
X819870Y587079D01*
X820045Y587028D01*
X820063Y587026D01*
X820080Y587022D01*
X820411Y586995D01*
X828111Y586995D01*
X828120Y586996D01*
G37*
G36*
X965670Y497870D02*
X965670Y497870D01*
X965812Y497869D01*
X965871Y497880D01*
X965930Y497883D01*
X966068Y497918D01*
X966208Y497945D01*
X966263Y497967D01*
X966320Y497981D01*
X966449Y498043D01*
X966581Y498097D01*
X966630Y498129D01*
X966683Y498155D01*
X966797Y498241D01*
X966916Y498319D01*
X966958Y498361D01*
X967005Y498397D01*
X967100Y498503D01*
X967201Y498604D01*
X967240Y498659D01*
X967273Y498697D01*
X967315Y498768D01*
X967390Y498877D01*
X985133Y529609D01*
X985741Y529189D01*
X985768Y529178D01*
X985790Y529159D01*
X985859Y529139D01*
X985924Y529111D01*
X985953Y529111D01*
X985981Y529103D01*
X986052Y529111D01*
X986123Y529111D01*
X986150Y529122D01*
X986179Y529125D01*
X986241Y529160D01*
X986306Y529188D01*
X986327Y529208D01*
X986352Y529223D01*
X986415Y529300D01*
X986445Y529330D01*
X986449Y529340D01*
X986458Y529351D01*
X995958Y545851D01*
X995968Y545883D01*
X995977Y545896D01*
X995981Y545920D01*
X995982Y545924D01*
X996013Y545994D01*
X996013Y546018D01*
X996021Y546040D01*
X996015Y546116D01*
X996016Y546193D01*
X996006Y546217D01*
X996005Y546238D01*
X995984Y546277D01*
X995958Y546349D01*
X986458Y562849D01*
X986439Y562871D01*
X986426Y562897D01*
X986373Y562945D01*
X986326Y562998D01*
X986300Y563011D01*
X986279Y563030D01*
X986211Y563053D01*
X986147Y563084D01*
X986118Y563086D01*
X986091Y563095D01*
X986019Y563090D01*
X985948Y563093D01*
X985921Y563083D01*
X985892Y563081D01*
X985802Y563039D01*
X985762Y563024D01*
X985754Y563017D01*
X985741Y563011D01*
X985133Y562591D01*
X967390Y593323D01*
X967307Y593439D01*
X967230Y593560D01*
X967189Y593602D01*
X967155Y593651D01*
X967051Y593748D01*
X966952Y593851D01*
X966904Y593884D01*
X966860Y593925D01*
X966739Y593999D01*
X966622Y594081D01*
X966568Y594104D01*
X966517Y594136D01*
X966383Y594185D01*
X966253Y594242D01*
X966195Y594254D01*
X966139Y594274D01*
X965999Y594296D01*
X965859Y594326D01*
X965800Y594327D01*
X965741Y594336D01*
X965599Y594330D01*
X965457Y594332D01*
X965398Y594321D01*
X965339Y594318D01*
X965201Y594284D01*
X965061Y594258D01*
X964998Y594233D01*
X964948Y594221D01*
X964874Y594186D01*
X964751Y594139D01*
X964725Y594126D01*
X964659Y594086D01*
X964588Y594054D01*
X964487Y593981D01*
X964381Y593917D01*
X964324Y593864D01*
X964261Y593819D01*
X964177Y593728D01*
X964094Y593652D01*
X963252Y593392D01*
X963190Y593366D01*
X962970Y593282D01*
X962018Y592824D01*
X961885Y592742D01*
X961748Y592667D01*
X961713Y592638D01*
X961675Y592614D01*
X961560Y592508D01*
X961440Y592407D01*
X961412Y592372D01*
X961379Y592341D01*
X961287Y592214D01*
X961190Y592092D01*
X961170Y592051D01*
X961143Y592015D01*
X961078Y591872D01*
X961007Y591733D01*
X960995Y591689D01*
X960976Y591648D01*
X960941Y591496D01*
X960899Y591345D01*
X960895Y591300D01*
X960885Y591256D01*
X960880Y591099D01*
X960869Y590944D01*
X960874Y590899D01*
X960873Y590854D01*
X960899Y590699D01*
X960918Y590544D01*
X960934Y590496D01*
X960940Y590457D01*
X960971Y590376D01*
X961018Y590228D01*
X961092Y590046D01*
X961105Y590021D01*
X961114Y589994D01*
X961199Y589844D01*
X961280Y589690D01*
X961298Y589668D01*
X961312Y589643D01*
X961524Y589388D01*
X961821Y589086D01*
X961818Y588677D01*
X961821Y588644D01*
X961818Y588610D01*
X961839Y588443D01*
X961854Y588276D01*
X961864Y588244D01*
X961868Y588210D01*
X961968Y587894D01*
X962122Y587515D01*
X961957Y587125D01*
X961949Y587097D01*
X961936Y587072D01*
X961889Y586905D01*
X961838Y586740D01*
X961835Y586711D01*
X961828Y586684D01*
X961798Y586353D01*
X961236Y521250D01*
X961236Y521242D01*
X961236Y521232D01*
X961236Y519662D01*
X960113Y518558D01*
X960107Y518552D01*
X960100Y518545D01*
X945493Y503938D01*
X945417Y503845D01*
X945333Y503758D01*
X945289Y503690D01*
X945238Y503627D01*
X945182Y503520D01*
X945117Y503419D01*
X945087Y503343D01*
X945049Y503271D01*
X945015Y503156D01*
X944972Y503043D01*
X944958Y502963D01*
X944935Y502885D01*
X944924Y502765D01*
X944903Y502646D01*
X944905Y502565D01*
X944898Y502484D01*
X944911Y502364D01*
X944914Y502244D01*
X944933Y502165D01*
X944942Y502084D01*
X944978Y501969D01*
X945005Y501852D01*
X945038Y501778D01*
X945063Y501700D01*
X945121Y501595D01*
X945171Y501485D01*
X945219Y501419D01*
X945258Y501348D01*
X945336Y501256D01*
X945406Y501158D01*
X945466Y501103D01*
X945518Y501041D01*
X945613Y500966D01*
X945701Y500884D01*
X945782Y500833D01*
X945834Y500791D01*
X945881Y500767D01*
X945891Y500759D01*
X945915Y500747D01*
X945981Y500706D01*
X946105Y500640D01*
X946176Y500611D01*
X946242Y500574D01*
X946362Y500536D01*
X946478Y500488D01*
X946553Y500474D01*
X946625Y500451D01*
X946750Y500437D01*
X946873Y500413D01*
X946949Y500414D01*
X947026Y500405D01*
X947189Y500417D01*
X947276Y500417D01*
X947311Y500425D01*
X947357Y500428D01*
X948214Y500557D01*
X948288Y500576D01*
X948364Y500586D01*
X948482Y500626D01*
X948604Y500657D01*
X948673Y500690D01*
X948745Y500714D01*
X948854Y500777D01*
X948954Y500825D01*
X949836Y500825D01*
X949902Y500832D01*
X950138Y500848D01*
X951016Y500981D01*
X951062Y500958D01*
X951183Y500925D01*
X951302Y500884D01*
X951377Y500873D01*
X951451Y500853D01*
X951614Y500840D01*
X951700Y500828D01*
X951736Y500830D01*
X951782Y500826D01*
X952649Y500826D01*
X952725Y500834D01*
X952802Y500832D01*
X952925Y500854D01*
X953049Y500866D01*
X953123Y500889D01*
X953198Y500902D01*
X953315Y500948D01*
X953421Y500981D01*
X954293Y500850D01*
X954360Y500846D01*
X954595Y500827D01*
X955483Y500827D01*
X955525Y500797D01*
X955640Y500747D01*
X955751Y500688D01*
X955824Y500667D01*
X955894Y500636D01*
X956053Y500599D01*
X956137Y500574D01*
X956173Y500571D01*
X956217Y500560D01*
X957075Y500431D01*
X957151Y500427D01*
X957226Y500414D01*
X957352Y500417D01*
X957477Y500411D01*
X957552Y500422D01*
X957629Y500424D01*
X957751Y500452D01*
X957861Y500469D01*
X958703Y500209D01*
X958769Y500196D01*
X958999Y500142D01*
X959877Y500010D01*
X959915Y499974D01*
X960021Y499907D01*
X960121Y499833D01*
X960191Y499800D01*
X960256Y499759D01*
X960407Y499699D01*
X960486Y499662D01*
X960521Y499653D01*
X960564Y499636D01*
X961392Y499381D01*
X961467Y499366D01*
X961540Y499341D01*
X961664Y499326D01*
X961787Y499301D01*
X961863Y499301D01*
X961939Y499291D01*
X962064Y499301D01*
X962176Y499300D01*
X962970Y498918D01*
X963032Y498896D01*
X963252Y498808D01*
X964100Y498546D01*
X964133Y498504D01*
X964227Y498423D01*
X964316Y498335D01*
X964380Y498292D01*
X964438Y498242D01*
X964578Y498160D01*
X964651Y498111D01*
X964684Y498097D01*
X964725Y498074D01*
X964751Y498061D01*
X964885Y498013D01*
X965016Y497956D01*
X965074Y497944D01*
X965129Y497924D01*
X965270Y497902D01*
X965410Y497873D01*
X965469Y497872D01*
X965527Y497863D01*
X965670Y497870D01*
G37*
G36*
X954266Y593667D02*
X954266Y593667D01*
X954309Y593666D01*
X958302Y594267D01*
X958332Y594278D01*
X958375Y594283D01*
X962234Y595472D01*
X962262Y595487D01*
X962303Y595499D01*
X965941Y597250D01*
X965963Y597267D01*
X965989Y597276D01*
X966042Y597326D01*
X966100Y597370D01*
X966113Y597394D01*
X966133Y597413D01*
X966163Y597479D01*
X966199Y597543D01*
X966202Y597570D01*
X966213Y597595D01*
X966214Y597668D01*
X966223Y597740D01*
X966215Y597766D01*
X966215Y597794D01*
X966179Y597892D01*
X966167Y597931D01*
X966161Y597939D01*
X966157Y597950D01*
X939157Y644750D01*
X939139Y644770D01*
X939128Y644795D01*
X939074Y644844D01*
X939026Y644899D01*
X939001Y644910D01*
X938981Y644929D01*
X938912Y644953D01*
X938846Y644984D01*
X938819Y644986D01*
X938794Y644995D01*
X938721Y644990D01*
X938648Y644993D01*
X938622Y644984D01*
X938595Y644982D01*
X938499Y644938D01*
X938461Y644924D01*
X938454Y644917D01*
X938444Y644913D01*
X935107Y642639D01*
X935085Y642616D01*
X935049Y642593D01*
X932088Y639847D01*
X932069Y639821D01*
X932037Y639793D01*
X929519Y636637D01*
X929504Y636608D01*
X929477Y636575D01*
X927457Y633079D01*
X927447Y633049D01*
X927424Y633012D01*
X925948Y629254D01*
X925943Y629222D01*
X925926Y629182D01*
X925026Y625246D01*
X925026Y625214D01*
X925015Y625172D01*
X924712Y621146D01*
X924715Y621123D01*
X924712Y621103D01*
X924714Y621093D01*
X924712Y621072D01*
X925013Y617045D01*
X925021Y617014D01*
X925024Y616971D01*
X925921Y613035D01*
X925934Y613006D01*
X925943Y612963D01*
X927417Y609204D01*
X927434Y609177D01*
X927449Y609137D01*
X929467Y605640D01*
X929488Y605616D01*
X929509Y605578D01*
X932025Y602420D01*
X932050Y602400D01*
X932076Y602366D01*
X935035Y599618D01*
X935062Y599602D01*
X935093Y599572D01*
X938429Y597296D01*
X938458Y597284D01*
X938493Y597259D01*
X942131Y595506D01*
X942161Y595498D01*
X942200Y595479D01*
X946058Y594287D01*
X946090Y594284D01*
X946131Y594271D01*
X950123Y593668D01*
X950155Y593669D01*
X950197Y593662D01*
X954235Y593661D01*
X954266Y593667D01*
G37*
G36*
X694453Y593662D02*
X694453Y593662D01*
X694484Y593668D01*
X694527Y593668D01*
X698519Y594271D01*
X698549Y594282D01*
X698592Y594287D01*
X702450Y595479D01*
X702478Y595494D01*
X702520Y595506D01*
X706157Y597259D01*
X706182Y597278D01*
X706221Y597296D01*
X709557Y599572D01*
X709579Y599595D01*
X709615Y599618D01*
X712574Y602366D01*
X712593Y602391D01*
X712625Y602420D01*
X715141Y605578D01*
X715156Y605606D01*
X715183Y605640D01*
X717201Y609137D01*
X717211Y609167D01*
X717233Y609204D01*
X718707Y612963D01*
X718713Y612995D01*
X718729Y613035D01*
X719626Y616971D01*
X719627Y617003D01*
X719637Y617045D01*
X719938Y621072D01*
X719934Y621103D01*
X719935Y621119D01*
X719938Y621136D01*
X719937Y621140D01*
X719938Y621146D01*
X719635Y625172D01*
X719626Y625203D01*
X719624Y625246D01*
X718724Y629182D01*
X718711Y629211D01*
X718702Y629254D01*
X717226Y633012D01*
X717208Y633039D01*
X717193Y633079D01*
X715173Y636575D01*
X715152Y636599D01*
X715131Y636637D01*
X712613Y639793D01*
X712588Y639813D01*
X712562Y639847D01*
X709601Y642593D01*
X709574Y642609D01*
X709543Y642639D01*
X706206Y644913D01*
X706181Y644923D01*
X706160Y644940D01*
X706090Y644961D01*
X706023Y644990D01*
X705995Y644990D01*
X705969Y644997D01*
X705897Y644989D01*
X705824Y644989D01*
X705799Y644978D01*
X705772Y644975D01*
X705708Y644939D01*
X705641Y644911D01*
X705622Y644891D01*
X705599Y644878D01*
X705532Y644797D01*
X705503Y644767D01*
X705500Y644758D01*
X705493Y644750D01*
X678493Y597950D01*
X678484Y597924D01*
X678468Y597901D01*
X678453Y597830D01*
X678429Y597761D01*
X678432Y597734D01*
X678426Y597707D01*
X678439Y597636D01*
X678445Y597563D01*
X678458Y597538D01*
X678463Y597512D01*
X678503Y597451D01*
X678537Y597386D01*
X678558Y597369D01*
X678573Y597346D01*
X678659Y597285D01*
X678690Y597260D01*
X678699Y597257D01*
X678709Y597250D01*
X682347Y595499D01*
X682378Y595492D01*
X682416Y595472D01*
X686275Y594283D01*
X686307Y594280D01*
X686348Y594267D01*
X690341Y593666D01*
X690372Y593668D01*
X690415Y593661D01*
X694453Y593662D01*
G37*
G36*
X938753Y447211D02*
X938753Y447211D01*
X938826Y447211D01*
X938851Y447222D01*
X938878Y447225D01*
X938942Y447261D01*
X939009Y447289D01*
X939028Y447309D01*
X939051Y447322D01*
X939119Y447403D01*
X939147Y447433D01*
X939150Y447442D01*
X939157Y447451D01*
X966157Y494251D01*
X966166Y494276D01*
X966182Y494299D01*
X966197Y494370D01*
X966221Y494439D01*
X966218Y494466D01*
X966224Y494493D01*
X966211Y494564D01*
X966205Y494637D01*
X966192Y494662D01*
X966187Y494688D01*
X966147Y494749D01*
X966113Y494814D01*
X966092Y494831D01*
X966077Y494854D01*
X965991Y494915D01*
X965960Y494940D01*
X965951Y494943D01*
X965941Y494950D01*
X962303Y496701D01*
X962272Y496708D01*
X962234Y496728D01*
X958375Y497917D01*
X958343Y497920D01*
X958302Y497933D01*
X954309Y498534D01*
X954278Y498532D01*
X954235Y498539D01*
X950197Y498538D01*
X950166Y498532D01*
X950123Y498532D01*
X946131Y497929D01*
X946101Y497918D01*
X946058Y497913D01*
X942200Y496721D01*
X942172Y496706D01*
X942131Y496694D01*
X938493Y494941D01*
X938468Y494922D01*
X938429Y494904D01*
X935093Y492628D01*
X935071Y492605D01*
X935035Y492582D01*
X932076Y489834D01*
X932057Y489809D01*
X932025Y489780D01*
X929509Y486622D01*
X929494Y486594D01*
X929467Y486560D01*
X927449Y483063D01*
X927439Y483033D01*
X927417Y482996D01*
X925943Y479237D01*
X925937Y479205D01*
X925921Y479165D01*
X925024Y475229D01*
X925023Y475197D01*
X925013Y475155D01*
X924712Y471129D01*
X924716Y471097D01*
X924712Y471054D01*
X925015Y467028D01*
X925024Y466997D01*
X925026Y466954D01*
X925926Y463018D01*
X925939Y462989D01*
X925948Y462946D01*
X927424Y459188D01*
X927442Y459161D01*
X927457Y459121D01*
X929477Y455625D01*
X929498Y455601D01*
X929519Y455563D01*
X932037Y452407D01*
X932062Y452387D01*
X932088Y452353D01*
X935049Y449607D01*
X935076Y449591D01*
X935107Y449561D01*
X938444Y447287D01*
X938469Y447277D01*
X938490Y447260D01*
X938560Y447239D01*
X938627Y447210D01*
X938655Y447211D01*
X938681Y447203D01*
X938753Y447211D01*
G37*
G36*
X705929Y447210D02*
X705929Y447210D01*
X706002Y447207D01*
X706028Y447216D01*
X706055Y447218D01*
X706151Y447262D01*
X706189Y447276D01*
X706196Y447283D01*
X706206Y447287D01*
X709543Y449561D01*
X709565Y449584D01*
X709601Y449607D01*
X712562Y452353D01*
X712581Y452379D01*
X712613Y452407D01*
X715131Y455563D01*
X715146Y455592D01*
X715173Y455625D01*
X717193Y459121D01*
X717203Y459151D01*
X717226Y459188D01*
X718702Y462946D01*
X718707Y462978D01*
X718724Y463018D01*
X719624Y466954D01*
X719624Y466986D01*
X719635Y467028D01*
X719938Y471054D01*
X719934Y471085D01*
X719938Y471129D01*
X719637Y475155D01*
X719629Y475186D01*
X719626Y475229D01*
X718729Y479165D01*
X718716Y479194D01*
X718707Y479237D01*
X717233Y482996D01*
X717216Y483023D01*
X717201Y483063D01*
X715183Y486560D01*
X715162Y486584D01*
X715141Y486622D01*
X712625Y489780D01*
X712600Y489800D01*
X712574Y489834D01*
X709615Y492582D01*
X709588Y492598D01*
X709557Y492628D01*
X706221Y494904D01*
X706192Y494916D01*
X706157Y494941D01*
X702520Y496694D01*
X702489Y496702D01*
X702450Y496721D01*
X698592Y497913D01*
X698560Y497916D01*
X698519Y497929D01*
X694527Y498532D01*
X694495Y498531D01*
X694453Y498538D01*
X690415Y498539D01*
X690384Y498533D01*
X690341Y498534D01*
X686348Y497933D01*
X686318Y497922D01*
X686275Y497917D01*
X682416Y496728D01*
X682388Y496713D01*
X682347Y496701D01*
X678709Y494950D01*
X678687Y494933D01*
X678661Y494924D01*
X678608Y494874D01*
X678550Y494830D01*
X678537Y494806D01*
X678517Y494787D01*
X678487Y494721D01*
X678451Y494657D01*
X678448Y494630D01*
X678437Y494605D01*
X678436Y494532D01*
X678427Y494460D01*
X678435Y494434D01*
X678435Y494406D01*
X678471Y494308D01*
X678483Y494269D01*
X678489Y494261D01*
X678493Y494251D01*
X705493Y447451D01*
X705511Y447430D01*
X705522Y447405D01*
X705576Y447356D01*
X705624Y447302D01*
X705649Y447290D01*
X705669Y447271D01*
X705738Y447247D01*
X705804Y447216D01*
X705831Y447215D01*
X705856Y447205D01*
X705929Y447210D01*
G37*
G36*
X824374Y668683D02*
X824374Y668683D01*
X824417Y668682D01*
X828407Y669283D01*
X828437Y669294D01*
X828480Y669300D01*
X832336Y670489D01*
X832364Y670505D01*
X832406Y670517D01*
X836042Y672268D01*
X836067Y672287D01*
X836106Y672305D01*
X839440Y674578D01*
X839463Y674601D01*
X839499Y674625D01*
X842457Y677369D01*
X842476Y677395D01*
X842508Y677424D01*
X845024Y680579D01*
X845038Y680607D01*
X845066Y680641D01*
X847084Y684136D01*
X847094Y684166D01*
X847116Y684203D01*
X848590Y687959D01*
X848591Y687966D01*
X848593Y687967D01*
X848597Y687994D01*
X848612Y688031D01*
X849510Y691965D01*
X849511Y691997D01*
X849521Y692039D01*
X849823Y696063D01*
X849819Y696090D01*
X849824Y696117D01*
X849807Y696187D01*
X849798Y696260D01*
X849784Y696284D01*
X849778Y696310D01*
X849735Y696369D01*
X849698Y696432D01*
X849676Y696448D01*
X849660Y696470D01*
X849597Y696507D01*
X849539Y696551D01*
X849512Y696558D01*
X849489Y696572D01*
X849385Y696589D01*
X849346Y696599D01*
X849336Y696597D01*
X849325Y696599D01*
X795325Y696599D01*
X795298Y696594D01*
X795271Y696596D01*
X795202Y696574D01*
X795130Y696560D01*
X795108Y696544D01*
X795082Y696536D01*
X795026Y696488D01*
X794966Y696447D01*
X794952Y696424D01*
X794931Y696406D01*
X794899Y696341D01*
X794859Y696280D01*
X794855Y696253D01*
X794843Y696228D01*
X794833Y696124D01*
X794826Y696083D01*
X794828Y696074D01*
X794827Y696063D01*
X795129Y692039D01*
X795137Y692008D01*
X795140Y691965D01*
X796038Y688031D01*
X796051Y688002D01*
X796060Y687959D01*
X797534Y684203D01*
X797551Y684176D01*
X797566Y684136D01*
X799584Y680641D01*
X799605Y680617D01*
X799626Y680579D01*
X802142Y677424D01*
X802167Y677404D01*
X802193Y677369D01*
X805151Y674625D01*
X805178Y674608D01*
X805210Y674578D01*
X808544Y672305D01*
X808573Y672292D01*
X808608Y672268D01*
X812244Y670517D01*
X812275Y670509D01*
X812314Y670489D01*
X816170Y669300D01*
X816201Y669297D01*
X816243Y669283D01*
X820233Y668682D01*
X820265Y668683D01*
X820307Y668676D01*
X824343Y668676D01*
X824374Y668683D01*
G37*
G36*
X849352Y395606D02*
X849352Y395606D01*
X849379Y395604D01*
X849448Y395626D01*
X849520Y395640D01*
X849542Y395656D01*
X849568Y395664D01*
X849624Y395712D01*
X849684Y395753D01*
X849698Y395776D01*
X849719Y395794D01*
X849752Y395859D01*
X849791Y395920D01*
X849795Y395947D01*
X849807Y395972D01*
X849817Y396076D01*
X849824Y396117D01*
X849822Y396126D01*
X849823Y396137D01*
X849521Y400161D01*
X849513Y400192D01*
X849510Y400235D01*
X848612Y404169D01*
X848599Y404198D01*
X848590Y404241D01*
X847116Y407997D01*
X847099Y408024D01*
X847084Y408065D01*
X845066Y411559D01*
X845045Y411583D01*
X845024Y411621D01*
X842508Y414776D01*
X842483Y414796D01*
X842457Y414831D01*
X839499Y417575D01*
X839472Y417592D01*
X839440Y417622D01*
X836106Y419895D01*
X836077Y419908D01*
X836042Y419933D01*
X832406Y421683D01*
X832375Y421691D01*
X832336Y421711D01*
X828480Y422900D01*
X828449Y422903D01*
X828407Y422917D01*
X824417Y423518D01*
X824385Y423517D01*
X824343Y423524D01*
X820307Y423524D01*
X820276Y423517D01*
X820233Y423518D01*
X816243Y422917D01*
X816213Y422906D01*
X816170Y422900D01*
X812314Y421711D01*
X812286Y421695D01*
X812244Y421683D01*
X808608Y419933D01*
X808583Y419913D01*
X808544Y419895D01*
X805210Y417622D01*
X805187Y417599D01*
X805151Y417575D01*
X802193Y414831D01*
X802175Y414805D01*
X802142Y414776D01*
X799626Y411621D01*
X799612Y411593D01*
X799584Y411559D01*
X797566Y408065D01*
X797556Y408034D01*
X797534Y407997D01*
X796060Y404241D01*
X796054Y404209D01*
X796038Y404169D01*
X795140Y400235D01*
X795139Y400203D01*
X795129Y400161D01*
X794827Y396137D01*
X794831Y396110D01*
X794826Y396083D01*
X794843Y396013D01*
X794852Y395940D01*
X794866Y395916D01*
X794872Y395890D01*
X794915Y395831D01*
X794952Y395768D01*
X794974Y395752D01*
X794990Y395730D01*
X795053Y395693D01*
X795111Y395649D01*
X795138Y395642D01*
X795161Y395628D01*
X795265Y395611D01*
X795304Y395601D01*
X795314Y395603D01*
X795325Y395601D01*
X849325Y395601D01*
X849352Y395606D01*
G37*
G36*
X716689Y509677D02*
X716689Y509677D01*
X716698Y509676D01*
X716891Y509701D01*
X717081Y509723D01*
X717089Y509726D01*
X717098Y509727D01*
X717281Y509788D01*
X717463Y509848D01*
X717471Y509852D01*
X717480Y509855D01*
X717646Y509951D01*
X717814Y510046D01*
X717821Y510051D01*
X717828Y510056D01*
X718081Y510271D01*
X723193Y515383D01*
X726480Y515383D01*
X726523Y515362D01*
X726677Y515280D01*
X726702Y515272D01*
X726726Y515260D01*
X726896Y515215D01*
X727063Y515165D01*
X727089Y515163D01*
X727115Y515156D01*
X727446Y515129D01*
X760299Y515129D01*
X760325Y515131D01*
X760352Y515129D01*
X760526Y515151D01*
X760699Y515169D01*
X760725Y515176D01*
X760751Y515180D01*
X760917Y515235D01*
X761084Y515287D01*
X761108Y515299D01*
X761133Y515308D01*
X761285Y515395D01*
X761438Y515478D01*
X761459Y515495D01*
X761482Y515509D01*
X761735Y515724D01*
X766801Y520790D01*
X766818Y520810D01*
X766838Y520828D01*
X766945Y520966D01*
X767056Y521101D01*
X767069Y521125D01*
X767085Y521146D01*
X767163Y521303D01*
X767245Y521457D01*
X767252Y521482D01*
X767264Y521507D01*
X767310Y521676D01*
X767360Y521843D01*
X767362Y521869D01*
X767369Y521895D01*
X767396Y522226D01*
X767396Y528632D01*
X770075Y531310D01*
X775624Y536860D01*
X775630Y536867D01*
X775637Y536873D01*
X775757Y537022D01*
X775879Y537172D01*
X775884Y537179D01*
X775889Y537186D01*
X775977Y537356D01*
X776068Y537527D01*
X776071Y537536D01*
X776075Y537544D01*
X776128Y537728D01*
X776183Y537913D01*
X776184Y537922D01*
X776186Y537931D01*
X776202Y538121D01*
X776219Y538314D01*
X776218Y538323D01*
X776219Y538332D01*
X776197Y538521D01*
X776176Y538714D01*
X776173Y538723D01*
X776172Y538732D01*
X776113Y538913D01*
X776054Y539098D01*
X776050Y539106D01*
X776047Y539115D01*
X775952Y539283D01*
X775859Y539451D01*
X775854Y539457D01*
X775849Y539465D01*
X775723Y539611D01*
X775599Y539758D01*
X775592Y539763D01*
X775586Y539770D01*
X775435Y539887D01*
X775283Y540007D01*
X775275Y540011D01*
X775268Y540017D01*
X775096Y540102D01*
X774924Y540190D01*
X774916Y540192D01*
X774908Y540196D01*
X774721Y540246D01*
X774536Y540298D01*
X774527Y540298D01*
X774519Y540301D01*
X774188Y540328D01*
X771715Y540328D01*
X771697Y540326D01*
X771679Y540327D01*
X771497Y540306D01*
X771314Y540288D01*
X771297Y540283D01*
X771279Y540280D01*
X771105Y540223D01*
X770929Y540170D01*
X770914Y540161D01*
X770897Y540156D01*
X770736Y540065D01*
X770575Y539978D01*
X770562Y539966D01*
X770546Y539958D01*
X770407Y539837D01*
X770266Y539720D01*
X770255Y539706D01*
X770241Y539695D01*
X770129Y539549D01*
X770014Y539406D01*
X770005Y539391D01*
X769995Y539376D01*
X769913Y539212D01*
X769828Y539049D01*
X769823Y539032D01*
X769815Y539016D01*
X769767Y538837D01*
X769717Y538662D01*
X769715Y538644D01*
X769711Y538627D01*
X769684Y538296D01*
X769684Y537437D01*
X768344Y536098D01*
X757795Y536098D01*
X757768Y536095D01*
X757742Y536097D01*
X757568Y536075D01*
X757394Y536058D01*
X757369Y536050D01*
X757342Y536047D01*
X757176Y535991D01*
X757009Y535940D01*
X756986Y535927D01*
X756960Y535918D01*
X756809Y535831D01*
X756655Y535748D01*
X756635Y535731D01*
X756612Y535717D01*
X756359Y535503D01*
X755763Y534907D01*
X738868Y534907D01*
X738283Y535492D01*
X738266Y535506D01*
X738252Y535523D01*
X738111Y535634D01*
X737972Y535747D01*
X737952Y535758D01*
X737935Y535771D01*
X737775Y535852D01*
X737616Y535936D01*
X737595Y535942D01*
X737575Y535952D01*
X737402Y535999D01*
X737230Y536051D01*
X737208Y536053D01*
X737187Y536058D01*
X737009Y536071D01*
X736829Y536087D01*
X736807Y536084D01*
X736785Y536086D01*
X736608Y536063D01*
X736429Y536044D01*
X736408Y536037D01*
X736386Y536034D01*
X736070Y535932D01*
X735426Y535666D01*
X733012Y535666D01*
X730781Y536590D01*
X729074Y538297D01*
X728150Y540527D01*
X728150Y540851D01*
X728149Y540860D01*
X728150Y540869D01*
X728129Y541062D01*
X728110Y541251D01*
X728108Y541260D01*
X728107Y541269D01*
X728048Y541452D01*
X727992Y541636D01*
X727988Y541644D01*
X727985Y541653D01*
X727892Y541820D01*
X727800Y541990D01*
X727795Y541997D01*
X727790Y542005D01*
X727665Y542152D01*
X727542Y542300D01*
X727536Y542305D01*
X727530Y542312D01*
X727378Y542432D01*
X727229Y542552D01*
X727221Y542556D01*
X727214Y542562D01*
X727041Y542649D01*
X726871Y542737D01*
X726863Y542740D01*
X726855Y542744D01*
X726668Y542796D01*
X726484Y542849D01*
X726476Y542850D01*
X726467Y542852D01*
X726274Y542866D01*
X726083Y542882D01*
X726074Y542881D01*
X726065Y542881D01*
X725873Y542857D01*
X725683Y542835D01*
X725675Y542832D01*
X725666Y542831D01*
X725483Y542769D01*
X725301Y542710D01*
X725293Y542705D01*
X725284Y542703D01*
X725117Y542607D01*
X724950Y542512D01*
X724943Y542506D01*
X724935Y542502D01*
X724682Y542287D01*
X715209Y532813D01*
X715192Y532793D01*
X715172Y532775D01*
X715065Y532637D01*
X714954Y532502D01*
X714941Y532478D01*
X714925Y532457D01*
X714847Y532300D01*
X714765Y532146D01*
X714758Y532121D01*
X714746Y532097D01*
X714700Y531927D01*
X714650Y531760D01*
X714648Y531734D01*
X714641Y531708D01*
X714614Y531377D01*
X714614Y511707D01*
X714615Y511698D01*
X714614Y511689D01*
X714635Y511497D01*
X714654Y511306D01*
X714656Y511298D01*
X714657Y511289D01*
X714715Y511105D01*
X714772Y510921D01*
X714776Y510913D01*
X714779Y510905D01*
X714872Y510736D01*
X714964Y510567D01*
X714969Y510561D01*
X714974Y510553D01*
X715098Y510406D01*
X715221Y510258D01*
X715228Y510252D01*
X715234Y510246D01*
X715385Y510127D01*
X715535Y510006D01*
X715543Y510002D01*
X715550Y509996D01*
X715723Y509908D01*
X715892Y509820D01*
X715901Y509818D01*
X715909Y509814D01*
X716095Y509762D01*
X716279Y509709D01*
X716288Y509708D01*
X716297Y509706D01*
X716490Y509692D01*
X716681Y509676D01*
X716689Y509677D01*
G37*
%LPC*%
G36*
X750504Y606440D02*
X750504Y606440D01*
X746863Y607948D01*
X744076Y610735D01*
X742568Y614376D01*
X742568Y618318D01*
X744076Y621959D01*
X746863Y624745D01*
X750504Y626254D01*
X754446Y626254D01*
X758087Y624745D01*
X760874Y621959D01*
X762382Y618318D01*
X762382Y614376D01*
X760874Y610735D01*
X758087Y607948D01*
X754446Y606440D01*
X750504Y606440D01*
G37*
%LPD*%
D10*
X875531Y591741D03*
X894531Y591741D03*
D11*
X762397Y543884D03*
X762397Y526884D03*
D12*
X747316Y543694D03*
X747316Y524694D03*
D13*
X877722Y577056D03*
X894722Y577056D03*
X877722Y565547D03*
X894722Y565547D03*
D10*
X875531Y609203D03*
X894531Y609203D03*
D11*
X921544Y526819D03*
X921544Y509819D03*
D14*
X925116Y545306D03*
D15*
X752475Y616347D03*
X752475Y590947D03*
X752475Y565547D03*
D16*
X904925Y689200D03*
X987525Y546100D03*
X904925Y403000D03*
X739725Y403000D03*
X657125Y546100D03*
X739725Y689200D03*
X946225Y617600D03*
X946225Y474600D03*
X822325Y403000D03*
X698425Y474600D03*
X698425Y617600D03*
X822325Y689200D03*
D13*
X835422Y598322D03*
X835422Y615322D03*
X894953Y642706D03*
X894953Y625706D03*
X786606Y615322D03*
X786606Y598322D03*
D17*
X856869Y573607D03*
X856869Y568606D03*
X856869Y563604D03*
X856869Y558603D03*
X856869Y553602D03*
X856869Y548601D03*
X856869Y543599D03*
X856869Y538598D03*
X856869Y533597D03*
X856869Y528596D03*
X856869Y523594D03*
X856869Y518593D03*
D18*
X849832Y511556D03*
X844831Y511556D03*
X839829Y511556D03*
X834828Y511556D03*
X829827Y511556D03*
X824826Y511556D03*
X819824Y511556D03*
X814823Y511556D03*
X809822Y511556D03*
X804821Y511556D03*
X799819Y511556D03*
X794818Y511556D03*
D17*
X787781Y518593D03*
X787781Y523594D03*
X787781Y528596D03*
X787781Y533597D03*
X787781Y538598D03*
X787781Y543599D03*
X787781Y548601D03*
X787781Y553602D03*
X787781Y558603D03*
X787781Y563604D03*
X787781Y568606D03*
X787781Y573607D03*
D18*
X794818Y580644D03*
X799819Y580644D03*
X804821Y580644D03*
X809822Y580644D03*
X814823Y580644D03*
X819824Y580644D03*
X824826Y580644D03*
X829827Y580644D03*
X834828Y580644D03*
X839829Y580644D03*
X844831Y580644D03*
X849832Y580644D03*
D19*
X822325Y546100D03*
D20*
X883841Y524178D03*
X883841Y536178D03*
X883841Y548178D03*
D21*
X749109Y541900D02*
X747316Y543694D01*
X760413Y541900D02*
X762397Y543884D01*
X760413Y541900D02*
X749109Y541900D01*
X747316Y543694D02*
X745732Y542110D01*
X734607Y542123D01*
X734219Y541734D01*
D22*
X734219Y541734D03*
D23*
X787605Y548425D02*
X787781Y548601D01*
X772923Y543884D02*
X762397Y543884D01*
X777464Y548425D02*
X787605Y548425D01*
X777464Y548425D02*
X772923Y543884D01*
D21*
X762397Y526884D02*
X759784Y524272D01*
D22*
X702866Y504031D03*
X728266Y504031D03*
X791766Y484584D03*
X812800Y484584D03*
X950119Y569119D03*
X965597Y569119D03*
X771922Y656034D03*
X771922Y635000D03*
X868759Y646906D03*
D23*
X794544Y543599D02*
X787781Y543599D01*
D22*
X881856Y496491D03*
X861270Y475853D03*
D24*
X762397Y526884D02*
X760206Y524694D01*
X747316Y524694D01*
D22*
X837406Y655638D03*
X859234Y656034D03*
D23*
X787781Y543599D02*
X779463Y543599D01*
X762748Y526884D01*
X762397Y526884D01*
X797045Y546100D02*
X822325Y546100D01*
X797045Y546100D02*
X794544Y543599D01*
D22*
X822722Y553641D03*
X719912Y647871D03*
D25*
X720309Y648268D02*
X780787Y648268D01*
X720309Y648268D02*
X719912Y647871D01*
D23*
X814823Y611600D02*
X816139Y612916D01*
X814823Y611600D02*
X814823Y580644D01*
D25*
X816139Y612916D02*
X780787Y648268D01*
X777375Y642883D02*
X809743Y610515D01*
X777375Y642883D02*
X726692Y642883D01*
X705145Y621336D01*
D23*
X702161Y621336D02*
X698425Y617600D01*
X702161Y621336D02*
X705145Y621336D01*
X809743Y597694D02*
X809822Y597615D01*
X809822Y580644D01*
D25*
X809743Y597694D02*
X809743Y610515D01*
X807244Y436563D02*
X807244Y427038D01*
X807244Y436563D02*
X804926Y438880D01*
D23*
X804821Y498992D02*
X804821Y511556D01*
X804821Y498992D02*
X804926Y498887D01*
X804926Y496888D01*
D25*
X804926Y438880D01*
D22*
X807244Y427038D03*
X718741Y490934D03*
D25*
X717153Y503953D02*
X724772Y511572D01*
X717153Y503953D02*
X717153Y492522D01*
X718741Y490934D01*
D23*
X782244Y538423D02*
X787606Y538423D01*
X787781Y538598D01*
X782244Y538423D02*
X779367Y535546D01*
X779367Y535573D01*
X770953Y527159D01*
X770953Y519911D01*
X762613Y511572D01*
X724772Y511572D01*
D25*
X799422Y419646D02*
X816478Y406480D01*
D23*
X819958Y403000D02*
X822325Y403000D01*
X819958Y403000D02*
X816478Y406480D01*
D25*
X799422Y419646D02*
X799422Y495581D01*
D23*
X799819Y495978D02*
X799819Y511556D01*
X799819Y495978D02*
X799422Y495581D01*
D25*
X731044Y554038D02*
X710803Y533797D01*
D23*
X710803Y486978D02*
X698425Y474600D01*
D25*
X710803Y486978D02*
X710803Y533797D01*
D23*
X780354Y553602D02*
X787781Y553602D01*
X780354Y553602D02*
X777343Y556613D01*
X770867Y556613D01*
X768291Y554038D01*
D25*
X731044Y554038D01*
D23*
X856869Y553602D02*
X856869Y558603D01*
X856869Y553602D02*
X856869Y548601D01*
X856869Y558603D02*
X864825Y558603D01*
D24*
X877516Y593725D02*
X877516Y607219D01*
X877516Y593725D02*
X875531Y591741D01*
X877516Y607219D02*
X875531Y609203D01*
X877722Y577056D02*
X877722Y565547D01*
X877722Y577056D02*
X877516Y577263D01*
X877516Y583406D02*
X877516Y589756D01*
X877516Y583406D02*
X877516Y577263D01*
X877516Y589756D02*
X875531Y591741D01*
D21*
X864825Y559628D02*
X864825Y558603D01*
X870744Y565547D02*
X877722Y565547D01*
X870744Y565547D02*
X864825Y559628D01*
D22*
X869950Y583009D03*
D21*
X870347Y583406D01*
X877516Y583406D01*
D23*
X865188Y545306D02*
X863480Y543599D01*
X856869Y543599D01*
D21*
X865188Y545306D02*
X874409Y554528D01*
X894722Y554528D01*
X894722Y565547D01*
D24*
X894325Y565944D01*
X894325Y576659D01*
X894722Y577056D01*
X894325Y591534D02*
X894531Y591741D01*
X894325Y591534D02*
X894325Y576659D01*
X894531Y591741D02*
X894531Y609203D01*
X894531Y623284D01*
X894953Y625706D01*
D23*
X919956Y478857D02*
X919956Y477838D01*
D22*
X919956Y478857D03*
D25*
X919956Y477838D02*
X878530Y477838D01*
D23*
X849832Y506535D02*
X849832Y511556D01*
X849832Y506535D02*
X878530Y477838D01*
X844831Y580644D02*
X844831Y587656D01*
X845344Y588169D01*
D25*
X845344Y660400D01*
X839929Y665815D02*
X839929Y666357D01*
D22*
X839929Y666357D03*
D25*
X839929Y665815D02*
X845344Y660400D01*
D23*
X844831Y511556D02*
X844831Y503303D01*
D25*
X877043Y471091D01*
D23*
X942716Y471091D02*
X946225Y474600D01*
D25*
X942716Y471091D02*
X877043Y471091D01*
X851420Y586200D02*
X851420Y667649D01*
D23*
X851420Y586200D02*
X849832Y584613D01*
X849832Y580644D01*
X829868Y689200D02*
X822325Y689200D01*
D25*
X829868Y689200D02*
X851420Y667649D01*
D22*
X873522Y506413D03*
D23*
X865981Y520038D02*
X862425Y523594D01*
X856869Y523594D01*
X865981Y520038D02*
X865981Y511969D01*
D25*
X870134Y507816D01*
D23*
X870134Y507815D02*
X870231Y507722D01*
X870330Y507631D01*
X870431Y507542D01*
X870535Y507457D01*
X870641Y507375D01*
X870750Y507296D01*
X870860Y507219D01*
X870973Y507146D01*
X871088Y507076D01*
X871205Y507010D01*
X871323Y506946D01*
X871443Y506886D01*
X871565Y506830D01*
X871689Y506777D01*
X871813Y506727D01*
X871940Y506681D01*
X872067Y506638D01*
X872196Y506599D01*
X872325Y506564D01*
X872456Y506532D01*
X872587Y506504D01*
X872719Y506480D01*
X872852Y506459D01*
X872986Y506442D01*
X873119Y506429D01*
X873253Y506420D01*
X873388Y506414D01*
X873522Y506412D01*
D25*
X922790Y486624D02*
X957425Y521259D01*
X880512Y486624D02*
X856869Y510266D01*
D23*
X856869Y518593D01*
D25*
X880512Y486624D02*
X922790Y486624D01*
X957997Y587541D02*
X950894Y604994D01*
X957997Y587541D02*
X957425Y521259D01*
D23*
X946225Y609662D02*
X946225Y617600D01*
X946225Y609662D02*
X950894Y604994D01*
D25*
X835422Y615322D02*
X835422Y630634D01*
D22*
X835422Y630634D03*
D23*
X875368Y518622D02*
X892314Y518622D01*
X865394Y528596D02*
X856869Y528596D01*
X892314Y518622D02*
X900510Y526819D01*
X921544Y526819D01*
X875368Y518622D02*
X865394Y528596D01*
X925116Y530391D02*
X925116Y545306D01*
X925116Y530391D02*
X921544Y526819D01*
X870547Y533597D02*
X856869Y533597D01*
X879966Y524178D02*
X883841Y524178D01*
X879966Y524178D02*
X870547Y533597D01*
X879966Y548178D02*
X883841Y548178D01*
X870386Y538598D02*
X856869Y538598D01*
X870386Y538598D02*
X879966Y548178D01*
X784499Y573607D02*
X782241Y575866D01*
X784499Y573607D02*
X787781Y573607D01*
D26*
X780422Y592138D02*
X786606Y598322D01*
X781613Y590947D02*
X752475Y590947D01*
D25*
X780422Y592138D02*
X781613Y590947D01*
X782241Y590319D01*
X782241Y575866D01*
D26*
X770334Y565547D02*
X752475Y565547D01*
D23*
X773394Y568606D02*
X787781Y568606D01*
X773394Y568606D02*
X770334Y565547D01*
X839788Y580686D02*
X839829Y580644D01*
X839788Y593956D02*
X835422Y598322D01*
X839788Y593956D02*
X839788Y580686D01*
D22*
X834935Y501445D03*
D23*
X834828Y501551D02*
X834828Y511556D01*
X834828Y501551D02*
X834935Y501445D01*
D22*
X813197Y501650D03*
D23*
X814823Y503276D01*
X814823Y511556D01*
D22*
X778411Y523446D03*
D23*
X778560Y523594D02*
X787781Y523594D01*
X778560Y523594D02*
X778411Y523446D01*
D22*
X777478Y513961D03*
D23*
X784889Y518593D02*
X787781Y518593D01*
X784889Y518593D02*
X779463Y513167D01*
X778272Y513167D01*
X777478Y513961D01*
M02*
