G04 EAGLE Gerber RS-274X export*
G75*
%MOMM*%
%FSLAX34Y34*%
%LPD*%
%INTop Copper*%
%IPPOS*%
%AMOC8*
5,1,8,0,0,1.08239X$1,22.5*%
G01*
%ADD10R,1.000000X1.100000*%
%ADD11R,1.500000X1.300000*%
%ADD12R,0.800000X0.800000*%
%ADD13R,1.100000X1.000000*%
%ADD14P,1.649562X8X22.500000*%
%ADD15C,1.524000*%
%ADD16C,1.000000*%
%ADD17R,0.500000X0.500000*%
%ADD18C,0.756400*%
%ADD19C,0.609600*%
%ADD20C,0.304800*%
%ADD21C,0.508000*%
%ADD22C,0.254000*%
%ADD23C,0.406400*%

G36*
X754753Y395606D02*
X754753Y395606D01*
X754781Y395604D01*
X754849Y395626D01*
X754920Y395640D01*
X754943Y395656D01*
X754970Y395665D01*
X755025Y395712D01*
X755084Y395753D01*
X755099Y395777D01*
X755121Y395795D01*
X755152Y395860D01*
X755191Y395920D01*
X755196Y395948D01*
X755208Y395974D01*
X755217Y396075D01*
X755224Y396117D01*
X755222Y396127D01*
X755223Y396140D01*
X755166Y396855D01*
X790702Y396855D01*
X790845Y396869D01*
X790990Y396875D01*
X791046Y396889D01*
X791103Y396895D01*
X791240Y396937D01*
X791381Y396971D01*
X791433Y396996D01*
X791488Y397013D01*
X791615Y397081D01*
X791745Y397143D01*
X791791Y397177D01*
X791842Y397205D01*
X791953Y397297D01*
X792068Y397383D01*
X792107Y397425D01*
X792151Y397462D01*
X792241Y397575D01*
X792338Y397682D01*
X792367Y397731D01*
X792403Y397776D01*
X792470Y397904D01*
X792543Y398028D01*
X792562Y398082D01*
X792589Y398133D01*
X792629Y398272D01*
X792676Y398408D01*
X792687Y398473D01*
X792700Y398520D01*
X792707Y398603D01*
X792728Y398736D01*
X792729Y398753D01*
X792727Y398829D01*
X792735Y398904D01*
X792733Y398921D01*
X792733Y398922D01*
X792732Y398929D01*
X792722Y399029D01*
X792719Y399155D01*
X792702Y399229D01*
X792695Y399305D01*
X792658Y399425D01*
X792633Y399533D01*
X792829Y400392D01*
X792838Y400459D01*
X792852Y400550D01*
X792853Y400552D01*
X792853Y400555D01*
X792875Y400692D01*
X792941Y401577D01*
X792974Y401618D01*
X793033Y401729D01*
X793099Y401834D01*
X793127Y401906D01*
X793162Y401974D01*
X793212Y402129D01*
X793243Y402211D01*
X793249Y402246D01*
X793262Y402290D01*
X793455Y403133D01*
X793464Y403209D01*
X793483Y403283D01*
X793489Y403408D01*
X793505Y403532D01*
X793500Y403608D01*
X793503Y403685D01*
X793485Y403809D01*
X793477Y403920D01*
X793799Y404740D01*
X793817Y404805D01*
X793888Y405030D01*
X794085Y405896D01*
X794124Y405931D01*
X794199Y406031D01*
X794281Y406126D01*
X794318Y406193D01*
X794364Y406254D01*
X794435Y406401D01*
X794478Y406477D01*
X794489Y406511D01*
X794510Y406552D01*
X794826Y407357D01*
X794846Y407431D01*
X794876Y407501D01*
X794901Y407624D01*
X794935Y407745D01*
X794941Y407821D01*
X794956Y407896D01*
X794956Y408021D01*
X794964Y408132D01*
X795405Y408896D01*
X795433Y408957D01*
X795537Y409169D01*
X795861Y409995D01*
X795904Y410024D01*
X795993Y410113D01*
X796088Y410194D01*
X796135Y410254D01*
X796189Y410308D01*
X796282Y410443D01*
X796336Y410511D01*
X796352Y410543D01*
X796378Y410581D01*
X796810Y411330D01*
X796842Y411400D01*
X796882Y411465D01*
X796925Y411583D01*
X796976Y411697D01*
X796993Y411771D01*
X797020Y411843D01*
X797038Y411967D01*
X797063Y412076D01*
X797613Y412765D01*
X797649Y412821D01*
X797784Y413016D01*
X798227Y413784D01*
X798275Y413806D01*
X798376Y413881D01*
X798482Y413947D01*
X798537Y414000D01*
X798599Y414045D01*
X798711Y414164D01*
X798774Y414224D01*
X798795Y414253D01*
X798826Y414287D01*
X799365Y414963D01*
X799407Y415027D01*
X799456Y415086D01*
X799516Y415196D01*
X799584Y415301D01*
X799612Y415372D01*
X799649Y415439D01*
X799686Y415559D01*
X799727Y415663D01*
X800372Y416262D01*
X800417Y416313D01*
X800579Y416484D01*
X801132Y417178D01*
X801182Y417193D01*
X801293Y417251D01*
X801408Y417301D01*
X801471Y417345D01*
X801538Y417381D01*
X801667Y417482D01*
X801738Y417532D01*
X801763Y417557D01*
X801799Y417586D01*
X802433Y418174D01*
X802484Y418231D01*
X802541Y418282D01*
X802617Y418382D01*
X802700Y418476D01*
X802738Y418542D01*
X802784Y418603D01*
X802839Y418716D01*
X802896Y418815D01*
X803032Y418931D01*
X803185Y419058D01*
X803189Y419063D01*
X803194Y419067D01*
X803314Y419220D01*
X803436Y419373D01*
X803439Y419378D01*
X803443Y419383D01*
X803532Y419558D01*
X803621Y419731D01*
X803623Y419737D01*
X803625Y419742D01*
X803678Y419930D01*
X803731Y420118D01*
X803732Y420124D01*
X803733Y420130D01*
X803748Y420324D01*
X803763Y420519D01*
X803762Y420525D01*
X803763Y420532D01*
X803738Y420726D01*
X803715Y420919D01*
X803713Y420925D01*
X803712Y420931D01*
X803651Y421115D01*
X803589Y421301D01*
X803586Y421307D01*
X803584Y421313D01*
X803488Y421480D01*
X803416Y421606D01*
X803410Y421652D01*
X803393Y421825D01*
X803385Y421851D01*
X803382Y421877D01*
X803326Y422043D01*
X803275Y422210D01*
X803262Y422234D01*
X803254Y422259D01*
X803166Y422410D01*
X803083Y422564D01*
X803066Y422584D01*
X803053Y422608D01*
X802838Y422861D01*
X802099Y423600D01*
X801175Y425830D01*
X801175Y428245D01*
X802099Y430475D01*
X803806Y432182D01*
X806037Y433106D01*
X808451Y433106D01*
X810681Y432182D01*
X812389Y430475D01*
X813312Y428245D01*
X813312Y427165D01*
X813324Y427045D01*
X813327Y426925D01*
X813344Y426845D01*
X813352Y426764D01*
X813388Y426649D01*
X813414Y426532D01*
X813447Y426457D01*
X813471Y426379D01*
X813528Y426274D01*
X813576Y426164D01*
X813623Y426097D01*
X813662Y426025D01*
X813739Y425933D01*
X813808Y425835D01*
X813868Y425779D01*
X813920Y425716D01*
X814014Y425641D01*
X814101Y425558D01*
X814170Y425515D01*
X814234Y425464D01*
X814340Y425408D01*
X814442Y425345D01*
X814519Y425316D01*
X814591Y425278D01*
X814706Y425245D01*
X814819Y425203D01*
X814899Y425189D01*
X814978Y425167D01*
X815098Y425157D01*
X815216Y425138D01*
X815298Y425141D01*
X815379Y425134D01*
X815498Y425148D01*
X815618Y425152D01*
X815712Y425173D01*
X815779Y425181D01*
X815845Y425202D01*
X815942Y425224D01*
X816688Y425454D01*
X816738Y425438D01*
X816863Y425424D01*
X816986Y425400D01*
X817062Y425401D01*
X817138Y425392D01*
X817301Y425404D01*
X817388Y425404D01*
X817423Y425412D01*
X817469Y425415D01*
X818324Y425544D01*
X818398Y425563D01*
X818474Y425572D01*
X818593Y425612D01*
X818714Y425643D01*
X818783Y425676D01*
X818856Y425700D01*
X818965Y425763D01*
X819065Y425811D01*
X819946Y425811D01*
X820013Y425818D01*
X820249Y425834D01*
X821126Y425966D01*
X821173Y425943D01*
X821294Y425910D01*
X821412Y425869D01*
X821488Y425858D01*
X821562Y425838D01*
X821725Y425825D01*
X821811Y425813D01*
X821847Y425815D01*
X821893Y425811D01*
X822757Y425811D01*
X822833Y425819D01*
X822910Y425817D01*
X823033Y425839D01*
X823158Y425851D01*
X823231Y425874D01*
X823306Y425887D01*
X823423Y425932D01*
X823530Y425965D01*
X824401Y425834D01*
X824468Y425831D01*
X824704Y425811D01*
X825591Y425811D01*
X825634Y425781D01*
X825749Y425731D01*
X825859Y425672D01*
X825933Y425651D01*
X826003Y425620D01*
X826162Y425583D01*
X826245Y425558D01*
X826281Y425554D01*
X826326Y425544D01*
X827181Y425415D01*
X827257Y425411D01*
X827333Y425398D01*
X827458Y425401D01*
X827583Y425395D01*
X827658Y425406D01*
X827735Y425408D01*
X827857Y425436D01*
X827968Y425452D01*
X828810Y425192D01*
X828876Y425179D01*
X829106Y425125D01*
X829983Y424993D01*
X830021Y424957D01*
X830127Y424890D01*
X830227Y424815D01*
X830297Y424783D01*
X830361Y424742D01*
X830513Y424681D01*
X830592Y424644D01*
X830627Y424636D01*
X830669Y424619D01*
X831496Y424364D01*
X831571Y424349D01*
X831643Y424324D01*
X831767Y424309D01*
X831890Y424284D01*
X831967Y424284D01*
X832043Y424274D01*
X832168Y424283D01*
X832279Y424283D01*
X833073Y423901D01*
X833136Y423878D01*
X833356Y423790D01*
X834204Y423529D01*
X834236Y423487D01*
X834331Y423405D01*
X834419Y423317D01*
X834483Y423274D01*
X834541Y423224D01*
X834681Y423142D01*
X834754Y423093D01*
X834787Y423080D01*
X834827Y423056D01*
X835606Y422681D01*
X835677Y422655D01*
X835746Y422620D01*
X835866Y422586D01*
X835984Y422543D01*
X836060Y422532D01*
X836133Y422511D01*
X836258Y422502D01*
X836368Y422485D01*
X837097Y421989D01*
X837156Y421956D01*
X837360Y421837D01*
X838159Y421452D01*
X838184Y421406D01*
X838266Y421311D01*
X838340Y421210D01*
X838397Y421159D01*
X838447Y421101D01*
X838574Y420998D01*
X838638Y420939D01*
X838669Y420921D01*
X838705Y420892D01*
X839419Y420405D01*
X839486Y420369D01*
X839548Y420324D01*
X839663Y420272D01*
X839773Y420212D01*
X839846Y420190D01*
X839915Y420158D01*
X840038Y420130D01*
X840144Y420097D01*
X840790Y419498D01*
X840844Y419457D01*
X841027Y419309D01*
X841761Y418809D01*
X841779Y418760D01*
X841846Y418654D01*
X841904Y418543D01*
X841952Y418484D01*
X841993Y418419D01*
X842103Y418299D01*
X842158Y418231D01*
X842186Y418208D01*
X842217Y418174D01*
X842851Y417586D01*
X842912Y417540D01*
X842966Y417486D01*
X843072Y417418D01*
X843172Y417343D01*
X843240Y417309D01*
X843305Y417268D01*
X843421Y417222D01*
X843522Y417173D01*
X844071Y416484D01*
X844118Y416436D01*
X844278Y416262D01*
X844928Y415658D01*
X844939Y415607D01*
X844989Y415493D01*
X845030Y415374D01*
X845069Y415308D01*
X845100Y415238D01*
X845191Y415103D01*
X845235Y415027D01*
X845259Y415001D01*
X845285Y414963D01*
X845824Y414287D01*
X845877Y414232D01*
X845923Y414171D01*
X846017Y414088D01*
X846105Y413998D01*
X846168Y413955D01*
X846225Y413905D01*
X846334Y413842D01*
X846426Y413779D01*
X846866Y413016D01*
X846906Y412961D01*
X847037Y412765D01*
X847591Y412071D01*
X847594Y412019D01*
X847626Y411898D01*
X847649Y411775D01*
X847678Y411704D01*
X847698Y411630D01*
X847768Y411482D01*
X847800Y411402D01*
X847820Y411372D01*
X847840Y411330D01*
X848272Y410581D01*
X848317Y410519D01*
X848353Y410452D01*
X848434Y410356D01*
X848507Y410254D01*
X848563Y410202D01*
X848612Y410144D01*
X848710Y410065D01*
X848791Y409989D01*
X849113Y409169D01*
X849144Y409109D01*
X849245Y408896D01*
X849689Y408127D01*
X849684Y408075D01*
X849698Y407951D01*
X849703Y407825D01*
X849720Y407751D01*
X849729Y407675D01*
X849776Y407519D01*
X849796Y407434D01*
X849811Y407401D01*
X849824Y407357D01*
X850140Y406552D01*
X850175Y406484D01*
X850201Y406412D01*
X850267Y406306D01*
X850324Y406194D01*
X850372Y406134D01*
X850411Y406069D01*
X850496Y405977D01*
X850566Y405889D01*
X850762Y405030D01*
X850783Y404967D01*
X850851Y404740D01*
X851176Y403914D01*
X851163Y403864D01*
X851159Y403738D01*
X851144Y403614D01*
X851151Y403538D01*
X851148Y403461D01*
X851171Y403300D01*
X851179Y403213D01*
X851189Y403178D01*
X851195Y403133D01*
X851388Y402290D01*
X851412Y402217D01*
X851427Y402142D01*
X851476Y402027D01*
X851516Y401908D01*
X851554Y401842D01*
X851583Y401771D01*
X851654Y401668D01*
X851710Y401571D01*
X851775Y400692D01*
X851787Y400626D01*
X851821Y400392D01*
X852018Y399527D01*
X851999Y399480D01*
X851975Y399356D01*
X851942Y399235D01*
X851938Y399159D01*
X851923Y399085D01*
X851922Y398920D01*
X851920Y398895D01*
X851917Y398850D01*
X851917Y398846D01*
X851916Y398833D01*
X851921Y398798D01*
X851921Y398753D01*
X851922Y398736D01*
X851947Y398594D01*
X851964Y398451D01*
X851982Y398396D01*
X851992Y398339D01*
X852044Y398205D01*
X852089Y398068D01*
X852117Y398018D01*
X852138Y397964D01*
X852216Y397843D01*
X852286Y397717D01*
X852324Y397673D01*
X852355Y397625D01*
X852456Y397521D01*
X852550Y397412D01*
X852595Y397377D01*
X852635Y397336D01*
X852754Y397254D01*
X852868Y397166D01*
X852919Y397140D01*
X852967Y397107D01*
X853099Y397050D01*
X853228Y396986D01*
X853284Y396971D01*
X853337Y396949D01*
X853478Y396919D01*
X853617Y396882D01*
X853683Y396876D01*
X853731Y396866D01*
X853814Y396866D01*
X853948Y396855D01*
X889484Y396855D01*
X889427Y396140D01*
X889431Y396111D01*
X889426Y396083D01*
X889443Y396014D01*
X889451Y395942D01*
X889466Y395918D01*
X889472Y395890D01*
X889515Y395832D01*
X889551Y395770D01*
X889573Y395753D01*
X889590Y395730D01*
X889652Y395693D01*
X889709Y395650D01*
X889737Y395643D01*
X889761Y395628D01*
X889861Y395612D01*
X889902Y395601D01*
X889912Y395603D01*
X889925Y395601D01*
X908925Y395601D01*
X909001Y395616D01*
X909079Y395625D01*
X909098Y395636D01*
X909120Y395640D01*
X909184Y395684D01*
X909252Y395723D01*
X909268Y395742D01*
X909284Y395753D01*
X909308Y395791D01*
X909358Y395851D01*
X918858Y412351D01*
X918867Y412378D01*
X918883Y412402D01*
X918898Y412472D01*
X918921Y412540D01*
X918918Y412568D01*
X918924Y412596D01*
X918911Y412667D01*
X918905Y412738D01*
X918892Y412763D01*
X918886Y412791D01*
X918846Y412851D01*
X918813Y412914D01*
X918791Y412932D01*
X918775Y412956D01*
X918692Y413014D01*
X918660Y413041D01*
X918649Y413044D01*
X918639Y413051D01*
X918011Y413348D01*
X935753Y444078D01*
X935812Y444210D01*
X935879Y444339D01*
X935895Y444393D01*
X935919Y444445D01*
X935951Y444586D01*
X935991Y444725D01*
X935996Y444782D01*
X936009Y444837D01*
X936013Y444982D01*
X936025Y445127D01*
X936018Y445183D01*
X936020Y445240D01*
X935995Y445383D01*
X935978Y445527D01*
X935961Y445581D01*
X935951Y445636D01*
X935899Y445772D01*
X935854Y445909D01*
X935826Y445959D01*
X935806Y446012D01*
X935728Y446134D01*
X935656Y446260D01*
X935619Y446303D01*
X935589Y446351D01*
X935488Y446456D01*
X935394Y446565D01*
X935347Y446603D01*
X935327Y446624D01*
X935322Y446628D01*
X935309Y446641D01*
X935241Y446689D01*
X935135Y446774D01*
X935127Y446779D01*
X935061Y446815D01*
X935000Y446859D01*
X934985Y446866D01*
X934978Y446870D01*
X934902Y446903D01*
X934885Y446911D01*
X934773Y446971D01*
X934702Y446993D01*
X934633Y447024D01*
X934509Y447053D01*
X934405Y447085D01*
X933758Y447685D01*
X933705Y447725D01*
X933521Y447874D01*
X932787Y448373D01*
X932769Y448422D01*
X932702Y448528D01*
X932644Y448639D01*
X932596Y448698D01*
X932555Y448763D01*
X932445Y448884D01*
X932390Y448951D01*
X932362Y448974D01*
X932331Y449008D01*
X931695Y449597D01*
X931634Y449644D01*
X931579Y449697D01*
X931474Y449765D01*
X931374Y449841D01*
X931305Y449874D01*
X931241Y449915D01*
X931125Y449961D01*
X931024Y450010D01*
X930475Y450698D01*
X930427Y450747D01*
X930268Y450921D01*
X929617Y451524D01*
X929606Y451575D01*
X929556Y451690D01*
X929515Y451808D01*
X929476Y451874D01*
X929445Y451944D01*
X929354Y452080D01*
X929310Y452155D01*
X929286Y452182D01*
X929260Y452220D01*
X928720Y452897D01*
X928666Y452952D01*
X928620Y453013D01*
X928526Y453096D01*
X928439Y453186D01*
X928376Y453229D01*
X928318Y453279D01*
X928209Y453342D01*
X928118Y453405D01*
X927677Y454168D01*
X927638Y454222D01*
X927506Y454419D01*
X926952Y455112D01*
X926949Y455165D01*
X926917Y455286D01*
X926893Y455409D01*
X926865Y455480D01*
X926845Y455553D01*
X926775Y455701D01*
X926742Y455782D01*
X926723Y455812D01*
X926703Y455853D01*
X926269Y456604D01*
X926225Y456666D01*
X926188Y456733D01*
X926107Y456829D01*
X926034Y456931D01*
X925978Y456983D01*
X925929Y457042D01*
X925831Y457120D01*
X925750Y457196D01*
X925427Y458016D01*
X925397Y458076D01*
X925295Y458289D01*
X924852Y459058D01*
X924856Y459110D01*
X924842Y459234D01*
X924838Y459359D01*
X924820Y459434D01*
X924811Y459510D01*
X924764Y459666D01*
X924744Y459751D01*
X924729Y459783D01*
X924716Y459828D01*
X924399Y460634D01*
X924364Y460702D01*
X924338Y460774D01*
X924272Y460881D01*
X924215Y460993D01*
X924167Y461053D01*
X924127Y461118D01*
X924042Y461210D01*
X923973Y461297D01*
X923777Y462156D01*
X923755Y462220D01*
X923687Y462446D01*
X923363Y463272D01*
X923375Y463323D01*
X923380Y463448D01*
X923394Y463572D01*
X923387Y463649D01*
X923390Y463725D01*
X923367Y463886D01*
X923359Y463974D01*
X923349Y464008D01*
X923343Y464053D01*
X923150Y464899D01*
X923125Y464971D01*
X923110Y465046D01*
X923061Y465162D01*
X923021Y465280D01*
X922983Y465347D01*
X922954Y465417D01*
X922883Y465521D01*
X922827Y465617D01*
X922761Y466496D01*
X922750Y466562D01*
X922716Y466796D01*
X922518Y467661D01*
X922538Y467710D01*
X922561Y467833D01*
X922594Y467953D01*
X922599Y468030D01*
X922613Y468105D01*
X922614Y468268D01*
X922620Y468355D01*
X922615Y468391D01*
X922615Y468437D01*
X922550Y469301D01*
X922537Y469377D01*
X922533Y469453D01*
X922502Y469574D01*
X922480Y469698D01*
X922452Y469769D01*
X922433Y469843D01*
X922379Y469956D01*
X922339Y470060D01*
X922379Y470606D01*
X922377Y470700D01*
X922385Y470793D01*
X922372Y470900D01*
X922369Y471009D01*
X922349Y471100D01*
X922338Y471193D01*
X922304Y471296D01*
X922280Y471401D01*
X922242Y471486D01*
X922213Y471575D01*
X922160Y471670D01*
X922115Y471769D01*
X922061Y471844D01*
X922015Y471926D01*
X921944Y472008D01*
X921881Y472096D01*
X921813Y472160D01*
X921752Y472231D01*
X921666Y472297D01*
X921587Y472371D01*
X921507Y472420D01*
X921434Y472478D01*
X921337Y472526D01*
X921245Y472583D01*
X921157Y472615D01*
X921073Y472657D01*
X920969Y472685D01*
X920867Y472723D01*
X920775Y472737D01*
X920684Y472761D01*
X920551Y472772D01*
X920469Y472785D01*
X920420Y472783D01*
X920354Y472789D01*
X918749Y472789D01*
X916519Y473712D01*
X914811Y475420D01*
X913888Y477650D01*
X913888Y480064D01*
X914811Y482295D01*
X916519Y484002D01*
X918749Y484926D01*
X921163Y484926D01*
X923168Y484096D01*
X923203Y484085D01*
X923237Y484069D01*
X923395Y484027D01*
X923553Y483979D01*
X923590Y483976D01*
X923626Y483966D01*
X923790Y483957D01*
X923954Y483941D01*
X923991Y483945D01*
X924028Y483943D01*
X924191Y483966D01*
X924354Y483983D01*
X924390Y483994D01*
X924427Y483999D01*
X924582Y484054D01*
X924739Y484103D01*
X924771Y484120D01*
X924806Y484133D01*
X924948Y484217D01*
X925092Y484296D01*
X925120Y484320D01*
X925152Y484339D01*
X925274Y484449D01*
X925400Y484555D01*
X925423Y484584D01*
X925451Y484609D01*
X925548Y484741D01*
X925651Y484870D01*
X925668Y484903D01*
X925690Y484933D01*
X925706Y484965D01*
X925723Y484980D01*
X925786Y485022D01*
X925875Y485111D01*
X925970Y485192D01*
X926017Y485252D01*
X926071Y485306D01*
X926164Y485441D01*
X926218Y485510D01*
X926234Y485542D01*
X926260Y485579D01*
X926693Y486330D01*
X926725Y486400D01*
X926765Y486465D01*
X926807Y486583D01*
X926859Y486697D01*
X926876Y486772D01*
X926902Y486844D01*
X926921Y486967D01*
X926946Y487076D01*
X927495Y487765D01*
X927531Y487822D01*
X927666Y488016D01*
X928109Y488785D01*
X928157Y488807D01*
X928258Y488881D01*
X928364Y488948D01*
X928419Y489000D01*
X928481Y489046D01*
X928593Y489165D01*
X928656Y489225D01*
X928677Y489254D01*
X928708Y489288D01*
X929248Y489965D01*
X929290Y490030D01*
X929339Y490088D01*
X929399Y490199D01*
X929467Y490304D01*
X929495Y490375D01*
X929531Y490442D01*
X929568Y490562D01*
X929609Y490666D01*
X930255Y491265D01*
X930300Y491316D01*
X930461Y491488D01*
X931014Y492182D01*
X931064Y492196D01*
X931175Y492255D01*
X931290Y492305D01*
X931353Y492349D01*
X931421Y492384D01*
X931549Y492485D01*
X931620Y492535D01*
X931645Y492561D01*
X931681Y492589D01*
X932317Y493179D01*
X932367Y493237D01*
X932425Y493287D01*
X932500Y493387D01*
X932583Y493481D01*
X932621Y493547D01*
X932668Y493608D01*
X932722Y493721D01*
X932778Y493818D01*
X933506Y494314D01*
X933558Y494358D01*
X933743Y494504D01*
X934393Y495107D01*
X934445Y495115D01*
X934564Y495156D01*
X934684Y495188D01*
X934753Y495222D01*
X934825Y495247D01*
X934967Y495328D01*
X935045Y495367D01*
X935074Y495389D01*
X935114Y495411D01*
X935830Y495900D01*
X935889Y495949D01*
X935953Y495991D01*
X936042Y496078D01*
X936138Y496159D01*
X936186Y496218D01*
X936241Y496272D01*
X936312Y496375D01*
X936381Y496462D01*
X937175Y496845D01*
X937232Y496880D01*
X937438Y496997D01*
X938171Y497497D01*
X938223Y497496D01*
X938346Y497520D01*
X938471Y497533D01*
X938543Y497557D01*
X938619Y497571D01*
X938771Y497629D01*
X938854Y497656D01*
X938885Y497674D01*
X938928Y497690D01*
X939709Y498066D01*
X939774Y498106D01*
X939844Y498138D01*
X939946Y498211D01*
X940053Y498276D01*
X940109Y498328D01*
X940171Y498373D01*
X940256Y498465D01*
X940338Y498541D01*
X941180Y498800D01*
X941242Y498827D01*
X941463Y498911D01*
X942262Y499297D01*
X942313Y499288D01*
X942439Y499293D01*
X942564Y499288D01*
X942639Y499300D01*
X942716Y499303D01*
X942875Y499338D01*
X942961Y499352D01*
X942995Y499365D01*
X943040Y499375D01*
X943868Y499631D01*
X943939Y499660D01*
X944012Y499681D01*
X944124Y499738D01*
X944239Y499787D01*
X944302Y499830D01*
X944371Y499865D01*
X944468Y499943D01*
X944561Y500006D01*
X945432Y500137D01*
X945497Y500154D01*
X945728Y500205D01*
X946576Y500467D01*
X946626Y500451D01*
X946750Y500437D01*
X946873Y500413D01*
X946949Y500414D01*
X947026Y500405D01*
X947188Y500416D01*
X947275Y500417D01*
X947311Y500425D01*
X947357Y500428D01*
X948214Y500557D01*
X948288Y500576D01*
X948364Y500586D01*
X948482Y500626D01*
X948604Y500657D01*
X948673Y500690D01*
X948745Y500714D01*
X948854Y500777D01*
X948954Y500825D01*
X949836Y500825D01*
X949902Y500832D01*
X950138Y500848D01*
X951016Y500981D01*
X951062Y500958D01*
X951183Y500925D01*
X951302Y500884D01*
X951377Y500873D01*
X951451Y500853D01*
X951614Y500840D01*
X951700Y500828D01*
X951736Y500830D01*
X951782Y500826D01*
X952649Y500826D01*
X952725Y500834D01*
X952802Y500832D01*
X952925Y500854D01*
X953049Y500866D01*
X953123Y500889D01*
X953198Y500902D01*
X953315Y500948D01*
X953421Y500981D01*
X954293Y500850D01*
X954360Y500846D01*
X954595Y500827D01*
X955483Y500827D01*
X955525Y500797D01*
X955640Y500747D01*
X955751Y500688D01*
X955824Y500667D01*
X955894Y500636D01*
X956053Y500599D01*
X956137Y500574D01*
X956173Y500571D01*
X956217Y500560D01*
X957075Y500431D01*
X957151Y500427D01*
X957226Y500414D01*
X957352Y500417D01*
X957477Y500411D01*
X957552Y500422D01*
X957629Y500424D01*
X957751Y500452D01*
X957861Y500469D01*
X958703Y500209D01*
X958769Y500196D01*
X958999Y500142D01*
X959877Y500010D01*
X959915Y499974D01*
X960021Y499907D01*
X960121Y499833D01*
X960191Y499800D01*
X960256Y499759D01*
X960407Y499699D01*
X960486Y499662D01*
X960521Y499653D01*
X960564Y499636D01*
X961392Y499381D01*
X961467Y499366D01*
X961540Y499341D01*
X961664Y499326D01*
X961787Y499301D01*
X961863Y499301D01*
X961939Y499291D01*
X962064Y499301D01*
X962176Y499300D01*
X962970Y498918D01*
X963032Y498896D01*
X963252Y498808D01*
X964100Y498546D01*
X964133Y498504D01*
X964227Y498423D01*
X964316Y498335D01*
X964380Y498292D01*
X964438Y498242D01*
X964578Y498160D01*
X964651Y498111D01*
X964684Y498097D01*
X964725Y498074D01*
X964751Y498061D01*
X964885Y498013D01*
X965016Y497956D01*
X965074Y497944D01*
X965129Y497924D01*
X965270Y497902D01*
X965410Y497873D01*
X965469Y497872D01*
X965527Y497863D01*
X965670Y497870D01*
X965812Y497869D01*
X965871Y497880D01*
X965930Y497883D01*
X966068Y497918D01*
X966208Y497945D01*
X966263Y497967D01*
X966320Y497981D01*
X966449Y498043D01*
X966581Y498097D01*
X966630Y498129D01*
X966683Y498155D01*
X966797Y498241D01*
X966916Y498319D01*
X966958Y498361D01*
X967005Y498397D01*
X967100Y498503D01*
X967201Y498604D01*
X967240Y498659D01*
X967273Y498697D01*
X967315Y498768D01*
X967390Y498877D01*
X985133Y529609D01*
X985741Y529189D01*
X985768Y529178D01*
X985790Y529159D01*
X985859Y529139D01*
X985924Y529111D01*
X985953Y529111D01*
X985981Y529103D01*
X986052Y529111D01*
X986123Y529111D01*
X986150Y529122D01*
X986179Y529125D01*
X986241Y529160D01*
X986306Y529188D01*
X986327Y529208D01*
X986352Y529223D01*
X986415Y529300D01*
X986445Y529330D01*
X986449Y529340D01*
X986458Y529351D01*
X995958Y545851D01*
X995968Y545883D01*
X995977Y545896D01*
X995981Y545920D01*
X995982Y545924D01*
X996013Y545994D01*
X996013Y546018D01*
X996021Y546040D01*
X996015Y546116D01*
X996016Y546193D01*
X996006Y546217D01*
X996005Y546238D01*
X995984Y546277D01*
X995958Y546349D01*
X986458Y562849D01*
X986439Y562871D01*
X986426Y562897D01*
X986373Y562945D01*
X986326Y562998D01*
X986300Y563011D01*
X986279Y563030D01*
X986211Y563053D01*
X986147Y563084D01*
X986118Y563086D01*
X986091Y563095D01*
X986019Y563090D01*
X985948Y563093D01*
X985921Y563083D01*
X985892Y563081D01*
X985802Y563039D01*
X985762Y563024D01*
X985754Y563017D01*
X985741Y563011D01*
X985133Y562591D01*
X967390Y593323D01*
X967307Y593439D01*
X967230Y593560D01*
X967189Y593602D01*
X967155Y593651D01*
X967051Y593748D01*
X966952Y593851D01*
X966904Y593884D01*
X966860Y593925D01*
X966739Y593999D01*
X966622Y594081D01*
X966568Y594104D01*
X966517Y594136D01*
X966383Y594185D01*
X966253Y594242D01*
X966195Y594254D01*
X966139Y594274D01*
X965999Y594296D01*
X965859Y594326D01*
X965800Y594327D01*
X965741Y594336D01*
X965599Y594330D01*
X965457Y594332D01*
X965398Y594321D01*
X965339Y594318D01*
X965201Y594284D01*
X965061Y594258D01*
X964998Y594233D01*
X964948Y594221D01*
X964874Y594186D01*
X964751Y594139D01*
X964725Y594126D01*
X964659Y594086D01*
X964588Y594054D01*
X964487Y593981D01*
X964381Y593917D01*
X964324Y593864D01*
X964261Y593819D01*
X964177Y593728D01*
X964094Y593652D01*
X963252Y593392D01*
X963191Y593366D01*
X962970Y593282D01*
X962170Y592897D01*
X962119Y592905D01*
X961993Y592901D01*
X961868Y592906D01*
X961793Y592894D01*
X961716Y592891D01*
X961557Y592856D01*
X961471Y592842D01*
X961437Y592829D01*
X961392Y592819D01*
X960564Y592564D01*
X960493Y592534D01*
X960419Y592514D01*
X960308Y592457D01*
X960193Y592408D01*
X960129Y592365D01*
X960061Y592330D01*
X959963Y592252D01*
X959871Y592189D01*
X958999Y592058D01*
X958935Y592042D01*
X958703Y591991D01*
X957855Y591730D01*
X957806Y591746D01*
X957681Y591760D01*
X957558Y591783D01*
X957482Y591783D01*
X957406Y591791D01*
X957243Y591780D01*
X957156Y591779D01*
X957121Y591772D01*
X957075Y591769D01*
X956217Y591640D01*
X956143Y591621D01*
X956067Y591612D01*
X955949Y591572D01*
X955827Y591541D01*
X955758Y591508D01*
X955686Y591483D01*
X955577Y591421D01*
X955477Y591373D01*
X954595Y591373D01*
X954528Y591366D01*
X954293Y591350D01*
X953415Y591218D01*
X953368Y591242D01*
X953247Y591274D01*
X953129Y591316D01*
X953053Y591327D01*
X952980Y591346D01*
X952817Y591360D01*
X952731Y591372D01*
X952695Y591370D01*
X952649Y591374D01*
X952027Y591374D01*
X952000Y591371D01*
X951973Y591373D01*
X951800Y591351D01*
X951626Y591334D01*
X951600Y591326D01*
X951574Y591323D01*
X951409Y591267D01*
X951241Y591216D01*
X951217Y591203D01*
X951192Y591195D01*
X951040Y591107D01*
X950887Y591025D01*
X950867Y591007D01*
X950843Y590994D01*
X950590Y590779D01*
X912279Y552468D01*
X912196Y552397D01*
X877928Y518129D01*
X877924Y518125D01*
X877921Y518122D01*
X877907Y518106D01*
X877890Y518091D01*
X877783Y517953D01*
X877672Y517817D01*
X877660Y517794D01*
X877644Y517773D01*
X877566Y517616D01*
X877484Y517462D01*
X877476Y517436D01*
X877464Y517412D01*
X877419Y517243D01*
X877369Y517076D01*
X877367Y517049D01*
X877360Y517023D01*
X877333Y516693D01*
X877333Y512026D01*
X877335Y511999D01*
X877333Y511972D01*
X877355Y511799D01*
X877373Y511625D01*
X877380Y511599D01*
X877384Y511573D01*
X877439Y511407D01*
X877491Y511240D01*
X877503Y511216D01*
X877512Y511191D01*
X877599Y511039D01*
X877682Y510886D01*
X877699Y510866D01*
X877713Y510842D01*
X877928Y510589D01*
X878667Y509850D01*
X879591Y507620D01*
X879591Y505145D01*
X879542Y504983D01*
X879540Y504969D01*
X879537Y504956D01*
X879521Y504768D01*
X879503Y504582D01*
X879505Y504569D01*
X879504Y504555D01*
X879526Y504368D01*
X879545Y504181D01*
X879549Y504169D01*
X879551Y504155D01*
X879609Y503976D01*
X879665Y503797D01*
X879671Y503785D01*
X879675Y503772D01*
X879768Y503608D01*
X879858Y503444D01*
X879867Y503433D01*
X879873Y503422D01*
X879996Y503280D01*
X880117Y503136D01*
X880128Y503127D01*
X880136Y503117D01*
X880285Y503002D01*
X880432Y502885D01*
X880444Y502879D01*
X880455Y502870D01*
X880623Y502786D01*
X880790Y502701D01*
X880803Y502697D01*
X880815Y502691D01*
X880997Y502642D01*
X881178Y502591D01*
X881191Y502590D01*
X881204Y502586D01*
X881535Y502559D01*
X883063Y502559D01*
X885294Y501635D01*
X887001Y499928D01*
X887925Y497698D01*
X887925Y495283D01*
X887001Y493053D01*
X885294Y491346D01*
X882718Y490279D01*
X882669Y490264D01*
X882646Y490251D01*
X882620Y490243D01*
X882469Y490155D01*
X882315Y490072D01*
X882295Y490055D01*
X882272Y490042D01*
X882019Y489827D01*
X867934Y475742D01*
X867917Y475721D01*
X867897Y475704D01*
X867790Y475566D01*
X867679Y475431D01*
X867666Y475407D01*
X867650Y475386D01*
X867572Y475229D01*
X867490Y475075D01*
X867483Y475049D01*
X867471Y475025D01*
X867425Y474856D01*
X867423Y474849D01*
X866415Y472415D01*
X864708Y470708D01*
X862477Y469784D01*
X860063Y469784D01*
X857832Y470708D01*
X856125Y472415D01*
X855201Y474646D01*
X855201Y477060D01*
X856125Y479291D01*
X857832Y480998D01*
X860370Y482049D01*
X860397Y482064D01*
X860427Y482074D01*
X860575Y482159D01*
X860725Y482239D01*
X860749Y482259D01*
X860776Y482275D01*
X861029Y482489D01*
X875193Y496653D01*
X875210Y496674D01*
X875230Y496691D01*
X875337Y496829D01*
X875448Y496964D01*
X875460Y496988D01*
X875477Y497009D01*
X875555Y497166D01*
X875636Y497320D01*
X875644Y497346D01*
X875656Y497370D01*
X875664Y497399D01*
X875720Y497535D01*
X875724Y497548D01*
X875730Y497560D01*
X875782Y497740D01*
X875837Y497921D01*
X875838Y497934D01*
X875842Y497947D01*
X875857Y498135D01*
X875875Y498321D01*
X875873Y498335D01*
X875874Y498348D01*
X875853Y498535D01*
X875833Y498722D01*
X875829Y498735D01*
X875828Y498748D01*
X875769Y498927D01*
X875713Y499106D01*
X875707Y499118D01*
X875703Y499131D01*
X875610Y499294D01*
X875520Y499459D01*
X875511Y499470D01*
X875505Y499481D01*
X875383Y499623D01*
X875261Y499767D01*
X875250Y499776D01*
X875242Y499786D01*
X875093Y499901D01*
X874946Y500018D01*
X874934Y500025D01*
X874924Y500033D01*
X874755Y500117D01*
X874588Y500202D01*
X874575Y500206D01*
X874563Y500212D01*
X874381Y500261D01*
X874201Y500312D01*
X874187Y500313D01*
X874174Y500317D01*
X873844Y500344D01*
X872315Y500344D01*
X870084Y501268D01*
X868377Y502975D01*
X867453Y505205D01*
X867453Y507620D01*
X868377Y509850D01*
X869116Y510589D01*
X869133Y510610D01*
X869153Y510627D01*
X869260Y510765D01*
X869371Y510901D01*
X869384Y510924D01*
X869400Y510946D01*
X869478Y511102D01*
X869560Y511256D01*
X869567Y511282D01*
X869579Y511306D01*
X869625Y511475D01*
X869675Y511642D01*
X869677Y511669D01*
X869684Y511695D01*
X869711Y512026D01*
X869711Y520691D01*
X910171Y561151D01*
X910254Y561221D01*
X940018Y590986D01*
X940118Y591107D01*
X940223Y591225D01*
X940246Y591263D01*
X940273Y591297D01*
X940347Y591436D01*
X940427Y591572D01*
X940441Y591614D01*
X940462Y591653D01*
X940507Y591804D01*
X940558Y591953D01*
X940564Y591996D01*
X940577Y592039D01*
X940591Y592196D01*
X940612Y592352D01*
X940609Y592396D01*
X940613Y592440D01*
X940596Y592597D01*
X940586Y592754D01*
X940575Y592796D01*
X940570Y592840D01*
X940522Y592991D01*
X940481Y593142D01*
X940462Y593182D01*
X940448Y593224D01*
X940372Y593362D01*
X940302Y593503D01*
X940275Y593538D01*
X940253Y593576D01*
X940152Y593696D01*
X940055Y593821D01*
X940022Y593850D01*
X939993Y593883D01*
X939869Y593981D01*
X939750Y594084D01*
X939707Y594109D01*
X939677Y594133D01*
X939600Y594172D01*
X939464Y594252D01*
X938928Y594510D01*
X938856Y594536D01*
X938788Y594571D01*
X938668Y594605D01*
X938550Y594648D01*
X938474Y594659D01*
X938401Y594680D01*
X938276Y594690D01*
X938166Y594707D01*
X937438Y595203D01*
X937378Y595236D01*
X937175Y595355D01*
X936376Y595740D01*
X936350Y595786D01*
X936268Y595881D01*
X936194Y595982D01*
X936138Y596033D01*
X936088Y596091D01*
X935961Y596194D01*
X935896Y596253D01*
X935866Y596271D01*
X935830Y596300D01*
X935114Y596789D01*
X935046Y596825D01*
X934984Y596870D01*
X934871Y596921D01*
X934760Y596982D01*
X934687Y597004D01*
X934618Y597036D01*
X934495Y597064D01*
X934389Y597097D01*
X933743Y597696D01*
X933690Y597737D01*
X933506Y597886D01*
X932773Y598386D01*
X932754Y598435D01*
X932688Y598541D01*
X932630Y598652D01*
X932581Y598711D01*
X932541Y598776D01*
X932430Y598896D01*
X932375Y598964D01*
X932348Y598987D01*
X932317Y599021D01*
X931681Y599611D01*
X931620Y599657D01*
X931566Y599710D01*
X931461Y599778D01*
X931361Y599854D01*
X931292Y599887D01*
X931228Y599929D01*
X931111Y599975D01*
X931011Y600023D01*
X930461Y600712D01*
X930415Y600760D01*
X930255Y600935D01*
X929605Y601539D01*
X929594Y601590D01*
X929544Y601705D01*
X929503Y601823D01*
X929464Y601889D01*
X929433Y601959D01*
X929342Y602094D01*
X929298Y602170D01*
X929274Y602196D01*
X929248Y602235D01*
X928708Y602912D01*
X928655Y602967D01*
X928608Y603028D01*
X928515Y603111D01*
X928427Y603201D01*
X928364Y603244D01*
X928307Y603295D01*
X928198Y603357D01*
X928106Y603421D01*
X927666Y604184D01*
X927627Y604238D01*
X927495Y604435D01*
X926942Y605129D01*
X926939Y605181D01*
X926906Y605302D01*
X926883Y605425D01*
X926855Y605496D01*
X926835Y605570D01*
X926765Y605717D01*
X926733Y605798D01*
X926713Y605828D01*
X926693Y605870D01*
X926260Y606621D01*
X926215Y606683D01*
X926179Y606750D01*
X926098Y606846D01*
X926025Y606948D01*
X925969Y607000D01*
X925920Y607058D01*
X925822Y607137D01*
X925741Y607213D01*
X925419Y608033D01*
X925388Y608093D01*
X925287Y608307D01*
X924844Y609075D01*
X924848Y609127D01*
X924835Y609252D01*
X924830Y609377D01*
X924812Y609451D01*
X924804Y609527D01*
X924757Y609684D01*
X924737Y609769D01*
X924722Y609801D01*
X924708Y609845D01*
X924392Y610652D01*
X924357Y610720D01*
X924331Y610792D01*
X924266Y610899D01*
X924209Y611011D01*
X924161Y611071D01*
X924121Y611136D01*
X924036Y611228D01*
X923967Y611315D01*
X923771Y612174D01*
X923749Y612238D01*
X923681Y612464D01*
X923357Y613290D01*
X923370Y613341D01*
X923375Y613466D01*
X923389Y613591D01*
X923382Y613667D01*
X923385Y613744D01*
X923362Y613905D01*
X923355Y613992D01*
X923345Y614026D01*
X923338Y614072D01*
X923146Y614917D01*
X923121Y614990D01*
X923106Y615065D01*
X923057Y615180D01*
X923018Y615299D01*
X922980Y615365D01*
X922950Y615436D01*
X922879Y615540D01*
X922824Y615636D01*
X922758Y616515D01*
X922747Y616581D01*
X922713Y616815D01*
X922516Y617680D01*
X922536Y617729D01*
X922559Y617851D01*
X922592Y617972D01*
X922597Y618049D01*
X922611Y618124D01*
X922612Y618287D01*
X922618Y618374D01*
X922613Y618410D01*
X922613Y618456D01*
X922549Y619320D01*
X922536Y619396D01*
X922532Y619472D01*
X922501Y619593D01*
X922479Y619717D01*
X922452Y619788D01*
X922433Y619862D01*
X922378Y619975D01*
X922338Y620079D01*
X922404Y620958D01*
X922402Y621026D01*
X922404Y621261D01*
X922338Y622146D01*
X922365Y622191D01*
X922406Y622309D01*
X922457Y622424D01*
X922473Y622499D01*
X922498Y622571D01*
X922524Y622733D01*
X922542Y622817D01*
X922543Y622853D01*
X922550Y622899D01*
X922615Y623763D01*
X922613Y623840D01*
X922621Y623916D01*
X922609Y624040D01*
X922605Y624166D01*
X922589Y624240D01*
X922581Y624316D01*
X922544Y624436D01*
X922520Y624545D01*
X922716Y625404D01*
X922724Y625471D01*
X922761Y625704D01*
X922828Y626589D01*
X922861Y626629D01*
X922920Y626740D01*
X922986Y626846D01*
X923014Y626918D01*
X923049Y626985D01*
X923099Y627141D01*
X923130Y627222D01*
X923136Y627258D01*
X923150Y627301D01*
X923343Y628146D01*
X923352Y628222D01*
X923371Y628297D01*
X923378Y628422D01*
X923393Y628546D01*
X923388Y628622D01*
X923391Y628699D01*
X923373Y628823D01*
X923365Y628934D01*
X923687Y629754D01*
X923705Y629819D01*
X923777Y630044D01*
X923974Y630909D01*
X924013Y630944D01*
X924088Y631045D01*
X924169Y631140D01*
X924207Y631206D01*
X924253Y631268D01*
X924324Y631414D01*
X924367Y631490D01*
X924378Y631524D01*
X924399Y631566D01*
X924716Y632372D01*
X924736Y632446D01*
X924766Y632517D01*
X924791Y632639D01*
X924825Y632760D01*
X924831Y632836D01*
X924846Y632911D01*
X924846Y633037D01*
X924855Y633148D01*
X925295Y633911D01*
X925323Y633972D01*
X925427Y634184D01*
X925752Y635010D01*
X925795Y635039D01*
X925884Y635127D01*
X925979Y635209D01*
X926026Y635269D01*
X926080Y635323D01*
X926173Y635457D01*
X926227Y635526D01*
X926243Y635558D01*
X926269Y635596D01*
X926703Y636347D01*
X926734Y636416D01*
X926774Y636482D01*
X926817Y636599D01*
X926869Y636713D01*
X926886Y636788D01*
X926912Y636860D01*
X926931Y636984D01*
X926956Y637093D01*
X927506Y637781D01*
X927542Y637838D01*
X927677Y638032D01*
X928121Y638800D01*
X928168Y638822D01*
X928269Y638897D01*
X928375Y638963D01*
X928431Y639016D01*
X928492Y639061D01*
X928592Y639167D01*
X928609Y639181D01*
X928620Y639195D01*
X928668Y639240D01*
X928688Y639269D01*
X928720Y639303D01*
X929260Y639980D01*
X929302Y640044D01*
X929351Y640103D01*
X929411Y640213D01*
X929479Y640318D01*
X929507Y640389D01*
X929544Y640457D01*
X929581Y640576D01*
X929622Y640680D01*
X930268Y641279D01*
X930312Y641329D01*
X930475Y641502D01*
X931028Y642195D01*
X931078Y642210D01*
X931189Y642268D01*
X931304Y642318D01*
X931367Y642362D01*
X931434Y642398D01*
X931563Y642499D01*
X931634Y642548D01*
X931659Y642574D01*
X931695Y642603D01*
X932331Y643192D01*
X932357Y643222D01*
X932383Y643244D01*
X932404Y643269D01*
X932439Y643300D01*
X932515Y643400D01*
X932598Y643494D01*
X932631Y643552D01*
X932636Y643557D01*
X932639Y643564D01*
X932682Y643621D01*
X932737Y643734D01*
X932793Y643830D01*
X933521Y644326D01*
X933572Y644369D01*
X933758Y644515D01*
X934409Y645119D01*
X934458Y645125D01*
X934578Y645167D01*
X934700Y645199D01*
X934767Y645233D01*
X934839Y645257D01*
X934974Y645334D01*
X935040Y645365D01*
X935048Y645371D01*
X935061Y645378D01*
X935088Y645399D01*
X935127Y645421D01*
X935135Y645426D01*
X935246Y645519D01*
X935363Y645606D01*
X935376Y645621D01*
X935380Y645624D01*
X935402Y645649D01*
X935444Y645685D01*
X935535Y645797D01*
X935632Y645905D01*
X935661Y645954D01*
X935696Y645999D01*
X935763Y646127D01*
X935837Y646252D01*
X935855Y646306D01*
X935881Y646356D01*
X935921Y646495D01*
X935969Y646632D01*
X935977Y646689D01*
X935992Y646743D01*
X936004Y646888D01*
X936024Y647031D01*
X936020Y647088D01*
X936025Y647145D01*
X936008Y647289D01*
X935999Y647433D01*
X935984Y647488D01*
X935977Y647544D01*
X935932Y647682D01*
X935895Y647822D01*
X935867Y647881D01*
X935852Y647927D01*
X935811Y647999D01*
X935753Y648122D01*
X918011Y678852D01*
X918639Y679149D01*
X918661Y679166D01*
X918688Y679176D01*
X918740Y679225D01*
X918798Y679268D01*
X918812Y679293D01*
X918833Y679312D01*
X918862Y679378D01*
X918898Y679440D01*
X918901Y679468D01*
X918913Y679494D01*
X918914Y679566D01*
X918923Y679637D01*
X918915Y679664D01*
X918916Y679693D01*
X918880Y679788D01*
X918869Y679828D01*
X918862Y679837D01*
X918858Y679849D01*
X909358Y696349D01*
X909306Y696408D01*
X909260Y696470D01*
X909241Y696481D01*
X909226Y696498D01*
X909156Y696532D01*
X909089Y696572D01*
X909065Y696576D01*
X909047Y696584D01*
X909002Y696586D01*
X908925Y696599D01*
X889925Y696599D01*
X889897Y696594D01*
X889869Y696596D01*
X889801Y696574D01*
X889730Y696560D01*
X889707Y696544D01*
X889680Y696535D01*
X889625Y696488D01*
X889566Y696447D01*
X889551Y696423D01*
X889530Y696405D01*
X889498Y696340D01*
X889459Y696280D01*
X889454Y696252D01*
X889442Y696226D01*
X889433Y696125D01*
X889426Y696083D01*
X889428Y696073D01*
X889427Y696060D01*
X889484Y695345D01*
X853948Y695345D01*
X853805Y695331D01*
X853660Y695325D01*
X853604Y695311D01*
X853547Y695305D01*
X853410Y695263D01*
X853269Y695229D01*
X853217Y695204D01*
X853162Y695187D01*
X853035Y695119D01*
X852905Y695057D01*
X852859Y695023D01*
X852808Y694995D01*
X852697Y694903D01*
X852582Y694817D01*
X852543Y694775D01*
X852499Y694738D01*
X852409Y694625D01*
X852312Y694518D01*
X852283Y694469D01*
X852247Y694424D01*
X852180Y694296D01*
X852107Y694172D01*
X852088Y694118D01*
X852061Y694067D01*
X852021Y693928D01*
X851974Y693792D01*
X851963Y693727D01*
X851950Y693680D01*
X851943Y693597D01*
X851922Y693464D01*
X851921Y693447D01*
X851923Y693371D01*
X851915Y693296D01*
X851917Y693279D01*
X851917Y693278D01*
X851918Y693270D01*
X851928Y693171D01*
X851931Y693045D01*
X851948Y692971D01*
X851955Y692895D01*
X851992Y692775D01*
X852017Y692667D01*
X851821Y691808D01*
X851817Y691775D01*
X851810Y691752D01*
X851805Y691697D01*
X851775Y691508D01*
X851709Y690623D01*
X851676Y690582D01*
X851617Y690471D01*
X851551Y690366D01*
X851523Y690294D01*
X851488Y690226D01*
X851438Y690071D01*
X851407Y689989D01*
X851401Y689954D01*
X851388Y689910D01*
X851195Y689067D01*
X851186Y688991D01*
X851167Y688917D01*
X851161Y688792D01*
X851145Y688668D01*
X851150Y688592D01*
X851147Y688515D01*
X851165Y688391D01*
X851173Y688280D01*
X850851Y687460D01*
X850833Y687395D01*
X850762Y687170D01*
X850565Y686304D01*
X850526Y686269D01*
X850451Y686169D01*
X850369Y686074D01*
X850332Y686007D01*
X850286Y685946D01*
X850215Y685799D01*
X850172Y685723D01*
X850161Y685689D01*
X850140Y685648D01*
X849824Y684843D01*
X849804Y684769D01*
X849774Y684699D01*
X849749Y684576D01*
X849715Y684455D01*
X849709Y684379D01*
X849694Y684304D01*
X849694Y684179D01*
X849686Y684067D01*
X849245Y683304D01*
X849218Y683244D01*
X849113Y683031D01*
X848789Y682205D01*
X848746Y682176D01*
X848657Y682087D01*
X848562Y682006D01*
X848515Y681946D01*
X848461Y681892D01*
X848368Y681757D01*
X848314Y681689D01*
X848298Y681657D01*
X848272Y681619D01*
X847840Y680870D01*
X847808Y680800D01*
X847768Y680735D01*
X847725Y680617D01*
X847674Y680503D01*
X847657Y680429D01*
X847630Y680357D01*
X847612Y680233D01*
X847587Y680124D01*
X847037Y679435D01*
X847001Y679379D01*
X846866Y679184D01*
X846423Y678416D01*
X846375Y678394D01*
X846274Y678319D01*
X846168Y678253D01*
X846113Y678200D01*
X846051Y678155D01*
X845939Y678036D01*
X845876Y677976D01*
X845855Y677947D01*
X845824Y677913D01*
X845285Y677237D01*
X845243Y677173D01*
X845194Y677114D01*
X845134Y677005D01*
X845066Y676899D01*
X845038Y676828D01*
X845001Y676761D01*
X844964Y676641D01*
X844923Y676537D01*
X844278Y675938D01*
X844233Y675887D01*
X844071Y675716D01*
X843280Y674724D01*
X843257Y674707D01*
X843190Y674638D01*
X843116Y674575D01*
X843051Y674493D01*
X842978Y674417D01*
X842926Y674335D01*
X842866Y674259D01*
X842819Y674165D01*
X842763Y674077D01*
X842728Y673986D01*
X842684Y673900D01*
X842656Y673799D01*
X842618Y673701D01*
X842602Y673606D01*
X842576Y673512D01*
X842568Y673407D01*
X842551Y673304D01*
X842554Y673207D01*
X842547Y673111D01*
X842560Y673006D01*
X842563Y672901D01*
X842585Y672807D01*
X842597Y672711D01*
X842631Y672612D01*
X842654Y672509D01*
X842694Y672421D01*
X842725Y672330D01*
X842778Y672239D01*
X842821Y672143D01*
X842878Y672064D01*
X842926Y671981D01*
X843009Y671883D01*
X843057Y671817D01*
X843096Y671781D01*
X843141Y671728D01*
X845074Y669795D01*
X845998Y667565D01*
X845998Y665150D01*
X845430Y663781D01*
X845426Y663768D01*
X845420Y663756D01*
X845368Y663575D01*
X845314Y663395D01*
X845313Y663382D01*
X845309Y663369D01*
X845293Y663181D01*
X845276Y662995D01*
X845277Y662981D01*
X845276Y662968D01*
X845298Y662781D01*
X845317Y662594D01*
X845321Y662581D01*
X845323Y662568D01*
X845381Y662390D01*
X845437Y662210D01*
X845444Y662198D01*
X845448Y662185D01*
X845540Y662022D01*
X845630Y661857D01*
X845639Y661846D01*
X845646Y661835D01*
X845769Y661692D01*
X845890Y661548D01*
X845900Y661540D01*
X845909Y661530D01*
X846057Y661415D01*
X846204Y661297D01*
X846216Y661291D01*
X846227Y661283D01*
X846395Y661200D01*
X846563Y661114D01*
X846575Y661110D01*
X846587Y661104D01*
X846770Y661055D01*
X846950Y661004D01*
X846963Y661003D01*
X846976Y660999D01*
X847307Y660972D01*
X854893Y660972D01*
X854924Y660975D01*
X854955Y660973D01*
X855125Y660995D01*
X855294Y661012D01*
X855323Y661021D01*
X855354Y661025D01*
X855670Y661127D01*
X858027Y662103D01*
X860442Y662103D01*
X862672Y661179D01*
X864379Y659472D01*
X865303Y657242D01*
X865303Y655006D01*
X865305Y654988D01*
X865303Y654971D01*
X865325Y654788D01*
X865343Y654606D01*
X865348Y654589D01*
X865350Y654571D01*
X865407Y654396D01*
X865461Y654221D01*
X865470Y654205D01*
X865475Y654188D01*
X865566Y654028D01*
X865653Y653867D01*
X865664Y653853D01*
X865673Y653837D01*
X865793Y653698D01*
X865911Y653557D01*
X865925Y653546D01*
X865936Y653533D01*
X866081Y653420D01*
X866224Y653305D01*
X866240Y653297D01*
X866254Y653286D01*
X866419Y653204D01*
X866582Y653120D01*
X866599Y653115D01*
X866615Y653107D01*
X866793Y653059D01*
X866969Y653008D01*
X866986Y653007D01*
X867004Y653002D01*
X867334Y652975D01*
X869967Y652975D01*
X872197Y652051D01*
X873904Y650344D01*
X874828Y648113D01*
X874828Y645699D01*
X873904Y643469D01*
X872197Y641761D01*
X869967Y640838D01*
X867552Y640838D01*
X865114Y641847D01*
X865101Y641851D01*
X865089Y641857D01*
X864910Y641909D01*
X864729Y641964D01*
X864715Y641965D01*
X864702Y641969D01*
X864515Y641984D01*
X864328Y642002D01*
X864315Y642001D01*
X864301Y642002D01*
X864115Y641980D01*
X863927Y641960D01*
X863915Y641956D01*
X863901Y641955D01*
X863722Y641896D01*
X863543Y641841D01*
X863531Y641834D01*
X863519Y641830D01*
X863355Y641737D01*
X863190Y641647D01*
X863180Y641639D01*
X863168Y641632D01*
X863026Y641510D01*
X862882Y641388D01*
X862873Y641378D01*
X862863Y641369D01*
X862749Y641221D01*
X862711Y641174D01*
X860966Y639429D01*
X851072Y639429D01*
X849955Y640545D01*
X849941Y640557D01*
X849930Y640570D01*
X849785Y640684D01*
X849644Y640800D01*
X849628Y640809D01*
X849614Y640820D01*
X849450Y640903D01*
X849288Y640989D01*
X849271Y640994D01*
X849255Y641002D01*
X849078Y641052D01*
X848902Y641104D01*
X848884Y641105D01*
X848867Y641110D01*
X848684Y641124D01*
X848501Y641140D01*
X848483Y641138D01*
X848465Y641140D01*
X848283Y641117D01*
X848101Y641097D01*
X848084Y641091D01*
X848066Y641089D01*
X847892Y641031D01*
X847717Y640975D01*
X847701Y640967D01*
X847684Y640961D01*
X847525Y640869D01*
X847365Y640781D01*
X847351Y640769D01*
X847335Y640760D01*
X847082Y640545D01*
X845966Y639429D01*
X841264Y639429D01*
X841246Y639427D01*
X841228Y639429D01*
X841046Y639407D01*
X840863Y639389D01*
X840846Y639384D01*
X840828Y639382D01*
X840654Y639325D01*
X840478Y639271D01*
X840463Y639262D01*
X840446Y639257D01*
X840285Y639166D01*
X840124Y639079D01*
X840111Y639068D01*
X840095Y639059D01*
X839956Y638939D01*
X839815Y638821D01*
X839804Y638807D01*
X839790Y638796D01*
X839678Y638651D01*
X839563Y638508D01*
X839554Y638492D01*
X839544Y638478D01*
X839461Y638312D01*
X839377Y638150D01*
X839372Y638133D01*
X839364Y638117D01*
X839316Y637939D01*
X839266Y637763D01*
X839264Y637746D01*
X839260Y637728D01*
X839233Y637398D01*
X839233Y636247D01*
X839235Y636221D01*
X839233Y636194D01*
X839255Y636020D01*
X839273Y635847D01*
X839280Y635821D01*
X839284Y635795D01*
X839339Y635629D01*
X839391Y635462D01*
X839403Y635438D01*
X839412Y635413D01*
X839499Y635261D01*
X839582Y635108D01*
X839599Y635087D01*
X839613Y635064D01*
X839828Y634811D01*
X840567Y634072D01*
X841491Y631842D01*
X841491Y629427D01*
X840567Y627197D01*
X838860Y625490D01*
X836629Y624566D01*
X834215Y624566D01*
X831984Y625490D01*
X830277Y627197D01*
X829353Y629427D01*
X829353Y631842D01*
X830277Y634072D01*
X831016Y634811D01*
X831033Y634832D01*
X831053Y634849D01*
X831160Y634987D01*
X831271Y635123D01*
X831284Y635146D01*
X831300Y635167D01*
X831378Y635324D01*
X831460Y635478D01*
X831467Y635504D01*
X831479Y635528D01*
X831525Y635697D01*
X831575Y635864D01*
X831577Y635891D01*
X831584Y635917D01*
X831611Y636247D01*
X831611Y641697D01*
X834137Y644223D01*
X834154Y644244D01*
X834174Y644261D01*
X834281Y644399D01*
X834392Y644535D01*
X834405Y644558D01*
X834421Y644579D01*
X834499Y644736D01*
X834581Y644890D01*
X834588Y644916D01*
X834600Y644940D01*
X834646Y645109D01*
X834696Y645276D01*
X834698Y645303D01*
X834705Y645329D01*
X834732Y645659D01*
X834732Y648888D01*
X834729Y648914D01*
X834731Y648941D01*
X834709Y649115D01*
X834692Y649289D01*
X834684Y649314D01*
X834681Y649341D01*
X834625Y649506D01*
X834574Y649673D01*
X834561Y649697D01*
X834553Y649722D01*
X834465Y649874D01*
X834382Y650027D01*
X834365Y650048D01*
X834352Y650071D01*
X834137Y650324D01*
X832261Y652200D01*
X831338Y654430D01*
X831338Y656845D01*
X832261Y659075D01*
X834212Y661025D01*
X834226Y661043D01*
X834243Y661057D01*
X834353Y661198D01*
X834467Y661337D01*
X834477Y661356D01*
X834491Y661374D01*
X834572Y661535D01*
X834655Y661692D01*
X834662Y661714D01*
X834672Y661734D01*
X834719Y661907D01*
X834770Y662078D01*
X834772Y662101D01*
X834778Y662122D01*
X834790Y662301D01*
X834806Y662479D01*
X834804Y662501D01*
X834806Y662524D01*
X834782Y662702D01*
X834763Y662880D01*
X834756Y662901D01*
X834753Y662923D01*
X834652Y663239D01*
X833860Y665150D01*
X833860Y665813D01*
X833848Y665933D01*
X833846Y666053D01*
X833828Y666133D01*
X833820Y666214D01*
X833785Y666329D01*
X833759Y666446D01*
X833726Y666520D01*
X833702Y666599D01*
X833645Y666705D01*
X833596Y666814D01*
X833549Y666881D01*
X833510Y666953D01*
X833434Y667045D01*
X833364Y667143D01*
X833305Y667199D01*
X833253Y667262D01*
X833159Y667337D01*
X833072Y667420D01*
X833002Y667463D01*
X832939Y667514D01*
X832832Y667570D01*
X832731Y667633D01*
X832654Y667662D01*
X832582Y667700D01*
X832466Y667733D01*
X832354Y667776D01*
X832273Y667789D01*
X832195Y667811D01*
X832075Y667821D01*
X831957Y667841D01*
X831875Y667838D01*
X831793Y667844D01*
X831674Y667830D01*
X831554Y667826D01*
X831460Y667805D01*
X831393Y667797D01*
X831327Y667776D01*
X831230Y667754D01*
X830669Y667581D01*
X830599Y667552D01*
X830525Y667531D01*
X830414Y667474D01*
X830298Y667425D01*
X830235Y667382D01*
X830167Y667347D01*
X830069Y667269D01*
X829977Y667206D01*
X829106Y667075D01*
X829040Y667059D01*
X828810Y667008D01*
X827961Y666746D01*
X827912Y666762D01*
X827787Y666776D01*
X827664Y666800D01*
X827588Y666799D01*
X827512Y666808D01*
X827349Y666796D01*
X827262Y666796D01*
X827227Y666788D01*
X827181Y666785D01*
X826326Y666656D01*
X826252Y666637D01*
X826176Y666628D01*
X826057Y666588D01*
X825936Y666557D01*
X825867Y666524D01*
X825794Y666500D01*
X825685Y666437D01*
X825585Y666389D01*
X824704Y666389D01*
X824637Y666382D01*
X824401Y666366D01*
X823524Y666234D01*
X823477Y666257D01*
X823356Y666290D01*
X823238Y666331D01*
X823162Y666342D01*
X823088Y666362D01*
X822925Y666375D01*
X822839Y666387D01*
X822803Y666385D01*
X822757Y666389D01*
X821893Y666389D01*
X821817Y666381D01*
X821740Y666383D01*
X821617Y666361D01*
X821492Y666349D01*
X821419Y666326D01*
X821344Y666313D01*
X821227Y666268D01*
X821120Y666235D01*
X820249Y666366D01*
X820182Y666369D01*
X819946Y666389D01*
X819059Y666389D01*
X819016Y666419D01*
X818901Y666469D01*
X818791Y666528D01*
X818717Y666549D01*
X818647Y666580D01*
X818488Y666618D01*
X818405Y666642D01*
X818369Y666646D01*
X818324Y666656D01*
X817469Y666785D01*
X817393Y666789D01*
X817317Y666802D01*
X817192Y666799D01*
X817067Y666805D01*
X816992Y666794D01*
X816915Y666792D01*
X816793Y666764D01*
X816683Y666748D01*
X815840Y667008D01*
X815774Y667021D01*
X815544Y667075D01*
X814667Y667207D01*
X814629Y667243D01*
X814523Y667310D01*
X814423Y667385D01*
X814353Y667417D01*
X814289Y667458D01*
X814137Y667519D01*
X814058Y667556D01*
X814023Y667564D01*
X813981Y667581D01*
X813154Y667836D01*
X813079Y667851D01*
X813007Y667876D01*
X812882Y667891D01*
X812760Y667916D01*
X812683Y667916D01*
X812607Y667926D01*
X812482Y667917D01*
X812371Y667917D01*
X811577Y668299D01*
X811514Y668322D01*
X811294Y668410D01*
X810446Y668671D01*
X810414Y668713D01*
X810320Y668795D01*
X810231Y668883D01*
X810167Y668926D01*
X810109Y668976D01*
X809969Y669058D01*
X809896Y669107D01*
X809863Y669120D01*
X809823Y669144D01*
X809044Y669519D01*
X808972Y669545D01*
X808904Y669580D01*
X808784Y669614D01*
X808666Y669657D01*
X808590Y669668D01*
X808517Y669689D01*
X808392Y669698D01*
X808281Y669715D01*
X807553Y670211D01*
X807494Y670244D01*
X807290Y670363D01*
X806491Y670748D01*
X806466Y670794D01*
X806384Y670889D01*
X806310Y670990D01*
X806253Y671041D01*
X806203Y671099D01*
X806077Y671202D01*
X806012Y671260D01*
X805981Y671279D01*
X805945Y671308D01*
X805231Y671795D01*
X805164Y671832D01*
X805102Y671876D01*
X804987Y671928D01*
X804877Y671988D01*
X804804Y672010D01*
X804735Y672042D01*
X804612Y672070D01*
X804506Y672103D01*
X803860Y672702D01*
X803806Y672743D01*
X803623Y672891D01*
X802889Y673391D01*
X802871Y673440D01*
X802804Y673546D01*
X802746Y673657D01*
X802698Y673716D01*
X802657Y673781D01*
X802547Y673901D01*
X802492Y673969D01*
X802464Y673992D01*
X802433Y674026D01*
X801799Y674614D01*
X801738Y674660D01*
X801684Y674714D01*
X801578Y674782D01*
X801478Y674857D01*
X801410Y674891D01*
X801345Y674932D01*
X801229Y674978D01*
X801128Y675027D01*
X800579Y675716D01*
X800532Y675764D01*
X800372Y675938D01*
X799722Y676542D01*
X799711Y676593D01*
X799661Y676707D01*
X799620Y676826D01*
X799581Y676892D01*
X799550Y676962D01*
X799460Y677097D01*
X799415Y677172D01*
X799391Y677199D01*
X799365Y677237D01*
X798826Y677913D01*
X798773Y677968D01*
X798727Y678029D01*
X798633Y678112D01*
X798545Y678202D01*
X798482Y678245D01*
X798425Y678296D01*
X798316Y678358D01*
X798224Y678421D01*
X797784Y679184D01*
X797744Y679239D01*
X797613Y679435D01*
X797059Y680129D01*
X797056Y680181D01*
X797024Y680302D01*
X797001Y680425D01*
X796972Y680496D01*
X796952Y680570D01*
X796883Y680718D01*
X796850Y680798D01*
X796830Y680828D01*
X796810Y680870D01*
X796378Y681619D01*
X796334Y681681D01*
X796297Y681748D01*
X796216Y681844D01*
X796143Y681946D01*
X796087Y681998D01*
X796038Y682057D01*
X795940Y682135D01*
X795859Y682211D01*
X795537Y683031D01*
X795506Y683091D01*
X795405Y683304D01*
X794961Y684073D01*
X794966Y684125D01*
X794952Y684249D01*
X794947Y684375D01*
X794930Y684449D01*
X794921Y684525D01*
X794874Y684681D01*
X794854Y684766D01*
X794839Y684799D01*
X794826Y684843D01*
X794510Y685648D01*
X794475Y685716D01*
X794449Y685788D01*
X794383Y685894D01*
X794326Y686006D01*
X794278Y686066D01*
X794239Y686131D01*
X794154Y686223D01*
X794084Y686310D01*
X793888Y687170D01*
X793867Y687234D01*
X793799Y687460D01*
X793474Y688286D01*
X793487Y688336D01*
X793491Y688462D01*
X793506Y688586D01*
X793499Y688662D01*
X793502Y688739D01*
X793479Y688900D01*
X793471Y688987D01*
X793461Y689022D01*
X793455Y689067D01*
X793262Y689910D01*
X793238Y689983D01*
X793223Y690058D01*
X793174Y690173D01*
X793134Y690292D01*
X793096Y690358D01*
X793067Y690429D01*
X792996Y690532D01*
X792940Y690629D01*
X792875Y691508D01*
X792863Y691573D01*
X792829Y691808D01*
X792632Y692673D01*
X792651Y692720D01*
X792675Y692844D01*
X792708Y692965D01*
X792712Y693041D01*
X792727Y693115D01*
X792728Y693280D01*
X792730Y693305D01*
X792733Y693350D01*
X792733Y693354D01*
X792734Y693367D01*
X792729Y693402D01*
X792729Y693447D01*
X792728Y693464D01*
X792703Y693606D01*
X792686Y693749D01*
X792668Y693804D01*
X792658Y693861D01*
X792606Y693995D01*
X792561Y694132D01*
X792533Y694182D01*
X792512Y694236D01*
X792434Y694357D01*
X792364Y694483D01*
X792326Y694527D01*
X792295Y694575D01*
X792195Y694678D01*
X792100Y694788D01*
X792055Y694823D01*
X792015Y694864D01*
X791896Y694946D01*
X791782Y695034D01*
X791731Y695060D01*
X791683Y695093D01*
X791551Y695150D01*
X791422Y695214D01*
X791366Y695229D01*
X791313Y695251D01*
X791172Y695281D01*
X791033Y695318D01*
X790967Y695324D01*
X790919Y695334D01*
X790836Y695334D01*
X790702Y695345D01*
X755166Y695345D01*
X755223Y696060D01*
X755219Y696089D01*
X755224Y696117D01*
X755207Y696186D01*
X755199Y696258D01*
X755185Y696282D01*
X755178Y696310D01*
X755135Y696368D01*
X755100Y696430D01*
X755077Y696447D01*
X755060Y696470D01*
X754998Y696507D01*
X754941Y696550D01*
X754913Y696557D01*
X754889Y696572D01*
X754789Y696588D01*
X754748Y696599D01*
X754738Y696597D01*
X754725Y696599D01*
X735725Y696599D01*
X735649Y696584D01*
X735571Y696575D01*
X735552Y696564D01*
X735530Y696560D01*
X735466Y696516D01*
X735398Y696477D01*
X735382Y696458D01*
X735366Y696447D01*
X735342Y696409D01*
X735292Y696349D01*
X725792Y679849D01*
X725783Y679822D01*
X725767Y679798D01*
X725752Y679728D01*
X725729Y679660D01*
X725732Y679632D01*
X725726Y679604D01*
X725740Y679534D01*
X725745Y679462D01*
X725758Y679437D01*
X725764Y679409D01*
X725804Y679349D01*
X725837Y679286D01*
X725859Y679268D01*
X725875Y679244D01*
X725958Y679186D01*
X725990Y679159D01*
X726001Y679156D01*
X726012Y679149D01*
X726639Y678852D01*
X712946Y655135D01*
X712889Y655010D01*
X712825Y654888D01*
X712807Y654827D01*
X712780Y654768D01*
X712749Y654634D01*
X712710Y654502D01*
X712704Y654438D01*
X712690Y654375D01*
X712686Y654238D01*
X712674Y654101D01*
X712681Y654037D01*
X712679Y653973D01*
X712702Y653838D01*
X712717Y653701D01*
X712737Y653640D01*
X712748Y653576D01*
X712797Y653449D01*
X712839Y653317D01*
X712870Y653261D01*
X712893Y653201D01*
X712967Y653085D01*
X713034Y652965D01*
X713075Y652916D01*
X713110Y652862D01*
X713205Y652762D01*
X713294Y652658D01*
X713344Y652618D01*
X713389Y652572D01*
X713502Y652493D01*
X713610Y652408D01*
X713667Y652379D01*
X713720Y652343D01*
X713846Y652288D01*
X713969Y652226D01*
X714031Y652209D01*
X714090Y652183D01*
X714224Y652155D01*
X714357Y652118D01*
X714421Y652113D01*
X714484Y652100D01*
X714621Y652099D01*
X714758Y652089D01*
X714822Y652097D01*
X714887Y652096D01*
X715021Y652122D01*
X715158Y652139D01*
X715219Y652160D01*
X715282Y652172D01*
X715409Y652224D01*
X715539Y652267D01*
X715595Y652299D01*
X715655Y652324D01*
X715769Y652400D01*
X715888Y652468D01*
X715945Y652516D01*
X715990Y652546D01*
X716047Y652603D01*
X716141Y652683D01*
X716474Y653016D01*
X718705Y653940D01*
X721119Y653940D01*
X723350Y653016D01*
X725057Y651309D01*
X725981Y649078D01*
X725981Y646664D01*
X725057Y644433D01*
X723350Y642726D01*
X721119Y641802D01*
X720074Y641802D01*
X720047Y641800D01*
X720021Y641802D01*
X719847Y641780D01*
X719673Y641762D01*
X719648Y641755D01*
X719621Y641751D01*
X719455Y641696D01*
X719288Y641644D01*
X719265Y641632D01*
X719239Y641623D01*
X719088Y641536D01*
X718934Y641453D01*
X718914Y641436D01*
X718891Y641422D01*
X718638Y641207D01*
X717570Y640140D01*
X717503Y640058D01*
X717429Y639983D01*
X717376Y639903D01*
X717315Y639829D01*
X717266Y639735D01*
X717208Y639647D01*
X717172Y639558D01*
X717127Y639473D01*
X717097Y639372D01*
X717057Y639273D01*
X717039Y639179D01*
X717012Y639087D01*
X717002Y638982D01*
X716983Y638878D01*
X716984Y638782D01*
X716976Y638686D01*
X716987Y638581D01*
X716988Y638475D01*
X717009Y638381D01*
X717019Y638286D01*
X717051Y638185D01*
X717073Y638082D01*
X717111Y637994D01*
X717140Y637902D01*
X717192Y637809D01*
X717234Y637712D01*
X717298Y637617D01*
X717335Y637550D01*
X717374Y637505D01*
X717419Y637437D01*
X717698Y637088D01*
X717701Y637035D01*
X717733Y636914D01*
X717757Y636791D01*
X717785Y636720D01*
X717805Y636647D01*
X717875Y636499D01*
X717908Y636418D01*
X717927Y636388D01*
X717947Y636347D01*
X718381Y635596D01*
X718425Y635534D01*
X718462Y635467D01*
X718543Y635371D01*
X718616Y635269D01*
X718672Y635217D01*
X718721Y635158D01*
X718819Y635080D01*
X718900Y635004D01*
X719223Y634184D01*
X719253Y634124D01*
X719355Y633911D01*
X719798Y633142D01*
X719794Y633090D01*
X719808Y632966D01*
X719812Y632841D01*
X719830Y632766D01*
X719839Y632690D01*
X719886Y632534D01*
X719906Y632449D01*
X719921Y632417D01*
X719934Y632372D01*
X720251Y631566D01*
X720286Y631498D01*
X720312Y631426D01*
X720378Y631319D01*
X720435Y631207D01*
X720483Y631147D01*
X720523Y631082D01*
X720608Y630990D01*
X720677Y630903D01*
X720873Y630044D01*
X720895Y629980D01*
X720963Y629754D01*
X721287Y628928D01*
X721275Y628877D01*
X721270Y628752D01*
X721256Y628628D01*
X721263Y628551D01*
X721260Y628475D01*
X721283Y628314D01*
X721291Y628226D01*
X721301Y628192D01*
X721307Y628147D01*
X721500Y627301D01*
X721525Y627229D01*
X721540Y627154D01*
X721589Y627039D01*
X721628Y626920D01*
X721667Y626853D01*
X721697Y626783D01*
X721767Y626680D01*
X721823Y626583D01*
X721889Y625704D01*
X721900Y625637D01*
X721934Y625404D01*
X722132Y624539D01*
X722112Y624490D01*
X722089Y624367D01*
X722056Y624247D01*
X722051Y624170D01*
X722037Y624095D01*
X722036Y623932D01*
X722030Y623845D01*
X722035Y623809D01*
X722035Y623763D01*
X722100Y622899D01*
X722113Y622823D01*
X722117Y622747D01*
X722148Y622626D01*
X722170Y622502D01*
X722198Y622431D01*
X722217Y622357D01*
X722271Y622244D01*
X722311Y622140D01*
X722246Y621261D01*
X722248Y621194D01*
X722246Y620958D01*
X722313Y620073D01*
X722286Y620028D01*
X722244Y619910D01*
X722194Y619795D01*
X722178Y619720D01*
X722153Y619648D01*
X722127Y619487D01*
X722109Y619402D01*
X722108Y619366D01*
X722101Y619320D01*
X722037Y618456D01*
X722038Y618379D01*
X722031Y618303D01*
X722043Y618178D01*
X722047Y618053D01*
X722063Y617979D01*
X722071Y617903D01*
X722108Y617783D01*
X722133Y617674D01*
X721937Y616815D01*
X721929Y616748D01*
X721892Y616515D01*
X721826Y615630D01*
X721793Y615589D01*
X721734Y615479D01*
X721667Y615373D01*
X721640Y615301D01*
X721604Y615234D01*
X721555Y615078D01*
X721524Y614996D01*
X721518Y614961D01*
X721504Y614917D01*
X721312Y614072D01*
X721302Y613996D01*
X721283Y613922D01*
X721277Y613797D01*
X721262Y613673D01*
X721267Y613596D01*
X721263Y613520D01*
X721282Y613396D01*
X721290Y613285D01*
X720969Y612464D01*
X720950Y612399D01*
X720879Y612174D01*
X720682Y611309D01*
X720643Y611274D01*
X720569Y611173D01*
X720487Y611078D01*
X720449Y611012D01*
X720404Y610950D01*
X720332Y610804D01*
X720289Y610728D01*
X720278Y610693D01*
X720258Y610652D01*
X719942Y609845D01*
X719921Y609771D01*
X719891Y609701D01*
X719866Y609578D01*
X719832Y609458D01*
X719827Y609381D01*
X719812Y609306D01*
X719811Y609181D01*
X719803Y609070D01*
X719363Y608307D01*
X719335Y608245D01*
X719231Y608033D01*
X718907Y607207D01*
X718864Y607178D01*
X718775Y607089D01*
X718680Y607008D01*
X718633Y606948D01*
X718579Y606894D01*
X718486Y606759D01*
X718432Y606690D01*
X718416Y606658D01*
X718390Y606621D01*
X717957Y605870D01*
X717925Y605800D01*
X717885Y605735D01*
X717843Y605617D01*
X717791Y605503D01*
X717774Y605428D01*
X717748Y605356D01*
X717729Y605233D01*
X717704Y605124D01*
X717155Y604435D01*
X717119Y604378D01*
X716984Y604184D01*
X716541Y603415D01*
X716493Y603393D01*
X716392Y603319D01*
X716286Y603252D01*
X716231Y603200D01*
X716169Y603154D01*
X716057Y603035D01*
X715994Y602975D01*
X715973Y602946D01*
X715942Y602912D01*
X715402Y602235D01*
X715360Y602170D01*
X715311Y602112D01*
X715251Y602001D01*
X715183Y601896D01*
X715155Y601825D01*
X715119Y601758D01*
X715082Y601638D01*
X715041Y601534D01*
X714395Y600935D01*
X714350Y600884D01*
X714189Y600712D01*
X713636Y600018D01*
X713586Y600004D01*
X713475Y599945D01*
X713360Y599895D01*
X713297Y599851D01*
X713229Y599816D01*
X713101Y599715D01*
X713030Y599665D01*
X713005Y599639D01*
X712969Y599611D01*
X712333Y599021D01*
X712283Y598963D01*
X712225Y598913D01*
X712150Y598813D01*
X712067Y598719D01*
X712029Y598653D01*
X711982Y598592D01*
X711928Y598479D01*
X711872Y598382D01*
X711144Y597886D01*
X711092Y597842D01*
X710907Y597696D01*
X710257Y597093D01*
X710205Y597085D01*
X710086Y597044D01*
X709966Y597012D01*
X709897Y596978D01*
X709825Y596953D01*
X709683Y596872D01*
X709605Y596833D01*
X709576Y596811D01*
X709536Y596789D01*
X708820Y596300D01*
X708761Y596251D01*
X708697Y596209D01*
X708608Y596122D01*
X708512Y596041D01*
X708464Y595982D01*
X708409Y595928D01*
X708338Y595825D01*
X708269Y595738D01*
X707475Y595355D01*
X707418Y595320D01*
X707212Y595203D01*
X706479Y594703D01*
X706427Y594704D01*
X706304Y594680D01*
X706179Y594667D01*
X706107Y594643D01*
X706031Y594629D01*
X705879Y594571D01*
X705796Y594544D01*
X705765Y594526D01*
X705722Y594510D01*
X704941Y594134D01*
X704876Y594094D01*
X704806Y594062D01*
X704704Y593989D01*
X704597Y593924D01*
X704541Y593872D01*
X704479Y593827D01*
X704394Y593735D01*
X704312Y593659D01*
X703470Y593400D01*
X703408Y593373D01*
X703187Y593289D01*
X702388Y592903D01*
X702337Y592912D01*
X702211Y592907D01*
X702086Y592912D01*
X702011Y592900D01*
X701934Y592897D01*
X701775Y592862D01*
X701689Y592848D01*
X701655Y592835D01*
X701610Y592825D01*
X700782Y592569D01*
X700711Y592540D01*
X700638Y592519D01*
X700526Y592462D01*
X700411Y592413D01*
X700348Y592370D01*
X700279Y592335D01*
X700182Y592257D01*
X700089Y592194D01*
X699218Y592063D01*
X699153Y592046D01*
X698922Y591995D01*
X698074Y591733D01*
X698025Y591749D01*
X697900Y591763D01*
X697777Y591787D01*
X697700Y591786D01*
X697624Y591795D01*
X697462Y591783D01*
X697374Y591783D01*
X697339Y591775D01*
X697293Y591772D01*
X696436Y591643D01*
X696362Y591624D01*
X696286Y591614D01*
X696168Y591574D01*
X696046Y591543D01*
X695977Y591510D01*
X695905Y591486D01*
X695796Y591423D01*
X695696Y591375D01*
X694814Y591375D01*
X694748Y591368D01*
X694512Y591352D01*
X693634Y591219D01*
X693587Y591242D01*
X693467Y591275D01*
X693348Y591316D01*
X693273Y591327D01*
X693199Y591347D01*
X693036Y591360D01*
X692950Y591372D01*
X692914Y591370D01*
X692868Y591374D01*
X692001Y591374D01*
X691925Y591366D01*
X691849Y591368D01*
X691725Y591346D01*
X691600Y591334D01*
X691527Y591311D01*
X691452Y591298D01*
X691336Y591252D01*
X691229Y591219D01*
X690357Y591350D01*
X690290Y591354D01*
X690055Y591373D01*
X689167Y591373D01*
X689125Y591403D01*
X689010Y591453D01*
X688899Y591512D01*
X688826Y591533D01*
X688756Y591564D01*
X688597Y591601D01*
X688513Y591626D01*
X688477Y591629D01*
X688433Y591640D01*
X687575Y591769D01*
X687499Y591773D01*
X687424Y591786D01*
X687298Y591783D01*
X687173Y591789D01*
X687098Y591778D01*
X687021Y591776D01*
X686899Y591748D01*
X686789Y591731D01*
X685947Y591991D01*
X685881Y592004D01*
X685651Y592058D01*
X684773Y592190D01*
X684735Y592226D01*
X684629Y592293D01*
X684529Y592367D01*
X684459Y592400D01*
X684394Y592441D01*
X684243Y592501D01*
X684164Y592538D01*
X684129Y592547D01*
X684086Y592564D01*
X683258Y592819D01*
X683183Y592834D01*
X683110Y592859D01*
X682986Y592874D01*
X682863Y592899D01*
X682787Y592899D01*
X682711Y592909D01*
X682586Y592899D01*
X682474Y592900D01*
X681680Y593282D01*
X681617Y593305D01*
X681398Y593392D01*
X680550Y593654D01*
X680517Y593696D01*
X680423Y593777D01*
X680334Y593865D01*
X680270Y593908D01*
X680212Y593958D01*
X680072Y594040D01*
X679999Y594089D01*
X679966Y594103D01*
X679925Y594126D01*
X679899Y594139D01*
X679765Y594187D01*
X679634Y594244D01*
X679576Y594256D01*
X679521Y594276D01*
X679380Y594298D01*
X679240Y594327D01*
X679181Y594328D01*
X679123Y594337D01*
X678980Y594330D01*
X678838Y594331D01*
X678779Y594320D01*
X678720Y594317D01*
X678582Y594282D01*
X678442Y594255D01*
X678387Y594233D01*
X678330Y594219D01*
X678201Y594157D01*
X678069Y594103D01*
X678020Y594071D01*
X677967Y594045D01*
X677853Y593959D01*
X677734Y593881D01*
X677692Y593839D01*
X677645Y593803D01*
X677550Y593697D01*
X677449Y593596D01*
X677410Y593541D01*
X677377Y593503D01*
X677335Y593432D01*
X677260Y593323D01*
X659517Y562591D01*
X658909Y563011D01*
X658882Y563022D01*
X658860Y563041D01*
X658791Y563061D01*
X658726Y563089D01*
X658697Y563089D01*
X658669Y563097D01*
X658598Y563089D01*
X658527Y563090D01*
X658500Y563078D01*
X658471Y563075D01*
X658409Y563040D01*
X658344Y563012D01*
X658323Y562992D01*
X658298Y562977D01*
X658235Y562900D01*
X658205Y562870D01*
X658201Y562860D01*
X658192Y562849D01*
X648692Y546349D01*
X648668Y546276D01*
X648637Y546206D01*
X648637Y546182D01*
X648629Y546160D01*
X648636Y546084D01*
X648635Y546007D01*
X648644Y545983D01*
X648645Y545962D01*
X648666Y545923D01*
X648685Y545871D01*
X648686Y545865D01*
X648688Y545863D01*
X648692Y545851D01*
X658192Y529351D01*
X658211Y529329D01*
X658224Y529303D01*
X658277Y529255D01*
X658324Y529202D01*
X658350Y529189D01*
X658372Y529170D01*
X658439Y529147D01*
X658503Y529116D01*
X658532Y529115D01*
X658559Y529105D01*
X658631Y529110D01*
X658702Y529107D01*
X658729Y529117D01*
X658758Y529119D01*
X658848Y529161D01*
X658888Y529176D01*
X658896Y529183D01*
X658909Y529189D01*
X659517Y529609D01*
X677260Y498877D01*
X677343Y498761D01*
X677420Y498640D01*
X677461Y498598D01*
X677495Y498549D01*
X677599Y498452D01*
X677698Y498349D01*
X677746Y498316D01*
X677790Y498275D01*
X677911Y498201D01*
X678028Y498119D01*
X678082Y498096D01*
X678133Y498064D01*
X678267Y498015D01*
X678397Y497958D01*
X678455Y497946D01*
X678511Y497926D01*
X678651Y497904D01*
X678791Y497874D01*
X678850Y497873D01*
X678909Y497864D01*
X679051Y497870D01*
X679193Y497868D01*
X679252Y497879D01*
X679311Y497882D01*
X679449Y497916D01*
X679589Y497942D01*
X679652Y497967D01*
X679702Y497979D01*
X679776Y498014D01*
X679899Y498061D01*
X679925Y498074D01*
X679991Y498114D01*
X680062Y498146D01*
X680163Y498219D01*
X680269Y498283D01*
X680326Y498336D01*
X680389Y498381D01*
X680473Y498472D01*
X680556Y498548D01*
X681398Y498808D01*
X681459Y498834D01*
X681680Y498918D01*
X682480Y499303D01*
X682532Y499295D01*
X682657Y499299D01*
X682782Y499294D01*
X682857Y499306D01*
X682934Y499309D01*
X683093Y499344D01*
X683179Y499358D01*
X683213Y499371D01*
X683258Y499381D01*
X684086Y499636D01*
X684157Y499666D01*
X684231Y499686D01*
X684342Y499744D01*
X684457Y499792D01*
X684521Y499835D01*
X684589Y499870D01*
X684687Y499948D01*
X684779Y500011D01*
X685651Y500142D01*
X685715Y500158D01*
X685947Y500209D01*
X686795Y500470D01*
X686844Y500454D01*
X686969Y500440D01*
X687092Y500417D01*
X687168Y500417D01*
X687244Y500409D01*
X687407Y500420D01*
X687494Y500421D01*
X687530Y500428D01*
X687575Y500431D01*
X688433Y500560D01*
X688507Y500579D01*
X688583Y500588D01*
X688702Y500628D01*
X688823Y500659D01*
X688892Y500692D01*
X688964Y500717D01*
X689073Y500779D01*
X689173Y500827D01*
X690055Y500827D01*
X690122Y500834D01*
X690357Y500850D01*
X691235Y500982D01*
X691282Y500958D01*
X691402Y500926D01*
X691521Y500884D01*
X691597Y500873D01*
X691670Y500854D01*
X691833Y500840D01*
X691919Y500828D01*
X691955Y500830D01*
X692001Y500826D01*
X692868Y500826D01*
X692944Y500834D01*
X693021Y500832D01*
X693144Y500853D01*
X693269Y500866D01*
X693342Y500888D01*
X693417Y500902D01*
X693534Y500947D01*
X693640Y500980D01*
X694462Y500856D01*
X694632Y500847D01*
X694801Y500833D01*
X694833Y500837D01*
X694864Y500835D01*
X695032Y500860D01*
X695201Y500880D01*
X695231Y500890D01*
X695263Y500895D01*
X695422Y500952D01*
X695584Y501005D01*
X695612Y501021D01*
X695641Y501031D01*
X695786Y501119D01*
X695934Y501203D01*
X695958Y501224D01*
X695986Y501240D01*
X696111Y501355D01*
X696239Y501466D01*
X696259Y501491D01*
X696282Y501513D01*
X696382Y501650D01*
X696486Y501784D01*
X696500Y501813D01*
X696519Y501838D01*
X696589Y501992D01*
X696665Y502145D01*
X696673Y502175D01*
X696687Y502204D01*
X696726Y502369D01*
X696770Y502533D01*
X696773Y502569D01*
X696779Y502596D01*
X696782Y502682D01*
X696797Y502864D01*
X696797Y505238D01*
X697721Y507469D01*
X699428Y509176D01*
X701658Y510100D01*
X704073Y510100D01*
X704513Y509917D01*
X704543Y509908D01*
X704571Y509895D01*
X704736Y509850D01*
X704899Y509801D01*
X704930Y509798D01*
X704960Y509790D01*
X705291Y509763D01*
X725841Y509763D01*
X725872Y509766D01*
X725903Y509764D01*
X726072Y509786D01*
X726241Y509803D01*
X726271Y509812D01*
X726302Y509816D01*
X726618Y509917D01*
X727058Y510100D01*
X729473Y510100D01*
X731703Y509176D01*
X733410Y507469D01*
X734334Y505238D01*
X734334Y502824D01*
X733410Y500594D01*
X731703Y498886D01*
X729473Y497963D01*
X727058Y497963D01*
X724947Y498837D01*
X724943Y498838D01*
X724939Y498841D01*
X724750Y498897D01*
X724561Y498954D01*
X724557Y498954D01*
X724553Y498955D01*
X724355Y498973D01*
X724161Y498992D01*
X724156Y498991D01*
X724152Y498992D01*
X723956Y498971D01*
X723760Y498950D01*
X723756Y498949D01*
X723751Y498948D01*
X723567Y498890D01*
X723376Y498830D01*
X723372Y498828D01*
X723368Y498827D01*
X723197Y498733D01*
X723023Y498637D01*
X723019Y498634D01*
X723015Y498632D01*
X722865Y498504D01*
X722714Y498378D01*
X722712Y498374D01*
X722708Y498372D01*
X722588Y498219D01*
X722463Y498063D01*
X722461Y498059D01*
X722459Y498056D01*
X722370Y497881D01*
X722280Y497705D01*
X722278Y497701D01*
X722276Y497697D01*
X722223Y497506D01*
X722170Y497318D01*
X722170Y497313D01*
X722168Y497309D01*
X722153Y497101D01*
X722139Y496916D01*
X722139Y496912D01*
X722139Y496907D01*
X722164Y496709D01*
X722187Y496516D01*
X722189Y496512D01*
X722189Y496508D01*
X722251Y496323D01*
X722314Y496134D01*
X722316Y496130D01*
X722318Y496126D01*
X722414Y495958D01*
X722513Y495785D01*
X722516Y495781D01*
X722519Y495777D01*
X722733Y495524D01*
X723885Y494372D01*
X724809Y492142D01*
X724809Y489727D01*
X723885Y487497D01*
X723146Y486758D01*
X723129Y486737D01*
X723109Y486719D01*
X723002Y486581D01*
X722891Y486446D01*
X722879Y486422D01*
X722862Y486401D01*
X722784Y486244D01*
X722703Y486090D01*
X722695Y486065D01*
X722683Y486041D01*
X722637Y485871D01*
X722588Y485704D01*
X722585Y485678D01*
X722578Y485652D01*
X722551Y485321D01*
X722551Y481418D01*
X721881Y480748D01*
X721879Y480745D01*
X721876Y480743D01*
X721748Y480586D01*
X721625Y480436D01*
X721624Y480434D01*
X721622Y480431D01*
X721529Y480255D01*
X721437Y480080D01*
X721436Y480078D01*
X721435Y480075D01*
X721379Y479885D01*
X721322Y479694D01*
X721322Y479692D01*
X721321Y479689D01*
X721303Y479486D01*
X721286Y479294D01*
X721286Y479291D01*
X721286Y479288D01*
X721308Y479088D01*
X721314Y479031D01*
X721307Y479009D01*
X721298Y478933D01*
X721280Y478859D01*
X721275Y478734D01*
X721261Y478609D01*
X721268Y478533D01*
X721265Y478456D01*
X721288Y478295D01*
X721295Y478208D01*
X721305Y478174D01*
X721312Y478128D01*
X721504Y477283D01*
X721529Y477210D01*
X721544Y477135D01*
X721593Y477020D01*
X721632Y476901D01*
X721670Y476835D01*
X721700Y476764D01*
X721771Y476660D01*
X721826Y476564D01*
X721892Y475685D01*
X721903Y475619D01*
X721937Y475385D01*
X722134Y474520D01*
X722114Y474471D01*
X722091Y474349D01*
X722058Y474228D01*
X722053Y474151D01*
X722039Y474076D01*
X722038Y473913D01*
X722032Y473826D01*
X722037Y473790D01*
X722037Y473744D01*
X722101Y472880D01*
X722114Y472804D01*
X722118Y472728D01*
X722149Y472607D01*
X722171Y472483D01*
X722199Y472412D01*
X722217Y472338D01*
X722271Y472225D01*
X722312Y472121D01*
X722246Y471242D01*
X722248Y471174D01*
X722246Y470939D01*
X722312Y470054D01*
X722285Y470009D01*
X722244Y469891D01*
X722193Y469776D01*
X722177Y469701D01*
X722152Y469629D01*
X722126Y469467D01*
X722108Y469383D01*
X722107Y469347D01*
X722100Y469301D01*
X722035Y468437D01*
X722037Y468360D01*
X722029Y468284D01*
X722041Y468160D01*
X722045Y468034D01*
X722061Y467960D01*
X722069Y467884D01*
X722106Y467764D01*
X722130Y467655D01*
X721934Y466796D01*
X721926Y466729D01*
X721889Y466496D01*
X721822Y465611D01*
X721789Y465571D01*
X721730Y465460D01*
X721664Y465354D01*
X721636Y465282D01*
X721600Y465215D01*
X721551Y465059D01*
X721520Y464978D01*
X721514Y464942D01*
X721500Y464899D01*
X721307Y464053D01*
X721298Y463978D01*
X721279Y463903D01*
X721272Y463778D01*
X721257Y463654D01*
X721262Y463578D01*
X721259Y463501D01*
X721277Y463377D01*
X721285Y463266D01*
X720963Y462446D01*
X720945Y462381D01*
X720873Y462156D01*
X720676Y461291D01*
X720637Y461256D01*
X720562Y461155D01*
X720481Y461060D01*
X720443Y460994D01*
X720397Y460932D01*
X720326Y460786D01*
X720283Y460710D01*
X720272Y460676D01*
X720251Y460634D01*
X719934Y459828D01*
X719914Y459754D01*
X719884Y459683D01*
X719859Y459561D01*
X719825Y459440D01*
X719819Y459364D01*
X719804Y459289D01*
X719804Y459163D01*
X719795Y459052D01*
X719355Y458289D01*
X719327Y458228D01*
X719223Y458016D01*
X718898Y457190D01*
X718855Y457161D01*
X718766Y457073D01*
X718671Y456991D01*
X718624Y456931D01*
X718570Y456877D01*
X718477Y456743D01*
X718423Y456674D01*
X718407Y456642D01*
X718381Y456604D01*
X717947Y455853D01*
X717916Y455784D01*
X717876Y455718D01*
X717833Y455601D01*
X717781Y455487D01*
X717764Y455412D01*
X717738Y455340D01*
X717719Y455216D01*
X717694Y455107D01*
X717144Y454419D01*
X717108Y454362D01*
X716973Y454168D01*
X716529Y453400D01*
X716482Y453378D01*
X716381Y453303D01*
X716275Y453237D01*
X716219Y453184D01*
X716158Y453139D01*
X716046Y453020D01*
X715982Y452960D01*
X715962Y452931D01*
X715930Y452897D01*
X715390Y452220D01*
X715348Y452156D01*
X715299Y452097D01*
X715239Y451987D01*
X715171Y451882D01*
X715143Y451811D01*
X715106Y451743D01*
X715069Y451624D01*
X715028Y451520D01*
X714382Y450921D01*
X714338Y450871D01*
X714175Y450698D01*
X713622Y450005D01*
X713572Y449990D01*
X713461Y449932D01*
X713346Y449882D01*
X713284Y449838D01*
X713216Y449802D01*
X713087Y449702D01*
X713016Y449652D01*
X712991Y449626D01*
X712955Y449597D01*
X712319Y449008D01*
X712268Y448951D01*
X712211Y448900D01*
X712136Y448800D01*
X712052Y448706D01*
X712014Y448640D01*
X711968Y448579D01*
X711914Y448467D01*
X711857Y448370D01*
X711129Y447874D01*
X711078Y447831D01*
X710892Y447685D01*
X710241Y447081D01*
X710192Y447075D01*
X710072Y447033D01*
X709950Y447001D01*
X709883Y446967D01*
X709811Y446943D01*
X709676Y446866D01*
X709610Y446835D01*
X709602Y446829D01*
X709589Y446822D01*
X709562Y446801D01*
X709523Y446779D01*
X709515Y446774D01*
X709404Y446681D01*
X709287Y446594D01*
X709274Y446579D01*
X709270Y446576D01*
X709248Y446551D01*
X709206Y446515D01*
X709115Y446403D01*
X709018Y446295D01*
X708989Y446246D01*
X708954Y446201D01*
X708887Y446073D01*
X708813Y445948D01*
X708795Y445894D01*
X708769Y445844D01*
X708729Y445705D01*
X708681Y445568D01*
X708673Y445511D01*
X708658Y445457D01*
X708646Y445312D01*
X708626Y445169D01*
X708630Y445112D01*
X708625Y445055D01*
X708642Y444911D01*
X708651Y444767D01*
X708666Y444712D01*
X708673Y444656D01*
X708718Y444518D01*
X708755Y444378D01*
X708783Y444319D01*
X708798Y444273D01*
X708839Y444201D01*
X708897Y444078D01*
X726639Y413348D01*
X726012Y413051D01*
X725989Y413034D01*
X725962Y413024D01*
X725910Y412975D01*
X725852Y412932D01*
X725838Y412907D01*
X725817Y412888D01*
X725788Y412822D01*
X725752Y412760D01*
X725749Y412732D01*
X725737Y412706D01*
X725736Y412634D01*
X725727Y412563D01*
X725735Y412536D01*
X725735Y412507D01*
X725770Y412412D01*
X725781Y412372D01*
X725788Y412363D01*
X725792Y412351D01*
X735292Y395851D01*
X735344Y395793D01*
X735390Y395730D01*
X735409Y395719D01*
X735424Y395702D01*
X735494Y395668D01*
X735561Y395628D01*
X735586Y395624D01*
X735603Y395616D01*
X735648Y395614D01*
X735725Y395601D01*
X754725Y395601D01*
X754753Y395606D01*
G37*
%LPC*%
G36*
X833727Y495376D02*
X833727Y495376D01*
X831497Y496300D01*
X829790Y498007D01*
X828866Y500237D01*
X828866Y502652D01*
X829790Y504882D01*
X831497Y506589D01*
X833727Y507513D01*
X835005Y507513D01*
X835099Y507523D01*
X835193Y507522D01*
X835298Y507543D01*
X835406Y507553D01*
X835496Y507581D01*
X835588Y507599D01*
X835687Y507640D01*
X835790Y507671D01*
X835873Y507716D01*
X835960Y507752D01*
X836050Y507812D01*
X836145Y507863D01*
X836217Y507923D01*
X836295Y507976D01*
X836390Y508068D01*
X836454Y508121D01*
X836485Y508160D01*
X836533Y508207D01*
X837451Y509255D01*
X837545Y509386D01*
X837643Y509513D01*
X837661Y509549D01*
X837685Y509583D01*
X837751Y509730D01*
X837822Y509873D01*
X837833Y509913D01*
X837850Y509950D01*
X837885Y510107D01*
X837919Y510231D01*
X837921Y510239D01*
X837921Y510240D01*
X837927Y510262D01*
X837931Y510308D01*
X837938Y510343D01*
X837941Y510430D01*
X837954Y510593D01*
X837954Y512693D01*
X837951Y512720D01*
X837953Y512747D01*
X837931Y512921D01*
X837914Y513094D01*
X837906Y513120D01*
X837903Y513146D01*
X837847Y513312D01*
X837796Y513479D01*
X837783Y513503D01*
X837775Y513528D01*
X837687Y513679D01*
X837604Y513833D01*
X837587Y513854D01*
X837574Y513877D01*
X837359Y514130D01*
X826770Y524718D01*
X826750Y524735D01*
X826732Y524756D01*
X826594Y524863D01*
X826459Y524973D01*
X826435Y524986D01*
X826414Y525002D01*
X826258Y525080D01*
X826103Y525162D01*
X826078Y525170D01*
X826054Y525182D01*
X825884Y525227D01*
X825717Y525277D01*
X825691Y525279D01*
X825665Y525286D01*
X825334Y525313D01*
X823786Y525313D01*
X823755Y525310D01*
X823723Y525312D01*
X823555Y525290D01*
X823385Y525273D01*
X821262Y525273D01*
X821256Y525275D01*
X821225Y525278D01*
X821195Y525286D01*
X820864Y525313D01*
X820675Y525313D01*
X820657Y525311D01*
X820639Y525313D01*
X820457Y525292D01*
X820274Y525273D01*
X820257Y525268D01*
X820240Y525266D01*
X820065Y525209D01*
X819889Y525155D01*
X819874Y525147D01*
X819857Y525141D01*
X819697Y525051D01*
X819535Y524963D01*
X819522Y524952D01*
X819506Y524943D01*
X819367Y524823D01*
X819226Y524706D01*
X819215Y524692D01*
X819201Y524680D01*
X819089Y524535D01*
X818974Y524392D01*
X818966Y524376D01*
X818955Y524362D01*
X818873Y524197D01*
X818788Y524035D01*
X818783Y524018D01*
X818775Y524002D01*
X818728Y523823D01*
X818677Y523648D01*
X818675Y523630D01*
X818671Y523613D01*
X818644Y523282D01*
X818644Y515810D01*
X817963Y514167D01*
X817855Y514035D01*
X817843Y514012D01*
X817827Y513990D01*
X817749Y513833D01*
X817667Y513679D01*
X817659Y513654D01*
X817647Y513630D01*
X817602Y513460D01*
X817552Y513294D01*
X817550Y513267D01*
X817543Y513241D01*
X817516Y512910D01*
X817516Y506755D01*
X817518Y506729D01*
X817516Y506702D01*
X817538Y506528D01*
X817556Y506354D01*
X817563Y506329D01*
X817567Y506302D01*
X817623Y506136D01*
X817674Y505970D01*
X817686Y505946D01*
X817695Y505921D01*
X817782Y505769D01*
X817865Y505616D01*
X817882Y505595D01*
X817896Y505572D01*
X818111Y505319D01*
X818342Y505088D01*
X819266Y502857D01*
X819266Y500443D01*
X818342Y498212D01*
X816635Y496505D01*
X814404Y495581D01*
X811990Y495581D01*
X809759Y496505D01*
X808052Y498212D01*
X807128Y500443D01*
X807128Y502857D01*
X807282Y503230D01*
X807286Y503243D01*
X807292Y503254D01*
X807345Y503435D01*
X807399Y503615D01*
X807400Y503628D01*
X807404Y503641D01*
X807419Y503829D01*
X807437Y504016D01*
X807436Y504029D01*
X807437Y504043D01*
X807415Y504229D01*
X807395Y504416D01*
X807391Y504429D01*
X807390Y504442D01*
X807332Y504620D01*
X807276Y504801D01*
X807269Y504812D01*
X807265Y504825D01*
X807173Y504989D01*
X807082Y505154D01*
X807074Y505164D01*
X807067Y505176D01*
X806944Y505318D01*
X806823Y505462D01*
X806813Y505470D01*
X806804Y505481D01*
X806656Y505595D01*
X806508Y505713D01*
X806496Y505719D01*
X806486Y505727D01*
X806318Y505811D01*
X806150Y505897D01*
X806137Y505901D01*
X806125Y505907D01*
X805943Y505956D01*
X805763Y506007D01*
X805750Y506008D01*
X805737Y506011D01*
X805406Y506038D01*
X792065Y506038D01*
X790726Y507378D01*
X790726Y519272D01*
X792065Y520612D01*
X804960Y520612D01*
X806539Y519033D01*
X806546Y519027D01*
X806551Y519020D01*
X806701Y518900D01*
X806850Y518778D01*
X806858Y518773D01*
X806865Y518768D01*
X807035Y518679D01*
X807206Y518589D01*
X807215Y518586D01*
X807222Y518582D01*
X807407Y518529D01*
X807592Y518474D01*
X807601Y518473D01*
X807609Y518471D01*
X807800Y518455D01*
X807993Y518438D01*
X808002Y518439D01*
X808011Y518438D01*
X808200Y518460D01*
X808393Y518481D01*
X808402Y518484D01*
X808410Y518485D01*
X808592Y518544D01*
X808777Y518603D01*
X808785Y518607D01*
X808793Y518610D01*
X808962Y518705D01*
X809129Y518798D01*
X809136Y518803D01*
X809144Y518808D01*
X809290Y518934D01*
X809436Y519058D01*
X809442Y519065D01*
X809449Y519071D01*
X809566Y519222D01*
X809686Y519374D01*
X809690Y519382D01*
X809695Y519389D01*
X809781Y519561D01*
X809868Y519733D01*
X809871Y519741D01*
X809875Y519750D01*
X809925Y519935D01*
X809976Y520121D01*
X809977Y520130D01*
X809979Y520138D01*
X810006Y520469D01*
X810006Y525343D01*
X810004Y525370D01*
X810006Y525397D01*
X809984Y525571D01*
X809966Y525744D01*
X809959Y525770D01*
X809955Y525796D01*
X809900Y525962D01*
X809848Y526129D01*
X809835Y526153D01*
X809827Y526178D01*
X809740Y526330D01*
X809656Y526483D01*
X809639Y526503D01*
X809626Y526527D01*
X809538Y526630D01*
X809538Y534685D01*
X809537Y534694D01*
X809538Y534703D01*
X809517Y534895D01*
X809498Y535085D01*
X809496Y535094D01*
X809495Y535103D01*
X809437Y535285D01*
X809380Y535470D01*
X809376Y535478D01*
X809373Y535487D01*
X809280Y535655D01*
X809188Y535824D01*
X809183Y535831D01*
X809178Y535839D01*
X809053Y535987D01*
X808931Y536134D01*
X808924Y536139D01*
X808918Y536146D01*
X808766Y536266D01*
X808617Y536386D01*
X808609Y536390D01*
X808602Y536396D01*
X808429Y536483D01*
X808260Y536572D01*
X808251Y536574D01*
X808243Y536578D01*
X808058Y536630D01*
X807873Y536683D01*
X807864Y536684D01*
X807855Y536686D01*
X807663Y536700D01*
X807471Y536716D01*
X807463Y536715D01*
X807454Y536715D01*
X807262Y536691D01*
X807072Y536669D01*
X807063Y536666D01*
X807054Y536665D01*
X806872Y536604D01*
X806689Y536544D01*
X806681Y536540D01*
X806673Y536537D01*
X806505Y536441D01*
X806338Y536346D01*
X806331Y536340D01*
X806324Y536336D01*
X806071Y536121D01*
X805753Y535804D01*
X797000Y535804D01*
X796973Y535801D01*
X796947Y535803D01*
X796773Y535781D01*
X796599Y535764D01*
X796574Y535756D01*
X796547Y535753D01*
X796382Y535697D01*
X796214Y535646D01*
X796191Y535633D01*
X796166Y535625D01*
X796014Y535537D01*
X795860Y535454D01*
X795840Y535437D01*
X795817Y535424D01*
X795564Y535209D01*
X785075Y524720D01*
X785058Y524699D01*
X785037Y524682D01*
X784930Y524544D01*
X784820Y524408D01*
X784807Y524385D01*
X784791Y524364D01*
X784713Y524207D01*
X784631Y524053D01*
X784623Y524027D01*
X784611Y524003D01*
X784566Y523834D01*
X784516Y523667D01*
X784514Y523640D01*
X784507Y523614D01*
X784480Y523284D01*
X784480Y522238D01*
X783556Y520008D01*
X783092Y519544D01*
X783077Y519526D01*
X783060Y519512D01*
X782950Y519371D01*
X782836Y519232D01*
X782826Y519212D01*
X782812Y519195D01*
X782732Y519035D01*
X782648Y518876D01*
X782641Y518855D01*
X782631Y518835D01*
X782584Y518662D01*
X782533Y518491D01*
X782531Y518468D01*
X782525Y518447D01*
X782513Y518268D01*
X782497Y518090D01*
X782499Y518067D01*
X782498Y518045D01*
X782521Y517867D01*
X782540Y517689D01*
X782547Y517668D01*
X782550Y517646D01*
X782651Y517330D01*
X783547Y515168D01*
X783547Y512753D01*
X782623Y510523D01*
X780916Y508816D01*
X778685Y507892D01*
X776271Y507892D01*
X774040Y508816D01*
X772333Y510523D01*
X771409Y512753D01*
X771409Y513480D01*
X771407Y513506D01*
X771409Y513533D01*
X771387Y513707D01*
X771369Y513880D01*
X771362Y513906D01*
X771358Y513933D01*
X771303Y514098D01*
X771251Y514265D01*
X771239Y514289D01*
X771230Y514314D01*
X771143Y514466D01*
X771060Y514619D01*
X771043Y514640D01*
X771029Y514663D01*
X770814Y514916D01*
X767008Y518722D01*
X767008Y532070D01*
X787822Y552884D01*
X787823Y552884D01*
X790925Y555986D01*
X790942Y556007D01*
X790962Y556024D01*
X791069Y556162D01*
X791180Y556298D01*
X791192Y556321D01*
X791209Y556343D01*
X791287Y556499D01*
X791368Y556653D01*
X791376Y556679D01*
X791388Y556703D01*
X791433Y556872D01*
X791483Y557039D01*
X791485Y557066D01*
X791492Y557092D01*
X791520Y557423D01*
X791520Y562597D01*
X792859Y563937D01*
X805753Y563937D01*
X806031Y563659D01*
X806038Y563654D01*
X806043Y563647D01*
X806192Y563527D01*
X806342Y563404D01*
X806350Y563400D01*
X806357Y563395D01*
X806526Y563307D01*
X806698Y563216D01*
X806707Y563213D01*
X806714Y563209D01*
X806898Y563156D01*
X807084Y563101D01*
X807093Y563100D01*
X807101Y563098D01*
X807292Y563082D01*
X807485Y563065D01*
X807494Y563066D01*
X807503Y563065D01*
X807692Y563087D01*
X807885Y563108D01*
X807894Y563111D01*
X807902Y563112D01*
X808085Y563171D01*
X808269Y563229D01*
X808277Y563234D01*
X808285Y563237D01*
X808454Y563332D01*
X808621Y563424D01*
X808628Y563430D01*
X808636Y563434D01*
X808782Y563561D01*
X808928Y563685D01*
X808934Y563692D01*
X808941Y563698D01*
X809059Y563850D01*
X809178Y564001D01*
X809182Y564009D01*
X809187Y564016D01*
X809274Y564189D01*
X809360Y564360D01*
X809363Y564368D01*
X809367Y564376D01*
X809417Y564564D01*
X809468Y564748D01*
X809469Y564756D01*
X809471Y564765D01*
X809498Y565096D01*
X809498Y567635D01*
X810233Y569409D01*
X814828Y574004D01*
X816602Y574739D01*
X829635Y574739D01*
X831409Y574004D01*
X834417Y570997D01*
X835255Y568974D01*
X835265Y568955D01*
X835272Y568934D01*
X835360Y568777D01*
X835445Y568620D01*
X835459Y568602D01*
X835470Y568583D01*
X835587Y568448D01*
X835701Y568309D01*
X835718Y568295D01*
X835733Y568278D01*
X835874Y568169D01*
X836014Y568055D01*
X836034Y568045D01*
X836051Y568031D01*
X836212Y567952D01*
X836370Y567868D01*
X836392Y567862D01*
X836412Y567852D01*
X836585Y567806D01*
X836757Y567755D01*
X836779Y567753D01*
X836800Y567748D01*
X837131Y567720D01*
X838407Y567720D01*
X838425Y567722D01*
X838443Y567721D01*
X838625Y567742D01*
X838808Y567760D01*
X838825Y567766D01*
X838842Y567768D01*
X839017Y567825D01*
X839193Y567879D01*
X839208Y567887D01*
X839225Y567893D01*
X839385Y567983D01*
X839547Y568070D01*
X839560Y568082D01*
X839576Y568090D01*
X839715Y568211D01*
X839856Y568328D01*
X839867Y568342D01*
X839881Y568354D01*
X839993Y568499D01*
X840108Y568642D01*
X840116Y568658D01*
X840127Y568672D01*
X840209Y568837D01*
X840294Y568999D01*
X840299Y569016D01*
X840307Y569032D01*
X840354Y569210D01*
X840405Y569386D01*
X840407Y569404D01*
X840411Y569421D01*
X840438Y569752D01*
X840438Y574144D01*
X841778Y575484D01*
X851915Y575484D01*
X851941Y575486D01*
X851968Y575484D01*
X852142Y575506D01*
X852315Y575524D01*
X852341Y575531D01*
X852367Y575535D01*
X852533Y575590D01*
X852700Y575642D01*
X852724Y575654D01*
X852749Y575663D01*
X852901Y575750D01*
X853054Y575833D01*
X853075Y575850D01*
X853098Y575864D01*
X853351Y576079D01*
X854359Y577087D01*
X862795Y577087D01*
X862808Y577088D01*
X862821Y577087D01*
X863007Y577108D01*
X863195Y577127D01*
X863208Y577131D01*
X863221Y577132D01*
X863400Y577190D01*
X863580Y577245D01*
X863592Y577251D01*
X863605Y577255D01*
X863769Y577347D01*
X863934Y577437D01*
X863944Y577445D01*
X863956Y577452D01*
X864099Y577574D01*
X864243Y577694D01*
X864252Y577705D01*
X864262Y577713D01*
X864378Y577862D01*
X864496Y578008D01*
X864502Y578020D01*
X864510Y578030D01*
X864595Y578200D01*
X864681Y578365D01*
X864685Y578378D01*
X864691Y578390D01*
X864741Y578573D01*
X864793Y578752D01*
X864794Y578766D01*
X864797Y578779D01*
X864810Y578967D01*
X864825Y579154D01*
X864824Y579167D01*
X864825Y579180D01*
X864800Y579367D01*
X864779Y579553D01*
X864774Y579566D01*
X864773Y579579D01*
X864671Y579895D01*
X863881Y581802D01*
X863881Y584217D01*
X864805Y586447D01*
X866512Y588154D01*
X868743Y589078D01*
X871157Y589078D01*
X873245Y588213D01*
X873258Y588209D01*
X873270Y588203D01*
X873451Y588151D01*
X873631Y588097D01*
X873644Y588095D01*
X873657Y588092D01*
X873846Y588076D01*
X874032Y588059D01*
X874045Y588060D01*
X874058Y588059D01*
X874245Y588081D01*
X874432Y588100D01*
X874445Y588104D01*
X874458Y588106D01*
X874636Y588164D01*
X874816Y588220D01*
X874828Y588226D01*
X874841Y588231D01*
X875005Y588323D01*
X875170Y588413D01*
X875180Y588422D01*
X875191Y588428D01*
X875334Y588551D01*
X875478Y588672D01*
X875486Y588683D01*
X875496Y588692D01*
X875611Y588839D01*
X875729Y588987D01*
X875735Y588999D01*
X875743Y589010D01*
X875827Y589178D01*
X875913Y589345D01*
X875916Y589358D01*
X875922Y589370D01*
X875971Y589552D01*
X876022Y589733D01*
X876023Y589746D01*
X876027Y589759D01*
X876054Y590090D01*
X876054Y599110D01*
X877393Y600449D01*
X890288Y600449D01*
X891627Y599110D01*
X891627Y587215D01*
X890288Y585876D01*
X887331Y585876D01*
X887304Y585873D01*
X887278Y585875D01*
X887104Y585853D01*
X886930Y585836D01*
X886905Y585828D01*
X886878Y585825D01*
X886713Y585769D01*
X886545Y585718D01*
X886522Y585705D01*
X886497Y585696D01*
X886345Y585609D01*
X886191Y585526D01*
X886171Y585509D01*
X886148Y585496D01*
X885895Y585281D01*
X873188Y572574D01*
X873171Y572553D01*
X873151Y572536D01*
X873044Y572398D01*
X872933Y572263D01*
X872920Y572239D01*
X872904Y572218D01*
X872826Y572061D01*
X872744Y571907D01*
X872737Y571881D01*
X872725Y571857D01*
X872679Y571688D01*
X872629Y571521D01*
X872627Y571494D01*
X872620Y571468D01*
X872593Y571138D01*
X872593Y560853D01*
X871977Y560236D01*
X871965Y560223D01*
X871952Y560211D01*
X871837Y560066D01*
X871721Y559925D01*
X871713Y559909D01*
X871702Y559895D01*
X871619Y559731D01*
X871533Y559569D01*
X871528Y559552D01*
X871520Y559536D01*
X871470Y559359D01*
X871418Y559183D01*
X871416Y559165D01*
X871412Y559148D01*
X871398Y558965D01*
X871382Y558782D01*
X871384Y558764D01*
X871382Y558747D01*
X871405Y558565D01*
X871425Y558382D01*
X871430Y558365D01*
X871433Y558347D01*
X871491Y558174D01*
X871547Y557998D01*
X871555Y557982D01*
X871561Y557966D01*
X871652Y557807D01*
X871741Y557646D01*
X871753Y557632D01*
X871762Y557617D01*
X871976Y557364D01*
X872593Y556747D01*
X872593Y541853D01*
X871253Y540513D01*
X854359Y540513D01*
X852557Y542315D01*
X852536Y542332D01*
X852519Y542352D01*
X852381Y542459D01*
X852246Y542570D01*
X852222Y542583D01*
X852201Y542599D01*
X852044Y542677D01*
X851890Y542759D01*
X851864Y542766D01*
X851840Y542778D01*
X851671Y542824D01*
X851504Y542874D01*
X851477Y542876D01*
X851452Y542883D01*
X851121Y542910D01*
X841778Y542910D01*
X840438Y544250D01*
X840438Y544339D01*
X840436Y544361D01*
X840438Y544383D01*
X840416Y544561D01*
X840398Y544739D01*
X840392Y544761D01*
X840389Y544783D01*
X840333Y544953D01*
X840280Y545124D01*
X840270Y545144D01*
X840263Y545165D01*
X840174Y545321D01*
X840088Y545478D01*
X840074Y545495D01*
X840063Y545515D01*
X839945Y545651D01*
X839831Y545788D01*
X839813Y545802D01*
X839799Y545818D01*
X839657Y545928D01*
X839517Y546040D01*
X839497Y546050D01*
X839479Y546064D01*
X839184Y546215D01*
X837960Y546722D01*
X837947Y546726D01*
X837936Y546733D01*
X837755Y546784D01*
X837575Y546839D01*
X837562Y546840D01*
X837549Y546844D01*
X837361Y546859D01*
X837174Y546877D01*
X837161Y546876D01*
X837147Y546877D01*
X836960Y546855D01*
X836774Y546835D01*
X836761Y546831D01*
X836748Y546830D01*
X836568Y546771D01*
X836389Y546716D01*
X836378Y546709D01*
X836365Y546705D01*
X836200Y546612D01*
X836036Y546522D01*
X836026Y546514D01*
X836014Y546507D01*
X835872Y546384D01*
X835728Y546263D01*
X835720Y546253D01*
X835709Y546244D01*
X835594Y546096D01*
X835477Y545948D01*
X835471Y545936D01*
X835463Y545926D01*
X835379Y545757D01*
X835293Y545590D01*
X835289Y545577D01*
X835283Y545565D01*
X835234Y545382D01*
X835183Y545203D01*
X835182Y545190D01*
X835179Y545177D01*
X835152Y544846D01*
X835152Y537037D01*
X835150Y537031D01*
X835147Y537000D01*
X835139Y536970D01*
X835112Y536639D01*
X835112Y527278D01*
X835114Y527252D01*
X835112Y527225D01*
X835134Y527051D01*
X835152Y526878D01*
X835159Y526852D01*
X835163Y526826D01*
X835218Y526660D01*
X835270Y526493D01*
X835283Y526469D01*
X835291Y526444D01*
X835378Y526292D01*
X835462Y526139D01*
X835479Y526118D01*
X835492Y526095D01*
X835707Y525842D01*
X840342Y521207D01*
X840363Y521190D01*
X840380Y521169D01*
X840518Y521062D01*
X840654Y520952D01*
X840677Y520939D01*
X840698Y520923D01*
X840855Y520845D01*
X841009Y520763D01*
X841035Y520755D01*
X841059Y520743D01*
X841228Y520698D01*
X841395Y520648D01*
X841422Y520646D01*
X841448Y520639D01*
X841778Y520612D01*
X852188Y520612D01*
X853527Y519272D01*
X853527Y507378D01*
X852188Y506038D01*
X845010Y506038D01*
X844917Y506029D01*
X844823Y506030D01*
X844717Y506009D01*
X844610Y505998D01*
X844520Y505971D01*
X844427Y505953D01*
X844328Y505912D01*
X844225Y505880D01*
X844142Y505835D01*
X844055Y505800D01*
X843966Y505740D01*
X843871Y505688D01*
X843799Y505628D01*
X843720Y505576D01*
X843625Y505483D01*
X843562Y505431D01*
X843530Y505392D01*
X843482Y505345D01*
X842254Y503942D01*
X842161Y503811D01*
X842063Y503685D01*
X842044Y503648D01*
X842021Y503615D01*
X841955Y503468D01*
X841922Y503402D01*
X841598Y503078D01*
X841581Y503058D01*
X841561Y503040D01*
X841454Y502902D01*
X841343Y502767D01*
X841331Y502743D01*
X841314Y502722D01*
X841236Y502565D01*
X841155Y502411D01*
X841147Y502386D01*
X841135Y502361D01*
X841089Y502192D01*
X841040Y502025D01*
X841037Y501999D01*
X841030Y501973D01*
X841003Y501642D01*
X841003Y500237D01*
X840079Y498007D01*
X838372Y496300D01*
X836142Y495376D01*
X833727Y495376D01*
G37*
%LPD*%
G36*
X954266Y593667D02*
X954266Y593667D01*
X954309Y593666D01*
X958302Y594267D01*
X958332Y594278D01*
X958375Y594283D01*
X962234Y595472D01*
X962262Y595487D01*
X962303Y595499D01*
X965941Y597250D01*
X965963Y597267D01*
X965989Y597276D01*
X966042Y597326D01*
X966100Y597370D01*
X966113Y597394D01*
X966133Y597413D01*
X966163Y597479D01*
X966199Y597543D01*
X966202Y597570D01*
X966213Y597595D01*
X966214Y597668D01*
X966223Y597740D01*
X966215Y597766D01*
X966215Y597794D01*
X966179Y597892D01*
X966167Y597931D01*
X966161Y597939D01*
X966157Y597950D01*
X939157Y644750D01*
X939139Y644770D01*
X939128Y644795D01*
X939074Y644844D01*
X939026Y644899D01*
X939001Y644910D01*
X938981Y644929D01*
X938912Y644953D01*
X938846Y644984D01*
X938819Y644986D01*
X938794Y644995D01*
X938721Y644990D01*
X938648Y644993D01*
X938622Y644984D01*
X938595Y644982D01*
X938499Y644938D01*
X938461Y644924D01*
X938454Y644917D01*
X938444Y644913D01*
X935107Y642639D01*
X935085Y642616D01*
X935049Y642593D01*
X932088Y639847D01*
X932069Y639821D01*
X932037Y639793D01*
X929519Y636637D01*
X929504Y636608D01*
X929477Y636575D01*
X927457Y633079D01*
X927447Y633049D01*
X927424Y633012D01*
X925948Y629254D01*
X925943Y629222D01*
X925926Y629182D01*
X925026Y625246D01*
X925026Y625214D01*
X925015Y625172D01*
X924712Y621146D01*
X924715Y621123D01*
X924712Y621103D01*
X924714Y621093D01*
X924712Y621072D01*
X925013Y617045D01*
X925021Y617014D01*
X925024Y616971D01*
X925921Y613035D01*
X925934Y613006D01*
X925943Y612963D01*
X927417Y609204D01*
X927434Y609177D01*
X927449Y609137D01*
X929467Y605640D01*
X929488Y605616D01*
X929509Y605578D01*
X932025Y602420D01*
X932050Y602400D01*
X932076Y602366D01*
X935035Y599618D01*
X935062Y599602D01*
X935093Y599572D01*
X938429Y597296D01*
X938458Y597284D01*
X938493Y597259D01*
X942131Y595506D01*
X942161Y595498D01*
X942200Y595479D01*
X946058Y594287D01*
X946090Y594284D01*
X946131Y594271D01*
X950123Y593668D01*
X950155Y593669D01*
X950197Y593662D01*
X954235Y593661D01*
X954266Y593667D01*
G37*
G36*
X694453Y593662D02*
X694453Y593662D01*
X694484Y593668D01*
X694527Y593668D01*
X698519Y594271D01*
X698549Y594282D01*
X698592Y594287D01*
X702450Y595479D01*
X702478Y595494D01*
X702520Y595506D01*
X706157Y597259D01*
X706182Y597278D01*
X706221Y597296D01*
X709557Y599572D01*
X709579Y599595D01*
X709615Y599618D01*
X712574Y602366D01*
X712593Y602391D01*
X712625Y602420D01*
X715141Y605578D01*
X715156Y605606D01*
X715183Y605640D01*
X717201Y609137D01*
X717211Y609167D01*
X717233Y609204D01*
X718707Y612963D01*
X718713Y612995D01*
X718729Y613035D01*
X719626Y616971D01*
X719627Y617003D01*
X719637Y617045D01*
X719938Y621072D01*
X719934Y621103D01*
X719935Y621119D01*
X719938Y621136D01*
X719937Y621140D01*
X719938Y621146D01*
X719635Y625172D01*
X719626Y625203D01*
X719624Y625246D01*
X718724Y629182D01*
X718711Y629211D01*
X718702Y629254D01*
X717226Y633012D01*
X717208Y633039D01*
X717193Y633079D01*
X715173Y636575D01*
X715152Y636599D01*
X715131Y636637D01*
X712613Y639793D01*
X712588Y639813D01*
X712562Y639847D01*
X709601Y642593D01*
X709574Y642609D01*
X709543Y642639D01*
X706206Y644913D01*
X706181Y644923D01*
X706160Y644940D01*
X706090Y644961D01*
X706023Y644990D01*
X705995Y644990D01*
X705969Y644997D01*
X705897Y644989D01*
X705824Y644989D01*
X705799Y644978D01*
X705772Y644975D01*
X705708Y644939D01*
X705641Y644911D01*
X705622Y644891D01*
X705599Y644878D01*
X705532Y644797D01*
X705503Y644767D01*
X705500Y644758D01*
X705493Y644750D01*
X678493Y597950D01*
X678484Y597924D01*
X678468Y597901D01*
X678453Y597830D01*
X678429Y597761D01*
X678432Y597734D01*
X678426Y597707D01*
X678439Y597636D01*
X678445Y597563D01*
X678458Y597538D01*
X678463Y597512D01*
X678503Y597451D01*
X678537Y597386D01*
X678558Y597369D01*
X678573Y597346D01*
X678659Y597285D01*
X678690Y597260D01*
X678699Y597257D01*
X678709Y597250D01*
X682347Y595499D01*
X682378Y595492D01*
X682416Y595472D01*
X686275Y594283D01*
X686307Y594280D01*
X686348Y594267D01*
X690341Y593666D01*
X690372Y593668D01*
X690415Y593661D01*
X694453Y593662D01*
G37*
G36*
X938753Y447211D02*
X938753Y447211D01*
X938826Y447211D01*
X938851Y447222D01*
X938878Y447225D01*
X938942Y447261D01*
X939009Y447289D01*
X939028Y447309D01*
X939051Y447322D01*
X939119Y447403D01*
X939147Y447433D01*
X939150Y447442D01*
X939157Y447451D01*
X966157Y494251D01*
X966166Y494276D01*
X966182Y494299D01*
X966197Y494370D01*
X966221Y494439D01*
X966218Y494466D01*
X966224Y494493D01*
X966211Y494564D01*
X966205Y494637D01*
X966192Y494662D01*
X966187Y494688D01*
X966147Y494749D01*
X966113Y494814D01*
X966092Y494831D01*
X966077Y494854D01*
X965991Y494915D01*
X965960Y494940D01*
X965951Y494943D01*
X965941Y494950D01*
X962303Y496701D01*
X962272Y496708D01*
X962234Y496728D01*
X958375Y497917D01*
X958343Y497920D01*
X958302Y497933D01*
X954309Y498534D01*
X954278Y498532D01*
X954235Y498539D01*
X950197Y498538D01*
X950166Y498532D01*
X950123Y498532D01*
X946131Y497929D01*
X946101Y497918D01*
X946058Y497913D01*
X942200Y496721D01*
X942172Y496706D01*
X942131Y496694D01*
X938493Y494941D01*
X938468Y494922D01*
X938429Y494904D01*
X935093Y492628D01*
X935071Y492605D01*
X935035Y492582D01*
X932076Y489834D01*
X932057Y489809D01*
X932025Y489780D01*
X929509Y486622D01*
X929494Y486594D01*
X929467Y486560D01*
X927449Y483063D01*
X927439Y483033D01*
X927417Y482996D01*
X925943Y479237D01*
X925937Y479205D01*
X925921Y479165D01*
X925024Y475229D01*
X925023Y475197D01*
X925013Y475155D01*
X924712Y471129D01*
X924716Y471097D01*
X924712Y471054D01*
X925015Y467028D01*
X925024Y466997D01*
X925026Y466954D01*
X925926Y463018D01*
X925939Y462989D01*
X925948Y462946D01*
X927424Y459188D01*
X927442Y459161D01*
X927457Y459121D01*
X929477Y455625D01*
X929498Y455601D01*
X929519Y455563D01*
X932037Y452407D01*
X932062Y452387D01*
X932088Y452353D01*
X935049Y449607D01*
X935076Y449591D01*
X935107Y449561D01*
X938444Y447287D01*
X938469Y447277D01*
X938490Y447260D01*
X938560Y447239D01*
X938627Y447210D01*
X938655Y447211D01*
X938681Y447203D01*
X938753Y447211D01*
G37*
G36*
X705929Y447210D02*
X705929Y447210D01*
X706002Y447207D01*
X706028Y447216D01*
X706055Y447218D01*
X706151Y447262D01*
X706189Y447276D01*
X706196Y447283D01*
X706206Y447287D01*
X709543Y449561D01*
X709565Y449584D01*
X709601Y449607D01*
X712562Y452353D01*
X712581Y452379D01*
X712613Y452407D01*
X715131Y455563D01*
X715146Y455592D01*
X715173Y455625D01*
X717193Y459121D01*
X717203Y459151D01*
X717226Y459188D01*
X718702Y462946D01*
X718707Y462978D01*
X718724Y463018D01*
X719624Y466954D01*
X719624Y466986D01*
X719635Y467028D01*
X719938Y471054D01*
X719934Y471085D01*
X719938Y471129D01*
X719637Y475155D01*
X719629Y475186D01*
X719626Y475229D01*
X718729Y479165D01*
X718716Y479194D01*
X718707Y479237D01*
X717233Y482996D01*
X717216Y483023D01*
X717201Y483063D01*
X715183Y486560D01*
X715162Y486584D01*
X715141Y486622D01*
X712625Y489780D01*
X712600Y489800D01*
X712574Y489834D01*
X709615Y492582D01*
X709588Y492598D01*
X709557Y492628D01*
X706221Y494904D01*
X706192Y494916D01*
X706157Y494941D01*
X702520Y496694D01*
X702489Y496702D01*
X702450Y496721D01*
X698592Y497913D01*
X698560Y497916D01*
X698519Y497929D01*
X694527Y498532D01*
X694495Y498531D01*
X694453Y498538D01*
X690415Y498539D01*
X690384Y498533D01*
X690341Y498534D01*
X686348Y497933D01*
X686318Y497922D01*
X686275Y497917D01*
X682416Y496728D01*
X682388Y496713D01*
X682347Y496701D01*
X678709Y494950D01*
X678687Y494933D01*
X678661Y494924D01*
X678608Y494874D01*
X678550Y494830D01*
X678537Y494806D01*
X678517Y494787D01*
X678487Y494721D01*
X678451Y494657D01*
X678448Y494630D01*
X678437Y494605D01*
X678436Y494532D01*
X678427Y494460D01*
X678435Y494434D01*
X678435Y494406D01*
X678471Y494308D01*
X678483Y494269D01*
X678489Y494261D01*
X678493Y494251D01*
X705493Y447451D01*
X705511Y447430D01*
X705522Y447405D01*
X705576Y447356D01*
X705624Y447302D01*
X705649Y447290D01*
X705669Y447271D01*
X705738Y447247D01*
X705804Y447216D01*
X705831Y447215D01*
X705856Y447205D01*
X705929Y447210D01*
G37*
G36*
X824374Y668683D02*
X824374Y668683D01*
X824417Y668682D01*
X828407Y669283D01*
X828437Y669294D01*
X828480Y669300D01*
X832336Y670489D01*
X832364Y670505D01*
X832406Y670517D01*
X836042Y672268D01*
X836067Y672287D01*
X836106Y672305D01*
X839440Y674578D01*
X839463Y674601D01*
X839499Y674625D01*
X842457Y677369D01*
X842476Y677395D01*
X842508Y677424D01*
X845024Y680579D01*
X845038Y680607D01*
X845066Y680641D01*
X847084Y684136D01*
X847094Y684166D01*
X847116Y684203D01*
X848590Y687959D01*
X848591Y687966D01*
X848593Y687967D01*
X848597Y687994D01*
X848612Y688031D01*
X849510Y691965D01*
X849511Y691997D01*
X849521Y692039D01*
X849823Y696063D01*
X849819Y696090D01*
X849824Y696117D01*
X849807Y696187D01*
X849798Y696260D01*
X849784Y696284D01*
X849778Y696310D01*
X849735Y696369D01*
X849698Y696432D01*
X849676Y696448D01*
X849660Y696470D01*
X849597Y696507D01*
X849539Y696551D01*
X849512Y696558D01*
X849489Y696572D01*
X849385Y696589D01*
X849346Y696599D01*
X849336Y696597D01*
X849325Y696599D01*
X795325Y696599D01*
X795298Y696594D01*
X795271Y696596D01*
X795202Y696574D01*
X795130Y696560D01*
X795108Y696544D01*
X795082Y696536D01*
X795026Y696488D01*
X794966Y696447D01*
X794952Y696424D01*
X794931Y696406D01*
X794899Y696341D01*
X794859Y696280D01*
X794855Y696253D01*
X794843Y696228D01*
X794833Y696124D01*
X794826Y696083D01*
X794828Y696074D01*
X794827Y696063D01*
X795129Y692039D01*
X795137Y692008D01*
X795140Y691965D01*
X796038Y688031D01*
X796051Y688002D01*
X796060Y687959D01*
X797534Y684203D01*
X797551Y684176D01*
X797566Y684136D01*
X799584Y680641D01*
X799605Y680617D01*
X799626Y680579D01*
X802142Y677424D01*
X802167Y677404D01*
X802193Y677369D01*
X805151Y674625D01*
X805178Y674608D01*
X805210Y674578D01*
X808544Y672305D01*
X808573Y672292D01*
X808608Y672268D01*
X812244Y670517D01*
X812275Y670509D01*
X812314Y670489D01*
X816170Y669300D01*
X816201Y669297D01*
X816243Y669283D01*
X820233Y668682D01*
X820265Y668683D01*
X820307Y668676D01*
X824343Y668676D01*
X824374Y668683D01*
G37*
G36*
X849352Y395606D02*
X849352Y395606D01*
X849379Y395604D01*
X849448Y395626D01*
X849520Y395640D01*
X849542Y395656D01*
X849568Y395664D01*
X849624Y395712D01*
X849684Y395753D01*
X849698Y395776D01*
X849719Y395794D01*
X849752Y395859D01*
X849791Y395920D01*
X849795Y395947D01*
X849807Y395972D01*
X849817Y396076D01*
X849824Y396117D01*
X849822Y396126D01*
X849823Y396137D01*
X849521Y400161D01*
X849513Y400192D01*
X849510Y400235D01*
X848612Y404169D01*
X848599Y404198D01*
X848590Y404241D01*
X847116Y407997D01*
X847099Y408024D01*
X847084Y408065D01*
X845066Y411559D01*
X845045Y411583D01*
X845024Y411621D01*
X842508Y414776D01*
X842483Y414796D01*
X842457Y414831D01*
X839499Y417575D01*
X839472Y417592D01*
X839440Y417622D01*
X836106Y419895D01*
X836077Y419908D01*
X836042Y419933D01*
X832406Y421683D01*
X832375Y421691D01*
X832336Y421711D01*
X828480Y422900D01*
X828449Y422903D01*
X828407Y422917D01*
X824417Y423518D01*
X824385Y423517D01*
X824343Y423524D01*
X820307Y423524D01*
X820276Y423517D01*
X820233Y423518D01*
X816243Y422917D01*
X816213Y422906D01*
X816170Y422900D01*
X812314Y421711D01*
X812286Y421695D01*
X812244Y421683D01*
X808608Y419933D01*
X808583Y419913D01*
X808544Y419895D01*
X805210Y417622D01*
X805187Y417599D01*
X805151Y417575D01*
X802193Y414831D01*
X802175Y414805D01*
X802142Y414776D01*
X799626Y411621D01*
X799612Y411593D01*
X799584Y411559D01*
X797566Y408065D01*
X797556Y408034D01*
X797534Y407997D01*
X796060Y404241D01*
X796054Y404209D01*
X796038Y404169D01*
X795140Y400235D01*
X795139Y400203D01*
X795129Y400161D01*
X794827Y396137D01*
X794831Y396110D01*
X794826Y396083D01*
X794843Y396013D01*
X794852Y395940D01*
X794866Y395916D01*
X794872Y395890D01*
X794915Y395831D01*
X794952Y395768D01*
X794974Y395752D01*
X794990Y395730D01*
X795053Y395693D01*
X795111Y395649D01*
X795138Y395642D01*
X795161Y395628D01*
X795265Y395611D01*
X795304Y395601D01*
X795314Y395603D01*
X795325Y395601D01*
X849325Y395601D01*
X849352Y395606D01*
G37*
%LPC*%
G36*
X750504Y581040D02*
X750504Y581040D01*
X746863Y582548D01*
X744076Y585335D01*
X742568Y588976D01*
X742568Y592918D01*
X744076Y596559D01*
X746545Y599027D01*
X746562Y599048D01*
X746583Y599066D01*
X746690Y599204D01*
X746800Y599339D01*
X746813Y599363D01*
X746829Y599384D01*
X746907Y599541D01*
X746989Y599695D01*
X746997Y599720D01*
X747009Y599744D01*
X747054Y599914D01*
X747104Y600081D01*
X747106Y600107D01*
X747113Y600133D01*
X747140Y600464D01*
X747140Y606830D01*
X747138Y606857D01*
X747140Y606883D01*
X747118Y607057D01*
X747100Y607231D01*
X747093Y607256D01*
X747089Y607283D01*
X747034Y607448D01*
X746982Y607616D01*
X746969Y607639D01*
X746961Y607664D01*
X746874Y607816D01*
X746790Y607970D01*
X746773Y607990D01*
X746760Y608013D01*
X746545Y608266D01*
X744076Y610735D01*
X742568Y614376D01*
X742568Y618318D01*
X744076Y621959D01*
X746863Y624745D01*
X750504Y626254D01*
X754446Y626254D01*
X758087Y624745D01*
X760874Y621959D01*
X762382Y618318D01*
X762382Y614376D01*
X760874Y610735D01*
X758405Y608266D01*
X758388Y608246D01*
X758367Y608228D01*
X758260Y608090D01*
X758150Y607955D01*
X758137Y607931D01*
X758121Y607910D01*
X758043Y607753D01*
X757961Y607599D01*
X757953Y607574D01*
X757941Y607549D01*
X757896Y607380D01*
X757846Y607213D01*
X757844Y607187D01*
X757837Y607161D01*
X757810Y606830D01*
X757810Y600464D01*
X757812Y600437D01*
X757810Y600410D01*
X757832Y600237D01*
X757850Y600063D01*
X757857Y600038D01*
X757861Y600011D01*
X757916Y599845D01*
X757968Y599678D01*
X757981Y599655D01*
X757989Y599629D01*
X758076Y599478D01*
X758160Y599324D01*
X758177Y599304D01*
X758190Y599280D01*
X758405Y599027D01*
X760874Y596559D01*
X762382Y592918D01*
X762382Y588976D01*
X760874Y585335D01*
X758087Y582548D01*
X754446Y581040D01*
X750504Y581040D01*
G37*
%LPD*%
%LPC*%
G36*
X770715Y628931D02*
X770715Y628931D01*
X768484Y629855D01*
X766777Y631562D01*
X765853Y633793D01*
X765853Y636207D01*
X766433Y637606D01*
X766442Y637636D01*
X766455Y637664D01*
X766500Y637828D01*
X766549Y637991D01*
X766552Y638022D01*
X766560Y638052D01*
X766587Y638383D01*
X766587Y652651D01*
X766584Y652682D01*
X766586Y652713D01*
X766564Y652883D01*
X766547Y653052D01*
X766538Y653082D01*
X766534Y653113D01*
X766433Y653429D01*
X765853Y654827D01*
X765853Y657242D01*
X766777Y659472D01*
X768484Y661179D01*
X770715Y662103D01*
X773129Y662103D01*
X775360Y661179D01*
X777067Y659472D01*
X777991Y657242D01*
X777991Y654827D01*
X777411Y653429D01*
X777402Y653399D01*
X777388Y653371D01*
X777344Y653206D01*
X777295Y653043D01*
X777292Y653012D01*
X777284Y652982D01*
X777257Y652651D01*
X777257Y638383D01*
X777260Y638352D01*
X777258Y638321D01*
X777280Y638151D01*
X777297Y637983D01*
X777306Y637953D01*
X777310Y637922D01*
X777411Y637606D01*
X777991Y636207D01*
X777991Y633793D01*
X777067Y631562D01*
X775360Y629855D01*
X773129Y628931D01*
X770715Y628931D01*
G37*
%LPD*%
%LPC*%
G36*
X790558Y478516D02*
X790558Y478516D01*
X788328Y479440D01*
X786621Y481147D01*
X785697Y483377D01*
X785697Y485792D01*
X786621Y488022D01*
X788328Y489729D01*
X790558Y490653D01*
X792973Y490653D01*
X794371Y490074D01*
X794401Y490065D01*
X794429Y490051D01*
X794594Y490007D01*
X794757Y489957D01*
X794788Y489954D01*
X794818Y489946D01*
X795149Y489919D01*
X809417Y489919D01*
X809448Y489922D01*
X809479Y489920D01*
X809649Y489942D01*
X809817Y489959D01*
X809847Y489968D01*
X809878Y489972D01*
X810194Y490074D01*
X811593Y490653D01*
X814007Y490653D01*
X816238Y489729D01*
X817945Y488022D01*
X818869Y485792D01*
X818869Y483377D01*
X817945Y481147D01*
X816238Y479440D01*
X814007Y478516D01*
X811593Y478516D01*
X810194Y479095D01*
X810164Y479104D01*
X810136Y479118D01*
X809972Y479162D01*
X809809Y479211D01*
X809778Y479214D01*
X809748Y479223D01*
X809417Y479250D01*
X795149Y479250D01*
X795118Y479247D01*
X795087Y479249D01*
X794917Y479227D01*
X794748Y479210D01*
X794718Y479201D01*
X794687Y479197D01*
X794371Y479095D01*
X792973Y478516D01*
X790558Y478516D01*
G37*
%LPD*%
%LPC*%
G36*
X921012Y535400D02*
X921012Y535400D01*
X915209Y541203D01*
X915209Y549410D01*
X921012Y555213D01*
X929219Y555213D01*
X935022Y549410D01*
X935022Y541203D01*
X929219Y535400D01*
X921012Y535400D01*
G37*
%LPD*%
%LPC*%
G36*
X750504Y555640D02*
X750504Y555640D01*
X746863Y557148D01*
X744076Y559935D01*
X742568Y563576D01*
X742568Y567518D01*
X744076Y571159D01*
X746863Y573945D01*
X750504Y575454D01*
X754446Y575454D01*
X758087Y573945D01*
X760874Y571159D01*
X762382Y567518D01*
X762382Y563576D01*
X760874Y559935D01*
X758087Y557148D01*
X754446Y555640D01*
X750504Y555640D01*
G37*
%LPD*%
%LPC*%
G36*
X948912Y563050D02*
X948912Y563050D01*
X946681Y563974D01*
X944974Y565681D01*
X944050Y567912D01*
X944050Y570326D01*
X944974Y572556D01*
X946681Y574264D01*
X948912Y575187D01*
X951326Y575187D01*
X952725Y574608D01*
X952754Y574599D01*
X952782Y574585D01*
X952947Y574541D01*
X953110Y574492D01*
X953141Y574489D01*
X953171Y574481D01*
X953502Y574453D01*
X962214Y574453D01*
X962245Y574457D01*
X962276Y574454D01*
X962445Y574477D01*
X962614Y574493D01*
X962644Y574503D01*
X962675Y574507D01*
X962991Y574608D01*
X964390Y575187D01*
X966804Y575187D01*
X969035Y574264D01*
X970742Y572556D01*
X971666Y570326D01*
X971666Y567912D01*
X970742Y565681D01*
X969035Y563974D01*
X966804Y563050D01*
X964390Y563050D01*
X962991Y563629D01*
X962961Y563638D01*
X962933Y563652D01*
X962768Y563697D01*
X962606Y563746D01*
X962575Y563749D01*
X962544Y563757D01*
X962214Y563784D01*
X953502Y563784D01*
X953471Y563781D01*
X953440Y563783D01*
X953270Y563761D01*
X953101Y563744D01*
X953072Y563735D01*
X953041Y563731D01*
X952725Y563629D01*
X951326Y563050D01*
X948912Y563050D01*
G37*
%LPD*%
D10*
X847725Y567697D03*
X847725Y550697D03*
D11*
X862806Y568300D03*
X862806Y549300D03*
D12*
X841019Y645716D03*
X856019Y645716D03*
D13*
X883841Y593163D03*
X883841Y610163D03*
D14*
X925116Y545306D03*
D15*
X752475Y616347D03*
X752475Y590947D03*
X752475Y565547D03*
D16*
X904925Y689200D03*
X987525Y546100D03*
X904925Y403000D03*
X739725Y403000D03*
X657125Y546100D03*
X739725Y689200D03*
X946225Y617600D03*
X946225Y474600D03*
X822325Y403000D03*
X698425Y474600D03*
X698425Y617600D03*
X822325Y689200D03*
D13*
X798513Y513325D03*
X798513Y496325D03*
X799306Y543091D03*
X799306Y526091D03*
X845741Y513325D03*
X845741Y496325D03*
X799306Y556650D03*
X799306Y573650D03*
D17*
X830325Y562100D03*
X830325Y554100D03*
X830325Y546100D03*
X830325Y538100D03*
X830325Y530100D03*
X822325Y530100D03*
X814325Y530100D03*
X814325Y538100D03*
X814325Y546100D03*
X814325Y554100D03*
X814325Y562100D03*
X822325Y562100D03*
D18*
X734219Y541734D03*
X702866Y504031D03*
D19*
X703263Y504428D02*
X727869Y504428D01*
X703263Y504428D02*
X702866Y504031D01*
X727869Y504428D02*
X728266Y504031D01*
D18*
X728266Y504031D03*
X791766Y484584D03*
D19*
X812800Y484584D01*
D18*
X812800Y484584D03*
X950119Y569119D03*
D19*
X965597Y569119D01*
D18*
X965597Y569119D03*
X771922Y656034D03*
D19*
X771922Y635000D01*
D18*
X771922Y635000D03*
X868759Y646906D03*
D20*
X857209Y646906D01*
X856019Y645716D01*
D21*
X861409Y550697D02*
X862806Y549300D01*
X861409Y550697D02*
X847725Y550697D01*
X840978Y550697D01*
X837575Y554100D01*
X830325Y554100D01*
X822388Y562038D02*
X822325Y562100D01*
X830325Y546100D02*
X830325Y538100D01*
D22*
X812800Y484584D02*
X813395Y483989D01*
D18*
X881856Y496491D03*
D21*
X861270Y475905D01*
X861270Y475853D01*
D18*
X861270Y475853D03*
X837406Y655638D03*
D22*
X858838Y655638D02*
X859234Y656034D01*
D19*
X858838Y655638D02*
X837406Y655638D01*
D18*
X859234Y656034D03*
D21*
X822325Y562100D02*
X822325Y553641D01*
X822722Y553641D02*
X822722Y546100D01*
X822325Y546100D02*
X822325Y538163D01*
X822325Y530100D01*
X829866Y553641D02*
X830325Y554100D01*
X829866Y553641D02*
X822722Y553641D01*
X822325Y553641D01*
X822722Y546100D02*
X830325Y546100D01*
X822722Y546100D02*
X822325Y546100D01*
X830263Y538163D02*
X830325Y538100D01*
X830263Y538163D02*
X822325Y538163D01*
D18*
X822722Y553641D03*
X719912Y647871D03*
D20*
X703243Y631202D01*
D22*
X703243Y624119D01*
X698425Y619300D02*
X698425Y617600D01*
X698425Y619300D02*
X703243Y624119D01*
X822325Y412739D02*
X822325Y403000D01*
D20*
X822325Y412739D02*
X808911Y421561D01*
X807244Y423228D01*
X807244Y427038D01*
D18*
X807244Y427038D03*
X718741Y490934D03*
D22*
X710344Y474600D02*
X698425Y474600D01*
D20*
X718741Y482997D02*
X718741Y490934D01*
X718741Y482997D02*
X710344Y474600D01*
D21*
X830325Y562100D02*
X830325Y568263D01*
X828675Y569913D01*
X817563Y569913D01*
X814325Y566675D01*
X814325Y562100D01*
X862203Y567697D02*
X862806Y568300D01*
X862203Y567697D02*
X847725Y567697D01*
X842922Y562894D01*
X831119Y562894D01*
X830325Y562100D01*
D23*
X862806Y568300D02*
X875122Y580616D01*
X883841Y589334D01*
X883841Y593163D01*
X875122Y580616D02*
X872344Y580616D01*
X869950Y583009D01*
D18*
X869950Y583009D03*
X919956Y478857D03*
D22*
X942762Y478064D02*
X946225Y474600D01*
X942762Y478064D02*
X931069Y478064D01*
X930275Y478857D01*
D20*
X919956Y478857D01*
D18*
X839929Y666357D03*
D20*
X822325Y683961D02*
X822325Y689200D01*
X822325Y683961D02*
X839929Y666357D01*
D18*
X873522Y506413D03*
D22*
X946225Y591803D02*
X946225Y617600D01*
D20*
X911225Y556816D02*
X873522Y519113D01*
X873522Y506413D01*
D22*
X911225Y556803D02*
X911225Y556816D01*
D20*
X911225Y556803D02*
X946225Y591803D01*
D18*
X835422Y630634D03*
D20*
X835422Y640119D01*
X841019Y645716D01*
D19*
X752475Y616347D02*
X752475Y590947D01*
D22*
X830325Y530100D02*
X830325Y526194D01*
X843194Y513325D02*
X845741Y513325D01*
X843194Y513325D02*
X830325Y526194D01*
X845741Y513325D02*
X838195Y504705D01*
X834935Y501445D01*
D18*
X834935Y501445D03*
D22*
X798513Y513325D02*
X798513Y513536D01*
D18*
X813197Y501650D03*
D23*
X814325Y516669D02*
X814325Y530100D01*
X810981Y513325D02*
X798513Y513325D01*
X810981Y513325D02*
X813197Y515541D01*
X813197Y501650D01*
X813197Y515541D02*
X814325Y516669D01*
D18*
X778411Y523446D03*
D22*
X813531Y546894D02*
X814325Y546100D01*
D23*
X802316Y546100D01*
X799306Y543091D01*
D20*
X798056Y543091D02*
X778411Y523446D01*
X798056Y543091D02*
X799306Y543091D01*
D18*
X777478Y513961D03*
D23*
X801856Y554100D02*
X814325Y554100D01*
X801856Y554100D02*
X799306Y556650D01*
D20*
X770819Y520301D02*
X775266Y515854D01*
X792228Y551901D02*
X794557Y551901D01*
X799306Y556650D01*
X775585Y515854D02*
X777478Y513961D01*
X775585Y515854D02*
X775266Y515854D01*
X770819Y520301D02*
X770819Y530492D01*
X792228Y551901D01*
M02*
