G04 EAGLE Gerber RS-274X export*
G75*
%MOMM*%
%FSLAX34Y34*%
%LPD*%
%INSilkscreen Bottom*%
%IPPOS*%
%AMOC8*
5,1,8,0,0,1.08239X$1,22.5*%
G01*
%ADD10C,0.152400*%
%ADD11C,0.101600*%
%ADD12C,0.076200*%
%ADD13C,0.609600*%
%ADD14C,0.254000*%

G36*
X811729Y587123D02*
X811729Y587123D01*
X811731Y587122D01*
X811774Y587142D01*
X811818Y587160D01*
X811818Y587162D01*
X811820Y587163D01*
X811853Y587248D01*
X811853Y589788D01*
X811852Y589790D01*
X811853Y589792D01*
X811833Y589835D01*
X811815Y589879D01*
X811813Y589879D01*
X811812Y589881D01*
X811727Y589914D01*
X807917Y589914D01*
X807915Y589913D01*
X807913Y589914D01*
X807870Y589894D01*
X807826Y589876D01*
X807826Y589874D01*
X807824Y589873D01*
X807791Y589788D01*
X807791Y587248D01*
X807792Y587246D01*
X807791Y587244D01*
X807811Y587201D01*
X807829Y587157D01*
X807831Y587157D01*
X807832Y587155D01*
X807917Y587122D01*
X811727Y587122D01*
X811729Y587123D01*
G37*
G36*
X781179Y541569D02*
X781179Y541569D01*
X781181Y541568D01*
X781224Y541588D01*
X781268Y541606D01*
X781268Y541608D01*
X781270Y541609D01*
X781303Y541694D01*
X781303Y545504D01*
X781302Y545506D01*
X781303Y545508D01*
X781283Y545551D01*
X781265Y545595D01*
X781263Y545595D01*
X781262Y545597D01*
X781177Y545630D01*
X778637Y545630D01*
X778635Y545629D01*
X778633Y545630D01*
X778590Y545610D01*
X778546Y545592D01*
X778546Y545590D01*
X778544Y545589D01*
X778511Y545504D01*
X778511Y541694D01*
X778512Y541692D01*
X778511Y541690D01*
X778531Y541647D01*
X778549Y541603D01*
X778551Y541603D01*
X778552Y541601D01*
X778637Y541568D01*
X781177Y541568D01*
X781179Y541569D01*
G37*
G36*
X866015Y526566D02*
X866015Y526566D01*
X866017Y526565D01*
X866060Y526585D01*
X866104Y526603D01*
X866104Y526605D01*
X866106Y526606D01*
X866139Y526691D01*
X866139Y530501D01*
X866138Y530503D01*
X866139Y530505D01*
X866119Y530548D01*
X866101Y530592D01*
X866099Y530592D01*
X866098Y530594D01*
X866013Y530627D01*
X863473Y530627D01*
X863471Y530626D01*
X863469Y530627D01*
X863426Y530607D01*
X863382Y530589D01*
X863382Y530587D01*
X863380Y530586D01*
X863347Y530501D01*
X863347Y526691D01*
X863348Y526689D01*
X863347Y526687D01*
X863367Y526644D01*
X863385Y526600D01*
X863387Y526600D01*
X863388Y526598D01*
X863473Y526565D01*
X866013Y526565D01*
X866015Y526566D01*
G37*
G36*
X816730Y502287D02*
X816730Y502287D01*
X816732Y502286D01*
X816775Y502306D01*
X816819Y502324D01*
X816819Y502326D01*
X816821Y502327D01*
X816854Y502412D01*
X816854Y504952D01*
X816853Y504954D01*
X816854Y504956D01*
X816834Y504999D01*
X816816Y505043D01*
X816814Y505043D01*
X816813Y505045D01*
X816728Y505078D01*
X812918Y505078D01*
X812916Y505077D01*
X812914Y505078D01*
X812871Y505058D01*
X812827Y505040D01*
X812827Y505038D01*
X812825Y505037D01*
X812792Y504952D01*
X812792Y502412D01*
X812793Y502410D01*
X812792Y502408D01*
X812812Y502365D01*
X812830Y502321D01*
X812832Y502321D01*
X812833Y502319D01*
X812918Y502286D01*
X816728Y502286D01*
X816730Y502287D01*
G37*
D10*
X860060Y453200D02*
X860060Y469456D01*
X860060Y462231D02*
X851029Y462231D01*
X851029Y469456D02*
X851029Y453200D01*
X843907Y461328D02*
X843903Y461648D01*
X843892Y461967D01*
X843873Y462287D01*
X843846Y462605D01*
X843812Y462923D01*
X843770Y463240D01*
X843720Y463556D01*
X843663Y463871D01*
X843599Y464184D01*
X843527Y464496D01*
X843448Y464806D01*
X843361Y465113D01*
X843267Y465419D01*
X843166Y465722D01*
X843057Y466023D01*
X842942Y466321D01*
X842819Y466617D01*
X842689Y466909D01*
X842552Y467198D01*
X842553Y467198D02*
X842514Y467306D01*
X842471Y467413D01*
X842425Y467518D01*
X842374Y467622D01*
X842321Y467724D01*
X842264Y467824D01*
X842203Y467922D01*
X842139Y468017D01*
X842072Y468111D01*
X842001Y468202D01*
X841928Y468291D01*
X841851Y468377D01*
X841772Y468460D01*
X841690Y468541D01*
X841605Y468619D01*
X841517Y468693D01*
X841427Y468765D01*
X841335Y468833D01*
X841240Y468899D01*
X841143Y468961D01*
X841044Y469019D01*
X840942Y469075D01*
X840840Y469126D01*
X840735Y469174D01*
X840629Y469219D01*
X840521Y469260D01*
X840412Y469297D01*
X840302Y469330D01*
X840190Y469359D01*
X840078Y469385D01*
X839965Y469407D01*
X839851Y469424D01*
X839737Y469438D01*
X839622Y469448D01*
X839507Y469454D01*
X839392Y469456D01*
X839277Y469454D01*
X839162Y469448D01*
X839047Y469438D01*
X838933Y469424D01*
X838819Y469407D01*
X838706Y469385D01*
X838594Y469359D01*
X838482Y469330D01*
X838372Y469297D01*
X838263Y469260D01*
X838155Y469219D01*
X838049Y469174D01*
X837945Y469126D01*
X837842Y469075D01*
X837741Y469019D01*
X837641Y468961D01*
X837544Y468899D01*
X837450Y468834D01*
X837357Y468765D01*
X837267Y468693D01*
X837179Y468619D01*
X837094Y468541D01*
X837012Y468460D01*
X836933Y468377D01*
X836856Y468291D01*
X836783Y468202D01*
X836712Y468111D01*
X836645Y468017D01*
X836581Y467922D01*
X836520Y467824D01*
X836463Y467724D01*
X836410Y467622D01*
X836359Y467518D01*
X836313Y467413D01*
X836270Y467306D01*
X836231Y467198D01*
X836232Y467198D02*
X836095Y466909D01*
X835965Y466617D01*
X835842Y466321D01*
X835727Y466023D01*
X835618Y465722D01*
X835517Y465419D01*
X835423Y465113D01*
X835336Y464806D01*
X835257Y464496D01*
X835185Y464184D01*
X835121Y463871D01*
X835064Y463556D01*
X835014Y463240D01*
X834972Y462923D01*
X834938Y462605D01*
X834911Y462287D01*
X834892Y461967D01*
X834881Y461648D01*
X834877Y461328D01*
X843907Y461328D02*
X843903Y461008D01*
X843892Y460689D01*
X843873Y460369D01*
X843846Y460051D01*
X843812Y459733D01*
X843770Y459416D01*
X843720Y459100D01*
X843663Y458785D01*
X843599Y458472D01*
X843527Y458160D01*
X843448Y457850D01*
X843361Y457543D01*
X843267Y457237D01*
X843166Y456934D01*
X843057Y456633D01*
X842942Y456335D01*
X842819Y456039D01*
X842689Y455747D01*
X842552Y455458D01*
X842553Y455457D02*
X842514Y455349D01*
X842471Y455242D01*
X842425Y455137D01*
X842374Y455033D01*
X842321Y454931D01*
X842264Y454831D01*
X842203Y454733D01*
X842139Y454638D01*
X842072Y454544D01*
X842001Y454453D01*
X841928Y454364D01*
X841851Y454278D01*
X841772Y454195D01*
X841690Y454114D01*
X841605Y454036D01*
X841517Y453962D01*
X841427Y453890D01*
X841334Y453821D01*
X841240Y453756D01*
X841143Y453694D01*
X841043Y453636D01*
X840942Y453580D01*
X840840Y453529D01*
X840735Y453481D01*
X840629Y453436D01*
X840521Y453395D01*
X840412Y453358D01*
X840302Y453325D01*
X840190Y453296D01*
X840078Y453270D01*
X839965Y453248D01*
X839851Y453231D01*
X839737Y453217D01*
X839622Y453207D01*
X839507Y453201D01*
X839392Y453199D01*
X836232Y455458D02*
X836095Y455747D01*
X835965Y456039D01*
X835842Y456335D01*
X835727Y456633D01*
X835618Y456934D01*
X835517Y457237D01*
X835423Y457543D01*
X835336Y457850D01*
X835257Y458160D01*
X835185Y458472D01*
X835121Y458785D01*
X835064Y459100D01*
X835014Y459416D01*
X834972Y459733D01*
X834938Y460051D01*
X834911Y460369D01*
X834892Y460689D01*
X834881Y461008D01*
X834877Y461328D01*
X836231Y455457D02*
X836270Y455349D01*
X836313Y455242D01*
X836359Y455137D01*
X836410Y455033D01*
X836463Y454931D01*
X836521Y454831D01*
X836581Y454733D01*
X836645Y454638D01*
X836712Y454544D01*
X836783Y454453D01*
X836856Y454364D01*
X836933Y454278D01*
X837012Y454195D01*
X837094Y454114D01*
X837179Y454036D01*
X837267Y453962D01*
X837357Y453890D01*
X837450Y453821D01*
X837544Y453756D01*
X837641Y453694D01*
X837741Y453636D01*
X837842Y453580D01*
X837945Y453529D01*
X838049Y453481D01*
X838155Y453436D01*
X838263Y453395D01*
X838372Y453358D01*
X838482Y453325D01*
X838594Y453296D01*
X838706Y453270D01*
X838819Y453248D01*
X838933Y453231D01*
X839047Y453217D01*
X839162Y453207D01*
X839277Y453201D01*
X839392Y453199D01*
X843005Y456812D02*
X835780Y465843D01*
X828277Y457715D02*
X828275Y457848D01*
X828269Y457980D01*
X828259Y458112D01*
X828246Y458244D01*
X828228Y458376D01*
X828207Y458506D01*
X828182Y458637D01*
X828153Y458766D01*
X828120Y458894D01*
X828084Y459022D01*
X828044Y459148D01*
X828000Y459273D01*
X827952Y459397D01*
X827901Y459519D01*
X827846Y459640D01*
X827788Y459759D01*
X827726Y459877D01*
X827661Y459992D01*
X827592Y460106D01*
X827521Y460217D01*
X827445Y460326D01*
X827367Y460433D01*
X827286Y460538D01*
X827201Y460640D01*
X827114Y460740D01*
X827024Y460837D01*
X826931Y460932D01*
X826835Y461023D01*
X826737Y461112D01*
X826636Y461198D01*
X826532Y461281D01*
X826426Y461361D01*
X826318Y461437D01*
X826208Y461511D01*
X826095Y461581D01*
X825981Y461648D01*
X825864Y461711D01*
X825746Y461771D01*
X825626Y461828D01*
X825504Y461881D01*
X825381Y461930D01*
X825257Y461976D01*
X825131Y462018D01*
X825004Y462056D01*
X824876Y462091D01*
X824747Y462122D01*
X824618Y462149D01*
X824487Y462172D01*
X824356Y462192D01*
X824224Y462207D01*
X824092Y462219D01*
X823960Y462227D01*
X823827Y462231D01*
X823695Y462231D01*
X823562Y462227D01*
X823430Y462219D01*
X823298Y462207D01*
X823166Y462192D01*
X823035Y462172D01*
X822904Y462149D01*
X822775Y462122D01*
X822646Y462091D01*
X822518Y462056D01*
X822391Y462018D01*
X822265Y461976D01*
X822141Y461930D01*
X822018Y461881D01*
X821896Y461828D01*
X821776Y461771D01*
X821658Y461711D01*
X821541Y461648D01*
X821427Y461581D01*
X821314Y461511D01*
X821204Y461437D01*
X821096Y461361D01*
X820990Y461281D01*
X820886Y461198D01*
X820785Y461112D01*
X820687Y461023D01*
X820591Y460932D01*
X820498Y460837D01*
X820408Y460740D01*
X820321Y460640D01*
X820236Y460538D01*
X820155Y460433D01*
X820077Y460326D01*
X820001Y460217D01*
X819930Y460106D01*
X819861Y459992D01*
X819796Y459877D01*
X819734Y459759D01*
X819676Y459640D01*
X819621Y459519D01*
X819570Y459397D01*
X819522Y459273D01*
X819478Y459148D01*
X819438Y459022D01*
X819402Y458894D01*
X819369Y458766D01*
X819340Y458637D01*
X819315Y458506D01*
X819294Y458376D01*
X819276Y458244D01*
X819263Y458112D01*
X819253Y457980D01*
X819247Y457848D01*
X819245Y457715D01*
X819247Y457582D01*
X819253Y457450D01*
X819263Y457318D01*
X819276Y457186D01*
X819294Y457054D01*
X819315Y456924D01*
X819340Y456793D01*
X819369Y456664D01*
X819402Y456536D01*
X819438Y456408D01*
X819478Y456282D01*
X819522Y456157D01*
X819570Y456033D01*
X819621Y455911D01*
X819676Y455790D01*
X819734Y455671D01*
X819796Y455553D01*
X819861Y455438D01*
X819930Y455324D01*
X820001Y455213D01*
X820077Y455104D01*
X820155Y454997D01*
X820236Y454892D01*
X820321Y454790D01*
X820408Y454690D01*
X820498Y454593D01*
X820591Y454498D01*
X820687Y454407D01*
X820785Y454318D01*
X820886Y454232D01*
X820990Y454149D01*
X821096Y454069D01*
X821204Y453993D01*
X821314Y453919D01*
X821427Y453849D01*
X821541Y453782D01*
X821658Y453719D01*
X821776Y453659D01*
X821896Y453602D01*
X822018Y453549D01*
X822141Y453500D01*
X822265Y453454D01*
X822391Y453412D01*
X822518Y453374D01*
X822646Y453339D01*
X822775Y453308D01*
X822904Y453281D01*
X823035Y453258D01*
X823166Y453238D01*
X823298Y453223D01*
X823430Y453211D01*
X823562Y453203D01*
X823695Y453199D01*
X823827Y453199D01*
X823960Y453203D01*
X824092Y453211D01*
X824224Y453223D01*
X824356Y453238D01*
X824487Y453258D01*
X824618Y453281D01*
X824747Y453308D01*
X824876Y453339D01*
X825004Y453374D01*
X825131Y453412D01*
X825257Y453454D01*
X825381Y453500D01*
X825504Y453549D01*
X825626Y453602D01*
X825746Y453659D01*
X825864Y453719D01*
X825981Y453782D01*
X826095Y453849D01*
X826208Y453919D01*
X826318Y453993D01*
X826426Y454069D01*
X826532Y454149D01*
X826636Y454232D01*
X826737Y454318D01*
X826835Y454407D01*
X826931Y454498D01*
X827024Y454593D01*
X827114Y454690D01*
X827201Y454790D01*
X827286Y454892D01*
X827367Y454997D01*
X827445Y455104D01*
X827521Y455213D01*
X827592Y455324D01*
X827661Y455438D01*
X827726Y455553D01*
X827788Y455671D01*
X827846Y455790D01*
X827901Y455911D01*
X827952Y456033D01*
X828000Y456157D01*
X828044Y456282D01*
X828084Y456408D01*
X828120Y456536D01*
X828153Y456664D01*
X828182Y456793D01*
X828207Y456924D01*
X828228Y457054D01*
X828246Y457186D01*
X828259Y457318D01*
X828269Y457450D01*
X828275Y457582D01*
X828277Y457715D01*
X827373Y465843D02*
X827371Y465962D01*
X827365Y466082D01*
X827355Y466201D01*
X827341Y466319D01*
X827324Y466438D01*
X827302Y466555D01*
X827277Y466672D01*
X827247Y466787D01*
X827214Y466902D01*
X827177Y467016D01*
X827137Y467128D01*
X827092Y467239D01*
X827044Y467348D01*
X826993Y467456D01*
X826938Y467562D01*
X826879Y467666D01*
X826817Y467768D01*
X826752Y467868D01*
X826683Y467966D01*
X826611Y468062D01*
X826536Y468155D01*
X826459Y468245D01*
X826378Y468333D01*
X826294Y468418D01*
X826207Y468500D01*
X826118Y468580D01*
X826026Y468656D01*
X825932Y468730D01*
X825835Y468800D01*
X825737Y468867D01*
X825636Y468931D01*
X825532Y468991D01*
X825427Y469048D01*
X825320Y469101D01*
X825212Y469151D01*
X825102Y469197D01*
X824990Y469239D01*
X824877Y469278D01*
X824763Y469313D01*
X824648Y469344D01*
X824531Y469372D01*
X824414Y469395D01*
X824297Y469415D01*
X824178Y469431D01*
X824059Y469443D01*
X823940Y469451D01*
X823821Y469455D01*
X823701Y469455D01*
X823582Y469451D01*
X823463Y469443D01*
X823344Y469431D01*
X823225Y469415D01*
X823108Y469395D01*
X822991Y469372D01*
X822874Y469344D01*
X822759Y469313D01*
X822645Y469278D01*
X822532Y469239D01*
X822420Y469197D01*
X822310Y469151D01*
X822202Y469101D01*
X822095Y469048D01*
X821990Y468991D01*
X821886Y468931D01*
X821785Y468867D01*
X821687Y468800D01*
X821590Y468730D01*
X821496Y468656D01*
X821404Y468580D01*
X821315Y468500D01*
X821228Y468418D01*
X821144Y468333D01*
X821063Y468245D01*
X820986Y468155D01*
X820911Y468062D01*
X820839Y467966D01*
X820770Y467868D01*
X820705Y467768D01*
X820643Y467666D01*
X820584Y467562D01*
X820529Y467456D01*
X820478Y467348D01*
X820430Y467239D01*
X820385Y467128D01*
X820345Y467016D01*
X820308Y466902D01*
X820275Y466787D01*
X820245Y466672D01*
X820220Y466555D01*
X820198Y466438D01*
X820181Y466319D01*
X820167Y466201D01*
X820157Y466082D01*
X820151Y465962D01*
X820149Y465843D01*
X820151Y465724D01*
X820157Y465604D01*
X820167Y465485D01*
X820181Y465367D01*
X820198Y465248D01*
X820220Y465131D01*
X820245Y465014D01*
X820275Y464899D01*
X820308Y464784D01*
X820345Y464670D01*
X820385Y464558D01*
X820430Y464447D01*
X820478Y464338D01*
X820529Y464230D01*
X820584Y464124D01*
X820643Y464020D01*
X820705Y463918D01*
X820770Y463818D01*
X820839Y463720D01*
X820911Y463624D01*
X820986Y463531D01*
X821063Y463441D01*
X821144Y463353D01*
X821228Y463268D01*
X821315Y463186D01*
X821404Y463106D01*
X821496Y463030D01*
X821590Y462956D01*
X821687Y462886D01*
X821785Y462819D01*
X821886Y462755D01*
X821990Y462695D01*
X822095Y462638D01*
X822202Y462585D01*
X822310Y462535D01*
X822420Y462489D01*
X822532Y462447D01*
X822645Y462408D01*
X822759Y462373D01*
X822874Y462342D01*
X822991Y462314D01*
X823108Y462291D01*
X823225Y462271D01*
X823344Y462255D01*
X823463Y462243D01*
X823582Y462235D01*
X823701Y462231D01*
X823821Y462231D01*
X823940Y462235D01*
X824059Y462243D01*
X824178Y462255D01*
X824297Y462271D01*
X824414Y462291D01*
X824531Y462314D01*
X824648Y462342D01*
X824763Y462373D01*
X824877Y462408D01*
X824990Y462447D01*
X825102Y462489D01*
X825212Y462535D01*
X825320Y462585D01*
X825427Y462638D01*
X825532Y462695D01*
X825636Y462755D01*
X825737Y462819D01*
X825835Y462886D01*
X825932Y462956D01*
X826026Y463030D01*
X826118Y463106D01*
X826207Y463186D01*
X826294Y463268D01*
X826378Y463353D01*
X826459Y463441D01*
X826536Y463531D01*
X826611Y463624D01*
X826683Y463720D01*
X826752Y463818D01*
X826817Y463918D01*
X826879Y464020D01*
X826938Y464124D01*
X826993Y464230D01*
X827044Y464338D01*
X827092Y464447D01*
X827137Y464558D01*
X827177Y464670D01*
X827214Y464784D01*
X827247Y464899D01*
X827277Y465014D01*
X827302Y465131D01*
X827324Y465248D01*
X827341Y465367D01*
X827355Y465485D01*
X827365Y465604D01*
X827371Y465724D01*
X827373Y465843D01*
X812033Y469456D02*
X812033Y453200D01*
X812033Y469456D02*
X807517Y469456D01*
X807384Y469454D01*
X807252Y469448D01*
X807120Y469438D01*
X806988Y469425D01*
X806856Y469407D01*
X806726Y469386D01*
X806595Y469361D01*
X806466Y469332D01*
X806338Y469299D01*
X806210Y469263D01*
X806084Y469223D01*
X805959Y469179D01*
X805835Y469131D01*
X805713Y469080D01*
X805592Y469025D01*
X805473Y468967D01*
X805355Y468905D01*
X805240Y468840D01*
X805126Y468771D01*
X805015Y468700D01*
X804906Y468624D01*
X804799Y468546D01*
X804694Y468465D01*
X804592Y468380D01*
X804492Y468293D01*
X804395Y468203D01*
X804300Y468110D01*
X804209Y468014D01*
X804120Y467916D01*
X804034Y467815D01*
X803951Y467711D01*
X803871Y467605D01*
X803795Y467497D01*
X803721Y467387D01*
X803651Y467274D01*
X803584Y467160D01*
X803521Y467043D01*
X803461Y466925D01*
X803404Y466805D01*
X803351Y466683D01*
X803302Y466560D01*
X803256Y466436D01*
X803214Y466310D01*
X803176Y466183D01*
X803141Y466055D01*
X803110Y465926D01*
X803083Y465797D01*
X803060Y465666D01*
X803040Y465535D01*
X803025Y465403D01*
X803013Y465271D01*
X803005Y465139D01*
X803001Y465006D01*
X803001Y464874D01*
X803005Y464741D01*
X803013Y464609D01*
X803025Y464477D01*
X803040Y464345D01*
X803060Y464214D01*
X803083Y464083D01*
X803110Y463954D01*
X803141Y463825D01*
X803176Y463697D01*
X803214Y463570D01*
X803256Y463444D01*
X803302Y463320D01*
X803351Y463197D01*
X803404Y463075D01*
X803461Y462955D01*
X803521Y462837D01*
X803584Y462720D01*
X803651Y462606D01*
X803721Y462493D01*
X803795Y462383D01*
X803871Y462275D01*
X803951Y462169D01*
X804034Y462065D01*
X804120Y461964D01*
X804209Y461866D01*
X804300Y461770D01*
X804395Y461677D01*
X804492Y461587D01*
X804592Y461500D01*
X804694Y461415D01*
X804799Y461334D01*
X804906Y461256D01*
X805015Y461180D01*
X805126Y461109D01*
X805240Y461040D01*
X805355Y460975D01*
X805473Y460913D01*
X805592Y460855D01*
X805713Y460800D01*
X805835Y460749D01*
X805959Y460701D01*
X806084Y460657D01*
X806210Y460617D01*
X806338Y460581D01*
X806466Y460548D01*
X806595Y460519D01*
X806726Y460494D01*
X806856Y460473D01*
X806988Y460455D01*
X807120Y460442D01*
X807252Y460432D01*
X807384Y460426D01*
X807517Y460424D01*
X812033Y460424D01*
X806614Y460424D02*
X803001Y453200D01*
X796493Y462231D02*
X791074Y462231D01*
X791074Y462230D02*
X790956Y462228D01*
X790838Y462222D01*
X790720Y462213D01*
X790603Y462199D01*
X790486Y462182D01*
X790369Y462161D01*
X790254Y462136D01*
X790139Y462107D01*
X790025Y462074D01*
X789913Y462038D01*
X789802Y461998D01*
X789692Y461955D01*
X789583Y461908D01*
X789476Y461858D01*
X789371Y461803D01*
X789268Y461746D01*
X789167Y461685D01*
X789067Y461621D01*
X788970Y461554D01*
X788875Y461484D01*
X788783Y461410D01*
X788692Y461334D01*
X788605Y461254D01*
X788520Y461172D01*
X788438Y461087D01*
X788358Y461000D01*
X788282Y460909D01*
X788208Y460817D01*
X788138Y460722D01*
X788071Y460625D01*
X788007Y460525D01*
X787946Y460424D01*
X787889Y460321D01*
X787834Y460216D01*
X787784Y460109D01*
X787737Y460000D01*
X787694Y459890D01*
X787654Y459779D01*
X787618Y459667D01*
X787585Y459553D01*
X787556Y459438D01*
X787531Y459323D01*
X787510Y459206D01*
X787493Y459089D01*
X787479Y458972D01*
X787470Y458854D01*
X787464Y458736D01*
X787462Y458618D01*
X787462Y457715D01*
X787461Y457715D02*
X787463Y457582D01*
X787469Y457450D01*
X787479Y457318D01*
X787492Y457186D01*
X787510Y457054D01*
X787531Y456924D01*
X787556Y456793D01*
X787585Y456664D01*
X787618Y456536D01*
X787654Y456408D01*
X787694Y456282D01*
X787738Y456157D01*
X787786Y456033D01*
X787837Y455911D01*
X787892Y455790D01*
X787950Y455671D01*
X788012Y455553D01*
X788077Y455438D01*
X788146Y455324D01*
X788217Y455213D01*
X788293Y455104D01*
X788371Y454997D01*
X788452Y454892D01*
X788537Y454790D01*
X788624Y454690D01*
X788714Y454593D01*
X788807Y454498D01*
X788903Y454407D01*
X789001Y454318D01*
X789102Y454232D01*
X789206Y454149D01*
X789312Y454069D01*
X789420Y453993D01*
X789530Y453919D01*
X789643Y453849D01*
X789757Y453782D01*
X789874Y453719D01*
X789992Y453659D01*
X790112Y453602D01*
X790234Y453549D01*
X790357Y453500D01*
X790481Y453454D01*
X790607Y453412D01*
X790734Y453374D01*
X790862Y453339D01*
X790991Y453308D01*
X791120Y453281D01*
X791251Y453258D01*
X791382Y453238D01*
X791514Y453223D01*
X791646Y453211D01*
X791778Y453203D01*
X791911Y453199D01*
X792043Y453199D01*
X792176Y453203D01*
X792308Y453211D01*
X792440Y453223D01*
X792572Y453238D01*
X792703Y453258D01*
X792834Y453281D01*
X792963Y453308D01*
X793092Y453339D01*
X793220Y453374D01*
X793347Y453412D01*
X793473Y453454D01*
X793597Y453500D01*
X793720Y453549D01*
X793842Y453602D01*
X793962Y453659D01*
X794080Y453719D01*
X794197Y453782D01*
X794311Y453849D01*
X794424Y453919D01*
X794534Y453993D01*
X794642Y454069D01*
X794748Y454149D01*
X794852Y454232D01*
X794953Y454318D01*
X795051Y454407D01*
X795147Y454498D01*
X795240Y454593D01*
X795330Y454690D01*
X795417Y454790D01*
X795502Y454892D01*
X795583Y454997D01*
X795661Y455104D01*
X795737Y455213D01*
X795808Y455324D01*
X795877Y455438D01*
X795942Y455553D01*
X796004Y455671D01*
X796062Y455790D01*
X796117Y455911D01*
X796168Y456033D01*
X796216Y456157D01*
X796260Y456282D01*
X796300Y456408D01*
X796336Y456536D01*
X796369Y456664D01*
X796398Y456793D01*
X796423Y456924D01*
X796444Y457054D01*
X796462Y457186D01*
X796475Y457318D01*
X796485Y457450D01*
X796491Y457582D01*
X796493Y457715D01*
X796493Y462231D01*
X796491Y462406D01*
X796485Y462580D01*
X796474Y462754D01*
X796459Y462928D01*
X796440Y463102D01*
X796417Y463275D01*
X796390Y463447D01*
X796358Y463619D01*
X796323Y463790D01*
X796283Y463960D01*
X796239Y464129D01*
X796191Y464297D01*
X796139Y464464D01*
X796083Y464629D01*
X796023Y464793D01*
X795960Y464956D01*
X795892Y465116D01*
X795820Y465276D01*
X795745Y465433D01*
X795665Y465589D01*
X795582Y465742D01*
X795496Y465894D01*
X795405Y466043D01*
X795311Y466190D01*
X795214Y466335D01*
X795113Y466478D01*
X795009Y466618D01*
X794901Y466755D01*
X794790Y466890D01*
X794676Y467022D01*
X794559Y467151D01*
X794438Y467278D01*
X794315Y467401D01*
X794188Y467522D01*
X794059Y467639D01*
X793927Y467753D01*
X793792Y467864D01*
X793655Y467972D01*
X793515Y468076D01*
X793372Y468177D01*
X793227Y468274D01*
X793080Y468368D01*
X792931Y468459D01*
X792779Y468545D01*
X792626Y468628D01*
X792470Y468708D01*
X792313Y468783D01*
X792153Y468855D01*
X791993Y468923D01*
X791830Y468986D01*
X791666Y469046D01*
X791501Y469102D01*
X791334Y469154D01*
X791166Y469202D01*
X790997Y469246D01*
X790827Y469286D01*
X790656Y469321D01*
X790484Y469353D01*
X790312Y469380D01*
X790139Y469403D01*
X789965Y469422D01*
X789791Y469437D01*
X789617Y469448D01*
X789443Y469454D01*
X789268Y469456D01*
X780862Y465843D02*
X776346Y469456D01*
X776346Y453200D01*
X771831Y453200D02*
X780862Y453200D01*
D11*
X758082Y415635D02*
X759677Y414518D01*
X758082Y415635D02*
X754359Y410318D01*
X757549Y408084D01*
X757550Y408084D02*
X757633Y408029D01*
X757717Y407977D01*
X757804Y407928D01*
X757892Y407882D01*
X757982Y407840D01*
X758074Y407801D01*
X758167Y407766D01*
X758261Y407734D01*
X758356Y407706D01*
X758453Y407682D01*
X758550Y407661D01*
X758648Y407645D01*
X758747Y407631D01*
X758846Y407622D01*
X758945Y407617D01*
X759045Y407615D01*
X759144Y407617D01*
X759243Y407623D01*
X759342Y407633D01*
X759441Y407646D01*
X759539Y407664D01*
X759636Y407685D01*
X759732Y407709D01*
X759828Y407738D01*
X759922Y407770D01*
X760015Y407805D01*
X760106Y407844D01*
X760196Y407887D01*
X760284Y407933D01*
X760370Y407982D01*
X760455Y408035D01*
X760537Y408091D01*
X760617Y408150D01*
X760695Y408212D01*
X760770Y408277D01*
X760843Y408344D01*
X760913Y408415D01*
X760981Y408488D01*
X761045Y408564D01*
X761107Y408642D01*
X761166Y408722D01*
X764889Y414039D01*
X764944Y414122D01*
X764996Y414206D01*
X765045Y414293D01*
X765091Y414381D01*
X765133Y414471D01*
X765172Y414563D01*
X765207Y414656D01*
X765239Y414750D01*
X765267Y414845D01*
X765291Y414942D01*
X765312Y415039D01*
X765328Y415137D01*
X765342Y415236D01*
X765351Y415335D01*
X765356Y415434D01*
X765358Y415534D01*
X765356Y415633D01*
X765350Y415732D01*
X765340Y415831D01*
X765327Y415930D01*
X765309Y416028D01*
X765288Y416125D01*
X765264Y416221D01*
X765235Y416317D01*
X765203Y416411D01*
X765168Y416504D01*
X765129Y416595D01*
X765086Y416685D01*
X765040Y416773D01*
X764991Y416859D01*
X764938Y416944D01*
X764882Y417026D01*
X764823Y417106D01*
X764761Y417184D01*
X764696Y417259D01*
X764629Y417332D01*
X764558Y417402D01*
X764485Y417470D01*
X764409Y417534D01*
X764331Y417596D01*
X764251Y417655D01*
X761061Y419889D01*
X756391Y423159D02*
X749689Y413588D01*
X744372Y417311D02*
X756391Y423159D01*
X751074Y426882D02*
X744372Y417311D01*
X739702Y420581D02*
X746404Y430152D01*
X743745Y432013D01*
X743746Y432014D02*
X743652Y432077D01*
X743556Y432137D01*
X743458Y432194D01*
X743358Y432247D01*
X743256Y432297D01*
X743152Y432343D01*
X743047Y432385D01*
X742941Y432424D01*
X742833Y432459D01*
X742724Y432490D01*
X742614Y432518D01*
X742503Y432541D01*
X742392Y432561D01*
X742280Y432577D01*
X742167Y432589D01*
X742054Y432597D01*
X741941Y432601D01*
X741827Y432601D01*
X741714Y432597D01*
X741601Y432589D01*
X741488Y432577D01*
X741376Y432561D01*
X741265Y432541D01*
X741154Y432518D01*
X741044Y432490D01*
X740935Y432459D01*
X740827Y432424D01*
X740721Y432385D01*
X740616Y432343D01*
X740512Y432297D01*
X740410Y432247D01*
X740310Y432194D01*
X740212Y432137D01*
X740116Y432077D01*
X740022Y432014D01*
X739931Y431947D01*
X739841Y431878D01*
X739754Y431805D01*
X739670Y431729D01*
X739589Y431650D01*
X739510Y431569D01*
X739434Y431485D01*
X739361Y431398D01*
X739292Y431309D01*
X739225Y431217D01*
X739225Y431216D02*
X736247Y426963D01*
X736246Y426963D02*
X736183Y426869D01*
X736123Y426773D01*
X736066Y426675D01*
X736013Y426575D01*
X735963Y426473D01*
X735917Y426369D01*
X735875Y426264D01*
X735836Y426158D01*
X735801Y426050D01*
X735770Y425941D01*
X735742Y425831D01*
X735719Y425720D01*
X735699Y425609D01*
X735683Y425497D01*
X735671Y425384D01*
X735663Y425271D01*
X735659Y425158D01*
X735659Y425044D01*
X735663Y424931D01*
X735671Y424818D01*
X735683Y424705D01*
X735699Y424593D01*
X735719Y424482D01*
X735742Y424371D01*
X735770Y424261D01*
X735801Y424152D01*
X735836Y424044D01*
X735875Y423938D01*
X735917Y423833D01*
X735963Y423729D01*
X736013Y423627D01*
X736066Y423527D01*
X736123Y423429D01*
X736183Y423333D01*
X736246Y423239D01*
X736313Y423147D01*
X736382Y423058D01*
X736455Y422971D01*
X736531Y422887D01*
X736610Y422806D01*
X736691Y422727D01*
X736775Y422651D01*
X736862Y422578D01*
X736952Y422509D01*
X737043Y422442D01*
X737044Y422442D02*
X739702Y420581D01*
X899514Y425404D02*
X901006Y426655D01*
X899514Y425404D02*
X903687Y420431D01*
X906670Y422934D01*
X906745Y423000D01*
X906817Y423068D01*
X906887Y423139D01*
X906954Y423212D01*
X907018Y423288D01*
X907079Y423367D01*
X907137Y423448D01*
X907192Y423531D01*
X907244Y423615D01*
X907292Y423702D01*
X907337Y423791D01*
X907379Y423881D01*
X907417Y423973D01*
X907452Y424066D01*
X907483Y424161D01*
X907510Y424256D01*
X907534Y424353D01*
X907554Y424450D01*
X907570Y424549D01*
X907582Y424647D01*
X907591Y424746D01*
X907596Y424846D01*
X907597Y424945D01*
X907594Y425045D01*
X907588Y425144D01*
X907577Y425243D01*
X907563Y425341D01*
X907545Y425439D01*
X907524Y425536D01*
X907498Y425632D01*
X907469Y425727D01*
X907437Y425821D01*
X907400Y425914D01*
X907361Y426005D01*
X907318Y426095D01*
X907271Y426183D01*
X907221Y426269D01*
X907168Y426353D01*
X907112Y426435D01*
X907052Y426514D01*
X906990Y426592D01*
X902818Y431565D01*
X902753Y431640D01*
X902685Y431713D01*
X902614Y431782D01*
X902540Y431849D01*
X902464Y431914D01*
X902386Y431975D01*
X902305Y432033D01*
X902222Y432088D01*
X902137Y432140D01*
X902050Y432188D01*
X901961Y432233D01*
X901871Y432275D01*
X901779Y432313D01*
X901686Y432348D01*
X901591Y432379D01*
X901496Y432406D01*
X901399Y432430D01*
X901302Y432450D01*
X901204Y432466D01*
X901105Y432478D01*
X901006Y432487D01*
X900906Y432492D01*
X900807Y432493D01*
X900707Y432490D01*
X900608Y432484D01*
X900509Y432473D01*
X900411Y432459D01*
X900313Y432441D01*
X900216Y432420D01*
X900120Y432394D01*
X900024Y432365D01*
X899930Y432333D01*
X899838Y432296D01*
X899747Y432257D01*
X899657Y432213D01*
X899569Y432167D01*
X899483Y432117D01*
X899399Y432064D01*
X899317Y432007D01*
X899237Y431948D01*
X899160Y431885D01*
X896176Y429382D01*
X891809Y425717D02*
X899320Y416767D01*
X894347Y412594D02*
X891809Y425717D01*
X886837Y421545D02*
X894347Y412594D01*
X889980Y408930D02*
X882470Y417880D01*
X879983Y415794D01*
X879984Y415795D02*
X879898Y415720D01*
X879815Y415643D01*
X879735Y415563D01*
X879658Y415480D01*
X879583Y415395D01*
X879512Y415306D01*
X879444Y415216D01*
X879379Y415123D01*
X879317Y415028D01*
X879259Y414931D01*
X879204Y414832D01*
X879153Y414731D01*
X879105Y414628D01*
X879060Y414524D01*
X879020Y414418D01*
X878983Y414311D01*
X878950Y414203D01*
X878920Y414093D01*
X878895Y413983D01*
X878873Y413872D01*
X878856Y413760D01*
X878842Y413647D01*
X878832Y413534D01*
X878826Y413421D01*
X878824Y413308D01*
X878826Y413195D01*
X878832Y413082D01*
X878842Y412969D01*
X878856Y412856D01*
X878873Y412744D01*
X878895Y412633D01*
X878920Y412523D01*
X878950Y412413D01*
X878983Y412305D01*
X879020Y412198D01*
X879060Y412092D01*
X879105Y411988D01*
X879153Y411885D01*
X879204Y411784D01*
X879259Y411685D01*
X879317Y411588D01*
X879379Y411493D01*
X879444Y411400D01*
X879512Y411310D01*
X879583Y411222D01*
X882921Y407244D01*
X882996Y407158D01*
X883073Y407075D01*
X883153Y406995D01*
X883236Y406918D01*
X883322Y406843D01*
X883410Y406772D01*
X883500Y406704D01*
X883593Y406639D01*
X883688Y406577D01*
X883785Y406519D01*
X883884Y406464D01*
X883985Y406413D01*
X884088Y406365D01*
X884192Y406320D01*
X884298Y406280D01*
X884405Y406243D01*
X884513Y406210D01*
X884623Y406180D01*
X884733Y406155D01*
X884844Y406133D01*
X884956Y406116D01*
X885069Y406102D01*
X885182Y406092D01*
X885295Y406086D01*
X885408Y406084D01*
X885521Y406086D01*
X885634Y406092D01*
X885747Y406102D01*
X885860Y406116D01*
X885972Y406133D01*
X886083Y406155D01*
X886193Y406180D01*
X886303Y406210D01*
X886411Y406243D01*
X886518Y406280D01*
X886624Y406320D01*
X886728Y406365D01*
X886831Y406413D01*
X886932Y406464D01*
X887031Y406519D01*
X887128Y406577D01*
X887223Y406639D01*
X887316Y406704D01*
X887406Y406772D01*
X887495Y406843D01*
X887494Y406844D02*
X889980Y408930D01*
X900787Y667439D02*
X899191Y668556D01*
X895468Y663239D01*
X898659Y661005D01*
X898742Y660950D01*
X898826Y660898D01*
X898913Y660849D01*
X899001Y660803D01*
X899091Y660761D01*
X899183Y660722D01*
X899276Y660687D01*
X899370Y660655D01*
X899465Y660627D01*
X899562Y660603D01*
X899659Y660582D01*
X899757Y660566D01*
X899856Y660552D01*
X899955Y660543D01*
X900054Y660538D01*
X900154Y660536D01*
X900253Y660538D01*
X900352Y660544D01*
X900451Y660554D01*
X900550Y660567D01*
X900648Y660585D01*
X900745Y660606D01*
X900841Y660630D01*
X900937Y660659D01*
X901031Y660691D01*
X901124Y660726D01*
X901215Y660765D01*
X901305Y660808D01*
X901393Y660854D01*
X901479Y660903D01*
X901564Y660956D01*
X901646Y661012D01*
X901726Y661071D01*
X901804Y661133D01*
X901879Y661198D01*
X901952Y661265D01*
X902022Y661336D01*
X902090Y661409D01*
X902154Y661485D01*
X902216Y661563D01*
X902275Y661643D01*
X902275Y661642D02*
X905998Y666960D01*
X906053Y667043D01*
X906105Y667127D01*
X906154Y667214D01*
X906200Y667302D01*
X906242Y667392D01*
X906281Y667484D01*
X906316Y667577D01*
X906348Y667671D01*
X906376Y667766D01*
X906400Y667863D01*
X906421Y667960D01*
X906437Y668058D01*
X906451Y668157D01*
X906460Y668256D01*
X906465Y668355D01*
X906467Y668455D01*
X906465Y668554D01*
X906459Y668653D01*
X906449Y668752D01*
X906436Y668851D01*
X906418Y668949D01*
X906397Y669046D01*
X906373Y669142D01*
X906344Y669238D01*
X906312Y669332D01*
X906277Y669425D01*
X906238Y669516D01*
X906195Y669606D01*
X906149Y669694D01*
X906100Y669780D01*
X906047Y669865D01*
X905991Y669947D01*
X905932Y670027D01*
X905870Y670105D01*
X905805Y670180D01*
X905738Y670253D01*
X905667Y670323D01*
X905594Y670391D01*
X905518Y670455D01*
X905440Y670517D01*
X905360Y670576D01*
X902170Y672810D01*
X897500Y676080D02*
X890798Y666509D01*
X885481Y670232D02*
X897500Y676080D01*
X892183Y679803D02*
X885481Y670232D01*
X880811Y673502D02*
X887513Y683073D01*
X884854Y684934D01*
X884855Y684935D02*
X884761Y684998D01*
X884665Y685058D01*
X884567Y685115D01*
X884467Y685168D01*
X884365Y685218D01*
X884261Y685264D01*
X884156Y685306D01*
X884050Y685345D01*
X883942Y685380D01*
X883833Y685411D01*
X883723Y685439D01*
X883612Y685462D01*
X883501Y685482D01*
X883389Y685498D01*
X883276Y685510D01*
X883163Y685518D01*
X883050Y685522D01*
X882936Y685522D01*
X882823Y685518D01*
X882710Y685510D01*
X882597Y685498D01*
X882485Y685482D01*
X882374Y685462D01*
X882263Y685439D01*
X882153Y685411D01*
X882044Y685380D01*
X881936Y685345D01*
X881830Y685306D01*
X881725Y685264D01*
X881621Y685218D01*
X881519Y685168D01*
X881419Y685115D01*
X881321Y685058D01*
X881225Y684998D01*
X881131Y684935D01*
X881040Y684868D01*
X880950Y684799D01*
X880863Y684726D01*
X880779Y684650D01*
X880698Y684571D01*
X880619Y684490D01*
X880543Y684406D01*
X880470Y684319D01*
X880401Y684230D01*
X880334Y684138D01*
X880334Y684137D02*
X877356Y679883D01*
X877355Y679884D02*
X877292Y679790D01*
X877232Y679694D01*
X877175Y679596D01*
X877122Y679496D01*
X877072Y679394D01*
X877026Y679290D01*
X876984Y679185D01*
X876945Y679079D01*
X876910Y678971D01*
X876879Y678862D01*
X876851Y678752D01*
X876828Y678641D01*
X876808Y678530D01*
X876792Y678418D01*
X876780Y678305D01*
X876772Y678192D01*
X876768Y678079D01*
X876768Y677965D01*
X876772Y677852D01*
X876780Y677739D01*
X876792Y677626D01*
X876808Y677514D01*
X876828Y677403D01*
X876851Y677292D01*
X876879Y677182D01*
X876910Y677073D01*
X876945Y676965D01*
X876984Y676859D01*
X877026Y676754D01*
X877072Y676650D01*
X877122Y676548D01*
X877175Y676448D01*
X877232Y676350D01*
X877292Y676254D01*
X877355Y676160D01*
X877422Y676068D01*
X877491Y675979D01*
X877564Y675892D01*
X877640Y675808D01*
X877719Y675727D01*
X877800Y675648D01*
X877884Y675572D01*
X877971Y675499D01*
X878061Y675430D01*
X878152Y675363D01*
X878153Y675363D02*
X880811Y673502D01*
X681742Y539426D02*
X681742Y537478D01*
X681742Y539426D02*
X675251Y539426D01*
X675251Y535531D01*
X675252Y535531D02*
X675254Y535432D01*
X675260Y535332D01*
X675269Y535233D01*
X675282Y535135D01*
X675299Y535037D01*
X675320Y534939D01*
X675345Y534843D01*
X675373Y534748D01*
X675405Y534654D01*
X675440Y534561D01*
X675479Y534469D01*
X675522Y534379D01*
X675567Y534291D01*
X675617Y534204D01*
X675669Y534120D01*
X675725Y534037D01*
X675783Y533957D01*
X675845Y533879D01*
X675910Y533804D01*
X675978Y533731D01*
X676048Y533661D01*
X676121Y533593D01*
X676196Y533528D01*
X676274Y533466D01*
X676354Y533408D01*
X676437Y533352D01*
X676521Y533300D01*
X676608Y533250D01*
X676696Y533205D01*
X676786Y533162D01*
X676878Y533123D01*
X676971Y533088D01*
X677065Y533056D01*
X677160Y533028D01*
X677256Y533003D01*
X677354Y532982D01*
X677452Y532965D01*
X677550Y532952D01*
X677649Y532943D01*
X677749Y532937D01*
X677848Y532935D01*
X684339Y532935D01*
X684438Y532937D01*
X684538Y532943D01*
X684637Y532952D01*
X684735Y532965D01*
X684833Y532982D01*
X684931Y533003D01*
X685027Y533028D01*
X685122Y533056D01*
X685216Y533088D01*
X685309Y533123D01*
X685401Y533162D01*
X685491Y533205D01*
X685579Y533250D01*
X685666Y533300D01*
X685750Y533352D01*
X685833Y533408D01*
X685913Y533466D01*
X685991Y533528D01*
X686066Y533593D01*
X686139Y533661D01*
X686209Y533731D01*
X686277Y533804D01*
X686342Y533879D01*
X686404Y533957D01*
X686462Y534037D01*
X686518Y534120D01*
X686570Y534204D01*
X686620Y534291D01*
X686665Y534379D01*
X686708Y534469D01*
X686747Y534561D01*
X686782Y534653D01*
X686814Y534748D01*
X686842Y534843D01*
X686867Y534939D01*
X686888Y535037D01*
X686905Y535135D01*
X686918Y535233D01*
X686927Y535332D01*
X686933Y535432D01*
X686935Y535531D01*
X686935Y539426D01*
X686935Y545126D02*
X675251Y545126D01*
X675251Y551618D02*
X686935Y545126D01*
X686935Y551618D02*
X675251Y551618D01*
X675251Y557318D02*
X686935Y557318D01*
X686935Y560564D01*
X686936Y560564D02*
X686934Y560677D01*
X686928Y560790D01*
X686918Y560903D01*
X686904Y561016D01*
X686887Y561128D01*
X686865Y561239D01*
X686840Y561349D01*
X686810Y561459D01*
X686777Y561567D01*
X686740Y561674D01*
X686700Y561780D01*
X686655Y561884D01*
X686607Y561987D01*
X686556Y562088D01*
X686501Y562187D01*
X686443Y562284D01*
X686381Y562379D01*
X686316Y562472D01*
X686248Y562562D01*
X686177Y562650D01*
X686102Y562736D01*
X686025Y562819D01*
X685945Y562899D01*
X685862Y562976D01*
X685776Y563051D01*
X685688Y563122D01*
X685598Y563190D01*
X685505Y563255D01*
X685410Y563317D01*
X685313Y563375D01*
X685214Y563430D01*
X685113Y563481D01*
X685010Y563529D01*
X684906Y563574D01*
X684800Y563614D01*
X684693Y563651D01*
X684585Y563684D01*
X684475Y563714D01*
X684365Y563739D01*
X684254Y563761D01*
X684142Y563778D01*
X684029Y563792D01*
X683916Y563802D01*
X683803Y563808D01*
X683690Y563810D01*
X678497Y563810D01*
X678384Y563808D01*
X678271Y563802D01*
X678158Y563792D01*
X678045Y563778D01*
X677933Y563761D01*
X677822Y563739D01*
X677712Y563714D01*
X677602Y563684D01*
X677494Y563651D01*
X677387Y563614D01*
X677281Y563574D01*
X677177Y563529D01*
X677074Y563481D01*
X676973Y563430D01*
X676874Y563375D01*
X676777Y563317D01*
X676682Y563255D01*
X676589Y563190D01*
X676499Y563122D01*
X676411Y563051D01*
X676325Y562976D01*
X676242Y562899D01*
X676162Y562819D01*
X676085Y562736D01*
X676010Y562650D01*
X675939Y562562D01*
X675871Y562472D01*
X675806Y562379D01*
X675744Y562284D01*
X675686Y562187D01*
X675631Y562088D01*
X675580Y561987D01*
X675532Y561884D01*
X675487Y561780D01*
X675447Y561674D01*
X675410Y561567D01*
X675377Y561459D01*
X675347Y561349D01*
X675322Y561239D01*
X675300Y561128D01*
X675283Y561016D01*
X675269Y560903D01*
X675259Y560790D01*
X675253Y560677D01*
X675251Y560564D01*
X675251Y557318D01*
X968340Y536416D02*
X968340Y534468D01*
X968340Y536416D02*
X961849Y536416D01*
X961849Y532521D01*
X961851Y532422D01*
X961857Y532322D01*
X961866Y532223D01*
X961879Y532125D01*
X961896Y532027D01*
X961917Y531929D01*
X961942Y531833D01*
X961970Y531738D01*
X962002Y531644D01*
X962037Y531551D01*
X962076Y531459D01*
X962119Y531369D01*
X962164Y531281D01*
X962214Y531194D01*
X962266Y531110D01*
X962322Y531027D01*
X962380Y530947D01*
X962442Y530869D01*
X962507Y530794D01*
X962575Y530721D01*
X962645Y530651D01*
X962718Y530583D01*
X962793Y530518D01*
X962871Y530456D01*
X962951Y530398D01*
X963034Y530342D01*
X963118Y530290D01*
X963205Y530240D01*
X963293Y530195D01*
X963383Y530152D01*
X963475Y530113D01*
X963568Y530078D01*
X963662Y530046D01*
X963757Y530018D01*
X963853Y529993D01*
X963951Y529972D01*
X964049Y529955D01*
X964147Y529942D01*
X964246Y529933D01*
X964346Y529927D01*
X964445Y529925D01*
X964445Y529924D02*
X970936Y529924D01*
X970936Y529925D02*
X971035Y529927D01*
X971135Y529933D01*
X971234Y529942D01*
X971332Y529955D01*
X971430Y529972D01*
X971528Y529993D01*
X971624Y530018D01*
X971719Y530046D01*
X971813Y530078D01*
X971906Y530113D01*
X971998Y530152D01*
X972088Y530195D01*
X972176Y530240D01*
X972263Y530290D01*
X972347Y530342D01*
X972430Y530398D01*
X972510Y530456D01*
X972588Y530518D01*
X972663Y530583D01*
X972736Y530651D01*
X972806Y530721D01*
X972874Y530794D01*
X972939Y530869D01*
X973001Y530947D01*
X973059Y531027D01*
X973115Y531110D01*
X973167Y531194D01*
X973217Y531281D01*
X973262Y531369D01*
X973305Y531459D01*
X973344Y531551D01*
X973379Y531643D01*
X973411Y531738D01*
X973439Y531833D01*
X973464Y531929D01*
X973485Y532027D01*
X973502Y532125D01*
X973515Y532223D01*
X973524Y532322D01*
X973530Y532422D01*
X973532Y532521D01*
X973533Y532521D02*
X973533Y536416D01*
X973533Y542116D02*
X961849Y542116D01*
X961849Y548608D02*
X973533Y542116D01*
X973533Y548608D02*
X961849Y548608D01*
X961849Y554308D02*
X973533Y554308D01*
X973533Y557554D01*
X973531Y557667D01*
X973525Y557780D01*
X973515Y557893D01*
X973501Y558006D01*
X973484Y558118D01*
X973462Y558229D01*
X973437Y558339D01*
X973407Y558449D01*
X973374Y558557D01*
X973337Y558664D01*
X973297Y558770D01*
X973252Y558874D01*
X973204Y558977D01*
X973153Y559078D01*
X973098Y559177D01*
X973040Y559274D01*
X972978Y559369D01*
X972913Y559462D01*
X972845Y559552D01*
X972774Y559640D01*
X972699Y559726D01*
X972622Y559809D01*
X972542Y559889D01*
X972459Y559966D01*
X972373Y560041D01*
X972285Y560112D01*
X972195Y560180D01*
X972102Y560245D01*
X972007Y560307D01*
X971910Y560365D01*
X971811Y560420D01*
X971710Y560471D01*
X971607Y560519D01*
X971503Y560564D01*
X971397Y560604D01*
X971290Y560641D01*
X971182Y560674D01*
X971072Y560704D01*
X970962Y560729D01*
X970851Y560751D01*
X970739Y560768D01*
X970626Y560782D01*
X970513Y560792D01*
X970400Y560798D01*
X970287Y560800D01*
X970287Y560799D02*
X965094Y560799D01*
X965094Y560800D02*
X964981Y560798D01*
X964868Y560792D01*
X964755Y560782D01*
X964642Y560768D01*
X964530Y560751D01*
X964419Y560729D01*
X964309Y560704D01*
X964199Y560674D01*
X964091Y560641D01*
X963984Y560604D01*
X963878Y560564D01*
X963774Y560519D01*
X963671Y560471D01*
X963570Y560420D01*
X963471Y560365D01*
X963374Y560307D01*
X963279Y560245D01*
X963186Y560180D01*
X963096Y560112D01*
X963008Y560041D01*
X962922Y559966D01*
X962839Y559889D01*
X962759Y559809D01*
X962682Y559726D01*
X962607Y559640D01*
X962536Y559552D01*
X962468Y559462D01*
X962403Y559369D01*
X962341Y559274D01*
X962283Y559177D01*
X962228Y559078D01*
X962177Y558977D01*
X962129Y558874D01*
X962084Y558770D01*
X962044Y558664D01*
X962007Y558557D01*
X961974Y558449D01*
X961944Y558339D01*
X961919Y558229D01*
X961897Y558118D01*
X961880Y558006D01*
X961866Y557893D01*
X961856Y557780D01*
X961850Y557667D01*
X961848Y557554D01*
X961849Y557554D02*
X961849Y554308D01*
D10*
X931192Y463581D02*
X931192Y445801D01*
X931192Y463581D02*
X926253Y463581D01*
X926113Y463579D01*
X925974Y463573D01*
X925834Y463563D01*
X925695Y463549D01*
X925556Y463532D01*
X925418Y463510D01*
X925281Y463484D01*
X925144Y463455D01*
X925008Y463422D01*
X924874Y463385D01*
X924740Y463344D01*
X924608Y463299D01*
X924476Y463250D01*
X924347Y463198D01*
X924219Y463143D01*
X924092Y463083D01*
X923967Y463020D01*
X923844Y462954D01*
X923723Y462884D01*
X923604Y462811D01*
X923487Y462734D01*
X923373Y462654D01*
X923260Y462571D01*
X923150Y462485D01*
X923043Y462395D01*
X922938Y462303D01*
X922836Y462208D01*
X922736Y462110D01*
X922639Y462009D01*
X922545Y461905D01*
X922455Y461799D01*
X922367Y461690D01*
X922282Y461579D01*
X922201Y461465D01*
X922122Y461350D01*
X922047Y461232D01*
X921976Y461112D01*
X921908Y460989D01*
X921843Y460866D01*
X921782Y460740D01*
X921724Y460612D01*
X921670Y460484D01*
X921620Y460353D01*
X921573Y460221D01*
X921530Y460088D01*
X921491Y459954D01*
X921456Y459819D01*
X921425Y459683D01*
X921397Y459545D01*
X921374Y459408D01*
X921354Y459269D01*
X921338Y459130D01*
X921326Y458991D01*
X921318Y458852D01*
X921314Y458712D01*
X921314Y458572D01*
X921318Y458432D01*
X921326Y458293D01*
X921338Y458154D01*
X921354Y458015D01*
X921374Y457876D01*
X921397Y457739D01*
X921425Y457601D01*
X921456Y457465D01*
X921491Y457330D01*
X921530Y457196D01*
X921573Y457063D01*
X921620Y456931D01*
X921670Y456800D01*
X921724Y456672D01*
X921782Y456544D01*
X921843Y456418D01*
X921908Y456295D01*
X921976Y456173D01*
X922047Y456052D01*
X922122Y455934D01*
X922201Y455819D01*
X922282Y455705D01*
X922367Y455594D01*
X922455Y455485D01*
X922545Y455379D01*
X922639Y455275D01*
X922736Y455174D01*
X922836Y455076D01*
X922938Y454981D01*
X923043Y454889D01*
X923150Y454799D01*
X923260Y454713D01*
X923373Y454630D01*
X923487Y454550D01*
X923604Y454473D01*
X923723Y454400D01*
X923844Y454330D01*
X923967Y454264D01*
X924092Y454201D01*
X924219Y454141D01*
X924347Y454086D01*
X924476Y454034D01*
X924608Y453985D01*
X924740Y453940D01*
X924874Y453899D01*
X925008Y453862D01*
X925144Y453829D01*
X925281Y453800D01*
X925418Y453774D01*
X925556Y453752D01*
X925695Y453735D01*
X925834Y453721D01*
X925974Y453711D01*
X926113Y453705D01*
X926253Y453703D01*
X931192Y453703D01*
X909764Y463581D02*
X909632Y463579D01*
X909501Y463573D01*
X909369Y463563D01*
X909238Y463550D01*
X909108Y463532D01*
X908978Y463511D01*
X908848Y463486D01*
X908720Y463457D01*
X908592Y463424D01*
X908466Y463387D01*
X908340Y463347D01*
X908216Y463303D01*
X908093Y463255D01*
X907972Y463204D01*
X907852Y463149D01*
X907734Y463091D01*
X907618Y463029D01*
X907504Y462963D01*
X907391Y462895D01*
X907281Y462823D01*
X907173Y462748D01*
X907067Y462669D01*
X906963Y462588D01*
X906862Y462503D01*
X906764Y462416D01*
X906668Y462325D01*
X906575Y462232D01*
X906484Y462136D01*
X906397Y462038D01*
X906312Y461937D01*
X906231Y461833D01*
X906152Y461727D01*
X906077Y461619D01*
X906005Y461509D01*
X905937Y461396D01*
X905871Y461282D01*
X905809Y461166D01*
X905751Y461048D01*
X905696Y460928D01*
X905645Y460807D01*
X905597Y460684D01*
X905553Y460560D01*
X905513Y460434D01*
X905476Y460308D01*
X905443Y460180D01*
X905414Y460052D01*
X905389Y459922D01*
X905368Y459792D01*
X905350Y459662D01*
X905337Y459531D01*
X905327Y459399D01*
X905321Y459268D01*
X905319Y459136D01*
X909764Y463582D02*
X909914Y463580D01*
X910063Y463574D01*
X910212Y463564D01*
X910361Y463551D01*
X910510Y463533D01*
X910658Y463512D01*
X910806Y463486D01*
X910952Y463457D01*
X911098Y463424D01*
X911243Y463387D01*
X911387Y463346D01*
X911530Y463302D01*
X911672Y463254D01*
X911812Y463202D01*
X911951Y463147D01*
X912089Y463088D01*
X912224Y463025D01*
X912359Y462959D01*
X912491Y462889D01*
X912621Y462816D01*
X912750Y462739D01*
X912877Y462659D01*
X913001Y462576D01*
X913123Y462490D01*
X913243Y462400D01*
X913360Y462307D01*
X913475Y462212D01*
X913588Y462113D01*
X913698Y462011D01*
X913805Y461907D01*
X913909Y461800D01*
X914011Y461690D01*
X914109Y461577D01*
X914205Y461462D01*
X914297Y461344D01*
X914387Y461224D01*
X914473Y461102D01*
X914556Y460978D01*
X914636Y460851D01*
X914712Y460723D01*
X914785Y460592D01*
X914855Y460459D01*
X914921Y460325D01*
X914983Y460189D01*
X915042Y460052D01*
X915098Y459913D01*
X915149Y459772D01*
X915197Y459631D01*
X906801Y455679D02*
X906705Y455772D01*
X906613Y455868D01*
X906523Y455967D01*
X906436Y456068D01*
X906352Y456171D01*
X906270Y456276D01*
X906192Y456384D01*
X906117Y456494D01*
X906044Y456606D01*
X905975Y456720D01*
X905909Y456836D01*
X905847Y456954D01*
X905788Y457073D01*
X905732Y457194D01*
X905679Y457317D01*
X905630Y457441D01*
X905585Y457566D01*
X905542Y457693D01*
X905504Y457820D01*
X905469Y457949D01*
X905438Y458078D01*
X905410Y458209D01*
X905386Y458340D01*
X905365Y458472D01*
X905349Y458604D01*
X905336Y458737D01*
X905326Y458870D01*
X905321Y459003D01*
X905319Y459136D01*
X906800Y455679D02*
X915196Y445801D01*
X905319Y445801D01*
X892949Y452716D02*
X892949Y458642D01*
X892949Y452716D02*
X889492Y448271D01*
X892949Y452716D02*
X896406Y448271D01*
X892949Y452716D02*
X887516Y454691D01*
X892949Y452716D02*
X898382Y454691D01*
X740692Y447247D02*
X740692Y465027D01*
X735753Y465027D01*
X735613Y465025D01*
X735474Y465019D01*
X735334Y465009D01*
X735195Y464995D01*
X735056Y464978D01*
X734918Y464956D01*
X734781Y464930D01*
X734644Y464901D01*
X734508Y464868D01*
X734374Y464831D01*
X734240Y464790D01*
X734108Y464745D01*
X733976Y464696D01*
X733847Y464644D01*
X733719Y464589D01*
X733592Y464529D01*
X733467Y464466D01*
X733344Y464400D01*
X733223Y464330D01*
X733104Y464257D01*
X732987Y464180D01*
X732873Y464100D01*
X732760Y464017D01*
X732650Y463931D01*
X732543Y463841D01*
X732438Y463749D01*
X732336Y463654D01*
X732236Y463556D01*
X732139Y463455D01*
X732045Y463351D01*
X731955Y463245D01*
X731867Y463136D01*
X731782Y463025D01*
X731701Y462911D01*
X731622Y462796D01*
X731547Y462678D01*
X731476Y462558D01*
X731408Y462435D01*
X731343Y462312D01*
X731282Y462186D01*
X731224Y462058D01*
X731170Y461930D01*
X731120Y461799D01*
X731073Y461667D01*
X731030Y461534D01*
X730991Y461400D01*
X730956Y461265D01*
X730925Y461129D01*
X730897Y460991D01*
X730874Y460854D01*
X730854Y460715D01*
X730838Y460576D01*
X730826Y460437D01*
X730818Y460298D01*
X730814Y460158D01*
X730814Y460018D01*
X730818Y459878D01*
X730826Y459739D01*
X730838Y459600D01*
X730854Y459461D01*
X730874Y459322D01*
X730897Y459185D01*
X730925Y459047D01*
X730956Y458911D01*
X730991Y458776D01*
X731030Y458642D01*
X731073Y458509D01*
X731120Y458377D01*
X731170Y458246D01*
X731224Y458118D01*
X731282Y457990D01*
X731343Y457864D01*
X731408Y457741D01*
X731476Y457619D01*
X731547Y457498D01*
X731622Y457380D01*
X731701Y457265D01*
X731782Y457151D01*
X731867Y457040D01*
X731955Y456931D01*
X732045Y456825D01*
X732139Y456721D01*
X732236Y456620D01*
X732336Y456522D01*
X732438Y456427D01*
X732543Y456335D01*
X732650Y456245D01*
X732760Y456159D01*
X732873Y456076D01*
X732987Y455996D01*
X733104Y455919D01*
X733223Y455846D01*
X733344Y455776D01*
X733467Y455710D01*
X733592Y455647D01*
X733719Y455587D01*
X733847Y455532D01*
X733976Y455480D01*
X734108Y455431D01*
X734240Y455386D01*
X734374Y455345D01*
X734508Y455308D01*
X734644Y455275D01*
X734781Y455246D01*
X734918Y455220D01*
X735056Y455198D01*
X735195Y455181D01*
X735334Y455167D01*
X735474Y455157D01*
X735613Y455151D01*
X735753Y455149D01*
X740692Y455149D01*
X724697Y451198D02*
X720746Y465027D01*
X724697Y451198D02*
X714819Y451198D01*
X717783Y455149D02*
X717783Y447247D01*
X715915Y582723D02*
X715915Y600503D01*
X710976Y600503D01*
X710836Y600501D01*
X710697Y600495D01*
X710557Y600485D01*
X710418Y600471D01*
X710279Y600454D01*
X710141Y600432D01*
X710004Y600406D01*
X709867Y600377D01*
X709731Y600344D01*
X709597Y600307D01*
X709463Y600266D01*
X709331Y600221D01*
X709199Y600172D01*
X709070Y600120D01*
X708942Y600065D01*
X708815Y600005D01*
X708690Y599942D01*
X708567Y599876D01*
X708446Y599806D01*
X708327Y599733D01*
X708210Y599656D01*
X708096Y599576D01*
X707983Y599493D01*
X707873Y599407D01*
X707766Y599317D01*
X707661Y599225D01*
X707559Y599130D01*
X707459Y599032D01*
X707362Y598931D01*
X707268Y598827D01*
X707178Y598721D01*
X707090Y598612D01*
X707005Y598501D01*
X706924Y598387D01*
X706845Y598272D01*
X706770Y598154D01*
X706699Y598034D01*
X706631Y597911D01*
X706566Y597788D01*
X706505Y597662D01*
X706447Y597534D01*
X706393Y597406D01*
X706343Y597275D01*
X706296Y597143D01*
X706253Y597010D01*
X706214Y596876D01*
X706179Y596741D01*
X706148Y596605D01*
X706120Y596467D01*
X706097Y596330D01*
X706077Y596191D01*
X706061Y596052D01*
X706049Y595913D01*
X706041Y595774D01*
X706037Y595634D01*
X706037Y595494D01*
X706041Y595354D01*
X706049Y595215D01*
X706061Y595076D01*
X706077Y594937D01*
X706097Y594798D01*
X706120Y594661D01*
X706148Y594523D01*
X706179Y594387D01*
X706214Y594252D01*
X706253Y594118D01*
X706296Y593985D01*
X706343Y593853D01*
X706393Y593722D01*
X706447Y593594D01*
X706505Y593466D01*
X706566Y593340D01*
X706631Y593217D01*
X706699Y593095D01*
X706770Y592974D01*
X706845Y592856D01*
X706924Y592741D01*
X707005Y592627D01*
X707090Y592516D01*
X707178Y592407D01*
X707268Y592301D01*
X707362Y592197D01*
X707459Y592096D01*
X707559Y591998D01*
X707661Y591903D01*
X707766Y591811D01*
X707873Y591721D01*
X707983Y591635D01*
X708096Y591552D01*
X708210Y591472D01*
X708327Y591395D01*
X708446Y591322D01*
X708567Y591252D01*
X708690Y591186D01*
X708815Y591123D01*
X708942Y591063D01*
X709070Y591008D01*
X709199Y590956D01*
X709331Y590907D01*
X709463Y590862D01*
X709597Y590821D01*
X709731Y590784D01*
X709867Y590751D01*
X710004Y590722D01*
X710141Y590696D01*
X710279Y590674D01*
X710418Y590657D01*
X710557Y590643D01*
X710697Y590633D01*
X710836Y590627D01*
X710976Y590625D01*
X715915Y590625D01*
X699920Y582723D02*
X693993Y582723D01*
X693869Y582725D01*
X693745Y582731D01*
X693621Y582741D01*
X693498Y582754D01*
X693375Y582772D01*
X693253Y582793D01*
X693131Y582818D01*
X693010Y582847D01*
X692891Y582880D01*
X692772Y582916D01*
X692655Y582957D01*
X692539Y583000D01*
X692424Y583048D01*
X692311Y583099D01*
X692199Y583154D01*
X692090Y583212D01*
X691982Y583273D01*
X691876Y583338D01*
X691772Y583406D01*
X691671Y583478D01*
X691571Y583552D01*
X691475Y583630D01*
X691380Y583710D01*
X691288Y583794D01*
X691199Y583880D01*
X691113Y583969D01*
X691029Y584061D01*
X690949Y584156D01*
X690871Y584252D01*
X690797Y584352D01*
X690725Y584453D01*
X690657Y584557D01*
X690592Y584663D01*
X690531Y584771D01*
X690473Y584880D01*
X690418Y584992D01*
X690367Y585105D01*
X690319Y585220D01*
X690276Y585336D01*
X690235Y585453D01*
X690199Y585572D01*
X690166Y585691D01*
X690137Y585812D01*
X690112Y585934D01*
X690091Y586056D01*
X690073Y586179D01*
X690060Y586302D01*
X690050Y586426D01*
X690044Y586550D01*
X690042Y586674D01*
X690042Y588650D01*
X690044Y588774D01*
X690050Y588898D01*
X690060Y589022D01*
X690073Y589145D01*
X690091Y589268D01*
X690112Y589390D01*
X690137Y589512D01*
X690166Y589633D01*
X690199Y589752D01*
X690235Y589871D01*
X690276Y589988D01*
X690319Y590104D01*
X690367Y590219D01*
X690418Y590332D01*
X690473Y590444D01*
X690531Y590553D01*
X690592Y590661D01*
X690657Y590767D01*
X690725Y590871D01*
X690797Y590972D01*
X690871Y591072D01*
X690949Y591168D01*
X691029Y591263D01*
X691113Y591355D01*
X691199Y591444D01*
X691288Y591530D01*
X691380Y591614D01*
X691475Y591694D01*
X691571Y591772D01*
X691671Y591846D01*
X691772Y591918D01*
X691876Y591986D01*
X691982Y592051D01*
X692090Y592112D01*
X692199Y592170D01*
X692311Y592225D01*
X692424Y592276D01*
X692539Y592324D01*
X692655Y592367D01*
X692772Y592408D01*
X692891Y592444D01*
X693010Y592477D01*
X693131Y592506D01*
X693253Y592531D01*
X693375Y592552D01*
X693498Y592570D01*
X693621Y592583D01*
X693745Y592593D01*
X693869Y592599D01*
X693993Y592601D01*
X699920Y592601D01*
X699920Y600503D01*
X690042Y600503D01*
X834355Y660766D02*
X834355Y678546D01*
X829416Y678546D01*
X829276Y678544D01*
X829137Y678538D01*
X828997Y678528D01*
X828858Y678514D01*
X828719Y678497D01*
X828581Y678475D01*
X828444Y678449D01*
X828307Y678420D01*
X828171Y678387D01*
X828037Y678350D01*
X827903Y678309D01*
X827771Y678264D01*
X827639Y678215D01*
X827510Y678163D01*
X827382Y678108D01*
X827255Y678048D01*
X827130Y677985D01*
X827007Y677919D01*
X826886Y677849D01*
X826767Y677776D01*
X826650Y677699D01*
X826536Y677619D01*
X826423Y677536D01*
X826313Y677450D01*
X826206Y677360D01*
X826101Y677268D01*
X825999Y677173D01*
X825899Y677075D01*
X825802Y676974D01*
X825708Y676870D01*
X825618Y676764D01*
X825530Y676655D01*
X825445Y676544D01*
X825364Y676430D01*
X825285Y676315D01*
X825210Y676197D01*
X825139Y676077D01*
X825071Y675954D01*
X825006Y675831D01*
X824945Y675705D01*
X824887Y675577D01*
X824833Y675449D01*
X824783Y675318D01*
X824736Y675186D01*
X824693Y675053D01*
X824654Y674919D01*
X824619Y674784D01*
X824588Y674648D01*
X824560Y674510D01*
X824537Y674373D01*
X824517Y674234D01*
X824501Y674095D01*
X824489Y673956D01*
X824481Y673817D01*
X824477Y673677D01*
X824477Y673537D01*
X824481Y673397D01*
X824489Y673258D01*
X824501Y673119D01*
X824517Y672980D01*
X824537Y672841D01*
X824560Y672704D01*
X824588Y672566D01*
X824619Y672430D01*
X824654Y672295D01*
X824693Y672161D01*
X824736Y672028D01*
X824783Y671896D01*
X824833Y671765D01*
X824887Y671637D01*
X824945Y671509D01*
X825006Y671383D01*
X825071Y671260D01*
X825139Y671138D01*
X825210Y671017D01*
X825285Y670899D01*
X825364Y670784D01*
X825445Y670670D01*
X825530Y670559D01*
X825618Y670450D01*
X825708Y670344D01*
X825802Y670240D01*
X825899Y670139D01*
X825999Y670041D01*
X826101Y669946D01*
X826206Y669854D01*
X826313Y669764D01*
X826423Y669678D01*
X826536Y669595D01*
X826650Y669515D01*
X826767Y669438D01*
X826886Y669365D01*
X827007Y669295D01*
X827130Y669229D01*
X827255Y669166D01*
X827382Y669106D01*
X827510Y669051D01*
X827639Y668999D01*
X827771Y668950D01*
X827903Y668905D01*
X828037Y668864D01*
X828171Y668827D01*
X828307Y668794D01*
X828444Y668765D01*
X828581Y668739D01*
X828719Y668717D01*
X828858Y668700D01*
X828997Y668686D01*
X829137Y668676D01*
X829276Y668670D01*
X829416Y668668D01*
X834355Y668668D01*
X818359Y670643D02*
X812433Y670643D01*
X812309Y670641D01*
X812185Y670635D01*
X812061Y670625D01*
X811938Y670612D01*
X811815Y670594D01*
X811693Y670573D01*
X811571Y670548D01*
X811450Y670519D01*
X811331Y670486D01*
X811212Y670450D01*
X811095Y670409D01*
X810979Y670366D01*
X810864Y670318D01*
X810751Y670267D01*
X810639Y670212D01*
X810530Y670154D01*
X810422Y670093D01*
X810316Y670028D01*
X810212Y669960D01*
X810111Y669888D01*
X810011Y669814D01*
X809915Y669736D01*
X809820Y669656D01*
X809728Y669572D01*
X809639Y669486D01*
X809553Y669397D01*
X809469Y669305D01*
X809389Y669210D01*
X809311Y669114D01*
X809237Y669014D01*
X809165Y668913D01*
X809097Y668809D01*
X809032Y668703D01*
X808971Y668595D01*
X808913Y668486D01*
X808858Y668374D01*
X808807Y668261D01*
X808759Y668146D01*
X808716Y668030D01*
X808675Y667913D01*
X808639Y667794D01*
X808606Y667675D01*
X808577Y667554D01*
X808552Y667432D01*
X808531Y667310D01*
X808513Y667187D01*
X808500Y667064D01*
X808490Y666940D01*
X808484Y666816D01*
X808482Y666692D01*
X808482Y665705D01*
X808484Y665565D01*
X808490Y665426D01*
X808500Y665286D01*
X808514Y665147D01*
X808531Y665008D01*
X808553Y664870D01*
X808579Y664733D01*
X808608Y664596D01*
X808641Y664460D01*
X808678Y664326D01*
X808719Y664192D01*
X808764Y664060D01*
X808813Y663928D01*
X808865Y663799D01*
X808920Y663671D01*
X808980Y663544D01*
X809043Y663419D01*
X809109Y663296D01*
X809179Y663175D01*
X809252Y663056D01*
X809329Y662939D01*
X809409Y662825D01*
X809492Y662712D01*
X809578Y662602D01*
X809668Y662495D01*
X809760Y662390D01*
X809855Y662288D01*
X809953Y662188D01*
X810054Y662091D01*
X810158Y661997D01*
X810264Y661907D01*
X810373Y661819D01*
X810484Y661734D01*
X810598Y661653D01*
X810713Y661574D01*
X810831Y661499D01*
X810952Y661428D01*
X811074Y661360D01*
X811197Y661295D01*
X811323Y661234D01*
X811451Y661176D01*
X811579Y661122D01*
X811710Y661072D01*
X811842Y661025D01*
X811975Y660982D01*
X812109Y660943D01*
X812244Y660908D01*
X812380Y660877D01*
X812518Y660849D01*
X812655Y660826D01*
X812794Y660806D01*
X812933Y660790D01*
X813072Y660778D01*
X813211Y660770D01*
X813351Y660766D01*
X813491Y660766D01*
X813631Y660770D01*
X813770Y660778D01*
X813909Y660790D01*
X814048Y660806D01*
X814187Y660826D01*
X814324Y660849D01*
X814462Y660877D01*
X814598Y660908D01*
X814733Y660943D01*
X814867Y660982D01*
X815000Y661025D01*
X815132Y661072D01*
X815263Y661122D01*
X815391Y661176D01*
X815519Y661234D01*
X815645Y661295D01*
X815768Y661360D01*
X815891Y661428D01*
X816011Y661499D01*
X816129Y661574D01*
X816244Y661653D01*
X816358Y661734D01*
X816469Y661819D01*
X816578Y661907D01*
X816684Y661997D01*
X816788Y662091D01*
X816889Y662188D01*
X816987Y662288D01*
X817082Y662390D01*
X817174Y662495D01*
X817264Y662602D01*
X817350Y662712D01*
X817433Y662825D01*
X817513Y662939D01*
X817590Y663056D01*
X817663Y663175D01*
X817733Y663296D01*
X817799Y663419D01*
X817862Y663544D01*
X817922Y663671D01*
X817977Y663799D01*
X818029Y663928D01*
X818078Y664060D01*
X818123Y664192D01*
X818164Y664326D01*
X818201Y664460D01*
X818234Y664596D01*
X818263Y664733D01*
X818289Y664870D01*
X818311Y665008D01*
X818328Y665147D01*
X818342Y665286D01*
X818352Y665426D01*
X818358Y665565D01*
X818360Y665705D01*
X818359Y665705D02*
X818359Y670643D01*
X818357Y670837D01*
X818349Y671031D01*
X818338Y671224D01*
X818321Y671418D01*
X818300Y671610D01*
X818273Y671802D01*
X818243Y671994D01*
X818207Y672185D01*
X818167Y672374D01*
X818122Y672563D01*
X818073Y672751D01*
X818019Y672937D01*
X817960Y673122D01*
X817897Y673305D01*
X817830Y673487D01*
X817758Y673667D01*
X817681Y673845D01*
X817600Y674022D01*
X817515Y674196D01*
X817426Y674368D01*
X817332Y674538D01*
X817235Y674705D01*
X817133Y674871D01*
X817027Y675033D01*
X816918Y675193D01*
X816804Y675350D01*
X816687Y675505D01*
X816565Y675656D01*
X816440Y675804D01*
X816312Y675950D01*
X816180Y676092D01*
X816045Y676231D01*
X815906Y676366D01*
X815764Y676498D01*
X815618Y676626D01*
X815470Y676751D01*
X815319Y676872D01*
X815164Y676990D01*
X815007Y677104D01*
X814847Y677213D01*
X814685Y677319D01*
X814519Y677421D01*
X814352Y677518D01*
X814182Y677612D01*
X814010Y677701D01*
X813836Y677786D01*
X813659Y677867D01*
X813481Y677943D01*
X813301Y678015D01*
X813119Y678083D01*
X812936Y678146D01*
X812751Y678205D01*
X812565Y678259D01*
X812377Y678308D01*
X812188Y678353D01*
X811999Y678393D01*
X811808Y678429D01*
X811617Y678459D01*
X811424Y678486D01*
X811232Y678507D01*
X811038Y678524D01*
X810845Y678535D01*
X810651Y678543D01*
X810457Y678545D01*
X951659Y600503D02*
X951659Y582723D01*
X951659Y600503D02*
X946720Y600503D01*
X946580Y600501D01*
X946441Y600495D01*
X946301Y600485D01*
X946162Y600471D01*
X946023Y600454D01*
X945885Y600432D01*
X945748Y600406D01*
X945611Y600377D01*
X945475Y600344D01*
X945341Y600307D01*
X945207Y600266D01*
X945075Y600221D01*
X944943Y600172D01*
X944814Y600120D01*
X944686Y600065D01*
X944559Y600005D01*
X944434Y599942D01*
X944311Y599876D01*
X944190Y599806D01*
X944071Y599733D01*
X943954Y599656D01*
X943840Y599576D01*
X943727Y599493D01*
X943617Y599407D01*
X943510Y599317D01*
X943405Y599225D01*
X943303Y599130D01*
X943203Y599032D01*
X943106Y598931D01*
X943012Y598827D01*
X942922Y598721D01*
X942834Y598612D01*
X942749Y598501D01*
X942668Y598387D01*
X942589Y598272D01*
X942514Y598154D01*
X942443Y598034D01*
X942375Y597911D01*
X942310Y597788D01*
X942249Y597662D01*
X942191Y597534D01*
X942137Y597406D01*
X942087Y597275D01*
X942040Y597143D01*
X941997Y597010D01*
X941958Y596876D01*
X941923Y596741D01*
X941892Y596605D01*
X941864Y596467D01*
X941841Y596330D01*
X941821Y596191D01*
X941805Y596052D01*
X941793Y595913D01*
X941785Y595774D01*
X941781Y595634D01*
X941781Y595494D01*
X941785Y595354D01*
X941793Y595215D01*
X941805Y595076D01*
X941821Y594937D01*
X941841Y594798D01*
X941864Y594661D01*
X941892Y594523D01*
X941923Y594387D01*
X941958Y594252D01*
X941997Y594118D01*
X942040Y593985D01*
X942087Y593853D01*
X942137Y593722D01*
X942191Y593594D01*
X942249Y593466D01*
X942310Y593340D01*
X942375Y593217D01*
X942443Y593095D01*
X942514Y592974D01*
X942589Y592856D01*
X942668Y592741D01*
X942749Y592627D01*
X942834Y592516D01*
X942922Y592407D01*
X943012Y592301D01*
X943106Y592197D01*
X943203Y592096D01*
X943303Y591998D01*
X943405Y591903D01*
X943510Y591811D01*
X943617Y591721D01*
X943727Y591635D01*
X943840Y591552D01*
X943954Y591472D01*
X944071Y591395D01*
X944190Y591322D01*
X944311Y591252D01*
X944434Y591186D01*
X944559Y591123D01*
X944686Y591063D01*
X944814Y591008D01*
X944943Y590956D01*
X945075Y590907D01*
X945207Y590862D01*
X945341Y590821D01*
X945475Y590784D01*
X945611Y590751D01*
X945748Y590722D01*
X945885Y590696D01*
X946023Y590674D01*
X946162Y590657D01*
X946301Y590643D01*
X946441Y590633D01*
X946580Y590627D01*
X946720Y590625D01*
X951659Y590625D01*
X935664Y596552D02*
X930725Y600503D01*
X930725Y582723D01*
X935664Y582723D02*
X925786Y582723D01*
D11*
X758706Y680941D02*
X757214Y679689D01*
X761387Y674717D01*
X764370Y677220D01*
X764445Y677286D01*
X764517Y677354D01*
X764587Y677425D01*
X764654Y677498D01*
X764718Y677574D01*
X764779Y677653D01*
X764837Y677734D01*
X764892Y677817D01*
X764944Y677901D01*
X764992Y677988D01*
X765037Y678077D01*
X765079Y678167D01*
X765117Y678259D01*
X765152Y678352D01*
X765183Y678447D01*
X765210Y678542D01*
X765234Y678639D01*
X765254Y678736D01*
X765270Y678835D01*
X765282Y678933D01*
X765291Y679032D01*
X765296Y679132D01*
X765297Y679231D01*
X765294Y679331D01*
X765288Y679430D01*
X765277Y679529D01*
X765263Y679627D01*
X765245Y679725D01*
X765224Y679822D01*
X765198Y679918D01*
X765169Y680013D01*
X765137Y680107D01*
X765100Y680200D01*
X765061Y680291D01*
X765018Y680381D01*
X764971Y680469D01*
X764921Y680555D01*
X764868Y680639D01*
X764812Y680721D01*
X764752Y680800D01*
X764690Y680878D01*
X760518Y685850D01*
X760453Y685925D01*
X760385Y685998D01*
X760314Y686067D01*
X760240Y686134D01*
X760164Y686199D01*
X760086Y686260D01*
X760005Y686318D01*
X759922Y686373D01*
X759837Y686425D01*
X759750Y686473D01*
X759661Y686518D01*
X759571Y686560D01*
X759479Y686598D01*
X759386Y686633D01*
X759291Y686664D01*
X759196Y686691D01*
X759099Y686715D01*
X759002Y686735D01*
X758904Y686751D01*
X758805Y686763D01*
X758706Y686772D01*
X758606Y686777D01*
X758507Y686778D01*
X758407Y686775D01*
X758308Y686769D01*
X758209Y686758D01*
X758111Y686744D01*
X758013Y686726D01*
X757916Y686705D01*
X757820Y686679D01*
X757724Y686650D01*
X757630Y686618D01*
X757538Y686581D01*
X757447Y686542D01*
X757357Y686498D01*
X757269Y686452D01*
X757183Y686402D01*
X757099Y686349D01*
X757017Y686292D01*
X756937Y686233D01*
X756860Y686170D01*
X753877Y683667D01*
X749509Y680002D02*
X757020Y671052D01*
X752047Y666880D02*
X749509Y680002D01*
X744537Y675830D02*
X752047Y666880D01*
X747680Y663215D02*
X740170Y672166D01*
X737684Y670079D01*
X737684Y670080D02*
X737598Y670005D01*
X737515Y669928D01*
X737435Y669848D01*
X737358Y669765D01*
X737283Y669680D01*
X737212Y669591D01*
X737144Y669501D01*
X737079Y669408D01*
X737017Y669313D01*
X736959Y669216D01*
X736904Y669117D01*
X736853Y669016D01*
X736805Y668913D01*
X736760Y668809D01*
X736720Y668703D01*
X736683Y668596D01*
X736650Y668488D01*
X736620Y668378D01*
X736595Y668268D01*
X736573Y668157D01*
X736556Y668045D01*
X736542Y667932D01*
X736532Y667819D01*
X736526Y667706D01*
X736524Y667593D01*
X736526Y667480D01*
X736532Y667367D01*
X736542Y667254D01*
X736556Y667141D01*
X736573Y667029D01*
X736595Y666918D01*
X736620Y666808D01*
X736650Y666698D01*
X736683Y666590D01*
X736720Y666483D01*
X736760Y666377D01*
X736805Y666273D01*
X736853Y666170D01*
X736904Y666069D01*
X736959Y665970D01*
X737017Y665873D01*
X737079Y665778D01*
X737144Y665685D01*
X737212Y665595D01*
X737283Y665507D01*
X737284Y665507D02*
X740622Y661529D01*
X740621Y661529D02*
X740696Y661443D01*
X740773Y661360D01*
X740853Y661280D01*
X740936Y661203D01*
X741022Y661128D01*
X741110Y661057D01*
X741200Y660989D01*
X741293Y660924D01*
X741388Y660862D01*
X741485Y660804D01*
X741584Y660749D01*
X741685Y660698D01*
X741788Y660650D01*
X741892Y660605D01*
X741998Y660565D01*
X742105Y660528D01*
X742213Y660495D01*
X742323Y660465D01*
X742433Y660440D01*
X742544Y660418D01*
X742656Y660401D01*
X742769Y660387D01*
X742882Y660377D01*
X742995Y660371D01*
X743108Y660369D01*
X743221Y660371D01*
X743334Y660377D01*
X743447Y660387D01*
X743560Y660401D01*
X743672Y660418D01*
X743783Y660440D01*
X743893Y660465D01*
X744003Y660495D01*
X744111Y660528D01*
X744218Y660565D01*
X744324Y660605D01*
X744428Y660650D01*
X744531Y660698D01*
X744632Y660749D01*
X744731Y660804D01*
X744828Y660862D01*
X744923Y660924D01*
X745016Y660989D01*
X745106Y661057D01*
X745195Y661128D01*
X745194Y661129D02*
X747680Y663215D01*
D10*
X838323Y432880D02*
X838323Y415100D01*
X838323Y432880D02*
X833384Y432880D01*
X833244Y432878D01*
X833105Y432872D01*
X832965Y432862D01*
X832826Y432848D01*
X832687Y432831D01*
X832549Y432809D01*
X832412Y432783D01*
X832275Y432754D01*
X832139Y432721D01*
X832005Y432684D01*
X831871Y432643D01*
X831739Y432598D01*
X831607Y432549D01*
X831478Y432497D01*
X831350Y432442D01*
X831223Y432382D01*
X831098Y432319D01*
X830975Y432253D01*
X830854Y432183D01*
X830735Y432110D01*
X830618Y432033D01*
X830504Y431953D01*
X830391Y431870D01*
X830281Y431784D01*
X830174Y431694D01*
X830069Y431602D01*
X829967Y431507D01*
X829867Y431409D01*
X829770Y431308D01*
X829676Y431204D01*
X829586Y431098D01*
X829498Y430989D01*
X829413Y430878D01*
X829332Y430764D01*
X829253Y430649D01*
X829178Y430531D01*
X829107Y430411D01*
X829039Y430288D01*
X828974Y430165D01*
X828913Y430039D01*
X828855Y429911D01*
X828801Y429783D01*
X828751Y429652D01*
X828704Y429520D01*
X828661Y429387D01*
X828622Y429253D01*
X828587Y429118D01*
X828556Y428982D01*
X828528Y428844D01*
X828505Y428707D01*
X828485Y428568D01*
X828469Y428429D01*
X828457Y428290D01*
X828449Y428151D01*
X828445Y428011D01*
X828445Y427871D01*
X828449Y427731D01*
X828457Y427592D01*
X828469Y427453D01*
X828485Y427314D01*
X828505Y427175D01*
X828528Y427038D01*
X828556Y426900D01*
X828587Y426764D01*
X828622Y426629D01*
X828661Y426495D01*
X828704Y426362D01*
X828751Y426230D01*
X828801Y426099D01*
X828855Y425971D01*
X828913Y425843D01*
X828974Y425717D01*
X829039Y425594D01*
X829107Y425472D01*
X829178Y425351D01*
X829253Y425233D01*
X829332Y425118D01*
X829413Y425004D01*
X829498Y424893D01*
X829586Y424784D01*
X829676Y424678D01*
X829770Y424574D01*
X829867Y424473D01*
X829967Y424375D01*
X830069Y424280D01*
X830174Y424188D01*
X830281Y424098D01*
X830391Y424012D01*
X830504Y423929D01*
X830618Y423849D01*
X830735Y423772D01*
X830854Y423699D01*
X830975Y423629D01*
X831098Y423563D01*
X831223Y423500D01*
X831350Y423440D01*
X831478Y423385D01*
X831607Y423333D01*
X831739Y423284D01*
X831871Y423239D01*
X832005Y423198D01*
X832139Y423161D01*
X832275Y423128D01*
X832412Y423099D01*
X832549Y423073D01*
X832687Y423051D01*
X832826Y423034D01*
X832965Y423020D01*
X833105Y423010D01*
X833244Y423004D01*
X833384Y423002D01*
X838323Y423002D01*
X822328Y415100D02*
X817389Y415100D01*
X817249Y415102D01*
X817110Y415108D01*
X816970Y415118D01*
X816831Y415132D01*
X816692Y415149D01*
X816554Y415171D01*
X816417Y415197D01*
X816280Y415226D01*
X816144Y415259D01*
X816010Y415296D01*
X815876Y415337D01*
X815744Y415382D01*
X815612Y415431D01*
X815483Y415483D01*
X815355Y415538D01*
X815228Y415598D01*
X815103Y415661D01*
X814980Y415727D01*
X814859Y415797D01*
X814740Y415870D01*
X814623Y415947D01*
X814509Y416027D01*
X814396Y416110D01*
X814286Y416196D01*
X814179Y416286D01*
X814074Y416378D01*
X813972Y416473D01*
X813872Y416571D01*
X813775Y416672D01*
X813681Y416776D01*
X813591Y416882D01*
X813503Y416991D01*
X813418Y417102D01*
X813337Y417216D01*
X813258Y417331D01*
X813183Y417449D01*
X813112Y417570D01*
X813044Y417692D01*
X812979Y417815D01*
X812918Y417941D01*
X812860Y418069D01*
X812806Y418197D01*
X812756Y418328D01*
X812709Y418460D01*
X812666Y418593D01*
X812627Y418727D01*
X812592Y418862D01*
X812561Y418998D01*
X812533Y419136D01*
X812510Y419273D01*
X812490Y419412D01*
X812474Y419551D01*
X812462Y419690D01*
X812454Y419829D01*
X812450Y419969D01*
X812450Y420109D01*
X812454Y420249D01*
X812462Y420388D01*
X812474Y420527D01*
X812490Y420666D01*
X812510Y420805D01*
X812533Y420942D01*
X812561Y421080D01*
X812592Y421216D01*
X812627Y421351D01*
X812666Y421485D01*
X812709Y421618D01*
X812756Y421750D01*
X812806Y421881D01*
X812860Y422009D01*
X812918Y422137D01*
X812979Y422263D01*
X813044Y422386D01*
X813112Y422509D01*
X813183Y422629D01*
X813258Y422747D01*
X813337Y422862D01*
X813418Y422976D01*
X813503Y423087D01*
X813591Y423196D01*
X813681Y423302D01*
X813775Y423406D01*
X813872Y423507D01*
X813972Y423605D01*
X814074Y423700D01*
X814179Y423792D01*
X814286Y423882D01*
X814396Y423968D01*
X814509Y424051D01*
X814623Y424131D01*
X814740Y424208D01*
X814859Y424281D01*
X814980Y424351D01*
X815103Y424417D01*
X815228Y424480D01*
X815355Y424540D01*
X815483Y424595D01*
X815612Y424647D01*
X815744Y424696D01*
X815876Y424741D01*
X816010Y424782D01*
X816144Y424819D01*
X816280Y424852D01*
X816417Y424881D01*
X816554Y424907D01*
X816692Y424929D01*
X816831Y424946D01*
X816970Y424960D01*
X817110Y424970D01*
X817249Y424976D01*
X817389Y424978D01*
X816402Y432880D02*
X822328Y432880D01*
X816402Y432880D02*
X816278Y432878D01*
X816154Y432872D01*
X816030Y432862D01*
X815907Y432849D01*
X815784Y432831D01*
X815662Y432810D01*
X815540Y432785D01*
X815419Y432756D01*
X815300Y432723D01*
X815181Y432687D01*
X815064Y432646D01*
X814948Y432603D01*
X814833Y432555D01*
X814720Y432504D01*
X814608Y432449D01*
X814499Y432391D01*
X814391Y432330D01*
X814285Y432265D01*
X814181Y432197D01*
X814080Y432125D01*
X813980Y432051D01*
X813884Y431973D01*
X813789Y431893D01*
X813697Y431809D01*
X813608Y431723D01*
X813522Y431634D01*
X813438Y431542D01*
X813358Y431447D01*
X813280Y431351D01*
X813206Y431251D01*
X813134Y431150D01*
X813066Y431046D01*
X813001Y430940D01*
X812940Y430832D01*
X812882Y430723D01*
X812827Y430611D01*
X812776Y430498D01*
X812728Y430383D01*
X812685Y430267D01*
X812644Y430150D01*
X812608Y430031D01*
X812575Y429912D01*
X812546Y429791D01*
X812521Y429669D01*
X812500Y429547D01*
X812482Y429424D01*
X812469Y429301D01*
X812459Y429177D01*
X812453Y429053D01*
X812451Y428929D01*
X812453Y428805D01*
X812459Y428681D01*
X812469Y428557D01*
X812482Y428434D01*
X812500Y428311D01*
X812521Y428189D01*
X812546Y428067D01*
X812575Y427946D01*
X812608Y427827D01*
X812644Y427708D01*
X812685Y427591D01*
X812728Y427475D01*
X812776Y427360D01*
X812827Y427247D01*
X812882Y427135D01*
X812940Y427026D01*
X813001Y426918D01*
X813066Y426812D01*
X813134Y426708D01*
X813206Y426607D01*
X813280Y426507D01*
X813358Y426411D01*
X813438Y426316D01*
X813522Y426224D01*
X813608Y426135D01*
X813697Y426049D01*
X813789Y425965D01*
X813884Y425885D01*
X813980Y425807D01*
X814080Y425733D01*
X814181Y425661D01*
X814285Y425593D01*
X814391Y425528D01*
X814499Y425467D01*
X814608Y425409D01*
X814720Y425354D01*
X814833Y425303D01*
X814948Y425255D01*
X815064Y425212D01*
X815181Y425171D01*
X815300Y425135D01*
X815419Y425102D01*
X815540Y425073D01*
X815662Y425048D01*
X815784Y425027D01*
X815907Y425009D01*
X816030Y424996D01*
X816154Y424986D01*
X816278Y424980D01*
X816402Y424978D01*
X820353Y424978D01*
D12*
X852900Y495513D02*
X852900Y502301D01*
X852901Y495513D02*
X852899Y495412D01*
X852893Y495311D01*
X852883Y495210D01*
X852870Y495110D01*
X852852Y495010D01*
X852831Y494911D01*
X852805Y494813D01*
X852776Y494716D01*
X852744Y494620D01*
X852707Y494526D01*
X852667Y494433D01*
X852623Y494341D01*
X852576Y494252D01*
X852525Y494164D01*
X852471Y494078D01*
X852414Y493995D01*
X852354Y493913D01*
X852290Y493835D01*
X852224Y493758D01*
X852154Y493685D01*
X852082Y493614D01*
X852007Y493546D01*
X851929Y493481D01*
X851849Y493419D01*
X851767Y493360D01*
X851682Y493304D01*
X851596Y493252D01*
X851507Y493203D01*
X851416Y493157D01*
X851324Y493116D01*
X851230Y493077D01*
X851135Y493043D01*
X851039Y493012D01*
X850941Y492985D01*
X850843Y492961D01*
X850743Y492942D01*
X850643Y492926D01*
X850543Y492914D01*
X850442Y492906D01*
X850341Y492902D01*
X850239Y492902D01*
X850138Y492906D01*
X850037Y492914D01*
X849937Y492926D01*
X849837Y492942D01*
X849737Y492961D01*
X849639Y492985D01*
X849541Y493012D01*
X849445Y493043D01*
X849350Y493077D01*
X849256Y493116D01*
X849164Y493157D01*
X849073Y493203D01*
X848985Y493252D01*
X848898Y493304D01*
X848813Y493360D01*
X848731Y493419D01*
X848651Y493481D01*
X848573Y493546D01*
X848498Y493614D01*
X848426Y493685D01*
X848356Y493758D01*
X848290Y493835D01*
X848226Y493913D01*
X848166Y493995D01*
X848109Y494078D01*
X848055Y494164D01*
X848004Y494252D01*
X847957Y494341D01*
X847913Y494433D01*
X847873Y494526D01*
X847836Y494620D01*
X847804Y494716D01*
X847775Y494813D01*
X847749Y494911D01*
X847728Y495010D01*
X847710Y495110D01*
X847697Y495210D01*
X847687Y495311D01*
X847681Y495412D01*
X847679Y495513D01*
X847679Y502301D01*
X843451Y500212D02*
X840841Y502301D01*
X840841Y492903D01*
X843451Y492903D02*
X838230Y492903D01*
D10*
X864876Y581784D02*
X864876Y601913D01*
D12*
X915930Y588312D02*
X918019Y588312D01*
X918108Y588314D01*
X918196Y588320D01*
X918284Y588329D01*
X918372Y588342D01*
X918459Y588359D01*
X918545Y588379D01*
X918630Y588404D01*
X918715Y588431D01*
X918798Y588463D01*
X918879Y588497D01*
X918959Y588536D01*
X919037Y588577D01*
X919114Y588622D01*
X919188Y588670D01*
X919261Y588721D01*
X919331Y588775D01*
X919398Y588833D01*
X919464Y588893D01*
X919526Y588955D01*
X919586Y589021D01*
X919644Y589088D01*
X919698Y589158D01*
X919749Y589231D01*
X919797Y589305D01*
X919842Y589382D01*
X919883Y589460D01*
X919922Y589540D01*
X919956Y589621D01*
X919988Y589704D01*
X920015Y589789D01*
X920040Y589874D01*
X920060Y589960D01*
X920077Y590047D01*
X920090Y590135D01*
X920099Y590223D01*
X920105Y590311D01*
X920107Y590400D01*
X920107Y595621D01*
X920105Y595710D01*
X920099Y595798D01*
X920090Y595886D01*
X920077Y595974D01*
X920060Y596061D01*
X920040Y596147D01*
X920015Y596232D01*
X919988Y596317D01*
X919956Y596400D01*
X919922Y596481D01*
X919883Y596561D01*
X919842Y596639D01*
X919797Y596716D01*
X919749Y596790D01*
X919698Y596863D01*
X919644Y596933D01*
X919586Y597000D01*
X919526Y597066D01*
X919464Y597128D01*
X919398Y597188D01*
X919331Y597246D01*
X919261Y597300D01*
X919188Y597351D01*
X919114Y597399D01*
X919037Y597444D01*
X918959Y597485D01*
X918879Y597524D01*
X918798Y597558D01*
X918715Y597590D01*
X918630Y597617D01*
X918545Y597642D01*
X918459Y597662D01*
X918372Y597679D01*
X918284Y597692D01*
X918196Y597701D01*
X918108Y597707D01*
X918019Y597709D01*
X918019Y597710D02*
X915930Y597710D01*
X909590Y597710D02*
X909495Y597708D01*
X909401Y597702D01*
X909307Y597693D01*
X909213Y597680D01*
X909120Y597663D01*
X909028Y597642D01*
X908936Y597617D01*
X908846Y597589D01*
X908757Y597557D01*
X908669Y597522D01*
X908583Y597483D01*
X908498Y597441D01*
X908415Y597395D01*
X908334Y597346D01*
X908255Y597294D01*
X908178Y597239D01*
X908104Y597180D01*
X908032Y597119D01*
X907962Y597055D01*
X907895Y596988D01*
X907831Y596918D01*
X907770Y596846D01*
X907711Y596772D01*
X907656Y596695D01*
X907604Y596616D01*
X907555Y596535D01*
X907509Y596452D01*
X907467Y596367D01*
X907428Y596281D01*
X907393Y596193D01*
X907361Y596104D01*
X907333Y596014D01*
X907308Y595922D01*
X907287Y595830D01*
X907270Y595737D01*
X907257Y595643D01*
X907248Y595549D01*
X907242Y595455D01*
X907240Y595360D01*
X909590Y597709D02*
X909698Y597707D01*
X909807Y597701D01*
X909915Y597691D01*
X910022Y597678D01*
X910129Y597660D01*
X910236Y597639D01*
X910341Y597614D01*
X910446Y597585D01*
X910549Y597553D01*
X910651Y597516D01*
X910752Y597476D01*
X910851Y597433D01*
X910949Y597386D01*
X911045Y597335D01*
X911139Y597281D01*
X911231Y597224D01*
X911321Y597163D01*
X911409Y597099D01*
X911494Y597033D01*
X911577Y596963D01*
X911657Y596890D01*
X911735Y596814D01*
X911810Y596736D01*
X911882Y596655D01*
X911951Y596571D01*
X912017Y596485D01*
X912080Y596397D01*
X912139Y596306D01*
X912196Y596214D01*
X912249Y596119D01*
X912298Y596022D01*
X912344Y595924D01*
X912387Y595825D01*
X912426Y595723D01*
X912461Y595621D01*
X908023Y593532D02*
X907954Y593601D01*
X907888Y593672D01*
X907824Y593745D01*
X907763Y593821D01*
X907705Y593900D01*
X907651Y593980D01*
X907599Y594063D01*
X907551Y594147D01*
X907505Y594233D01*
X907464Y594321D01*
X907425Y594411D01*
X907390Y594502D01*
X907359Y594594D01*
X907331Y594687D01*
X907307Y594781D01*
X907287Y594876D01*
X907270Y594972D01*
X907257Y595069D01*
X907248Y595166D01*
X907242Y595263D01*
X907240Y595360D01*
X908024Y593533D02*
X912461Y588312D01*
X907240Y588312D01*
X757380Y504088D02*
X757380Y502000D01*
X757381Y502000D02*
X757383Y501911D01*
X757389Y501823D01*
X757398Y501735D01*
X757411Y501647D01*
X757428Y501560D01*
X757448Y501474D01*
X757473Y501389D01*
X757500Y501304D01*
X757532Y501221D01*
X757566Y501140D01*
X757605Y501060D01*
X757646Y500982D01*
X757691Y500905D01*
X757739Y500831D01*
X757790Y500758D01*
X757844Y500688D01*
X757902Y500621D01*
X757962Y500555D01*
X758024Y500493D01*
X758090Y500433D01*
X758157Y500375D01*
X758227Y500321D01*
X758300Y500270D01*
X758374Y500222D01*
X758451Y500177D01*
X758529Y500136D01*
X758609Y500097D01*
X758690Y500063D01*
X758773Y500031D01*
X758858Y500004D01*
X758943Y499979D01*
X759029Y499959D01*
X759116Y499942D01*
X759204Y499929D01*
X759292Y499920D01*
X759380Y499914D01*
X759469Y499912D01*
X764690Y499912D01*
X764781Y499914D01*
X764872Y499920D01*
X764963Y499930D01*
X765053Y499944D01*
X765142Y499961D01*
X765230Y499983D01*
X765318Y500009D01*
X765404Y500038D01*
X765489Y500071D01*
X765572Y500108D01*
X765654Y500148D01*
X765734Y500192D01*
X765812Y500239D01*
X765888Y500290D01*
X765961Y500343D01*
X766032Y500400D01*
X766101Y500461D01*
X766166Y500524D01*
X766229Y500589D01*
X766289Y500658D01*
X766347Y500729D01*
X766400Y500802D01*
X766451Y500878D01*
X766498Y500956D01*
X766542Y501036D01*
X766582Y501118D01*
X766619Y501201D01*
X766652Y501286D01*
X766681Y501372D01*
X766707Y501460D01*
X766729Y501548D01*
X766746Y501637D01*
X766760Y501727D01*
X766770Y501818D01*
X766776Y501909D01*
X766778Y502000D01*
X766778Y504088D01*
X757380Y507557D02*
X757380Y510168D01*
X757382Y510269D01*
X757388Y510370D01*
X757398Y510471D01*
X757411Y510571D01*
X757429Y510671D01*
X757450Y510770D01*
X757476Y510868D01*
X757505Y510965D01*
X757537Y511061D01*
X757574Y511155D01*
X757614Y511248D01*
X757658Y511340D01*
X757705Y511429D01*
X757756Y511517D01*
X757810Y511603D01*
X757867Y511686D01*
X757927Y511768D01*
X757991Y511846D01*
X758057Y511923D01*
X758127Y511996D01*
X758199Y512067D01*
X758274Y512135D01*
X758352Y512200D01*
X758432Y512262D01*
X758514Y512321D01*
X758599Y512377D01*
X758686Y512429D01*
X758774Y512478D01*
X758865Y512524D01*
X758957Y512565D01*
X759051Y512604D01*
X759146Y512638D01*
X759242Y512669D01*
X759340Y512696D01*
X759438Y512720D01*
X759538Y512739D01*
X759638Y512755D01*
X759738Y512767D01*
X759839Y512775D01*
X759940Y512779D01*
X760042Y512779D01*
X760143Y512775D01*
X760244Y512767D01*
X760344Y512755D01*
X760444Y512739D01*
X760544Y512720D01*
X760642Y512696D01*
X760740Y512669D01*
X760836Y512638D01*
X760931Y512604D01*
X761025Y512565D01*
X761117Y512524D01*
X761208Y512478D01*
X761297Y512429D01*
X761383Y512377D01*
X761468Y512321D01*
X761550Y512262D01*
X761630Y512200D01*
X761708Y512135D01*
X761783Y512067D01*
X761855Y511996D01*
X761925Y511923D01*
X761991Y511846D01*
X762055Y511768D01*
X762115Y511686D01*
X762172Y511603D01*
X762226Y511517D01*
X762277Y511429D01*
X762324Y511340D01*
X762368Y511248D01*
X762408Y511155D01*
X762445Y511061D01*
X762477Y510965D01*
X762506Y510868D01*
X762532Y510770D01*
X762553Y510671D01*
X762571Y510571D01*
X762584Y510471D01*
X762594Y510370D01*
X762600Y510269D01*
X762602Y510168D01*
X766778Y510690D02*
X766778Y507557D01*
X766778Y510690D02*
X766776Y510780D01*
X766770Y510869D01*
X766761Y510959D01*
X766747Y511048D01*
X766730Y511136D01*
X766709Y511223D01*
X766684Y511310D01*
X766655Y511395D01*
X766623Y511479D01*
X766588Y511561D01*
X766548Y511642D01*
X766506Y511721D01*
X766460Y511798D01*
X766410Y511873D01*
X766358Y511946D01*
X766302Y512017D01*
X766244Y512085D01*
X766182Y512150D01*
X766118Y512213D01*
X766051Y512273D01*
X765982Y512330D01*
X765910Y512384D01*
X765836Y512435D01*
X765760Y512483D01*
X765682Y512527D01*
X765602Y512568D01*
X765520Y512606D01*
X765437Y512640D01*
X765352Y512670D01*
X765266Y512697D01*
X765180Y512720D01*
X765092Y512739D01*
X765003Y512754D01*
X764914Y512766D01*
X764825Y512774D01*
X764735Y512778D01*
X764645Y512778D01*
X764555Y512774D01*
X764466Y512766D01*
X764377Y512754D01*
X764288Y512739D01*
X764200Y512720D01*
X764114Y512697D01*
X764028Y512670D01*
X763943Y512640D01*
X763860Y512606D01*
X763778Y512568D01*
X763698Y512527D01*
X763620Y512483D01*
X763544Y512435D01*
X763470Y512384D01*
X763398Y512330D01*
X763329Y512273D01*
X763262Y512213D01*
X763198Y512150D01*
X763136Y512085D01*
X763078Y512017D01*
X763022Y511946D01*
X762970Y511873D01*
X762920Y511798D01*
X762874Y511721D01*
X762832Y511642D01*
X762792Y511561D01*
X762757Y511479D01*
X762725Y511395D01*
X762696Y511310D01*
X762671Y511223D01*
X762650Y511136D01*
X762633Y511048D01*
X762619Y510959D01*
X762610Y510869D01*
X762604Y510780D01*
X762602Y510690D01*
X762601Y510690D02*
X762601Y508602D01*
D10*
X757488Y554349D02*
X737359Y554349D01*
D12*
X742537Y504224D02*
X742537Y502135D01*
X742538Y502135D02*
X742540Y502046D01*
X742546Y501958D01*
X742555Y501870D01*
X742568Y501782D01*
X742585Y501695D01*
X742605Y501609D01*
X742630Y501524D01*
X742657Y501439D01*
X742689Y501356D01*
X742723Y501275D01*
X742762Y501195D01*
X742803Y501117D01*
X742848Y501040D01*
X742896Y500966D01*
X742947Y500893D01*
X743001Y500823D01*
X743059Y500756D01*
X743119Y500690D01*
X743181Y500628D01*
X743247Y500568D01*
X743314Y500510D01*
X743384Y500456D01*
X743457Y500405D01*
X743531Y500357D01*
X743608Y500312D01*
X743686Y500271D01*
X743766Y500232D01*
X743847Y500198D01*
X743930Y500166D01*
X744015Y500139D01*
X744100Y500114D01*
X744186Y500094D01*
X744273Y500077D01*
X744361Y500064D01*
X744449Y500055D01*
X744537Y500049D01*
X744626Y500047D01*
X749847Y500047D01*
X749938Y500049D01*
X750029Y500055D01*
X750120Y500065D01*
X750210Y500079D01*
X750299Y500096D01*
X750387Y500118D01*
X750475Y500144D01*
X750561Y500173D01*
X750646Y500206D01*
X750729Y500243D01*
X750811Y500283D01*
X750891Y500327D01*
X750969Y500374D01*
X751045Y500425D01*
X751118Y500478D01*
X751189Y500535D01*
X751258Y500596D01*
X751323Y500659D01*
X751386Y500724D01*
X751446Y500793D01*
X751504Y500864D01*
X751557Y500937D01*
X751608Y501013D01*
X751655Y501091D01*
X751699Y501171D01*
X751739Y501253D01*
X751776Y501336D01*
X751809Y501421D01*
X751838Y501507D01*
X751864Y501595D01*
X751886Y501683D01*
X751903Y501772D01*
X751917Y501862D01*
X751927Y501953D01*
X751933Y502044D01*
X751935Y502135D01*
X751935Y504224D01*
X751935Y509781D02*
X744626Y507692D01*
X744626Y512913D01*
X746714Y511347D02*
X742537Y511347D01*
X915930Y573230D02*
X918019Y573230D01*
X918019Y573231D02*
X918108Y573233D01*
X918196Y573239D01*
X918284Y573248D01*
X918372Y573261D01*
X918459Y573278D01*
X918545Y573298D01*
X918630Y573323D01*
X918715Y573350D01*
X918798Y573382D01*
X918879Y573416D01*
X918959Y573455D01*
X919037Y573496D01*
X919114Y573541D01*
X919188Y573589D01*
X919261Y573640D01*
X919331Y573694D01*
X919398Y573752D01*
X919464Y573812D01*
X919526Y573874D01*
X919586Y573940D01*
X919644Y574007D01*
X919698Y574077D01*
X919749Y574150D01*
X919797Y574224D01*
X919842Y574301D01*
X919883Y574379D01*
X919922Y574459D01*
X919956Y574540D01*
X919988Y574623D01*
X920015Y574708D01*
X920040Y574793D01*
X920060Y574879D01*
X920077Y574966D01*
X920090Y575054D01*
X920099Y575142D01*
X920105Y575230D01*
X920107Y575319D01*
X920107Y580540D01*
X920105Y580629D01*
X920099Y580717D01*
X920090Y580805D01*
X920077Y580893D01*
X920060Y580980D01*
X920040Y581066D01*
X920015Y581151D01*
X919988Y581236D01*
X919956Y581319D01*
X919922Y581400D01*
X919883Y581480D01*
X919842Y581558D01*
X919797Y581635D01*
X919749Y581709D01*
X919698Y581782D01*
X919644Y581852D01*
X919586Y581919D01*
X919526Y581985D01*
X919464Y582047D01*
X919398Y582107D01*
X919331Y582165D01*
X919261Y582219D01*
X919188Y582270D01*
X919114Y582318D01*
X919037Y582363D01*
X918959Y582404D01*
X918879Y582443D01*
X918798Y582477D01*
X918715Y582509D01*
X918630Y582536D01*
X918545Y582561D01*
X918459Y582581D01*
X918372Y582598D01*
X918284Y582611D01*
X918196Y582620D01*
X918108Y582626D01*
X918019Y582628D01*
X915930Y582628D01*
X912461Y573230D02*
X909329Y573230D01*
X909329Y573231D02*
X909240Y573233D01*
X909152Y573239D01*
X909064Y573248D01*
X908976Y573261D01*
X908889Y573278D01*
X908803Y573298D01*
X908718Y573323D01*
X908633Y573350D01*
X908550Y573382D01*
X908469Y573416D01*
X908389Y573455D01*
X908311Y573496D01*
X908234Y573541D01*
X908160Y573589D01*
X908087Y573640D01*
X908017Y573694D01*
X907950Y573752D01*
X907884Y573812D01*
X907822Y573874D01*
X907762Y573940D01*
X907704Y574007D01*
X907650Y574077D01*
X907599Y574150D01*
X907551Y574224D01*
X907506Y574301D01*
X907465Y574379D01*
X907426Y574459D01*
X907392Y574540D01*
X907360Y574623D01*
X907333Y574708D01*
X907308Y574793D01*
X907288Y574879D01*
X907271Y574966D01*
X907258Y575054D01*
X907249Y575142D01*
X907243Y575230D01*
X907241Y575319D01*
X907240Y575319D02*
X907240Y576363D01*
X907241Y576363D02*
X907243Y576452D01*
X907249Y576540D01*
X907258Y576628D01*
X907271Y576716D01*
X907288Y576803D01*
X907308Y576889D01*
X907333Y576974D01*
X907360Y577059D01*
X907392Y577142D01*
X907426Y577223D01*
X907465Y577303D01*
X907506Y577381D01*
X907551Y577458D01*
X907599Y577532D01*
X907650Y577605D01*
X907704Y577675D01*
X907762Y577742D01*
X907822Y577808D01*
X907884Y577870D01*
X907950Y577930D01*
X908017Y577988D01*
X908087Y578042D01*
X908160Y578093D01*
X908234Y578141D01*
X908311Y578186D01*
X908389Y578227D01*
X908469Y578266D01*
X908550Y578300D01*
X908633Y578332D01*
X908718Y578359D01*
X908803Y578384D01*
X908889Y578404D01*
X908976Y578421D01*
X909064Y578434D01*
X909152Y578443D01*
X909240Y578449D01*
X909329Y578451D01*
X912461Y578451D01*
X912461Y582628D01*
X907240Y582628D01*
X915795Y560372D02*
X917884Y560372D01*
X917973Y560374D01*
X918061Y560380D01*
X918149Y560389D01*
X918237Y560402D01*
X918324Y560419D01*
X918410Y560439D01*
X918495Y560464D01*
X918580Y560491D01*
X918663Y560523D01*
X918744Y560557D01*
X918824Y560596D01*
X918902Y560637D01*
X918979Y560682D01*
X919053Y560730D01*
X919126Y560781D01*
X919196Y560835D01*
X919263Y560893D01*
X919329Y560953D01*
X919391Y561015D01*
X919451Y561081D01*
X919509Y561148D01*
X919563Y561218D01*
X919614Y561291D01*
X919662Y561365D01*
X919707Y561442D01*
X919748Y561520D01*
X919787Y561600D01*
X919821Y561681D01*
X919853Y561764D01*
X919880Y561849D01*
X919905Y561934D01*
X919925Y562020D01*
X919942Y562107D01*
X919955Y562195D01*
X919964Y562283D01*
X919970Y562371D01*
X919972Y562460D01*
X919972Y567681D01*
X919970Y567770D01*
X919964Y567858D01*
X919955Y567946D01*
X919942Y568034D01*
X919925Y568121D01*
X919905Y568207D01*
X919880Y568292D01*
X919853Y568377D01*
X919821Y568460D01*
X919787Y568541D01*
X919748Y568621D01*
X919707Y568699D01*
X919662Y568776D01*
X919614Y568850D01*
X919563Y568923D01*
X919509Y568993D01*
X919451Y569060D01*
X919391Y569126D01*
X919329Y569188D01*
X919263Y569248D01*
X919196Y569306D01*
X919126Y569360D01*
X919053Y569411D01*
X918979Y569459D01*
X918902Y569504D01*
X918824Y569545D01*
X918744Y569584D01*
X918663Y569618D01*
X918580Y569650D01*
X918495Y569677D01*
X918410Y569702D01*
X918324Y569722D01*
X918237Y569739D01*
X918149Y569752D01*
X918061Y569761D01*
X917973Y569767D01*
X917884Y569769D01*
X917884Y569770D02*
X915795Y569770D01*
X912326Y565593D02*
X909194Y565593D01*
X909194Y565592D02*
X909105Y565590D01*
X909017Y565584D01*
X908929Y565575D01*
X908841Y565562D01*
X908754Y565545D01*
X908668Y565525D01*
X908583Y565500D01*
X908498Y565473D01*
X908415Y565441D01*
X908334Y565407D01*
X908254Y565368D01*
X908176Y565327D01*
X908099Y565282D01*
X908025Y565234D01*
X907952Y565183D01*
X907882Y565129D01*
X907815Y565071D01*
X907749Y565011D01*
X907687Y564949D01*
X907627Y564883D01*
X907569Y564816D01*
X907515Y564746D01*
X907464Y564673D01*
X907416Y564599D01*
X907371Y564522D01*
X907330Y564444D01*
X907291Y564364D01*
X907257Y564283D01*
X907225Y564200D01*
X907198Y564115D01*
X907173Y564030D01*
X907153Y563944D01*
X907136Y563857D01*
X907123Y563769D01*
X907114Y563681D01*
X907108Y563593D01*
X907106Y563504D01*
X907105Y563504D02*
X907105Y562982D01*
X907107Y562881D01*
X907113Y562780D01*
X907123Y562679D01*
X907136Y562579D01*
X907154Y562479D01*
X907175Y562380D01*
X907201Y562282D01*
X907230Y562185D01*
X907262Y562089D01*
X907299Y561995D01*
X907339Y561902D01*
X907383Y561810D01*
X907430Y561721D01*
X907481Y561633D01*
X907535Y561547D01*
X907592Y561464D01*
X907652Y561382D01*
X907716Y561304D01*
X907782Y561227D01*
X907852Y561154D01*
X907924Y561083D01*
X907999Y561015D01*
X908077Y560950D01*
X908157Y560888D01*
X908239Y560829D01*
X908324Y560773D01*
X908411Y560721D01*
X908499Y560672D01*
X908590Y560626D01*
X908682Y560585D01*
X908776Y560546D01*
X908871Y560512D01*
X908967Y560481D01*
X909065Y560454D01*
X909163Y560430D01*
X909263Y560411D01*
X909363Y560395D01*
X909463Y560383D01*
X909564Y560375D01*
X909665Y560371D01*
X909767Y560371D01*
X909868Y560375D01*
X909969Y560383D01*
X910069Y560395D01*
X910169Y560411D01*
X910269Y560430D01*
X910367Y560454D01*
X910465Y560481D01*
X910561Y560512D01*
X910656Y560546D01*
X910750Y560585D01*
X910842Y560626D01*
X910933Y560672D01*
X911022Y560721D01*
X911108Y560773D01*
X911193Y560829D01*
X911275Y560888D01*
X911355Y560950D01*
X911433Y561015D01*
X911508Y561083D01*
X911580Y561154D01*
X911650Y561227D01*
X911716Y561304D01*
X911780Y561382D01*
X911840Y561464D01*
X911897Y561547D01*
X911951Y561633D01*
X912002Y561721D01*
X912049Y561810D01*
X912093Y561902D01*
X912133Y561995D01*
X912170Y562089D01*
X912202Y562185D01*
X912231Y562282D01*
X912257Y562380D01*
X912278Y562479D01*
X912296Y562579D01*
X912309Y562679D01*
X912319Y562780D01*
X912325Y562881D01*
X912327Y562982D01*
X912326Y562982D02*
X912326Y565593D01*
X912327Y565593D02*
X912325Y565719D01*
X912319Y565845D01*
X912310Y565971D01*
X912297Y566096D01*
X912279Y566221D01*
X912259Y566346D01*
X912234Y566470D01*
X912206Y566593D01*
X912174Y566715D01*
X912138Y566836D01*
X912099Y566956D01*
X912056Y567074D01*
X912009Y567191D01*
X911959Y567307D01*
X911905Y567422D01*
X911849Y567534D01*
X911788Y567645D01*
X911725Y567754D01*
X911658Y567861D01*
X911588Y567966D01*
X911514Y568069D01*
X911438Y568169D01*
X911359Y568267D01*
X911277Y568363D01*
X911191Y568456D01*
X911104Y568547D01*
X911013Y568634D01*
X910920Y568720D01*
X910824Y568802D01*
X910726Y568881D01*
X910626Y568957D01*
X910523Y569031D01*
X910418Y569101D01*
X910311Y569168D01*
X910202Y569231D01*
X910091Y569292D01*
X909979Y569348D01*
X909864Y569402D01*
X909748Y569452D01*
X909631Y569499D01*
X909513Y569542D01*
X909393Y569581D01*
X909272Y569617D01*
X909150Y569649D01*
X909027Y569677D01*
X908903Y569702D01*
X908778Y569722D01*
X908653Y569740D01*
X908528Y569753D01*
X908402Y569762D01*
X908276Y569768D01*
X908150Y569770D01*
D10*
X864876Y599246D02*
X864876Y619376D01*
D12*
X915533Y604980D02*
X917622Y604980D01*
X917622Y604981D02*
X917711Y604983D01*
X917799Y604989D01*
X917887Y604998D01*
X917975Y605011D01*
X918062Y605028D01*
X918148Y605048D01*
X918233Y605073D01*
X918318Y605100D01*
X918401Y605132D01*
X918482Y605166D01*
X918562Y605205D01*
X918640Y605246D01*
X918717Y605291D01*
X918791Y605339D01*
X918864Y605390D01*
X918934Y605444D01*
X919001Y605502D01*
X919067Y605562D01*
X919129Y605624D01*
X919189Y605690D01*
X919247Y605757D01*
X919301Y605827D01*
X919352Y605900D01*
X919400Y605974D01*
X919445Y606051D01*
X919486Y606129D01*
X919525Y606209D01*
X919559Y606290D01*
X919591Y606373D01*
X919618Y606458D01*
X919643Y606543D01*
X919663Y606629D01*
X919680Y606716D01*
X919693Y606804D01*
X919702Y606892D01*
X919708Y606980D01*
X919710Y607069D01*
X919710Y612290D01*
X919708Y612379D01*
X919702Y612467D01*
X919693Y612555D01*
X919680Y612643D01*
X919663Y612730D01*
X919643Y612816D01*
X919618Y612901D01*
X919591Y612986D01*
X919559Y613069D01*
X919525Y613150D01*
X919486Y613230D01*
X919445Y613308D01*
X919400Y613385D01*
X919352Y613459D01*
X919301Y613532D01*
X919247Y613602D01*
X919189Y613669D01*
X919129Y613735D01*
X919067Y613797D01*
X919001Y613857D01*
X918934Y613915D01*
X918864Y613969D01*
X918791Y614020D01*
X918717Y614068D01*
X918640Y614113D01*
X918562Y614154D01*
X918482Y614193D01*
X918401Y614227D01*
X918318Y614259D01*
X918233Y614286D01*
X918148Y614311D01*
X918062Y614331D01*
X917975Y614348D01*
X917887Y614361D01*
X917799Y614370D01*
X917711Y614376D01*
X917622Y614378D01*
X915533Y614378D01*
X912065Y614378D02*
X912065Y613334D01*
X912065Y614378D02*
X906844Y614378D01*
X909454Y604980D01*
X930418Y517979D02*
X930418Y515891D01*
X930420Y515802D01*
X930426Y515714D01*
X930435Y515626D01*
X930448Y515538D01*
X930465Y515451D01*
X930485Y515365D01*
X930510Y515280D01*
X930537Y515195D01*
X930569Y515112D01*
X930603Y515031D01*
X930642Y514951D01*
X930683Y514873D01*
X930728Y514796D01*
X930776Y514722D01*
X930827Y514649D01*
X930881Y514579D01*
X930939Y514512D01*
X930999Y514446D01*
X931061Y514384D01*
X931127Y514324D01*
X931194Y514266D01*
X931264Y514212D01*
X931337Y514161D01*
X931411Y514113D01*
X931488Y514068D01*
X931566Y514027D01*
X931646Y513988D01*
X931727Y513954D01*
X931810Y513922D01*
X931895Y513895D01*
X931980Y513870D01*
X932066Y513850D01*
X932153Y513833D01*
X932241Y513820D01*
X932329Y513811D01*
X932417Y513805D01*
X932506Y513803D01*
X932506Y513802D02*
X937727Y513802D01*
X937727Y513803D02*
X937818Y513805D01*
X937909Y513811D01*
X938000Y513821D01*
X938090Y513835D01*
X938179Y513852D01*
X938267Y513874D01*
X938355Y513900D01*
X938441Y513929D01*
X938526Y513962D01*
X938609Y513999D01*
X938691Y514039D01*
X938771Y514083D01*
X938849Y514130D01*
X938925Y514181D01*
X938998Y514234D01*
X939069Y514291D01*
X939138Y514352D01*
X939203Y514415D01*
X939266Y514480D01*
X939326Y514549D01*
X939384Y514620D01*
X939437Y514693D01*
X939488Y514769D01*
X939535Y514847D01*
X939579Y514927D01*
X939619Y515009D01*
X939656Y515092D01*
X939689Y515177D01*
X939718Y515263D01*
X939744Y515351D01*
X939766Y515439D01*
X939783Y515528D01*
X939797Y515618D01*
X939807Y515709D01*
X939813Y515800D01*
X939815Y515891D01*
X939816Y515891D02*
X939816Y517979D01*
X933028Y521447D02*
X933129Y521449D01*
X933230Y521455D01*
X933331Y521465D01*
X933431Y521478D01*
X933531Y521496D01*
X933630Y521517D01*
X933728Y521543D01*
X933825Y521572D01*
X933921Y521604D01*
X934015Y521641D01*
X934108Y521681D01*
X934200Y521725D01*
X934289Y521772D01*
X934377Y521823D01*
X934463Y521877D01*
X934546Y521934D01*
X934628Y521994D01*
X934706Y522058D01*
X934783Y522124D01*
X934856Y522194D01*
X934927Y522266D01*
X934995Y522341D01*
X935060Y522419D01*
X935122Y522499D01*
X935181Y522581D01*
X935237Y522666D01*
X935289Y522753D01*
X935338Y522841D01*
X935384Y522932D01*
X935425Y523024D01*
X935464Y523118D01*
X935498Y523213D01*
X935529Y523309D01*
X935556Y523407D01*
X935580Y523505D01*
X935599Y523605D01*
X935615Y523705D01*
X935627Y523805D01*
X935635Y523906D01*
X935639Y524007D01*
X935639Y524109D01*
X935635Y524210D01*
X935627Y524311D01*
X935615Y524411D01*
X935599Y524511D01*
X935580Y524611D01*
X935556Y524709D01*
X935529Y524807D01*
X935498Y524903D01*
X935464Y524998D01*
X935425Y525092D01*
X935384Y525184D01*
X935338Y525275D01*
X935289Y525364D01*
X935237Y525450D01*
X935181Y525535D01*
X935122Y525617D01*
X935060Y525697D01*
X934995Y525775D01*
X934927Y525850D01*
X934856Y525922D01*
X934783Y525992D01*
X934706Y526058D01*
X934628Y526122D01*
X934546Y526182D01*
X934463Y526239D01*
X934377Y526293D01*
X934289Y526344D01*
X934200Y526391D01*
X934108Y526435D01*
X934015Y526475D01*
X933921Y526512D01*
X933825Y526544D01*
X933728Y526573D01*
X933630Y526599D01*
X933531Y526620D01*
X933431Y526638D01*
X933331Y526651D01*
X933230Y526661D01*
X933129Y526667D01*
X933028Y526669D01*
X932927Y526667D01*
X932826Y526661D01*
X932725Y526651D01*
X932625Y526638D01*
X932525Y526620D01*
X932426Y526599D01*
X932328Y526573D01*
X932231Y526544D01*
X932135Y526512D01*
X932041Y526475D01*
X931948Y526435D01*
X931856Y526391D01*
X931767Y526344D01*
X931679Y526293D01*
X931593Y526239D01*
X931510Y526182D01*
X931428Y526122D01*
X931350Y526058D01*
X931273Y525992D01*
X931200Y525922D01*
X931129Y525850D01*
X931061Y525775D01*
X930996Y525697D01*
X930934Y525617D01*
X930875Y525535D01*
X930819Y525450D01*
X930767Y525364D01*
X930718Y525275D01*
X930672Y525184D01*
X930631Y525092D01*
X930592Y524998D01*
X930558Y524903D01*
X930527Y524807D01*
X930500Y524709D01*
X930476Y524611D01*
X930457Y524511D01*
X930441Y524411D01*
X930429Y524311D01*
X930421Y524210D01*
X930417Y524109D01*
X930417Y524007D01*
X930421Y523906D01*
X930429Y523805D01*
X930441Y523705D01*
X930457Y523605D01*
X930476Y523505D01*
X930500Y523407D01*
X930527Y523309D01*
X930558Y523213D01*
X930592Y523118D01*
X930631Y523024D01*
X930672Y522932D01*
X930718Y522841D01*
X930767Y522753D01*
X930819Y522666D01*
X930875Y522581D01*
X930934Y522499D01*
X930996Y522419D01*
X931061Y522341D01*
X931129Y522266D01*
X931200Y522194D01*
X931273Y522124D01*
X931350Y522058D01*
X931428Y521994D01*
X931510Y521934D01*
X931593Y521877D01*
X931679Y521823D01*
X931767Y521772D01*
X931856Y521725D01*
X931948Y521681D01*
X932041Y521641D01*
X932135Y521604D01*
X932231Y521572D01*
X932328Y521543D01*
X932426Y521517D01*
X932525Y521496D01*
X932625Y521478D01*
X932725Y521465D01*
X932826Y521455D01*
X932927Y521449D01*
X933028Y521447D01*
X937727Y521970D02*
X937817Y521972D01*
X937906Y521978D01*
X937996Y521987D01*
X938085Y522001D01*
X938173Y522018D01*
X938260Y522039D01*
X938347Y522064D01*
X938432Y522093D01*
X938516Y522125D01*
X938598Y522160D01*
X938679Y522200D01*
X938758Y522242D01*
X938835Y522288D01*
X938910Y522338D01*
X938983Y522390D01*
X939054Y522446D01*
X939122Y522504D01*
X939187Y522566D01*
X939250Y522630D01*
X939310Y522697D01*
X939367Y522766D01*
X939421Y522838D01*
X939472Y522912D01*
X939520Y522988D01*
X939564Y523066D01*
X939605Y523146D01*
X939643Y523228D01*
X939677Y523311D01*
X939707Y523396D01*
X939734Y523482D01*
X939757Y523568D01*
X939776Y523656D01*
X939791Y523745D01*
X939803Y523834D01*
X939811Y523923D01*
X939815Y524013D01*
X939815Y524103D01*
X939811Y524193D01*
X939803Y524282D01*
X939791Y524371D01*
X939776Y524460D01*
X939757Y524548D01*
X939734Y524634D01*
X939707Y524720D01*
X939677Y524805D01*
X939643Y524888D01*
X939605Y524970D01*
X939564Y525050D01*
X939520Y525128D01*
X939472Y525204D01*
X939421Y525278D01*
X939367Y525350D01*
X939310Y525419D01*
X939250Y525486D01*
X939187Y525550D01*
X939122Y525612D01*
X939054Y525670D01*
X938983Y525726D01*
X938910Y525778D01*
X938835Y525828D01*
X938758Y525874D01*
X938679Y525916D01*
X938598Y525956D01*
X938516Y525991D01*
X938432Y526023D01*
X938347Y526052D01*
X938260Y526077D01*
X938173Y526098D01*
X938085Y526115D01*
X937996Y526129D01*
X937906Y526138D01*
X937817Y526144D01*
X937727Y526146D01*
X937637Y526144D01*
X937548Y526138D01*
X937458Y526129D01*
X937369Y526115D01*
X937281Y526098D01*
X937194Y526077D01*
X937107Y526052D01*
X937022Y526023D01*
X936938Y525991D01*
X936856Y525956D01*
X936775Y525916D01*
X936696Y525874D01*
X936619Y525828D01*
X936544Y525778D01*
X936471Y525726D01*
X936400Y525670D01*
X936332Y525612D01*
X936267Y525550D01*
X936204Y525486D01*
X936144Y525419D01*
X936087Y525350D01*
X936033Y525278D01*
X935982Y525204D01*
X935934Y525128D01*
X935890Y525050D01*
X935849Y524970D01*
X935811Y524888D01*
X935777Y524805D01*
X935747Y524720D01*
X935720Y524634D01*
X935697Y524548D01*
X935678Y524460D01*
X935663Y524371D01*
X935651Y524282D01*
X935643Y524193D01*
X935639Y524103D01*
X935639Y524013D01*
X935643Y523923D01*
X935651Y523834D01*
X935663Y523745D01*
X935678Y523656D01*
X935697Y523568D01*
X935720Y523482D01*
X935747Y523396D01*
X935777Y523311D01*
X935811Y523228D01*
X935849Y523146D01*
X935890Y523066D01*
X935934Y522988D01*
X935982Y522912D01*
X936033Y522838D01*
X936087Y522766D01*
X936144Y522697D01*
X936204Y522630D01*
X936267Y522566D01*
X936332Y522504D01*
X936400Y522446D01*
X936471Y522390D01*
X936544Y522338D01*
X936619Y522288D01*
X936696Y522242D01*
X936775Y522200D01*
X936856Y522160D01*
X936938Y522125D01*
X937022Y522093D01*
X937107Y522064D01*
X937194Y522039D01*
X937281Y522018D01*
X937369Y522001D01*
X937458Y521987D01*
X937548Y521978D01*
X937637Y521972D01*
X937727Y521970D01*
X827342Y598075D02*
X817944Y598075D01*
X827342Y598075D02*
X827342Y600685D01*
X827340Y600786D01*
X827334Y600887D01*
X827324Y600988D01*
X827311Y601088D01*
X827293Y601188D01*
X827272Y601287D01*
X827246Y601385D01*
X827217Y601482D01*
X827185Y601578D01*
X827148Y601672D01*
X827108Y601765D01*
X827064Y601857D01*
X827017Y601946D01*
X826966Y602034D01*
X826912Y602120D01*
X826855Y602203D01*
X826795Y602285D01*
X826731Y602363D01*
X826665Y602440D01*
X826595Y602513D01*
X826523Y602584D01*
X826448Y602652D01*
X826370Y602717D01*
X826290Y602779D01*
X826208Y602838D01*
X826123Y602894D01*
X826037Y602946D01*
X825948Y602995D01*
X825857Y603041D01*
X825765Y603082D01*
X825671Y603121D01*
X825576Y603155D01*
X825480Y603186D01*
X825382Y603213D01*
X825284Y603237D01*
X825184Y603256D01*
X825084Y603272D01*
X824984Y603284D01*
X824883Y603292D01*
X824782Y603296D01*
X824680Y603296D01*
X824579Y603292D01*
X824478Y603284D01*
X824378Y603272D01*
X824278Y603256D01*
X824178Y603237D01*
X824080Y603213D01*
X823982Y603186D01*
X823886Y603155D01*
X823791Y603121D01*
X823697Y603082D01*
X823605Y603041D01*
X823514Y602995D01*
X823426Y602946D01*
X823339Y602894D01*
X823254Y602838D01*
X823172Y602779D01*
X823092Y602717D01*
X823014Y602652D01*
X822939Y602584D01*
X822867Y602513D01*
X822797Y602440D01*
X822731Y602363D01*
X822667Y602285D01*
X822607Y602203D01*
X822550Y602120D01*
X822496Y602034D01*
X822445Y601946D01*
X822398Y601857D01*
X822354Y601765D01*
X822314Y601672D01*
X822277Y601578D01*
X822245Y601482D01*
X822216Y601385D01*
X822190Y601287D01*
X822169Y601188D01*
X822151Y601088D01*
X822138Y600988D01*
X822128Y600887D01*
X822122Y600786D01*
X822120Y600685D01*
X822120Y598075D01*
X822120Y601207D02*
X817944Y603296D01*
X825253Y607162D02*
X827342Y609772D01*
X817944Y609772D01*
X817944Y607162D02*
X817944Y612383D01*
X903669Y626650D02*
X913067Y626650D01*
X913067Y629260D01*
X913065Y629361D01*
X913059Y629462D01*
X913049Y629563D01*
X913036Y629663D01*
X913018Y629763D01*
X912997Y629862D01*
X912971Y629960D01*
X912942Y630057D01*
X912910Y630153D01*
X912873Y630247D01*
X912833Y630340D01*
X912789Y630432D01*
X912742Y630521D01*
X912691Y630609D01*
X912637Y630695D01*
X912580Y630778D01*
X912520Y630860D01*
X912456Y630938D01*
X912390Y631015D01*
X912320Y631088D01*
X912248Y631159D01*
X912173Y631227D01*
X912095Y631292D01*
X912015Y631354D01*
X911933Y631413D01*
X911848Y631469D01*
X911762Y631521D01*
X911673Y631570D01*
X911582Y631616D01*
X911490Y631657D01*
X911396Y631696D01*
X911301Y631730D01*
X911205Y631761D01*
X911107Y631788D01*
X911009Y631812D01*
X910909Y631831D01*
X910809Y631847D01*
X910709Y631859D01*
X910608Y631867D01*
X910507Y631871D01*
X910405Y631871D01*
X910304Y631867D01*
X910203Y631859D01*
X910103Y631847D01*
X910003Y631831D01*
X909903Y631812D01*
X909805Y631788D01*
X909707Y631761D01*
X909611Y631730D01*
X909516Y631696D01*
X909422Y631657D01*
X909330Y631616D01*
X909239Y631570D01*
X909151Y631521D01*
X909064Y631469D01*
X908979Y631413D01*
X908897Y631354D01*
X908817Y631292D01*
X908739Y631227D01*
X908664Y631159D01*
X908592Y631088D01*
X908522Y631015D01*
X908456Y630938D01*
X908392Y630860D01*
X908332Y630778D01*
X908275Y630695D01*
X908221Y630609D01*
X908170Y630521D01*
X908123Y630432D01*
X908079Y630340D01*
X908039Y630247D01*
X908002Y630153D01*
X907970Y630057D01*
X907941Y629960D01*
X907915Y629862D01*
X907894Y629763D01*
X907876Y629663D01*
X907863Y629563D01*
X907853Y629462D01*
X907847Y629361D01*
X907845Y629260D01*
X907845Y626650D01*
X907845Y629782D02*
X903669Y631871D01*
X910717Y640958D02*
X910812Y640956D01*
X910906Y640950D01*
X911000Y640941D01*
X911094Y640928D01*
X911187Y640911D01*
X911279Y640890D01*
X911371Y640865D01*
X911461Y640837D01*
X911550Y640805D01*
X911638Y640770D01*
X911724Y640731D01*
X911809Y640689D01*
X911892Y640643D01*
X911973Y640594D01*
X912052Y640542D01*
X912129Y640487D01*
X912203Y640428D01*
X912275Y640367D01*
X912345Y640303D01*
X912412Y640236D01*
X912476Y640166D01*
X912537Y640094D01*
X912596Y640020D01*
X912651Y639943D01*
X912703Y639864D01*
X912752Y639783D01*
X912798Y639700D01*
X912840Y639615D01*
X912879Y639529D01*
X912914Y639441D01*
X912946Y639352D01*
X912974Y639262D01*
X912999Y639170D01*
X913020Y639078D01*
X913037Y638985D01*
X913050Y638891D01*
X913059Y638797D01*
X913065Y638703D01*
X913067Y638608D01*
X913066Y638608D02*
X913064Y638500D01*
X913058Y638391D01*
X913048Y638283D01*
X913035Y638176D01*
X913017Y638069D01*
X912996Y637962D01*
X912971Y637857D01*
X912942Y637752D01*
X912910Y637649D01*
X912873Y637547D01*
X912833Y637446D01*
X912790Y637347D01*
X912743Y637249D01*
X912692Y637153D01*
X912638Y637059D01*
X912581Y636967D01*
X912520Y636877D01*
X912456Y636789D01*
X912390Y636704D01*
X912320Y636621D01*
X912247Y636541D01*
X912171Y636463D01*
X912093Y636388D01*
X912012Y636316D01*
X911928Y636247D01*
X911842Y636181D01*
X911754Y636118D01*
X911663Y636059D01*
X911571Y636002D01*
X911476Y635949D01*
X911380Y635900D01*
X911281Y635854D01*
X911182Y635811D01*
X911080Y635772D01*
X910978Y635737D01*
X908889Y640175D02*
X908958Y640244D01*
X909029Y640310D01*
X909102Y640374D01*
X909178Y640435D01*
X909257Y640493D01*
X909337Y640547D01*
X909420Y640599D01*
X909504Y640647D01*
X909590Y640693D01*
X909678Y640734D01*
X909768Y640773D01*
X909859Y640808D01*
X909951Y640839D01*
X910044Y640867D01*
X910138Y640891D01*
X910233Y640911D01*
X910329Y640928D01*
X910426Y640941D01*
X910523Y640950D01*
X910620Y640956D01*
X910717Y640958D01*
X908890Y640175D02*
X903669Y635737D01*
X903669Y640958D01*
X804482Y599674D02*
X795084Y599674D01*
X804482Y599674D02*
X804482Y602284D01*
X804480Y602385D01*
X804474Y602486D01*
X804464Y602587D01*
X804451Y602687D01*
X804433Y602787D01*
X804412Y602886D01*
X804386Y602984D01*
X804357Y603081D01*
X804325Y603177D01*
X804288Y603271D01*
X804248Y603364D01*
X804204Y603456D01*
X804157Y603545D01*
X804106Y603633D01*
X804052Y603719D01*
X803995Y603802D01*
X803935Y603884D01*
X803871Y603962D01*
X803805Y604039D01*
X803735Y604112D01*
X803663Y604183D01*
X803588Y604251D01*
X803510Y604316D01*
X803430Y604378D01*
X803348Y604437D01*
X803263Y604493D01*
X803177Y604545D01*
X803088Y604594D01*
X802997Y604640D01*
X802905Y604681D01*
X802811Y604720D01*
X802716Y604754D01*
X802620Y604785D01*
X802522Y604812D01*
X802424Y604836D01*
X802324Y604855D01*
X802224Y604871D01*
X802124Y604883D01*
X802023Y604891D01*
X801922Y604895D01*
X801820Y604895D01*
X801719Y604891D01*
X801618Y604883D01*
X801518Y604871D01*
X801418Y604855D01*
X801318Y604836D01*
X801220Y604812D01*
X801122Y604785D01*
X801026Y604754D01*
X800931Y604720D01*
X800837Y604681D01*
X800745Y604640D01*
X800654Y604594D01*
X800566Y604545D01*
X800479Y604493D01*
X800394Y604437D01*
X800312Y604378D01*
X800232Y604316D01*
X800154Y604251D01*
X800079Y604183D01*
X800007Y604112D01*
X799937Y604039D01*
X799871Y603962D01*
X799807Y603884D01*
X799747Y603802D01*
X799690Y603719D01*
X799636Y603633D01*
X799585Y603545D01*
X799538Y603456D01*
X799494Y603364D01*
X799454Y603271D01*
X799417Y603177D01*
X799385Y603081D01*
X799356Y602984D01*
X799330Y602886D01*
X799309Y602787D01*
X799291Y602687D01*
X799278Y602587D01*
X799268Y602486D01*
X799262Y602385D01*
X799260Y602284D01*
X799260Y599674D01*
X799260Y602806D02*
X795084Y604895D01*
X795084Y608760D02*
X795084Y611371D01*
X795083Y611371D02*
X795085Y611472D01*
X795091Y611573D01*
X795101Y611674D01*
X795114Y611774D01*
X795132Y611874D01*
X795153Y611973D01*
X795179Y612071D01*
X795208Y612168D01*
X795240Y612264D01*
X795277Y612358D01*
X795317Y612451D01*
X795361Y612543D01*
X795408Y612632D01*
X795459Y612720D01*
X795513Y612806D01*
X795570Y612889D01*
X795630Y612971D01*
X795694Y613049D01*
X795760Y613126D01*
X795830Y613199D01*
X795902Y613270D01*
X795977Y613338D01*
X796055Y613403D01*
X796135Y613465D01*
X796217Y613524D01*
X796302Y613580D01*
X796389Y613632D01*
X796477Y613681D01*
X796568Y613727D01*
X796660Y613768D01*
X796754Y613807D01*
X796849Y613841D01*
X796945Y613872D01*
X797043Y613899D01*
X797141Y613923D01*
X797241Y613942D01*
X797341Y613958D01*
X797441Y613970D01*
X797542Y613978D01*
X797643Y613982D01*
X797745Y613982D01*
X797846Y613978D01*
X797947Y613970D01*
X798047Y613958D01*
X798147Y613942D01*
X798247Y613923D01*
X798345Y613899D01*
X798443Y613872D01*
X798539Y613841D01*
X798634Y613807D01*
X798728Y613768D01*
X798820Y613727D01*
X798911Y613681D01*
X799000Y613632D01*
X799086Y613580D01*
X799171Y613524D01*
X799253Y613465D01*
X799333Y613403D01*
X799411Y613338D01*
X799486Y613270D01*
X799558Y613199D01*
X799628Y613126D01*
X799694Y613049D01*
X799758Y612971D01*
X799818Y612889D01*
X799875Y612806D01*
X799929Y612720D01*
X799980Y612632D01*
X800027Y612543D01*
X800071Y612451D01*
X800111Y612358D01*
X800148Y612264D01*
X800180Y612168D01*
X800209Y612071D01*
X800235Y611973D01*
X800256Y611874D01*
X800274Y611774D01*
X800287Y611674D01*
X800297Y611573D01*
X800303Y611472D01*
X800305Y611371D01*
X804482Y611893D02*
X804482Y608760D01*
X804481Y611893D02*
X804479Y611983D01*
X804473Y612072D01*
X804464Y612162D01*
X804450Y612251D01*
X804433Y612339D01*
X804412Y612426D01*
X804387Y612513D01*
X804358Y612598D01*
X804326Y612682D01*
X804291Y612764D01*
X804251Y612845D01*
X804209Y612924D01*
X804163Y613001D01*
X804113Y613076D01*
X804061Y613149D01*
X804005Y613220D01*
X803947Y613288D01*
X803885Y613353D01*
X803821Y613416D01*
X803754Y613476D01*
X803685Y613533D01*
X803613Y613587D01*
X803539Y613638D01*
X803463Y613686D01*
X803385Y613730D01*
X803305Y613771D01*
X803223Y613809D01*
X803140Y613843D01*
X803055Y613873D01*
X802969Y613900D01*
X802883Y613923D01*
X802795Y613942D01*
X802706Y613957D01*
X802617Y613969D01*
X802528Y613977D01*
X802438Y613981D01*
X802348Y613981D01*
X802258Y613977D01*
X802169Y613969D01*
X802080Y613957D01*
X801991Y613942D01*
X801903Y613923D01*
X801817Y613900D01*
X801731Y613873D01*
X801646Y613843D01*
X801563Y613809D01*
X801481Y613771D01*
X801401Y613730D01*
X801323Y613686D01*
X801247Y613638D01*
X801173Y613587D01*
X801101Y613533D01*
X801032Y613476D01*
X800965Y613416D01*
X800901Y613353D01*
X800839Y613288D01*
X800781Y613220D01*
X800725Y613149D01*
X800673Y613076D01*
X800623Y613001D01*
X800577Y612924D01*
X800535Y612845D01*
X800495Y612764D01*
X800460Y612682D01*
X800428Y612598D01*
X800399Y612513D01*
X800374Y612426D01*
X800353Y612339D01*
X800336Y612251D01*
X800322Y612162D01*
X800313Y612072D01*
X800307Y611983D01*
X800305Y611893D01*
X800305Y609805D01*
D10*
X854429Y509270D02*
X859155Y509270D01*
X785495Y509270D02*
X785495Y513996D01*
X785495Y582930D02*
X790221Y582930D01*
X859155Y582930D02*
X859155Y578204D01*
X859155Y513996D02*
X859155Y509270D01*
X790221Y509270D02*
X785495Y509270D01*
X785495Y578204D02*
X785495Y582930D01*
X854429Y582930D02*
X859155Y582930D01*
D13*
X849208Y593344D02*
X849210Y593400D01*
X849216Y593456D01*
X849226Y593511D01*
X849239Y593565D01*
X849256Y593619D01*
X849277Y593671D01*
X849302Y593721D01*
X849330Y593770D01*
X849361Y593816D01*
X849396Y593860D01*
X849433Y593902D01*
X849474Y593941D01*
X849517Y593977D01*
X849562Y594010D01*
X849609Y594039D01*
X849659Y594066D01*
X849710Y594089D01*
X849763Y594108D01*
X849817Y594123D01*
X849872Y594135D01*
X849927Y594143D01*
X849983Y594147D01*
X850039Y594147D01*
X850095Y594143D01*
X850150Y594135D01*
X850205Y594123D01*
X850259Y594108D01*
X850312Y594089D01*
X850363Y594066D01*
X850412Y594039D01*
X850460Y594010D01*
X850505Y593977D01*
X850548Y593941D01*
X850589Y593902D01*
X850626Y593860D01*
X850661Y593816D01*
X850692Y593770D01*
X850720Y593721D01*
X850745Y593671D01*
X850766Y593619D01*
X850783Y593565D01*
X850796Y593511D01*
X850806Y593456D01*
X850812Y593400D01*
X850814Y593344D01*
X850812Y593288D01*
X850806Y593232D01*
X850796Y593177D01*
X850783Y593123D01*
X850766Y593069D01*
X850745Y593017D01*
X850720Y592967D01*
X850692Y592918D01*
X850661Y592872D01*
X850626Y592828D01*
X850589Y592786D01*
X850548Y592747D01*
X850505Y592711D01*
X850460Y592678D01*
X850413Y592649D01*
X850363Y592622D01*
X850312Y592599D01*
X850259Y592580D01*
X850205Y592565D01*
X850150Y592553D01*
X850095Y592545D01*
X850039Y592541D01*
X849983Y592541D01*
X849927Y592545D01*
X849872Y592553D01*
X849817Y592565D01*
X849763Y592580D01*
X849710Y592599D01*
X849659Y592622D01*
X849609Y592649D01*
X849562Y592678D01*
X849517Y592711D01*
X849474Y592747D01*
X849433Y592786D01*
X849396Y592828D01*
X849361Y592872D01*
X849330Y592918D01*
X849302Y592967D01*
X849277Y593017D01*
X849256Y593069D01*
X849239Y593123D01*
X849226Y593177D01*
X849216Y593232D01*
X849210Y593288D01*
X849208Y593344D01*
D14*
X894001Y553958D02*
X894001Y518398D01*
X894001Y553958D02*
X873681Y553958D01*
X873681Y518398D01*
X894001Y518398D01*
D12*
X898112Y528860D02*
X907510Y535125D01*
X907510Y528860D02*
X898112Y535125D01*
X905422Y538526D02*
X907510Y541136D01*
X898112Y541136D01*
X898112Y538526D02*
X898112Y543747D01*
M02*
