M48
;GenerationSoftware,Autodesk,EAGLE,9.2.2*%
;CreationDate,2018-12-25T05:43:34Z*%
FMAT,2
ICI,OFF
METRIC,TZ,000.000
T1C0.350
%
G90
M71
T1
X34900Y22267
X37638Y22268
X24919Y28561
X25650Y22267
X47761Y35347
X45409Y36398
X31463Y30315
X39662Y38494
X30818Y39889
X24186Y26792
X21401Y39431
X27046Y35687
X44287Y32170
X33177Y47653
X38574Y44416
X44367Y36957
X45333Y28184
X36491Y21154
X46337Y39802
X26669Y41966
X29360Y44511
X34314Y30199
X29554Y32367
X30140Y33203
X30588Y31152
M30