M48
;GenerationSoftware,Autodesk,EAGLE,9.6.1*%
;CreationDate,2022-12-28T02:18:41Z*%
FMAT,2
ICI,OFF
METRIC,TZ,000.000
T2C0.350
T1C1.016
%
G90
M71
T1
X92512Y54531
X75248Y61635
X75248Y59095
X75248Y56555
T2
X73422Y54173
X70287Y50403
X72827Y50403
X79177Y48458
X81280Y48458
X95012Y56912
X96560Y56912
X77192Y65603
X77192Y63500
X86876Y64691
X88186Y49649
X86127Y47585
X83741Y65564
X85923Y65603
X82272Y55364
X71991Y64787
X80724Y42704
X71874Y49093
X86995Y58301
X91996Y47886
X83993Y66636
X87352Y50641
X83542Y63063
X83493Y50144
X81320Y50165
X77841Y52345
X77748Y51396
M30